<?xml version="1.0" encoding="UTF-8"?>
<svg id="Layer_2" data-name="Layer 2" xmlns="http://www.w3.org/2000/svg" viewBox="0 0 76.52 90.08">
  <defs>
    <style>
      .cls-1 {
        fill: #fff;
      }

      .cls-2 {
        fill: #231f20;
      }
    </style>
  </defs>
  <g id="Layer_3" data-name="Layer 3">
    <g>
      <path class="cls-1" d="M67.72,50.89c3.09-3.4,6.51-6.57,6.58-11.66,.54-6.39,.3-12.65-2.99-18.42-.37-2.21-.75-4.43-1.12-6.64h0c-.81-3.17-2.57-7.57-2.43-9.51-.3-1.63-.65-3.2-2.93-2.47-.54,.37-1.17,.66-1.59,1.14-2.28,2.6-4.51,5.25-6.76,7.88-1.89-.41-3.79-.75-5.65-1.24-3.12-.82-6.22-1.56-9.37-.14-2.29,.46-4.76,.5-6.82,1.45-4.88,2.25-4.79,2.42-8.74-1.41-.78-.76-1.67-1.43-2.33-2.28-1.65-2.13-3.5-2.96-5.93-1.28-.44-.37-.98-.11-.59,.09-.28,.36-.56,.73-.84,1.09,.24,3.03,.48,6.06,.72,9.09,1.03,2.43,1.24,4.56-.66,6.94-1.46,1.83-2.02,4.36-2.99,6.59-.53,1.27-1.06,2.53-1.58,3.8-.2,3.15-.4,6.3-.61,9.46,.74,2.04,1.48,4.08,2.21,6.12,.42,.97,.6,2.16,1.3,2.86,2.1,2.12,4.4,4.04,6.62,6.04,2.17,.82,4.34,1.65,6.5,2.47-.24,1.21-.49,2.42-.72,3.63-.37,1.93-.94,3.12-3.48,3.28-5.45,.34-7.8-3-9.73-7.1-1.84-3.91-5.8-5.81-9.93-4.63-.27,.69-.36,1.8-.83,2-1.88,.78-.62,1.81-.42,2.77l.65,.57c1.16,3.03,2.47,5.96,5.29,7.87,.44,3.74,2.66,6.27,5.65,8.27,1.98,.45,3.96,.89,5.93,1.34,4.85,.33,5.96,1.07,5.5,4.7-.23,1.86,.43,2.06,1.77,2.62,4.37,1.81,8.82,2.15,13.5,1.79,6.36-.5,12.75-.62,19.13-.91,2.52,.15,3.3-1.75,4.19-3.53,.41-.99,.82-1.99,1.23-2.98,.44-.51,.84-1.06,1.31-1.54,1.96-2,1.89-7.19-.13-9.24v-.29s.03-.29,.03-.29c1.51-4.45-.86-8.36-1.81-12.46-.07-.32-.82-.48-1.25-.71-.18-.02-.36,.02-.52,.1,.17-.08,.34-.11,.52-.1,1.37-1.71,2.65-3.49,4.12-5.11Z"/>
      <path class="cls-2" d="M37.72,90.08c-4.13,0-7.72-.67-11.09-2.07l-.13-.05c-1.3-.54-3.27-1.35-2.86-4.66,.19-1.49-.02-1.77-.03-1.77-.11-.14-.7-.48-3.63-.68l-.3-.04-6.29-1.42-.31-.21c-3.63-2.42-5.72-5.31-6.39-8.81-2.66-2.11-4.02-4.98-5.13-7.81l-.78-.68-.14-.66c-.03-.07-.08-.18-.13-.28-.27-.57-.79-1.63-.33-2.84,.25-.66,.74-1.2,1.45-1.61,.02-.07,.04-.15,.06-.21,.09-.34,.18-.68,.29-.96l.36-.93,.96-.27c5.06-1.45,10,.84,12.29,5.7,1.91,4.06,3.71,6.21,7.79,5.95,1.25-.08,1.36-.19,1.65-1.66,.13-.66,.26-1.32,.39-1.98l-5.27-2-.28-.25c-.62-.56-1.25-1.11-1.87-1.66-1.61-1.42-3.27-2.89-4.83-4.45-.8-.81-1.15-1.85-1.43-2.68-.09-.27-.18-.54-.29-.79l-.04-.11-2.36-6.52,.65-10.21,1.71-4.11c.28-.65,.52-1.32,.78-2.02,.63-1.73,1.28-3.52,2.49-5.04,1.2-1.51,1.3-2.75,.38-4.92l-.13-.3-.8-10.18,.8-1.03c.13-.65,.57-1.21,1.21-1.5,.38-.17,.8-.24,1.22-.2,1.92-.99,4.88-1.48,7.76,2.23,.33,.43,.8,.85,1.29,1.29,.29,.26,.58,.51,.85,.78,1.24,1.2,2.41,2.34,2.89,2.44,.41,.08,1.66-.5,3.11-1.17l.5-.23c1.68-.78,3.47-1.03,5.19-1.27,.62-.09,1.25-.17,1.86-.29,3.8-1.62,7.5-.65,10.47,.12,1.23,.32,2.47,.58,3.79,.85,.2,.04,.41,.08,.61,.13l.93-1.09c1.68-1.98,3.37-3.95,5.08-5.9,.49-.55,1.06-.9,1.52-1.19,.14-.09,.29-.17,.42-.27l.25-.17,.29-.09c1.35-.43,2.52-.36,3.47,.22,1.5,.9,1.82,2.65,2.03,3.8l.05,.25-.02,.26c-.07,.91,.74,3.46,1.32,5.32,.38,1.2,.77,2.44,1.05,3.55l.03,.16,1.07,6.3c3.57,6.47,3.57,13.32,3.08,19.2-.1,5.33-3.35,8.84-6.21,11.95-.3,.32-.59,.64-.88,.96h0c-.94,1.03-1.8,2.14-2.7,3.3,.13,.21,.24,.44,.3,.72,.23,1.01,.57,2.03,.92,3.1,.96,2.92,2.03,6.2,1.03,9.84,2.1,3.11,1.94,8.64-.55,11.19-.28,.29-.54,.61-.8,.92-.07,.09-.14,.18-.22,.26l-1.32,3.11c-.89,1.8-2.21,4.53-5.84,4.35-1.89,.08-3.78,.15-5.66,.22-4.37,.16-8.89,.33-13.3,.67-1.15,.09-2.26,.13-3.33,.13Zm-10.14-6.01c.13,.06,.3,.13,.44,.19l.14,.06c3.64,1.51,7.64,2.03,12.58,1.64,4.49-.35,9.05-.52,13.46-.68,1.91-.07,3.82-.14,5.73-.23h.11s.1,0,.1,0c.91,.05,1.2-.24,2.13-2.12l.37-.86,1.08-2.59,.2-.24c.13-.15,.25-.3,.38-.46,.32-.39,.65-.79,1.03-1.19,1.19-1.22,1.11-5.19-.12-6.43l-.55-.56-.04-1.26,.15-.82c.89-2.63,.08-5.08-.85-7.93-.28-.86-.57-1.73-.81-2.63-.17-.07-.32-.14-.46-.21l.28-.51s-.01-.06-.02-.08c0,.03,.01,.06,.02,.08l.37-.69-.64-1.31-.62-.5c.08-.1,.16-.2,.24-.3l-.08-.15c.1-.05,.2-.09,.3-.13,.26-.34,.52-.67,.79-1.01,.93-1.2,1.9-2.45,2.96-3.62,.3-.33,.6-.66,.91-.99,2.74-2.96,5.1-5.52,5.15-9.36v-.14c.46-5.37,.49-11.62-2.73-17.26l-.18-.31-1.17-6.91c-.25-.99-.62-2.14-.97-3.26-.82-2.6-1.53-4.86-1.51-6.52-.04-.22-.1-.51-.17-.73-.08,.05-.16,.1-.24,.15-.22,.13-.52,.31-.6,.41-1.7,1.94-3.37,3.9-5.04,5.86l-2.48,2.91-1.17-.25c-.58-.12-1.16-.25-1.74-.36-1.31-.27-2.66-.55-3.99-.9-3.19-.83-5.63-1.34-8.04-.25l-.21,.09-.22,.04c-.77,.16-1.55,.26-2.3,.37-1.51,.21-2.93,.41-4.08,.94l-.5,.23c-5.15,2.38-6.13,2.19-10.47-2.03-.24-.23-.48-.45-.73-.67-.58-.52-1.23-1.1-1.79-1.82-1.45-1.87-2.18-1.57-3.21-.86l-.5,.34,.62,7.8c.94,2.33,1.56,5.37-1.07,8.66-.8,1.01-1.32,2.42-1.86,3.91-.26,.73-.54,1.49-.86,2.22l-1.45,3.47-.56,8.71,2.05,5.68c.14,.34,.26,.7,.38,1.05,.13,.39,.33,.98,.47,1.12,1.46,1.47,3.08,2.9,4.64,4.27,.54,.48,1.08,.96,1.62,1.44l7.74,2.94-.55,2.75c-.17,.84-.34,1.68-.5,2.52-.44,2.28-1.42,4.65-5.32,4.9-6.66,.42-9.64-3.93-11.67-8.24-1.28-2.73-3.77-4.13-6.53-3.78-.19,.64-.49,1.37-1.14,1.86l.02,.06,.62,.54,.18,.47c1.05,2.74,2.19,5.34,4.55,6.94l.76,.51,.11,.91c.31,2.64,1.7,4.7,4.48,6.63l5.41,1.22c3.06,.22,5.07,.65,6.29,2.12,1.15,1.4,1.11,3.22,.91,4.81-.01,.11-.02,.21-.03,.28Zm35.93-27.08l-.08,1c.18,.01,.36-.02,.52-.1l-.44-.9Z"/>
    </g>
  </g>
</svg>