<?xml version="1.0" encoding="UTF-8"?>
<svg id="Layer_2" data-name="Layer 2" xmlns="http://www.w3.org/2000/svg" viewBox="0 0 86.5 84.5">
  <defs>
    <style>
      .cls-1 {
        fill: #fff;
      }
    </style>
  </defs>
  <g id="Layer_3" data-name="Layer 3">
    <g>
      <path d="M9.44,69.67c-.91-2.08-1.25-4.47-1.43-6.08-.64-5.72-1.44-12.84-1.9-19.7-.14-2.11-.13-4.26-.12-6.34,.01-2.61,.03-5.3-.26-7.91-.45-3.97,.34-7.46,1.19-10.37l-.03-.18c-.14,.41-.25,.83-.36,1.23-.31,1.13-.51,1.87-1.08,1.97-1.01,.19-1.66,.52-2,1.03-.49,.73-.28,1.76-.08,2.76,.1,.5,.2,.97,.21,1.41l.07,2.95c.24,10.18,.49,20.71,1.41,30.99l.02,.24c.47,5.21,1,11.12,6.93,13.8l.79-.38c-.29-.45-.6-.89-.9-1.33-.89-1.3-1.82-2.64-2.45-4.1Z"/>
      <path class="cls-1" d="M80.3,22.91c-.58-3.6-1.18-7.33-3.7-10.33-.73-.58-1.48-1.28-2.21-1.95-2.33-2.17-4.53-4.22-7.99-4.41-2.75-.15-5.54-.38-8.23-.59-4.67-.37-9.49-.76-14.23-.79-3.32,0-6.73,.53-10.03,1.05-.4,.06-.8,.13-1.21,.19,.12,.01,.23,.02,.35,.03,2.73,.26,5.56,.54,8.33,.52,2.59-.02,5.23-.3,7.78-.57,1.46-.16,2.97-.32,4.46-.43,.65-.05,1.89-.06,2.87,.44,.74,.37,1.4,1.4,1.4,2.15,0,.25-.16,.53-.46,.82-.4,.38-1.07,.78-1.59,.75-3.72-.2-7.5,.12-11.16,.43-4.75,.4-9.66,.82-14.61,.12-2.62-.37-5.6,.92-8.48,2.17-1.25,.54-2.54,1.11-3.8,1.53-.51,.17-.98,.5-1.47,.84-.24,.17-.48,.33-.72,.48l-4.5,2.29c-3.14,8.55-2.8,17.43-2.16,24.21,.71,7.38,1.63,15.37,2.81,24.42,.55,4.18,2.71,5.99,8.55,7.16,2.2-.08,4.4-.15,6.6-.22,5.01-.16,10.18-.33,15.26-.62,6.13-.36,12.09-.9,17.72-1.6,1.62-.2,3.25-.69,4.82-1.16,1.1-.33,2.23-.67,3.37-.91,.67-.15,1.36,.02,2.03,.17,.28,.07,.57,.13,.84,.17l.39,.06-.06,.39c-.04,.27-.06,.61-.07,.93-.04,.88-.07,1.71-.61,2.05-1.27,.81-3.19,1.91-5.11,2.09-2.5,.23-5.06,.33-7.52,.43-2.55,.1-5.18,.2-7.75,.45-1.85,.18-3.72,.55-5.52,.91-2.16,.43-4.4,.88-6.63,1-4.12,.23-8.32,.16-12.39,.09-1.72-.03-3.44-.06-5.16-.06l-1.2,.75,7.93,1.24c2.07,.01,4.2,.03,6.34,.05,4.85,.05,9.87,.1,14.8,.09h.05c.87,0,1.74,.01,2.61,.03,4.68,.07,9.52,.14,14.02-1.98,1.36-.64,2.83-1.07,4.25-1.49,.63-.18,1.26-.37,1.88-.57,.41-.29,.84-.57,1.26-.85,.93-.61,1.89-1.24,2.71-1.97,3.05-2.7,3.69-6.52,4.31-10.21,.13-.76,.25-1.51,.4-2.24,2.68-13.61,2.99-24.58,.96-34.53-.2-1-.37-2.03-.53-3.03Zm-15.26-9.61c1.23-1.27,2.84-2.03,4.31-2.04h.03c3.23,0,5.5,2.72,5.64,6.79,.05,1.54-.53,3.01-1.64,4.16-1.27,1.3-3.11,2.05-5.07,2.05h-.06c-2.22-.02-4.71-4.4-4.79-7.47-.03-1.14,.55-2.41,1.58-3.48Zm-9.3,47.77c-3.2,1.98-6.5,2.47-9.79,2.47-1.66,0-3.31-.13-4.95-.25-.73-.06-1.46-.11-2.2-.16-5.91-.45-10.94-2.94-14.18-7.02-3.12-3.92-4.37-9.12-3.53-14.62,.4-2.63,.97-5.15,1.7-7.47,2.56-8.22,9.52-10.58,15.29-11.71,7.11-1.9,13.03-1.12,18.06,2.39,5.64,3.05,8.28,8.03,8.31,15.69,1.89,9.37-.79,15.77-8.71,20.67Zm13.15-31.43c-1.53,0-3.02-.35-4.38-1.07-3.38-1.78-5.54-5.46-5.92-10.1-.04-.52-.14-1.06-.23-1.58-.14-.81-.29-1.64-.26-2.48,.04-1.13,.42-2.37,1.03-3.32,.16-.25,.51-.28,.78-.27,.55,.02,1.87,.25,2.2,.84,.46,.82,.62,2.36,.11,3.25-1.55,2.74-.92,4.96-.12,6.34,1.44,2.48,4.61,4.29,7.54,4.3,.36-.05,.76-.11,1.17-.17,1.06-.16,2.16-.32,3.26-.33h0c.53,0,.98,.36,1.42,.71,.17,.13,.34,.27,.51,.37l.45,.28-.39,.35c-.14,.13-.28,.26-.41,.4-.32,.31-.64,.64-1.05,.87-1.87,1.07-3.84,1.61-5.73,1.61Zm10.99,23.38c-.43,3.67-1.55,7.3-2.62,10.81-.39,1.26-.77,2.51-1.13,3.77-.15,.53-.63,.88-1.09,1.23-.18,.13-.36,.27-.52,.41l-.42,.39-.22-.53c-.1-.24-.25-.51-.4-.79-.37-.66-.76-1.35-.57-1.97,3.61-12.16,4.98-22.34,4.32-32.04-.11-1.67-.26-3.33-.41-5-.07-.78-.14-1.55-.2-2.33l-.03-.34,2.34-.53,.09,.38c.16,.71,.37,1.44,.57,2.15,.45,1.58,.91,3.22,.92,4.86v.96c.05,6.11,.09,12.43-.64,18.56Z"/>
      <path class="cls-1" d="M45.71,31.6c-.96-.04-1.89-.07-2.81-.07-4,0-7.59,.58-10.68,3.37-2.55,2.31-4.11,4.49-3.4,7.63,.27,1.2,.67,2.4,1.05,3.57,.33,1.01,.68,2.05,.95,3.1,1.1,4.31,9.01,7.4,13.78,6.35,5.45-2,9.32-5.03,11.82-9.27,.07-.42,.16-.84,.25-1.25,.21-.94,.4-1.84,.33-2.7-.46-5.47-5.74-10.49-11.3-10.73Z"/>
      <path d="M80.08,10.74c-.47-.66-.97-1.34-1.43-2.07-4.8-5.35-9.5-7.93-14.78-8.14C52.41,.08,42.87-.07,33.87,.03c-6.46,.08-12.24,1.59-17.2,4.48l-1.74,.57c-1.35,.44-2.7,.88-4.05,1.34C5.1,8.39,.02,15.24,0,21.07c0,3.72,.18,7.49,.35,11.15,.09,1.85,.18,3.7,.25,5.55,.09,2.63,.16,5.26,.23,7.89,.14,5.58,.29,11.35,.71,17.01,.55,7.46,1.66,14.43,9.03,17.69,2.65,1.17,5.63,1.62,8.52,2.06,1.29,.19,2.62,.39,3.91,.66,.96,.16,1.94,.36,2.89,.55,2.08,.43,4.24,.87,6.38,.87h.05c1.31,0,2.62,0,3.93,0,8.42,0,17.12-.02,25.6-.88,3.33-.34,6.56-1.83,9.69-3.28,1.4-.65,2.84-1.31,4.28-1.87l1.33-.56,2.82-3.14c.29-.45,.63-.89,.96-1.33,.76-1,1.55-2.03,1.82-3.21,.56-2.39,.93-4.85,1.29-7.23,.24-1.62,.49-3.3,.8-4.93,2.76-14.56,2.05-28.91-2.11-42.64-.51-1.69-1.6-3.21-2.66-4.67Zm-68.28,.57h0Zm.2,64.18c-5.94-2.68-6.47-8.58-6.93-13.8l-.02-.24c-.92-10.29-1.17-20.81-1.41-30.99l-.07-2.95c-.01-.44-.11-.91-.21-1.41-.2-1-.41-2.04,.08-2.76,.34-.5,1-.84,2-1.03,.57-.11,.77-.85,1.08-1.97,.11-.4,.23-.83,.36-1.23l.03,.18c-.84,2.91-1.63,6.41-1.19,10.37,.29,2.61,.28,5.3,.26,7.91-.01,2.08-.02,4.23,.12,6.34,.47,6.86,1.26,13.98,1.9,19.7,.18,1.61,.52,3.99,1.43,6.08,.64,1.46,1.56,2.8,2.45,4.1,.3,.44,.61,.89,.9,1.33l-.79,.38Zm67.87-15.01c-.14,.73-.27,1.48-.4,2.24-.62,3.69-1.26,7.51-4.31,10.21-.82,.73-1.78,1.36-2.71,1.97-.42,.28-.85,.56-1.26,.85-.62,.2-1.25,.39-1.88,.57-1.42,.42-2.89,.85-4.25,1.49-4.49,2.13-9.34,2.05-14.02,1.98-.87-.01-1.74-.03-2.61-.03h-.05c-4.93,0-9.95-.04-14.8-.09-2.13-.02-4.26-.04-6.34-.05l-7.93-1.24,1.2-.75c1.72,0,3.44,.04,5.16,.06,4.06,.07,8.26,.14,12.39-.09,2.23-.12,4.47-.57,6.63-1,1.81-.36,3.68-.74,5.52-.91,2.57-.25,5.2-.35,7.75-.45,2.47-.1,5.02-.19,7.52-.43,1.92-.18,3.83-1.28,5.11-2.09,.54-.34,.57-1.17,.61-2.05,.01-.33,.03-.66,.07-.93l.06-.39-.39-.06c-.28-.04-.56-.11-.84-.17-.67-.16-1.37-.32-2.03-.17-1.14,.25-2.27,.58-3.37,.91-1.57,.47-3.2,.96-4.82,1.16-5.63,.71-11.59,1.25-17.72,1.6-5.08,.3-10.26,.46-15.26,.62-2.2,.07-4.4,.14-6.6,.22-5.85-1.17-8.01-2.98-8.55-7.16-1.19-9.05-2.11-17.03-2.81-24.42-.65-6.79-.99-15.66,2.16-24.21l4.5-2.29c.24-.15,.48-.32,.72-.48,.5-.35,.97-.67,1.47-.84,1.26-.42,2.55-.99,3.8-1.53,2.88-1.25,5.85-2.54,8.48-2.17,4.95,.7,9.86,.28,14.61-.12,3.66-.31,7.43-.63,11.16-.43,.51,.03,1.18-.37,1.59-.75,.31-.29,.46-.56,.46-.82,0-.76-.66-1.78-1.4-2.15-.98-.5-2.22-.49-2.87-.44-1.49,.11-3,.27-4.46,.43-2.55,.27-5.19,.55-7.78,.57-2.77,.02-5.6-.25-8.33-.52-.12-.01-.23-.02-.35-.03,.41-.06,.81-.13,1.21-.19,3.29-.53,6.71-1.06,10.03-1.05,4.74,.03,9.56,.42,14.23,.79,2.7,.22,5.49,.44,8.23,.59,3.46,.19,5.66,2.24,7.99,4.41,.73,.68,1.48,1.38,2.21,1.95,2.52,2.99,3.12,6.72,3.7,10.33,.16,1,.33,2.03,.53,3.03,2.03,9.95,1.72,20.92-.96,34.53Z"/>
      <path d="M80.52,33.51c0-1.64-.47-3.27-.92-4.86-.2-.7-.41-4.2-.57-4.92l-.73-3.42-5.54,6.46,3.87,.21c.06,.78,.13,1.55,.2,2.33,.15,1.66,.29,3.33,.41,5,.66,9.69-.72,19.87-4.32,32.04-.18,.62,.2,1.31,.57,1.97,.16,.28,.3,.54,.4,.79l.22,.53,.42-.39c.15-.14,.33-.28,.52-.41,.46-.34,.94-.7,1.09-1.23,.36-1.26,.74-2.51,1.13-3.77,1.08-3.51,2.19-7.14,2.62-10.81,.72-6.14,.68-12.46,.64-18.56v-.96Z"/>
      <g>
        <path d="M68.25,23.33c-1.42-.01-3.79-3.6-3.87-6.57-.02-.89,.46-1.92,1.32-2.81,1.06-1.09,2.42-1.75,3.66-1.75,2.77,0,4.62,2.31,4.74,5.89,.04,1.29-.45,2.52-1.38,3.48-1.09,1.12-2.7,1.77-4.41,1.77h-.06Z"/>
        <path class="cls-1" d="M69.39,13.11c2.2,0,3.69,1.96,3.79,5,.04,1.03-.36,2.03-1.12,2.8-.92,.95-2.29,1.49-3.75,1.49h-.04c-.75-.1-2.9-3.01-2.97-5.67-.02-.63,.39-1.45,1.06-2.15,.87-.9,2.02-1.47,2.99-1.47h.03m0-1.85h-.03c-1.47,0-3.09,.77-4.31,2.04-1.04,1.07-1.61,2.34-1.58,3.48,.08,3.07,2.57,7.46,4.79,7.47h.06c1.96,0,3.8-.74,5.07-2.05,1.11-1.14,1.69-2.62,1.64-4.16-.14-4.06-2.4-6.79-5.64-6.79h0Z"/>
      </g>
      <path d="M75.66,27.17c.14-.14,.27-.27,.41-.4l.39-.35-.45-.28c-.17-.11-.34-.24-.51-.37-.44-.35-.89-.71-1.42-.71h0c-1.1,0-2.2,.17-3.26,.33-.41,.06-.81,.12-1.17,.17-2.93,0-6.1-1.82-7.54-4.3-.8-1.38-1.43-3.6,.12-6.34,.51-.89,.35-2.43-.11-3.25-.33-.59-1.65-.83-2.2-.84-.28,0-.62,.02-.78,.27-.61,.95-.99,2.19-1.03,3.32-.03,.84,.12,1.67,.26,2.48,.09,.52,.19,1.06,.23,1.58,.38,4.64,2.54,8.32,5.92,10.1,1.36,.71,2.85,1.07,4.38,1.07,1.89,0,3.86-.54,5.73-1.61,.4-.23,.73-.56,1.05-.87Z"/>
      <path d="M63,8.98c-.14,.14-.27,.27-.41,.4l-.39,.35,.45,.28c.17,.11,.34,.24,.51,.37,.44,.35,.89,.71,1.42,.71h0c1.1,0,2.2-.17,3.26-.33,.41-.06,.81-.12,1.17-.17,2.93,0,6.1,1.82,7.54,4.3,.8,1.38,1.43,3.6-.12,6.34-.51,.89-.35,2.43,.11,3.25,.33,.59,1.65,.83,2.2,.84,.28,0,.62-.02,.78-.27,.61-.95,.99-2.19,1.03-3.32,.03-.84-.12-1.67-.26-2.48-.09-.52-.19-1.06-.23-1.58-.38-4.64-2.54-8.32-5.92-10.1-1.36-.71-2.85-1.07-4.38-1.07-1.89,0-3.86,.54-5.73,1.61-.4,.23-.73,.56-1.05,.87Z"/>
      <g>
        <path d="M45.95,63.09c-1.66,0-3.31-.13-4.92-.25h-.15c-.68-.06-1.37-.11-2.05-.16-5.77-.44-10.69-2.87-13.85-6.85-3.04-3.82-4.26-8.89-3.44-14.26,.4-2.61,.97-5.1,1.68-7.4,2.49-7.99,9.29-10.29,14.94-11.39,2.49-.66,4.84-1,7.01-1,4,0,7.49,1.08,10.69,3.32,5.52,2.99,8.08,7.84,8.11,15.31,1.86,9.26-.76,15.49-8.49,20.28-2.69,1.66-5.63,2.4-9.55,2.4Zm-3.05-32.03c-3.7,0-7.59,.42-10.99,3.49-2.67,2.42-4.3,4.71-3.54,8.07,.28,1.22,.68,2.43,1.06,3.6,.34,1.02,.68,2.05,.94,3.08,1.01,3.95,7.26,6.91,12.19,6.91,.77,0,1.49-.07,2.14-.22,5.62-2.05,9.56-5.15,12.12-9.48l.04-.07v-.09c.08-.41,.17-.82,.26-1.23,.21-.98,.42-1.91,.34-2.84-.48-5.69-5.97-10.9-11.74-11.15-1.12-.05-2.02-.07-2.83-.07Z"/>
        <path class="cls-1" d="M45.18,22.24c3.9,0,7.31,1.06,10.43,3.23l.04,.03,.05,.02c5.31,2.87,7.8,7.6,7.83,14.88v.09s.02,.09,.02,.09c1.81,8.96-.75,15.03-8.29,19.71-2.61,1.61-5.48,2.34-9.31,2.34-1.63,0-3.28-.13-4.88-.25-.73-.06-1.47-.11-2.2-.16-5.65-.43-10.45-2.8-13.53-6.67-2.96-3.72-4.14-8.66-3.34-13.91,.4-2.59,.96-5.06,1.67-7.33,1.27-4.08,4.08-9.02,14.59-11.08h.03s.03-.01,.03-.01c2.43-.65,4.73-.98,6.86-.98m-2.62,34.43c.8,0,1.56-.08,2.24-.23h.06s.06-.03,.06-.03c5.66-2.07,9.69-5.23,12.3-9.66l.09-.15,.03-.17c.07-.41,.16-.83,.24-1.21,.21-.97,.43-1.97,.35-2.97-.5-5.9-6.19-11.31-12.18-11.57-1.13-.05-2.04-.07-2.85-.07-3.61,0-7.78,.43-11.3,3.61-2.42,2.19-4.54,4.73-3.68,8.52,.28,1.24,.68,2.46,1.08,3.65,.33,.99,.67,2.01,.93,3.04,.87,3.43,6.28,7.25,12.63,7.25m2.62-35.36c-2.23,0-4.59,.34-7.1,1.01-5.77,1.13-12.73,3.48-15.29,11.71-.72,2.32-1.29,4.83-1.7,7.47-.84,5.5,.41,10.7,3.53,14.62,3.24,4.08,8.28,6.57,14.18,7.02,.73,.05,1.47,.1,2.2,.16,1.64,.12,3.29,.25,4.95,.25,3.29,0,6.59-.49,9.79-2.47,7.92-4.9,10.6-11.3,8.71-20.67-.03-7.65-2.67-12.64-8.31-15.69-3.25-2.27-6.88-3.4-10.96-3.4h0Zm-2.62,34.43c-4.71,0-10.79-2.82-11.74-6.56-.27-1.05-.61-2.09-.95-3.1-.38-1.16-.78-2.37-1.05-3.57-.71-3.14,.84-5.32,3.4-7.63,3.09-2.79,6.68-3.37,10.68-3.37,.92,0,1.85,.03,2.81,.07,5.56,.24,10.84,5.25,11.3,10.73,.07,.86-.12,1.76-.33,2.7-.09,.42-.18,.84-.25,1.25-2.5,4.24-6.37,7.27-11.82,9.27-.63,.14-1.32,.21-2.04,.21h0Z"/>
      </g>
    </g>
  </g>
</svg>