<?xml version="1.0" encoding="UTF-8"?>
<svg id="Layer_2" data-name="Layer 2" xmlns="http://www.w3.org/2000/svg" viewBox="0 0 81.09 77.96">
  <defs>
    <style>
      .cls-1 {
        fill: #fff;
      }

      .cls-2 {
        fill: #231f20;
      }
    </style>
  </defs>
  <g id="Layer_3" data-name="Layer 3">
    <g>
      <g>
        <path class="cls-1" d="M77.72,69.38c.26-4.82,.78-9.64,.94-14.46,.2-6.39,.84-12.88,.05-19.18-1.29-10.34-10.98-13.55-21.08-11.99-3.02,.47-5.87,2.09-8.78,3.18-2.89-5.57-5.29-6.07-10.23-2.15-.41,.32-.77,.71-1.16,1.07-.67,.7-1.57,1.28-1.96,2.11-1.85,3.98-1.98,8.15-1.49,12.49,.41,3.59,.32,7.24,.28,10.86-.03,2.51-.35,5.01-.54,7.52-.44,3.86-1,7.71-1.26,11.58-.15,2.14-1.22,5.35,2.34,5.52,4,.2,8.06-.39,12.07-.83,1.98-.22,3.08-1.18,2.73-3.64-.64-4.52-1.28-9.11-1.12-13.65,.24-6.72-.8-13.81,6.3-18.68,3.35-2.3,5.54-.81,7.69,.53,1.08,.67,1.01,3.3,1.32,5.06,.15,.88,.07,1.83-.04,2.73-.73,5.89-1.2,11.84-2.34,17.65-1.1,5.61,.37,9.3,5.39,10.14,1.98,.33,4.15-.8,6.26-.95,3.16-.23,4.47-1.89,4.63-4.91Z"/>
        <path class="cls-2" d="M36.47,77.96c-.58,0-1.16-.01-1.74-.04-1.53-.08-2.71-.59-3.5-1.53-1.3-1.55-1.03-3.63-.84-5.16,.04-.33,.08-.66,.11-.96,.19-2.78,.53-5.57,.87-8.27,.14-1.13,.28-2.26,.41-3.4,.05-.71,.12-1.5,.2-2.29,.16-1.74,.31-3.38,.33-5.03v-.97c.05-3.2,.09-6.5-.26-9.64-.63-5.54-.12-9.72,1.66-13.56,.44-.94,1.17-1.6,1.76-2.12,.19-.17,.39-.34,.56-.53l.42-.4c.3-.29,.61-.59,.94-.85,2.2-1.75,4.82-3.46,7.55-2.86,2.14,.46,3.64,2.16,4.8,4.07,.35-.15,.7-.3,1.05-.45,2.07-.9,4.21-1.83,6.54-2.19,7.09-1.1,13.33,.07,17.59,3.28,3.24,2.44,5.23,6.05,5.78,10.43,.62,4.99,.38,10.09,.15,15.02-.07,1.49-.14,2.98-.19,4.47-.09,2.85-.31,5.73-.52,8.51-.15,1.97-.31,4-.41,6h0c-.28,5.25-3.68,6.59-6.48,6.79-.68,.05-1.43,.24-2.23,.45-1.37,.35-2.92,.75-4.51,.48-2.65-.44-4.63-1.59-5.89-3.41-1.51-2.17-1.89-5.23-1.13-9.09,.81-4.1,1.28-8.38,1.74-12.52,.19-1.67,.37-3.33,.58-5,.09-.75,.16-1.52,.06-2.14-.09-.5-.15-1.05-.21-1.62-.07-.68-.19-1.77-.37-2.19h0c-2.18-1.36-3.24-1.9-5.33-.47-5.28,3.62-5.33,8.57-5.38,14.3,0,.94-.02,1.88-.05,2.81-.16,4.39,.48,8.92,1.1,13.29,.24,1.7-.05,3.08-.85,4.12-.79,1.01-2.01,1.62-3.64,1.79-.62,.07-1.25,.14-1.87,.21-2.87,.33-5.82,.67-8.78,.67Zm-2.17-4.14s.2,.08,.63,.1c3.21,.16,6.59-.23,9.86-.61,.63-.07,1.26-.15,1.89-.21,.64-.07,.88-.22,.92-.27,.05-.06,.15-.38,.05-1.1-.64-4.55-1.31-9.26-1.14-14,.03-.9,.04-1.8,.05-2.7,.06-5.98,.12-12.76,7.12-17.56,4.34-2.97,7.57-.96,9.71,.37l.17,.11c1.63,1.01,1.86,3.16,2.06,5.06,.05,.47,.1,.94,.17,1.35,.2,1.14,.11,2.27-.03,3.33-.2,1.64-.39,3.29-.57,4.95-.47,4.22-.95,8.58-1.79,12.85-.54,2.75-.38,4.79,.49,6.04,.63,.91,1.7,1.48,3.26,1.74,.76,.12,1.78-.14,2.86-.41,.93-.24,1.9-.49,2.94-.56,2.01-.14,2.66-.85,2.77-3.02h0c.11-2.04,.27-4.1,.42-6.09,.21-2.74,.43-5.56,.51-8.33,.05-1.51,.12-3.02,.19-4.53,.22-4.76,.46-9.68-.12-14.34-.42-3.33-1.84-5.94-4.22-7.74-3.34-2.52-8.65-3.44-14.57-2.52-1.82,.28-3.63,1.07-5.56,1.9-.92,.4-1.87,.81-2.83,1.17l-1.66,.62-.82-1.57c-1.15-2.21-2.15-3.42-2.98-3.59-.84-.18-2.26,.52-4.23,2.09-.23,.18-.44,.39-.65,.59-.12,.11-.23,.23-.35,.34-.23,.24-.49,.47-.75,.7-.32,.28-.71,.63-.8,.83-1.45,3.13-1.85,6.65-1.31,11.42,.38,3.39,.34,6.82,.3,10.14v.96c-.03,1.81-.2,3.61-.36,5.35-.07,.77-.14,1.53-.2,2.3-.14,1.22-.28,2.37-.42,3.51-.33,2.65-.66,5.38-.85,8.05-.03,.37-.08,.78-.13,1.19-.08,.62-.23,1.78-.06,2.09h0Z"/>
      </g>
      <g>
        <path class="cls-1" d="M23.57,45.94c.13,0,.26,0,.4,0-.17-5.07-.18-10.16-.57-15.22-.2-2.69-1.14-4.44-4.83-3.48-3.98,1.03-8.78,2.24-12.29,.9-4.42-1.68-3.48,1.29-4.14,2.96-.34,.88,.01,2.06,.15,3.09,1.54,12,2.2,24.03,.36,36.04-.49,3.21,.72,4.28,3.61,4.47,4.29,.27,8.49-.02,12.78-.4,4.71-.41,4.22-2.39,4.16-5.71-.15-7.54,.21-15.1,.36-22.65Z"/>
        <path class="cls-2" d="M9.75,76.81c-1.19,0-2.4-.03-3.61-.11-1.37-.09-3.34-.38-4.57-1.91-.93-1.15-1.22-2.74-.9-4.86,1.58-10.29,1.46-21.23-.37-35.49-.03-.21-.07-.44-.11-.66-.17-.99-.39-2.22,.08-3.42,.07-.17,.12-.53,.17-.84,.15-1.02,.38-2.57,1.83-3.42,1.52-.89,3.42-.33,4.71,.16,2.97,1.13,7.65-.08,11.07-.97,2.21-.57,3.91-.4,5.19,.52,1.68,1.21,2.02,3.29,2.13,4.75,.27,3.63,.36,7.31,.45,10.87,.04,1.48,.07,2.96,.12,4.44l.07,2.05h-.51c-.04,1.54-.08,3.08-.12,4.61-.15,5.26-.3,10.7-.2,16.02l.02,.77c.09,2.87,.2,6.43-6,6.97-3.03,.27-6.22,.51-9.48,.51ZM4.48,29.67c-.03,.15-.05,.31-.07,.44-.08,.52-.17,1.12-.4,1.71-.05,.19,.07,.87,.14,1.27,.05,.28,.1,.56,.13,.84,1.88,14.64,1.99,25.93,.35,36.6-.21,1.36,.03,1.71,.06,1.74,.03,.03,.31,.33,1.7,.42,4.24,.27,8.49-.04,12.48-.4q2.44-.21,2.36-2.86l-.02-.82c-.11-5.42,.05-10.9,.2-16.21,.06-2.17,.12-4.35,.17-6.52l.04-1.94h.3c-.02-.81-.04-1.62-.06-2.42-.08-3.51-.17-7.13-.44-10.66-.11-1.46-.41-1.75-.47-1.79-.15-.1-.7-.2-1.86,.1-3.94,1.02-9.34,2.42-13.5,.83-.51-.2-.87-.29-1.09-.33Z"/>
      </g>
      <g>
        <path class="cls-1" d="M12.93,21.71c5.37,.63,8.95-2.33,9.52-7.84,.55-5.35-3.7-11.24-8.51-11.8C8.84,1.47,4.59,5.13,3.95,10.66c-.73,6.36,2.46,10.29,8.98,11.05Z"/>
        <path class="cls-2" d="M14.31,23.79c-.52,0-1.06-.03-1.61-.1-7.58-.88-11.59-5.84-10.74-13.26,.37-3.17,1.79-5.97,4-7.88C8.23,.6,11.15-.28,14.17,.08c5.94,.69,10.94,7.49,10.27,13.99-.34,3.29-1.64,5.93-3.76,7.64-1.71,1.38-3.89,2.08-6.37,2.08Zm-1.43-19.79c-1.6,0-3.1,.55-4.3,1.58-1.45,1.25-2.39,3.13-2.64,5.31-.6,5.23,1.83,8.2,7.23,8.83h0c2.05,.24,3.78-.15,5.01-1.14,1.27-1.02,2.06-2.72,2.29-4.92,.43-4.24-3.04-9.18-6.75-9.61-.28-.03-.55-.05-.83-.05Z"/>
      </g>
    </g>
  </g>
</svg>