<?xml version="1.0" encoding="UTF-8"?>
<svg id="Layer_2" data-name="Layer 2" xmlns="http://www.w3.org/2000/svg" viewBox="0 0 88.81 66.51">
  <defs>
    <style>
      .cls-1 {
        fill: #fff;
      }
    </style>
  </defs>
  <g id="Layer_3" data-name="Layer 3">
    <g>
      <path class="cls-1" d="M81.39,32.91c.27-6.49,.63-12.97,.83-19.45,.02-.75-.56-1.88-1.19-2.23-4.59-2.59-9.56-3.34-14.78-2.88-3.81,.33-7.66,.82-11.46,.64-6.95-.33-13.89-.98-20.81-1.72-4.4-.47-8.75-1.37-13.13-2.04-5.56-.85-11.41,3.46-12.38,8.93-.4,2.23,.29,4.64,.03,6.92-.91,7.78-2.02,15.53-3.05,23.29-.02,.22-.05,.44-.07,.66,.25,2.99,.39,6,.77,8.98,.41,3.21,2.9,5.46,6.13,5.44,6.05-.05,12.09-.27,18.14-.45,3.4-.1,6.8-.25,10.19-.37,4.04-.14,8.39,.63,12.02-.66,3.81-1.35,7.43-1.51,11.22-1.49,2.55,.01,5.09,.34,7.63,.37,6.25,.06,9.5-3.42,9.48-9.71-.01-4.74,.24-9.47,.43-14.21Zm-5.32-11.08c-2.71,3.77-5.89,7.2-8.88,10.77-1.42,1.8-2.64,3.81-4.3,5.35-2.76,2.57-5.81,4.84-8.73,7.23-6.57,2.72-12.28,3.23-17.31-1.75-5.06-5-9.56-10.56-14.34-15.83-.8-.89-1.75-1.71-2.77-2.33-4.75-2.88-6.73-9.38-4.13-14.34,.54-1.03,1.76-1.69,3-2.83,.22,1.03,.27,1.9,.6,2.66,.94,2.16,1.55,4.69,3.08,6.33,4.7,5.03,9.75,9.73,14.69,14.54,2.18,2.12,4.29,4.37,6.71,6.18,.97,.72,3.1,1.05,4.04,.48,5.9-3.64,11.79-7.35,17.32-11.52,3.33-2.51,6.03-5.87,8.93-8.93,.66-.7,.89-1.78,1.43-2.62,.38-.59,.95-1.06,1.44-1.58,.5,.67,1.54,1.47,1.42,1.99-.51,2.13-.95,4.48-2.18,6.2Z"/>
      <path d="M87.2,29.28c.11-3.02,.94-6.01,1.61-9.99-.34-3.29-.6-7.52-1.27-11.69-.73-4.61-3.69-7.86-9-5.83-.33,.13-.83,.2-1.11,.04-2.69-1.48-5.1-.12-7.59,.66-.95,.3-1.95,.61-2.92,.61-3.35,.02-6.7-.04-10.05-.18-6.7-.29-13.46-.25-20.09-1.09C27.5,.63,18.3-1.14,8.96,1.01c-.7,.16-1.51,.42-2,.9C1.88,6.93,.54,13.78,1.04,20.08,1.74,28.91,.41,37.52,.11,46.21c-.19,5.34-.29,10.51,.99,15.67,.66,2.65,3.66,4.83,6.33,4.6,8.82-.74,17.62-1.8,26.45-2.21,5.03-.24,10.2-1.62,15.17,.61,.34,.15,.8,.05,1.2,.02,4.26-.31,8.52-.64,12.78-.94,1.11-.08,2.23-.1,3.35-.07,2.15,.06,4.31,.17,6.46,.28,1.58,.08,3.58,.85,4.66,.16,3.11-1.97,6.27-4.18,8.56-6.99,1.21-1.49,.81-4.42,.85-6.71,.15-7.12,.03-14.24,.29-21.35Zm-15.72,27.54c-2.55-.02-5.09-.35-7.63-.37-3.79-.02-7.42,.14-11.22,1.49-3.63,1.29-7.98,.51-12.02,.66-3.4,.12-6.8,.27-10.19,.37-6.05,.18-12.09,.4-18.14,.45-3.22,.02-5.71-2.23-6.13-5.44-.38-2.98-.53-5.98-.77-8.98,.02-.22,.05-.44,.07-.66,1.03-7.76,2.14-15.51,3.05-23.29,.27-2.28-.43-4.69-.03-6.92,.97-5.46,6.82-9.78,12.38-8.93,4.38,.67,8.73,1.57,13.13,2.04,6.92,.74,13.86,1.39,20.81,1.72,3.8,.18,7.65-.31,11.46-.64,5.22-.46,10.2,.29,14.78,2.88,.63,.36,1.21,1.48,1.19,2.23-.2,6.49-.56,12.97-.83,19.45-.19,4.73-.44,9.47-.43,14.21,.02,6.29-3.23,9.77-9.48,9.71Z"/>
      <path d="M76.83,13.65c-.49,.52-1.05,.99-1.44,1.58-.54,.83-.77,1.92-1.43,2.62-2.9,3.06-5.6,6.42-8.93,8.93-5.53,4.17-11.42,7.88-17.32,11.52-.93,.58-3.07,.25-4.04-.48-2.43-1.81-4.53-4.06-6.71-6.18-4.94-4.8-10-9.5-14.69-14.54-1.53-1.64-2.14-4.17-3.08-6.33-.33-.76-.38-1.63-.6-2.66-1.24,1.14-2.46,1.8-3,2.83-2.6,4.96-.61,11.46,4.13,14.34,1.02,.62,1.96,1.44,2.77,2.33,4.79,5.27,9.29,10.83,14.34,15.83,5.04,4.98,10.74,4.47,17.31,1.75,2.93-2.39,5.97-4.66,8.73-7.23,1.66-1.54,2.88-3.55,4.3-5.35,2.99-3.57,6.17-7,8.88-10.77,1.24-1.72,1.68-4.07,2.18-6.2,.12-.52-.91-1.32-1.42-1.99Z"/>
    </g>
  </g>
</svg>