<?xml version="1.0" encoding="UTF-8"?><svg xmlns="http://www.w3.org/2000/svg" viewBox="0 0 287.8 242.92"><g id="a"/><g id="b"><g id="c"><g><path d="M165.76,137.89c-2.21-.03-2.51,1.26-2.28,2.71,.8,4.99,1.59,9.98,2.59,14.93,.72,3.54,1.7,7.04,2.71,10.52,.51,1.73,1.37,3.37,2.05,5.05,1.43,3.52,2.69,7.12,4.35,10.53,1.05,2.16,2.69,4.02,4.06,6.03,.44,.64,.99,1.27,1.21,1.99,.31,1.03-.3,1.6-1.29,1.22-.85-.33-1.85-.79-2.31-1.51-2.43-3.75-4.8-7.54-6.99-11.43-.79-1.41-1.03-3.12-1.53-4.7-1.53-4.8-3.18-9.57-4.55-14.41-.81-2.87-1.21-5.86-1.73-8.81-.62-3.56-1.46-7.11-1.67-10.7-.4-6.62,2.16-12.35,6.25-17.41,1.56-1.93,3.01-4.18,5.74-4.67,.72-.13,1.52,.19,2.28,.3-.36,.79-.51,1.86-1.12,2.33-2.85,2.21-5.52,4.54-7.01,7.91-.73,1.66-1.38,3.36-1.91,5.09-.12,.39,.41,.99,.64,1.49l.67-.28v-1.93l.46-.25c.66,.82,1.32,1.64,1.99,2.44,.99,1.17,2.65,1.08,3.41-.15,.89-1.45,1.8-2.88,2.72-4.3,.12-.18,.39-.25,.91-.58,1.08,1.35,2.19,2.72,3.51,4.36,2.61-2.9,5.32-5.52,7.1-9,1.97-3.85,4.2-7.58,6.38-11.32,.34-.57,.97-1.22,1.58-1.35,4.33-.96,5.2-4.48,5.92-8,.55-2.69,.74-5.46,1.21-8.17,.07-.43,.77-1.11,1.14-1.09,1.93,.13,2.14-1.18,2.46-2.55,.39-1.69,.29-3.79,3.46-3.72-.52-2.28-1.01-4.27-1.41-6.28-.15-.75-.19-1.58-.04-2.33,.62-3.16,1.37-6.29,1.98-9.45,.12-.63-.12-1.33-.19-1.98-4.42,.07-6.72,2.38-6.64,6.43,.05,2.27-.22,4.55,.99,6.72,.41,.74-.03,1.95-.09,2.95l-.61,.29c-1.07-1.41-2.15-2.82-3.22-4.23l-.57,.23c-.77,2.89-2.43,5.51-1.75,8.83,.59,2.89,.63,5.81-1.94,8.14-.62,.56-.3,2.03-.79,2.86-1.42,2.42-3.04,4.72-4.66,7.19-1.37-2.17-.87-5.77,1.24-7.46,2.32-1.86,2.36-4.59,2.96-6.96,.62-2.46,.61-5.05,1.61-7.53,.73-1.82,.43-4.03,.78-6.03,.47-2.68,.92-2.87,3.97-1.75,.15-1.27,.25-2.43,.42-3.59,.33-2.32,.14-4.95,1.22-6.86,.9-1.59,3.26-2.41,5.06-3.42,.77-.43,1.75-.49,2.8-.76-1.23-2.21-2.42-3.65-4.82-4.48-6.29-2.19-9.84-11.09-4.83-16.7,.47-.53,.87-1.13,1.25-1.73,.98-1.51,2.27-2.26,4.15-2.21,2.86,.07,5.64-.22,8.2-1.84,2.3-1.46,4.92-1.36,7.59-1.16,2.56,.19,5.21,.23,7.7-.27,2.76-.55,5.49-1.58,8.04-2.81,1.4-.67,2.44-2.14,3.57-3.32,1.06-1.11,2.15-2.21,2.97-3.49,1.12-1.73,.7-2.39-1.39-2.75-1.82-.31-3.27-1.16-4.08-2.89-.43-.92-.83-1.86-1.27-2.85-2.48,.46-4.92,1.07-7.4,1.33-3.67,.39-6.18-1.92-6.23-5.57-.01-1.03-.01-2.1-1.36-1.95-.9,.1-2.07,.49-2.51,1.15-.52,.79-.97,2.1,.39,2.9,.68,.4,1.42,.74,2.03,1.23,.51,.42,1.06,.98,1.18,1.57,.06,.28-.77,.83-1.28,1.14-2.58,1.58-5.23-.66-5.48-4.38-.24-3.49-2.42-5.05-5-6.35-2.66-1.34-5.42-2.5-8.23-3.48-1.19-.41-2.6-.2-3.91-.22-.62,0-1.29,.3-1.86,.16-3.08-.74-6.11,.26-8.33,1.8-2.25,1.55-4.13,1.27-6.44,1.35-2.12,.07-4.23,1.3-6.29,2.16-1.66,.69-1.74,.74-2.5-1.3,1.89-1.41,3.82-2.87,5.8-4.28,.42-.3,1.06-.63,1.49-.52,3.32,.88,6.14-.34,8.78-2.06,3.43-2.24,7.18-1.62,10.84-1.34,2.24,.17,4.45,.89,6.65,1.43,3.01,.74,5.78,2.05,7.97,4.26,1.1,1.11,2.09,1.73,3.7,1.33,3.21-.78,5.74,.3,7.56,3.06,.13,.2,.25,.4,.38,.6,2.4,3.73,2.72,3.88,7,2.88,2.84-.66,5.66-1.38,8.49-2.1,1.86-.47,4.71,.91,5.85,3.17,.92,1.82,1.7,3.76,2.22,5.73,.52,1.99,1.63,3.3,3.54,3.73,9.58,2.12,17.58,7.4,25.5,12.78,2.4,1.63,4.51,3.72,6.58,5.77,2.94,2.91,2.55,6.62,1.49,10.02-1.75,5.61-5.62,10.03-10.37,13.15-3.75,2.46-8.31,3.7-12.53,5.42-.47,.19-1.09,.02-1.65,0-2.43-.06-4.9-.54-7.2,.81-.37,.21-.93,.11-1.4,.13-4.32,.14-8.65,.49-12.96,.37-8.6-.23-17.3-.16-25.07-4.82-.34-.2-.7-.37-1.07-.52-2.11-.89-2.77-.75-3.26,1.41-.92,3.99-1.9,8.01-2.22,12.07-.2,2.51,.66,5.14,1.25,7.67,.43,1.84,.01,2.85-1.73,3.81-2.29,1.26-3.95,3.04-4.17,6.08-.18,2.35-1.32,4.64-2.09,6.93-2.08,6.23-4.9,12.24-2.65,19.21,1.15,3.56,1.11,7.5,1.7,11.25,.43,2.72,.76,5.49,1.56,8.11,1.46,4.74,3.14,9.42,4.92,14.06,2.46,6.43,6.84,10.87,13.69,12.65,.83,.22,1.5,1.1,2.23,1.68,1.49,1.17,2.94,2.39,4.47,3.5,1.67,1.2,2.06,2.46,1.08,4.28-1.53,2.84-3.93,3.9-7.13,4.55-5.17,1.04-9.78-.22-14.43-1.91-4.12-1.5-6.49-4.24-7.61-8.72-.98-3.91-3.21-7.53-5.07-11.19-1.67-3.28-3.12-6.84-5.5-9.54-2.28-2.59-3.01-5.59-4.11-8.53-1.16-3.1-2.7-4.63-5.93-4.86-1.56-.11-2.27-.54-2.17-2.29,.05-.83-.79-1.72-1.22-2.58-.74,.45-1.73,.72-2.19,1.37-1.16,1.63-2.06,2.81-4.58,2.83-1.77,.02-3.12,.76-3.85-1.46ZM246.85,21.86l-.79,.09c-.1,.82-.45,1.7-.25,2.43,.67,2.43-.1,4.56-1.74,6.07-3.62,3.35-7.14,7.05-12.63,7.2-3.28,.09-6.38,2.58-9.84,.66-.45-.25-1.27-.02-1.85,.18-2.87,1.02-5.65,2.49-8.6,3.07-3.21,.62-3.77,3.2-4.81,5.35-.6,1.24-.78,3.13-.28,4.38,3.39,8.39,8.6,14.45,18.4,15.94,10.27,1.56,20.51,1.41,30.76,.79,4.09-.25,8.35-.17,12.29-2.07,3.82-1.84,8.16-2.77,10.8-6.5,1.26-1.79,2.34-3.71,3.45-5.59,.81-1.37,1.86-2.72,2.22-4.22,.33-1.36,.37-3.24-.34-4.3-1.02-1.53-2.85-2.52-4.33-3.73-.48-.39-.99-.75-1.46-1.15-1.25-1.06-2.35-2.36-3.74-3.17-6.02-3.53-12.28-6.61-18.78-9.16-.71-.28-1.54-.39-2.31-.38-3.06,.02-4.05-.74-5.01-3.77-.24-.75-.77-1.4-1.17-2.1Zm-63.25,113.4c1.76,3.04,3.79,5.64,4.86,8.59,1.6,4.38,4.29,8.07,6.45,12.09,3.18,5.91,6.28,11.89,8.81,18.09,1.05,2.59,2.3,4.39,4.71,5.46,.92,.41,1.95,.58,2.94,.81,4.06,.92,8.15,1.2,12.22,.2,.77-.19,1.36-1.13,2.03-1.72-.51-.52-1.01-1.05-1.52-1.57-.44-.45-.82-1.01-1.34-1.33-1.44-.89-2.91-1.72-4.41-2.5-2.33-1.2-5.12-1.74-6.17-4.67-.14-.39-.6-.74-.99-.96-2.26-1.24-3.71-3.19-4.7-5.48-.97-2.24-1.85-4.52-2.71-6.8-1.07-2.85-2.27-5.66-3.07-8.58-.85-3.13-1.36-6.37-1.9-9.58-.61-3.66-1.06-7.34-1.65-11-.49-3-1.09-5.98-1.65-9.02-2.17,.72-6.49,5.05-6.83,6.62-.06,.29-.12,.67,0,.9,1.53,2.76-.3,4.64-1.76,6.55-1.13,1.49-2.44,2.86-3.33,3.89Zm19.58-90.37c-1.78,.74-2.87,2.18-2.76,4.25,.12,2.37,1.44,4.1,3.63,5.8-.32-3.68-.59-6.83-.87-10.06Z"/><path d="M84.58,135.52c-.77-1.44-.36-2.84,.84-4.14,1.92-2.08,2.21-4.83,2.85-7.41,.14-.56-.16-1.23-.26-1.84-.25-1.48-.5-2.96-.75-4.44,1.32-.21,2.11-.34,3.13-.5-1.48-3.45-2.79-6.56-5.1-9.28-1.96-2.31-3.25-5.2-4.84-7.83l.57-.48c.37,.15,.89,.2,1.09,.48,1.92,2.69,3.81,5.4,5.66,8.13,2.7,3.99,5.28,8.03,5.91,12.99,.33,2.57,.31,2.74-2.41,3.26-.53,2.84-.57,5.55,2.37,8.17,.26-1.39,.39-2.41,.66-3.39,.15-.54,.54-1.02,.83-1.52,.51,.31,1.21,.5,1.49,.95,1.08,1.73,2.02,3.54,3.01,5.32l.65,.03c.32-.69,.84-1.36,.91-2.07,.18-1.86,.89-2.44,2.44-1.41,1.63,1.09,3.1,2.45,4.55,3.79,1.12,1.04,1.97,2.08,3.46,.3,.36-.44,1.92,.12,3.32,.26l-1.47,2.27,5.57,2.39,.55-.37c-.34-1.64-.68-3.27-1.11-5.37,6.19,2.13,12.3,3.24,18.78,1.15-.23-1.32-.46-2.68-.73-4.28-.68,.19-1.2,.27-1.65,.48-1.91,.91-3.28,.27-3.37-1.85-.07-1.54,.13-3.17,.58-4.64,.74-2.39,1.78-4.69,2.76-7.23,1.31,1.7,1.7,3.21,.59,5.07-.59,.98-.74,2.23-1.11,3.41,3.54,1.08,4.27,4.2,5.41,6.92,.83-.37,2.05-1.27,2.39-1,.71,.53,1.02,1.66,1.36,2.6,1.03,2.81,1.89,5.69,2.99,8.47,2.58,6.55,5.44,13.01,7.86,19.62,2.91,7.93,5.52,15.97,8.19,23.98,.73,2.2,1.97,3.57,4.3,4.26,2.03,.6,3.89,1.76,5.82,2.68,1.07,.51,2.12,1.1,3.23,1.51,2.74,1.02,4.1,.28,4.82-2.52,.26-1,.41-2.03,.78-2.98,.28-.71,.83-1.32,1.54-2.4,.35,.99,.57,1.39,.62,1.81,.2,1.87,.24,3.77,.54,5.62,.47,2.87-.87,4.13-3.82,4.16-5.11,.05-9.38-2.53-13.99-4.04-.37-.12-.71-.41-1.08-.48-3.05-.56-4.44-2.72-5.31-5.41-2.14-6.6-4.2-13.22-6.46-19.77-1.62-4.68-3.54-9.26-5.27-13.91-.92-2.49-1.59-5.09-2.58-7.55-1.01-2.52-2.27-4.93-3.5-7.55l-1.13,2.06c-.44-.18-1.11-.24-1.35-.58-1.12-1.62-2.63-1.42-4.35-1.49-3.59-.16-7.15-.84-10.72-1.33-.65-.09-1.29-.24-2.35-.44,.52,1.48,.91,2.49,1.24,3.52,.41,1.29-.04,2.09-1.45,1.93-1.32-.14-2.65-.37-3.9-.78-2.13-.7-4.16-1.7-6.31-2.31-.66-.18-1.81,.3-2.3,.85-1.1,1.22-1.89,2.72-2.87,4.06-2.43,3.32-2.07,8.21,.65,11.37,3.24,3.77,6.27,7.71,9.47,11.51,1.53,1.81,3.15,3.58,4.94,5.13,.75,.65,2.05,.66,3.1,.95,2.7,.76,5.34,1.34,7.55,3.52,2.79,2.76,1.18,5.2-1.73,6.63-1.62,.79-3.61,.89-5.45,1.13-2.18,.28-4.39,.4-6.59,.56-1.79,.13-3.19,.12-4.41-1.91-1.43-2.39-3.78-4.22-5.7-6.32-1.87-2.04-3.6-4.21-5.59-6.12-3.23-3.11-6.58-6.1-9.95-9.07-1.94-1.71-4.06-3.21-5.99-4.93-1.58-1.41-1.86-3.42-1.99-5.42-.12-1.93-.22-3.86-.36-6.22-3.02,1.78-5.14,3.28-5.8,6.79-.94,4.97-1.64,9.83-.53,14.8,.55,2.47,1.31,4.89,2.1,7.29,.75,2.24,1.67,4.43,2.72,7.17-.53,.21-1.21,.46-1.86,.72,1.64,2.53,3.77,3.34,5.88,4.24,.89,.38,1.93,.94,2.37,1.72,1.21,2.15,.32,4.03-2.34,4.74-5.21,1.39-10.38,1.04-15.33-1.14-1-.44-1.83-1.49-2.48-2.43-1.2-1.75-2.47-3.52-3.24-5.47-1.54-3.88-2.77-7.89-3.74-12.06l2.41,2.04c-1.1-9.2-7.13-15.86-10.5-23.68,1.94-.84,2.95-.17,3.48,.94,3.14,6.6,7.97,12.41,9.31,19.84,.27,1.47,.68,3.01,.5,4.45-.67,5.27,1.97,9.27,5.18,12.74,1.98,2.14,5.23,2.41,8.19,2.19,1.11-.08,2.19-.66,3.55-1.1-1.15-.9-1.99-1.76-2.99-2.31-2.93-1.61-3.79-4.25-4.04-7.32-.18-2.26-.36-4.54-.78-6.77-.44-2.38-.99-4.76-1.8-7.03-3.17-8.97-.25-16.74,4.57-24.15,1.49-2.29,3.25-4.4,5.13-6.94Zm15.55,4.11c-1.15-1.87-2.3-3.73-3.52-5.7-.67,1.32-1.31,2.59-2.11,4.17-1.36-1.45-2.37-2.66-3.52-3.7-.41-.37-1.63-.59-1.68-.49-.7,1.45-2.1,3.24-1.71,4.42,1.47,4.53,1.14,9.09,.98,13.66-.09,2.55,.99,4.1,2.95,5.51,2.68,1.92,5.41,3.86,7.72,6.19,4.22,4.27,8.12,8.85,12.2,13.26,1.49,1.61,2.86,3.56,4.71,4.58,3.7,2.04,7.67,1.02,11.47-.12,.61-.18,1.03-.95,2.03-1.92-2.17-.45-3.71-.67-5.2-1.09-1.56-.44-3.46-.64-4.51-1.67-2.73-2.66-5.09-5.7-7.57-8.61-1.13-1.32-2.03-2.88-3.33-3.99-3.13-2.69-5.55-5.66-6.51-9.85-.94-4.08-.97-7.8,1.84-11.18,1.15-1.38,2.25-2.8,3.3-4.26,.23-.31,.37-1.08,.2-1.23-1.49-1.33-3.06-2.56-4.71-3.91q-1.08,4.62-3.03,5.93Zm-14.93,1.39l-3.05,4.15c2.6-.49,3.09-1.16,3.05-4.15Z"/><path d="M11.55,70.25c1.27,1.21,2.44,2.27,3.56,3.39,1.33,1.32,2.4,3.04,3.96,3.96,2.62,1.54,5.44,2.89,8.35,3.74,4.75,1.4,9.64,2.36,14.48,3.44,2.12,.47,4.27,.79,6.4,1.54-2.13,1.51-4.41,1.72-6.84,1.42-2.45-.31-4.92-.37-7.37-.66-.89-.1-1.79-.45-2.61-.83-1.48-.67-2.85-1.58-4.36-2.17-2.49-.97-5.16-1.55-7.55-2.7-1.79-.86-3.54-2.14-4.83-3.64-2.72-3.18-6.19-5.82-7.89-10.08,.88-.28,1.5-.48,2.42-.77-.67-.95-1.2-1.8-1.82-2.58-1.43-1.78-3.14-3.37-4.27-5.32-.92-1.57-1.46-3.51-1.66-5.34-.71-6.41-2.42-12.83-.91-19.31,.93-3.97,2.14-7.9,3.66-11.68,.69-1.72,2.44-3.01,3.68-4.52,.27-.33,.4-.77,.59-1.16,1.41-3,3.03-5.79,6.25-7.29,1.42-.66,2.69-1.65,4-2.54,1.75-1.2,3.21-.97,4.31,.88,.65,1.08,1.23,2.24,1.6,3.44,.22,.7,.28,1.78-.11,2.28-3.07,3.87-2.91,8.47-2.66,12.88,.38,6.68,2.3,12.99,5.54,18.95,3.52,6.47,8.71,11.45,14.01,16.29,2.15,1.96,5.09,3.26,7.89,4.27,3.91,1.42,8.01,2.34,12.06,3.36,1.92,.48,3.71-.01,5.39-1.18,1.75-1.21,3.64-2.24,5.53-3.25,.67-.36,1.48-.48,2.24-.61,1.48-.25,3.05-.21,4.44-.68,2.97-1.02,5.93-1.62,9.08-1.29,.66,.07,1.37-.28,2.05-.5,.68-.21,1.32-.65,2.01-.71,8.54-.75,17.07-1.51,25.62-2.14,5.39-.4,10.87-.2,15.7-3.23,1.67-1.05,3.32-2.12,4.97-3.2,.87-.57,1.39-1.23,1.48-2.44,.07-.88,.8-1.86,1.51-2.5,1.42-1.28,1.6-2.1,.34-3.45-1.74-1.87-1.52-2.16,.68-3.23,1.86-.9,3.47-2.32,5.09-3.63,.31-.25,.23-1.09,.18-1.65-.12-1.47-.32-2.94-.55-4.87,1.34,.5,2.23,.84,3.21,1.21,1.17-1.99,1.02-3.96,.03-5.7-.88-1.55-.7-2.81,.14-4.18,.37-.61,.61-1.3,1.01-1.88,1.22-1.8,1.37-3.52-.32-5.12,2.87-2.78,6.15-4.71,9.86-5.99,1.7-.58,3.11-.81,4.54,.65,.72,.74,1.86,1.06,2.8,1.58v.6c-.75,.2-1.48,.49-2.24,.59-1.25,.16-2.52,.2-3.78,.3-.32,.02-.77-.04-.92,.14-1.13,1.3-2.37,2.28-3.97,3.12-1.8,.94-1,3.26-1.22,5.03-.16,1.28-.48,2.55-.83,3.79-.17,.59-.62,1.1-.9,1.67-1.81,3.77-2.1,7.28,1.3,10.5,2.96,2.81,4.21,6.63,5.54,10.38,1.17,3.32,2.43,6.61,4.08,9.95,.13-1.11,.28-2.21,.38-3.32,.17-1.87,.29-3.75,.47-5.62,.03-.29,.19-.79,.36-.82,2.87-.55,2.16-3.35,3.27-5.17h2.28c-.23-4.81-.81-9.51-.53-14.16,.17-2.79,1.55-5.55,2.67-8.2,.56-1.34,1.68-.27,2.39,.17,.99,.61,1.94,1.71,.88,2.72-3.58,3.39-2.8,7.81-3.03,11.96-.15,2.68,.19,5.38,.08,8.06-.05,1.39,.35,3.34-2.21,3.34-.35,0-.7,1.29-1.06,1.98-.84,1.62-.21,4.01-2.68,4.87-.37,.13-.18,1.76-.33,2.69-.35,2.24-.59,4.52-1.19,6.69-.44,1.57-1.65,1.66-2.44,.22-1.14-2.07-2.24-4.2-3.06-6.42-1.56-4.2-2.86-8.5-4.39-12.71-.36-1-1.18-1.85-1.87-2.71-1.37-1.68-2.8-3.31-4.53-5.34-.17,1-.22,1.58-.37,2.12-.28,1.05-.28,2.46-.97,3.07-1.69,1.51-1.7,3.66-2.65,5.39-2.08,3.76-4,7.9-7.05,10.74-2.62,2.44-6.58,3.85-10.19,4.69-4.17,.96-8.65,1.35-12.91,.98-5.08-.45-9.99,.08-14.95,.74-5.94,.78-11.95,1.25-17.8,2.5-4.73,1.01-9.32,2.81-13.87,4.53-4.3,1.63-8.52,2.54-13.04,.99-3.36-1.15-6.9-1.83-10.16-3.21-2.73-1.15-5.31-2.8-7.67-4.62-3.33-2.56-6.89-5.09-9.39-8.36-1.93-2.53-3.98-5.12-5.54-8.01-4.95-9.17-7.37-18.83-6.13-29.25,.18-1.52,.87-2.99,1.34-4.47,.27-.85,.57-1.69,.85-2.54-.45-.15-.64-.29-.73-.24-5.44,2.97-9.24,7.35-11.31,13.22-.79,2.24-1.7,4.44-2.38,6.71-.94,3.13-1.92,6.26-2.47,9.47-.32,1.82,.17,3.77,.31,5.66,.21,2.92,.27,5.85,.69,8.74,.48,3.23,2.31,5.83,4.54,8.17,1.03,1.09,2.06,2.2,2.91,3.43,1.27,1.85,1.18,2.12-.49,4.02Z"/><path d="M93.87,210.26c.48,1.13,.92,2.14,1.26,2.96-2.29,.39-4.63,.27-6.46,1.18-6.15,3.08-8.5,7.43-8.02,14.24,.13,1.9,1.56,4.01,2.97,5.45,2.02,2.05,4.76,3.02,7.77,2.54,1.71-.27,3.31-2.76,2.68-4.32-.19-.48-1.01-.78-1.6-1.01-1.2-.47-2.88-.41-2.79-2.29,.08-1.75,1.14-2.62,2.92-2.8,1.56-.16,3.08-.63,4.63-.88,1.33-.22,2.99-.48,3.42,1.14,.35,1.28,.61,3.06-1.66,3.5-.49,.1-1.19,1.18-1.12,1.73,.52,4.64-2.18,8.28-6.66,9.32-4.84,1.12-8.07-.98-11.06-4.46-6.74-7.85-2.95-19.54,3.6-24.56,3.41-2.62,6.45-2.18,10.09-1.74Z"/><path d="M191,222.49c-.76,.9-1.53,1.8-2.51,2.96,1.2,1.22,2.36,2.73,3.83,3.83,2.16,1.63,1.97,3.69,1.36,5.77-.61,2.1-2.13,3.6-4.33,3.96-2.62,.42-5.35,.8-7.44-1.58-.2-.23-.59-.34-.73-.59-.65-1.2-2.03-2.46-.81-3.81,1.15-1.28,2.42-.21,3.59,.49,.84,.51,1.87,1.09,2.77,1.03,1.06-.07,2.08-.8,3.11-1.25-.5-.81-.99-1.62-1.5-2.43-1.04-1.63-2.57-3.13-3.03-4.91-.81-3.12,.82-5.37,4.1-7.4,2.04-1.26,3.65-.34,5.28,.6,1.68,.97,1.85,2.68,1.62,4.37-.08,.6-.65,1.56-1.06,1.6-.63,.06-1.43-.43-1.96-.9-.73-.66-1.28-1.53-1.9-2.31l-.4,.57Z"/><path d="M109.9,242.92c-3.97-.02-5.41-.95-6.55-4.71-.65-2.15-1.31-4.38-1.41-6.59-.17-3.92,3.52-7.77,7.39-8.19,.86-.09,1.72-.31,2.58-.33,1.6-.04,2.92,1.71,2.52,3.23-.26,.99-.33,2.1-.84,2.94-.44,.72-1.31,1.3-2.12,1.64-1.23,.52-2.54,.91-3.85,1.12-1.61,.27-1.88,.98-1.42,2.46,1.23,4.03,1.81,4.4,6.1,3.58,1.3-.25,2.66-.28,2.98,1.43,.31,1.63-.3,2.81-2.09,3.06-1.09,.15-2.19,.25-3.28,.37Z"/><path d="M160.7,237.22c-.9,1.4-1.54,2.41-2.19,3.4-.08,.13-.21,.33-.32,.33-2.74-.03-5.48-.08-8.22-.13-5.44-5.34-6.11-12.98-.39-18.94,1.04-1.08,2.89-1.59,4.45-1.93,1.7-.36,3.2,2.58,2.57,4.61-.7,2.26-1.88,3.86-4.23,4.81-2.81,1.13-3.3,2.27-2.7,4.2,.78,2.54,2.24,3.41,4.98,3.33,1.97-.06,3.94,.19,6.06,.3Z"/><path d="M51.88,93.95c0,1.91-.07,3.83,.03,5.73,.05,1.03,.45,2.03,.6,3.06,.3,2.02,.66,4.04,.75,6.07,.08,1.83,.15,3.47,1.4,5.07,.97,1.26,1.18,3.08,1.94,4.54,1.19,2.32,2.55,4.54,3.84,6.81,.16,.28,.39,.54,.44,.84,.96,6.64,4.04,13.37-.78,19.78-.22,.3-.5,.55-1.01,1.1,.12-1.67,.16-2.97,.3-4.26,.79-6.93-.35-13.46-3.72-19.62-1.48-2.7-2.73-5.52-4.09-8.29-.1-.21-.24-.43-.27-.66-.81-6.24-2.59-12.43-1.21-18.8,.13-.59,.75-1.08,1.14-1.62l.63,.23Z"/><path d="M135.4,209.24c.26,1.07,.64,2.13,.77,3.22,.15,1.33,.24,2.7,.09,4.02-.3,2.71,1.04,2.62,2.88,2.1,1.42-.4,2.58-.44,3.76,.48,1.45,1.14,1.35,3.11-.39,3.72-1.45,.52-3.1,.46-4.59,.91-.62,.19-1.47,1.03-1.49,1.61-.15,4.1-.24,8.21-.08,12.3,.05,1.34-.15,2.5-1.36,2.45-.86-.03-2.29-1.16-2.39-1.95-.33-2.48-.26-5.02-.15-7.53,.07-1.62,.5-3.23,.74-4.85,.18-1.25-.47-1.74-1.65-1.72-.63,.01-1.29,.13-1.88-.02-1.23-.32-1.52-1.53-.54-2.33,.66-.53,1.5-.99,2.32-1.12,1.67-.26,1.88-1.19,1.88-2.66,0-2.41,.22-4.83,.44-7.24,.04-.47,.52-.9,.8-1.36l.84-.05Z"/><path d="M205.11,12.69c2.41,4.07,2.88,7.92,.15,11.89-1.73,2.51-7.74,4.7-10.3,3.63-4.76-1.99-6.8-6.45-5.48-10.19,.75-2.11,.66-4.56,2.95-5.98,.89-.55,1.57-1.1,2.48-.27,1.01,.91,.34,1.56-.25,2.4-.81,1.14-1.51,2.43-1.95,3.75-1.12,3.32,.75,6.03,4.24,5.97,4.77-.09,8.33-2.3,6.79-8.1-.36-1.37-.37-2.51,1.37-3.11Z"/><path d="M182.24,226.79c-.7,0-1.06,.1-1.31-.02-1.83-.84-3.47-.97-5.33,.25-2.58,1.7-4.32,3.84-5.12,6.82-.35,1.32-.74,2.73-1.52,3.8-.87,1.19-1.92,.91-2.38-.59-.14-.45-.29-.93-.27-1.39,.18-4.46-.76-8.77-1.71-13.08-.1-.45,.37-1.02,.58-1.53,.61,.26,1.5,.36,1.77,.82,.77,1.34,1.29,2.82,1.86,4.13,2.51-1.42,4.89-2.93,7.41-4.16,2.27-1.11,4.13-.71,5.44,1.26,.58,.88,.4,2.27,.59,3.7Z"/><path d="M120.57,222.08c-.69-3.56-1.38-6.7-1.84-9.87-.09-.62,.66-1.37,1.02-2.05,.43,.57,1.05,1.08,1.24,1.73,.72,2.41,1.2,4.9,1.99,7.29,.29,.88,1.09,1.69,1.84,2.31,1.85,1.54,1.96,2.7,.52,4.54-.58,.73-1.05,1.78-1.05,2.68,0,2.12,.32,4.23,.47,6.36,.06,.86,.24,1.82-.05,2.57-.28,.73-1.1,1.26-1.68,1.87-.52-.67-1.42-1.3-1.5-2.02-.23-1.93-.06-3.91-.14-5.87-.05-1.33-.33-2.66-.36-3.99-.03-1.16-.56-1.53-1.62-1.48-.63,.03-1.47,.2-1.84-.13-.68-.6-1.35-1.48-1.48-2.32-.07-.45,.91-1.34,1.57-1.56,.84-.27,1.85-.07,2.91-.07Z"/><path d="M191.93,44.09c-1.91-5.07,1.94-11.23,7.11-10.83-2.42,3.69-4.69,7.15-7.11,10.83Z"/><path d="M27.31,67.34c-1.72-1.95-5.05-2.34-5.44-5.63-.07-.6-.84-1.1-1.24-1.68-1.59-2.33-3.21-4.65-4.71-7.04-.34-.54-.21-1.37-.3-2.06l.67-.23c3.67,5.55,7.35,11.09,11.02,16.64Z"/><path d="M32.13,71.56c4.23,1.34,8.46,2.69,13.14,4.17-3.37,2.21-11.46-.33-13.37-3.6l.23-.58Z"/><path d="M209.23,27.56c.43-.75,.67-1.42,1.11-1.92,.99-1.11,2.09-2.13,3.13-3.21,.66-.68,1.5-1.31,2.1-.26,.35,.61,.29,1.88-.13,2.42-1.13,1.45-2.53,2.7-3.88,3.96-.35,.32-1.1,.67-1.36,.51-.44-.27-.64-.94-.97-1.5Z"/><path d="M196.7,18.99c0-1.55,1.1-1.94,2.32-2.05,1.31-.13,2.76,1.31,2.77,2.63,.01,1.19-1.41,2.74-2.49,2.71-1.07-.03-2.54-1.89-2.6-3.28Z"/><path d="M58.85,80.68c-.58,.37-1.06,.88-1.27,.79-2.74-1.22-5.44-2.52-8.55-3.98,2.78-.94,5.3-.05,9.82,3.19Z"/><path d="M271.1,43.68c1.91,3.11,1.56,4.24-1.05,5.9-1.28,.81-2.35,1.96-3.51,2.96-.12,.1-.26,.34-.31,.32-2.47-1.02-4.73,2.43-7.28,.35-.39-.32-1.01-.34-1.58-.51,.96-1.06,4.48-1.79,7.63-1.59-1.14-1.48,.12-1.97,.99-2.06,2.11-.23,2.67-1.89,3.59-3.29,.42-.63,.9-1.22,1.52-2.06Z"/><path d="M223.57,48.74c2.54,.45,5.06,.94,7.61,1.32,2.54,.38,5.11,.57,7.64,1.01,.7,.12,1.3,.83,1.94,1.27-.75,.49-1.46,1.26-2.27,1.39-1.13,.18-2.5,.21-3.5-.27-3.72-1.79-8.44-.83-11.59-4.1l.16-.62Z"/></g></g></g></svg>