<?xml version="1.0" encoding="UTF-8"?><svg xmlns="http://www.w3.org/2000/svg" viewBox="0 0 284.99 236.51"><g id="a"/><g id="b"><g id="c"><g><path d="M96.33,176.05c.54,.92,1.09,1.84,1.69,2.86,1.48-.88,1.95-1.89,1.93-3.28-.02-1.89,.63-2.3,2.24-1.58,2.4,1.07,3.18,.81,3.68-1.86,.51-2.7,.69-5.47,.88-8.22,.09-1.28-.18-2.85,1.45-3,.68-.06,1.49,1.25,2.24,1.94,.11,.1,.24,.19,.71,.55,.46-1.28,1.09-2.42,1.25-3.63,.27-2.03,1.25-3.97,.64-6.16-.13-.47,.87-1.66,1.56-1.89,1.69-.57,2.29-1.72,2.11-3.25-.25-2.11-.7-4.21-1.18-6.28-.65-2.82-1.44-5.61-2.12-8.42-.1-.43,.05-.92,.08-1.38l.54-.38c.68,.79,1.67,1.47,2,2.38,1.15,3.26,2.17,6.58,3.03,9.93,.52,2.03,.67,4.15,1.01,6.36,3.07-.83,4.66-3.18,5.74-6.41,3.15,2.44,2.64,6.21,4.51,9.41,.69-1.54,1.36-2.72,1.76-3.99,.51-1.62,1.31-1.73,2.32-.58,.65,.74,1.29,1.64,1.53,2.57,.95,3.56,3.79,6.24,7.32,6.6-.94,2.26-3.17,2.35-4.75,2.01-1.3-.28-2.32-2.01-3.38-3.18-.53-.58-.85-1.35-1.51-2.45-1.43,1.98-2.57,3.54-3.91,5.39-2.62-2.74-1.86-6.68-3.71-9.39-2.16,1.96-4.21,3.83-6.27,5.69-2.77,2.5-5.15,5.24-5.4,9.21-.13,2.07-1.49,3.12-3.28,3.52-1.21,.27-1.48,.92-1.59,1.96-.13,1.18-.3,2.36-.59,3.51-.94,3.73-2.75,4.93-6.73,4.39-.34,1.16-.57,2.41-1.1,3.52-.35,.72-1.05,1.45-1.77,1.73-.31,.12-1.11-.82-1.6-1.36-1.16-1.27-2.19-2.68-3.45-3.84-.81-.74-1.54-.62-2.08,.72-1.43,3.57-3.09,7.05-4.69,10.54-.53,1.16-1.25,1.62-2.77,1.5-2.32-.17-4.77,0-7.02,.6-5.48,1.46-7.21,.79-9.71-4.73,1.8-.86,3.8-1.49,5.38-2.67,1.52-1.14,3.03-2.6,3.07-4.73-1.54-1.38-2.98-2.69-4.59-4.14-.37,.73-.73,1.4-1.06,2.08-.83,1.71-1.53,1.92-3.07,.89-2.71-1.83-3.15-1.69-4.27,1.37-.57,1.56-1.05,3.16-1.72,4.68-.24,.56-.91,1.34-1.37,1.33-4.7-.07-9.4-.19-14.08-.48-2-.13-2.37-1.06-1.55-2.96,.85-1.97,1.68-3.57,4.33-4.11,1.82-.37,3.7-2.2,4.85-3.86,2.66-3.83,4.85-7.98,7.31-11.96,.65-1.06,1.61-1.93,2.34-2.95,.44-.61,.8-1.32,1.02-2.04,.7-2.26,1.15-4.62,2.01-6.81,1.46-3.72,.48-7.48,.43-11.21,0-.44-.7-1.19-1.16-1.26-1.72-.27-2.08-1.54-2.39-2.86-.47-1.99-1.11-3.99-1.26-6.01-.17-2.32,.11-4.67,.19-7.01,.01-.45,0-.91,0-1.36l-.61-.07c-.32,2.12-.8,4.23-.94,6.36-.21,3.24-.16,6.49-.25,9.74-.04,1.41,0,2.9-1.96,3.93-.28-.8-.7-1.49-.75-2.21-.18-2.72-.32-5.45-.33-8.18,0-2.05,.1-4.12,.38-6.15,.08-.58,.95-1.04,1.19-1.28v-8.82c-1.03,1.38-2.04,2.97-3.31,4.31-.41,.43-1.51,.22-2.51,.33-1.08-4.43-1.98-8.77-1.39-13.31,.21-1.61-.01-3.32,.39-4.87,.47-1.79,1.48-3.44,2.14-5.19,.51-1.36,.82-2.8,.86-4.32-1.17,2.17-2.35,4.34-3.79,7.01-1.11-1.94-1.79-3.52-1.36-5.26,.58-2.35,.28-4.5-.6-6.71-.64-1.61-1.27-3.3-1.44-5-.22-2.26-1.09-4.13-2.05-6.14-1.58-3.29-2.57-6.87-3.87-10.3-1.06-2.78-2.22-5.53-3.34-8.29l-.68-.18c-1.17,1.87-2.33,3.74-3.91,6.27-.48-1.39-.9-2.29-1.09-3.23-.58-2.78-.91-5.62-1.64-8.35-1.12-4.26-6.51-7.52-10.87-6.96-2.4,.31-4.88,.11-7.26,.52-2.53,.44-4.98,1.34-7.33,2-2.27-1.93-3.58-4.33-3.9-7.23-3.47-2.73-1.58-6.56-1.93-9.89-.27-2.55,1.22-4.02,3.82-3.77,6.7,.65,13.17-1.07,19.75-1.52,4.2-.29,8.32-.65,12.39-1.65,.59-.14,1.35-.26,1.69-.67,2.01-2.43,3.87-4.98,5.9-7.39,.76-.9,1.76-2.02,2.78-2.18,3.72-.58,7.51-1.29,11.19,.31,.27,.12,.62,.21,.89,.14,3.82-.94,7.53-.06,11.25,.66,.39,.07,.79,.2,1.18,.15,3.68-.43,5.17,2.34,7,4.67,.38,.48,.98,.92,1.56,1.08,.91,.25,1.88,.29,2.83,.33,4.84,.18,7.2,3.26,8.42,7.42,1.2,4.08,1.95,8.28,3.2,12.34,1.13,3.68,2.67,7.23,4.04,10.84,.11,.29,.28,.6,.51,.79,2.88,2.42,5.74,4.86,8.69,7.2,.7,.56,1.67,.85,2.56,1.11,3.71,1.07,7.52,1.85,11.14,3.17,4.12,1.5,8.27,2.21,12.62,2,1.6-.08,2.54,.71,2.65,2.35,.11,1.7-.99,2.31-2.4,2.24-5.08-.23-10.11-.57-14.83-2.97-2.47-1.26-5.31-1.92-8.06-2.51-2.69-.58-5.06-1.52-6.97-3.56-.63-.67-1.53-1.07-2.84-1.42,.62,2.52,1.28,5.03,1.85,7.56,.45,2.01,1.66,3.77,1.05,6.13-.43,1.68,.72,3.36,2.09,4.67,1.26,1.21,1.8,2.71,1,4.67-2.29-.43-4.46-.84-6.63-1.25l-.36,.55,1.98,3.61c.31,.56,.82,1.09,.87,1.67,.09,1.18-.07,2.38-.13,3.57-.94-.25-1.97-.33-2.81-.77-1.61-.84-3.09-1.91-4.66-2.83-.57-.33-1.54-.88-1.8-.67-.52,.42-.85,1.26-.95,1.98-.32,2.34-.48,4.7-.73,7.05-.05,.44-.23,.86-.36,1.35-2.02-.29-2.9-1.15-3.76-3.1-1.81-4.11-3.19-8.35-4.68-12.56-.36-1.01-.62-2.05-.93-3.07l-.6-.14c-1.41,4.14-2.83,8.28-4.27,12.52-2.62-1.53-4.03-5.43-3.49-8.02,.3-1.44,.4-2.96,.3-4.43-.31-4.56-.75-9.11-1.18-13.66-.05-.58-.32-1.14-.56-1.99-.92,.74-1.51,1.57-2.25,1.71-.94,.19-2.23,.17-2.95-.35-1.04-.74-1.16-1.94,0-3.02,1.1-1.02,2.11-2.14,3.09-3.28,.76-.89,1.52-1.82,2.08-2.85,1.09-2,2.12-4.04,3.02-6.13,.49-1.13,.93-2.41,.9-3.61-.08-3.45,.49-6.99-1.09-10.3-.67-1.4-1.32-2.85-1.64-4.36-.14-.68,.57-1.53,.89-2.3,.57,.49,1.22,.91,1.69,1.48,.33,.4,.33,1.08,.65,1.5,2.54,3.28,2.72,6.94,2.56,10.97-.18,4.71-1.22,8.91-3.2,13.2-.99,2.14-.02,5.21,.13,7.85,.12,2.11,.37,4.21,.52,6.31,.17,2.28,.27,4.56,.45,6.84,.03,.32,.38,.62,.65,1.03,.83-1.67,1.47-3.25,2.37-4.66,.4-.64,1.38-1.39,1.97-1.29,.58,.09,1.19,1.12,1.45,1.86,1.39,3.96,2.68,7.95,4.02,11.93,.17,.49,.44,.95,1.13,1.4,.12-1.18,.14-2.38,.37-3.53,.42-2.12,1.43-2.66,3.4-1.82,1.22,.53,2.36,1.25,3.68,1.96,.07-2.38-2.4-4.37-.73-6.86h4.22c-.34-.71-.53-1.27-.86-1.73-.41-.58-1.06-1.01-1.38-1.62-.49-.93-1.26-2.11-1.02-2.91,.2-.66,1.71-.91,3.04-1.53-.53-2.23-1.01-4.91-1.83-7.48-1.22-3.83-2.77-7.55-4.01-11.37-1.4-4.34-2.52-8.77-3.93-13.1-.9-2.77-2.06-5.46-3.2-8.15-.69-1.63-1.82-2.77-3.78-2.68-3.46,.16-6.01-1.74-8.14-4.05-1.21-1.31-2.43-1.93-4.08-1.96-5.68-.1-11.36-.18-17.03-.23-.45,0-1.28,.13-1.31,.31-.49,3.1-4.67,2.46-5.37,5.33-.08,.33-.48,.71-.81,.81-1.78,.53-3.56,1.18-5.39,1.41-6.17,.78-12.37,1.4-18.56,2.09-2.28,.25-4.56,.5-6.83,.77-.38,.05-.84,.13-1.09,.37-1.92,1.86-3.81,3.75-5.7,5.65-.27,.27-.47,.64-.77,.87-2.58,2.01-2.74,2.88-.99,6.02,3.48-.7,6.98-1.6,10.53-2.05,3.14-.4,6.34-.3,9.52-.39,1.41-.04,2.83,0,4.25,0,7.16-.03,13.51,2.98,20.01,5.39,.82,.3,1.37,1.35,1.89,2.37-7.18-.52-14.15-1.76-21.13-3.88,1.42,3.68,2.69,6.98,4.07,10.54,.37-.61,.77-1.29,1.19-1.96,.92-1.46,1.75-1.61,2.7-.18,1.13,1.7,2.11,3.55,2.84,5.45,1.27,3.33,2.26,6.75,3.42,10.12,.49,1.41,1.13,2.76,1.67,4.16,1.29,3.3,2.57,6.61,3.93,10.1,.18-.84,.23-1.68,.54-2.41,.23-.52,.77-1.17,1.24-1.24,.43-.07,1.18,.46,1.42,.92,1.98,3.8,4.01,7.69,3.78,12.06-.14,2.61-1.47,5.14-2,7.75-.86,4.25-1.52,8.54-2.21,12.83-.12,.73,.08,1.5,.14,2.26l.63,.25c.51-.86,1.21-1.67,1.48-2.6,.84-2.85,1.58-5.73,2.23-8.63,.21-.95,.13-2.22,1.4-1.94,.92,.21,2.06,1.1,2.37,1.95,.54,1.52,.62,3.23,.72,4.88,.07,1.26-.14,2.53-.19,3.79-.08,1.9-.7,3.77,.92,5.54,.7,.77,.65,2.36,.66,3.58,.03,3.94-.34,7.91,1.19,11.69,6.81,.04,7.82,3.81,9.56,8.86,1.08,3.12,1.72,6.39,2.6,9.59,.11,.41,.42,.96,.77,1.09,2.89,1.07,4.19,3.42,5.15,6.1,.31,.86,.74,1.69,1.36,2.47,2.25-5.64,2.72-11.23,.09-16.81-.58-1.22-1.71-2.72-.3-3.52,1.46-.82,1.98,1.13,2.53,2.14,3.03,5.59,3.4,11.4,1.37,17.44-.57,1.69-.79,3.53-.95,5.32-.2,2.24-.79,4.16-2.14,6.11-1.82,2.63-2.95,5.73-4.45,8.59-.84,1.61-1.61,3.32-2.76,4.69-1.53,1.8-3.41,3.31-5.39,5.17,1.39-.24,2.72-.44,4.03-.71,1.15-.24,2.28-.76,3.43-.81,3.55-.14,5.01-2.53,6.22-5.34,1.11-2.6,2.32-5.15,3.46-7.73,.54-1.22,1.4-1.37,2.52-.88,1.09,.47,2.19,.91,3.28,1.37l-.05-.04Zm-44.64,6.66c4.79,1.32,6.44,.63,8.59-3.62,.57-1.13,1.08-2.29,1.66-3.42,1.02-1.97,2.89-2.87,4.7-1.82,1.64,.95,2.25,.31,2.94-.98,1.57-2.96,2.04-2.99,3.84-.26,.13,.2,.21,.45,.38,.6,.86,.73,1.74,1.43,2.61,2.14,.65-1,1.61-1.92,1.89-3.01,.51-1.98,.55-4.07,.92-6.09,.11-.6,.58-1.31,1.1-1.58,.28-.15,1.04,.46,1.49,.84,.41,.35,.68,.86,.8,1.02-.49,2.41-.93,4.55-1.37,6.69,.32,.09,.63,.18,.95,.28,.61-1.72,1.41-3.39,1.78-5.16,.51-2.43,.06-4.79-.79-7.19-.63-1.78-2.17-1.28-3.19-1.98-.06-.05-.13-.09-.19-.14-2.62-2.46-4.97-5.1-5.36-8.89-.43-4.17-1.7-8.04-4.07-11.91-.16,.7-.34,1.08-.32,1.44,.25,4.67,0,9.18-1.2,13.82-1.15,4.45-2.72,8.47-5.3,12.19-1.39,2.01-2.73,4.07-4.02,6.14-2.35,3.75-3.49,8.39-7.84,10.67-.03,.02,0,.14,0,.22Z"/><path d="M193.45,136.53c-.74-2.82-1.4-5.46-2.17-8.07-.15-.5-.78-1.23-1.2-1.23-4.5,0-6.92-3.54-9.94-5.92-1.93-1.52-3.34-3.69-5.36-6,.19,2.59,.15,4.86,.57,7.04,.51,2.7,1.56,5.3,2.07,8,.24,1.26-.25,2.65-.74,4.06-2.85-1.53-4.42-3.98-6.27-6.71-1.57,2.32-2.23,4.67-2.78,7.08-.47,2.08-.92,4.17-1.49,6.23-.14,.53-.68,.94-1.04,1.41-.46-.36-.96-.68-1.35-1.1-.43-.45-.75-.99-1.43-1.91-1.09,1.61-2.16,2.94-2.97,4.42-1.4,2.53-2.36,5.21-5.27,6.72-1.98,1.02-3.45,2.98-5.25,4.4-.49,.39-1.68,.7-1.93,.45-.72-.73-1.22-1.73-1.58-2.71-.07-.18,.95-.73,1.44-1.14,2.32-1.98,4.67-3.92,6.92-5.97,1.09-1,2.01-2.18,2.94-3.34,.59-.73,1.15-1.51,1.55-2.35,1.39-2.92,2.7-5.88,4.05-8.82,.19-.4,.48-.76,.68-1.07,.98,.39,1.79,.72,2.61,1.05,.37-1.08,.9-2.13,1.09-3.23,.38-2.27,.56-4.58,.83-6.87l.87-.23c1.32,1.44,2.64,2.88,4.15,4.52,.24-.61,.5-.92,.43-1.13-1.35-4.39-.52-8.76-.06-13.17,.25-2.35-.06-4.75,0-7.12,.01-.61,.45-1.21,.7-1.81,.55,.35,1.15,.65,1.64,1.07,.52,.44,1.01,.95,1.39,1.51,.36,.53,.88,1.23,.78,1.75-1.12,5.86,2.55,9.29,6.36,12.59,3.82,3.3,8.4,4.08,13.36,4.4,2.79,.18,5.75,1.75,8.11,3.42,5.83,4.12,8.64,10.34,10.56,17.01,.26,.9,.53,1.82,.95,2.66,2.11,4.17,2.62,8.65,2.25,13.19-.28,3.46-2.47,6.1-4.84,8.48-1.33,1.34-2.77,2.56-4.46,4.1,.78,.17,1.28,.44,1.71,.35,5.83-1.2,9.64-5.41,10.46-11.47,.39-2.87,.72-5.75,1.18-8.6,.08-.53,.61-.99,.93-1.48,.4,.4,.91,.74,1.18,1.21,1.35,2.35,2.61,4.76,3.98,7.1,.33,.56,.96,.95,1.79,1.18-.47-.92-.94-1.83-1.4-2.72,2.37-3.03,5.34,.27,8.03-1.09-.54-.37-.87-.68-1.25-.85-2.24-1.01-4.01-2.32-3.45-5.2,.06-.29,0-.65-.12-.93-1.65-4.38-3.36-8.74-4.98-13.13-.91-2.47-1.62-5.02-2.54-7.48-.24-.65-.82-1.47-1.42-1.65-1.98-.59-4.02-.98-6.06-1.33-3.66-.63-8.6-4.6-8.62-8.61,0-1.01-.16-2.06-.44-3.03-1.21-4.18-.91-8.48-.83-12.71,.05-2.45,1.05-4.92,1.9-7.28,.3-.83,1.42-1.37,2.34-2.19-2.55-2.8-5.88-5.37-4.18-10.05,2.59,5.38,6.4,9.81,9.97,14.42l.87-.29c-.28-2.27-.57-4.55-.85-6.82l.54-.24c3.6,3.49,5.57,8.92,11.63,9.95,.39-2.84,.77-5.61,1.23-8.99,2.17,.95,4.18,1.83,6.19,2.71l.49-.27c-.77-1.35-1.53-2.71-2.33-4.05-.52-.88-1.31-1.66-1.58-2.6-.15-.53,.41-1.41,.89-1.9,.18-.19,1.28,.09,1.51,.45,2.53,3.92,5,7.88,7.4,11.88,.25,.41,.09,1.28-.2,1.72-.16,.25-1.04,.21-1.51,.04-2.22-.79-4.41-1.68-6.63-2.49-.49-.18-1.05-.17-2.02-.31,0,2.2-.05,4.21,.01,6.22,.1,3.12-.7,3.78-3.38,2.35-2-1.07-3.81-2.51-5.72-3.75-.74-.48-1.54-.88-2.53-1.15,.27,2.41,2.42,4.54,.19,7.34-3.67-3.61-6.48-7.87-9.43-12.02l-.66,.05c-.2,1.17-.46,2.34-.58,3.51-.67,6.53,.2,12.94,1.56,19.32,.58,2.7,2.41,4.32,5.22,4.7,2.03,.27,4.04,.67,6.06,1.03,2.27,.4,3.53,1.79,4.2,3.98,1.22,3.98,2.25,8.07,3.97,11.84,1.25,2.73,3.33,5.16,5.35,7.45,2.21,2.52,2.49,3.31,.75,6.25,1.76,1.53,4.05,3.06,3.04,5.8-1.01,2.78-3.98,1.89-6.38,2.71,.58,1.19,1.11,2.47,1.8,3.65,.75,1.28,.72,2.64-.27,3.48-.68,.58-2.02,.64-3.01,.52-1.06-.13-2.07-.72-3.09-1.14-1.83-.77-2.32-.28-3.1,1.47-.66,1.48-1.8,3-3.14,3.9-5.15,3.45-11.12,3.8-17.01,3.44-1.8-.11-4.32-.84-5.13-3.43-.35-1.11-.28-1.77,.71-2.39,1.88-1.17,3.77-2.33,5.57-3.62,6.66-4.78,8.1-10.52,4.94-18.06-1.64-3.92-2.83-8.04-4.21-12.07-.15-.44-.12-1.04-.42-1.31-3.33-3.08-6.3-6.77-11.39-6.98-.78-.03-1.55-.23-2.69-.41,0,.95-.21,1.88,.04,2.65,.6,1.79,1.46,3.49,2.14,5.26,.33,.86,.7,1.8,.69,2.7-.04,2.73-.78,3.17-3.31,2.28-.49-.17-1.03-.22-1.77-.37-.49,2.85-.71,5.57,.57,8.01,1.52,2.89,.67,5.92,1.01,8.87,.06,.54-.84,1.72-1.26,1.7-1.34-.07-2.69-.5-3.98-.93-.32-.11-.46-.74-.7-1.16-.69,1.04-1.25,2.66-1.93,2.71-1.06,.08-2.21-.91-3.64-1.6-2.47,3.1-5.6,6.01-6.78,10.26-.75,2.71-1.01,2.99-3.91,2.97-1.93-.01-3.72,.25-5.4,1.38-1.81,1.21-3.49,.85-5.16-.65-.67-.6-1.45-1.18-2.29-1.48-1.39-.49-1.79-1.44-1.72-2.75,.08-1.52,1.23-1.79,2.36-1.75,4.22,.14,6.39-3.49,9.64-5.1,.74-4.43,4.62-7.57,4.63-12.5,0-3.37-.14-6.52-1.42-9.59-.27-.66-1.01-1.13-1.23-1.79-.23-.68-.38-1.67-.05-2.2,.65-1.04,1.67-.61,2.03,.3,1.2,2.99,2.81,5.96,3.23,9.08,1.03,7.62-2.09,14.25-6.14,20.46-.44,.68-1.3,1.12-2.01,1.6-.98,.66-2.01,1.25-3.01,1.89-.11,.07-.13,.27,0,.99,.88-.36,1.77-.7,2.64-1.09,.68-.3,1.4-1.01,2-.91,1.91,.31,2.82-.53,3.22-2.23,1.17-4.92,4.4-8.45,8.17-11.97,1.07,.7,2.22,1.45,3.59,2.35,.85-2.17,1.67-4.27,2.55-6.54,1,.39,1.61,.63,2.28,.89,.14-.31,.32-.52,.3-.71-.22-3.06-.32-6.14-.73-9.18-.45-3.4,.24-4.13,3.57-3.29,.2,.05,.45-.06,.58-.08Z"/><path d="M250.13,92.22c-3.02-.38-4.55-2.11-4.5-4.5,.11-5.5-.93-10.81-2.61-16.01-.82-2.54-1.91-5.06-.6-8.12,.79,.32,1.6,.52,2.26,.94,1.94,1.23,3.81,2.57,5.74,3.81,1.62,1.04,2.16,.72,2.4-1.16,.11-.88,.49-1.73,.74-2.59,1.08,.36,2.21,.61,3.21,1.11,1.08,.54,2.03,1.31,3.04,1.98l.56-.4c-.2-.76-.27-1.59-.63-2.25-1.4-2.52-3.41-4.66-3.75-7.79-.14-1.23-1.39-2.47-2.39-3.45-2.12-2.06-2.86-4.52-2.71-7.54,6.05,2.42,9.84,8.37,16.31,9.97-1.36-4.1-4.29-7.57-3.7-12.1,.1-.8,.73-1.54,1.16-2.41,.91,.17,1.72,.33,2.87,.55-1.31-2.26-2.55-4.21-3.59-6.26-.43-.84-.87-2.48-.52-2.74,.83-.64,2.12-.92,3.22-.91,1.71,.02,3.42,.44,5.14,.59,.41,.04,.86-.29,1.68-.59-.65-.57-1.05-.96-1.5-1.29-1.89-1.42-3.94-2.48-5.64-4.33-1.17-1.28-3.89-1.36-5.96-1.55-2.19-.2-2.96-.55-3.35-2.77-.26-1.46-.37-2.96-.72-4.4-.19-.79-.57-1.74-1.18-2.21-3.04-2.32-3.18-5.6-3.29-8.96-.05-1.53-.4-3.04-.47-4.57-.03-.76,.28-1.53,.44-2.3,.83,.21,1.92,.16,2.42,.68,.79,.81,1.41,1.95,1.71,3.06,1.15,4.15,2.14,8.34,3.25,12.77,.7-.15,1.36-.25,2-.45,2.08-.64,2.46-.38,2.57,1.86,.01,.24,.05,.47,.05,.71,0,1.15-1.06,2.58,.74,3.27,1.14,.44,2.33,.78,3.53,1.04,1.83,.4,3.69,.68,5.53,1.01,.08,.16,.21,.29,.21,.43,.05,3.75,1.08,4.93,4.89,5.51,.86,.13,1.73,.2,2.6,.21q3.31,.05,3.72,3.58c-4.96,3.24-10.4,4.18-16.48,2.72,1.26,2.78,2.62,5.08,3.35,7.56,.72,2.46,2.14,5.03,.64,7.69-2.83,.29-3.08-2.39-4.83-4.09,0,.95-.14,1.48,.02,1.9,1.63,4.24,3.39,8.36,8.04,10.3,.96,.4,1.87,1.23,2.48,2.09,.37,.52,.41,1.85,.04,2.17-.5,.44-1.56,.39-2.34,.29-.68-.08-1.3-.56-1.97-.81-2.5-.94-5.06-1.74-7.48-2.85-1.69-.77-3.19-1.95-4.76-2.96-.75-.49-1.48-1.02-2.59-1.23,.08,.33,.1,.69,.24,1,1.99,4.38,4.13,8.71,5.92,13.17,.41,1.03,.13,2.99-.61,3.68-1.17,1.08-2.35-.13-3.36-1.14-.96-.96-2.17-1.67-3.58-2.73,.03,2.92,1.6,4.39,3.2,5.76,1.61,1.38,2.11,3.03,1.75,5.37-3.23-1.1-5.47-3.15-7.35-5.73-.57-.78-1.31-1.47-2.07-2.09-1.34-1.09-2.72-2.14-4.16-3.1-.96-.65-2.03-1.12-3.05-1.68l-.53,.33c.99,3.72,2.15,7.41,2.92,11.18,.77,3.78,1.13,7.65,1.71,11.72Z"/><path d="M137.66,66.22c5.02,2.42,10.24,1.46,14.81-.26,5-1.88,10.69-2.33,14.94-6.09,1.88-1.66,3.68-3.41,5.63-4.99,.62-.5,1.59-.8,2.4-.77,3.63,.1,7.26,.34,10.89,.54,.23,.01,.49,.04,.69,.14,4.77,2.33,10.06,2.67,15.15,3.28,3,.36,6.29-1.06,9.35-2.01,2.92-.9,5.74-2.18,8.56-3.39,.83-.36,1.56-1,2.29-1.56,1.28-.97,2.38-2.33,3.81-2.9,3.84-1.55,6.57-4.32,9.02-7.46,2.26-2.91,4.94-5.64,6.52-8.89,2.48-5.11,5.05-10.31,4.94-16.32-.06-3.15,.28-6.31,.58-9.45,.08-.88,.64-1.74,1.07-2.56,.08-.16,.7-.26,.85-.13,.31,.27,.67,.71,.68,1.08,.02,1.97-.07,3.95-.1,5.92-.02,1.58-.07,3.17,.05,4.74,.33,4.46-.45,8.69-2.56,12.62-2.57,4.8-4.96,9.72-7.95,14.25-2.81,4.25-6.97,7.28-11.24,10.06-1.59,1.04-3.16,2.1-4.72,3.19-5.9,4.13-12.61,6.18-19.57,7.5-1.2,.23-2.54,.1-3.74-.18-5.14-1.17-10.2-2.71-15.39-3.6-2.98-.51-6.16-.3-9.19,.1-1.4,.19-2.62,1.63-3.93,2.49-5.98,3.91-12.25,7.17-19.3,8.76-3.35,.76-6.68,.85-10.04,.3-1.22-.2-2.56-.43-3.55-1.1-.78-.52-1.11-1.72-1.64-2.62l.71-.7Z"/><path d="M61.09,211.36c-.27-1.05-.36-1.8-.65-2.46-.42-.94-.8-2.03-1.54-2.66-1.53-1.31-2.22-1.01-3.39,.72-3.75,5.55-1.22,8.5,2.56,10.78,7.49,4.51,6.6,6.79,4.77,14.24-.71,2.88-2.89,4.29-5.49,4.47-6.13,.42-11.86-1.23-15.54-6.29-1.86-2.56-2.13-6.28-3.07-9.5-.08-.28,.24-.69,.61-1.61,.92,1.2,2.01,1.99,2.18,2.94,.83,4.91,4.05,7.53,8.41,8.92,2.64,.84,5.31,2.15,8.27,.83,2.57-1.14,3.81-5.88,1.77-7.83-1.99-1.91-4.09-3.74-6.35-5.32-3.71-2.58-3.85-7.07-2.6-11.18,.61-2,2.35-3.7,3.74-5.41,1.3-1.6,3.11-1.52,4.75-.66,3.78,1.98,5.96,5.98,1.58,10.01Z"/><path d="M74.53,207.96c.97,.12,1.38,.12,1.76,.23,1.74,.51,3.73,.81,4.33,2.85,.56,1.9-.73,3.26-1.9,4.59-1.67,1.9-3.19,3.8-6.22,3.6-1.76-.11-2.38,1.34-1.15,2.72,1.7,1.92,3.64,3.72,5.74,5.17,.8,.55,2.37,.1,3.56-.04,.68-.08,1.31-.6,1.99-.68,1.22-.15,1.95,.92,1.11,1.75-1.54,1.54-3.29,2.92-5.14,4.06-.5,.31-1.85-.3-2.55-.84-2.24-1.74-4.47-3.52-6.47-5.52-.79-.78-1.25-2.14-1.36-3.29-.21-2.17-.16-4.38-.03-6.57,.17-3,2.25-5.03,4.06-7.1,.58-.66,1.81-.75,2.26-.93Zm-2.86,7.87c2.19-.91,4.11-1.7,6.15-2.55-.99-1.91-2.2-1.64-3.3-1.24-1.45,.53-3,1.09-2.86,3.78Z"/><path d="M87.38,230.81c-.39-1.03-.96-1.88-1-2.76-.14-3.63-.08-7.26-.17-10.89-.04-1.58-.15-3.16-.42-4.71-.08-.46-.75-.96-1.26-1.17-2.69-1.13-3.54-2.65-3.05-6.04,1.63,.66,3.22,1.29,4.92,1.97,0-2.61-.09-4.85,.07-7.06,.04-.57,.88-1.08,1.36-1.62,.48,.63,1.31,1.23,1.37,1.89,.18,2.11,.07,4.24,.07,6.58,2.55,.25,4.88,.43,7.19,.75,.56,.08,1.05,.66,1.57,1.01-.33,.46-.56,1.17-1.01,1.35-2.05,.81-4.11,1.62-6.25,2.13-1.22,.29-1.57,.89-1.54,1.94,.1,3.39,.21,6.77,.34,10.16,.03,.71,.07,1.42,.23,2.11,.61,2.63,.53,2.82-2.41,4.35Z"/><path d="M128.03,225.03c-3.57-.98-7.35-1.52-10.65-3.06-4.01-1.87-3.32-9.85-.24-12.24,1.83-1.42,3.45-3.07,5.94-3.67,4.25-1.03,4.6-1.06,6.62,3.02-1.51,2.35-3.37,4.34-6.23,5-.97,.22-2.06,.23-3.03,.02-.89-.2-1.98-1.1-2.35,.22-.29,1.05-.03,2.44,.45,3.46,.27,.57,1.45,.81,2.27,.99,2.51,.57,4.9,1.34,6.59,3.42,.5,.61,.78,1.4,1.16,2.11l-.54,.72Zm-6.95-13.72c1.4-.47,2.8-.93,4.73-1.57-2.38-.82-3.78-.32-4.73,1.57Z"/><path d="M104.51,221.18c-1.1,1.12-2.16,2.19-3.22,3.27l-.73-.18c-.28-1.15-.74-2.3-.79-3.47-.12-2.76-.03-5.53-.05-8.3,0-1.19,.41-2.71-.17-3.5-2.85-3.93,1.06-6.76,1.11-10.17l.81-.13c.52,1.79,1.05,3.59,1.69,5.79,1.16,0,2.63-.05,4.1,.02,1.15,.06,2.28,.32,3.43,.39,.68,.04,1.38-.03,2.05-.19,1.62-.39,3.02,.25,3.3,1.74,.33,1.68-.65,2.59-2.19,2.7-2.58,.19-5.18,.2-7.78,.26-1.02,.03-2.03,0-3.57,0,0,3.25-.09,6.39,.07,9.51,.03,.63,1.01,1.22,1.93,2.25Z"/><path d="M153.53,208.19c-1.02-.71-1.81-1.26-2.61-1.82l-.17-.5c-2.5,1.19-5.13,2.16-7.47,3.61-3.1,1.92-5.42,4.51-5.44,8.54,0,1.81-.13,3.66-.55,5.4-.26,1.09-1.1,2.79-1.83,2.87-1.63,.18-2.03-1.4-1.99-2.84,.04-1.42,.25-2.83,.24-4.25-.01-3.54-.16-7.09-.13-10.63,0-.82,.53-1.63,.81-2.44,.6,.74,1.22,1.47,1.78,2.24,.17,.23,.15,.59,.23,.99,3.34-1.74,6.56-3.52,9.87-5.09,1.31-.62,2.85-1.02,4.29-1.06,2.97-.08,3.99,1.51,2.96,4.97Z"/><path d="M161.1,216.87c-1.27-1.36-2.46-2.81-3.83-4.06-1.15-1.04-1.15-2.11-.28-3.1,2.58-2.89,5.03-6.13,9.76-5.28v3.58c-1.62,.46-3.18,.72-4.55,1.38-.75,.36-1.18,1.38-1.77,2.13,1.25,1.19,2.38,2.16,3.38,3.24,1.52,1.64,1.39,3.25-.27,4.65-.66,.56-1.38,1.06-2.06,1.6-3.94,3.13-8.03,2.51-10.7-1.69-.36-.56-.49-1.33-.53-2.02-.08-1.31,.54-1.76,1.74-1.09,1.17,.65,2.35,1.29,3.47,2.03,2.12,1.39,4.23,.9,5.64-1.38Z"/><path d="M107.45,140.32c2.43,4.75,1.46,9.69,1.7,14.51,.02,.41-.81,.87-1.24,1.31-.07-.56-.17-1.13-.2-1.69-.02-.36,.21-.8,.08-1.08-1.72-3.51-.58-7.27-.93-10.89-.07-.7,.38-1.44,.59-2.16Z"/><path d="M133.21,146.18c-.39-.1-.8-.09-.93-.28-.2-.28-.37-.75-.28-1.06,1.27-4.6-2.15-9.63,1.46-14.02-.56,5.08,1.59,10.17-.25,15.36Z"/><path d="M103.82,169.12c-.35-.22-.98-.4-1.02-.65-.46-3.58-.88-7.16-1.21-10.75-.05-.49,.41-1.02,.64-1.54,.33,.5,.86,.98,.94,1.52,.54,3.67,.99,7.36,1.47,11.05-.28,.13-.55,.25-.83,.38Z"/><path d="M155.79,137.59c.25-3.96,.5-7.92,.77-12.16,.29-.08,1.01-.27,1.93-.52,.26,4.52-.53,8.69-1.54,12.83l-1.16-.15Z"/><path d="M164.61,115.25c.15,3.38,.3,6.75,.47,10.7-1.11-.49-2.07-.82-2.05-.92,.58-2.48-2.32-4.56-.8-7.1,.55-.92,1.15-1.8,1.73-2.7l.65,.02Z"/><path d="M142.01,133.97c-.51,3.39-1.02,6.78-1.51,10.18-.16,1.08-.18,2.18-.36,3.26-.09,.52-.41,.99-.63,1.49-.32-.52-.93-1.05-.9-1.56,.1-2.19,.28-4.39,.65-6.55,.35-2.07,.93-4.1,1.46-6.14,.08-.32,.43-.56,.65-.84l.65,.17Z"/><path d="M96.38,176.09c-.18-3.85-.39-7.71-.49-11.56-.01-.49,.59-.99,.91-1.49l.57,.09c.13,2.43,.31,4.86,.38,7.29,.03,1.17,0,2.37-.26,3.5-.17,.76-.76,1.42-1.17,2.13l.05,.04Z"/><path d="M62.02,28.18c-1.03,.93-1.81,1.64-2.59,2.35-.68-.85-1.67-1.6-1.96-2.57-.37-1.24,1.44-3.53,2.16-3.07,.93,.59,1.43,1.89,2.39,3.29Z"/><path d="M148.79,143.55c-2.11-3.86-1.31-8.03,1.5-9.78-.51,3.29-1,6.54-1.5,9.78Z"/></g></g></g></svg>