<?xml version="1.0" encoding="UTF-8"?><svg xmlns="http://www.w3.org/2000/svg" viewBox="0 0 322.87 298.78"><g id="a"/><g id="b"><g id="c"><g><path d="M183.52,209.81c.54,1.02,.98,1.84,1.4,2.66,.92,1.8,.93,1.86,2.93,1.18,.95-.33,1.76-.14,2.11,.64,.22,.49-.16,1.28-.34,1.91-.05,.18-.35,.3-.55,.42-1.25,.72-1.01,1.55-.39,2.65,2.53,4.52,4.97,9.08,7.42,13.64,.1,.18,.05,.44,.09,.85-1.23-.38-1.83-1.3-2.42-2.22-1.39-2.18-2.75-4.39-4.17-6.56-1.1-1.68-1.54-1.8-3.1-.83-2.7,1.67-5.45,3.28-8.03,5.11-2,1.42-3.95,2.97-5.2,5.21-1.41,2.54-3.76,4.21-5.96,5.96-2.15,1.7-4.21,3.43-5.55,5.86-1.12,2.03-2.89,2.99-5.11,3.38-1.27,.22-2.62,.37-3.77,.9-1.46,.68-2.99,1.49-4.05,2.65-3.03,3.28-5.83,6.67-9.83,9-2.24,1.31-3.86,3.74-5.63,5.77-2.56,2.94-3.18,2.86-4.55-.74-1.98-5.21-4.71-10.01-7.86-14.58-.73-1.06-1.38-2.19-1.99-3.33-.12-.23-.03-.74,.15-.92,.16-.15,.73-.13,.89,.04,.73,.76,1.5,1.53,2.03,2.43,2.53,4.24,5,8.53,7.49,12.8,.3,.51,.57,1.03,.89,1.53,.6,.96,1.25,.79,2.02,.14,2.7-2.26,5.51-4.41,8.13-6.76,2.1-1.88,4.08-3.91,5.94-6.03,2.26-2.57,4.86-4.41,8.31-4.91,2.2-.32,3.92-1.37,5.25-3.23,2.06-2.89,4.62-5.3,7.51-7.41,1.48-1.09,2.72-2.58,3.86-4.05,2.53-3.29,5.02-6.49,9.12-8.1,1.7-.67,3.11-2.1,4.63-3.22,.96-.72,1.04-1.46,0-2.27-.44-.35-.63-1.01-1.07-1.36-.25-.2-.78-.13-1.16-.06-.18,.03-.3,.36-.49,.49-2.82,1.95-5.07,1.39-6.56-1.58-.63-1.26-1.47-2.43-1.98-3.73-.19-.48,.28-1.22,.45-1.84,.52,.18,1.21,.2,1.52,.56,.68,.79,1.09,1.82,1.76,2.62,.49,.59,1.17,1.13,1.87,1.38,.42,.15,1.14-.19,1.56-.51,.16-.12-.01-.92-.25-1.26-.8-1.16-1.68-2.27-2.56-3.38-.71-.89-1.65-1.16-2.8-1.19-2.93-.07-5.86-.33-8.79-.44-4.11-.15-7.92,.91-11.5,2.92-.96,.54-1.14,1.3-1.33,2.29-.13,.67-.74,1.44-1.36,1.79-2.33,1.34-4.93,2.28-7.1,3.82-4.41,3.15-8.74,6.45-11.34,11.44-.53,1.01-1.4,1.89-2.27,2.67-.29,.26-1.06,.1-1.54-.06-.13-.04-.2-.9,0-1.21,3.62-5.99,7.83-11.47,13.81-15.36,.49-.32,.93-.71,1.38-1.09,.08-.06,.15-.27,.11-.31-.12-.14-.29-.26-.46-.33-.09-.04-.24,.02-.33,.08-3.07,1.9-6.77,2.62-9.43,5.32-1.47,1.49-3.14,2.75-5.17,3.61-2.41,1.02-3.44,3.43-4.4,5.74-.27,.64-.31,1.42-.71,1.95-.27,.37-1.04,.67-1.45,.55-.33-.1-.75-.95-.64-1.34,1.1-3.83,2.97-7.16,6.41-9.44,1.97-1.3,3.9-2.66,5.75-4.12,.42-.33,.66-1.22,.57-1.79-.15-.96-.97-.61-1.69-.59-3.19,.1-5.87,1.63-8.61,2.96-2.38,1.16-2.32,1.19-4.47-.7-.69-.61-1.55-1.02-2.37-1.47-1.34-.74-2.77-1.34-4.04-2.18-.46-.3-.89-1.22-.76-1.7,.3-1.11,1.32-.78,2.05-.46,.75,.32,1.42,.83,2.09,1.3q4.75,3.29,10.25,1.22c2.65-.99,5.34-1.88,7.98-2.88,2.83-1.07,5.68-1.56,8.61-.5,2.25,.82,4.39,.54,6.52-.42,1.4-.63,2.84-1.16,4.24-1.77,3.25-1.42,6.53-2.71,10.17-2.7,.45,0,.9-.18,1.35-.31,.08-.02,.13-.16,.39-.49-2.16-.84-3.8-2.38-6.5-2.05-1.57,.19-3.32-1-4.96-1.65-1.53-.61-3-1.37-4.54-1.97-.86-.34-1.82-.73-2.69-.65-1.35,.13-2.66,.64-3.99,.99,.29,1.89,2.08,1.68,3.26,2.2,1.93,.86,3.99,1.44,5.98,2.16,.44,.16,.91,.3,1.25,.59,.19,.16,.19,.61,.15,.92-.02,.13-.4,.33-.56,.29-.68-.17-1.35-.41-2-.66-5.2-1.94-10.51-3.44-15.99-4.36-.57-.09-1.15-.08-1.84,.36,2.53,.73,5.07,1.46,7.6,2.2,1.7,.49,3.39,.98,5.07,1.53,.28,.09,.46,.47,.68,.72-.38,.1-.8,.36-1.13,.28-5.59-1.41-11.16-2.89-16.74-4.31-1.56-.4-3.16-.64-4.81-.71,1.33,1.47,3.12,1.92,4.86,2.45,3.72,1.14,7.46,2.23,11.17,3.39,.48,.15,.87,.59,1.31,.89-.49,.08-1.04,.35-1.48,.23-3.83-1.11-7.63-2.32-11.45-3.44-2.04-.6-4.09-1.16-6.16-1.61-1.25-.27-2.53-.26-3.64-1.15-.45-.36-1.33-.2-2.01-.22-.18,0-.52,.26-.52,.37,.03,.31,.12,.73,.34,.88,.48,.32,1.04,.56,1.61,.71,2.5,.66,5.03,1.24,7.53,1.92,2.38,.65,4.75,1.38,7.11,2.12,.25,.08,.4,.47,.6,.71-.28,.15-.6,.48-.83,.43-6.85-1.59-14.05-1.56-20.58-4.63-1.24-.58-2.73-.69-4.12-.85-.48-.05-1.02,.43-1.53,.67,.37,.37,.68,.93,1.12,1.07,2.24,.72,4.53,1.3,6.78,2,2.25,.7,4.47,1.47,6.69,2.26,.2,.07,.26,.54,.39,.82-.21,.07-.44,.24-.62,.2-7.42-1.8-14.99-3.03-22.2-5.67-1.5-.55-3.12-.77-5.25-1.27,1.03,1.71,2.74,1.96,2.93,3.6,.06,.47,1.3,.83,2.04,1.16,2.9,1.3,5.85,2.5,8.71,3.88,1.02,.49,1.85,1.4,2.7,2.18,.19,.17,.13,.62,.18,.94-.3-.05-.63-.03-.89-.17-1.65-.9-3.27-1.87-4.93-2.75-.49-.26-1.12-.28-2.31-.55,.81,.98,1.23,1.56,1.73,2.08,1.22,1.26,2.4,2.59,3.75,3.71,.97,.8,2.12,1.51,3.3,1.9,1.55,.51,3.24,.61,4.84,.98,.89,.21,1.89,.43,2.57,.98,.67,.54,1.57,1.8,1.35,2.22-.64,1.26-1.55,0-2.36-.21-1.48-.4-2.93-.87-4.41-1.26-.44-.12-1.21-.29-1.35-.09-1.47,2.02-2.48,.51-3.61-.36-.46-.35-.98-.7-1.53-.85-.64-.17-1.33-.13-2-.18,.21,.62,.32,1.29,.64,1.84,.41,.71,1.08,1.26,1.48,1.97,2.31,4.09,5.46,7.29,9.57,9.64,2.54,1.46,3.83,4.09,4.96,6.71,.17,.4,.23,.95,.1,1.35-.13,.38-.55,.84-.91,.92-.36,.08-.83-.25-1.21-.47-.17-.1-.3-.38-.34-.6-.64-3.67-3.65-5.39-6.24-7.35-2.19-1.66-4.13-3.47-5.71-5.71-2.38-3.37-4.99-6.55-8.15-9.24-.42-.36-.87-.87-.96-1.38-.07-.39,.28-1.09,.64-1.27,.48-.24,1.2,.02,1.71-.18,1.47-.57,1.74-2.1,.38-2.87-4.56-2.58-8.5-6.17-14.01-7.18-4.36-.8-8.5-2.77-12.75-4.17-1.45-.48-2.93-.9-4.44-1.16-1.46-.25-1.95,.17-2.15,1.6-.12,.81-.16,1.65-.09,2.47,.18,1.99,.43,3.98,.67,5.97,.12,1,.3,1.69,1.71,1.63,.96-.04,1.62,1.48,1.14,2.47-1.02,2.1-2.11,4.19-3.39,6.14-.54,.82-1.6,1.33-2.5,1.87-2.21,1.33-2.33,1.56-1.85,4.27,.53,3.02,1.23,6.02,1.52,9.05,.25,2.74,1.6,4.51,3.72,6.05,5.88,4.25,10.71,9.55,14.97,15.38,.06,.08,.04,.2,.12,.76-2.85-2.67-5.58-4.98-8.02-7.56-2.45-2.58-5.13-4.79-8.43-6.76,.5,3.13,.57,6.07,3.32,7.98,.31,.21,.59,.93,.46,1.24-.75,1.85,.6,3.08,1.11,4.6,1.1,3.22,1.96,6.52,2.91,9.8,.52,1.8,1.05,3.61,1.47,5.44,.1,.46-.06,1.25-.38,1.48-.73,.52-1.43,.01-1.65-.7-.65-2.14-1.16-4.32-1.76-6.47-.73-2.61-1.43-5.23-2.28-7.8-.42-1.26-.7-2.9-2.75-2.46-.17,.04-.4-.2-.59-.32-1.78-1.14-2.36-1.15-3.78-.07-1.36,1.04-1.34,1.74,.08,2.97,1.11,.97,1.37,1.84,.6,2.17-.59,.24-1.34,.25-1.99,.15-2.08-.32-4.13-.9-6.23-1.09-4-.37-8.01-.44-11.98,.33-.58,.11-1.17,.16-1.76,.22-2.79,.27-2.67,.23-3.54-2.51-1.79-5.63-3.81-11.16-8.29-15.38-.82-.77-1.33-1.92-1.83-2.96-.14-.28,.15-1.01,.44-1.18,.27-.16,.99,.02,1.21,.29,1.72,2.08,3.62,4.08,4.96,6.39,1.71,2.94,3.04,6.11,4.36,9.25,1.25,2.96,1.83,3.46,4.99,3.31,1.65-.08,3.3-.12,4.93-.29,.51-.05,1.38-.46,1.4-.74,.16-2.71,1.02-1.11,1.85-.37,.73,.66,1.43,.95,2.49,.23,.76-.52,1.93-.43,3.14-.65-2.09-2.36-4.1-4.63-6.08-6.91-.46-.53-1.02-1.07-1.24-1.7-1.15-3.24-3.57-5.43-5.97-7.72-1.68-1.6-2.93-3.66-4.42-5.47-.25-.3-.75-.47-1.16-.53-.13-.02-.43,.5-.5,.81-.36,1.48-.62,2.99-1.01,4.47-.22,.84-.78,1.7-1.71,1.37-.61-.22-1.14-1.07-1.39-1.76-.23-.62-.29-1.55,.02-2.07,.82-1.34-.28-2.47-.16-3.56,.12-1.08,1.44-1.97,1.96-3.07,.32-.69,.31-1.66,.12-2.42-.14-.54-.83-1.31-1.29-1.32-1.5-.03-3.19-.15-4.48,.47-3.81,1.84-7.45,4.03-11.18,6.05-1.33,.72-2.22,1.63-2.38,3.24-.08,.78-.47,1.59-.91,2.27-.82,1.26-1.91,1.59-3.37,1.1-1.83-.62-3.02-1.7-4.13-3.48-2.78-4.49-4.29-9.38-5.78-14.34-.64-2.13-1.63-4.16-2.52-6.22-1-2.32-1.52-4.37-.23-7.02,1.68-3.45,2.41-7.36,3.74-11.01,.67-1.85,1.77-3.54,2.68-5.3,1.46-2.82,3.01-5.58,4.35-8.45,1.24-2.66,2.11-5.5,3.4-8.13,2.53-5.15,4.26-10.51,4.32-16.26,.04-4.15,2.38-7.31,4.04-10.78,.05-.11,.44-.18,.58-.1,.18,.1,.37,.38,.35,.57-.09,.91,0,1.97-.42,2.71-1.94,3.28-2.17,6.88-2.57,10.53-.3,2.78-.95,5.62-2,8.21-2.94,7.3-5.49,14.77-9.46,21.67-2.04,3.54-3.25,7.56-4.81,11.37-.17,.41-.34,1.01-.16,1.32,1.32,2.31,2.57,4.7,4.17,6.82,1.53,2.04,3.44,3.79,4.98,6.04-1-.49-2.22-.77-2.95-1.52-2.2-2.27-4.99-4.01-6.41-7-.13-.28-.47-.47-.72-.71-.27,.34-.79,.68-.78,1.01,.07,2.1-.15,4.33,.48,6.27,1.59,4.93,3.52,9.75,5.44,14.57,.6,1.52,1.53,2.92,2.43,4.3,.43,.66,1.1,1.21,1.76,1.68,.29,.21,.81,.11,1.23,.14-.22-.28-.4-.63-.67-.83-1.4-1.02-1.62-1.69-.81-3.18,.13-.23,.84-.45,1-.32,1.25,.99,1.65,.18,1.94-.85,.3-1.02,.51-2.06,.81-3.08,1-3.31,3.45-5.56,5.84-7.83,3-2.85,5.75-5.85,7.09-9.88,.28-.84,.97-.99,1.69-.49,1.32,.91,1.5,2,.55,3.3-1.59,2.19-3.09,4.46-4.85,6.5-1.22,1.41-2.75,2.56-4.25,3.7-1.87,1.42-2.98,3.29-3.64,5.48-.09,.28-.01,.77,.18,.94,.19,.17,.69,.18,.95,.06,1.38-.66,2.86-1.21,4.07-2.12,2.9-2.16,6-3.73,9.63-4.08,1.41-.14,1.77-.83,1.59-2.13-.21-1.51-.3-3.04-.44-4.57-.15-1.71-.85-3.61,1.54-4.45,.08-1.37,.68-2.99,.15-4.06-1.35-2.72-.45-5.61-1.17-8.33-.71-2.67-.4-5.36-.11-8.08,.48-4.49,.12-8.93-1.12-13.3-.51-1.8-1.93-3.75,.31-5.45,.13-.1,.13-.45,.1-.67-.55-3.69,.55-7.39-.12-11.08-.12-.67-.03-1.43,.15-2.1,1.09-4,.37-7.93-.31-11.87-.14-.8-.53-1.95-.16-2.39,1.45-1.72,.09-2.56-.86-3.54-1.06-1.1-2.17-2.15-3.33-3.14-.16-.13-1.03,.17-1.05,.34-.16,1.15-.16,2.32-.25,3.48-.04,.56-.05,1.16-.25,1.67-.29,.71-1.36,.8-1.72,.16-.71-1.25-1.22-2.57-.63-4.03,1.58-3.93,2.87-8,5.69-11.31,.52-.61,1.07-1.39,1.15-2.13,.35-3.66,2.69-6.62,3.35-10.18,.64-3.46,1.67-6.85,2.56-10.27,.68-2.61,1.79-5.12,1.63-7.92-.03-.44,.15-.98,.43-1.31,.41-.48,1-.82,1.51-1.22,.3,.59,.79,1.17,.85,1.78,.08,.8-.12,1.64-.31,2.44-.64,2.63-1.18,5.3-2.03,7.87-1.29,3.9-.72,7.36,1.77,10.58,1.15,1.49,2.27,3,3.3,4.58,.23,.36,.03,1,.02,1.52-.52-.08-1.27,.04-1.53-.26-1.62-1.86-3.12-3.84-4.71-5.73-.24-.29-.76-.35-1.15-.52-.06,.33-.2,.67-.18,1,.22,2.94-.48,5.56-2.27,7.97-.66,.9-.85,2.17-1.18,3.29-.57,1.95-1.04,3.95-3.61,4.21-.16,.02-.46,.85-.33,1.02,1.09,1.38,2.17,2.8,3.45,4,2.49,2.34,5.15,4.49,7.63,6.84,1.06,1,2.02,1,3.19,.43,.85-.41,1.71-.78,2.56-1.18,1.78-.84,3.56-.9,5.5-.38,2.73,.73,5.51,1.3,8.36,.37,.62-.2,1.44-.17,2.07,.05,2.08,.73,3.92,.27,5.72-.83,.59-.36,1.3-.52,1.95-.81,1.45-.65,1.67-1.11,.53-2.33-2.16-2.31-4.52-4.43-6.76-6.67-.64-.64-1.21-1.37-1.72-2.13-.12-.18,.09-.73,.32-.93,.19-.16,.74-.2,.91-.05,1.86,1.62,3.72,3.24,5.5,4.96,.93,.9,1.64,2.01,2.54,2.95,.47,.49,1.09,.91,1.73,1.15,.35,.13,.94-.07,1.26-.33,.14-.11-.02-.87-.26-1.12-1.72-1.77-3.53-3.46-5.26-5.22-.65-.66-1.3-1.38-1.72-2.2-.19-.36,.12-1.05,.35-1.51,.05-.1,.9,.02,1.17,.26,.96,.87,1.81,1.86,2.73,2.76,1.35,1.32,2.7,2.63,4.12,3.87,.25,.22,.82,.09,1.25,.11-.04-.33-.05-.67-.14-.99-.06-.22-.22-.42-.37-.6-1.82-2.17-3.69-4.29-5.45-6.5-.84-1.05-1.72-1.46-3.05-1.1-4.93,1.33-9.98,1.43-15.05,1.59-1.18,.04-2.52,.7-3.47,1.47-3.56,2.89-7.92,4.13-11.95,6.04-.71,.34-1.62,.41-2.42,.35-.46-.04-1.28-.66-1.24-.9,.1-.57,.5-1.34,.98-1.55,1.93-.83,4.01-1.32,5.89-2.23,2.33-1.12,4.59-2.42,6.73-3.86,1.49-1,2.94-1.98,4.75-2.19,1.13-.13,1.79-.42,1.44-1.76-.09-.36,.42-.84,.44-1.28,.01-.32-.32-.65-.53-.96-.04-.06-.22-.02-.34-.02-1.08,.03-2.75,.82-2.87-.82-.09-1.16,1.67-.89,2.66-1.08,.93-.18,1.9-.5,2.8-.38,3.54,.5,5.26-2.03,7.28-4.13,.87-.91,.71-1.71-.11-2.41-1.61-1.38-3.26-2.7-4.93-4-2.22-1.74-4.45-3.47-6.71-5.16-.91-.68-1.08-1.51-.7-2.49,.16-.41,.52-.74,.78-1.1,.34,.26,.75,.47,1.02,.79,2.94,3.42,6.47,6.17,10.08,8.8,1.97,1.44,4.27,.75,5.14-1.48,.63-1.62,1.07-3.38,1.21-5.11,.27-3.43,.72-6.8,1.96-10.02,.5-1.31,.2-2.04-1.05-2.87-2.74-1.82-5.32-3.9-7.92-5.92-.64-.5-1.2-1.15-1.63-1.83-.18-.29-.06-.94,.17-1.26,.12-.16,.87-.1,1.15,.11,2.33,1.8,4.62,3.66,6.93,5.49,.55,.44,1.09,.91,1.68,1.28,1.18,.72,1.7,.55,2.17-.66,.17-.44,.16-.96,.38-1.36,.63-1.14,.45-1.82-.71-2.6-1.35-.91-2.57-2.1-3.62-3.35-.96-1.15-1.67-2.53-2.4-3.86-.18-.34,0-.88,.01-1.32,.35,.21,.78,.35,1.05,.63,1.62,1.7,3.15,3.51,4.82,5.15,1.65,1.62,2.16,1.59,3.24-.25,1.72-2.93,3.25-5.97,4.92-8.94,.24-.43,.81-.66,1.23-.99,.36,.54,1.04,1.1,.99,1.61-.06,.76-.59,1.5-1,2.21-1.65,2.85-3.45,5.62-4.96,8.54-.9,1.75-1.4,3.72-2.01,5.62-.65,2.01-1.16,4.06-1.83,6.06-1.18,3.52-1.33,7.17-1.49,10.82-.01,.33,.77,1.05,1.08,.99,2.98-.55,6.12-.71,8.46-3.08,.39-.39,.93-.84,1.43-.87,2.17-.14,3.06-1.45,3.49-3.36,.58-2.52,1.29-5.02,1.82-7.55,.39-1.87,.31-3.71-.62-5.5-.83-1.59-.84-3.26-.6-5.12,.87-6.62,.6-13.16-2.42-19.34-.56-1.15-.83-2.45-1.15-3.7-.58-2.33-1.48-4.5-3.2-6.19-1.44-1.42-3.03-2.66-5.33-1.88-3.22,1.1-6.47,.92-9.78,.29-1.83-.35-3.76-.32-5.63-.28-1.58,.04-2,.68-1.31,2.01,2.4,4.63,5.74,7.98,11.39,8.09,.43,0,1.12,.45,1.23,.82,.2,.69-.04,1.39-.98,1.53-2.01,.32-3.88,.38-5.77-.83-2.83-1.81-5.24-3.97-7.13-6.74-.21-.31-.83-.68-1.06-.58-.35,.16-.61,.67-.73,1.09-.13,.44-.09,.94-.03,1.4,.59,5.01-.21,9.83-1.88,14.56-.79,2.24-.49,4.33,.95,6.36,1.14,1.6,1.97,3.43,2.87,5.19,.11,.22-.15,.64-.24,.96-.28-.16-.65-.26-.84-.49-1.26-1.55-2.42-3.18-3.74-4.68-.94-1.08-1.55-.97-2.1,.25-1.3,2.91-2.51,5.77-1.1,9.12,.55,1.31,.25,3,.25,4.52,0,.25-.37,.64-.64,.72-.19,.05-.65-.26-.74-.5-.68-1.88-1.53-3.74-1.87-5.69-.37-2.05-.42-4.21,.97-6.09,.41-.55,.65-1.25,.88-1.91,1.3-3.66,2.97-7.25,3.73-11.02,.74-3.64,.66-7.47,.69-11.21,.01-1.7-.23-3.28,1.29-4.5,.31-.25,.64-.85,.55-1.18-.65-2.36,1.45-2.99,2.62-4.14,.4-.4,1.34-.46,1.99-.36,2.54,.39,5.07,.9,7.59,1.39,2.47,.48,4.92,.61,7.3-.34,2.67-1.07,5.03-.77,7.16,1.25,.34,.33,.99,.33,1.5,.48,.11-.44,.33-.9,.3-1.33-.36-4.22-.68-8.44-1.2-12.64-.26-2.07-.8-4.13-1.46-6.11-.19-.59-1.28-.84-1.79-1.4-.33-.36-.5-1.02-.44-1.51,.04-.32,.71-.87,.95-.8,2.75,.8,4.61-1.03,6.7-2.16,2.17-1.17,4.33-2.38,6.5-3.56,.92-.5,1.81-1.05,2.77-1.44,.52-.21,1.17-.12,1.76-.16-.38-.44-.72-.92-1.15-1.31-3.88-3.51-8.06-6.44-13.29-7.69-2.39-.57-2.72-1.84-1.3-3.93,1.59-2.33,3.25-4.64,5.04-6.82,.61-.73,1.69-1.38,2.62-1.47,1.61-.17,3.39-.24,4.87,.29,2.87,1.01,5.81,1.19,8.72,1.12,5.75-.14,11.16,1.72,16.76,2.4,1.62,.2,3.24,.42,4.86,.61,.47,.05,.98-.11,1.41,.03,5.7,1.93,11.77,.45,17.53,1.91,1.02,.26,2.37-.1,3.36-.58,1.35-.66,2.66-1.57,3.69-2.65,1.75-1.83,3.62-2.03,5.76-.99,1.27,.62,2.52,1.3,3.76,1.97,2.93,1.59,6,2.75,9.33,3.12,.58,.06,1.32,.41,1.7,.17,1.79-1.12,2.86,.03,4.02,1.06,1.15,1.02,2.34,1.99,3.45,3.04,2.09,1.96,4.45,2.41,7.19,1.61,1.8-.52,3.68-.8,5.52-1.14,3-.57,5.68,.21,7.82,2.32,1.89,1.87,3.99,2.21,6.44,1.65,4.18-.96,8.4-.92,12.67-.79,2.42,.07,4.86-.64,7.29-.96,1.73-.23,3.48-.54,5.22-.54,4.53-.01,8.79,1.41,13.09,2.63,1.49,.42,2.35,1.29,3.04,2.66,1.32,2.62,2.85,5.14,4.34,7.67,1.02,1.74,1.77,3.45,1.77,5.59,0,2.22,.58,4.43,.89,6.65,.16,1.17,.35,2.33,.44,3.5,.26,3.48,.24,3.47-3.02,4.82-.33,.13-.63,.31-.95,.48-.8,.41-1.33,.94-1.07,1.96,.31,1.21,1.18,.86,1.98,.79,1.76-.15,3.53-.44,5.28-.38,1.5,.05,3.14,.22,4.46,.85,4.56,2.17,9.43,2.96,14.36,3.5,4.45,.49,8.89,.81,13.4,.53,4.97-.32,9.87,.62,14.54,2.48,2.23,.88,2.26,1.16,2.11,3.65-.14,2.45,.04,4.92-.08,7.37-.19,3.76-.47,7.52-.79,11.27-.37,4.46-1.14,8.91-1.15,13.37-.02,8.45-.51,17,2.91,25.08,1.07,2.52,1.48,5.19,1.55,7.93,.06,2.07-.37,3.91-1.48,5.69-.79,1.26-1.62,2.26-3.08,2.72-.78,.24-1.51,.67-2.2,1.11-3.38,2.11-6.97,3.26-11.03,3.12-2.38-.08-4.64,.71-6.66,2.08-1.07,.73-2.24,1.32-3.31,2.04-1.61,1.09-3.33,1.56-5.3,1.67-4.82,.26-9.62,.84-14.44,1.06-2.45,.11-4.92-.3-7.39-.44-1.62-.09-3.27,.02-4.87-.2-1.37-.19-2.71-.68-4.04-1.1-.88-.28-1.38,.05-1.55,.87-.6,2.79-1.09,5.63,0,8.36,1.54,3.87,2.28,7.89,3.02,11.96,.54,3,1.62,5.9,2.49,8.83,.47,1.57,.95,3.13,1.51,4.67,.74,2.07,.88,4.13,.2,6.23-.33,1.01-.74,2-.96,3.03-.41,1.85-.09,2.31,1.7,2.77,2.02,.52,2.44,.36,2.64-1.94,.71-8.22,1.23-16.45-.44-24.62-.75-3.69-1.57-7.36-2.36-11.05-.12-.58-.26-1.16-.29-1.74-.09-1.51,.78-3.04,1.11-2.57,.42,.59,.42,1.48,.58,2.24,.82,3.91,1.62,7.83,2.46,11.74,.08,.38,.42,1.07,.85,.25,.66-1.25,1.16-1.1,1.46,.12,.22,.9,.28,1.87,.25,2.8-.16,4.47-.4,8.95-.57,13.42-.13,3.29-.13,6.6-.32,9.89-.09,1.62,.58,2.42,2.1,2.68,.35,.06,.68,.21,1.02,.28,2.04,.39,2.99,1.75,3.23,3.69,.12,1.05,.15,2.11,.2,3.17,.06,1.18,.02,2.36,.16,3.53,.32,2.54,.92,2.97,3.47,2.35,7.61-1.86,15.32-2.62,23.13-2.37,4.09,.13,7.9-1.15,11.82-1.96,1.14-.24,1.25-.89,.87-1.81-.31-.76-.75-1.5-.92-2.29-.13-.64-.19-1.66,.17-1.97,2.56-2.12,2.24-5.12,2.34-7.85,.21-6.36,.24-12.72,.12-19.08-.04-1.96-.62-3.96-1.23-5.86-1.57-4.9-2.04-9.91-1.77-15.01,.03-.47,.05-.94,.05-1.41,.02-3.37-.98-4.17-4.32-3.4-.8,.19-1.55,.63-2.36,.74-1.03,.14-2.1,.15-3.14,.04-.32-.03-.79-.59-.82-.95-.03-.34,.35-.99,.65-1.06,2.29-.53,4.6-.96,6.91-1.38,.45-.08,.94,.03,1.41,.05,3.88,.15,4.24,.5,4.4,4.23,.03,.71,.09,1.42,0,2.12-.83,6.94,.73,13.58,2.39,20.23,.34,1.36,.55,2.79,.53,4.19-.05,5.89-.15,11.79-.36,17.68-.09,2.43,.08,4.95-1.35,7.18-.32,.49-.18,1.34-.1,2.01,.26,2.18,2.13,3.91,1.8,6.3-.04,.27,.55,.76,.94,.94,3.74,1.63,4.24,4.9,3.9,8.29-.64,6.31-.16,12.41,1.8,18.47,1.09,3.35,1.95,6.81,1.72,10.41-.04,.71,.01,1.42-.09,2.12-.68,4.47-2.48,6.04-7.06,6.14-.82,.02-1.64-.17-2.46-.19-2.51-.08-5.07,.03-7.14,1.55-3.21,2.36-6.89,2.88-10.66,3.29-1.17,.13-2.34,.29-3.49,.53-.8,.17-1.55,.61-2.36,.72-2.54,.33-2.83,3.66-5.08,3.96-2.46,.32-3.54,2.16-5.1,3.51-1.01,.88-1.18,1.78-.4,3.08,1.27,2.13,.25,7.06-1.6,8.43-.41,.3-1.09,.35-1.64,.34-1.41-.02-2.82-.18-4.24-.22-4.24-.12-8.36,.31-12.57,1.17-5.85,1.18-11.72,2.59-17.79,2.71-2.3,.04-4.58,.94-6.86,1.52-1.48,.38-2.92,.9-4.39,1.35-1.06,.32-1.91,.08-2.25-1.04-.36-1.17,.33-1.74,1.39-2.01,4.67-1.2,9.23-2.92,14.17-2.7,.59,.03,1.18-.07,1.77-.06,1.5,.02,1.96-.57,2.42-2.16,.96-3.36,2.59-6.53,4-9.76,.35-.8,1.01-1.38,1.98-1,1,.38,.96,1.29,.75,2.1-.18,.67-.54,1.3-.88,1.91-.41,.71-1.02,1.34-1.3,2.09-.62,1.63-1.09,3.32-1.61,4.98,1.61,0,3.24,.12,4.83-.04,1.75-.18,3.48-.58,5.2-.96,3.93-.87,7.89-1.25,11.92-.88,2.48,.23,3.1-.32,3.77-2.7,.56-1.99,.31-2.47-1.76-3.44-.61-.29-1.18-.66-2.24-1.26,.98-.17,1.4-.25,1.81-.31,.95-.13,1.5-.5,1.33-1.62-.17-1.15-.26-2.33-.25-3.5,0-4.58-2.12-8.37-4.41-12.11-2.4-3.92-4.88-7.8-6.41-12.17-.51-1.46-.92-2.95-.17-4.45,.13-.25,.54-.52,.81-.5,.26,.01,.62,.34,.71,.6,.14,.43,0,.95,.15,1.39,.54,1.67,.75,3.65,1.81,4.9,1.86,2.2,3.12,4.65,4.31,7.19,.2,.42,.52,.78,.83,1.13,.14,.16,.49,.34,.6,.27,.27-.16,.5-.44,.66-.72,.11-.19,.11-.46,.1-.69-.02-3.77,.04-7.54-.11-11.3-.11-2.58-.53-5.15-.79-7.73-.17-1.72,.19-3.53-1.39-4.91-.31-.27-.05-1.3,.08-1.95,.44-2.25,.25-4.44-.47-6.59-.09-.25-.51-.59-.72-.55-.25,.05-.59,.44-.62,.71-.12,1.05-.03,2.13-.21,3.16-.09,.47-.78,1.26-.96,1.2-.59-.2-1.18-.64-1.56-1.15-.22-.3-.05-.9-.05-1.37,.08-6.52-.04-6.79-4.52-11.03-1.62-1.53-3.19-3.12-4.82-4.65-.41-.38-.99-.94-1.41-.88-2.97,.43-6.25,.32-7.82,3.72-.1,.21-.2,.44-.36,.61-.6,.65-1.34,.76-1.62-.16-.38-1.25-1.11-1.36-2.15-1.07-.68,.19-1.37,.36-2.05,.57-2.86,.89-5.75,1.3-8.73,.78-2.55-.44-4.92,.06-7.18,1.25-2.91,1.55-5.85,3.05-8.76,4.6-1.55,.82-1.6,1.03-.6,2.31,1.58,2.05,3.26,4.03,4.78,6.13,2.19,3.05,4.51,6.05,6.35,9.31,3.13,5.55,6.39,10.99,10.48,15.91,.18,.22,.16,.61,.24,.92-.4-.03-.95,.09-1.19-.12-.78-.71-1.58-1.46-2.13-2.35-3.31-5.28-7.4-10-10.39-15.54-2.96-5.5-7.28-10.13-11.55-14.7-.56-.6-1.23-1.1-1.89-1.6-1.82-1.39-1.87-1.31-3.49,.25-1.51,1.46-3.18,2.77-4.77,4.15-1.56,1.36-3.18,1.34-4.86,.25-.59-.38-1.2-.75-1.81-1.09-1.34-.75-2.71-1.33-4.51-1.08Zm-128.69-12.16l.06,.1c.03-.88,.07-1.81,1.36-1.24,.41,.18,.69,.64,1.07,.91,1.82,1.29,3.64,2.58,5.49,3.82,.2,.14,.61-.03,.92-.06-.07-.31-.05-.73-.24-.9-.62-.53-1.34-.95-2-1.43-1.22-.89-2.47-1.77-3.63-2.74-.27-.23-.25-.82-.36-1.24,.4-.03,.85-.19,1.2-.06,.42,.15,.79,.51,1.13,.83,1.67,1.57,3.53,2.69,5.94,2.5,.43-.03,.86-.12,1.3-.18-.29-.29-.53-.67-.87-.85-1.87-.98-3.79-1.86-5.64-2.88-.69-.38-1.24-1.04-1.81-1.62-.13-.13-.19-.54-.09-.65,.2-.23,.51-.41,.81-.48,.69-.18,1.54,1.22,1.98-.04,.12-.33-.96-1.22-1.62-1.63-.68-.42-1.51-.7-2.3-.79-2.34-.26-4.69-.55-7.03-.54-1.66,0-2.96-.36-4.1-1.59-.79-.85-1.75-1.55-2.68-2.26-.24-.18-.72-.27-.96-.14-.21,.11-.34,.58-.32,.89,.06,1.16,.27,2.32,.26,3.48,0,.28-.59,.66-.98,.8-.17,.06-.65-.33-.76-.6-.22-.53-.3-1.13-.39-1.7-.22-1.39-.45-2.79-.61-4.19-.17-1.55-1.15-2.53-2.3-3.38-.22-.16-.65-.11-.95-.03-.12,.03-.23,.42-.2,.62,.09,.7,.16,1.42,.38,2.08,1.14,3.43,1.05,6.96,.86,10.49-.11,2.12-.36,4.24-.26,6.35,.09,1.97,.58,3.93,.88,5.9,.18,1.2,.95,1.86,2.04,2.18,2.14,.63,4.29,1.28,6.45,1.83,1.75,.44,1.74,.38,1.47-1.58-.05-.4,.16-.84,.25-1.25,.39,.2,.87,.32,1.15,.63,1.95,2.1,4.22,3.62,7.81,4.26-2.08-1.41-3.68-2.36-5.1-3.52-.97-.79-1.69-1.88-2.49-2.86-.1-.13-.02-.62,.04-.63,.28-.06,.65-.11,.85,.03,2.23,1.51,4.41,3.08,6.65,4.58,.76,.51,1.87,1.26,2.52,.33,.79-1.14-.69-1.44-1.32-1.95-.91-.74-1.99-1.28-2.87-2.04-.88-.76-1.67-1.65-2.39-2.57-.21-.27-.02-.84,0-1.28,.41,.09,.91,.06,1.21,.29,1.67,1.3,3.23,2.75,4.96,3.96,1.1,.77,1.96,.43,2.72-.63,.75-1.04,.24-1.76-.6-2.37-2.29-1.65-4.58-3.28-6.88-4.92Zm2.08,28.9c.66,.18,1.31,.43,1.99,.52,.74,.1,1.49,.04,2.24,.06-.03-.78,.16-1.67-.15-2.32-.38-.8-1.07-1.53-1.8-2.07-1.77-1.32-3.62-2.52-5.45-3.75-2.52-1.69-2.52-2.26,.07-4.1,.28-.2,.64-.27,.97-.4,.97,.79,1.87,1.69,2.93,2.35,1.07,.67,2.33,1.06,3.44,1.68,.72,.4,.92,1,.12,1.61-.31,.24-.56,.57-.84,.86,.37,.26,.71,.69,1.11,.74,.67,.09,1.39,.05,2.05-.11,1.17-.29,1.4-1.23,.48-2.04-2.72-2.39-5.59-4.54-9.34-5.03-.73-1.37-1.98-1.89-3.43-2.19-2.76-.58-5.51-1.21-8.25-1.88-2.72-.66-3.6-.23-3.65,2.5-.08,4.23,.13,8.46,.29,12.68,.05,1.39-.06,3,.59,4.12,2.96,5.08,5.8,10.3,10.56,14.03,1.76,1.38,3.52,2.76,5.3,4.12,.91,.7,1.54,.14,2.06-.57,.69-.93-.17-1.21-.72-1.57-2.16-1.42-4.34-2.82-6.52-4.22-.75-.48-2.02-.9-1.27-1.98,.69-1,1.7-.15,2.47,.36,.59,.39,1.14,.84,1.7,1.27,2.06,1.56,4.11,3.15,6.2,4.69,.75,.56,1.54,1.14,2.4,1.48,.57,.22,1.3,.03,1.96,.02-.28-.49-.46-1.1-.86-1.44-1.81-1.5-3.67-2.95-5.55-4.36-3.11-2.33-6.26-4.59-9.36-6.93-.29-.22-.35-.76-.52-1.15,.4,.08,.9,.03,1.2,.26,2.93,2.17,5.82,4.41,8.75,6.58,1.04,.77,2.16,1.44,3.29,2.06,.21,.11,.98-.23,.99-.41,.29-2.85,.42-5.68-2.26-7.67-.57-.42-1.14-.84-1.69-1.29-2.63-2.15-5.27-4.3-7.88-6.47-.21-.18-.24-.58-.35-.88,.3,0,.69-.1,.9,.05,2.3,1.64,4.56,3.34,6.87,4.99,.76,.54,1.58,1.03,2.44,1.38,.31,.13,1.01-.11,1.18-.39,.18-.31,.13-1.06-.12-1.27-.78-.68-1.67-1.26-2.58-1.78-.92-.52-2.03-.81-1.9-2.2l-.05,.07ZM265.1,56.62c-2.08-1.08-4.17-2.15-6.25-3.25-1.76-.93-3.65-.82-5.53-.68-.39,.03-.8,.41-1.1,.72-.06,.06,.26,.66,.52,.83,2.15,1.42,4.29,2.85,6.5,4.17,1.75,1.05,3.8,1.63,5.05,3.44-2.75-1.18-5.42-2.51-8.01-3.96-2.15-1.2-4.38-2.3-5.99-4.28-.15-.19-1.16,0-1.16,.06-.11,1.63-.32,3.3-.1,4.89,.11,.76,.96,1.6,1.69,2.06,3.7,2.33,7.13,4.99,10.44,7.84,.71,.61,1.49,1.17,2.28,1.67,.86,.54,1.8,.78,2.91,.4-4.59-3.46-9-6.77-13.41-10.1-.81-.61-2.43-1.38-1.75-2.22,1.02-1.25,1.96,.45,2.79,1.07,5,3.71,9.95,7.49,14.94,11.22,2.01,1.5,4.28,2,6.69,1.26,2.14-.65,4.22-1.48,6.33-2.21,2.32-.8,4.64-1.62,6.99-2.34,2.58-.8,5.19-1.46,7.77-2.27,.47-.15,.81-.71,1.2-1.08-.53-.39-1.01-.93-1.61-1.15-.64-.23-1.42-.07-2.09-.26-1-.29-1.99-.68-2.92-1.16-.33-.17-.46-.72-.68-1.1,.4-.12,.84-.42,1.18-.34,2.4,.57,4.78,1.25,7.18,1.83,1,.24,2.04,.39,3.06,.49,.28,.03,.86-.31,.84-.42-.05-.41-.19-.98-.49-1.16-.78-.48-1.64-.92-2.52-1.13-2.06-.5-4.14-.92-6.24-1.24-2.55-.39-5.09-.81-7.72-.32-1.36,.25-2.83,.1-4.23-.05-4.91-.52-9.81-1.15-14.73-1.66-.61-.06-1.27,.31-1.91,.49l.07-.08ZM112.84,130.31l.08,.09c-.05-.23-.11-.46-.15-.69q-.44-2.21,1.48-2.59c.81-.16,1.62-.3,2.4-.55,.28-.09,.64-.43,.66-.68,.01-.23-.34-.57-.62-.7-6.04-3-12.34-5.25-18.96-6.54-2.06-.4-3.98,.16-5.64,1.46-.56,.44-1.03,1.06-1.66,1.3-.56,.21-1.28,0-1.92-.01,.05-.54-.08-1.2,.19-1.59,1.1-1.59,2.52-2.91,4.57-2.95,2.34-.05,4.79-.23,7.02,.32,4.44,1.09,8.78,2.62,13.14,4.03,2.02,.65,3.98,1.46,5.99,2.14,.26,.09,.64-.08,.93-.21,.06-.03,.03-.47-.08-.63-1.5-2.26-2.96-4.54-4.56-6.72-.45-.61-1.26-1.27-1.95-1.33-2.08-.18-3.83-1.09-5.62-1.99-.45-.22-1.33-.35-1.56-.11-1.35,1.45-2.87,1.1-4.2,.31-2.08-1.25-3.99-.96-6.03-.03-1.06,.49-2.2,.87-3.35,1.11-1.6,.33-3.41,.1-4.83,.75-4.32,1.98-8.93,2.04-13.49,2.43-.77,.06-1.82,.02-2.29-.43-.4-.4-.15-1.45-.21-2.22-.02-.22-.07-.5-.22-.61-.13-.1-.5-.08-.61,.03-1.29,1.36-2.58,2.73-3.79,4.16-.18,.22-.12,.98,.1,1.16,2.08,1.68,2.24,3.65,1.27,6.01-.6,1.46-.1,1.87,1.52,1.49,.57-.13,1.13-.33,1.7-.5,.9-.26,1.1-.84,.61-1.59-.77-1.18-1.57-2.34-2.41-3.47-.56-.77-.79-1.44,.12-2.1,.88-.64,1.58-.34,2.09,.46,.89,1.39,1.73,2.81,2.54,4.24,1.15,2.04,1.16,2.09,3.45,1,.81-.39,1.29-.37,1.63,.49,2.03,5.16,3.92,10.34,4.38,15.94,.14,1.74,.71,3.45,1.11,5.17,.29,1.27,1.07,1.72,2.35,1.45,.8-.17,1.63-.22,2.45-.3,2.45-.25,4.85-.54,7.37-.23,3.6,.44,7.3,.51,10.92,.26,4.45-.3,8.87-1.08,13.3-1.69,1.54-.21,1.91-.69,1.99-2.37,.08-1.77,.02-3.54,.15-5.3,.18-2.61-.85-4.87-2.05-7.02-1.27-2.27-2.14-2.36-4.64-1.47-1.52,.54-1.15,1.53-.96,2.56,.2,1.04,.62,1.7,1.92,1.42,.89-.19,1.88-.22,2.77-.04,.44,.08,1.04,.78,1.05,1.21,0,.44-.53,1.1-.98,1.29-.62,.25-1.4,.04-2.07,.21-.5,.12-.93,.52-1.4,.8,.3,.46,.5,1.12,.93,1.34,1.04,.54,2.21,.79,3.27,1.3,1.11,.53,1.48,1.5,1,2.27-.52,.84-1.24,.93-2.14,.61-1.65-.59-3.55-.79-4.94-1.75-1.72-1.18-.68-3.53-1.31-5.27-.32-.86-.18-1.89-.48-2.76-.29-.84-.88-1.58-1.33-2.36Zm-73.87,19.53l.05,.07-1.47-1.28c-.09,.54-.19,1.08-.26,1.62-.51,4.34,.94,7.84,4.44,10.49,.37,.28,.63,.7,.97,1.03,2.4,2.24,4.8,4.48,8.49,4.2,.32-.02,.93,.73,1,1.18,.14,.88-.59,1.16-1.36,1.21-.23,.01-.49-.02-.68-.12-3.78-2.09-7.86-3.77-10.28-7.73-.42-.69-1.39-1.05-2.1-1.56-.22,.98-.61,1.97-.61,2.95,0,.61,.46,1.37,.95,1.81,3.2,2.87,6.16,6.13,10.6,7.19,.89,.21,1.04,.89,.78,1.64-.29,.85-.86,.93-1.67,.57-.94-.43-1.67-1.43-3.56-1.49,3.62,3.65,6.73,6.83,9.91,9.95,.65,.63,1.96,1.07,.95,2.09-.82,.84-1.34-.36-1.89-.89-4.49-4.33-8.98-8.67-13.51-12.97-.44-.42-1.17-.53-1.77-.78-.05,.68-.2,1.37-.13,2.04,.04,.42,.3,.95,.64,1.2,1.56,1.17,2.13,2.73,2.17,4.61,.03,1.53,.84,2.62,2.07,3.51,1.53,1.1,3.04,2.24,4.44,3.49,1.31,1.16,2.75,1.7,4.48,1.78,4.69,.22,9.08,1.31,12.76,4.45,.6,.51,1.66,1.29,2.08,1.08,1.22-.61,1.89-.25,2.76,.54,.24,.22,1.03-.15,1.57-.26-.22-.47-.31-1.15-.68-1.36-1.23-.68-2.55-1.2-3.84-1.78-1.5-.67-3.02-1.3-4.48-2.04-.5-.25-.93-.72-1.25-1.18-.14-.19,.02-.66,.16-.95,.07-.14,.43-.25,.6-.2,.33,.1,.61,.34,.92,.49,3.61,1.71,7.22,3.43,10.84,5.11,.52,.24,1.12,.35,1.7,.4,.28,.02,.61-.22,.87-.4,.04-.03-.08-.46-.23-.57-1.71-1.22-3.41-2.46-5.18-3.6-2.27-1.46-4.62-2.8-6.87-4.28-.55-.36-.94-1.02-1.3-1.6-.14-.23,.02-.64,.04-.98,.29,.08,.68,.07,.87,.26,3.54,3.36,8.1,5.07,12.26,7.58-.95-1.94-2.76-3.47-2.54-5.89,1.32,1.26,2.56,2.5,3.87,3.65,.29,.26,.99,.39,1.29,.21,.3-.18,.57-.89,.45-1.22-.5-1.42-1.09-2.83-1.77-4.18-.49-.97-2.03-2,.56-2.25,.32-.03,.72-1.07,.77-1.68,.2-2.34,.03-4.74,.44-7.04,.67-3.75,.83-7.48,.55-11.25-.05-.69-.18-1.66,.2-2.03,1.57-1.55,.98-3.25,.62-4.95-.41-1.9-1.83-2.64-3.78-2.08-.78,.22-1.63,.53-2.4,.43-1.66-.22-3.01,.31-4.3,1.2-1.71,1.19-3.46,1.99-5.54,.81-.37-.21-.92-.15-1.38-.12-3.67,.26-7.3-.11-10.88-.92-1.81-.41-3.23,.22-4.59,1.21-.89,.64-.87,1.36,.01,1.97,.87,.59,1.83,1.04,2.66,1.68,.22,.17,.15,.83,.05,1.22-.03,.13-.66,.24-.91,.13-.53-.23-.99-.61-1.46-.95-.75-.55-1.47-1.58-2.23-1.61-2.46-.1-3.96-1.92-5.93-2.87ZM205.59,61.65c-1.66-1.11-3.33-2.2-4.96-3.35-.23-.16-.25-.62-.36-.94,.4-.04,.93-.27,1.18-.1,1.94,1.41,3.69,1.34,5.84,.14,1.18-.66,2.96-.37,4.45-.29,1.16,.06,2.3,.49,3.46,.68,.25,.04,.55-.26,.83-.4-.15-.29-.22-.71-.46-.85-1.22-.71-2.44-1.44-3.73-2-5.55-2.38-10.78-5.31-15.67-8.84-1.44-1.04-2.9-1.34-4.64-1.1-2.44,.34-4.91,.53-7.38,.69-2.2,.14-2.42-.01-2.37-2.29,.03-1.19-.25-1.89-1.41-1.94-4.6-.17-9.2-2.02-13.82-.06-.44,.19-1.16-.03-1.66-.25-1.27-.55-1.95,.09-1.88,1.18,.14,2.22,.51,4.43,.87,6.63,.13,.77,.84,.72,1.41,.48,2.13-.89,4.35-.99,6.6-.88,2,.1,3.99,.26,5.89-.72,.95-.49,1.88-.27,2.3,.85,.32,.86-.3,1.65-1.5,1.94-1.21,.29-2.43,.5-3.64,.75,1.93,.66,3.77,.75,5.6,.65,5.16-.28,9.74,1.25,13.92,4.21,2.2,1.55,4.48,3,6.7,4.53,.24,.16,.31,.57,.45,.87-.32,.11-.73,.42-.94,.31-2.1-1.03-4.35-1.87-6.19-3.25-4.28-3.2-8.94-4.6-14.25-4.01-1.63,.18-3.3,.15-4.94,.06-.79-.04-1.7-.28-2.29-.75-.39-.31-.23-1.24-.47-1.83-.14-.35-.58-.85-.85-.83-1.97,.19-3.94,.45-5.9,.78-.94,.16-1.34,.91-1.33,1.83,0,.7,.05,1.41,.16,2.11,.57,3.61,1.37,7.19,1.69,10.82,.24,2.78-.02,5.63-.23,8.43-.11,1.49-1.05,2.39-2.25,2.09-2.58-.65-5.44-.58-7.59-2.53-2.26-2.05-4.74-3.36-7.98-3.02-1.62,.17-2.27-.58-2.61-2.22-.29-1.38-.39-2.81-.76-4.16-.75-2.7-.6-5.62-2.25-8.11-.96-1.44-1.94-2.16-3.76-1.88-2.2,.34-4.46,.39-6.69,.58-1.38,.11-2.42-.24-3.35-1.44-1.29-1.66-2.82-3.16-4.37-4.59-3.19-2.95-6.41-5.87-9.73-8.67-1.23-1.04-2.67-2.15-4.19-2.49-3.73-.84-7.12-2.43-10.57-3.94-1.38-.6-2.92-1.13-4.4-1.14-3.76-.04-7.53,.29-11.24-.7-.31-.08-.95,.24-1.09,.54-.17,.36-.1,.97,.11,1.33,.2,.36,.68,.63,1.09,.79,.87,.35,.73,.79,.11,1.17-.85,.52-.96,1.28-.87,2.14,.18,1.64,.34,3.28,.57,4.92,.36,2.62,.38,2.6,3.22,2.67,.94,.02,1.93,.02,2.79,.34,1.42,.52,2.79,1.21,4.09,1.98,.38,.23,.44,.99,.65,1.51-.51,.04-1.02,.17-1.52,.1-2.31-.32-4.61-.74-6.93-1.03-1.07-.13-1.85,.37-1.87,1.58-.08,3.99,.05,7.96,1.76,11.69,2.75,5.98,4.52,12.09,3.32,18.81-.52,2.9-.51,5.83,.85,8.65,1.12,2.33,1.02,4.74-.08,7.15-.52,1.16-.71,2.48-.91,3.75-.05,.34,.34,1.02,.64,1.09,.48,.12,1.11-.03,1.56-.28,.37-.21,.55-.75,.85-1.1,1.93-2.26,4.29-4.01,6.78-5.58,1.99-1.26,4.06-1.04,5.06,.45,.22,.32,.2,.88,.1,1.29-.05,.18-.57,.32-.88,.34-1.27,.09-2.71-.23-3.77,.27-2.7,1.26-4.84,3.32-6.5,5.81-.16,.24-.02,1,.2,1.12,2.16,1.18,4.28,2.41,6.85,2.7,2.68,.3,5.37,.75,7.97,1.44,7.58,2,14.7,1.16,21.25-3.24,2.34-1.57,4.69-1.96,7.36-1.1,2.01,.64,4.07,1.17,6.14,1.58,6.12,1.2,12.26,2.34,18.4,3.46,1.62,.29,3.27,.65,4.89,.58,4.82-.21,9.65-.26,14.38-1.47,4.06-1.04,8.2-.43,12.3-.17,2.62,.17,4.9,2.31,7.75,1.41,.15-.05,.38,.26,.6,.33,3.32,1.21,5.62,0,6.07-3.44,.72-5.49,1.25-11,1.82-16.5,.07-.68-.11-1.4-.27-2.08-.52-2.16-1.02-4.33-1.68-6.45-.39-1.24-.05-2.22,.33-3.38,1.01-3.12,1.91-6.28,2.6-9.48,.41-1.89-.31-3.52-2.43-4.09-1.4-.38-2.25-1.22-2.41-2.69,.93,.07,1.91-.04,2.77,.23,4.18,1.34,4.98,2.81,4.01,7.12-.44,1.95-.68,3.99-1.44,5.81-1.51,3.64-1.28,7.14,.28,10.61,.97,2.15,.98,4.29,.62,6.56-.66,4.19-1.2,8.39-1.77,12.59-.06,.44-.1,.98,.1,1.35,.52,1.02,3.81,2.5,4.93,2.12,1.32-.45,2.57-1.11,3.81-1.76,1.34-.7,2.61-1.55,3.97-2.21,5.06-2.45,10.22-4.71,15.09-7.55,2.71-1.58,4.91-.59,5.17,2.64,.3,3.74,.53,7.47-.21,11.25-.78,4.01-1.35,8.11,.3,12.15,1.2,2.93,2.15,5.97,3.24,8.95,.06,.16,.35,.25,.67,.46,1.28-9.41,1.34-18.77,.75-28.13-.15-2.32-.83-4.63-1.39-6.91-.15-.6-.67-1.18-1.18-1.58-.4-.32-1.27-.17-1.51-.52-.6-.88,.52-1.04,.85-1.55,.49-.77,.99-1.65,1.1-2.53,.2-1.74,.35-3.54,.13-5.27-.58-4.69-.82-9.34-.23-14.06,.44-3.5,.65-7.04,.79-10.57,.07-1.75-.24-3.51-.43-5.26-.02-.2-.41-.42-.67-.51-.1-.03-.43,.27-.46,.44-.15,.93-.18,1.87-.35,2.79-.13,.68-.32,1.38-.68,1.95-.19,.3-.84,.51-1.21,.43-.27-.06-.61-.67-.59-1.01,.09-1.28,.36-2.55,.47-3.83,.1-1.15,.09-2.31,.13-3.46-1.21,.21-2.43,.4-3.64,.62-1.39,.25-2.78,.5-4.16,.8-2.22,.49-4.24,1.36-5.83,3.09-1.75,1.9-3.55,3.77-5.4,5.57-2.01,1.96-2.44,1.85-4.83,.37-1.88-1.17-3.9-2.15-5.92-3.07-2.07-.94-4.12-.97-5.88,.8-.41,.41-.9,.73-1.36,1.09Zm-65.86,58.07l.07,.08c-.53-1.62,.24-2.6,1.74-2.82,2.9-.43,5.84-.63,8.75-1.01,.73-.09,1.42-.5,2.13-.76-.69-.4-1.34-.9-2.07-1.17-.64-.23-1.39-.32-2.06-.25-1.26,.14-2.51,.41-3.75,.67-2.04,.42-3.96-.08-5.83-.79-.35-.13-.54-.69-.81-1.05,.34-.22,.65-.52,1.02-.64,.32-.1,.7,.03,1.05,0,1.14-.08,2.4,.24,3.21-.95-.95-.59-1.87-1.23-2.86-1.75-.72-.38-1.73-1.04-2.25-.8-2.14,1-4.52,.51-6.75,1.66-3.85,1.99-7.87,4.33-12.63,2.37-.98-.4-1.56,.46-1.13,1.4,.1,.21,.22,.42,.34,.62,3.65,6.05,7.39,12.04,10.91,18.16,1.45,2.53,2.72,5.25,3.55,8.04,1.85,6.19,2.63,12.68,5.12,18.71,.13,.32,.26,.69,.22,1.02-.05,.43-.27,.85-.42,1.27-.34-.24-.89-.4-1-.72-1.54-4.45-3.06-8.9-4.51-13.38-.94-2.91-1.74-5.86-2.64-8.78-.58-1.89-1.76-3.44-3.17-5.79,.49,5.07,.02,9.32,1.41,13.42,.43,1.28-.68,2.22-2.14,1.82-2.81-.77-5.68-.77-8.41-.12-5.6,1.34-11.19,1.3-16.86,.82-2.32-.2-4.71-.03-7.03,.28-2.19,.3-4.32,1.06-6.5,1.51-1.97,.4-2.57-.06-2.81-2.06-.13-1.13,0-2.3-1.37-3.4,.23,3.23,.43,6.16,.66,9.07,.07,.84,.52,1.21,1.44,1.02,2.88-.61,5.88-.88,8.64-1.83,4.18-1.44,8.43-2.26,12.8-2.34,2.69-.05,5.4,.24,8.08,.51,1.01,.1,1.89,1.61,1.58,2.4-.4,1.01-1.3,.85-2.11,.75-.46-.05-.93-.17-1.37-.32-4.54-1.56-9.05-1.11-13.58,.08-3.87,1.01-7.76,1.95-11.63,2.94-1.03,.26-2.07,.51-3.03,.95-.41,.19-.81,.81-.86,1.28-.09,.8-.06,1.7,.21,2.45,.74,2.03,.27,3.85-.36,5.83-1.08,3.39-1.24,6.94-.98,10.49,.11,1.55,.76,2.02,2.34,1.83,.58-.07,1.13-.34,1.71-.43,5.36-.77,10.71-1.65,16.09-2.26,7.19-.82,14.36-.15,21.47,1.01,1.43,.23,2.36-.04,2.84-1.3,1.18-3.06,2.36-6.13,3.32-9.26,.69-2.24,.94-4.61,1.55-6.88,.13-.5,.95-.82,1.45-1.22,.29,.56,.65,1.1,.85,1.7,.1,.3-.07,.69-.13,1.04-.67,4.2-1.57,8.33-3.29,12.26-.52,1.18-1.43,2.51-1.23,3.6,.3,1.69,2.29,1.16,3.55,1.63,.49,.18,1.23,.76,1.19,1.05-.09,.58-.62,1.53-1.02,1.55-1.71,.12-1.8,.88-1.45,2.3,.39,1.59,.5,3.26,.7,4.89,.13,1.04,.02,2.25,1.73,1.86,.11-.03,.54,.64,.53,.98-.01,.57-.28,1.14-.4,1.71-.48,2.23-.49,2.45,1.92,2.64,4.01,.31,8.14,1.27,11.92-1.19,.29-.19,.89,.06,1.34,.12,.81,.11,1.62,.3,2.43,.33,2.88,.11,5.6,.79,8.11,2.22,5.49,3.12,11.48,4.71,17.58,6.1,2.3,.53,4.57,.95,6.91,1.21,1.48,.16,2.9,.92,4.33,1.45,.77,.29,1.48,.72,2.26,.97,1.54,.51,2.93,.47,4.2-.86,1.54-1.61,3.27-3.04,4.94-4.53,2.37-2.11,4.55-4.62,7.6-5.64,2.4-.8,4.29-2.11,5.55-4.11,2.11-3.37,5.15-5.02,8.92-5.65,.81-.14,1.62-.37,2.38-.66,.64-.24,1.24-.61,1.82-.98,.48-.31,.5-1.65,1.42-.81,.36,.33,.4,1.45,.11,1.92-.52,.85-1.28,1.69-2.14,2.17-1,.56-2.2,.84-3.35,1.06-2.81,.54-4.93,2.02-6.65,4.28-1.21,1.58-2.59,3.07-4.06,4.41-1.34,1.22-2.59,2.79-4.84,2.37-.47-.09-1.14,.34-1.55,.72-.48,.44-.78,1.08-1.16,1.63,.59,.24,1.22,.73,1.76,.66,1.61-.23,3.24-.57,4.78-1.11,1.09-.38,2.05-1.14,3.07-1.73,4.33-2.56,8.75-4.49,14.04-3.22,1.49,.36,3.29-.07,4.84-.52,3.6-1.03,7.37-1.57,10.74-3.36,.82-.43,1.93-.48,2.56-1.08,.94-.91-.49-1.61-.58-2.48-.07-.69-.08-1.42,.07-2.09,.27-1.26,.64-2.51,1.04-3.75,.69-2.16,1.27-4.25-.32-6.36-.51-.69-.53-1.79-.64-2.72-.35-3.05-.81-6.04-2.15-8.86-.38-.8-.37-1.85-.32-2.78,.14-3.15-.56-6.11-2.09-8.83-1.41-2.51-1.56-5.17-1.11-7.88,.29-1.75,.75-3.41-.03-5.18-.22-.51,.1-1.35,.36-1.96,2.01-4.62,2.31-9.46,.98-14.19-1.09-3.9-2.36-7.63-.87-11.65,.08-.21,0-.47,.03-.7,.18-1.75,.32-3.5,.58-5.23,.38-2.57,.72-5.12,.04-7.7-.47-1.77-.86-2.04-2.41-1.28-1.27,.62-2.49,1.34-3.76,1.97-.71,.35-.72,.69-.27,1.32,1.1,1.53,1.06,1.5-.42,1.82-1.13,.25-2.31,.5-3.31,1.04-2.68,1.46-5.26,3.1-7.9,4.63-.76,.44-1.53,1.53-2.46,.63-1.04-1.01-1.98-.53-2.9-.08-1.48,.72-2.88,1.6-4.32,2.4-.82,.45-.82,.97-.32,1.71,.39,.58,.76,1.23,.91,1.91,.55,2.46,1.6,4.52,3.37,6.44,2.13,2.32,1.17,4.54-1.82,5.64-1.44,.53-2.19-.03-2.94-1.11-1.82-2.62-3.7-5.23-6.74-6.56-1.81-.79-3.31-1.69-3.79-3.83-.11-.5-.93-1.09-1.49-1.19-1.61-.28-3.25-.45-4.88-.42-2.2,.04-4.21,.86-5.56,2.63-.93,1.22,.27,2.46,.57,3.65,.14,.57,.86,.98,1.28,1.49,.36,.43,.91,.86,.97,1.34,.52,4.32,1.38,8.66,1.32,12.98-.08,6.22-.32,12.41,.65,18.58,.07,.46,.07,.95-.04,1.4-.07,.28-.35,.69-.58,.72-.25,.03-.69-.25-.79-.51-1.32-3.18-2.16-6.46-2.06-9.95,.25-8.55-.89-16.92-3.37-25.1-1.4-4.64-2.18-3.56-5.12-1.2-.27,.22-.65,.51-.66,.79-.1,2.03-1.48,2.06-2.98,2.09-1.88,.03-3.76,.17-5.64,.29-.33,.02-.64,.17-.96,.25,.11,.3,.14,.66,.33,.89,.52,.62,1.14,1.17,1.65,1.79,.16,.2,.13,.56,.19,.84-.31-.04-.71,.02-.91-.15-2.36-2.09-5.27-2.66-8.23-2.75-3.88-.12-7.77-.15-11.57,.99-1.37,.41-2.2-.19-2.3-1.38-.12-1.36,.84-1.49,1.84-1.54,3.18-.15,6.35-.28,9.53-.46,.3-.02,.74-.18,.85-.4,.09-.19-.12-.63-.33-.85-3.27-3.51-7.13-5.14-12.06-4.23-3.66,.68-7.42,.88-11.13,1.29Zm122.37,23.64c1.87-.17,3.75-.29,5.62-.53,1.87-.24,3.72-.69,5.59-.87,2.44-.24,4.46-1.31,6.47-2.62,1.65-1.08,3.46-2.04,5.33-2.65,2.23-.72,4.58-1.13,6.9-1.46,3.07-.43,5.91-1.25,8.53-3.03,3.44-2.33,4.3-3.78,3.48-7.94-.66-3.35-1.47-6.68-2.49-9.94-2.44-7.85-1.66-15.86-1.47-23.85,0-.12,.04-.23,.07-.35,1.91-7.38,.8-15.04,2.1-22.48,.22-1.29-.27-1.55-1.7-1.09-2.91,.93-5.8,1.96-8.72,2.87-3.15,.98-6.4,1.65-9.46,2.85-4.27,1.68-8.52,2.7-13.1,1.55-.49-.12-1.54,.11-1.56,.27-.24,1.95-1.16,1.14-2.13,.67-.36-.17-.92-.09-1.34,.05-4.83,1.63-9.38,3.85-13.45,6.93-1.87,1.42-2.05,2.14-1.01,3.88,2.8,4.68,3.81,9.83,4.4,15.14,.15,1.4,.5,2.78,.72,4.17,.31,1.94,1,2.81,3.54,1.53,1.57-.79,3.08-1.72,4.59-2.62,3.95-2.36,7.94-4.59,12.45-5.8,2.25-.6,4.55-1.41,6.49-2.66,4.29-2.75,8.87-4.81,13.57-6.69,.99-.39,1.9-.46,2.42,.62,.52,1.1-.28,1.77-1.07,2.3-.37,.25-.88,.42-1.32,.4-3.88-.13-6.95,1.88-10.17,3.62-2.99,1.61-6.08,3.14-9.27,4.29-4.35,1.57-8.5,3.38-12.32,6.04-2.4,1.67-5.05,3.01-7.66,4.36-1.82,.94-2.51,.61-2.99-1.46-.42-1.82-.73-3.72-.74-5.58-.02-3.71-.68-7.26-2.08-10.67-.4-.98-.07-2.47-1.63-2.79-.42,1.06-1.02,2.1-1.2,3.2-.15,.87,.17,1.84,.35,2.75,.56,2.89,1.49,5.75,1.64,8.66,.26,5.16,.03,10.34,.03,15.51,0,.9-.14,2.44,.23,2.59,1.48,.6,.93,1.68,1.01,2.65,.12,1.4,.02,2.89,.48,4.18,1.08,3.11,2.68,6.05,3.61,9.2,1.13,3.83,3.31,5.47,7.27,4.78Zm45.56,75.62c0-2.64,.07-4.53-.03-6.41-.07-1.27-.2-2.59-.63-3.78-.54-1.5-1.72-1.78-3.14-1.02-.7,.38-1.35,.87-2.07,1.22-3.67,1.79-7.66,1.52-11.46,1.17-3.78-.35-7.1,.65-10.14,2.32-1.74,.95-3.33,1.71-5.28,1.9-1.27,.12-2.51,.62-3.77,.64-3.31,.05-4.06,.84-3.97,4.23,.04,1.62-.22,3.25-.32,4.88-.05,.82-.13,1.65-.08,2.46,.36,5.88,.78,11.76,1.13,17.64,.11,1.88,.54,3.88,.06,5.62-.83,3.04,.28,5.79,.6,8.66,.06,.54,.47,1.08,.83,1.54,.16,.2,.64,.31,.89,.22,.28-.11,.58-.46,.64-.75,.06-.31-.21-.66-.24-1.01-.15-1.79,.16-2.07,1.85-2.06,1.02,0,2.33,.21,3.01-.32,3.92-3.07,8.56-3.79,13.25-4.44,2.6-.36,5.06-1.11,7.21-2.7,2.29-1.7,4.92-2.18,7.7-2.07,.71,.03,1.41,.14,2.12,.15,3.13,.04,5.3-1.75,5.3-4.88,0-2.92-.04-6.01-.97-8.72-1.7-5-2.35-10.07-2.52-14.51ZM135.57,8.64l-.1,.84c.95,.42,1.9,.83,2.85,1.26,1.93,.88,3.9,1.68,5.75,2.71,.81,.45,1.95,.92,1.77,2.26-.86-.21-1.82-.26-2.57-.67-5.24-2.85-10.85-4.47-16.74-5.26-1.03-.14-2.04-.51-3.01-.91-1.28-.52-2.45-1.35-3.76-1.71-3.41-.93-6.85-1.75-10.3-2.47-1.37-.29-2.81-.23-4.21-.28-.15,0-.43,.24-.45,.38-.02,.19,.13,.48,.29,.57,.41,.23,.85,.41,1.3,.53,5.86,1.54,11.19,4.31,16.54,7.04,1.46,.75,2.94,1.46,4.37,2.25,.21,.11,.37,.63,.29,.87-.08,.25-.55,.61-.74,.56-1.35-.38-2.68-.83-4-1.3-.88-.31-1.73-.7-2.62-1-.17-.06-.53,.07-.61,.22-.07,.14,.04,.47,.18,.63,.39,.43,.79,.9,1.27,1.21,2.66,1.7,4.53,4.05,6.05,6.77,.85,1.53,1.86,3.04,3.05,4.32,2.31,2.48,4.15,5.48,7.43,6.93,.71,.31,1.17,.99,.57,1.68-.24,.27-1.02,.14-1.53,.05-.31-.06-.59-.37-.85-.61-3.2-2.94-6.47-5.8-8.87-9.51-2.78-4.3-6.19-7.89-11.04-10.01-1.9-.83-3.57-2.25-5.21-3.57-2.12-1.71-4.26-3.34-6.84-4.32-1.76-.67-3.56-1.26-5.26-2.05-2.34-1.09-4.64-1.59-7.17-.66-1.1,.4-2.31,.59-3.2-.64-.14-.19-.94-.22-1.08-.04-.87,1.1-1.7,2.25-2.42,3.45-.39,.65-.32,1.37,.49,1.78,1.89,.95,3.7,2.27,5.71,2.74,2.76,.64,4.46,2.34,6.2,4.29,2.42,2.72,4.91,5.39,7.51,7.94,2.01,1.98,4.23,3.74,6.33,5.63,1.17,1.05,1.17,2.32,.05,3.55-.95,1.05-.93,1.25,.21,1.48,1.15,.23,2.35,.27,3.49,.56,5.71,1.42,11.41,2.86,17.08,4.38,.52,.14,1.13,.89,1.25,1.45,.23,1.1-.88,1.82-2.12,1.43-3.37-1.06-6.72-2.17-10.09-3.24-1.07-.34-2.13-1.13-3.28-.22,.66,.92,1.18,2.01,2.01,2.73,2.92,2.56,5.99,4.96,8.94,7.49,3.11,2.67,6.59,2.85,10.29,1.71,.38-.12,.94-.56,.93-.83-.03-.8-.19-1.65-.55-2.35-.19-.37-.89-.51-1.39-.66-1.76-.51-2.34-1.5-1.74-3.02q1-2.54-.85-4.33c-.6-.57-1.19-1.16-1.87-1.61-5.46-3.67-9.61-9.04-15.62-12.03-.35-.17-.56-1.34-.33-1.78,.23-.43,1.21-.84,1.68-.69,1.1,.36,2.21,.91,3.09,1.65,3.69,3.1,7.29,6.32,10.95,9.46,1.43,1.22,2.91,2.38,4.45,3.44,.31,.21,1.3,.06,1.43-.2,1.8-3.57,4.04-6.85,6.33-10.11,.27-.38,.13-1.14,0-1.69-.54-2.41-1.17-4.79-1.7-7.2-.08-.36,.21-.81,.33-1.21,.42,.14,.98,.15,1.24,.44,.38,.41,.62,1,.81,1.54,.36,1,.66,2.02,.95,3.03,.25,.84,.76,.9,1.22,.29,1.66-2.17,3.62-3.49,6.55-3.36,1.19,.05,2.46-.73,3.62-1.29,4.04-1.97,8.29-3.33,12.62-4.47,1.58-.42,2.79,.12,2.84,1.63,.08,2.78,1.29,5.54,.09,8.38-.5,1.19-.05,1.63,1.13,1.14,4.67-1.93,9.31-3.95,13.94-5.97,.21-.09,.33-.52,.37-.81,.01-.1-.35-.37-.51-.36-1.7,.17-3.46-.22-4.84,1.45-1.04,1.26-2.3,.92-2.47-.66-.34-3.24-2.96-4.43-5.12-5.75-2.37-1.45-5.1-2.45-7.8-3.18-4.01-1.08-7.87-2.51-11.56-4.33-2.87-1.41-5.16-1.67-7.4,1.19-1.42,1.82-3.47,2.39-6.02,1.75-2.57-.64-5.32-.53-7.99-.74Zm75.44,9.32c-.67,0-1.47-.07-2.24,.01-2.92,.3-5.83,.69-8.76,.95-1.52,.13-2.94,0-3.9,1.71-.63,1.12-2.65,.75-3.33,2.22-.07,.16-.73,.24-.96,.1-2.01-1.24-3.6,.1-5.28,.82-3.24,1.38-6.46,2.81-9.73,4.12-.96,.38-2.17,.81-3.07,.54-1.58-.47-2.41-.06-3.15,1.28-.51,.92-1.31,1.67-1.86,2.57-2.47,4-2.26,4.43,2.27,4.89,.7,.07,1.4,.18,2.11,.24,3.98,.33,7.98,.55,11.94,1.01,2.44,.28,5.04,.51,7.22,1.52,2.26,1.04,4.43,1.41,6.81,1.34,1.18-.03,2.36-.01,3.53,.03,3.68,.15,7.25,.68,10.53,2.56,3.62,2.07,3.83,2.11,5.95-1.68,2.83-5.06,7.24-7.14,12.73-7.55,.58-.04,1.22-.02,1.74-.24,3.09-1.29,6.47-2.02,8.9-4.6,.3-.32,.78-.49,1.2-.68,1.36-.61,1.46-.83,.51-1.61-3.29-2.68-6.57-5.35-10.47-7.17-1.37-.64-2.82-1.38-3.82-2.45-1.21-1.3-2.36-1.26-3.8-.81-2.49,.79-5.03,1.18-7.66,.93-.77-.07-1.67,.11-2.36,.46-3.65,1.87-6.91,4.14-7.57,8.65-.05,.34-.23,.66-.38,.98-1.08,2.31-1.7,2.5-4.09,1.55-2.35-.93-4.57-2.46-7.33-1.7-1,.28-2.06,.38-3.05,.7-2.47,.79-4.88,1.75-7.37,2.46-1.8,.51-3.68,.76-5.54,1.08-.94,.16-2.14,.3-2.32-.91-.23-1.5,1.12-1.5,2.16-1.64,.35-.05,.71-.08,1.05-.16,3.3-.81,6.63-1.56,9.9-2.51,.94-.27,1.98-.94,2.5-1.73,.72-1.1,1.57-1.37,2.68-1.17,1.26,.22,2.51,.54,3.74,.9,1.13,.33,2.21,.82,3.34,1.13,1.14,.31,2.02-.07,2.68-1.13,1.48-2.35,3.03-4.65,4.57-7ZM107.8,179.94c-5.27,.54-9.85,.92-14.39,1.51-2.79,.36-5.56,.97-8.3,1.62-1.92,.46-2.11,.91-1.71,2.74,.23,1.03,.65,2.03,.79,3.07,.46,3.44,1.15,6.71,4.78,8.33,2.14,3.13,5.38,3.96,8.88,4.28,.7,.06,1.41,.2,2.08,.41,2.34,.73,4.65,.48,6.98,0,6.07-1.29,11.99-3.48,18.35-3.08,.92,.06,1.86-.24,2.79-.4,1.72-.31,1.93-.48,1.87-2.34-.12-3.89-.66-7.7-1.79-11.46-.56-1.87-1.63-2.76-3.45-2.95-5.84-.6-11.69-1.2-16.88-1.73Zm56.06-111.69c-.57-4.21-1.18-8.99-1.89-13.76-.15-1.02-1-2.03-.9-2.98,.31-3.03-.67-5.81-1.22-8.69-.38-2.03-.49-2.19-2.33-2.13-.69,.02-1.46,.07-2.06,.37-3.16,1.6-6.44,2.85-9.84,3.82-.56,.16-1.07,.49-1.61,.71-.99,.41-1.35,1.11-1.38,2.19-.07,2.44,.67,4.6,1.77,6.73,.91,1.76,1.66,3.63,2.26,5.52,.46,1.44,.65,2.99,.85,4.5,.31,2.32,1.18,3.88,3.85,4.18,1.82,.21,3.77,.66,5.11,2.14,1.18,1.3,2.56,1.86,4.31,2.05,2.52,.28,2.52,.41,2.83-1.97,.09-.7,.13-1.41,.24-2.7Zm82.18-21.84c.99-.51,2.38-1.12,3.63-1.95,.47-.32,.9-1.18,.84-1.74-.31-2.92-.67-5.85-1.23-8.73-.41-2.09-1.66-2.45-3.3-1.18-.18,.14-.33,.33-.49,.51-1.07,1.21-2.13,1.8-3.55,.35-.27-.27-1.28-.06-1.79,.22-.46,.25-.86,.86-1,1.39-.36,1.38-1.34,2.01-2.57,2.01-2.65,0-4.68,1.42-6.72,2.76-.91,.6-1.26,.46-1.39-.43-.18-1.22-.72-1.24-1.69-.83-1.92,.83-3.27,2.26-4.46,3.89-3.39,4.62-3.83,10-3.83,15.44,0,1.86,2.87,3.06,4.29,1.83,.39-.34,.65-1.34,.44-1.79-1.54-3.33-.38-7.01-1.45-10.39-.06-.19,.03-.51,.17-.66,.21-.23,.52-.52,.78-.52,.3,0,.69,.23,.86,.48,.17,.26,.14,.66,.18,1,.27,2.45,.51,4.9,.81,7.34,.05,.45,.32,.87,.48,1.3,.4-.17,.94-.23,1.19-.53,2.99-3.53,6.96-4.96,11.39-5.74,1.91-.33,3.69-1.43,5.5-2.26,.69-.31,.91-.71,.37-1.62-1.18-2.01-2.11-4.17-3.04-6.32-.16-.37,.18-.96,.29-1.45,.41,.15,1.02,.18,1.19,.47,1.38,2.29,2.67,4.63,4.1,7.15Zm-74.67-24.37c-.02-2.48-.82-3.34-3.01-3.18-1.61,.12-3.24,.44-4.78,.94-1.78,.58-3.47,1.43-5.19,2.2-4.08,1.85-7.99,3.9-10.26,8.09-.55,1.02-1.57,1.78-2.18,2.77-1.53,2.5-3.01,5.04-4.38,7.63-.61,1.14,.02,1.95,1.22,1.63,3.84-1.04,7.87-1.42,11.31-3.79,1-.69,2.42-.81,3.66-1.1,1.13-.26,2.3-.62,3.43-.56,1.92,.12,2.68-1,3.34-2.47,1.1-2.48,2.41-4.79,4.17-6.91,1.31-1.58,2.49-3.44,2.66-5.27Zm32.04,21.82c-.75-.06-1.57-.2-2.38-.14-.4,.03-.78,.42-1.17,.64,.2,.28,.35,.64,.62,.82,1.45,1,2.94,1.92,4.38,2.92,3.12,2.15,6.49,3.72,10.2,4.52,.49,.11,1.31,.05,1.5-.24,.24-.37,.2-1.19-.07-1.58-.7-1.06-1.49-2.1-2.42-2.95-2.99-2.72-6.59-3.93-10.67-3.99Zm-28.3,78.7c2.19,.38,4.25-.7,6.18-2.83,1.54-1.7,3.79-2.74,5.64-4.18,.76-.59,2.47-.47,2.11-1.78-.14-.52-1.9-.92-2.87-.82-1.37,.14-2.76,.63-4.01,1.26-2.21,1.11-4.3,2.44-6.45,3.67-.75,.43-1.34,.89-1.17,1.93,.25,1.47-.43,1.92-1.86,1.6-.43-.09-.95,.24-1.43,.38,.49,.25,.95,.61,1.47,.73,.56,.13,1.17,.03,2.38,.03Zm72.79-45.51c.05,.75,.06,1.23,.12,1.69,.25,2.02,.65,2.28,2.45,1.22,2.94-1.73,5.82-3.55,8.68-5.39,.3-.19,.59-.85,.48-1.13-.12-.31-.74-.66-1.1-.61-2.79,.37-5.6,.69-8.34,1.31-2.28,.52-2.37,.87-2.29,2.91Zm4.35,65.52s.35,.05,.7,.07c1.71,.1,1.93-.14,1.35-1.68-1.44-3.82-2.92-7.63-4.41-11.43-.07-.17-.32-.37-.49-.38-.16-.01-.39,.18-.49,.34-.11,.19-.15,.45-.15,.67,0,2.73-.82,5.57,1.44,7.96,.62,.65-.26,1.21-.99,1.38-.8,.18-1.38,.61-1.07,1.42,.22,.56,.77,1.17,1.31,1.37,.74,.28,1.61,.19,2.78,.28Zm-165.34,58.48l.25-.37c-1.11-1.35-2.16-2.76-3.36-4.03-.39-.41-1.5-.82-1.68-.64-1.23,1.27-2.11,.26-3.08-.3-2.03-1.18-2.61-1.13-4.3,.35-.97,.86-1.01,1.61,.16,2.15,2.64,1.22,5.37,2.27,8.07,3.36,.17,.07,.43-.06,.64-.1-.12-.27-.17-.69-.37-.77-1.6-.7-3.23-1.32-4.83-2.02-.24-.11-.35-.52-.52-.79,.33-.06,.71-.25,.97-.15,2.69,1.08,5.35,2.2,8.03,3.31Zm-27.77-72.36c1.61-.32,3.47-.17,4.47-1.02,1.54-1.3,2.55-3.26,3.68-5.01,.47-.73-.22-2.69-.93-2.69-.56,0-1.27,.48-1.68,.94-1.91,2.16-3.47,4.64-5.98,6.23-.25,.16-.59,.69-.53,.76,.26,.33,.65,.55,.97,.8ZM232.21,17.22c2.72,1.55,4.91,2.65,6.94,3.99,2.11,1.39,4.06,3,6.69,4.96-.9-2.86-1.57-5.09-3.43-6.34-2.81-1.9-6.06-2.71-10.2-2.61Zm35.31,191.73c-2.15,.07-2.65,.85-2.04,2.74,.11,.33,.21,.67,.34,1,.6,1.41,.85,1.46,2.42,.92,1.98-.67,3.99-1.24,5.97-1.9,.36-.12,.65-.46,.98-.7-.36-.24-.69-.61-1.09-.7-1.81-.43-3.65-.8-5.47-1.18-.46-.09-.92-.16-1.11-.19Zm-17.99-146.53c-.15,.15-.44,.31-.43,.45,.02,.34,.09,.76,.3,.98,2.38,2.48,4.9,4.77,8.14,6.08,.52,.21,1.15,.23,1.72,.21,.27,0,.58-.27,.77-.5,.08-.09-.06-.5-.21-.61-3.09-2.34-6.01-4.95-9.62-6.52-.2-.09-.46-.06-.68-.09Zm9.29,138.02c-.12-.85-.06-1.86-.43-2.67-.41-.89-1.09-1.78-1.9-2.31-.54-.36-1.6-.34-2.22-.05-.73,.34-.88,2.56-.32,3.17,1.18,1.28,2.41,2.51,3.69,3.69,.14,.12,.9-.12,1.04-.38,.2-.37,.1-.9,.13-1.44Zm-177.19-59.13l.48-.13c-.06-1.03,.02-2.1-.22-3.09-.71-2.94-1.51-5.86-2.37-8.75-.12-.41-.87-1.01-1.19-.93-1,.24-.54,1.05-.37,1.69,.03,.11,.09,.21,.13,.33,.82,2.79,1.6,5.59,2.46,8.37,.27,.87,.72,1.68,1.09,2.51Zm162.61-9.09c-.34,1.14-.72,2.22-.96,3.33-.37,1.69-.65,3.4-.91,5.12-.04,.3,.14,.76,.37,.92,.16,.11,.73-.09,.88-.31,.62-.94,1.53-1.91,1.63-2.93,.2-2.05,.26-4.2-1-6.11Zm-69.9-16.69c.37-.12,1.35-.35,2.23-.78,.59-.29,1.57-1.07,1.49-1.26-.48-1.15-1.35-.09-2.07-.16-.81-.08-1.64-.01-2.44-.1-.81-.09-1.61-.36-2.42-.39-.39-.02-1.03,.24-1.13,.51-.11,.31,.24,.81,.46,1.19,.76,1.38,2.11,.62,3.89,.98Zm13.26-99.59c2.06,0,4.11,0,6.17-.02,.17,0,.43-.23,.49-.4,.03-.12-.2-.42-.36-.47-2.19-.63-4.29-.42-6.29,.89Zm108.9,190.52c-1.11-.83-1.93-2.28-3.56-1.52-.3,.14-.55,.41-.82,.62,.31,.24,.6,.65,.93,.69,1.14,.14,2.3,.15,3.45,.22ZM166.13,114.41c-1.81-.95-3.2-1.33-4.74-1.02-.17,.03-.45,.27-.43,.36,.03,.2,.2,.45,.38,.53,1.4,.67,2.82,.59,4.79,.12ZM88.62,28.14c-1.07,.73-1.88,1.28-2.68,1.83,.83,.29,1.65,.68,2.5,.8,.21,.03,.66-.8,.78-1.29,.07-.29-.29-.69-.6-1.33Zm52.93,185.49c-.15-.12-.32-.37-.46-.35-.69,.06-1.4,.1-2.05,.32-.32,.11-.52,.59-.77,.9,.41,.11,.85,.36,1.23,.3,.56-.09,1.1-.37,1.63-.63,.18-.09,.28-.34,.42-.53ZM251.11,70.71c-.79-.37-1.57-.73-2.35-1.09-.17,.48-.59,1.04-.46,1.41,.31,.84,1.58,1.06,2.35,.53,.15-.11,.2-.37,.45-.85Zm32.34,137.32c-2.11,.35-3.6,.02-4.6,1.49-.04,.06,.02,.27,.07,.27,1.55,.35,2.8-.19,4.53-1.76Zm-210.15-14.06c-.15-.1-.36-.33-.45-.29-.9,.44-1.8,.9-2.66,1.4-.12,.07-.19,.44-.11,.57,.09,.15,.45,.32,.55,.26,.87-.51,1.7-1.07,2.54-1.63,.08-.05,.09-.2,.13-.31Zm-19.67,54.77c-.38,.38-.65,.63-.64,.63,.74,.82,1.5,1.63,2.27,2.43,.14-.15,.42-.4,.39-.44-.65-.88-1.32-1.74-2.02-2.63Zm9.36-34.11c-.71-.62-1.25-1.08-1.79-1.54-.18,.26-.57,.67-.51,.76,.36,.52,.81,.99,1.29,1.42,.06,.05,.45-.28,1-.64Zm-3.35,40.71l-.91,.71c.48,.42,.94,.87,1.46,1.21,.08,.05,.48-.37,.74-.58-.41-.43-.83-.86-1.29-1.34Zm14.08-55.45l.17-.37c-.44-.33-.85-.72-1.33-.96-.2-.1-.56,.12-.85,.2,.14,.26,.22,.66,.43,.75,.49,.21,1.05,.27,1.58,.39Zm16.29,3.47c-.9-.29-1.63-.54-2.38-.76,0,0-.17,.47-.16,.47,.61,.25,1.23,.49,1.86,.68,.12,.04,.31-.17,.68-.4Zm3.87,1.81l-.85,.54c.35,.25,.68,.56,1.07,.7,.17,.06,.48-.24,.72-.38-.3-.28-.6-.55-.94-.86ZM249.73,66.63l-.48,.54c.51,.4,1.01,.81,1.53,1.19,0,0,.32-.36,.3-.38-.44-.46-.9-.9-1.36-1.35Z"/><path d="M322.87,273.19c-.25,.88-.22,1.86-.23,2.79,0,.94,.24,1.89,.17,2.82"/><path d="M144.58,298.38c2.36-2.56,5.17-3.67,8.12-4.43,3.99-1.03,7.98-1.98,11.62-4.06,1.41-.81,3.02-1.42,4.62-1.74,2.88-.58,5.23-2.06,7.55-3.7,2.4-1.7,4.96-3.21,7.23-5.06,1.8-1.47,3.71-1.83,5.89-1.74,1.97,.08,3.95,.36,5.81-.92,.97-.67,3.6,.51,4.27,1.72,.16,.3-.16,1.22-.46,1.35-.73,.3-1.59,.37-2.4,.4-2.83,.09-5.65,.16-8.48,.18-1.59,.01-2.96,.44-4.24,1.44-1.95,1.52-4.01,2.9-6.01,4.36-.16,.11-.32,.49-.25,.59,.16,.24,.48,.57,.7,.55,1.29-.11,2.58-.23,3.84-.48,4.49-.89,8.89-1.92,13.22-3.67,4.12-1.67,7.88-4.22,12.33-5.13,1.06-.22,2.15-1.02,2.9-1.86,2.81-3.15,6.17-5.47,10.09-6.92,1.44-.54,2.08-1.46,2.28-2.82,.64-4.29,1.63-8.56,.57-12.94-.08-.35,.24-1.11,.46-1.15,.48-.08,1.15,.05,1.49,.36,.8,.72,1.22,1.62,1.07,2.83-.53,4.44-.87,8.9-1.45,13.33-.23,1.73-.82,3.43-1.41,5.1-.26,.74-.86,1.39-1.4,1.99-.6,.67-1.41,.97-2.2,.35-.86-.67-.52-1.39,.03-2.14,.57-.79,1.74-1.48,.9-2.62-.09-.13-1.64,.58-2.3,1.14-1.95,1.69-3.89,3.41-5.63,5.31-1.65,1.81-3.32,3.27-5.94,3.35-1.02,.03-2.12,.41-3,.93-2.46,1.44-5.2,2.19-7.73,3.38-4.67,2.21-9.62,3.16-14.57,4.19-1.58,.33-3.28,.14-4.92,.17-2.35,.04-4.76-.22-6.6,1.75-.67,.72-1.53,.69-2.24,.12-1.14-.91-2.29-.55-3.32-.02-4.12,2.13-8.5,3.45-13.01,4.45-1.23,.27-2.38,1-3.5,1.63-1.18,.67-2.34,.83-3.93,.43Z"/><path d="M130.29,298.64c-2.89,.57-5.55-.61-7.92-2.09-2.84-1.76-5.89-2.94-8.94-4.18-5.01-2.04-9.95-4.25-15.03-6.09-4.41-1.61-8.97-2.81-13.47-4.18-.79-.24-1.64-.3-2.38-.62-.29-.13-.48-.74-.51-1.15-.01-.2,.47-.62,.7-.6,.92,.07,1.87,.15,2.73,.45,5.13,1.74,10.24,3.53,15.36,5.31,.67,.23,1.32,.5,2,.7,.31,.09,.75,.17,.95,.02,.17-.13,.2-.65,.08-.91-.61-1.4-1.34-2.75-1.91-4.16-.47-1.15-.78-2.37-1.16-3.56,1.55,.12,1.65,1.66,2.42,2.53,1.16,1.32,2.04,2.89,3.2,4.22,.99,1.15,2.15,2.17,3.34,3.12,.54,.43,1.36,.78,1.13-.66-.09-.57,.3-1.22,.47-1.84,.53,.19,1.15,.26,1.58,.58,1.87,1.41,3.81,2.76,5.47,4.39,1.52,1.49,3.09,2.45,5.25,2.49,1.76,.03,3.25,.55,3.53,2.7,.06,.47,.62,1.03,1.09,1.25,1.03,.49,2.49,1.39,3.15,1.02,1.19-.67,.17-2.09-.01-3.2-.51-3.01-.87-6.05-1.44-9.05-.35-1.84-.77-3.7-1.49-5.41-2.29-5.45-3.49-11.22-5.06-16.87-.09-.32-.06-.7,.02-1.03,.04-.18,.31-.43,.47-.43,.3,0,.64,.12,.89,.29,.15,.11,.22,.42,.23,.64,.22,3.98,2.33,7.36,3.46,11.05,1.64,5.39,4.2,10.5,4.96,16.16,.05,.38,.45,.72,.69,1.07,.36-.26,.86-.45,1.07-.81,1.38-2.32,2.68-4.68,4.05-7,.32-.55,.92-1.47,1.21-1.41,1.12,.24,.81,1.3,.6,2-.33,1.1-.76,2.22-1.39,3.17-2.09,3.15-4.21,6.27-4.42,10.23-.07,1.28-.67,1.94-2.01,1.88-.94-.04-1.89,0-2.95,0Z"/><path d="M217.25,248.21c-.77,.54-1.33,1.25-1.8,1.2-1.26-.16-2.49-.61-3.72-1.01-2.23-.72-4.45-1.49-6.68-2.22-1.45-.48-2.77-.23-4.02,.65-3.56,2.51-7.39,4.69-10.64,7.54-5.53,4.87-11.59,8.91-18.17,12.07-5.03,2.42-8.89,6.06-12.62,10.01-2.1,2.22-4.4,4.25-6.65,6.32-.51,.47-1.15,.81-1.77,1.16-.71,.4-1.48,.34-1.77-.44-.15-.39,.13-1.16,.47-1.47,2.23-2.08,4.56-4.05,6.8-6.12,.95-.88,1.71-1.95,2.61-2.87,3.4-3.48,7.32-6.19,11.65-8.47,5.3-2.79,10.32-6.04,15-9.91,4.97-4.12,10.45-7.63,15.8-11.27,.74-.5,2.08-.55,2.99-.29,3.5,1.03,6.95,2.23,10.38,3.47,.7,.25,1.25,.95,2.13,1.66Z"/><path d="M142.53,236.4c.29,.82,.35,1.9,.92,2.4,.84,.74,2.02,1.12,3.11,1.53,.2,.07,.91-.49,.92-.76,.03-1.16-.03-2.34-.23-3.48-.42-2.31-.93-4.61-1.45-6.9-.28-1.23-.11-2.32,.68-3.32,1.34-1.72,2.82-1.83,4.5-.38,2.13,1.84,4.29,3.63,6.43,5.45,.36,.3,.87,.58,.99,.97,.15,.48,.09,1.12-.12,1.57-.1,.21-1.02,.34-1.19,.15-3.08-3.25-5.14,.38-7.57,1.19-.3,.1-.45,1.53-.23,2.19,.7,2.11,.16,3.82-1.11,5.54-.82,1.11-1.68,1.2-2.71,.63-1.33-.73-2.6-1.59-3.91-2.36-.17-.1-.57-.1-.65,.01-.19,.26-.42,.7-.32,.91,.55,1.16,1.27,2.24,1.78,3.42,.19,.44,.06,1.48-.11,1.52-.58,.15-1.26,.06-1.86-.11-.26-.07-.42-.53-.59-.84-1.47-2.67-2.93-5.36-4.41-8.03-.56-1.01-.54-1.56,.7-2.14,.57-.26,.75-1.53,.96-2.38,.56-2.18,1.61-2.7,3.56-1.66,1.91,1.02,2.45,2.72,1.93,4.86Zm4.9-7.2c.23,1.38,.07,2.5,1.42,2.52,1.29,.02,2.77-1,2.69-1.73-.09-.83-1.99-2.69-2.66-2.37-.69,.33-1.11,1.19-1.44,1.58Zm-8.81,5.64c.11,.67,.11,1.15,.27,1.56,.13,.35,.44,.64,.68,.95,.27-.2,.66-.35,.77-.61,.24-.6,.56-1.32,.41-1.87-.14-.49-.86-.81-1.33-1.21l-.79,1.17Z"/><path d="M30.76,185.4c-.14,.39-.41,1.67-1.03,2.74-.6,1.04-1.94,.96-2.61-.05-.71-1.08-1.32-2.22-1.9-3.37-.46-.93-.91-1.57-2.15-1.14-.39,.13-1.25-.2-1.44-.56-1.35-2.54-2.29-5.17-.82-8.02,.7-1.35,1.88-1.57,2.7-.29,.74,1.15,1.1,2.55,1.65,3.83,.36,.85,.66,1.61,1.88,1.78,3.27,.45,3.65,.98,3.71,5.09Zm-2.02-1.65l-.85-.93c-.2,.21-.6,.52-.56,.61,.24,.47,.59,.89,.91,1.32l.5-1.01Z"/><path d="M136.8,256.03c-.56-.47-1.17-.74-1.39-1.2-.4-.84-.56-1.79-.84-2.68-.36-1.14-.63-2.17-2.34-1.99-1.05,.12-1.06-.95-.87-1.86,.5-2.4-.26-3.83-2.42-4.55-.44-.15-.95-.06-1.39-.21-1.15-.37-1.69-1.56-.92-2.5,1.33-1.62,2.85-3.11,4.39-4.53,.61-.56,1.51-.76,2.19,.1,.62,.78,.37,1.75-.6,2.35-.4,.24-.92,.29-1.29,.56-.88,.65-1.14,1.49-.42,2.43,.28,.37,.64,.69,.95,1.04,1.44,1.6,1.43,1.59,3.42,.57,.37-.19,.84-.21,1.26-.32,.12,.55,.52,1.34,.3,1.6-2.42,2.84-.89,5.2,.78,7.57,.59,.84,.81,1.73,.25,2.64-.22,.36-.63,.6-1.06,.98Z"/><path d="M92.32,257.5c.77,.42,1.73,.62,2.12,1.2,1.48,2.25,3.8,3.43,5.87,4.94,1.99,1.45,4.08,2.8,5.91,4.43,1.82,1.62,3.4,3.53,5.04,5.34,.94,1.03,1.95,2.04,2.68,3.21,.91,1.46,1.6,3.06,2.31,4.63,.1,.21-.12,.74-.35,.89-.23,.15-.79,.15-.96-.03-.65-.66-1.34-1.35-1.76-2.16-3.87-7.41-9.91-12.68-16.76-17.19-1.66-1.1-3.26-2.29-4.86-3.49-.23-.17-.45-.71-.35-.89,.19-.33,.63-.53,1.1-.88Z"/><path d="M256.17,155.2c.53-.89,.85-2.03,1.6-2.53,1.13-.75,2.55-.45,3.63,.36,1.5,1.12,2.3,2.64,1.85,4.59-.13,.57-.3,1.13-.51,1.68-.38,.97-1.26,2.02-1.08,2.85,.16,.74,1.57,1.14,2.26,1.85,.43,.44,.91,1.5,.72,1.72-.46,.53-1.39,1.12-1.97,.98-1.46-.34-2.86-.99-4.21-1.67-1.42-.72-1.53-1.47-.6-2.8,.67-.96,1.46-1.84,2.06-2.84,.41-.69,.69-1.51,.8-2.3,.07-.5-.28-1.06-.44-1.59-.46,.21-1.1,.31-1.34,.67-.42,.61-.78,1.35-1.56,.88-.5-.3-.71-1.06-1.2-1.85Z"/><path d="M14.66,213.03c.14-1.73,.46-2.94,.28-4.06-.25-1.59-.85-3.12-1.33-4.66-.05-.17-.42-.4-.53-.35-.27,.13-.63,.37-.68,.62-.21,1.03-.26,2.1-.51,3.12-.09,.34-.63,.57-.96,.84-.28-.34-.66-.64-.8-1.02-.15-.42-.17-.94-.1-1.39,.31-1.97,.64-3.93,1.02-5.89,.19-.99,1.16-1.38,1.81-.63,.99,1.13,1.99,2.35,2.56,3.72,.67,1.6,.86,3.39,1.3,5.09,.08,.29,.32,.7,.55,.75,.26,.06,.67-.16,.88-.38,.4-.42,.67-.97,1.07-1.38,.29-.29,.93-.71,1.05-.62,.42,.33,.94,.85,.95,1.31,.04,1.83-3.49,5.7-5.38,6.08-.75,.15-1.2-.51-1.18-1.15Z"/><path d="M268.58,192.63c-.59,0-1.2,.1-1.76-.02-.88-.18-2.06-.26-2.5-.84-.78-1.02,.53-1.53,1.11-2.17,1.29-1.43,2.29-3.04,2.38-5,.03-.57-.44-1.46-.91-1.66-.44-.19-1.32,.21-1.76,.61-.5,.44-.66,1.24-1.09,1.78-.25,.32-.86,.73-1.1,.62-.47-.2-.93-.68-1.15-1.16-.16-.36-.06-.96,.13-1.35,.3-.63,.72-1.22,1.19-1.74,1.42-1.55,3.12-2.08,4.36-1.42,1.61,.86,2.63,2.93,2.35,4.79-.05,.34-.21,.67-.31,1.01-.31,1.01-1.04,2.17-.77,2.99,.2,.6,1.78,.67,2.61,1.19,.48,.3,.82,1,.96,1.59,.04,.17-.8,.74-1.29,.8-.8,.11-1.64-.05-2.46-.09v.06Z"/><path d="M156.46,220.56c.22-.52,.42-1.71,.84-1.79,1.28-.26,1.39,.97,1.54,1.87,.19,1.16,.21,2.35,.35,3.52,.19,1.59,.88,2.92,2.15,3.92,.76,.6,1.57,.54,2.26-.04,.28-.24,.5-.85,.39-1.17-.18-.53-.69-.94-.98-1.44-.45-.77-1.37-2.06-1.17-2.29,.98-1.09,2.28-1.92,3.49-2.78,.06-.04,.57,.33,.65,.59,.09,.3,.07,.76-.11,1.01-1.04,1.46-.73,2.73,.17,4.18,.84,1.36,.3,2.73-.78,3.85-1.69,1.76-3.59,1.96-5.23,.18-1.16-1.26-2.09-2.85-2.7-4.45-.57-1.51-.58-3.22-.88-5.14Z"/><path d="M292.63,182.85c-.15,.55-.43,1.68-.75,2.79-.3,1.06-.27,1.82,1.14,1.92,1,.07,2.67-.14,2.62,1.11-.06,1.55-1.82,.83-2.84,1.14-1.1,.33-2.11,.95-3.21,1.27-.59,.17-1.53,.23-1.86-.1-.34-.34-.34-1.31-.12-1.86,.52-1.29,1.31-2.47,1.88-3.75,.33-.74,.53-1.57,.6-2.37,.05-.51-.25-1.05-.39-1.58-.41,.16-.82,.3-1.21,.49-.2,.1-.34,.4-.53,.44-.41,.07-1,.18-1.23-.03-.27-.25-.42-.87-.31-1.26,.45-1.69,2.09-2.75,3.73-2.53,1.57,.21,2.45,1.51,2.49,4.32Z"/><path d="M292.43,164.21c.04-.37,.1-.07-.03,.08-.34,.43-.72,1.07-1.14,1.11-.4,.04-1.13-.48-1.26-.89-.39-1.22-.61-2.51-.78-3.79-.15-1.12-.49-1.95-1.66-2.45-.83-.36-1.55-1.06-2.22-1.7-.98-.94-1.03-2.11-.4-3.23,.24-.44,.86-.66,1.31-.98,.22,.36,.5,.7,.66,1.08,.13,.31,.08,.7,.21,1.02,.07,.17,.33,.35,.51,.36,.18,0,.47-.16,.54-.32,.4-.97,.71-1.99,1.14-2.94,.11-.24,.57-.5,.83-.46,.27,.04,.53,.39,.73,.66,.14,.18,.21,.43,.24,.65,.43,3.74,.84,7.48,1.32,11.81Z"/><path d="M266.05,159.6c.06-.76,.07-1.35,.16-1.93,.53-3.35,2.41-4.16,5.15-2.21,1.93,1.37,2.87,4.28,2.19,6.59-.34,1.16-1.18,1.73-2.25,1.97-3.32,.76-5.25-.95-5.24-4.42Zm4.06,1.8c.41-.96,.95-1.62,.85-2.13-.14-.68-.76-1.29-1.26-1.86-.1-.12-.83,.05-.86,.18-.14,.65-.33,1.39-.15,1.99,.17,.57,.76,1.01,1.42,1.82Z"/><path d="M22.67,198.14c-.44,.93-1.17,2.64-2.04,4.27-.39,.73-1.15,.65-1.86,.27-2.88-1.51-4.66-6.68-3.3-9.62,.68-1.47,1.9-2.02,3.49-1.58,2.31,.63,3.78,2.9,3.71,6.67Zm-5.79-1.88c.49,.89,1,2.08,1.75,3.07,.52,.68,1.29,.42,1.71-.31,.88-1.52,.31-4.07-1.09-5.06-.77-.54-1.67-.29-1.97,.58-.15,.44-.21,.9-.4,1.71Z"/><path d="M283.87,158.54c-.07,1.54-.56,3.15-2.41,4-1.41,.65-2.77,.48-3.94-.46-.47-.38-.92-1.13-.91-1.7,.03-1.61,.31-3.21,.48-4.81,.19-1.72,.83-2.23,2.55-2.01,2.67,.35,4.24,2.08,4.23,4.98Zm-3.2,1.25c.32-.39,.88-.81,1.07-1.37,.37-1.03-.12-1.86-1.17-2.07-.36-.07-1.11,.39-1.24,.76-.38,1.07,.26,2.43,1.33,2.68Z"/><path d="M77.85,60.61c-.91,.7-1.9,1.1-2.16,1.78-.2,.52,.53,1.39,.84,2.11-.38,.15-.88,.54-1.11,.42-.49-.26-.9-.74-1.22-1.2-1.46-2.09-3.33-3.52-5.81-4.3-1.78-.56-3.46-1.45-5.11-2.34-.35-.18-.37-.97-.54-1.48,.42-.13,.92-.47,1.25-.35,2.51,.89,4.96,1.93,7.47,2.8,1.64,.57,3.36,.88,5.02,1.4,.45,.14,.79,.65,1.36,1.16Z"/><path d="M279.46,186.12c-.22,2.04-.66,3.46-2.15,4.3-1.59,.89-2.77,.63-3.7-1.05-.6-1.09-1.16-2.29-1.35-3.51-.31-1.91,.28-2.78,1.76-3.36,1.52-.61,3.52-.16,4.4,1.18,.55,.85,.82,1.88,1.05,2.44Zm-4.74-.58c.04,1.4,.84,2.54,1.5,2.26,.47-.19,.9-.96,.97-1.52,.11-.89-.38-1.64-1.41-1.5-.43,.06-.81,.57-1.06,.76Z"/><path d="M67.46,106.12c.05,1.29-.75,2.02-1.88,1.83-2.97-.49-5.51-1.89-7.91-3.68-1.89-1.41-3.2-3.12-3.68-5.41-.15-.71,.01-1.48,.03-2.23,.45,.48,1.01,.89,1.32,1.44,1.26,2.19,2.94,3.92,5.08,5.28,1.81,1.15,3.52,2.36,5.83,2.18,.43-.03,.89,.43,1.2,.59Z"/><path d="M173.51,223.67c-.31,.33-.62,.88-1.08,1.08-.29,.13-.87-.18-1.2-.44-.35-.28-.61-.7-.83-1.11-1.64-3.09-3.27-6.19-4.85-9.31-.16-.31-.05-.98,.19-1.19,.27-.23,.99-.33,1.24-.14,.72,.55,1.47,1.19,1.92,1.96,1.53,2.6,2.94,5.27,4.37,7.93,.16,.29,.13,.67,.23,1.22Z"/><path d="M65.61,103.37c-2.72-.28-5.36-2.27-7.66-4.58-.7-.7-.36-2.43-.45-3.7-.01-.14,.27-.4,.44-.42,.17-.02,.4,.16,.55,.32,1.41,1.53,2.7,3.19,4.23,4.59,1.4,1.28,3.1,2.08,5.14,1.6,.7-.17,1.61-.09,1.56,.82-.03,.48-.78,1.07-1.33,1.33-.48,.22-1.15,.05-2.47,.05Z"/><path d="M27.22,194.42c-.54,.32-1.03,.78-1.59,.9-.33,.07-.94-.33-1.13-.68-1.43-2.55-3.81-4.09-5.99-5.86-.77-.63-1.26-1.63-1.79-2.52-.13-.21,.01-.73,.21-.94,.16-.16,.67-.2,.88-.06,3.41,2.14,6.31,4.86,8.83,7.98,.21,.26,.3,.62,.57,1.19Z"/><path d="M284.88,187.65c0,.71,.1,1.02-.02,1.17-.39,.51-.85,.96-1.28,1.43-.33-.41-.94-.82-.96-1.24-.08-3.01-1.06-5.77-2.14-8.52-.09-.22-.25-.49-.18-.66,.14-.4,.33-.95,.64-1.07,.32-.12,1.05,.06,1.19,.33,.61,1.13,1.19,2.31,1.56,3.54,.53,1.8,.87,3.66,1.18,5.03Z"/><path d="M274.92,171.99c-.4-.27-1.2-.53-1.39-1.02-.37-.96,.35-1.49,1.26-1.7,1.03-.23,2.07-.6,3.1-.58,.53,.01,1.29,.64,1.53,1.17,.38,.86-.41,1.2-1.12,1.38-1.03,.25-2.06,.46-3.37,.75Z"/><path d="M47.21,117.53c-.3,.23-.53,.54-.82,.6-1.13,.26-2.22,0-2.7-1.07-.29-.65-.06-1.53-.06-2.31,.58,.24,1.18,.44,1.72,.74,.5,.28,.98,.65,1.39,1.06,.22,.22,.29,.6,.46,.98Z"/><path d="M174.4,163.66c2.46,.08,4.92,.09,7.37,.28,.78,.06,1.54,.55,2.28,.9,1.07,.5,2.09,1.11,3.18,1.55,2.78,1.11,3.64,.62,5.8-1.54,1.97-1.97,4.39-3.49,6.59-5.23,2.57-2.03,5.13-4.08,7.7-6.13,2.38-1.91,4.7-3.91,7.16-5.72,1.98-1.46,4.11-2.74,6.23-4.01,.35-.21,.97,.02,1.47,.04-.18,.49-.22,1.2-.57,1.44-1.36,.92-2.81,1.72-4.25,2.51-2.4,1.31-4.45,3.03-6.28,5.04-4.06,4.47-8.64,8.34-13.79,11.5-1.11,.68-2.2,1.29-2.62,2.71-.15,.53-.91,1-1.49,1.27-2.63,1.2-5.27,1.28-7.75-.39-1.84-1.24-3.77-1.73-6.01-1.44-1.25,.16-2.59-.12-3.85-.39-1.51-.32-2.84,.02-4.01,.87-.46,.33-.96,1.19-.83,1.63,.43,1.45-.02,2-1.45,2-.35,0-.71,.08-1.04,.19-.99,.33-1.9,.31-2.48-.67-.66-1.12,.31-1.74,.9-2.4,3.06-3.4,4.59-4.2,7.76-4.01Z"/><path d="M181.87,179.88c-.08,.22-.12,.46-.25,.66-.78,1.21-.09,1.7,.98,1.98,3.08,.79,6.17,1.56,9.25,2.34,.91,.23,1.93,.31,2.7,.79,.6,.37,1.05,1.21,1.25,1.92,.26,.93-.6,1.61-1.49,1.34-.22-.07-.46-.13-.65-.27-3.68-2.69-8.08-3.03-12.34-3.84-.77-.15-1.87-.19-2.21-.69-.96-1.44-2.15-1.23-3.39-.83-1.68,.54-3.35,1.11-4.95,1.84-2.83,1.29-5.14,.93-7.28-1.47-1.46-1.63-2.76-3.54-5.07-4.25-.7-.22-1.1-1.11-.47-1.72,.39-.37,1.35-.59,1.81-.36,1.03,.51,1.96,1.28,2.84,2.04,.8,.69,1.44,1.56,2.21,2.29,1.56,1.49,3.18,2.05,5.44,1.22,3.31-1.22,6.73-2.09,9.68-4.17,.89-.63,1.97,.12,1.94,1.18Z"/><path d="M150.6,165.77c-.13,1.32-.17,1.91-.24,2.49-.65,5.83-1.33,11.66-1.95,17.5-.14,1.28,0,2.59-.17,3.86-.16,1.14-.47,2.29-.92,3.35-.16,.38-1.01,.77-1.4,.65-.44-.12-.83-.77-1.02-1.27-.14-.39,.06-.91,.13-1.38,.49-3.6,.99-7.2,1.48-10.8,.57-4.19,1.1-8.39,1.71-12.57,.24-1.64,.53-3.24-.2-4.85-.14-.3,.14-.78,.22-1.18,.4,.19,1.03,.29,1.15,.6,.55,1.37,.96,2.8,1.22,3.58Z"/><path d="M139.73,119.72c4.34,6.86,8.1,14.03,11.29,21.48,1.24,2.91,2.21,5.93,3.23,8.93,.29,.84,.31,1.77,0,2.82-.47-.99-1.11-1.94-1.38-2.99-1.85-7.26-6.12-13.39-9.3-20.02-1.96-4.07-4.45-7.69-7.62-10.9-.71-.72-1.2-1.71-1.55-2.67-.15-.42,.3-1.07,.47-1.61,.42,.26,.92,.45,1.25,.81,1.26,1.38,2.47,2.82,3.69,4.23l-.07-.08Z"/><path d="M217.55,170.24c0,2.63-.73,4.21-2.75,5.04-1.4,.57-2.84,1.09-4.16,1.82-2.98,1.66-5.68,3.69-7.93,6.31-.98,1.14-2.19,2.08-3.37,3.02-.24,.19-.98,.09-1.2-.14-.23-.26-.17-.83-.14-1.26,.01-.19,.24-.39,.4-.56,4.01-4.12,7.97-8.31,13.43-10.56,1.72-.71,3.1-1.56,3.27-3.68,.04-.48,.87-.89,1.33-1.33,.47,.57,.94,1.14,1.11,1.35Z"/><path d="M173.77,159.41c-4.44-.49-8.89-.97-13.33-1.46-.35-.04-.79-.03-1.01-.24-.39-.37-.89-.87-.9-1.33-.02-.81,.65-1.21,1.46-1.13,2.11,.21,4.23,.33,6.3,.75,2.77,.55,5.49,1.32,8.22,2.05,.39,.11,.69,.55,1.04,.83-.48,.25-.95,.5-1.44,.74-.09,.04-.23,0-.35-.01l.02-.19Z"/><path d="M224.02,133.33c.78-2.62,1.46-5.36,2.43-7.99,1.5-4.06,3.19-8.04,4.83-12.05,.12-.29,.46-.49,.7-.73,.09,.36,.34,.78,.24,1.07-1.47,4.07-3.08,8.09-4.47,12.18-.9,2.64-1.5,5.38-2.26,8.06-.11,.4-.36,.76-.54,1.14-.3-.42-.6-.83-.89-1.25-.06-.08-.02-.23-.03-.42Z"/><path d="M187.56,127.38c-.46,.5-.79,1.09-1.02,1.06-1.97-.26-3.64,.35-5.23,1.43-.63,.42-1.44,.46-1.73-.37-.15-.41,.09-1.19,.43-1.51,1.67-1.6,3.66-2.49,6.02-1.94,.53,.13,.94,.79,1.54,1.33Z"/><path d="M129.56,90.49c.22-1.7,2.56-4.52,4.21-4.73,.54-.07,1.22,.04,1.66,.33,2.33,1.53,2.15,6.19-.39,7.27-1.36,.57-1.52,1.19-1.13,2.35,.26,.77,.62,1.55,.68,2.34,.03,.45-.34,1.18-.73,1.35-.38,.17-1.04-.14-1.5-.38-.28-.14-.52-.51-.62-.83-.75-2.56-1.46-5.14-2.18-7.71Zm5.69-.39c-.51-.63-.83-1.04-1.16-1.45-.43,.46-1.02,.86-1.21,1.4-.1,.29,.48,.83,.75,1.25,.48-.35,.96-.71,1.62-1.19Z"/><path d="M145.41,98.75c-1.38,.09-2.62-.32-3.41-1.45-1.14-1.61-2.2-3.29-3.17-5.02-.54-.97,.76-5.8,1.61-6.56,.78-.7,1.64-.86,2.58-.35,.91,.5,1.47,1.29,1.2,2.3-.29,1.12-.79,2.19-1.24,3.26-1.14,2.7,.48,5.23,3.41,5.32,.62,.02,1.58-.58,1.72,.47,.14,1.04-.62,1.71-1.65,1.93-.34,.07-.7,.07-1.05,.1Z"/><path d="M115.77,95.8c-.28,.23-.65,.39-.72,.64-.52,1.8-.9,3.65-1.49,5.43-.18,.54-.84,1.26-1.31,1.28-.47,.02-1.2-.64-1.41-1.17-.57-1.41-.97-2.89-1.34-4.37-.09-.38,.13-1.19,.31-1.22,.45-.08,1.13,.01,1.42,.32,.92,.97,1.25,.7,1.6-.44,.38-1.22,.9-2.42,1.5-3.54,.45-.85,1.29-1.1,2.06-.38,1.87,1.76,2.71,4.09,3.25,6.51,.08,.36-.49,1.14-.9,1.26-.36,.1-1.11-.35-1.32-.75-.44-.81-.6-1.77-.94-2.65-.12-.31-.41-.54-.7-.92Z"/><path d="M202.2,89.98c-.08,.21-.13,.58-.25,.6-.28,.05-.73,.04-.86-.14-.89-1.26-1.75-2.49-3.5-2.65-1.73-.15-3.19,.47-4.66,1.29-3.58,2-7.19,3.95-10.84,5.83-.96,.5-2.04,1.5-3.19,.49-.63-.56,.24-1.61,2.25-2.56,4.13-1.95,8.27-3.88,12.44-5.75,1.17-.52,2.42-.96,3.68-1.14,2.3-.32,4.69,1.72,4.93,4.02Z"/><path d="M125.63,67.25c-1.29-1.19-2.67-2.29-3.84-3.59-4.84-5.35-10.2-10.08-16.28-14-1.69-1.09-3.31-2.24-5.44-2.3-.32,0-.62-.57-.93-.88,.38-.37,.83-1.1,1.13-1.04,1.24,.23,2.59,.47,3.62,1.14,2.86,1.85,5.84,3.63,8.3,5.94,4.28,4.01,8.24,8.38,12.27,12.66,.53,.56,.74,1.42,1.1,2.14l.07-.07Z"/><path d="M120.89,94.81c-.01-1.99,.58-3.47,2.1-4.45,1.19-.77,2.27-.42,2.88,.89,1.06,2.31-.04,6.23-2.15,7.63-.89,.59-1.91,.26-2.21-.83-.31-1.13-.45-2.31-.62-3.24Z"/><path d="M175.98,62.08c4.07,.51,8.14,1.01,12.21,1.54,.56,.07,1.26,.17,1.61,.53,.3,.31,.34,1.06,.2,1.54-.08,.27-.88,.64-1.11,.51-2.96-1.64-6.22-.83-9.32-1.22-1.63-.21-3.27-.31-4.88-.62-.38-.07-.94-.81-.89-1.17,.06-.4,.67-.8,1.13-1.04,.26-.14,.68,.04,1.03,.07l.02-.14Z"/><path d="M95.02,78.56c1.55,.37,3.05-.26,4.38-1.34,1.73-1.4,3.43-2.85,5.1-4.33,1.25-1.1,2.46-2.26,4.28-2.16,.33,.02,.63,.51,.94,.79-.25,.19-.52,.56-.75,.54-1.76-.2-2.87,.84-3.96,1.95-1.89,1.92-3.77,3.87-5.66,5.79-1.68,1.71-4.31,2.06-6.12,.73-.36-.27-.56-.97-.54-1.45,.01-.25,.66-.55,1.06-.67,.31-.09,.69,.07,1.26,.14Z"/><path d="M185.98,68.21c1.59,.11,3.27,.23,4.23,1.84,.22,.38-.06,1.06-.11,1.6-.4-.05-.92,.04-1.19-.18-1.7-1.4-3.58-.66-5.4-.52-1.27,.1-2.54,.32-3.82,.37-.55,.02-1.15-.2-1.67-.44-.27-.12-.63-.59-.56-.78,.13-.37,.47-.86,.8-.93,.91-.2,1.86-.17,2.78-.29,1.62-.2,3.24-.44,4.93-.68Z"/><path d="M176.4,76.38c3.49,.04,6.39,.07,9.29,.1,1.73,.02,3.28,.47,4.16,2.06,.21,.38-.11,1.07-.18,1.61-.41-.1-.94-.07-1.2-.32-1.55-1.52-3.46-1.2-5.31-1.09-2.39,.14-4.68-.08-6.64-1.63-.15-.12-.31-.46-.24-.58,.14-.25,.42-.42,.13-.15Z"/><path d="M154.23,92.01c-.17,.07-.59,.39-1.03,.42-.39,.03-.86-.17-1.19-.41-.26-.19-.4-.57-.53-.9-1.07-2.85-2.17-5.7-3.15-8.58-.14-.41,.29-1.02,.46-1.53,.5,.2,1.28,.27,1.44,.62,1.03,2.23,1.95,4.5,2.86,6.79,.38,.97,.64,1.99,1.14,3.59Z"/><path d="M115.83,88.76c-.19-.12-.46-.2-.54-.37-.08-.17-.03-.54,.1-.62,.88-.58,1.73-1.31,2.7-1.6,4.58-1.36,8.12-4.19,11.29-7.59,.24-.26,.46-.59,.76-.72,.36-.16,.79-.14,1.2-.2-.15,.4-.18,.91-.45,1.19-1.3,1.37-2.58,2.76-4,3.99-3.05,2.65-6.5,4.62-10.36,5.86-.22,.07-.46,.04-.7,.06Z"/><path d="M157.21,100.19c-1.44,.02-2.32-.96-2.33-2.1,0-.96,.85-2.03,1.58-2,.82,.04,1.66,1.13,1.56,2.39-.05,.65-.58,1.27-.81,1.71Z"/><path d="M125.56,67.32c.46,.25,.97,.44,1.36,.77,.13,.11-.05,.57-.09,.87-.2-.08-.5-.09-.58-.24-.25-.47-.42-.98-.62-1.47l-.07,.07Z"/><path d="M267.35,94.83c-.49,.6-.91,1.54-1.62,1.92-1.65,.89-3.41,1.58-5.18,2.19-.54,.18-1.51,.03-1.83-.35-.34-.4-.39-1.43-.1-1.88,.81-1.27,1.86-2.4,2.83-3.58,.74-.9,1.71-1.74,1.32-3.08-.15-.51-.52-1.01-.93-1.35-.1-.09-.78,.38-1.09,.69-.91,.91-1.7,1.95-2.67,2.79-.33,.28-1.18,.31-1.56,.08-.74-.46-.55-1.23-.05-1.82,1.12-1.35,2.25-2.71,3.45-3.99,1.22-1.3,2.88-1.23,3.9,.28,.7,1.04,1.16,2.3,1.49,3.53,.32,1.21,.05,2.61,1.48,3.34,.23,.12,.29,.59,.57,1.24Z"/><path d="M273.44,82.15c2.25,.09,3.64,.87,4.56,2.34,1.84,2.97-.75,8.15-4.22,8.35-.75,.04-1.66-.22-2.27-.66-2.51-1.83-2.58-7.12-.13-9.04,.69-.54,1.62-.79,2.06-.99Zm1.26,2.77c-1.63,.12-2.52,1.15-2.54,2.46-.02,.98,1.12,2.69,1.85,2.72,.21,0,.56-.1,.62-.25,.47-1.15,1.07-2.3,1.23-3.5,.06-.48-.87-1.09-1.17-1.43Z"/><path d="M293.84,83.04c-.28,.71-.6,1.99-1.27,3.04-.36,.56-1.32,.97-2.03,.99-.49,.01-1.16-.67-1.44-1.2-.14-.27,.31-.97,.64-1.35,.36-.42,1-.61,1.32-1.04,.51-.69,.11-1.69-.73-1.96-1.1-.35-2.26-.55-3.34-.98-1-.39-1.35-1.23-.96-2.29,.16-.44,.25-.92,.49-1.31,.51-.83,.7-2.27,2.12-1.84,1.15,.35,.89,1.47,.75,2.4-.16,1.01,.57,1.06,1.27,1.24,2.48,.65,3.24,1.57,3.18,4.29Z"/><path d="M280.74,75.6c.56,.41,1.11,.6,1.25,.95,1.46,3.68,2.9,7.37,4.22,11.1,.18,.5-.26,1.35-.64,1.88-.5,.71-1.71,.46-1.99-.37-.26-.77-.28-1.62-.55-2.38-1-2.86-2.07-5.69-3.09-8.54-.15-.43-.36-.95-.24-1.33,.15-.46,.62-.81,1.04-1.3Z"/><path d="M223.14,84.99c-.61-.21-1.48-.32-2.11-.78-.75-.54-.75-1.44-.14-2.18,.41-.5,.81-1.15,1.69-.53,1.87,1.34,3.59,.23,5.24-.51,2.49-1.12,4.49-2.94,6.37-4.9,.23-.24,.78-.16,1.18-.23-.02,.33,.08,.76-.09,.96-2.94,3.39-6.19,6.39-10.55,7.9-.44,.15-.92,.16-1.59,.27Z"/><path d="M239.49,87.06c-.24,.16-.51,.37-.8,.52-1.05,.53-2.09,1.06-3.16,1.55-4.63,2.14-7.78,6.02-11.3,9.48-.7,.69-1.65,1.12-2.48,1.66-.72-1.52,.75-2.09,1.42-2.81,1.94-2.05,4.04-3.95,6.16-5.81,2.69-2.35,5.91-3.83,9.18-5.17,.25-.1,.64,.1,.96,.19,.03,0,0,.19,0,.39Z"/><path d="M113.42,25.06c-1.38-1.25-2.7-2.59-4.16-3.73-3.71-2.88-7.52-5.64-11.23-8.53-1.37-1.07-2.62-2.31-3.84-3.54-.18-.18-.03-.85,.16-1.18,.08-.15,.64-.05,.98-.03,.1,0,.21,.1,.3,.17,5.78,4.8,11.99,9.08,17.07,14.68,.47,.51,.81,1.14,1.21,1.71l-.49,.44Z"/><path d="M133.16,20.89l.59-.82c.18,.13,.42,.22,.53,.4,1.85,2.97,3.73,5.93,5.5,8.96,.28,.49,.36,1.48,.06,1.85-.63,.77-1.3,.06-1.66-.5-1.46-2.26-2.92-4.52-4.22-6.87-.49-.88-.54-2-.79-3.01Z"/><path d="M38.97,149.84c1.04,4.16,4.77,5.94,7.6,8.51,.22,.2,.87,.13,1.22-.03,1.41-.62,1.63,.45,1.87,1.31,.35,1.29-.63,2.31-1.74,1.73-4.18-2.16-7.63-5.08-9.14-9.75-.16-.49,.15-1.14,.24-1.71l-.05-.07Z"/><path d="M202.63,35.58c.48,.2,.97,.29,1.31,.57,1.45,1.17,3.19,1.34,4.94,1.64,1.71,.3,3.38,.9,5.01,1.52,.35,.13,.44,.93,.65,1.42-.41,0-.83,.04-1.23-.03-1.61-.25-3.2-.61-4.82-.8-2.01-.24-3.98-.54-5.56-1.94-.4-.35-.66-.93-.83-1.46-.07-.21,.3-.55,.53-.93Z"/><path d="M234.81,30.34c-.86,.12-2.13,.31-3.4,.45-.92,.1-1.87,.24-2.78,.15-.48-.05-.92-.55-1.38-.85,.4-.35,.76-.91,1.21-1.02,1.82-.42,3.67-.71,5.52-1,.57-.09,1.18-.13,1.74-.03,.9,.17,2.11,.32,2.05,1.49-.08,1.4-1.33,.87-2.18,.88-.12,0-.23-.02-.77-.07Z"/><path d="M216.48,33.35c1.71-.21,3.52,.1,5.02,1.43,.26,.23,.26,.81,.26,1.23,0,.07-.69,.32-.88,.2-2.1-1.31-4.35-.5-6.54-.58-.84-.03-2.24,.38-2.34-.85-.09-1.16,1.24-1.13,2.14-1.23,.7-.08,1.4-.12,2.34-.19Z"/><path d="M101.46,134.36c-.4,1.8-.73,3.63-1.27,5.39-.16,.51-.93,1.14-1.43,1.16-.55,.02-1.25-.51-1.66-1-.87-1.04-.53-2.82-2.08-3.48-.72,1.02-1.44,2.04-2.17,3.06-.14,.19-.29,.38-.48,.52-1.12,.82-2.21,1.95-3.76,1.36-1.48-.56-1.27-1.99-1.49-3.28-.54-3.11-1.29-6.19-1.97-9.27-.13-.57-.43-1.12-.46-1.69-.01-.39,.22-.97,.53-1.15,.32-.18,1.07-.16,1.27,.08,.57,.69,1.12,1.48,1.37,2.32,.74,2.47,1.32,4.99,1.99,7.48,.08,.31,.36,.57,.55,.86,.34-.25,.87-.44,.99-.76,.57-1.66,1.06-3.35,1.53-5.03,.25-.9,.29-1.97,1.6-1.92,1.22,.05,1.89,.71,2.08,1.97,.1,.68,.45,1.33,.74,1.97,.06,.14,.4,.27,.54,.22,.16-.06,.36-.34,.35-.51-.11-1.28-.32-2.56-.37-3.85-.01-.35,.4-.92,.72-1.01,.33-.09,.91,.19,1.16,.49,1.43,1.76,1.69,3.83,1.72,6.08Z"/><path d="M112.84,130.31c.88,2.67,1.05,5.23-.7,7.71-1.4,1.98-3.29,2.97-5.59,3.31-.36,.05-1.13-.34-1.12-.48,.03-.49,.2-1.16,.56-1.39,.87-.58,1.95-.85,2.82-1.44,1.54-1.03,2.46-2.36,2.24-4.43-.23-2.08-1.12-3.55-2.95-4.47-1.42-.71-2.25-.18-2.28,1.39-.04,1.96,.57,3.66,1.83,5.2,.31,.38,.05,1.23,.05,1.86-.64-.12-1.45-.04-1.9-.4-2.22-1.8-2.7-4.29-2.47-7,.36-4.2,2.1-5.1,5.76-2.84,1.38,.85,2.55,2.04,3.82,3.07l-.08-.09Z"/><path d="M265.03,56.7c.77,.28,1.59,.46,2.29,.86,4.68,2.63,9.34,5.3,14.01,7.96,.29,.17,.56,.39,.71,.78-2.52-.51-4.8-1.54-6.97-2.78-2.64-1.51-5.23-3.12-7.78-4.78-.83-.54-1.47-1.4-2.19-2.12l-.07,.08Z"/><path d="M62.1,239.29c-.71,.24-1.13,.53-1.49,.47-.42-.07-.88-.37-1.17-.7-3.67-4.08-8.41-6.75-12.91-9.73-.52-.35-1.3-1.24-1.19-1.44,.51-.87,1.2-.26,1.75,.13,4.64,3.23,9.27,6.47,13.87,9.74,.41,.29,.64,.85,1.13,1.54Z"/><path d="M56.97,226.48c-2.06,.23-3.56-.84-4.93-2.15-.19-.18-.18-.56-.27-.85,.21-.02,.48-.13,.61-.04,1.52,1.02,3.03,2.06,4.53,3.1l.05-.07Z"/><path d="M54.83,197.65c-.06,.34-.05,.73-.21,1.02-.25,.47-.61,.88-.93,1.32-.28-.47-.56-.93-.82-1.41-.05-.09-.05-.24-.02-.35,.17-.6,.35-1.2,.52-1.8,.5,.44,1,.88,1.51,1.31l-.06-.1Z"/></g></g></g></svg>