<?xml version="1.0" encoding="UTF-8"?><svg xmlns="http://www.w3.org/2000/svg" viewBox="0 0 353.1 191.92"><g id="a"/><g id="b"><g id="c"><g><path d="M189.55,92.05c.69,.52,1.37,1.06,2.09,1.54,.29,.2,.68,.26,1.21,.45l-1.08-2.18,.27-.17c.44,.68,.88,1.36,1.33,2.04l.36-.17c-.44-.98-.87-1.95-1.31-2.93l.27-.13c.48,1.01,.96,2.02,1.44,3.03,.33,.69,.71,1.28,1.74,.83-.36-.79-.71-1.59-1.07-2.39l.39-.2c.26,.49,.55,.96,.76,1.46,.49,1.15,.97,2.3,2.23,2.81,.41,.17,.9,.15,1.45,.24-.78-1.32-1.43-2.42-2.08-3.51l.45-.27c.16,.22,.35,.43,.47,.67,.23,.46,.41,.95,.65,1.41,.5,.98,1.12,1.26,2.2,.65,.72-.41,1.65-.45,2.47-.68,.21-.06,.4-.19,.68-.33-.14-.19-.21-.39-.31-.41-2.5-.45-4.06-2.44-6.09-3.67-.13-.08-.24-.23-.31-.36-.59-1.19-1.41-1.86-2.86-1.47-.34,.09-.86-.13-1.18-.37-1.08-.81-2.1-1.69-3.1-2.5l1.01-.12c-.35-.86-.88-.93-1.61-.62-.71,.31-.99,.75-.64,1.51,.26,.57,.48,1.16,.72,1.75l-.38,.16c-.3-.78-.6-1.56-.89-2.34-.28-.77,0-1.85-1.16-2.12-.29-.07-.7-.14-.89,0-.67,.52-1.01,.2-1.28-.4-.52-1.12-1.06-2.23-1.52-3.36-.13-.32-.05-.74-.07-1.11l.29-.08c.5,1.26,1.01,2.51,1.51,3.77l.45-.12-.07-1.43,.21-.21c.32,.37,.61,.76,.97,1.09,.45,.41,1.04,.7,1.43,1.16,.73,.86,1.62,.75,2.59,.75,.43,0,.82,.69,1.28,.98,.61,.38,1.25,.89,1.92,.97,1.64,.19,3.07,.68,4.38,1.73,2.1,1.68,4.35,3.08,7.18,3.17,1.25,.04,2.32-.03,2.84-1.48,.23-.65,.8-1.19,1.26-1.75,.43-.53,.49-.96,.08-1.58-1.5-2.25-1.37-4.87-1.38-7.39,0-1.66,2.47-3.17,4.1-2.77,.78,.19,1.55,.68,2.14-.47,.18-.34,1-.38,1.54-.49,.57-.11,1.16-.23,1.72-.17,.33,.03,.62,.41,.98,.66,1.38-.74,3.65,.26,5.28,2.42,1.22,1.61,1.4,2.98,.42,4-.19-.55-.46-1.05-.53-1.57-.24-1.73-1.26-2.91-2.7-3.68-.51-.27-1.3-.19-1.91-.06-.68,.15-1.3,.54-2.04,1.13l1.65,.58c-.95,1.12-1.52,1.15-2.66,.03-1.49-1.47-3.8-1.26-5,.49-.15,.21-.1,.61-.05,.9,.2,1.16,.31,2.36,.71,3.45,.45,1.23,.68,2.54,2.35,3.13,.98,.35,1.57,1.8,2.18,2.91-2.11-.11-2.86-2.32-4.68-2.93-.46,1.08,.46,1.16,.92,1.52,.52,.41,1.05,.81,1.58,1.22-.89,.73-1.66,1.36-2.52,2.06l.27,.88-.97-.26,1.1,2.53-.19,.13-.55-.82c-.17,.19-.33,.36-.25,.28-1.02-.25-1.83-.54-2.67-.63-.73-.08-.95,.35-.72,1.09,.35,1.15,.61,2.33,.89,3.51,.03,.13-.08,.28-.19,.64-1.04-.85-2.17-1.48-2.85-2.44-.51-.72-1.08-.44-1.6-.6-.16-.05-.48,.42-.73,.64-.46,.42-.92,.84-1.43,1.31,.13,0,.24,.03,.32,0,2.18-.91,4.22,.15,4.63,2.47,.05,.27-.18,.58-.28,.87-.2-.2-.49-.36-.58-.59-.92-2.4-2.42-2.72-4.38-.95-.18,.17-.7,.17-.93,.03-.93-.57-2.02-.36-2.36,.67-.82,2.53-2.53,4.02-5,4.86-.74,.25-1.37,.91-1.95,1.49-.18,.17-.03,.68-.03,1.14-.28,.05-.61,.22-.86,.14-.84-.26-1.3,.19-1.43,.85-.3,1.6-1,2.9-2.24,4-.97,.86-1.77,1.92-2.65,2.89-.08,.09-.18,.16-.28,.23-1.91,1.39-2.24,2.39-1.71,4.66,.12,.52-.06,1.1-.04,1.66,.07,2.78,1.29,5.13,2.84,7.35,.1,.15,.32,.27,.5,.29,2.82,.39,4.65,2.26,6.4,4.25,.47,.53,1.02,1.02,1.63,1.39,.3,.18,1,.21,1.19,0,1.27-1.37,3.03-2.33,3.67-4.23,.14-.42,.31-.86,.3-1.29-.03-.9-.17-1.8-.27-2.76l1.62-.18c.15,.29,.31,.6,.63,1.23,.79-.65,1.72-1.11,2.15-1.85,.53-.91,.42-2.21,1-3.06,.41-.61,1.51-.76,2.3-1.11l-.73-.81c.65,.13,1.3,.23,1.93,.42,.21,.06,.47,.37,.48,.57,.12,2.34,.19,4.68,.27,7.02,.06,1.59,.12,3.18,.16,4.78,0,.34,.03,.73-.12,1.01-.89,1.7-.86,1.93,.63,3.25,1.05-.33,1.56-1.19,1.96-2.14,.67-1.58,.76-3.22,.58-4.92-.05-.42,.25-.89,.38-1.33,.22,.41,.57,.79,.64,1.22,.37,2.26-.06,4.43-.86,6.54-.14,.36-.45,.64-.65,.98-.27,.46-.51,.94-.88,1.62-1.04-.43-2.38-.91-3.65-1.53-2.13-1.05-1.7-3.03-1.5-4.81,.29-2.43,.8-4.83,1.13-7.25,.1-.72-.07-1.48-.12-2.23l-.35-.06c-.24,.79-.59,1.56-.71,2.37-.17,1.17-.81,1.92-1.85,2.28-1.15,.4-2.01,.94-2.48,2.17-.6,1.58-1.46,3.06-2.13,4.61-.92,2.13-4.37,2.47-6.21,.65-1.07-1.06-2.24-2.02-3.44-2.93-.71-.54-1.02,.02-1.08,.66-.15,1.55-.25,3.1-.38,4.65-.06,.71-.13,1.42-.18,1.99,.45,.37,.91,.59,1.1,.96,.83,1.55,2.32,1.76,3.78,1.81,2.3,.08,4.61-.17,6.9-.02,2.06,.13,4.09-.53,6.19,.17,1.18,.39,2.63-.05,3.96-.05,.65,0,1.29,.19,1.95,.23,2.38,.15,4.77,.36,7.15,.39,.95,0,1.9-.48,2.87-.61,2.16-.3,4.33-.51,6.5-.77,1.03-.12,2.05-.35,3.07-.4,5.92-.28,11.85-.53,17.77-.79,1.97-.09,3.93-.18,5.9-.27l.11,.39c-.55,.17-1.08,.43-1.64,.5-1.73,.21-3.47,.4-5.21,.51-4.28,.27-8.57,.47-12.86,.76-3.2,.22-6.39,.48-9.57,.83-1.03,.11-2.03,.55-3.38,.94,2.3,1.26,4.91,.05,6.86,1.74-3.54-.18-6.89-.35-10.23-.53v.32c1.06,.15,2.13,.3,3.19,.46,.23,.03,.59,.09,.64,.22,.49,1.54,1.67,.74,2.95,.98-.54,.32-.89,.69-1.25,.72-1.96,.15-3.94,.1-5.89,.36-2.03,.27-4.02,.82-6.32,1.31,1.26,.87,2.21,1.97,3.32,2.16,1.02,.18,1.59,.95,2.47,1.11,.98,.18,2.01,.13,2.99,.33,.39,.08,.7,.56,1.05,.86l-.27,.5c-2.18-.51-4.36-.99-6.53-1.54-.3-.08-.52-.46-.78-.7-1.81-1.61-3.5-1.29-4.86,.93-.11-.63-.46-1.36-.26-1.87,.21-.52,.96-.83,1.53-1.28-.77-.36-1.66-.77-2.55-1.19-.25-.12-.54-.2-.74-.38-1.93-1.74-4.27-.91-6.45-1.04-1.25-.08-2.51-.03-3.75,.07-.95,.08-1.88,.46-2.81,.46-1.03,0-2.07-.22-3.08-.47-.68-.17-1.3-.55-2.09-.91v1.25c-1.27-1.1-1.22-3.05-2.8-3.91-.72,2.37-.29,4.57,1.2,5.27,.8,.38,1.98,.5,2.79,.2,1.38-.5,2.58-.23,3.77,.26,.96,.4,.98,1.4,.14,2.14-1.47,1.3-3.22,1.86-4.9,1.86,1.14-.88,2.44-1.89,3.74-2.89l-.21-.4c-1.04-.09-2.08-.4-3.1,.37-.28,.21-.82,.24-1.19,.15-2.76-.66-3.34-2.87-3.57-5.24-.12-1.22-.02-2.46-.08-3.68-.01-.26-.31-.5-.48-.75-.16,.23-.45,.46-.44,.69,.03,.76,.7,1.63-.17,2.21-.63,.41-1.46,.53-2.34,.82,.17-.44,.34-.78,.44-1.13,.27-.94-.35-2-1.3-2.14-.85-.12-1.61-.58-2.59-.33-.75,.19-1.09-.41-1.05-1.3,.05-.99-.22-1.98-.34-2.98-.09-.78-.32-1.58-.23-2.34,.2-1.71,.36-3.32-.43-4.99-.53-1.12-.54-2.48-.93-3.69-.4-1.24-.97-2.43-1.47-3.65-.16-.39-.33-.78-.5-1.17-.51,.59-1.06,1.23-1.68,1.94l-.87-.81c-.18,.75-.46,1.33-.43,1.89,.09,1.66-.01,3.43,.54,4.94,1.06,2.9-.26,5.43-.67,8.11-.09,.56,.07,1.15,.06,1.73,0,.42-.04,.86-.15,1.27-.19,.69-.68,1.37-.64,2.03,.25,4.08-2.26,6.14-5.42,7.87-2.37,1.3-4.64,2.77-6.9,4.25-.32,.21-.29,.94-.42,1.44,.41,.11,.89,.42,1.21,.29,1.37-.54,2.69-1.2,4.02-1.83,.88-.42,1.69-.41,2.6,.06,.92,.48,1.97,.72,2.97,1.06v.35c-.96-.05-1.97,.08-2.86-.2-1.29-.41-2.27-.13-3.37,.55-1.07,.65-2.3,1.04-3.46,1.54-.61,.26-1,.08-1.19-.56-.09-.3-.18-.61-.29-.91-.75-2.01-2.5-1.55-3.94-1.41-1.52,.14-3,.67-4.5,1.01-.21,.05-.46,.07-.67,0-.68-.21-1.35-.45-2.01-.7-.31-.12-.59-.3-.89-.46l.04-.38c.89-.26,1.8-.5,2.68-.79,3.22-1.08,6.59-1.11,9.92-1.5,.62-.07,1.23-.44,1.8-.76,.99-.57,1.95-1.2,2.91-1.83,.9-.59,1.78-1.23,2.69-1.83,.18-.12,.45-.12,.64-.23,.57-.33,1.12-.69,1.67-1.03l-.18-.3c-1.42,.3-2.84,.63-4.27,.88-1.2,.21-2.45,.18-3.62,.48-1.13,.29-2.17,.88-3.26,1.34-.79,.33-1.55,.75-2.36,.99-3.99,1.2-8.14,1.27-12.23,1.75-.87,.1-1.76,.07-2.63,0-.4-.03-.78-.31-1.16-.47l.03-.39c.36-.17,.71-.44,1.09-.49,3.58-.41,7.16-.77,10.73-1.16,.09,0,.17-.12,.27-.5-3.79-.37-7.59-.74-11.37-1.11l.8-1.35c-.64,.28-1.28,.36-1.38,.64-.29,.83-.97,1.04-1.62,1.39-1.04,.55-1.66,1.25-1.51,2.63,.11,.98-.33,2.02-.53,3.03-.04,.19-.19,.42-.12,.57,.62,1.46,1.18,2.97,1.96,4.34,.26,.46,1.16,.53,1.72,.86,.84,.5,1.18,1.24,1.19,2.27,0,1.29,.27,2.58,.43,3.87,.16,1.28,.91,2,2.16,2.18,1.6,.22,3.17,.63,4.83,.35,1.49-.25,2.52,.44,3.09,1.8,.49,1.16,1.59,.86,2.47,.98,2.35,.32,4.72,.55,7.08,.82l-.04,.33c-3.01-.12-6.03-.17-9.03-.4-.57-.04-1.47-.68-1.57-1.17-.25-1.19-1.15-.99-1.82-1.06-1.22-.14-2.47-.09-3.7-.07-.32,0-.64,.18-.93,.43-3.08-.55-4.42-2.81-4.86-5.7-.13-.84-1-1.81,.07-2.66-.14-.15-.32-.45-.42-.43-.77,.18-1.52,.42-2.26,.64-1.27-1.33-2.7-2.8-4.11-4.29-.13-.14-.27-.33-.29-.51-.24-2.39-2.09-3.91-3.16-5.85-.36-.65-.79-1.26-1.21-1.88-.53-.78-1-.64-1.4,.13-.02,.04-.02,.08-.05,.11-.33,.26-.66,.51-.99,.77l.07-1.37c-.05-.05-.26-.3-.51-.47-.99-.62-1.7-1.38-1.61-2.67,.02-.31-.21-.69-.43-.95-.58-.68-1.17-.55-1.36,.32-.37,1.77-1.18,3.46-.77,5.38,.18,.81,.03,1.7,.03,2.65-.33,.57-.79,1.29-1.18,2.05-.79,1.57-1.52,3.14-1.45,4.99,.03,.73-.17,1.55-.53,2.18-.94,1.65-1.06,3.46-1.29,5.26-.22,1.75-.99,3.24-2.62,3.97-1.14,.51-2.45,.61-3.75,.92l-.92-1.23c.47-.28,.96-.46,1.29-.81,.29-.31,.39-.8,.58-1.21-.36-.1-.79-.37-1.08-.27-.71,.24-1.3,.15-1.36-.58-.03-.42,.41-1.08,.81-1.3,1.22-.64,2.54-1.11,3.8-1.67,.28-.12,.57-.3,.75-.54,.76-1.01,1.57-2.01,2.17-3.11,.34-.62,.22-1.46,.44-2.17,.56-1.77,1.19-3.52,1.79-5.28,.11-.33,.26-.64,.39-.98l-2.14-.7c.31-.1,.39-.15,.46-.15,1.89,.18,2.63-.75,2.36-2.72-.14-1.02,0-2.08,0-3.13,0-.81,.11-1.53-1.15-1.61-3.13-.2-6.24-.56-9.36-.88-.62-.06-1.23-.38-1.84-.35-1.32,.06-2.64,.38-3.96,.38-1.47,0-2.93-.27-4.4-.38-1.69-.13-3.39-.18-5.09-.31-2.25-.18-4.49-.41-6.74-.59-1.73-.13-3.51-.07-5.04-1.09-.27-.18-.49-.45-1-.92,2.9,.21,5.39,.45,7.89,.57,3.86,.19,7.72,.36,11.58,.44,3.22,.06,6.44,.03,9.66-.06,2.75-.08,5.49-.27,8.23-.47,.26-.02,.64-.39,.7-.66,.44-2,.89-4,1.19-6.02,.23-1.54,.25-3.1,.39-4.66,.02-.24,.08-.57,.25-.7,.84-.67,1.17-1.54,1.27-2.57,.07-.75,.35-1.48,.4-2.23,.04-.49,.02-1.19-.28-1.46-1.01-.94-.66-2.1-.72-3.2-.04-.8,.37-1.68-.51-2.31-.09-.06-.14-.33-.08-.43,.95-1.75-.04-3.36-.48-4.95-.44-1.59-1.28-3.08-1.98-4.6-.08-.17-.4-.22-.65-.34-.2,1.41-.39,2.78-.58,4.14l-.59-.03c-.07-.67-.12-1.34-.21-2-.18-1.36-.77-2.68-.31-4.11,.07-.21-.08-.59-.25-.75-1.71-1.52-3.37-3.12-5.23-4.44-.78-.55-2.01-.45-3.03-.65l-.26,.35,1.61,3.3-.18,.11c-.69-.93-1.36-1.87-2.07-2.78-.21-.27-.59-.67-.82-.62-1.53,.32-1.92-.73-2.38-1.79-.1-.24-.35-.41-.62-.72-.44,1.54-1.25,1.06-2.03,.49-1.54,.99-1.47,.97-.97,2.68,1.22,4.21,2.38,8.44,3.56,12.66,.52,1.86,1.26,3.61,2.65,5.01,1.45,1.46,2.1,3.25,2.25,5.26,.03,.35-.1,.72-.15,1.08l-.43,.08c-.27-.74-.7-1.47-.79-2.23-.21-1.75-1.26-2.93-2.44-4.07-.31-.3-.74-.58-.84-.95-.51-1.81-1.76-3.44-1.41-5.48,.04-.24-.15-.52-.24-.78-.29-.81-.62-1.62-.88-2.44-.85-2.65-1.68-5.3-2.52-7.95-.04-.14-.18-.25-.3-.42-1.01,.74-1.99,1.45-3.19,2.32,.12,.78,.3,1.89,.48,3.01,.55,3.38,1.2,6.74,1.6,10.14,.13,1.11-.29,2.33-.66,3.44-.39,1.18-1.01,2.28-1.66,3.68,0-.9-.08-1.6,.02-2.27,.13-.89,.3-1.8,.61-2.64,.57-1.57,.5-3.08,.13-4.69-.66-2.91-1.13-5.85-1.68-8.78-.07-.35-.17-.7-.26-1.04-.53-1.99-1-2.11-2.71-1.23-1.34,.69-2.89,.94-4.61,.49-1.45-.37-3.08,.33-4.43,1.24-.29,.19-.64,.34-.98,.4-1.08,.21-2.17,.4-3.27,.54-.54,.07-1.14,.14-1.63-.02-1.6-.52-3.01-.38-4.34,.73-.38,.32-1.07,.24-1.52,.5-1.45,.86-1.87,2.16-1.56,3.91,.3,1.64,.36,3.33,.68,4.97,.55,2.77,2.02,5.07,4.01,7.03,.38,.37,.92,.63,1.44,.81,1.82,.64,2.85,1.86,3.07,3.81,.25,2.27,1.07,4.27,2.48,6.12,.63,.83,.88,2.14,.85,3.22-.05,1.81-.6,3.59-.71,5.4-.17,3.12,.1,3.33,3.49,3.2,1.68-.06,3.35-.27,5.03-.38,.37-.02,.75,.11,1.42,.23-1.4,1.36-2.89,1.12-4.28,1.1-1.38-.02-2.76-.17-4.01-.25,.15,2.04,.21,3.85,.43,5.64,.16,1.31,2.26,3,3.82,3.25,.58,.09,1.15,.21,1.82,.33-.5,.43-.89,.73-1.25,1.08-.72,.7-1.45,.51-2.16,.04-1.39-.93-2.8-1.84-4.13-2.85-.58-.44-1.07-1.06-1.46-1.69-.55-.88-.97-1.85-1.55-3l-1.61,2.5-.71-.08c-.02,.13-.08,.26-.05,.34,.51,1.37,1.01,2.73,1.56,4.09,.09,.21,.35,.47,.56,.5,1.2,.22,2.41,.42,3.63,.55,1.86,.21,3.72,.36,5.58,.53,.44,.04,.9,.12,1.31,.02,2.47-.62,4.71,.15,6.97,.99,1.07,.4,2.2,.66,3.28,.98,.65-1.24,1.79-1.3,2.79-1.38,2.01-.17,4.09-.52,5.3-2.09,2.08-2.7,4.61-1.51,7.05-1.29,.92,.08,1.82,.43,2.72,.66l-.07,.65c-.54,0-1.09,.05-1.62-.01-.66-.07-1.31-.25-1.97-.34-2.06-.3-3.93-.28-5.5,1.56-1.28,1.51-3.37,1.47-5.28,1.96l-.18,1.05c-1.39,0-2.83,.2-4.2-.05-2.13-.39-4.21-1.09-6.32-1.63-.34-.09-.7-.08-1.05-.09-2.81-.09-5.62-.15-8.43-.28-.94-.04-1.86-.24-2.8-.34-.18-.02-.41,.01-.56,.11-1.95,1.25-4.16,.72-6.26,.92-1.1,.1-2.24,0-3.34-.18-.99-.15-1.96-.49-2.93-.79-.3-.09-.55-.32-.83-.46-1.46-.76-1.95-.61-2.91,.65-.82,1.08-1.7,2.07-3.15,2.43-.66,.17-1.23,.73-1.88,1.15-.31-1.49,.02-2.27,1.19-2.53,1.43-.32,2.31-1.07,2.82-2.45,.45-1.21,1.92-1.59,3.13-.91,1.75,.98,3.51,1.79,5.63,1.68,1.61-.09,3.28-.07,4.85,.24,.82,.16,1.6,.3,2.41,.22,.23-.02,.44-.18,.63-.53-.29-.05-.57-.13-.86-.14-.68-.04-.93-.21-.59-.96,.21-.45,.25-1.14,.06-1.58-.44-1-1.07-1.92-1.85-2.8l.48,2.94-.23,.03c-.53-1.07-1.06-2.15-1.59-3.22l-.45,.1-.13,2.56-.26-1.11-2.2,3.18-.38-.24c-.21-.96,.62-1.54,1.12-2.08,.91-.97,.28-1.95,.18-2.86-.04-.35-1.07-.59-1.87-.99-.19,1.31,.9,2.43-.35,3.16-.27,.16-.63,.16-.94,.23,.25-.65,.71-1.24,.61-1.7-.16-.71-.71-1.33-1.33-1.96-.48,1.45-1.06,2.63-2.38,3.25-.39,.19-.78,.4-1.2,.52-.28,.08-.6,0-.91,0l.09-1.03c-.97,0-1.95,0-2.93,0-.93,0-1.94,.43-2.9-.48,1.83-.82,3.63-.8,5.43-.91,.83-.05,1.67-.16,2.46-.4,.8-.24,1-.77,.27-1.4-.96-.84-1.52-2.19-3.02-2.33-.58-.06-1.19-.06-1.73-.25-.76-.27-1.47-.68-2.2-1.03-.42-.2-.85-.4-1.27-.61l-.21,.33c-.49-.99-.98-1.97-1.39-2.79-3.26,.25-6.39,.49-9.53,.72-.21,.02-.43-.04-.71-.31l1.28-.59-.02-.39c-1.98,0-3.97-.11-5.95,.02-3.33,.22-6.65,.58-9.96,.92-1.54,.16-3.06,.49-4.59,.58-1.03,.06-2.01-.27-2.42-1.09l-2.3,.32-.07-.38c.41-.46,.63-1.11,1.58-.56,.47,.27,1.22,.05,1.89,.05l-.54,.61c1.68,.37,3.22,.54,4.95-.28-2.06-.98-3.95-1.33-5.97-.67,2.32-1.04,4.68-1.5,7.21-1.35,3.37,.19,6.75,.16,10.13,.19,2.51,.03,5.01,0,7.65,0,.05-.55,.05-1.15,.18-1.71,.22-.92,.37-1.9,.83-2.7,1.21-2.12,1.82-4.16,.06-6.27-.03-.04,.01-.15,.05-.58,.57,.51,1.11,.82,1.39,1.28,1.2,1.93,.98,3.86-.18,5.75-.5,.81-.99,1.65-1.33,2.54-.14,.37,0,1.2,.21,1.27,.59,.21,1.31,.18,1.41-.75,.01-.11,.09-.2,.19-.39l.86,.65c.1-.04,.22-.06,.3-.13,2.56-2.2,3.13-5.07,2.75-8.25-.04-.31-.29-.73-.55-.84-1.71-.75-2.12-2.29-2.04-3.83,.11-2.03-.75-3.71-1.39-5.49-.2-.56-.59-1.02-1.46-.8-1.41,.35-3.26-1.58-2.96-3,.05-.23,.26-.48,.47-.61,1.58-.99,1.67-2.19,.84-3.96-.62-1.33-1.23-2.68-1.78-4.04-.13-.33-.16-.84,0-1.13,.99-1.8,1.99-3.59,3.11-5.31,.45-.7,1.23-1.18,1.81-1.81,.27-.3,.6-.72,.6-1.08-.02-1.36-.24-2.71-.24-4.06,0-.86-.36-1.02-1.08-.97-.5,.03-1.01,.04-1.51-.04-.13-.02-.22-.41-.26-.64,0-.04,.42-.25,.45-.21,1.01,1.1,2.03,.26,2.94-.07,1.22-.45,2.41-.49,3.69-.45,1.99,.06,3.67-.56,4.09-2.87l-1.09,.08q3.21-1.74,3.26-3.7c-1.26,.27-2.53,.38-3.69,.81-2.46,.9-5.03,1.69-7.22,3.06-1.6,1-3.4,2.11-4.26,4.07-.16,.37-.89,.45-1.13,.82-.43,.64-.87,1.37-1.01,2.11-.5,2.72-.87,5.46-1.3,8.2-.2,1.25-.44,2.5-.68,3.75-.05,.28-.21,.54-.55,.76,.03-.42,.02-.84,.1-1.25,.45-2.21,.65-4.41,.51-6.68-.11-1.76,.11-3.58,.46-5.32,.32-1.55,1.01-2.93,2.52-3.88,2.84-1.8,5.48-3.92,8.34-5.69,1.18-.73,2.68-.95,4.06-1.33,.87-.24,1.79-.33,2.68-.5,.89-.17,1.2-.76,.92-1.58-.44-1.3-.86-2.64-1.5-3.84-.28-.52-1.04-.88-1.66-1.09-1.14-.39-2.33-.79-3.52-.86-1.45-.09-2.75-.2-3.7-1.48-.5-.68-1.29-.62-2.08-.77-1.72-.33-3.01,0-4.08,1.37-.18,.22-.55,.29-.65,.34l-.67,2.12-.53-.16c.27-.76,.39-1.63,.83-2.27,.63-.9,1.48-1.64,2.26-2.43,.54-.55,1.41-.96,.57-1.92-.08-.09-.01-.3-.04-.45-.07-.47-.11-1.32-.25-1.34-.6-.07-1.3-.06-1.83,.2-1.85,.91-3.65,1.93-5.44,2.94-.58,.32-1.1,.75-1.64,1.14-.26,.19-.46,.49-.74,.58-3.23,1.02-3.84,3.73-4.19,6.55-.21,1.7-.22,3.42-.33,5.2l-1.49-5.06,.25-.08,.68,1.54c.24-.45,.42-.64,.42-.83,.01-1.3-.11-2.61,0-3.91,.15-1.64,.73-3.06,2.34-3.91,3-1.57,6.01-3.12,8.91-4.86,1.19-.71,2.3-1.35,3.7-1.49,1.58-.16,2.23-1.12,1.93-2.68-.08-.42-.27-.82-.45-1.34l-1.8,1.36-.22-.21c.65-.75,1.29-1.51,1.94-2.26,.31-.13,.74-.21,1.02-.46,.11-.1-.02-.75-.18-.81-.33-.13-.79-.15-1.12-.02-1.19,.47-2.36,1.02-3.63,1.58l2.59-3.08c-.69,0-1.19-.15-1.47,.03-1.01,.64-1.95,1.39-2.98,2.15-.59-1.43,1.97-1.56,1.09-3.01l-2.36,.58c.07-1.15,1.1-1.06,1.92-1.52-.3-.2-.5-.42-.75-.49-2.19-.64-4.38-.38-6.59-.07-2.08,.29-4.16,.6-6.25,.74-.74,.05-1.56-.3-2.26-.62-.29-.14-.6-.73-.54-1.05,.29-1.53,.57-3.09,2.13-3.95,1.57-.87,3.03-2.04,4.71-2.56,1.31-.41,2.65-.65,3.88-1.33,3.26-1.8,6.59-3.46,9.79-5.36,3.14-1.86,5.6-4.35,6.23-8.17,.1-.58,.08-1.19,.11-1.78,.09-1.44,.26-2.88,.25-4.31,0-.85-.34-1.69-.44-2.54-.05-.41-.01-.98,.24-1.23,.18-.18,.79-.01,1.17,.1,.25,.07,.46,.32,.66,.5,.86,.77,1.48,.68,2.27-.25,1.24-1.46,2.65-2.77,4.03-4.11,1.24-1.22,2.48-2.45,3.82-3.55,.38-.32,1.12-.21,1.7-.27,.32-.03,.77,.15,.97-.01,1.23-1,2.69-1.11,4.16-1.23,2.49-.2,3.66-1.95,4.75-3.89,.39-.7,1.11-1.46,1.82-1.65,.56-.15,1.35,.52,2.04,.83l-.02,.53c2.52-1.23,5.02-2.51,7.59-3.66,1.18-.53,2.46-.83,3.72-1.16,3.19-.83,6.34-1.85,9.67-1.94,.6-.02,1.2-.12,1.79-.11,1.35,.02,1.94,.85,1.56,2.14-.06,.21-.24,.45-.19,.62,.23,.87,2.82,2.21,3.74,2,.77-.18,1.56-.44,2.33-.39,1.33,.08,1.64,.54,1.54,1.84,2.72,1.4,5.3,.14,7.9-.51,.32-.08,.53-.53,.83-.77,.26-.21,.57-.37,.86-.56,.16,.41,.52,.87,.44,1.21-.14,.58-.57,1.08-.9,1.68,1.76-.14,2.67-1.35,2.38-2.84-.13-.68-.02-1.4-.02-2.11l.36-.1,1.74,1.34,.9-2.42,.36-.13,1.45,2.49c.16-.1,.4-.22,.59-.39,.82-.77,1.4-.7,1.97,.26,.48,.8,.87,2.23,1.42,2.29,1.05,.11,2.19-.54,3.28-.9,.26-.08,.49-.27,.75-.36,1.73-.57,1.9-.47,2.64,1.23,.24,.54,.46,1.18,.89,1.5,.53,.39,1.15,.96,1.96,.12,1.15-1.19,2.51-1.94,4.22-2.36,2.34-.57,4.8-1.34,6.72-2.71,1.82-1.3,3.91-1.82,5.74-2.97,1.82-1.13,3.28-2.46,3.91-4.58,.12-.42,.59-.73,.9-1.09,.36,.38,.8,.72,1.06,1.16,.21,.35,.2,.83,.31,1.33,1,0,1.95-.07,2.89,.02,1.05,.1,2.29,.05,3.1,.59,1.82,1.2,3.93,1.15,5.87,1.76,.34,.11,.7,.14,1.04,.26,1.83,.66,3.63,1.42,5.48,1.97,.95,.28,2,.21,3,.29,.16,.01,.35-.06,.46,.01,1.56,1,3.34,.53,5.01,.77,1.29,.19,1.45,.46,.84,1.56-.13,.24,.22,1.09,.33,1.09,1.45-.03,2.2,1.23,3.34,1.74,1.3,.58,2.56,1.28,3.89,1.76,2.32,.84,4.67,1.27,7.11,.3,.55-.22,1.25-.14,1.87-.08,.82,.07,1.12,.79,.66,1.47-.17,.26-.4,.48-.63,.76,.22,.15,.37,.31,.54,.35,3.77,.95,5.79,3.9,7.77,6.86,1.43,2.13,3.3,3.71,5.35,5.2,1.92,1.4,3.75,2.96,5.48,4.6,1.51,1.44,3.1,2.37,5.27,2.31,1.82-.05,3.65,.15,5.48,.27,.34,.02,.84,.07,.99,.29,.72,1.07,1.86,1.03,2.92,1.33,1.55,.44,3.02,1.15,4.53,1.73,1.52,.58,2.98,.63,4.6,.14,1.1-.34,2.41-.15,3.6,0,2.97,.38,5.94,.79,8.93,.32,.94-.15,1.82-.65,2.82-.33,.2,.06,.52-.12,.74-.26,1.06-.65,2.06-1.4,3.16-1.97,1.76-.91,3.55-1.78,5.37-2.55,1.5-.63,3.05-1.17,4.61-1.63,1.6-.47,3.27-.68,4.85-1.19,2.31-.74,4.56-1.64,6.83-2.49,.71-.27,1.41-.57,2.09-.91,1.42-.7,3.01-1.2,4.19-2.19,1.75-1.47,3.88-1.8,5.88-2.5,3.08-1.08,6.24-1.92,9.29-3.07,1.66-.63,3.17-1.66,4.74-2.53,1.63-.9,3.23-1.87,4.9-2.68,.51-.25,1.24,0,1.86-.09,1.27-.18,2.56-.35,3.8-.68,.71-.19,1.27-.3,2.03-.02,.97,.36,2.08,.39,3.13,.52,3.12,.38,6.21,.93,9.4,.47,1.25-.18,2.66,.05,3.88,.46,.76,.26,1.26,1.25,1.95,1.83,.44,.38,.98,.69,1.52,.89,1.25,.47,2.58,.75,3.77,1.33,.92,.44,.69,1.31,.22,2.07-.04,.07-.13,.11-.16,.18-.86,2.02-2.41,2.76-4.55,2.64-1-.05-1.63,.48-1.79,1.65-.25,1.83-1.15,2.61-2.38,2.32-.31-.07-.7-.31-.81-.57-.38-.95-1.1-1.1-1.95-.95-1.64,.29-3.28,.61-4.92,.94-1.35,.27-2.56,.82-3.8,1.49-1.48,.8-3.31,1.06-5.02,1.32-1.36,.21-2.8-.08-4.16,.13-.87,.14-1.72,.71-2.46,1.25-.62,.46-1.08,1.15-1.57,1.76-1.08,1.34-2.38,1.87-4.18,1.74-2.06-.15-4.16,.15-6.49,.27l.55,.69c-.18,.5-.51,.96-.46,1.37,.09,.74-.29,.98-.85,1.02-.94,.07-1.89,0-2.83,.08-.4,.03-1.03,.18-1.14,.45-.34,.82-.9,.9-1.64,.84-2.46-.19-4.8,.37-7.03,1.36-.37,.16-.69,.74-.78,1.18-.31,1.57-.96,1.91-2.5,1.66-.83-.14-1.78,.2-2.63,.45-1.37,.41-2.51,1.03-3.56,2.18-.86,.95-2.53,1.17-3.85,1.7-.86,.35-1.84,.51-2.58,1.03-1.23,.86-2.32,1.94-3.46,2.92-.09,.08-.23,.14-.26,.24-.73,2.95-3.64,3.44-5.63,4.95-.29,.22-.74,.32-1.12,.33-1.19,.03-2.38,0-3.56-.02-.24,0-.6,.04-.69-.09-1.09-1.57-2.71-.52-4.06-.8-.9-.19-1.91,.17-2.88,.21-.63,.03-1.28-.17-1.9-.08-.79,.12-1.6,.33-2.32,.67-.72,.34-1.29,.65-2.04,0-.65-.55-1.44-.54-2.34-.32-1.74,.41-3.53,.59-5.31,.8-.32,.04-.77-.16-1-.4-.84-.86-1.59-1.81-3-1.5-.07,.02-.16-.02-.23-.05-1.6-.93-2.91-.89-3.78,1.28,.9-2.29-1.33-2.14-2.06-3.33-.42,1.51-.8,2.83-1.16,4.13-.35-.05-.43-.05-.5-.07-.72-.19-1.61-.71-2.12-.46-.45,.22-.58,1.29-.68,2-.08,.61,.09,1.25,.16,2.05,.71-.28,1.28-.54,1.87-.72,.29-.09,.8-.13,.9,.02,.15,.23,.17,.73,.02,.95-.49,.67-1.11,1.24-1.64,1.88-.17,.2-.35,.59-.27,.77,.53,1.14-.28,1.52-1.05,1.88-.57,.27-1.18,.44-1.83,.68,.72,.49,1.61,.79,1.97,1.4,.74,1.27-.78,.95-1.27,1.37,.89,.94,1.74,1.84,2.83,2.98l-2.38,.8c.49,.61,1.06,1.24,1.54,1.94,.23,.34,.33,.79,.38,1.2,.05,.4-.22,.98-.03,1.19,.46,.5,1.1,1.12,1.69,1.14,.64,.02,1.64,.81,2.13-.42,.03-.08,.82,.07,1.22,.21,.49,.18,1.05,.37,1.39,.73,.23,.24,.31,1,.14,1.15-.74,.64-.74,1.41-.74,2.26,0,.41-.12,.95-.39,1.2-1.51,1.4-1.63,3.32-2.08,5.14-.51,2.07-2.1,3.38-4.26,3.66-1.46,.19-2.91,.6-4.36,.58-2.05-.02-2.73,1.26-3.3,2.83-.27,.74-.69,1.42-.94,2.16-.42,1.23-.66,2.51-1.14,3.71-.77,1.92-1.66,3.78-2.51,5.66-.27,.58-.63,1.12-.88,1.7-.47,1.1-1.02,2.23-.02,3.34,1.72,1.91-.35,4.98-2.21,5.56-.72,.23-1.51,.22-2.52,.35-.03,.39-.12,1-.1,1.61,.03,1.24,.14,2.47,.17,3.7,0,.27-.17,.55-.27,.82-.23-.18-.61-.32-.67-.55-.28-1.05-.49-2.13-.7-3.2-.33-1.65-.68-3.3-.95-4.96-.1-.63-.02-1.28-.02-1.92l.36-.03,.5,1.44c.23-.69,.3-1.09,.48-1.43,.36-.69,.72-1.4,1.19-2,.15-.2,.79-.28,1.01-.13,.86,.61,1.24-.03,1.48-.58,.84-1.9,1.49-3.9,2.41-5.76,.93-1.89,1.28-3.86,1.36-5.92,0-.25-.06-.62-.24-.75-1.12-.85-1.03-1.99-.85-3.16,.11-.71,.14-1.45,.39-2.11,.15-.4,.6-.93,.97-.97,.83-.11,1.06-.55,1.16-1.25,.16-1.13,1.81-2.34,2.91-2.04,2.05,.55,4.12,1.04,6.24,.77,.72-.09,1.59-.4,2.04-.91,1.81-2.06,1.8-4.16,.06-6.78,.35-.11,.66-.19,.96-.29,.23-.08,.45-.18,.68-.27-.11-.24-.16-.54-.34-.7-.72-.61-1.54-1.12-2.22-1.77-.87-.85-1.63-1.8-2.44-2.71-.14-.16-.25-.36-.37-.54l-.3,.11c.17,.58,.35,1.16,.52,1.72-.67-.16-.72-.24-1.81-3.47,.59,.23,1.12,.47,1.68,.63,.16,.05,.56-.2,.56-.22-.15-.5-.27-1.03-.54-1.47-.18-.29-.58-.43-.88-.64l.13-.26c1.1-.08,2.2-.15,3.29-.23l.12-.44-3.86-3.01,1.33-.78c-.45-.16-.78-.17-.94-.35-.3-.32-.8-.97-.71-1.08,.89-1.12,.21-1.84-.48-2.66-.2-.24-.21-.87-.03-1.15,.51-.79,.18-.96-.55-1.07-.32-.05-.62-.23-.92-.36,.15-.31,.25-.66,.45-.94,.2-.29,.46-.57,.75-.76,.9-.58,1.71-1.16,.89-2.36,.73-.48,1.37-.87,1.98-1.3,.82-.58,1.01-1.33,.72-2.3-.1-.33,.17-.77,.28-1.15,.09-.31,.29-.63,.25-.92-.06-.5-.27-.99-.36-1.31l2.35-1.15c.81,.59,1.49,1.31,2.31,1.62,1.06,.39,2.24,.43,3.66,.68l-1.12-1.92,.14-.11c.68,.78,1.36,1.56,2.05,2.33l.23-.14-.14-1.08,1.51,1.67c.26-2.13-1.92-3.06-2.1-4.91,.35,.08,.78,.17,1.21,.28,.66,.16,1.01-.06,1.24-.74,.62-1.82,1.52-2.04,2.91-.76,.32,.29,.62,.62,.86,.97,.66,.98,1.27,1.78,2.67,.93,.82-.5,1.63,.09,2.16,.8,.45,.6,.77,1.3,1.23,1.91,.41,.55,.92,1.02,1.39,1.55-.54,.56-1.29,.32-2.03-.78-.55-.82-1.11-1.64-1.76-2.38-.15-.17-.79-.18-1,0-1.04,.88-1.47,.82-2.26-.31-.27-.38-.74-.63-1.26-1.05,.05-.62-.57-1.5-1.33-1.49-.9,0-1.55,1.1-1.49,2.6l-1.13-.37c.13,.29,.17,.6,.3,.65,1.11,.41,1.22,1.44,1.62,2.34,.31,.7,.8,1.38,1.37,1.88,.81,.69,1.98,.84,2.51,2.01,.27,.59,3.59,.33,3.97-.27,.19-.3,.17-.85,.05-1.22-.13-.39-.49-.7-.96-1.32,.63,.22,1.01,.32,1.37,.48,1.05,.46,2.09,.94,3.12,1.42,.63,.29,.74,0,.76-.56,.01-.35,.18-.69,.28-1.03,.33,.15,.66,.3,.99,.45,.92,.42,1.84,.85,2.78,1.24,.15,.06,.44,.03,.56-.08,.48-.41,.87-.92,1.37-1.29,.49-.36,1.07-.6,1.64-.91,.73,.74,.11,1.18-.74,1.81,.66,.19,1.15,.51,1.56,.42,1.12-.26,2.19-.7,3.29-1.04,.52-.16,1.06-.22,1.6-.32,.37-.07,.75-.13,1.12-.2l-.03,.03c.5,.38,.96,.98,1.51,1.08,.68,.12,1.67,.06,2.1-.36,.45-.44,.4-1.39,.57-2.13,1.13-.48,2.46-1.05,3.8-1.62l-.09-.48c-1.74-.93-3.94,.37-5.63-.82l.02-.37h5.02c.34,.78,1.54,.88,2.5,.07,.96-.81,1.97-1.54,3.25-2.54,.07-.82,.11-2.06,.32-3.28,.14-.84,.78-.61,1.31-.32,.44,.24,.86,.52,1.47,.9,.14-.54,.3-.9,.32-1.26,.03-1.01,.57-1.21,1.44-1.03,.55,.11,1.11,.14,1.66,.26,1.08,.23,2.11,.42,2.36-1.12,.02-.15,.27-.34,.44-.36,1.44-.22,2.88-.51,4.33-.56,.88-.03,1.46-.29,1.5-1.22,.03-.73,0-1.45,0-2.14l3.21-.18-.13,1.16,.29,.19c.26-.32,.52-.64,.93-1.15,.5-.12,1.76,.16,1.49-1.23-.15-.79-.69-1.5-1.02-2.16,1.97-1.13,3.9-2.31,5.9-3.36,1.13-.6,2.34-.89,3.39,.29,.1,.12,.4,.07,.6,.09-.03-.23,0-.51-.11-.69-.11-.17-.37-.24-.58-.37,.52-.38,1.16-.63,1.35-1.07,.14-.32-.33-.89-.57-1.45,1.21-.41,2.57-.87,3.93-1.33l-.13-.38c-2.3,.1-4.42,.84-6.42,1.98,2.09-1.8,4.45-2.87,7.13-2.78,.12,.73,.25,1.44,.39,2.28l-3.27,1.11c1.3,1.86,3.44,.86,5.07,1.79-1.36-1.86,.24-3.03,.75-4.38,.09-.23,.8-.31,1.22-.3,.78,0,1.62,.34,2.34,.15,1.47-.38,2.5-2.47,2.09-3.96-.06-.23-.41-.38-.62-.59-.32-.32-.79-.6-.92-.99-.27-.82-.63-.65-1.25-.42-.7,.25-1.48,.37-2.23,.36-.92,0-1.63,.69-1.69,1.93l.99,.05,.07,.39c-.95,.17-1.89,.38-2.85,.51-1.11,.16-2.26,.18-3.35,.41-1.99,.42-3.98,.85-5.9,1.49-.95,.31-1.74,1.11-2.61,1.66-1.03,.65-2,1.55-3.13,1.87-2.56,.73-4.48,2.76-7.09,3.33-1.01,.22-2.08,.38-3,.83-1.05,.52-1.97,1.32-2.93,1.99-.37,.08-.94,.04-1.26,.3-1.69,1.38-3.65,1.65-5.75,1.74-.93,.04-1.83,.67-3.02,1.15l1.31-1.2c-3.22,1.09-6.27,1.46-8.96,3.1-1.58,.96-3.36,1.62-5.08,2.32-.55,.22-1.24,.04-1.82,.21-2.56,.74-4.68,2.39-7.2,3.29,.66-.4,1.31-.82,1.99-1.19,.74-.4,1.5-.74,2.21-1.4l-4.97,.8c-.06-1.1-.85-1.41-1.63-1.27-.75,.14-1.42,.67-2.23,1.08,0-.3,0-.47,0-.39-2-.38-3.92-.92-5.86-1.06-1.69-.13-2.55-1.2-3.57-2.23-.28-.29-.86-.42-1.3-.39-1.65,.09-3.07-1.32-4.86-.61-.53,.21-1.36-.32-2.23-.57-.33,0-.89,.04-1.45-.01-.68-.06-1.23-.21-1.68,.65-.49,.92-1.43,.35-1.99,0-1.37-.85-2.6-1.91-3.93-2.82-1.17-.79-1.92-1.85-2.69-3.03-.92-1.4-2.37-2.45-3.55-3.69-1.42-1.48-2.82-2.99-4.22-4.49-.6-.64-1.09-1.54-1.83-1.85-.82-.34-1.89-.28-2.8-.13-.34,.06-.7,.83-.81,1.34-.44,2.03-.5,2.05-2.43,2.52-.53,.13-.98,.71-1.38,1.16-.24,.27-.33,.68-.59,1.25l-1.16-1.3c-3.09-.59-5.55,1.08-8.26,2.46,.09-.2,.13-.57,.32-.66,1.49-.74,3.01-1.43,4.77-2.25l-2.69-.52c-.28-1.87-.59-3.86-.89-5.88,1.08-.21,1.39,.24,1.51,.88,.07,.39,.06,.8,.06,1.19,0,2.09,.46,2.33,2.41,3.04,1.88,.68,3-.12,4.17-1.25,.11-.11,.31-.25,.3-.35-.27-1.77,1.43-2.28,2.17-3.39,.43-.64,.97-1.22,1.59-2-.48-.16-1.15-.55-1.81-.54-1.18,.01-1.56-.57-1.59-1.62-1.76-.29-3.48-.64-5.12,.39-.23,.14-.66,.15-.92,.04-1.76-.81-3.6-1.53-5.23-2.56-2.2-1.39-4.48-2.52-6.95-3.35-.82-.27-1.83-.49-2.14-1.6-.06-.2-.51-.39-.79-.42-2.51-.28-5.03-.48-7.53-.81-.88-.12-1.71-.55-2.58-.81-.58-.17-1.18-.29-1.78-.41-.63-.13-1.26-.22-.64-.99l-2.95-1.37,.49,.83h-1.83l.45-.69-2.12,.26c-1.18-1.43-2.89-.48-4.34,.17-1.14,.51-1.99,1.66-3.05,2.59l.99,.73c-.14,.17-.28,.45-.38,.43-2.04-.31-3.35,1.47-5.17,1.76-.47,.07-.93,.15-1.48,.25,.09-.28,.14-.46,.2-.63,2.06,.04,3.35-1.4,4.78-2.55-1.76,.54-3.38,1.32-4.76,2.57-.47,.34-.91,.72-1.41,1.01-.42,.25-.88,.44-1.34,.58-.4,.12-.83,.16-1.25,.17-1.99,.08-2.95,1.9-4.55,2.65-1.54,.72-3.11,.94-4.82,.65-.74-.13-1.55,.27-2.34,.35-.57,.06-1.37,.21-1.68-.08-.63-.61-.13-1.31,.33-1.9,.14-.17,.21-.39,.47-.86-.64,.13-1.05,.16-1.43,.29-1.85,.61-3.68,.31-5.48-.16-.27-.07-.48-.62-.6-.99-.12-.39-.09-.82-.17-1.62-.64,.74-1.02,1.2-1.43,1.64-.18,.19-.4,.34-.6,.51-.19-.23-.43-.43-.55-.69-.23-.49-.39-1.01-.55-1.47-.93,1.1-1.7,2.25-2.72,3.12-.99,.84-2.23,1.38-3.41,2.08l.86,1.06c-1.69-.49-3.14-.91-4.58-1.32-1.53-.44-3.05-1.33-4.61-.06-.03,.02-.07,.03-.11,.04-.65,.18-3.06-1.38-3.03-2.07,.03-.83-.39-1-1.02-.89-1.92,.31-3.59-.21-5.05-1.44-1.04-.88-2.18-.69-3.35-.48-.35,.06-.72,0-1.08,0l-.17-.41c.51-.32,1-.71,1.54-.95,.67-.29,1.4-.44,2.08-.71,.19-.08,.3-.38,.45-.58-.24-.08-.51-.26-.72-.21-2.11,.51-4.24,.97-6.31,1.62-1.69,.53-3.33,1.25-4.94,1.99-2.19,1.01-4.31,2.18-6.5,3.19-1.63,.76-3.31,.56-5.01-.11-.27,1.4-1.02,2.31-2.35,2.99-1.59,.81-2.97,2.02-4.45,3.05-.33,.23-.69,.43-1.32,.82l.3-1.94c-.61,.42-1.05,.66-1.41,.98-.51,.44-.92,1.01-1.47,1.38-.26,.17-.75,0-1.13,0-.47,0-1.07-.17-1.37,.05-.71,.54-1.26,1.29-1.9,1.92-.17,.17-.45,.25-.68,.36l-.26-.33,1.65-1.79-.36-.32c-1.43,1.69-2.95,3.32-4.24,5.11-.62,.87-.77,2.07-1.23,3.07-.21,.46-.65,.81-1.1,1.34-.5-.8-.47-2.03-1.49-1.28-.4,.29-.7,1.44-.47,1.72,1.09,1.3,.34,2.46-.18,3.52-.49,1-.71,1.83,.05,2.74,.07,.08,.16,.25,.12,.31-.87,1.53,.85,2.79,.37,4.36l-1.02,.18-.1-2.16h-.34c-.42,1.3-1.59,2.51-.27,4.24l.57-1.77,.31,.07-.8,4.68c-.43-1.75-1.08-3.23-2.61-4.17-1.02,1.38-.71,2.98,1.3,5.4-.76-.2-1.24-.34-1.73-.44-.28-.06-.58-.05-.87-.08,.04,.32-.02,.72,.15,.96,.54,.78,.79,1.53,.25,2.42-.11,.19,.03,.53,.03,.79,.02,.89-.01,1.78,.08,2.66,.08,.76,.3,1.5,.49,2.34-1.24,1.08-1.51,1-3.36-1.39l2.09,1.16,.17-.17-1.48-2.3-.13-2.06s.26-.12,.5-.24c.34-.78-1.34-3.02-2.93-3.69l1.6,.18c-.2-.39-.29-.84-.45-.86-1.58-.23-3.13-.28-4.66,.48-3.04,1.52-6.15,2.88-9.19,4.39-1.31,.65-2.53,1.5-3.78,2.29-.26,.16-.42,.48-.56,.89,6.71-.85,13.32-1.53,19.37,2.67,.03-.33,.05-.47,.05-.62,0-.11-.03-.22-.07-.54l2.21,3.98,.38-.83,.2,.03v6.75c-1.14,.25-1.65,2.04-.87,3.33,1.25-.66,1.51-.57,1.52,.81,0,1.61,1.27,.95,2.09,1.41l-.26-2.43,2.24,2.73,.58-2.21,.37-.14c.9,1.45,1.78,2.92,2.71,4.35,.49,.76,1.15,1.43,1.59,2.22,.67,1.2,1.22,2.46,1.81,3.71,.1,.21,.09,.48,.2,.69,1.13,2.15,1.09,4.45,.83,6.77-.14,1.24-.02,1.32,1.23,1.23,1.27-.09,2.55-.15,3.81-.08,.89,.05,1.35,.57,1.06,1.57-.33,1.15,.19,2.06,1.41,2.28,1.88,.34,3.75,.59,5.46,1.58,.44,.26,1.26-.13,2.04-.24l.42-1.48c1.72,.44,3.47,.79,4.8,2.08,.66,.64,1.37,.55,2.01,.24,.26-.12,.26-.78,.4-1.27,.1-.13,.44-.36,.46-.61,.11-1.3,.27-1.44,1.56-1.18,.27,.05,.53,.09,.81,.14,.22-2.55-1.82-3.66-4.9-2.59-.04-.39-.21-.81-.08-1.08,.11-.21,.59-.25,.91-.3,.27-.04,.6,.09,.83,0,1.83-.81,2.81,.25,3.77,1.57,.32,.45,.93,.69,1.5,1.1,.52-1.13,.95-1.92,1.25-2.74,.39-1.06-.32-2.26-1.44-2.51-.35-.08-.72,0-1.07-.09-.39-.1-.76-.29-1.14-.45,.29-.29,.58-.82,.88-.82,.84,0,1.86-.04,2.47,.4,1.48,1.05,1.4,1.16,3.18,.48-.14-.33-.32-.64-.4-.98-.07-.3-.01-.62-.01-1.09-1.6-.23-3.26-.35-4.86-.71-1.69-.38-3.08,.9-4.72,.71,.24-1.23,1.4-2.1,2.53-1.95,.28,.04,.57,.12,.83,.06,2.53-.6,4.82,.42,7.17,1.02,.28,.07,.58,.09,.87,.14l.17-.28-2.29-2.15,.04-.27c1.77,.27,3.54,.54,5.59,.85l-1.5-1.57c1.88-.43,3.51,.48,5.25,.2-.7-.87-1.37-1.5-2.49-1.42-.23,.02-.49-.3-.73-.46,.16-.21,.28-.54,.49-.6,2.16-.65,3.89-1.9,5.4-3.56,.4-.43,1.28-.43,1.98-.43-1.78,1.5-3.56,3-5.33,4.48,1.6,1.26,3.26,1.33,4.6-.38,.17-.22,.52-.33,.81-.41,1.54-.43,3.08-.75,4.7-.39,.77,.17,1.27-.49,1.03-1.22-.36-1.1,.1-1.8,1.28-1.98,1.59-.24,1.91-.6,1.98-2.14,.06-1.24,1.03-1.62,2.31-2.27-.05,.73-.1,1.24-.11,1.74,0,.35-.08,.84,.12,1.04,1.43,1.42,1.44,1.41-.25,2.74,.6,.73,1.2,1.46,1.81,2.17,.52,.61,1.22,1.03,.5,2.08-.58,.85,.26,1.81,.39,2.73,.04,.28,0,.57,0,.86l-.4,.03c-.45-1.74-.81-3.52-1.4-5.22-.3-.86-1.04-1.58-1.62-2.33-.11-.14-.45-.24-.6-.18-.17,.07-.35,.36-.34,.55,.02,.38,.16,.76,.07,1.23l-.78-1.43c-.5,.74-.53,.75,.08,1.94,.79,1.55,1.63,3.08,2.5,4.74l-.95,1.34-1.5-3.22c-1.56,.96-2.76,.73-4.16-.97l-.78,3.6,2.03,1.44-.26,.41c-.39-.24-.78-.49-1.18-.73-.77,1.69-.53,2.27,.62,3.64,1.52,1.82,2.83,3.81,4.21,5.74,.13,.18,.07,.49,.09,.74-.23,.02-.49,.11-.67,.03-.36-.15-.67-.41-1.01-.62l-1.38,.62c.06,.18,.08,.5,.24,.67,1.83,1.81,1.52,4.6,3.07,6.59,.69,.88,.81,2.24,1.08,3.41,.37,1.62,.59,3.28,.95,4.9,.13,.6,.56,1.12,.71,1.72,.25,.99,.35,2.02,.57,3.03,.08,.37,.21,.88,.48,1.04,1.09,.62,1.08,1.6,.82,2.54-.61,2.2,.37,3.97,1.34,5.79,.18,.33,.19,.75,.27,1.13,.13,.6,.26,1.21,.45,2.11l1.25-1.94c.31,.6,.59,.97,.7,1.39,.12,.44,.14,.92,.09,1.38-.16,1.72-.18,1.72-1.88,1.4-1.35-.26-1.61,0-1.86,1.42-.16,.92-.53,1.81-.79,2.71-.29,1.01-.56,2.02-.83,3.04-.03,.11-.02,.28,.05,.34,1.09,.99,1.19,2.35,1.49,3.67,.3,1.32,.79,1.36,1.92,.66,.72-.44,1.58-.65,2.48-1.01l-1.26-.98c1.16-.23,1.77,.51,2.18,1.26,.19,.34-.16,1-.32,1.5-.05,.15-.29,.32-.44,.32-.92,.03-1.43,.45-1.32,1.39-.21,.07-.32,.11-.44,.13-.62,.15-1.75,.22-1.78,.44-.12,.96,.04,1.96,.19,2.94,.02,.14,.54,.37,.76,.31,2.93-.84,5.86,1.97,6.5,4.5,.18,.7,.58,1.34,.88,2.01l.46-.13-.4-1.99,1.16,.48c.22-1.18,.43-2.26,.63-3.35l-.41-.14-.87,2.02-.38,.09c-.15-.48-.53-1.02-.41-1.41,.6-1.97,1.51-2.65,2.98-2.24l-.42-1.2h1.09c-.08-.3-.21-.6-.24-.91-.13-1.56-.94-3.04-.11-4.73,.36-.74-.1-1.86-.13-2.8-.03-1.06-.23-2.19,.06-3.17,.3-1.02,1.11-1.89,1.68-2.84,.29-.49,.56-.99,.79-1.51,.4-.91,.73-1.85,1.14-2.76,.5-1.11,.48-2.21,.2-3.37-.25-1.04,.08-1.7,1.27-1.8,1.01-.08,1.11-.72,.83-1.54-.7-2.05-2.01-3.57-3.91-4.6-.3-.16-.53-.43-.68-.86l3.16,1.15,.23-.17c-.64-.77-1.23-1.6-1.94-2.31-.6-.6-1.31-1.03-.55-2.04,.23-.3,.21-1.05-.01-1.38-.57-.85-.37-1.55-.05-2.42,.33-.92,.64-.73,1.15-.24,.42,.4,.86,.78,1.29,1.17l.28-.18-.57-1.83,.18-.12c.49,.8,.99,1.61,1.58,2.57,.62-1.64,.57-3.15,.38-4.66-.12-1.02-.72-1.97-.04-3.09,.21-.35-.36-1.22-.64-1.82-.12-.27-.41-.46-.78-.86,.55-.15,.97-.42,1.32-.34,.95,.22,1.1-.27,.94-.96-.24-1.08-.52-2.17-.89-3.21-.42-1.15-.97-2.26-1.59-3.66,1.09-.28,2.04-.52,3.12-.8-.53-1.97-3.3-2.45-3.62-4.72,.86,.69,1.62,1.4,2.49,1.95,.26,.16,.78-.09,1.19-.16-.14-.37-.24-.76-.44-1.1-.25-.44-.89-.94-.79-1.24,.13-.4,.78-.65,1.23-.93,.16-.1,.37-.14,.63-.23,.1-1.34-.64-2.33-1.39-3.29-.42-.53-.99-.91,0-1.47,.24-.14,.23-.73,.35-1.18,.72,.43,.59,1.98,1.89,1.69-.21-.67-.34-1.24-.57-1.76-.27-.62-.48-1.53-.97-1.73-1.52-.64-1.62-1.9-1.7-3.19-.02-.38,.28-.78,.43-1.17,.24,.26,.67,.53,.67,.79,.02,1.28,1.25,1.54,1.82,2.34,.44,.62,.86,1.25,1.25,1.9,.26,.44,.47,.92,.7,1.37,.56-.44,1.46-.79,1.6-1.34,.34-1.29,.31-2.68,.42-3.86l1.14,.09v-.17c.43,.09,1.16,.36,1.22,.25,.28-.51,.38-1.12,.58-1.82,.44,.38,.96,.83,1.48,1.28l-.19,.27-.86-.52-.32,.1c.1,.37,.13,.77,.3,1.1,.33,.61,.74,1.17,1.12,1.76,.11,.17,.16,.39,.3,.51,1.43,1.25,2.88,2.49,4.32,3.73l.37-.35-2.5-3.39c1.68,.35,2.02,1.72,2.86,2.53l.36-.2-.92-1.49,.1-.17c.39,.32,.78,.64,1.17,.96,1.25,1.04,2.87,.58,3.03-.92,.06-.52-.31-1.08-.53-1.76,.46,.32,.86,.59,1.25,.86,.12,.37,.23,.74,.28,.9,1.97,.35,3.75,.67,5.58,.99,.12-.74,.28-1.41-.94-1.1-.32,.08-.87-.27-1.12-.58-.16-.2-.05-.74,.1-1.05,.64-1.31,1.3-2.62,2.04-3.87,1.24-2.1,.28-3.98-.54-5.86-.1-.22-.82-.39-1.12-.27-.8,.34-1.49,.93-2.29,1.28-.97,.42-1.46,1.03-.99,2.03,.42,.9,1.11,1.68,1.45,2.6,.24,.67,.4,1.66,.07,2.18-.66,1.05-1.67,1.87-2.54,2.78,.35-.82,.52-1.8,1.09-2.41,.45-.48,.75-.83,.62-1.45-.1-.51-.22-1.03-.42-1.52-.39-.97-.9-1.89-1.22-2.87-.31-.96,.72-2.34,1.91-2.76,1.71-.6,1.71-.61,.42-1.93-.08-.09-.05-.28-.13-.75,.67,.32,1.15,.51,1.59,.78,.42,.26,.79,.61,1.17,.9,.79-1.84,1.59-3.54,2.22-5.3,.22-.6,.05-1.35-.03-2.02-.02-.18-.36-.35-.57-.49-.36-.24-.73-.45-1.1-.67,.3-.38,.57-.79,.91-1.13,.81-.8,1.69-1.51,2.45-2.36,.24-.27,.17-.83,.24-1.31,.18-.05,.65-.03,.91-.26,.7-.61,1.36-1.29,1.95-2.01,1.04-1.27,.71-2.23-.97-3.32-.63-.41-1.15-.99-1.57-1.66,1.27,.59,2.53,1.2,3.81,1.75,.27,.11,.62,.03,.93,.04-.13-.31-.18-.71-.41-.9-.9-.77-1.89-1.45-2.79-2.23-.24-.2-.29-.62-.42-.94,.38-.15,.76-.43,1.15-.43,.91,0,1.81,.17,2.72,.16,.35,0,.69-.33,1.21-.59,.76,.54,1.35,.06,1.74-.93l.79,1.11c.33-.41,.76-.78,.98-1.25,.37-.79,.6-1.64,.88-2.45,.71,.61,.98,1.31,.19,2.17l.43,.19c.33-.48,.85-.92,.97-1.45,.31-1.39,.45-2.82,.67-4.35l3.05-.54,.05,.11c-.26,.14-.52,.28-.77,.42-.01,.15,.9,.45,2.14,.71-1.07,1.16-1.86,1.19-3,.1-.43-.41-.78-.47-.94,.17-.29,1.1-.51,2.22-.77,3.34l2.69-.2-.42-1.19c.54-.51,.97-.52,1.54,0,1.04,.95,2.28,1.55,3.66,1.76,.43-1.4,.83-2.71,1.23-4.02l.34,.07c-.23,1.16-.45,2.31-.7,3.6,1.53-.93,2.34-3.42,4.77-1.89-.3,.44-.66,.99-1.03,1.53-.35,.5-.34,.86,.3,1.11,.28,.11,.62,.28,.74,.53,.15,.3,.1,.7,.14,1.06-.37,.01-.87,.18-1.09,0-.92-.75-1.87-.73-3.01-.67-1.04,.06-2.13-.5-3.18-.84-.63-.21-1.24-.71-1.67,.27-.08,.18-.37,.32-.58,.37-1.91,.45-3.88,.73-5.73,1.36-1.2,.41-2.26,1.28-3.31,2.03-.49,.35-.23,1.47,.32,1.79,.2,.12,.38,.25,.73,.49l-2.86,2h1.05c-.99,1.06-1.9,2.01-2.78,2.98-.22,.25-.57,.67-.49,.87,.56,1.45-.34,2.53-.85,3.69-.98,2.22-2.11,4.37-3,6.62-.29,.73-.06,1.69-.02,2.54,.08,1.72,.31,3.45,.26,5.17-.05,1.65-.39,3.3-.6,4.94-.01,.12-.05,.26,0,.35,.65,1.37,1.32,2.73,2,4.12,1.33-.18,1.56,.04,2.57,2.25,.41,.9,.91,1.77,1.43,2.61,.66,1.06,1.46,1.86,2.84,2.14,.99,.2,1.85,1,2.82,1.56,.55-.48,.75-1.46,1.92-1.18,1.31,.31,2.46,.89,3.24,2.11-1.24,1.02-2.07-.8-3.23-.5,.14,.7,.28,1.35,.4,2.01,.19,1.02,.57,1.69,1.8,1.85,.88,.11,1.58,.88,2.28,1.54,.62,.59,1.71,.69,2.85,1.1l-.36-1.5-.03,.03Zm-104.87,7.6h2.16c-.03-.9-1.87-.11-1.23-1.46h2.82c-.86-1.31-2.05-1.19-3.23-1.13l.1,.29-1.47,1.18c.32,.43,.6,.79,.88,1.16l-1.28-.27c.46,1.52,1.36,1.25,2.34,1.15l-1.1-.91Zm7.54-1.62l.89-1.55,1.02,1.7c.25-.35,.29-.52,.24-.66-.6-1.75-1.16-3.52-1.84-5.24-.33-.83-1.04-.98-1.93-.45,.78,1.42-.19,1.62-1.43,1.73l1.8,1.09q-1.85,.02-1.93,.59l3.27,1.25-.05,.3-.72,.27c.25,.34,.48,.65,.7,.97l-2.45-1.56-.37,.3c.34,.8,.67,1.61,1.04,2.39,.07,.15,.36,.18,.55,.27,.07-.19,.15-.38,.2-.58,.04-.18,.04-.37,.05-.55l.96-.3Zm78.4,.87c.61,.56,1.13,.76,1.27-.75l2.13,2.38-.9,.39c.9,1.58,1.74,3.07,2.6,4.58l.71-.38,1.69,1.84,.32-.18-.22-1.1,.77,.23c.02-.21,.07-.33,.04-.44-.2-.95-.69-1.86,.03-2.87,.2-.29,.03-1.2-.88-.95-.62,.17-1.23,.39-2.07,.65-.93-1.25-2.02-2.72-3.11-4.18-.63-.85-1.29-1.69-1.9-2.55-.6-.84-1.14-1.73-1.74-2.57-.61-.85-1.27-1.68-.41-2.81l-.91-.33v1.04l-.38,.15c-.52-.88-1.23-1.7-1.51-2.66-.29-.99-.51-1.36-1.42-.47-.94-1.37-.53-3.63-3.07-3.87,.26,.62,.4,1.27,.77,1.75,.83,1.07,1.83,2,2.64,3.08,.39,.52,.51,1.24,.76,1.88l-1.14,.46-2.68-4.36-.83,1.37-1.14-1.22-.31,.27c1.07,1.5,2.14,3,3.2,4.5l.23-.14c-.42-.99-.84-1.98-1.26-2.97,.53,.3,.85,.69,1.12,1.12,1.51,2.3,2.95,4.65,4.54,6.89,.67,.95,1.65,1.68,2.52,2.48,.05,.04,.33-.17,.51-.26Zm-99.02,1.69c-.07,.03-.14,.08-.21,.07-.07-.01-.17-.09-.17-.14-.05-.61,.08-1.68-.14-1.76-1.34-.47-2.78-1-4.16-.94-1.33,.06-1.74-.45-2.14-1.46-.27-.69-.72-1.32-1.2-2.19-1.35,1.67-2.47,3.07-3.62,4.49l-.43-.65c-.66,.09-1.22,.05-1.67,.25-1.09,.5-2.19,1.01-3.16,1.7-1.06,.75-2.74,1.16-2.14,3.15,.09,.31-.4,1.03-.78,1.19-1.36,.58-1.58,1.29-.98,2.67,.27,.62-.04,1.92-.55,2.34-.64,.52-1.65,1.39-2.68,.51-.8-.69-1.16-1.61-.85-2.73,.26,.68,.4,1.34,.76,1.85,.15,.22,.9,.31,1.13,.13,1.67-1.24,1.89-2.21,.77-3.95-.51-.79-.14-1.24,.24-1.78,.2-.27,.4-.55,.65-.78,1.51-1.45,2.96-2.96,4.57-4.28,1.02-.83,2.29-1.34,3.42-2.04,.84-.52,1.59-1.23,2.47-1.66,.63-.31,1.42-.3,2.21-.45-.11-.24-.13-.42-.23-.5-1.29-1.08-3.96-1.01-5.2,.16-1.5,1.42-2.93,2.93-4.47,4.3-.78,.69-1.76,1.15-2.63,1.74-.5,.34-1.07,.66-1.39,1.14-.35,.53-.43,1.24-.68,1.85-.08,.19-.32,.3-.49,.45-.31,.27-.69,.5-.9,.84-.28,.47-.39,1.04-.64,1.54-.7,1.41-.52,3.22,.44,4.42,.29,.37,.66,.79,.71,1.21,.17,1.48,1.06,2.13,2.39,2.4,.31,.06,.61,.19,.92,.24,.48,.08,.96,.12,1.44,.17,.04-.5,.16-1.01,.09-1.49-.18-1.28-.45-2.55-.69-3.83,.68,.84,1.19,1.74,1.55,2.7,.48,1.27,.85,2.57,1.25,3.87,.31,1,.89,1.18,1.8,.72l-1.74-4.52,.35-.14c.67,1.49,1.34,2.99,1.95,4.33,2.05,.44,3.96,.84,5.96,1.27-.54,1.16-1.25,.95-1.98,.87-1.28-.15-2.59-.41-3.85-.29-1.85,.18-3.29-.47-4.85-1.34-1.44-.8-3.16-1.24-4.81-1.48-1.22-.17-2.05,1.82-1.28,2.84,.45,.6,1.03,1.11,1.47,1.72,1.78,2.48,2.72,5.21,2.48,8.31-.03,.39,.07,.97,.32,1.15,.83,.61,1.77,1.08,2.6,1.56,.35-1.2,.11-2.26-1.24-2.98,1.06-.11,.94-.57,.77-1.21-.21-.78-.22-1.6-.32-2.41l.41-.11c.24,.63,.53,1.25,.71,1.9,.19,.68,.09,1.51,.44,2.07,.78,1.24,1.76,2.35,2.67,3.5,.35,.45,.75,.86,1.13,1.29l-.18,.2-1.31-.73c.23,2.22,.6,4.22,2.15,5.83-1.09-.73-2.35-1.2-2.49-2.77-.1-1.06-.33-2.13-.66-3.14-.24-.75-.73-1.43-1.1-2.14l-.4,.19c.65,1.27-.79,3.04,1.13,4.14-.16,.5-.42,1.09-.52,1.71-.1,.64-.02,1.31-.02,2.05-.97,.76-1.17,2.83-.09,4.43,.57,.85,1.44,1.61,2.34,2.1,1.36,.75,2.6-.08,3.39-.6l5.56,2.3-.24,1.14c.5,.06,1,.15,1.5,.18,.76,.04,1.62-.16,2.28,.11,1.33,.55,2.55,1.35,4,2.14,.21-1,.41-2.02,.66-3.02,.09-.35,.26-.85,.52-.94,.27-.09,.81,.13,1,.38,.44,.58,.81,1.24,1.09,1.91,.34,.82,.56,1.68,.83,2.53l.51-.1c-.05-.48-.07-.96-.17-1.43-.48-2.32-1.22-4.61-1.42-6.95-.18-2.11,.21-4.28,.36-6.42,.13-1.84-.61-2.57-2.34-1.97-1.19,.42-1.58-.22-2.09-.94-.25-.35-.5-.7-.94-1.32l-.09,1.36c-.72-1.84-1.52-3.88-2.32-5.92,.85,1.16,1.56,2.39,2.22,3.65,.54,1.02,1.85,1.59,2.97,1.22-.76-1.44-1.89-2.73-1.45-4.59,.07-.31-.46-.94-.85-1.14-1.07-.54-2.2-.94-3.33-1.36-.33-.12-.91,0-1.02-.19-.54-.96-.97-1.99-1.41-3-.61-1.42-1.17-2.85-1.79-4.27-.45-1.03-1.15-1.5-2.17-.74l-1.69-1.84c.97-.12,1.72-.22,2.68-.34-1.32-2.14-2.49-4.03-3.66-5.93l.3-.31,1.69,2.23,.36-.25c-.58-1.15-1.17-2.31-1.75-3.46l.2-.1c.61,.64,1.22,1.28,1.84,1.94,1.9-1.01-.35-2.17,.23-3.19l.69,.26c.66-.97-1.14-1.49-.49-2.48l2.17,1.94,.1-1.18,1.56,.37,.13-.35-2.57-1.48,.18-.33c1.49,.64,2.98,1.27,4.71,2l.9-.44c-.38-.58-.75-1.12-1.04-1.57l3.23,.73c.14-.82,.24-1.38,.34-1.94,.83,.38,1.65,.76,2.29,1.06l-.53,1.04-2.36,.43c1.62,1.05,3.06,.42,4.44,.16,1.96-.37,3.88-.96,5.82-1.41,1.31-.3,1.81-1.17,1.46-2.41-.68-.09-1.28-.1-1.85-.26-.87-.25-1.71-.64-2.58-.9-.16-.05-.41,.2-.75,.37,1.72,.65,3.2,1.21,4.68,1.77-1.11,.66-2.08,.95-3.06,.18-.33-.26-.8-.34-1.19-.53-.82-.38-1.59-.66-1.88,.87-.27-.23-.44-.43-.46-.65-.08-.8-.59-.92-1.26-.95-.4-.02-.79-.25-1.2-.31-.32-.05-.8-.12-.94,.05-.18,.22-.19,.69-.09,1,.04,.14,.52,.15,.81,.19,.17,.02,.35-.03,.53-.05l.02,.35h-1.9Zm78.5-12.92c-.54,.82-1.13,1.4-2.16,1-.12-.05-.47,.17-.53,.33-.27,.68-.46,1.38-.7,2.1l-1.06,.07,.25,.24c-.66,1.07-1.11,2.43-2.04,3.12-.95,.71-1.19,1.32-1.08,2.35,.26,2.37-.51,4.51-1.59,6.57-.16,.31-.29,.75-.2,1.07,.4,1.38,1.51,2.71,.21,4.18-.02,.02,0,.08,0,.12-.16,1.46-.4,2.92-.45,4.39-.04,1.09-.53,1.91-1,2.84-.45,.88-1.1,2,.11,2.96,.22,.17,.35,.55,.37,.84,.07,.96,.38,1.49,1.49,1.31,.27-.04,.62,.45,.94,.69-.23,.27-.42,.61-.7,.79-.92,.58-1.88,1.09-2.85,1.65,1.13,1.32,1.12,1.79-.14,2.68-1.15,.81-1.84,2.1-1.6,3.2,.24,1.09,.1,1.92-.38,2.68-2.24,3.48-1.55,7.11-.67,10.76,.06,.26,.32,.64,.54,.67,.89,.13,1.8,.17,2.7,.18,.75,.01,1.51-.08,2.26-.09,1.89-.02,3.79,.03,5.68-.05,1.91-.09,3.8-.37,5.71-.47,3.5-.19,7.01-.3,10.51-.47,.7-.03,1.41-.13,2.09-.29,.42-.1,.98-.29,1.17-.62,1.74-3.06,2.17-6.46,2.37-9.88,.09-1.52-.08-3.06-.17-4.59-.05-.86-.07-1.75-.29-2.58-.29-1.12-.1-2.07,.36-3.11,.52-1.17,.99-2.42,1.14-3.68,.19-1.67,.05-3.38,.05-5.12l.89,.45c-.04-.51-.3-.83-.5-1.18-.21-.36-.48-.74-.53-1.14-.13-.99-.12-2-.23-2.99-.06-.5-.22-.99-.41-1.46-.75-1.88-2.92-3.04-2.72-5.42,.02-.21-.3-.46-.48-.66-1.18-1.32-2.24-2.66-3.89-3.57-1.49-.82-2.63-2.29-3.87-3.51-.75-.73-1.41-1.27-2.09,.11-1.05-.68-1.68-2.05-3.17-1.57-.05,.01-.14-.07-.19-.13-.63-.78-1.32-1.53-1.88-2.37-.48-.71-.81-1.52-1.26-2.4ZM327.99,24.23c.56-.32,1.11-.45,1.24-.75,.34-.76,.76-.85,1.38-.43,1.3,.89,2.59,1.8,3.87,2.71,.47,.34,.91,.73,1.43,1.14,.33-.42,.65-.69,.79-1.04,.5-1.17,1.25-1.14,2.23-.63,.36,.19,.84,.15,1.26,.23,.66,.13,1.32,.27,1.97,.43,.4,.1,.89,.49,1.16,.36,1.41-.68,2.97-1.25,4.07-2.3,.91-.86,1.8-1.36,2.95-1.6,.17-.04,.31-.27,.52-.47-1.24-.73-2.41-.9-3.73-.65-1.56,.3-3.17,.37-4.75,.54l-.06-.47,3.99-.73c-.72-.64-1.45-1.3-2.19-1.94-.96-.83-1.94-1.36-3.34-1.23-1.94,.18-3.92,.22-5.85,0-1.04-.12-1.78,.02-2.64,.51-.73,.42-1.64,.53-2.46,.78l-.09-.33,.94-.36-.07-.28c-1.28,.17-2.57,.47-3.85,.46-1.49-.01-2.23,.76-2.76,1.79,.55,.95,1.03,1.76,1.56,2.68-1.67,.57-.94,2.17-1.53,3.35,1.47-.35,2.73-.65,4.03-.96l-.07-.82Zm-184.58,57.83c.12,.58,.16,1.06,.31,1.51,.47,1.4,1.74,1.77,3.02,.98,.5-.31,1.13-.39,1.64-.69,1.5-.88,3.72-.52,4.34-2.96,.34-1.33,.41-1.86-.81-2.64-.63-.41-1.03-1.16-1.52-1.77-.12-.15-.11-.39-.23-.52-.66-.69-1.39-1.61-2.38-1.18-.44,.19-.67,1.28-.67,1.96,0,1.13-.53,2.05-1.46,2.18-2.08,.3-1.57,2.1-2.23,3.14Zm-33.34-2.35l-.33-.28c-3.29,.88-6.58,1.76-9.87,2.64,.07,.66-.1,1.01-.98,.89-1.12-.16-2.27-.15-3.56-.22,.74,.83,1.37,1.62,2.11,2.29,.26,.23,.82,.2,1.24,.18,1.01-.03,2.03-.2,3.04-.17,.94,.03,1.95,.54,2.8,.32,1.19-.3,1.88,.25,2.65,.85,.67,.52,1.29,1.11,1.93,1.66l.43-.13c-.63-2.74-.23-5.4,.54-8.03Zm60.2,22.95l-.43,.21c.53,1.48,1.07,2.95,1.59,4.43,.73,2.06,2.49,3.78,1.66,6.35-.25,.77,.26,1.94,.72,2.76,.4,.71,1.22,1.19,1.88,1.74,.17,.14,.46,.14,.85,.25-1.42-3.46-1.96-6.52-1.32-7.28,.09,.15,.2,.27,.23,.41,.4,1.56,.86,3.12,1.15,4.7,.2,1.12,.38,2.17,1.92,2.9-.15-.8-.2-1.32-.36-1.81-.45-1.38-.95-2.75-1.43-4.13l.35-.16,1.06,.4c-.44-.83-.78-1.34-.98-1.91-.16-.47-.37-1.1-.18-1.47,.48-.96,.28-1.76-.71-2.18-.3-.13-.6-.37-.8-.64-.66-.9-1.25-1.85-1.91-2.74-.14-.19-.48-.23-.73-.33,.02,.3-.06,.69,.09,.89,.63,.82,1.37,1.55,1.98,2.39,.25,.34,.27,.86,.4,1.29-.72-.4-1.22-.82-1.67-1.28-1.02-1.05-2.5-1.73-2.62-3.49-.03-.44-.48-.85-.74-1.28Zm-8.05,43.71c-7.31-.64-14.52,.02-21.74,.96,.68,.19,1.38,.27,2.07,.36,2.5,.34,4.99,.71,7.48,1.03,1.76,.23,3.67,1.05,5.1-.7,.66-.82,1.37-1.01,2.36-1.05,1.58-.08,3.15-.38,4.73-.59ZM305.48,32.76l-.06,.54,7.27,1.73,.11-.4-1.25-.62c2.09-.33,4.38,1.51,6.19-1.04-1.83-1.46-4.08-1.58-6.19-2.05-.16-.03-.48,.37-.61,.62-.15,.3-.17,.67-.31,1.28-.77-.23-1.5-.34-2.13-.66-.97-.49-1.33-.41-1.67,.55l-1.35,.06ZM100.25,94.43c-.55-1.2-.98-2.35-1.57-3.4-.97-1.73-1.09-4.08-3.45-4.82-.34-.11-.69-.21-1.03-.31,.05,.4-.03,.91,.19,1.18,.29,.35,.79,.54,1.23,.73,.4,.17,.84,.25,1.26,.37l-.1,.57h-3.69l1.77,1.22-1.01,.41c1.09,.61,2.08,1.13,3.04,1.72,.54,.33,1.33,.69,1.45,1.18,.31,1.19,1.07,1.14,1.91,1.14Zm9.45-2.09l1.82-.32c-.32-2.51-2.44-3.11-3.95-4.23-.08,.83-.21,1.62-.22,2.41-.02,1.26-.06,2.54,.11,3.79,.14,1.05,1.02,1.3,1.65,.48,.39-.5,.38-1.31,.59-2.12Zm96.42,54.62c1.62,.72,3.19,1.87,4.87,2.05,1.77,.2,3.64-.51,5.47-.83-3.37-1.16-6.7-2.32-10.34-1.23Zm-30.05-49.5l.18-.1c-.42-.65-.86-1.29-1.25-1.95-.42-.71-.77-1.46-1.19-2.17-.47-.8-.76-1.95-2.14-1.29-.06,.03-.19-.08-.28-.13l.35-.03c.05-.36,.18-.74,.12-1.07-.07-.37-.37-.7-.47-1.07-.24-.92-.43-1.86-.64-2.8l-.45,.1c.12,.59,.35,1.18,.33,1.77-.03,1.17-.41,2.36,.26,3.45,.71,1.16,1.37,2.41,2.3,3.38,.78,.81,1.91,1.28,2.88,1.9ZM322.61,29.59c-.7-1.32-1.79-2.03-3.13-2.35-.39-.09-1.07-.06-1.23,.18-.34,.51-.61,1.2-.55,1.78,.07,.68,.46,1.37,.86,1.94,.19,.27,.86,.51,1.11,.38,.99-.54,1.9-1.23,2.94-1.93Zm3.38-1.27v.03c-.52,0-1.06-.09-1.55,.03-.3,.08-.53,.47-.79,.73,.26,.17,.52,.46,.79,.48,.83,.06,1.68,.05,2.51,0,2.69-.2,4.07-1.51,4.34-4.16,.03-.26-.19-.7-.4-.79-.3-.12-.91-.12-1.02,.06-.46,.73-1.05,1.53-1.07,2.32-.03,1.02-.47,1.25-1.26,1.3-.52,.03-1.04,0-1.56,0ZM48.56,98.39c1.74-1.59,3.47-3.17,5.4-4.94-1.18,.23-2.14,.46-3.11,.61-2.15,.32-3.2,2.28-2.3,4.33Zm144.09-1.92c0,.81,.02,1.38,0,1.94-.03,.83,.27,1.74-.88,2.22-.31,.13-.35,.92-.52,1.41l.36,.15c1.47-1.14,2.95-2.27,4.64-3.58-1.27-.75-2.3-1.37-3.6-2.14Zm-10.51,16.45c-.21-.45-.47-.89-.61-1.37-.54-1.94-1.05-3.89-1.57-5.84l-.54,.02c-.08,.73-.39,1.53-.19,2.17,.64,2.08,2.35,3.77,2.22,6.14,0,.13,.24,.27,.43,.49,1.09-1.08,1.21-2.39,1.37-3.72q-1.26-.04-1.12,2.11Zm-3.64-16.46c.2-2.83-1.02-4.43-3.5-4.77,1.16,1.58,2.23,3.05,3.5,4.77Zm4.99,6.75c-2.19,2.03-2.56,3.47-1.51,5.58,.21-1.1,.34-2.06,.59-2.99,.24-.88,.6-1.73,.91-2.59Zm35-6.59c.26,1.2-1.79,2.35,.05,3.69,.26-1.43,1.62-2.36,1.22-3.98l-1.27,.29Zm-58.61-6.77c-.13-1.63-.25-3.02-.37-4.42h-.25l-.38,.9-.98-.16c0,.32-.08,.56,.01,.7,.58,.93,1.2,1.83,1.97,2.98Zm-59.12-1.29c.81,1.58,1.52,2.94,2.32,4.49,.72-1.97,.18-2.96-2.32-4.49Zm66.76-2.04c-.32,1.3,.14,2.13,1.86,3.37q.33-1.47-1.86-3.37Zm-79.44,10.58c-.07-1.94-.28-2.13-2.32-2.21q-.13,.81,2.32,2.21Zm220.95-62.6l-3.96-.62c.83,1.58,2.06,1.74,3.96,.62ZM51.62,138.44l-2.71,3.07c3.03-.39,2.63-.05,2.71-3.07Zm126.32-11.48h-.47c.08,.49,.13,.99,.25,1.47,.29,1.13,.62,2.26,.93,3.38,.06,.22,.14,.43,.25,.79,.97-2.26-.32-3.88-.96-5.64Zm36.37-11.84c-1.37,.59-1.77,1.35-1.58,2.86,1.41-.45,1.84-1.2,1.58-2.86Zm-34.59-16.13c1.56-1.01,1.49-2.02,0-2.96v2.96Zm1.57,.03c0,.54-.14,1.08,.02,1.2,.61,.42,1.31,.7,1.98,1.04l.33-.56c-.71-.51-1.43-1.02-2.33-1.67Zm122.5-62.78c1.25,.75,1.91,.6,2.84-.48-1.23-1.33-1.73,.55-2.84,.48ZM111.36,168.25c-.65,.12-1.27,.21-1.86,.37-.18,.05-.43,.29-.44,.45,0,.16,.23,.38,.41,.48,.95,.54,1.28,.31,1.89-1.29Zm29.57-73.3l-.4,.06c.16,1.14,.31,2.28,.47,3.41l.39-.06c.03-1.16,.23-2.35-.46-3.41Zm-40.12-1.6l.4-.2c-.54-1.24-1.08-2.49-1.62-3.73l-.44,.2c.55,1.24,1.11,2.48,1.66,3.73Zm5.73-4.02l.22-.32c-.49-.21-1.04-.69-1.45-.58-.56,.14-1.13,.68-.58,1.38l1.81-.48Zm47.28-5.21l-.26,.14,.66,1.77,1.29-.99-1.69-.92Zm-59,10.43c.49-2.11,.86-2.04-.95-2.59l.95,2.59Zm90.05,8.4c.46,.82,.93,1.64,1.39,2.46l.41-.23c.24-1.21-1.18-1.5-1.8-2.23Zm-84.37-16.99c.45,1.32,1.48,2,2.34,1.85-.39-.31-.77-.63-1.17-.94-.39-.31-.78-.61-1.17-.91Zm81.86,48.37l.93,.35c.09-.8,.15-1.42,.22-2.04l-.29-.06c-.26,.53-.53,1.06-.87,1.75Zm-16.2-49.95c-.85,1.1-.7,1.64,.75,2.4l-.75-2.4Zm9.15,12.86c-.33,.95,.29,1.86,1.5,2.1l-1.5-2.1Zm4.7,42.22l-.76-2.03c-.29,.87-.68,1.77,.76,2.03Zm-93.78-37.35l-.24-.61-1.41,.51c.11,.19,.25,.56,.31,.54,.46-.11,.89-.29,1.34-.45Zm81.86-17.16l.44,1.94c.17-.05,.49-.13,.49-.14-.13-.59-.28-1.17-.44-1.75,0-.03-.14-.02-.49-.06Zm116.65-50.63l-.2-.45c-.8,.43-1.6,.85-2.4,1.28l.18,.34,2.42-1.17ZM121.8,127.62c.07,.58-.01,1.09,.18,1.23,.3,.23,.79,.21,1.2,.29l.16-.37-1.54-1.15ZM46.47,45.05l-2.13,1.62c1.15,.26,1.58-.05,2.13-1.62Z"/><path d="M92.89,51.89c.78,.08,.63-.36,.47-.82-.13-.36-.46-.8-.35-1.07,.52-1.33-.52-1.6-1.28-2.15-.75-.55-1.4-1.24-1.99-1.97,3.41,.48,5.05,2.74,5.76,5.62-.15,.64-.35,1.28-.43,1.92-.07,.59-.02,1.19-.02,1.88l-.88,.24c.85,.6,.98,1.81,2.3,1.45,.15-.04,.44,.43,.66,.66-.31,.17-.69,.55-.91,.47-.76-.27-1.47-.7-2.15-1.04,.13,.97,.27,1.99,.41,3.01l-.42,.2-2.01-3.06c-.6,.85-.39,2.3,.53,3.48-1.53,1.36-2.51,1.36-3.18,.1-.71,.47-1.45,.93-2.15,1.43-.61,.44-1.18,.93-1.83,1.45l.24,1.04c-1.79-.33-3.55-.62-5.29-.98-.39-.08-.79-.37-1.09-.67-1.01-.98-1.95-2.04-2.97-3-.39-.37-.99-.5-1.41-.84-.61-.51-1.15-1.11-1.74-1.7l.95-.23c.26-.7-.63-1.05-1.58-.69-.29,.11-.58,.24-.93,.38l-.66-1.05,1.06-1.19c2.52-.03,3.21,2.14,4.55,3.48l.31-.3c-.29-.37-.65-.7-.86-1.11-.16-.3-.13-.7-.18-1.06,.28,.13,.63,.19,.84,.39,.51,.5,1.05,1.01,1.39,1.62,.72,1.32,1.83,2.03,3.21,2.48,.63,.21,1.2,.61,1.79,.94,1.24,.7,1.8,.52,2.67-.72,.94-1.34,1.81-2.77,2.96-3.9,.9-.89,2.2-1.36,3.29-2.07,.29-.19,.45-.55,.8-.99h1.91c-.72-.69-1.24-1.18-1.75-1.67l-.03,.03Z"/><path d="M75.02,77.05c1.16,.55,3.08,.13,3.02,2.26-1.59-.21-3.16-1.97-5.07-.13l3.03,.97-.12,.39-2.59-.78-.16,.29,2.37,1.38c-1.05,.64-1.85-.1-2.65-.18-.86-.09-1.71-.28-2.61-.2l2.15,.58-.05,.44-2.89-.31-.02,.1c.44,.14,.91,.22,1.31,.45,.27,.16,.44,.51,.65,.77-.33,.21-.64,.5-1,.62-.27,.09-.61-.04-1.14-.1l1.09,.77-2.93-.45-.1,.6,3,.62,2.08-1.99c-1.29,2.48-1.56,5.12-1.95,7.7-.16-1.08-.08-2.29-.58-3.18-.31-.56-1.49-.63-2.45-.98,.14,1.74,1.46,1.34,2.28,1.67l-.09,.28c-1.03-.19-2.09-.29-3.08-.6-.39-.12-.85-.69-.89-1.09-.15-1.46-.2-2.93-.15-4.4,.02-.56,.46-1.1,.62-1.67,.38-1.44,.74-2.89,1.06-4.34,.42-1.94,1.85-2.42,3.56-2.73,.9-.16,1.76-.68,2.59-1.13,1.45-.79,2.86-1.67,4.31-2.46,.26-.14,.89-.13,.99,.04,.37,.59,.8,.87,1.48,.76,.05,.34,.27,.85,.12,.99-.83,.82-1.28,.83-2.46,.25l-1.67,2.49,3,.8c-1.15,.61-2.38-1.21-2.97,.65l1.42,.55-.04,.16-2.32-.33-.14,.5Zm-5.53,.08l.3,.46c2.98,.46,3.63-2.31,5.25-3.74l-.26-.37c-1.76,1.22-3.53,2.44-5.29,3.65Zm.82,9.11l.08-.35c-1.29-1.03-2.3-1.19-3.53-.19,1.34,.21,2.39,.37,3.44,.54Z"/><path d="M171.42,184.32c6.94,.27,15.77,.17,17.79-.46,.56-2.3,1.71-3.19,4.59-3.43,2.65-.22,5.32-.26,7.96-.59,1.92-.24,3.82-.72,5.68-1.27,2.51-.74,4.99-1.6,7.44-2.5,.6-.22,1.07-.79,1.6-1.19-.56-.62-1-1.53-1.69-1.8-1.68-.65-3.47-1.06-5.24-1.45-.98-.21-.94-.62-.39-1.17,.48-.49,1.07-.86,1.78-1.42-.09,.74-.34,1.36-.14,1.58,.29,.33,.89,.46,1.37,.54,.9,.15,1.88,.03,2.7,.35,.87,.34,1.85,.9,2.31,1.65,1.45,2.34,1.37,2.41-1.27,3.36-2.54,.92-5.09,1.77-7.63,2.68-1.17,.42-2.17,1.21-3.54,1.19-1.42-.02-2.84,.18-4.25,.37-2.68,.36-5.35,.77-8.02,1.16-.95,.14-1.27,.86-1.3,1.63-.05,1.14-.77,1.44-1.65,1.46-3.12,.09-6.24,.19-9.36,.15-2.52-.04-5.04-.27-7.56-.46-.4-.03-.78-.24-1.17-.37Z"/><path d="M.91,163.97c1.94,1.79,4.29,1.27,6.46,.92,2.66-.43,5.19-.5,7.72,.54,.85,.35,1.79,.5,2.66,.8,1.7,.59,2.98,1.72,4.18,3.05,.92,1.02,2.2,1.5,3.67,1.46,1.87-.06,3.74-.01,5.61,.06,.54,.02,1.15,.18,1.59,.47,1.64,1.1,3.45,.93,5.17,.54,3.29-.74,6.58-1.02,9.95-1.06,5.42-.05,10.78,.72,16.16,1.13,.82,.06,1.66-.06,2.49-.09,.37-.01,.74,0,1.15,.26-.19,.08-.38,.22-.57,.22-3.2-.06-6.39-.12-9.59-.23-2.69-.09-5.39-.29-8.08-.33-2.49-.03-4.99,.03-7.48,.18-1.25,.07-2.49,.45-3.74,.61-1.43,.19-2.87,.33-4.3,.42-.36,.02-.83-.17-1.09-.43-.83-.85-1.9-.87-2.94-.93-1.59-.1-3.19-.3-4.76-.15-1.95,.18-3.27-.91-4.45-2.03-2.52-2.4-5.7-3.08-8.89-3.73-1.08-.22-2.29,.04-3.4,.28-2.5,.53-4.89,.22-7.18-.81-.32-.14-.48-.63-.72-.95l.4-.22Z"/><path d="M128.43,62.74s.21-.09,.54-.24c-.69,1.33-.38,2.98,.79,4.01v-1.61l.27-.03,.59,1.86c-1.53,.09-.89,1.18-1,1.59,.56,.37,1.28,.6,1.33,.92,.21,1.51,.23,3.05,.32,4.58l-.58,.08c-.3-1.38-.6-2.77-.9-4.2q-.59,.77-.54,3.34c-.5-1.08-1.11-2.13-1.48-3.26-.66-2.01-1.77-3.76-2.87-5.54-.76-1.23-1.19-2.66-1.84-3.96-.19-.37-.57-.77-.95-.9-1.06-.37-1.92-.85-2.4-1.96-.13-.31-.81-.47-1.26-.51-.24-.02-.52,.37-.78,.57,.28,.3,.56,.59,.83,.9,.29,.34,.67,.67,.8,1.07,.25,.82,.36,1.68,.53,2.52l-.31,.13c-.2-.38-.39-.76-.61-1.13-.52-.86-1.08-1.7-1.59-2.57-.25-.42-.57-.87-.59-1.32-.07-1.44-.08-1.49-1.41-1.08-.56-.73-1.12-1.46-1.81-2.36,2.59,1.14,4.9,2.03,7.48,.96,.73-.31,1.44-.31,1.61,.82l-2.75,.93c.77,.66,1.24,1.4,1.81,1.49,1.42,.24,1.98,1.19,2.5,2.3,.47,1.02,.96,2.03,1.47,3.12l.91-1.89,1.93,1.39Z"/><path d="M92.92,51.85l-2.07-.8-.39,2.76-.61-.08c0-.96,.1-1.89-.04-2.79-.08-.52-.56-.98-.79-1.49-.68-1.5-.95-3.34-3.25-3.56l1.79,2.12-.18,.34c-1.91-2.63-4.67-3.28-7.57-3.6-.11-.01-.25,.33-.38,.51l3.39,1.36-.07,.26c-.81-.19-1.62-.46-2.45-.56-1.26-.15-2.54-.2-3.81-.25-1.07-.04-1.52,.65-1.75,1.6-.14,.57-.33,1.13-.53,1.78l1.14,.36c-.38,.99-.76,1.97-1.28,3.33-.11-.94-.21-1.56-.26-2.18-.03-.45,.2-1.01-.64-.93-.12,.01-.35-.31-.41-.52-.4-1.24,1.33-4.5,2.45-4.96l1.18,.66c.4-.81,.62-1.32,.9-1.8,.3-.5,.63-.99,1.02-1.43,.2-.22,.54-.31,.82-.45,.03,.32,.19,.74,.05,.95-.58,.84-1.25,1.62-1.79,2.68,.28-.15,.6-.26,.84-.46,.53-.46,.96-1.11,1.56-1.43,.5-.26,1.18-.84,1.8,.16,.23,.37,1.08,.36,1.74,.55l.33-.94c2.22,.31,4.17,.93,5.29,3.01,.09,.17,.25,.31,.4,.44,1.7,1.46,3.12,3.11,3.54,5.41l.03-.03Z"/><path d="M134.35,181.11l1.5,.74,.49-.21c-.32,.21-.63,.47-.98,.62-.95,.41-2,.64-2.86,1.17-1.54,.95-3.24,.55-4.85,.83-3.15,.55-6.24,.03-9.36-.08-3.38-.12-6.76-1.3-10.15-.11-.92,.33-1.83,.72-2.75,1.03-1.35,.46-1.97,.06-2.1-1.31-.24-2.55-.33-2.56-2.91-2.3-2.05,.21-4.12,.43-6.16-.21-.41-.13-.87-.11-1.31-.1-2.64,.08-5-.78-7.2-2.14-.22-.14-.38-.39-.74-.79,1.8-.72,3.45-1.26,5.12-.9-1.04,.27-2.22,.57-3.67,.94,1.21,1.36,2.6,1.83,3.94,2.01,3.3,.45,6.62,.9,9.96,.18,.89-.19,1.88-.15,2.79,0,.87,.15,1.24,.9,1.29,1.79,.11,1.87,.6,2.23,2.35,1.43,2.24-1.02,4.51-1.08,6.88-.79,1.54,.18,3.11,.19,4.66,.28,1.94,.11,3.88,.3,5.82,.33,3.07,.05,6.12-.07,8.96-1.49,.82-.41,2.06-.24,1.77-1.89l-.5,.96Z"/><path d="M184.21,43.81s.09,.02,.12,0c1.19-.72,2.38-1.44,3.57-2.17l.33,.73c-.68,.81-1.21,1.63-1.92,2.24-.68,.59-.83,1.16-.62,1.99,.1,.4,.1,1-.13,1.27-1.96,2.27-1.9,5.04-2.09,7.77-.04,.66-.35,1.6-.83,1.85-.79,.42-1.55-.13-1.98-.95-.58-1.12-1.15-2.24-1.75-3.35-.14-.25-.37-.48-.61-.66-1.06-.83-1.13-2.04-.39-3.14,.76-1.14,1.33-2.39,1.95-3.61,.88-1.74,2.69-1.71,4.21-2.24,.01,0,.09,.19,.15,.29-.33,.26-.63,.56-.99,.76-.75,.4-1.84,.55-2.23,1.16-.78,1.2-1.21,2.64-1.72,4-.1,.26-.03,.78,.15,.9,1.02,.7,1.31,1.72,1.57,2.85,.19,.86,.62,1.66,.94,2.48l.44-.13c0-.34,.07-.69-.01-1.01-.59-2.15,.16-4.07,.98-5.97,.29-.68,.85-1.31,.94-2.01,.14-1-.04-2.04-.08-3.06Z"/><path d="M51.75,146.18c-.51-.03-1.07,.07-1.52-.11-2.64-1.09-5.27-.43-7.85,.11-3.81,.8-7.62,1.25-11.47,.55-1.43-.26-2.73-.11-4.1,.16-2.16,.43-4.33,.84-6.52,1.08-.57,.06-1.21-.53-1.82-.82l.07-.53c.92,0,1.88-.16,2.76,.04,.88,.2,1.56,.04,2.4-.22,2.99-.94,6-1.46,9.22-.9,2.2,.38,4.53,.2,6.78,.02,2.34-.18,4.64-.88,6.98-.95,1.71-.04,3.44,.58,5.17,.9l-.08,.65Z"/><path d="M141,50.71c-.59-1.14-1.27-2.25-1.76-3.44-.36-.87-.48-1.83-.7-2.76-.21-.91,.22-1.41,1.06-1.72,1-.37,2.04-.72,2.92-1.29,.53-.34,.93-1.07,1.09-1.69,.05-.2-.87-.64-1.34-.98-.57-.42-1.18-1.01-.61-1.65,.95-1.05-.08-1.59-.42-2.27-.35-.71-.93-1.12-1.86-.95-1.23,.23-2.49,.33-3.73,.48l-.19-.27c.2-.27,.33-.67,.59-.78,3.77-1.55,5.28-1.15,7.1,2.7,.51,1.07,.8,2.21,1.62,3.15,.48,.56,.44,1.23-.04,1.97-.91,1.39-2.04,2.29-3.75,2.42-1.04,.08-1.68,1.68-1.18,2.98,.5,1.31,1.09,2.59,1.64,3.88l-.43,.22Z"/><path d="M88.02,144.99c1.77,.2,3.54,.32,5.29,.62,1.21,.21,2.45,.52,3.54,1.05,1.98,.96,3.86,.59,5.76-.09,2.37-.84,2.46-.82,4.12,1.06,.44,.49,.96,.8,1.69,.45,1.73-.84,3.52-.33,5.29-.14,.25,.03,.45,.44,.67,.68l-.12,.38c-.51-.03-1.03,.01-1.52-.09-1.62-.33-3.21-.56-4.83,.12-.68,.28-1.3,.15-2-.5-1.51-1.41-1.59-1.41-3.44-.76-2.42,.85-4.85,1.24-7.4-.24-1.6-.93-3.66-1.06-5.51-1.55-.56-.15-1.13-.31-1.69-.47l.13-.51Z"/><path d="M157.78,171.57c3.33-.95,6.58-.33,9.87,.28,1.95,.36,4,.15,6.01,.2,3.76-2.25,7.9-1.08,11.88-1.23,1.54-.06,3.1,.61,4.65,.96,.17,.04,.3,.22,.44,.34l-.07,.34c-1.1-.08-2.26,.03-3.29-.28-1.91-.56-3.78-.5-5.71-.33-1.16,.11-2.34-.01-3.51-.02-.24,0-.52-.02-.7,.1-2.6,1.71-5.46,1-8.21,.77-2.15-.18-4.27-.86-6.42-1.1-1.63-.18-3.29-.04-4.94-.04Z"/><path d="M141.87,188.72c.26-.18,.61-.62,1-.65,1.5-.15,3.02-.35,4.5-.21,3.01,.29,5.98,.86,8.99,1.2,1.4,.16,2.84-.05,4.26,.03,2.06,.11,4.13,.21,6.16,.53,3.09,.49,6.15,1.17,9.22,1.79,.33,.07,.64,.2,.92,.52-1.21-.09-2.42-.11-3.62-.29-3.2-.47-6.38-1.13-9.59-1.47-3.11-.33-6.27-.27-9.39-.55-2.71-.24-5.39-.79-8.09-1.05-1.42-.13-2.87,.09-4.36,.15Z"/><path d="M195.02,129.42c.31-.34,.61-.74,.97-1.07,.24-.21,.57-.31,.87-.46,.08,.32,.32,.75,.2,.94-.56,.88-1.2,1.72-1.87,2.52-.06,.07-.59-.12-.79-.31-1.26-1.17-2.54-2.32-3.71-3.57-.71-.76-1.29-1.65-1.81-2.56-.33-.57-.6-.8-1.3-.7-.4,.05-1.02-.23-1.28-.56-1.25-1.6-1.58-3.43-1.1-5.41,.15-.62,.24-1.24,.39-2.01,1.05,.67,.84,1.36,.67,2.06-.32,1.32-.34,2.63,.46,3.79,.19,.28,.66,.5,1.02,.51,1.15,.06,1.86,.52,2.36,1.62,.58,1.28,1.39,2.45,2.17,3.63,.33,.5,.71,1.05,1.56,.73,.2-.08,.64,.45,1.17,.86Z"/><path d="M105.09,72.32c-2.15,1.11-4.29,2.23-6.45,3.32-.8,.41-1.69,.68-2.44,1.17-.32,.21-.34,.83-.56,1.23-.17,.32-.36,.69-.64,.88-.47,.3-1.02,.46-1.54,.68l.06,.36c-.19-.11-.4-.21-.58-.35-.71-.56-1.17-.37-1.63,.39-.41,.68-.99,1.26-1.49,1.88l-.51-.33c.23-.44,.41-.92,.72-1.3,.79-.94,1.67-1.81,2.44-2.77,.19-.23,.09-.69,.13-1.11l1.05-.45-1.37-2.4,.35-.23c.77,.64,1.5,1.35,2.33,1.89,.36,.23,.99,.29,1.4,.15,2-.67,3.98-1.39,5.93-2.18,.88-.36,1.67-.93,2.51-1.4l.29,.55Z"/><path d="M181.26,161.98c1.65,1,3.14-.08,4.68-.13,1.75-.06,3.52,.35,5.28,.45,2.76,.15,5.53,.2,8.29,.31,.75,.03,1.5,.15,2.24,.22,1.01,.1,2.02,.21,3.21,.33-.66,.94-1.58,.6-2.28,.6-3.3,.02-6.61-.03-9.91-.14-1.43-.05-2.89-.13-4.25-.5-1.39-.38-2.64-.01-3.97,.13-.95,.1-1.96-.15-2.92-.33-.19-.03-.33-.42-.49-.64l.12-.32Z"/><path d="M217.96,162c1.16-.21,2.31-.46,3.48-.61,2.72-.37,5.28,.61,7.91,1.03,3.3,.52,6.61,1.02,9.95,.18,.19-.05,.4-.02,.59,0,.11,.01,.2,.1,.5,.25-.3,.26-.5,.59-.75,.63-1.89,.29-3.79,.73-5.68,.7-1.68-.03-3.34-.65-5.02-.94-2.22-.39-4.44-.83-6.68-1.02-1.39-.12-2.82,.19-4.24,.3l-.07-.52Z"/><path d="M155.31,63.5c-2.57-1.41-3.32-1.81-3.53,.38-1.41-1.55-2.88-3.17-4.34-4.78l.18-.26c.41,.27,.93,.45,1.21,.82,.74,.98,1.33,2.06,2.89,1.47,.29-.11,.74,.2,1.11,.33,.4,.14,.78,.3,1.18,.45l.36-.2-.97-3.28c.8,.4,1.41,.8,2.08,1.01,.6,.19,1.27,.17,1.91,.25-.06-.72-.02-1.48-.22-2.16-.2-.68-.84-1.31,.06-1.92,.51,1.33,1.03,2.61,1.49,3.9,.28,.8,.1,1.32-.92,1.23-.81-.07-1.62-.05-2.43-.06,.06,.81,.12,1.62,.16,2.43,0,.1-.1,.21-.2,.4Z"/><path d="M160.47,17.01c.17-.36,.22-.78,.42-.87,2.44-1.02,4.9-2,7.47-3.03l-.4,1.25c.44-.04,.79-.03,1.11-.11,.54-.13,1.07-.48,1.6-.45,1.37,.07,4.12,1.87,5.03,3.19-2.53-.64-4.99-1.75-7.46-1.76-2.49,0-4.98,1.09-7.76,1.77Z"/><path d="M161.92,185.73c-1.58-.25-3.17-.4-4.73-.76-2.23-.51-4.42-1.19-6.64-1.73-1.38-.34-2.78-.78-4.18-.78-2.1,0-3.8-1.01-5.64-1.7-.58-.22-1.12-.57-1.61-1.09,.88,.28,1.76,.58,2.65,.83,1.37,.39,2.73,.8,4.11,1.11,2.74,.62,5.5,1.14,8.23,1.77,2.24,.52,4.47,1.12,6.7,1.7,.4,.1,.78,.26,1.17,.39l-.07,.26Z"/><path d="M87.48,149.77c-1.12,.17-2.24,.35-3.36,.51-.16,.02-.33-.04-.48,.01-.56,.19-1.11,.41-1.67,.63,.45,.62,.78,1.58,1.37,1.8,1.88,.68,3.81,1.43,5.81,.09,1.17-.78,2.48-.54,3.77,.26-.33,.1-.65,.23-.99,.29-.69,.13-1.45,.1-2.09,.37-2.27,.94-4.55,.9-6.7-.15-.96-.47-1.74-1.38-2.43-2.23-.15-.18,.31-1.15,.72-1.43,.52-.36,1.26-.47,1.93-.55,1.07-.13,2.14-.15,3.22-.19,.29,0,.58,.11,.86,.16l.02,.42Z"/><path d="M180.88,157.21c-.51-.02-1.06,.07-1.52-.09-2.27-.76-4.58-1.06-6.98-.9-.43,.03-.88-.35-1.32-.54l.1-.36,2.85-.25,.03-.31-1.94-.78c1.42-.18,2.54-.38,3.66-.45,1.17-.07,1.58-.9,2.02-1.76,.26-.5,.55-.97,.83-1.46l.45,.15c-.24,1.09-.2,2.4-.82,3.2-.47,.61-1.79,.55-2.71,.85-.39,.13-.74,.42-1,.77,2.49-.7,4.22,1.32,6.38,1.46l-.03,.48Z"/><path d="M218.4,85.81c.92-.1,1.19-.38,.66-1-.55-.63-1.15-1.22-1.65-1.88-.3-.39-.44-.9-.51-1.48,1.63,.72,2.37,2.41,3.92,3.28l-1.4-2.36c1.08-.06,3.69,2.9,4.55,5.14-1.05-.26-1.96-.49-3.01-.75l-.07,1.41c-.87-.83-1.62-1.53-2.48-2.35Z"/><path d="M267.13,55c-1.27-.62-2.5-1.27-4.05-1.04-.51,.08-1.13-.49-1.56-.7,.51-.56,.82-1,1.22-1.34,.94-.81,1.86-1.66,2.91-2.31,.34-.21,1.05,.12,1.57,.29,1.05,.34,2.56,2.24,2.49,3.38-1.17-1.04-2.22-1.97-3.22-2.86l-1.56,1.21c1.1,.95,2.22,1.9,3.33,2.86l-.15,.2c-.46-.25-.91-.49-1.38-.73-.99-.82-1.94-1.72-3.25-1.86l-.23,.48,3.51,1.36c.11,.36,.22,.72,.33,1.09l.03-.03Z"/><path d="M63.78,37.14l1.76-.45c-.76,1.28-2.31,1.58-3.9,.79-.95,1.59-1.9,3.19-2.86,4.79l-.33-.12c.04-.26,.03-.56,.14-.79,.58-1.18,1.2-2.33,1.78-3.5,.17-.35,.31-.75,.31-1.12-.01-1.04,.73-1.93,1.98-2.22l-.67,2.34,.25,.05c1.55-1.44,3.11-2.87,4.66-4.31-.06,2.15-2.7,2.47-3.13,4.55Z"/><path d="M170.89,34.31c-1.16,.12-2.27,.4-3.33,.29-1.01-.11-2.2-.27-2.72-1.43-.43-.98-.16-1.84,.54-2.64,.65-.74,1.2-1.57,1.84-2.32,.15-.18,.47-.3,.71-.29,.93,.03,1.86,.11,3.04,.2-.22,.31-.37,.67-.65,.87-.22,.17-.6,.24-.88,.2-2.16-.31-2.75,1.32-3.42,2.79-.15,.33,0,.96,.26,1.25,.19,.22,.78,.24,1.14,.13,1.55-.46,2.53-.22,3.47,.96Z"/><path d="M37.38,92.96c-2.36,.3-4.84,.26-7.06,1.01-2.21,.74-4.15,2.27-6.31,3.37,1.13-1.79,2.63-3.34,4.56-4.19,2.84-1.25,5.85-.76,8.8-.49v.31Z"/><path d="M125.93,127.24c.61,.16,1.15,.28,1.67,.44,1.9,.56,3.12,2.17,3.17,4.14,.02,.94-1.25,2.69-2.25,3.06-.79,.29-1.33,.61-1.58,1.62-.14,.56-1.4,.88-2.21,1.17-.12,.04-.52-.66-.81-1.05,.71,.06,1.22,.17,1.71,.12,.61-.06,.77-.45,.94-1.09,.17-.62,.95-1.13,1.56-1.56,1.11-.79,1.86-2.72,1.41-3.87-.48-1.22-1.48-1.67-3.26-1.46-.86,.1-.93-.14-.35-1.5Z"/><path d="M102.11,52.21l3.33-2.48c-.37-.04-.93-.02-1.45-.16-.41-.11-.76-.42-1.14-.64,.23-.31,.39-.73,.69-.91,.93-.57,1.92-1.06,2.84-1.56-.07-1-1.82-1.27-1.1-2.46l2.97,2.1c-.66,1.07-1.73,1.36-2.73,1.77-.3,.12-.55,.34-.82,.52,.3,.2,.58,.46,.91,.58,.52,.19,1.08,.27,1.62,.4l-.02,.3-4.89,2.95-.2-.42Z"/><path d="M50.76,162.24c-1.85-.16-3.05-1.75-2.56-3.22,.09-.27,.47-.5,.77-.65,.38-.2,.81-.35,1.23-.45,1.92-.46,2.21-2.11,2.53-3.63,.11-.51-.36-1.16-.63-1.72-.18-.37-.48-.68-.78-1.1,1.43,.04,2.69,1.47,2.71,2.87,.02,2.45-.98,3.74-3.36,4.3-.84,.2-2.08,.21-2.05,1.21,.02,.66,1.04,1.3,1.62,1.94,.1,.11,.24,.2,.52,.44Z"/><path d="M125.16,118.85c-.22-.63-.51-1.24-.66-1.88-.22-.98,.72-3.08,1.48-3.44,1.03-.49,2.57,.03,3.46,1.2,.24,.31,.44,.66,.64,1,.75,1.3-.09,3.34-1.56,3.72-.16,.04-.47,0-.51-.1-.08-.18-.09-.46,0-.63,.13-.23,.37-.42,.58-.59,.77-.64,1.03-1.45,.65-2.35-.35-.84-.88-1.54-1.96-1.6-.83-.05-1.77,.66-1.78,1.57,0,.82,.14,1.64,.2,2.46,.01,.17-.08,.35-.12,.53l-.43,.11Z"/><path d="M46.65,178.78c.65-.15,1.38-.17,1.95-.48,2.1-1.16,4.2-1.16,6.29-.11,1.41,.71,2.77,1.54,4.13,2.36,.33,.2,.54,.59,.63,1.08-1.66-.89-3.31-1.78-4.97-2.67-1.51-.81-3.08-.92-4.62-.17-1.96,.95-2.32,1-3.38-.02h-.03Z"/><path d="M203.07,153.69c-1.59,.86-9.84,2.05-11.48,1.58,.63-.27,1.01-.47,1.41-.58,1.88-.5,3.75-1.04,5.65-1.44,1.09-.23,2.24-.26,3.36-.26,.33,0,.66,.42,1.06,.7Z"/><path d="M130.41,100.64c.78,1.32,1.57,2.64,2.32,3.98,.28,.51,.44,1.03-.33,1.38-.23,.1-.41,.53-.43,.83-.05,.59,.07,1.2,.04,1.79-.02,.33-.11,.77-.33,.96-.54,.46-1.19,.81-2.02,1.17,.22-.41,.36-.9,.67-1.23,1.24-1.3,.98-2.65,.3-4.09-.47-.98-.26-1.39,.81-1.79-.42-.97-.83-1.94-1.25-2.9l.23-.09Z"/><path d="M209.74,66.84c1.36,1.01,1.73,2.35,.99,3.66-.18,.32-.59,.55-.93,.73-.45,.24-.96,.36-1.42,.58-1.33,.63-2.61,.06-2.81-1.03,1.15-.32,2.25-.65,3.37-.92,2.05-.5-.02-2.09,.81-3.01Z"/><path d="M182.52,156.29c.52,.16,1.04,.38,1.58,.45,.29,.04,.62-.17,.94-.27-.13-.26-.2-.57-.4-.77-.36-.37-.79-.65-1.17-1.01-.29-.27-.82-.76-.76-.86,.27-.45,.68-1.07,1.1-1.11,1.12-.11,2.27-.02,3.4,.11,.44,.05,.85,.39,1.27,.6l-.15,.47c-.52-.12-1.04-.23-1.56-.37-1-.26-1.45,.07-1.43,1.21l-.98-.88-.28,.25c.24,.26,.45,.54,.72,.77,.69,.59,1.73,1.2,1.17,2.15-.22,.38-1.56,.2-2.37,.13-.42-.04-.82-.38-1.23-.59l.14-.27Z"/><path d="M204.7,116.59c.13-.47,.13-.79,.29-.95,.92-.94,.49-1.64-.29-2.37-.33-.31-.49-.79-.73-1.2,.53-.11,1.05-.26,1.59-.3,.3-.02,.61,.14,.92,.23,.45-1.65,1.02-1.95,2.98-1.31l-3.46,2.79c.36,.93,.89,2.35-1.29,3.12Z"/><path d="M93.83,169.49c.45,.87,.16,1.48-.83,1.69-.77,.16-1.57,.23-2.36,.25-1.47,.05-2.93,.01-4.4,.07-.28,.01-.55,.28-1.03,.54l1.37,.69c-.95,.54-2.23,.2-3.02-.82,1.51-1.12,3.3-.99,5-1.17,1.3-.13,2.63-.11,3.92-.3,.46-.07,.86-.58,1.37-.95Z"/><path d="M126.04,119.61c1.79,1.25,1.47,3.47,1.87,5.52l-.78-.4,.51,1.94-.35,.15c-.65-1.15-1.41-2.26-1.88-3.48-.19-.49,.33-1.22,.44-1.86,.11-.63,.13-1.28,.18-1.86Z"/><path d="M117.25,40.56c.33-.8,.62-1.61,.98-2.39,.55-1.18,1.81-1.55,2.92-.88,.77,.47,1.57,.91,2.25,1.5,.34,.3,.51,.87,.59,1.34,.04,.26-.26,.58-.41,.87-.32-.23-.69-.42-.96-.7-.71-.75-1.3-1.61-2.08-2.28-.51-.44-1.81,.45-2.11,1.24-.2,.54-.57,1.02-.87,1.52l-.31-.22Z"/><path d="M202.72,85.01c.35,.74,.7,1.22,.81,1.76,.15,.77-.53,1.44-1.21,1.16-.73-.3-1.38-.83-2.03-1.29-.57-.4-1.09-.86-1.65-1.28-.29-.22-.6-.4-.83-.73,1.65-.28,3.02,.19,4.13,1.58l.79-1.2Z"/><path d="M70.71,72.92c-1.49-1.88-2.82-3.94-5.34-4.36,.4-.68,.74-1.26,1.14-1.95h4.26v.38c-.84-.04-1.67-.13-2.5-.09-.38,.02-1.03,.29-1.06,.5-.04,.39,.19,.9,.48,1.21,.9,.99,1.91,1.87,2.81,2.86,.28,.31,.33,.82,.48,1.24l-.28,.2Z"/><path d="M211.5,101.98c-.55-2.64,.28-4.18,2.72-4.54,.29-.04,.76,.07,.89,.27,.13,.2,.02,.69-.16,.91-.4,.48-.93,.85-1.39,1.29-.72,.7-1.42,1.43-2.07,2.08Z"/><path d="M100.18,156.52c-1.15-.17-2.3-.4-3.46-.47-.55-.03-1.12,.27-1.68,.36-.47,.07-1.02,.2-1.41,.03-2.15-.92-4.38-.99-6.65-.84-.31,.02-.62-.04-.93-.06l-.02-.39c1.91-.1,4.03-.78,5.69-.18,2.59,.93,5.22,.49,7.77,1.08,.19,.04,.4,.04,.59,.08,.06,.01,.11,.09,.16,.14l-.05,.25Z"/><path d="M89.47,37.86c.26,.36,.5,.73,.78,1.06,.59,.69,.99,.61,1.3-.22,.06-.16,.15-.42,.25-.44,1.18-.17,2.3-1.11,3.85-.07-.76,.35-1.37,.59-1.94,.9-.46,.24-1,.47-1.27,.87-.48,.72-.81,.88-1.58,.3-.8-.6-1.68-1.04-1.4-2.41Z"/><path d="M223.15,45.47c.27-.24,.55-.45,.79-.72,.32-.34,.76-.69,.84-1.1,.1-.48-.11-1.48-.21-1.48-.91-.03-1.82,.1-2.73,.21-.41,.05-.88,.34-1.2,.22-.24-.09-.3-.67-.43-1.04,1.06-.1,1.95-.11,2.8-.29,1.03-.23,2.29,.12,2.7,.92,.55,1.09,.03,1.95-.7,2.66-.43,.42-1.05,.64-1.58,.95l-.27-.34Z"/><path d="M251.01,53.21c.6,.06,.92,.1,1.24,.13,.98,.09,1.96,.28,2.72-.66,.12-.15,.71-.15,.88,0,.48,.45,.9,.99,1.24,1.56,.09,.15-.1,.63-.29,.75-.15,.09-.64-.07-.74-.25-.35-.62-.61-.72-1.28-.31-.92,.57-2.98-.07-3.77-1.22Z"/><path d="M158.22,74.06c-.45,0-.9-.1-1.28,.02-.83,.25-1.24-.11-1.59-.8-.44-.87-.25-1.65,.39-2.25,.56-.53,1.26-.8,2.03-.24,.99,.71,1.13,1.71,.45,3.28Zm-2.67-1.57l.62,.91c.49-.4,1-.78,1.44-1.23,.03-.03-.55-.77-.59-.75-.48,.28-.92,.65-1.47,1.07Z"/><path d="M120.55,93.98c-.34-.91-.67-1.81-.97-2.61,.37-.38,.63-.81,1-.99,.73-.35,1.38-.67,1.61-1.55,.05-.17,.65-.2,.99-.29-.02,.33,.07,.75-.09,.99-.6,.91-1.3,1.76-1.92,2.66-.12,.18-.04,.5-.07,.75-.05,.34-.12,.67-.19,1.01l-.36,.03Z"/><path d="M195.93,47.8l.42,6.63c-1.21-.52-2.43-.9-2.35-2.61l1.01,.4,.52-4.37,.39-.06Z"/><path d="M123.71,102.82c-1.11-.53-1.58-1.37-1.56-2.42,.02-1.51,0-2.98-.92-4.3-.25-.36-.19-.95-.27-1.46,.6,.75,1.13,1.36,1.59,2.02,.16,.23,.2,.57,.25,.86,.31,1.76,.61,3.53,.91,5.3Z"/><path d="M124.01,48.68c-.56,0-1.12,.06-1.67-.01-.84-.12-1.32-.06-.81,.95,.19,.38,.27,.82,.5,1.53l-3.58-1.95,.05-.16,1.72,.5c.1-.11,.2-.17,.19-.22-.16-1.53,.41-2.03,2.05-1.69,.55,.12,1.06,.43,1.59,.65l-.05,.4Z"/><path d="M78.03,20.03c-.17,.13-.33,.35-.45,.33-1.6-.27-2.74,.76-4.03,1.37-.94,.44-1.89,.85-2.91,1.11,2.37-1.96,5.32-3.94,7.39-2.82Z"/><path d="M222.23,73.89c-.8-.6-1.6-1.2-2.39-1.81-.83-.64-1.35-1.42-1.08-2.9,1.42,1.5,2.69,2.83,3.95,4.16l-.48,.54Z"/><path d="M201.22,121.74c.14,1.2-.02,2.02-1.36,2.37-.57,.15-.98,.87-1.5,1.36-.65-.38-.69-1.71,.16-2.28,.8-.54,1.7-.92,2.7-1.45Z"/><path d="M95.2,28.86c1.93-.55,4.3,.6,4.91,2.32,.08,.22-.1,.54-.16,.81-.24-.06-.54-.05-.7-.19-.61-.56-1.11-1.26-1.76-1.74-.64-.47-1.42-.75-2.28-1.19Z"/><path d="M121.22,171.32c-.29,1.85-.73,2.06-1.98,1.18-1.5-1.05-2.99-2.11-4.52-3.42,.38,.08,.85,.04,1.14,.25,.74,.52,1.41,1.14,2.09,1.75,.95,.86,1.99,1.02,3.28,.25Z"/><path d="M120.78,112.56c-.34-.85-.76-1.68-1-2.56-.36-1.33-.63-2.69-.86-4.04-.05-.31,.17-.66,.39-.96,1.09,2.43,.18,5.21,1.91,7.41l-.44,.16Z"/><path d="M127.86,173.59c-2.75-.59-3.72-3.15-5.76-4.24,.52-.72,1.08-.69,1.78,.18,.5,.61,.84,1.36,1.39,1.91,.71,.72,1.55,1.3,2.59,2.15Z"/><path d="M204.28,49.53l-2.16-1.63c-.03,.6-.01,1.01-.08,1.4-.08,.44-.24,.87-.37,1.31l-1.24-.52,.06-.2,1.22,.07c-.14-1.04-.28-2.03-.41-3.02,2.5,.76,2.94,1.12,2.99,2.59Z"/><path d="M170.07,159.47c-2.11,.78-4.14,1.89-6.51,1.69,1.96-1.3,4.3-1.28,6.51-1.69Z"/><path d="M102.15,39c3.59,.59,3.87,.79,3.42,2.61l-3.62-2.3,.2-.31Z"/><path d="M133.86,165.81c.4,1.81,.79,3.61,1.19,5.42l-.52,.13c-1.15-1.61-.81-3.62-1.21-5.42l.55-.13Z"/><path d="M182.87,151.26c-1.44-1.98-2.83-3.96-2.97-6.43l.34-.14c.88,2.19,1.76,4.38,2.63,6.56Z"/><path d="M172.83,129.42c1.49-.04,2.41,3.65,1.66,7.21-1.01-2.42,.31-5.23-1.66-7.21Z"/><path d="M135.72,174.38c-.86,1.11-1.51,1.14-1.88,.16-.44-1.19-.62-2.47-.91-3.71l.55-.15c.23,.75,.54,1.48,.68,2.24,.15,.85,.35,1.54,1.57,1.46Z"/><path d="M221.12,36.02c-1.53-1.68-3.07-3.36-4.6-5.05,2.05,1.15,3.74,2.68,4.97,4.68l-.37,.37Z"/><path d="M177.21,16.2l-5.86-3.61c2.74,.32,4.51,1.63,5.86,3.61Z"/><path d="M191.87,31.52l-7.25,.49-.02-.64h7.27v.16Z"/><path d="M6.42,159.41c-1.73-.28-3.48-.57-5.24-.84C.46,158.45,0,158.11,0,157.33c0-.17,.1-.42,.24-.49,.13-.07,.48-.01,.52,.08,.66,1.55,2.3,.97,3.39,1.57,.74,.4,1.57,.64,2.27,.91Z"/><path d="M164.19,51.43l-.27,1.51-.14-.04c-.05-1.14-.1-2.29-.17-3.77,.69,1.78,2.26,1.23,3.28,1.85,.45,.27,.96,.45,1.62,.76l-4.26-.74-.06,.43Z"/><path d="M136.42,70.14c-.11,1.83-.22,3.67-.32,5.5l-.39,.08-.76-1.64c1.79-.9,.47-2.7,.97-3.98l.5,.03Z"/><path d="M186.07,85.08c-2.73-1.27-3.02-1.71-2.84-4.26,.95,1.42,1.83,2.75,2.84,4.26Z"/><path d="M190.03,63.06c1.37,1.19,2.78,2.41,4.19,3.64-1.46,.07-4.21-2.65-4.19-3.64Z"/><path d="M214.7,105.42c-.47-.31-.91-.47-.92-.64-.07-1.06-.04-2.14,0-3.2,0-.08,.41-.25,.49-.19,.2,.15,.4,.39,.45,.63,.09,.5,.11,1.03,.11,1.54,0,.52-.06,1.03-.11,1.86Z"/><path d="M291.21,33.04c-.67,1.38-1.31,2.78-2.04,4.13-.28,.52-.79,.92-1.3,1.26,.65-1.42,1.26-2.86,1.97-4.24,.27-.53,.8-.93,1.21-1.38l.17,.24Z"/><path d="M124.42,37.22l-5.36-1.76c.83-.69,3.83,.22,5.36,1.76Z"/><path d="M230.68,181.54c-1.89-.42-3.79-.83-5.68-1.25l.08-.35c1.98,0,3.87,.47,5.6,1.6Z"/><path d="M172.93,27.88c2.06,.47,3.41,2.38,2.87,3.75l-2.87-3.75Z"/><path d="M135.24,122.74c.18-1.94-1.83-2.9-1.64-4.87,1.39,1.08,2.51,4.01,1.64,4.87Z"/><path d="M9.36,143.92c.33-.2,.64-.47,.99-.58,.78-.25,1.57-.46,2.37-.62,.25-.05,.54,.07,.81,.12-.11,.3-.18,.63-.36,.89-.08,.12-.36,.13-.56,.15-1.03,.11-2.06,.22-3.09,.32l-.17-.27Z"/><path d="M75.38,65.02c-.37,.2-.81,.33-1.09,.62-.53,.57-.95,1.24-1.46,1.83-.18,.21-.49,.32-.75,.47-.01-.31-.16-.73-.02-.91,.79-1.02,1.39-2.33,3.01-2.31l.31,.29Z"/><path d="M222.5,58.86c-1.53-1.86-3.02-3.68-4.45-5.41,1.45,.58,3.43,2.94,4.45,5.41Z"/><path d="M123.15,34.25c1.79-.29,3.58-.58,5.28-.86-.45,.81-.45,.82-2.21,.98-1.01,.09-2.02,.14-3.03,.21l-.04-.33Z"/><path d="M60.22,34.47c.91-.67,1.78-1.38,2.73-1.97,.35-.22,.9-.18,1.35-.14,.13,.01,.36,.46,.3,.63-.06,.19-.56,.43-.58,.41-.79-.93-1.34,.01-1.91,.27-.6,.27-1.11,.73-1.66,1.11l-.24-.31Z"/><path d="M219.97,68.44l3.83,3.88-.42,.41-3.73-3.99,.32-.3Z"/><path d="M301.66,31.66c1.61-1.12,3.22-2.24,4.87-3.39,.04,.72-3.46,3.24-4.87,3.39Z"/><path d="M174.91,64.36c.19-.96,.3-1.94,.59-2.88,.2-.65,.62-1.22,1.49-.73-.64,1.24-1.26,2.43-1.88,3.62h-.2Z"/><path d="M120.44,152.55c-.2,1.76-.21,3.57-1.53,5.15,.38-1.84,.74-3.56,1.09-5.28l.44,.12Z"/><path d="M203.65,45.51c-1.19-.82-2.38-1.64-3.57-2.47,2.11-.52,2.41,1.6,3.82,2.1l-.26,.37Z"/><path d="M209.71,57.55l4.58-1.1,.11,.42c-1.5,.44-3,.87-4.51,1.31l-.18-.63Z"/><path d="M208.55,43.2c-.79-.11-1.59-.23-2.38-.34-1.01-.14-2.04-.23-3.04-.46-.35-.08-.62-.51-1.02-.86,2.26,.51,4.35,.98,6.44,1.45v.21Z"/><path d="M214.59,53.8l1.35,1.42-5.14,.47-.03-.45,4.09-.41-.27-1.04Z"/><path d="M46.67,178.77c-1.37-.48-2.75-.94-4.12-1.44-.4-.15-.77-.41-1.15-.62l.12-.38c.34,.02,.75-.06,1.02,.09,1.38,.75,2.73,1.57,4.09,2.36,0,0,.03-.02,.03-.02Z"/><path d="M199.8,65.19c.09-.3,.09-.68,.28-.89,.85-.9,2.27-1.26,3.48-.93l-3.76,1.82Z"/><path d="M215.06,44.48l1.53,2.93c-.52-.09-1.24-.03-1.33-.25-.36-.83-1.09-1.72-.2-2.68Z"/><path d="M136.31,42.45c-.23-1.48-.46-2.97-.71-4.53,.38-.17,1.36,1.41,1.21,2.64-.08,.62-.23,1.23-.34,1.84l-.16,.05Z"/><path d="M214.76,42.69c-1.31-.67-2.68-3.06-2.56-4.43,.89,1.54,1.64,2.84,2.56,4.43Z"/><path d="M106.2,16.3l3.58,.26,.03,.53-2.85,.48-.08-.31,.72-.38-1.45-.41,.06-.17Z"/><path d="M62.64,73.86c1.51,1.63,1.48,3.5,1.31,5.52-.45-1.88-.87-3.64-1.31-5.52Z"/><path d="M73.19,64.16c-1.38,.15-2.77,.31-4.15,.46l-.05-.35c1.44,.12,2.61-1.4,4.18-.49l.02,.38Z"/><path d="M120.74,23.18l-5.88,.36c.74-.57,3.77-.96,5.88-.36Z"/><path d="M106.22,150.6c1.24-1.04,2.37,.02,3.55,.39l-3.53,.21v-.6Z"/><path d="M233.14,42.44c-1.35,.14-2.71-.55-3.35-1.82l3.49,1.45-.13,.37Z"/><path d="M173.35,38.75l-2.97-3.79-.61,.61c1.43,.25,3.17,1.88,3.59,3.19Z"/><path d="M182.17,12.29c2.14-.36,3.72,.1,4.15,1.17-1.36-.38-2.76-.77-4.15-1.17Z"/><path d="M214.11,65.01l4.68-1.12,.09,.41c-1.56,.38-3.11,.76-4.67,1.15l-.1-.44Z"/><path d="M190.77,54.77c.22,2,.44,3.99,.66,5.99l-.36,.05c-.21-2-.42-4-.62-6l.32-.04Z"/><path d="M180.06,13.63c-1.66,.32-3.08-.07-4.47-1.3l4.47,1.3Z"/><path d="M99.56,14.15c1.85,.31,2.88,1.23,2.57,2.63l-2.08-3.08-.49,.45Z"/><path d="M106.02,76.52c.89-.69,1.78-1.26,2.96-.51-.63,1.7-2.03,.17-2.96,.51Z"/><path d="M174.73,33.86l-.68-1.04,.47-.45,1.18,2.34c-.09,.03-.5,.28-.89,.25-.24-.02-.44-.48-.66-.74l.57-.36Z"/><path d="M214.53,57.96c-1.59,.59-3.19,1.17-4.78,1.76,1.58-.64,2.84-2.13,4.69-2.07l.09,.31Z"/><path d="M170.48,184.1c-1.49-.49-2.98-.98-4.47-1.48-.24-.08-.47-.23-.62-.55,1.74,.57,3.48,1.14,5.22,1.7l-.14,.32Z"/><path d="M210.26,40.6c.41,.55,.76,1.03,1.11,1.51,.34,.46,.69,.92,1.13,1.5-1.34-.2-2.71-2.16-2.24-3.01Z"/><path d="M94.39,36.33l-2.03-2.45c1.9,.38,2.49,1.02,2.03,2.45Z"/><path d="M263.77,44.3l3.82-1.92,.22,.42-3.8,1.96-.24-.46Z"/><path d="M257.41,48.04l4.61,1.59-.08,.27c-1.55-.48-3.1-.97-4.65-1.45l.13-.41Z"/><path d="M260.36,43.97c-1.26,.93-2.52,1.85-3.79,2.78l-.24-.34,3.81-2.76,.22,.32Z"/><path d="M126.33,83.99c.32,.9,.65,1.8,.97,2.7l-.31,.11q-1.13-1.38-.66-2.81Z"/><path d="M81.4,88.61c1.2-.89,1.98-.87,3.21,0h-3.21Z"/><path d="M100.93,30.01l-2.38-1.87,.3-.42,2.53,1.73-.45,.56Z"/><path d="M180.45,75.7c.66,1.23,1.32,2.47,1.97,3.7l-.33,.19-2.12-3.59,.47-.3Z"/><path d="M227.57,41.28l3.62,1.39c-1.56,.4-2.61-.45-3.62-1.39Z"/><path d="M196.19,31c.63-.47,1.22-.99,1.89-1.38,.68-.39,1.44-.63,2.31-.7l-4.09,2.18-.12-.1Z"/><path d="M269.22,46.93c-1.01-.3-2.02-.59-3.02-.89q.68-.77,3.08,.59l-.06,.3Z"/><path d="M189.58,92.02c-.89-.98-1.78-1.97-2.68-2.96,1.15-.13,2.2,1.05,2.65,2.99l.02-.03Z"/><path d="M283.28,38.92c1.07-1.25,1.96-2.29,2.83-3.31,.5,.63-.32,1.69-2.83,3.31Z"/><path d="M226.02,82.32c.74,1.31,.62,1.7-.68,2.68,.25-.99,.47-1.83,.68-2.68Z"/><path d="M207.02,89.16c-.67-.8-1.34-1.6-2.02-2.4l.39-.34c.85,.65,1.37,1.58,1.87,2.54l-.25,.2Z"/><path d="M89.03,74.14h-3.21v-.48c1.11-.57,2.15,.16,3.21,.48Z"/><path d="M140.69,21.69l-.39-.7,2.12-1.81,.33,.33c-.7,.72-1.4,1.43-2.1,2.15l.03,.03Z"/><path d="M205.04,61.97l-4.82,1.14-.06-.25,4.81-1.21,.08,.33Z"/><path d="M118.63,65.46c-.44-1.19-.88-2.38-1.33-3.57,1.15-.34,.66,.3,.69,.71,.04,.46,.26,.91,.4,1.36,.15,.48,.3,.96,.45,1.44l-.21,.07Z"/><path d="M121.44,25.27c2.04-.11,4.07-.22,6.11-.33v.25c-2.03,.1-4.06,.2-6.1,.3v-.22Z"/><path d="M193.47,110.59c.17-.46,.28-.95,.53-1.36,.1-.17,.49-.15,.75-.22,.05,.27,.24,.64,.12,.79-.29,.39-.7,.68-1.07,1.01l-.34-.22Z"/><path d="M92.37,173.08h-4.02v-.23h3.99l.02,.23Z"/><path d="M43.46,55.58q-.78,.77-2.4,.02l.03-.31,2.37,.3Z"/><path d="M92.7,17.73l-2.67,.68c.73-1.01,2.13-1.29,2.67-.68Z"/><path d="M155.95,48.86l-1.94-2.81,.21-.16c.71,.88,1.43,1.76,2.14,2.64l-.41,.33Z"/><path d="M251.1,46.61l3.49-1.5,.07,.16c-1.14,.59-2.27,1.17-3.41,1.76l-.16-.41Z"/><path d="M108.51,165.79c-.74,.11-1.48,.23-2.21,.34l-.06-.4c.67-.6,1.48-.33,2.25-.32l.02,.39Z"/><path d="M151.02,22.97c-.71,.07-1.45,.05-2.12,.25-.66,.19-1.26,.61-2.08,1.03,1.07-1.22,1.34-1.3,4.2-1.28Z"/><path d="M173.78,141.35l-.54,2.87-.41-.08,.55-2.83,.41,.04Z"/><path d="M199.57,36.91l-3.25,.69c.44-.81,.6-.85,3.25-.69Z"/><path d="M208.52,50.75l2.91-.34,.05,.37c-.97,.12-1.93,.23-2.9,.35l-.06-.38Z"/><path d="M180.96,72.16l2.45,3.13-.19,.17c-.83-1.02-1.65-2.05-2.48-3.07l.23-.23Z"/><path d="M234.69,41.22l-2.58-1.37,.15-.3,2.67,1.23-.24,.44Z"/><path d="M296.15,32.66c.87-.72,1.75-1.44,2.62-2.15l.26,.33c-.9,.68-1.8,1.37-2.7,2.05l-.18-.23Z"/><path d="M188.27,14.7l2.93,.57-.06,.34-2.9-.55,.04-.36Z"/><path d="M58.45,71.52l-.68,1.33-1-.78,.04-.34,1.64-.21Z"/><path d="M140.75,188.47q-.08,.93-2.11,.79c.65-.24,1.3-.48,2.11-.79Z"/><path d="M93.29,13.63l2.4-.69,.14,.34c-.69,.33-1.37,.67-2.07,.96-.05,.02-.25-.32-.48-.62Z"/><path d="M214.39,34.06c-.65-.71-1.3-1.41-1.95-2.12l.33-.35,2.09,1.97-.47,.5Z"/><path d="M137.84,30.24c.92-.49,1.84-.98,2.76-1.47l.15,.26-2.68,1.59-.23-.38Z"/><path d="M186.3,16.4l3.17,.69-.08,.38-3.13-.82,.05-.25Z"/><path d="M140.66,21.66c-.78,1-1.9,.87-2.93,1.04l-.1-.33c1.02-.23,2.04-.46,3.06-.69l-.03-.03Z"/><path d="M134.41,81.03l.18-.67,1.86,.61-.12,.3-1.92-.24Z"/><path d="M176.85,62.6l-.55,2.68-.33-.06,.47-2.7,.41,.08Z"/><path d="M62.88,52.4l.17-1.97c1.01,.84,.57,1.43-.17,1.97Z"/><path d="M169.29,36.86l1.69,1.54-.32,.33-1.63-1.61,.26-.26Z"/><path d="M189.85,81.44l1.81,1.17c-.11,.1-.41,.43-.44,.4-.54-.43-1.05-.9-1.57-1.35l.2-.21Z"/><path d="M237.14,46.07l-2.43-.99,.11-.3,2.46,.9-.15,.38Z"/><path d="M114.48,24.93l-2.86-.67,.08-.33,2.85,.72-.07,.28Z"/><path d="M182.89,19.64l2.56,.27-.03,.35-2.57-.25,.04-.37Z"/><path d="M60.07,111.9c-.64,.55-1.29,1.1-1.97,1.69-.75-.98,.05-1.6,.57-2.1,.25-.25,.94-.04,1.43-.04l-.03,.45Z"/><path d="M49.06,116.71c1.68,.95,1.27,2.4,1.28,3.72l-.3,.12c-.21-.57-.46-1.14-.61-1.72-.16-.63-.23-1.29-.37-2.12Z"/><path d="M62.44,120.62c1.95,1.1,2.43,2.39,1.32,3.83,.21-1.64-.16-2.88-1.32-3.83Z"/><path d="M61.25,141.44c-.89,.64-1.5-.07-2.02-2.66l2.02,2.66Z"/><path d="M74.09,135.19l-.15,2.37-.31-.02v-2.44l.46,.09Z"/><path d="M54.99,102.72l2.25,1.06-.22,.44-2.16-1.15,.13-.35Z"/><path d="M332.79,21.02l2.01,.49-.13,.52-1.99-.52,.11-.49Z"/><path d="M167.71,94.11c-1.2-.8-1.85-1.91-1.9-3.36,1.32,1.59,2.63,3.18,3.95,4.77l-.2,.2c-.5-.33-1-.66-1.49-.99-.12-.21-.24-.41-.36-.62Z"/><path d="M167.71,94.11c.12,.21,.24,.42,.36,.62,.86,1.4,1.72,2.81,2.58,4.21-1.84-.94-2.78-2.55-3.29-4.46-.02-.09,.23-.25,.35-.37Z"/></g></g></g></svg>