<?xml version="1.0" encoding="UTF-8"?><svg xmlns="http://www.w3.org/2000/svg" viewBox="0 0 226.97 312.54"><g id="a"/><g id="b"><g id="c"><g><path d="M70.39,22.55c5.78,.03,11.49-.52,17.13-1.6,2.14-.41,4.37-.89,6.18-2.34,.21-.17,.5-.36,.74-.33,.42,.04,1.01,.13,1.18,.41,.18,.3,.08,.94-.15,1.25-.31,.41-.82,.8-1.32,.94-2.14,.6-4.27,1.33-6.46,1.6-4.86,.61-9.75,1.29-14.63,1.37-5.8,.09-11.66,.22-17.37-1.15-1.68-.4-3.23-1.34-4.85-2.01-.21-.09-.49-.07-.71-.01-.07,.02-.1,.32-.09,.5,0,.18,.07,.36,.12,.54,1.32,4.29,1.42,8.74,1.88,13.16,.54,5.24,1.32,10.46,1.92,15.7,.6,5.15,1.64,10.21,2.87,15.25,.41,1.69,.48,3.47,.73,5.2,.03,.22,.26,.41,.4,.62,.19-.18,.46-.33,.55-.55,2.77-6.66,5.53-13.32,7.4-20.31,.6-2.23,1.49-4.38,2.34-6.53,.33-.85,.8-1.7,1.41-2.36,.75-.81,.91-1.49,.27-2.41-.39-.57-.56-1.31,.22-1.65,.41-.18,1.17-.13,1.48,.15,3,2.65,6.82,3.56,10.39,5,4.34,1.75,9.01,2.03,13.54,2.92,4.72,.92,9.41,1.94,14.02,3.31,1.41,.42,2.89,.59,4.35,.84,.98,.16,1.57-.21,1.7-1.29,.12-.94,.01-2.09,1.52-2.15,.2,0,.45-.76,.53-1.19,.59-3.18,1.18-6.37,1.7-9.56,.51-3.13,1.16-6.19,3.24-8.73,.48-.59,.68-1.14,.39-2.01-.5-1.47-.08-2.08,1.4-2.26,5.17-.63,10.35-.91,15.38,.88,1.82,.65,3.62,1.39,5.39,2.18,3.27,1.46,6.76,2.12,10.25,2.21,4.61,.12,8.65,1.68,12.66,3.69,4.55,2.28,9.26,4.09,14.33,5.02,2.97,.54,5.84,1.73,8.66,2.88,2.65,1.08,5.15,2.53,7.75,3.72,2.69,1.23,5.44,2.33,8.15,3.51,4.07,1.77,8.12,3.56,12.18,5.34,1.53,.67,3.09,1.11,4.8,1.24,2.38,.18,3.41,1.54,2.82,3.74-1.79,6.69-3.21,13.51-5.95,19.91-1.75,4.07-3.7,8.05-5.42,12.14-.89,2.12-1.66,4.32-2.13,6.56-.5,2.36-1.67,4.28-2.98,6.19-.72,1.05-1.68,1.37-2.9,1.02-2.57-.74-5.2-1.33-7.7-2.26-1.44-.53-2.74-1.52-3.98-2.47-1.55-1.18-3.23-1.75-5.15-1.74-3.05,0-6.11,.03-9.16,0-2.08-.02-4.07-.41-5.68-1.85-.61-.55-1.18-1.18-1.63-1.86-.21-.32-.08-.86-.1-1.29,.36,.15,.86,.19,1.07,.46,2.25,2.92,5.52,2.66,8.63,2.77,1.66,.06,3.33-.2,4.99-.24,3.05-.08,5.86,.58,8.29,2.58,2.72,2.25,5.9,3.36,9.42,3.67,1.16,.1,1.92-.13,2.62-1.06,1.12-1.49,2.15-2.97,2.44-4.9,.59-4.01,2.67-7.47,4.37-11.05,2.61-5.54,4.78-11.21,6.23-17.16,.65-2.69,1.46-5.35,2.12-8.04,.41-1.68,.12-2.43-1.37-2.77-5.23-1.2-9.57-4.35-14.4-6.4-1.36-.58-2.67-1.31-4.05-1.81-4.7-1.72-9.12-4.04-13.65-6.12-2.91-1.34-6.08-2.33-9.24-2.87-3.07-.52-5.86-1.62-8.67-2.77-3.59-1.47-7.14-3.07-10.77-4.46-1.62-.62-3.36-1.12-5.08-1.28-5.79-.52-11.22-2.23-16.54-4.48-4.05-1.72-8.23-1.91-12.49-.83-.97,.24-1.65,.68-2.2,1.51-.75,1.16-1.73,2.18-2.39,3.38-.7,1.28-1.34,2.65-1.65,4.06-.88,4.07-1.58,8.17-2.36,12.26-.09,.45-.23,.9-.31,1.35-.2,1.08-.83,2.37-.46,3.2,.35,.79,1.83,1.02,2.69,1.66,4.4,3.3,9.65,4.53,14.72,6.24,2.89,.97,5.68,2.21,8.55,3.23,9.58,3.43,18.97,7.33,28.17,11.68,.33,.16,.68,.29,1,.48,1.32,.77,1.83,1.8,1.04,2.98-2.22,3.35-3.32,7.22-5.14,10.75-.21,.41-.39,.87-.7,1.19-2.96,3.01-4.27,6.87-5.62,10.72-.21,.61-.48,1.23-.56,1.86-.44,3.58-2.45,6.55-3.72,9.8-.71,1.81-1.52,3.57-2.23,5.38-.57,1.45-.41,1.98,.82,2.85,.6,.42,1.29,.71,1.93,1.09,1.31,.77,2.42,.86,3.78-.21,2.91-2.27,6-4.31,9.01-6.45,.98-.7,1.94-1.42,2.94-2.09,2.39-1.6,4.72-3.21,6.38-5.66,1.04-1.53,1.66-1.51,2.73-.07,1.52,2.07,3.57,3.47,5.7,4.79,6.61,4.07,13.28,8.04,19.82,12.23,3.81,2.44,7.4,5.22,11.12,7.8,.74,.51,1.62,.85,2.47,1.18,1.36,.53,1.7,1.23,.97,2.51-.55,.96-1.19,1.89-1.93,2.71-1.3,1.44-2.69,2.79-4.08,4.15-.54,.52-.66,.88-.21,1.63,1,1.63,1,1.79-.6,2.86-2.02,1.35-3.22,3.23-4.15,5.39-1.42,3.31-3.06,6.54-4.31,9.91-.76,2.05-.94,4.31-1.43,6.47-.22,.98-.4,2-.84,2.89-2.02,4.05-4.16,8.02-4.99,12.58-.52,2.87-2.64,5.05-4.13,7.48-.72,1.17-1.72,2.17-2.57,3.27-.9,1.17-2.12,1.54-3.46,1.14-1.13-.33-2.5-.65-3.23-1.45-1.72-1.9-3.95-3.05-5.95-4.51-2.39-1.74-4.81-3.47-7.36-4.95-5.67-3.28-11.25-6.72-17.32-9.27-1.51-.63-2.8-.79-4.13,.28-1,.81-2.05,1.57-3.1,2.31-.63,.45-1.24,1.32-2.14,.55-.66-.56-.29-1.42,.82-2.19,.91-.63,1.8-1.28,2.66-1.98,1.14-.92,1.12-1.28-.07-1.94-2.6-1.42-5.19-2.84-7.83-4.18-3.79-1.93-7.62-3.77-11.43-5.68-1.07-.54-2.15-1.1-3.13-1.78-1.01-.7-1.87-.67-2.75,.13-3.09,2.83-6.55,5.13-10.15,7.24-1.25,.73-1.32,1.45-.12,2.36,1.69,1.28,3.53,2.37,5.32,3.52,.62,.4,1.26,.76,1.91,1.12,3.27,1.8,5.35,4.42,6.01,8.18,.59,3.33,2.15,6.27,3.94,9.11,1.18,1.87,2.26,3.83,3.18,5.84,.91,2,2.37,3.5,3.89,5,.78,.77,1.69,1.05,2.73,1.19,1.49,.2,2.66-.14,3.67-1.38,1.4-1.72,2.96-3.31,4.46-4.95,1.81-1.98,3.67-3.92,6.01-5.31,3.44-2.04,6.34-4.78,9.32-7.41,.91-.81,1.86-1.16,3.02-.98,.23,.04,.57,.3,.6,.49,.04,.31-.03,.8-.24,.95-.9,.64-1.95,1.09-2.81,1.77-1.6,1.26-3.06,2.68-4.66,3.94-1.3,1.03-2.66,2-4.07,2.88-2.07,1.28-3.92,2.75-5.42,4.7-.96,1.24-2.06,2.37-3.1,3.54-1.6,1.8-3.2,3.59-4.79,5.39-1.21,1.36-2.15,1.53-3.15,.1-.98-1.42-1.95-1.35-3.48-1.21-3.01,.28-5.75,1.25-8.55,2.25-4.18,1.49-8.45,2.71-12.61,4.24-2.81,1.03-5.13,2.94-7.27,5.01-1.39,1.35-1.88,2.84-.99,4.75,2.25,4.87,4.37,9.8,6.61,14.68,.46,1,1.17,1.88,1.8,2.79,1.48,2.11,2.6,4.36,2.85,6.98,.04,.36,.16,.73,.29,1.07,.82,2.12,1.21,1.88,2.82,1.35,6.85-2.24,12.92-5.84,18.78-9.97,5.55-3.9,11.71-6.68,18.23-8.63,.18-.05,.37-.07,.53-.15,5.19-2.51,10.83-2.01,16.34-2.39,1.23-.09,2.41-.02,3.33,1,.13,.15,.62,.23,.69,.14,.2-.26,.46-.69,.37-.93-.42-1.11-.77-2.32-1.48-3.24-1.38-1.81-2.22-3.81-2.82-5.97-.79-2.85-1.83-5.62-2.53-8.49-.61-2.51-.82-5.11-1.35-7.63-.34-1.61-.94-3.18-1.49-4.74-.19-.53-.68-1-1.31-.65-3.34,1.87-7.16,1.69-10.73,2.56-1.34,.33-2.67,.74-4.03,1-.35,.07-.78-.29-1.17-.46,.2-.46,.27-1.13,.63-1.34,.61-.37,1.38-.53,2.1-.67,2.45-.46,4.92-.83,7.36-1.33,2.18-.45,4.29-1.04,6.01-2.65,1.31-1.22,1.94-1,2.54,.81,1.04,3.16,2.15,6.3,2.38,9.68,.09,1.28,.48,2.54,.81,3.79,.82,3.13,1.59,6.28,2.55,9.37,.46,1.48,1.28,2.86,1.96,4.27,.96,1.99,1.94,3.98,2.93,5.96,.49,.98,.27,1.72-.61,2.4-2.37,1.83-5.05,1.47-7.73,1.17-.16-.02-.4-.14-.46-.28-.85-1.9-2.48-1.37-4.03-1.45-5.97-.28-11.2,2.15-16.5,4.3-2.57,1.04-5.09,2.23-7.53,3.53-1.78,.95-3.44,2.16-5.08,3.36-.45,.33-.9,1.04-.88,1.57,.11,3.11,.18,6.25,.59,9.33,.61,4.58,1.41,9.14,2.3,13.67,.85,4.35,2.07,8.63,2.84,12.99,.69,3.91,1,7.88,1.46,11.83,.15,1.28,.3,2.57,.39,3.86,.18,2.55-.34,3.3-2.79,4.03-2.93,.87-5.85,1.76-8.81,2.51-3.04,.77-6.11,1.46-9.2,2.06-3.38,.66-6.6,1.66-9.67,3.29-3.51,1.86-7.16,3.47-10.77,5.13-1.61,.74-2.17,.36-2.27-1.4-.27-4.8-.49-9.6-.81-14.39-.09-1.37-.42-2.74-.76-4.07-1.59-6.26-3.08-12.56-4.89-18.76-1.19-4.07-2.86-8.01-4.31-12-.82-2.26-1.66-4.51-2.4-6.79-.55-1.7-.27-2.36,1.47-2.94,1.74-.58,3.56-1,5.38-1.28,5.67-.9,11.29-1.98,16.58-4.35,2.03-.91,2.25-1.27,1.38-3.34-.5-1.19-1.11-2.34-1.81-3.43-2.22-3.44-3.58-7.27-5.14-11-.43-1.02-.88-2.04-1.39-3.02-.75-1.44-1.57-2.85-2.36-4.27,.76-1.68,0-3.24-.34-4.84-.06-.3,.15-.94,.31-.96,.37-.06,.99,.04,1.15,.29,.65,1.01,1.14,.75,1.97,.15,2.39-1.73,4.87-3.34,7.34-4.96,.38-.25,.84-.38,1.28-.51,3.62-1.09,7.26-2.12,10.87-3.25,2.73-.85,5.43-1.82,8.14-2.72,.65-.22,.94-.57,.53-1.22-.19-.31-.41-.62-.64-.91-2.82-3.54-5.55-7.14-9.22-9.89-1.48-1.11-2.65-2.56-3.2-4.42-.49-1.65-1.47-2.98-2.88-3.97-1.31-.93-2.28-2.15-3.01-3.56-1.13-2.17-2.74-3.91-4.71-5.36-1.12-.82-2.18-1.72-3.18-2.69-.5-.49-.9-1.15-1.16-1.81-.37-.91-.35-1.6,.85-2.18,2.47-1.19,4.85-2.58,7.15-4.08,2.55-1.67,4.96-3.55,7.43-5.33,.62-.45,.29-.85-.15-1.03-1.53-.65-3.07-1.3-4.65-1.79-1.86-.57-3.76-.96-5.65-1.43-3.18-.78-5.99-2.42-8.84-3.94-3.61-1.93-7.39-3.38-11.36-4.36-3.16-.78-6.21-1.82-8.97-3.6-.46-.3-.99-.51-1.51-.69-2.2-.75-4.26-1.75-6.21-3.05-1.3-.87-2.82-1.4-4.16-2.2-1.25-.75-2.56-1.51-3.56-2.54-1.34-1.37-2.81-2.06-4.69-1.96-1.39,.08-2.77,.19-4.16,.28-.87,.06-1.44-.36-1.61-1.19-.19-.9-.34-1.82-.42-2.73-.12-1.36,.45-2.32,1.39-3.4,3.03-3.47,6.51-6.57,8.93-10.55,1.47-2.41,2.2-5.05,2.55-7.84,.11-.92-.15-1.39-.99-1.66-1.49-.48-2.95-1.03-4.45-1.48-1.33-.4-2.72-.61-4.03-1.05-3.71-1.25-7.26-1.03-10.69,.94-.72,.41-1.5,.73-2.28,1.02-1.08,.39-1.77,.04-2.06-1.08-.44-1.7-.82-3.41-1.19-5.12-.08-.35-.09-.74-.01-1.09,.43-1.98,.94-3.95,1.34-5.93,.22-1.05,.76-1.8,1.51-2.56,1.95-1.99,3.69-4.14,4.56-6.87,.27-.85,.31-1.47-.82-1.5-1.11-.03-1.37-.71-1.37-1.67,0-1.11-.1-2.22-.06-3.33,.19-6.12-1.21-11.98-3.39-17.6-2.5-6.43-3.78-13.12-5.21-19.81-.71-3.33-1.7-6.64-2.95-9.81-1.7-4.29-3.73-8.45-5.71-12.63-.55-1.17-.64-1.96,.49-2.85,1.12-.88,1.65-2.16,1.61-3.68-.05-1.84,.13-3.68,.06-5.52-.03-.88,.22-1.42,.94-1.81,.33-.18,.66-.45,1-.46,3.73-.11,7.39-1.85,11.18-.44,.86,.32,1.82,.38,2.69,.69,4.67,1.66,9.44,1.62,14.26,.94,5.33-.76,10.65-1.16,16.04-.49,1.69,.21,3.48-.22,5.2-.53,1.63-.3,3.22-.83,4.83-1.25,.36-.09,.73-.29,1.07-.25,.53,.05,1.22,.1,1.53,.44,1.44,1.54,4.37,.79,5.09,3.4,.29,1.07,.79,2.08,1.08,3.14,1.08,4.01,2.15,8.03,3.15,12.07,.35,1.43,.54,2.9,.7,4.37,.37,3.39,.4,6.82,1.45,10.14,.37,1.19,.7,2.47-.17,3.74-.31,.46-.19,1.25-.17,1.88,.04,1.39,.21,2.77,.2,4.16,0,.71-.21,1.44-.46,2.11-.09,.24-.61,.47-.88,.43-.25-.04-.59-.44-.62-.72-.2-2.01-.21-4.05-.52-6.05-.3-1.91-.77-3.8-1.37-5.64-.92-2.79-1.37-5.53-.35-8.4,.27-.76,.33-1.64,.27-2.45-.12-1.38-.31-2.76-.65-4.1-.88-3.49-1.86-6.96-2.79-10.44-.94-3.54-3.58-5.62-7.25-5.51-1.65,.05-3.34,.28-4.93,.71-2.66,.7-5.3,.73-7.98,.33-4.16-.62-8.28-.27-12.41,.39-2.18,.35-4.45,.11-6.62,.49-2.49,.43-4.77-.21-7.1-.73-1.53-.34-3.02-.87-4.54-1.28-.53-.15-1.08-.25-1.63-.3-.75-.07-1.35,.29-1.3,1.07,.11,1.84,.33,3.68,.56,5.51,.02,.13,.57,.34,.8,.28,.87-.24,1.24,.12,1.26,.93,.01,.55,.05,1.15-.13,1.65-.66,1.82,.16,3.18,1.18,4.58,2.25,3.09,5.17,5,9.01,5.34,4.04,.36,8.09,.67,12.13,1Zm-21.43,75.39c.03,.31,.1,1.23,.25,2.15,.27,1.64,.72,1.96,2.23,1.26,3.28-1.51,6.57-1.58,10-.56,3.27,.98,6.61,1.75,9.9,2.67,.73,.2,1.05,.17,1.52-.57,.68-1.06,1.5-.81,1.87,.42,.15,.52,.06,1.31,.39,1.55,1.25,.92,2.62,1.68,3.97,2.48,.09,.05,.38-.08,.46-.2,.07-.1,.05-.39-.05-.47-.33-.31-.76-.53-1.07-.87-.68-.74-1.34-1.5-1.91-2.33-.13-.19,0-.79,.22-.94,.21-.15,.72-.08,.98,.08,.38,.24,.64,.67,.98,.97,1.28,1.11,2.71,1.84,4.46,1.99,6.8,.61,13.65,.5,20.41,1.71,4.03,.72,7.95,1.56,11.68,3.31,3.34,1.56,6.78,2.92,10.19,4.33,1.96,.81,4,1.43,5.91,2.35,3.74,1.79,7.18,4.22,11.26,5.32,.52,.14,.97,.54,1.46,.78,1.4,.68,2.78,1.43,4.23,1.99,2.02,.78,2.38,.59,3.19-1.27,1.81-4.15,3.71-8.26,5.39-12.46,1.51-3.77,2.85-7.62,4.1-11.48,1.13-3.54,2.21-7.11,4.38-10.14,2.77-3.86,4.75-8.1,6.61-12.43,.75-1.73,.74-1.81-1.07-2.68-2.08-1-4.22-1.89-6.33-2.83-3.8-1.68-7.59-3.4-11.42-5.01-3.75-1.57-7.53-3.08-11.34-4.52-3.97-1.51-7.99-2.89-11.97-4.35-2.17-.8-4.57-1.28-6.41-2.56-2.88-2-6.23-2.48-9.34-3.69-2.39-.92-4.97-1.42-7.5-1.94-5.16-1.05-10.35-1.98-15.53-2.99-2.71-.53-5.45-1.02-8.11-1.73-2.23-.59-4.36-1.54-6.57-2.22-1.13-.34-2.37-.32-3.5-.65-1.49-.44-2.05,.47-2.45,1.54-1.05,2.76-2.08,5.53-3.04,8.33-1.59,4.63-2.98,9.34-4.7,13.92-1.89,5.01-4.15,9.88-6.06,14.89-1.1,2.89-2.32,5.69-4.51,7.89-2.34,2.35-3.01,5.22-3.15,8.95Zm166.64,46.04c-.23-.25-.37-.54-.59-.63-3.15-1.32-6.29-2.67-9.47-3.9-2.24-.87-4.72-1.25-6.76-2.42-2.86-1.63-5.81-2.22-9-2.34-1.55-.06-3.15-.3-4.62-.77-5.03-1.6-9.7-4.03-14.44-6.3-2.16-1.03-4.46-1.76-6.7-2.61-.94-.36-1.96-.56-2.84-1.03-1.54-.83-2.98-1.83-4.49-2.71-1.1-.64-1.29-.59-1.86,.62-.55,1.17-.96,2.4-1.42,3.61-.83,2.17-2.39,3.28-5.38,2.27-1.56-.53-2.97-1.47-4.44-2.24-.98-.52-1.91-1.12-2.9-1.6-1.99-.96-4.05-1.78-6.01-2.81-3.35-1.77-6.61-3.67-10.31-4.73-2.21-.63-4.38-1.53-6.41-2.6-7-3.68-14.55-5.28-22.32-6-3.85-.35-7.75-.13-11.58-.59-1.98-.24-2.72,1.08-3.78,1.97-.32,.27-.07,1.05-.84,.38-.69-.6-1.33-1.33-2.13-1.72-2.69-1.32-2.78-1.41-3.65,1.36-1.49,4.72-3.69,9.05-7.19,12.67-1.54,1.59-2.81,3.43-4.24,5.12-.61,.73-.66,1.49-.43,2.34,.28,1,1.13,.77,1.83,.82,.92,.06,1.85,.13,2.77,.13,1.84,.02,3.4,.61,4.74,1.93,3.23,3.18,7.37,4.88,11.35,6.81,1.33,.65,2.75,1.11,4.02,1.86,2.49,1.47,5.11,2.58,7.89,3.38,1.78,.51,3.58,.98,5.29,1.67,2.57,1.03,5.16,2.06,7.58,3.39,3.76,2.05,7.61,3.77,11.84,4.61,1.45,.29,2.87,.74,4.26,1.23,1.48,.52,2.96,1.72,4.37,1.62,2.09-.15,2.09,1.83,3.33,2.39,.42,.19,.8,.46,1.21,.67,5.98,3.12,11.95,6.26,17.95,9.36,5.83,3.01,11.7,5.92,17.52,8.95,3.11,1.62,6.21,3.29,9.2,5.13,3.15,1.94,6.15,4.11,9.23,6.17,1.38,.93,2.75,1.89,4.17,2.75,1.46,.88,2.6,.89,3.56-.06,2.91-2.9,5.56-6.03,6.43-10.18,.65-3.12,1.74-5.99,3.38-8.72,1.42-2.38,2.63-4.9,2.4-7.84-.05-.7,.17-1.48,.44-2.15,1.81-4.45,3.67-8.89,5.49-13.33,.74-1.81,1.5-3.59,2.97-4.95,.25-.24,.4-.59,.61-.92Zm-108.69,157.62c0,1.22-.02,1.96,0,2.7,.05,1.2,.03,2.41,.22,3.59,.23,1.4,.8,1.72,2.17,1.24,2.7-.96,5.48-1.78,8.02-3.07,3.33-1.7,6.75-2.98,10.36-3.87,5.64-1.38,11.4-2.22,16.84-4.5,2.27-.95,2.56-1.53,2.4-3.67-.35-4.6-.86-9.2-1.58-13.76-.62-3.92-1.59-7.78-2.45-11.66-.64-2.89-1.55-5.73-1.98-8.65-.57-3.92-.8-7.9-1.16-11.85-.08-.83-.05-1.66-.15-2.49-.11-.89-.64-1.04-1.38-.64-.33,.18-.63,.38-.97,.54-3.33,1.6-6.67,3.2-10,4.8-.67,.32-1.37,.57-2.01,.93-.44,.26-.63,.68-.09,1.08,.44,.33,.9,.65,1.34,.98,1.76,1.34,3.7,2.5,5.24,4.06,2.6,2.62,4.95,5.49,7.38,8.27,.22,.26,.37,.63,.42,.97,.02,.13-.43,.48-.53,.43-.32-.15-.6-.41-.84-.67-2.33-2.49-4.57-5.07-7.01-7.45-2.46-2.4-5.3-4.47-8.57-5.48-2.09-.64-3.59-2.14-5.56-2.84-.31-.11-.53-.5-.75-.79-1.04-1.35-1.02-1.32-2.58-.87-2.57,.74-5.14,1.49-7.74,2.14-3.05,.76-6.13,1.39-9.17,2.15-1.57,.4-2.03,1.08-1.73,2.61,.25,1.26,.72,2.48,1.16,3.69,1.36,3.73,2.98,7.39,4.09,11.2,1.84,6.3,3.25,12.72,5.05,19.04,1.16,4.05,1.75,8.11,1.58,11.82ZM182.76,108.32c-.42,.3-.79,.55-1.14,.83-1.08,.86-2.07,1.88-3.24,2.57-4.56,2.68-8.48,6.22-12.74,9.31-1.23,.89-1.1,1.58,.28,2.17,2.37,1.02,4.78,1.94,7.12,3.02,2.09,.97,4.05,2.23,6.17,3.13,2.46,1.05,5.01,1.88,7.55,2.74,.35,.12,1.14-.08,1.19-.28,.58-2.15,2.63-2.72,4.1-3.9,.34-.27,.83-.46,1.26-.48,.28-.02,.63,.29,.84,.55,.09,.11-.04,.54-.2,.69-1.15,1.06-2.36,2.06-3.5,3.14-.39,.37-.36,.85,.32,.96,.55,.09,1.1,.17,1.65,.2,2.55,.13,4.84,.88,7.03,2.27,1.45,.92,3.2,1.44,4.88,1.88,2.52,.65,4.99,1.32,7.24,2.7,.78,.48,1.66,.86,2.54,1.08,.54,.13,1.37,.06,1.75-.27,1.86-1.65,3.67-3.36,5.37-5.18,1.02-1.08,.89-1.5-.36-2.37-3.56-2.48-7.14-4.93-10.73-7.37-2.6-1.76-5.19-3.51-7.85-5.18-6.17-3.89-12.37-7.73-18.56-11.59-.3-.19-.6-.38-.97-.62ZM54.54,78.59c1.31-1.53,2.08-3.16,1.87-5.11-.14-1.28-.3-2.57-.59-3.83-.62-2.7-1.41-5.37-2.01-8.07-2.03-9.14-2.98-18.43-3.78-27.74-.41-4.72-1.01-9.37-2.49-13.89-1.29-3.94-3.23-7.68-3.77-11.87-.04-.34-.24-.7-.48-.95-.76-.79-1.56-1.53-2.36-2.27-.64-.59-1.56-.36-1.71,.49-.19,1.08-.38,2.21-.29,3.3,.13,1.67-.2,3.14-1.32,4.37-.8,.88-.83,1.74-.36,2.79,.95,2.1,1.72,4.3,2.74,6.37,3.14,6.37,4.83,13.16,6.08,20.11,.78,4.36,1.75,8.69,3.41,12.85,1.69,4.21,2.99,8.55,3.61,13.07,.47,3.44,.95,6.87,1.44,10.38Zm77.51,114.81c-.13-.73-.11-1.02-.23-1.21-2.24-3.55-3.93-7.3-4.66-11.47-.23-1.31-1.07-2.36-2.16-3.13-.98-.7-1.98-1.37-3.01-1.98-2.14-1.28-4.31-2.52-6.46-3.79-.76-.45-1.5-.94-2.26-1.42-.09,1.3,.96,1.83,1.72,2.55,.27,.25,.57,.47,.87,.69,1.57,1.19,2.74,2.67,3.71,4.41,.79,1.43,1.82,2.82,3.03,3.91,2.04,1.83,3.65,3.91,4.82,6.35,.97,2.03,2.81,3.23,4.62,5.09Zm-13.13,54.91c-.38-.22-.67-.52-.94-.5-.19,0-.35,.44-.53,.69,.3,.16,.58,.38,.9,.46,.11,.02,.3-.32,.57-.64Z"/><path d="M71.14,235.11c-5.77-1.14-10.84-2.52-16.15-1.14-.72,.19-1.41,.43-2.13,.62-1.9,.5-2.37,.24-3.17-1.59-1.06-2.42-1.26-5.01-1.43-7.59-.35-5.34-.72-10.68-.41-16.04,.07-1.17-.28-2.37-.47-3.56-.11-.73-.34-1.45-.41-2.18-.39-4.14-.68-8.29-1.15-12.42-.5-4.46,.2-8.85,.46-13.27,.17-2.77,.33-5.54,.37-8.31,.03-2.03-.42-2.54-2.49-3.02-1.82-.43-3.6-.86-5.09-2.06-.79-.63-1.69-1.2-2.28-1.99-2.14-2.86-5.24-3.92-8.47-4.78-2.21-.59-4.6-.69-6.19-2.73-.41-.53-.98-.44-1.15,.37-.74,3.41-.06,6.6,1.54,9.63,.21,.41,.52,.76,.78,1.15,2.01,2.99,2.66,6.22,1.95,9.77-.53,2.63-.85,5.3-1.35,7.93-.87,4.59-.61,9.23-.53,13.83,.08,4.51,.64,9.01,1.03,13.5,.15,1.72,.82,1.73,2,1.12,.49-.25,1.04-.39,1.56-.58,2.81-.99,5.22-.25,7.46,1.58,1.79,1.46,3.71,2.76,5.57,4.13,.69,.51,1.35,.95,2.29,.56,.2-.08,.55,.19,.84,.3-.18,.3-.29,.75-.56,.89-1.06,.53-2.19,.5-3.18-.15-1.7-1.11-3.41-2.22-4.98-3.48-1.67-1.34-3.45-2.19-5.6-1.88-1.07,.16-2.13,.53-3.15,.92-.68,.26-1.26,.78-1.94,1.08-1.32,.58-1.88,.27-2-1.19-.2-2.39-.31-4.78-.43-7.18-.14-2.76-.11-5.53-.41-8.28-.6-5.57-.29-11.08,.57-16.58,.39-2.47,.78-4.93,1.16-7.4,.44-2.82-.32-5.39-2.01-7.58-2.25-2.92-2.48-6.3-2.63-9.72-.09-2.11,.04-4.23,.17-6.35,.03-.45,.39-.98,.76-1.26,.16-.12,.79,.25,1.1,.51,.42,.35,.76,.81,1.09,1.25,1.73,2.32,3.96,3.72,6.85,4.34,2.05,.44,3.97,1.49,5.94,2.3,.93,.38,1.87,.78,2.73,1.3,.6,.36,1.43,.85,1.54,1.4,.33,1.66,1.68,2.17,2.84,2.81,1.12,.61,2.4,.94,3.64,1.33,.86,.27,1.44-.11,1.5-1.09,.07-1.2,.03-2.41-.1-3.6-.22-2.1-.69-4.13,.09-6.28,.41-1.14,.03-2.56,.08-3.86,.05-1.41,.28-1.6,1.61-1.71,2.12-.16,4.24-.26,6.35-.51,3.22-.37,6.25,.36,9.24,1.41,1.13,.4,2.21,.96,3.35,1.32,1.32,.42,2.67,.93,4.02,.98,2.16,.08,4.25,.35,6.25,1.12,2.82,1.09,5.76,1.16,8.71,1.31,2.2,.12,4.4,.42,6.58,.71,1.13,.15,1.74,1.04,2.06,2.04,.79,2.41,1.17,4.83,.27,7.34-.69,1.91-1.26,3.87-1.8,5.83-1.41,5.12-1.67,10.4-2.12,15.65-.08,.92-.05,1.89-.33,2.75-1.47,4.51-1.13,9.14-1,13.76,.01,.46,.11,.93,.07,1.39-.38,5.06,1.04,9.76,3.21,14.19,1.63,3.33,2.08,6.88,2.83,10.39,.37,1.71,.59,3.46,.82,5.2,.18,1.37-.62,2.24-1.71,1.66-3.26-1.74-6.53-.51-9.8-.34-.37,.02-.72,.17-1.09,.21-2.59,.29-2.56,.3-3,2.84-.48,2.73-.96,5.46-1.57,8.16-.86,3.81-1.21,7.66-1.47,11.54-.2,3.02-.92,6.01-1.33,9.03-.32,2.37-.95,4.7-.64,7.15,.13,1.05-.28,2.19-.51,3.27-.35,1.71-1.17,2.74-3.16,2.82-1.54,.06-3.1,.56-4.59,1.05-2.01,.67-4,.52-6.04,.27-3.57-.42-7.16-.67-10.73-1.12-3.85-.48-7.73-.43-11.57-1.23-4.53-.93-9.16-1.16-13.81-.54-5.77,.77-11.57,1.37-17.35,2.13-1.36,.18-2.68,.67-3.99,1.1-.87,.29-1.68,.8-2.56,1.06-1.34,.4-2.04-.22-2.07-1.66-.12-4.9-.45-9.8-.32-14.69,.16-6,.21-12.02,1.24-17.97,.6-3.45,.97-6.94,1.4-10.41,.23-1.82,1.18-2.83,2.99-2.97,.74-.06,1.48-.04,2.22-.05,5.83-.06,11.66-.21,17.49-.14,3.42,.04,6.83,.43,10.25,.66,5.17,.36,10.33,.56,15.52,.03,4.43-.45,8.87,.08,13.29,.6,1.62,.19,3.3-.08,4.95-.22,.39-.03,.76-.38,1.74-.92Zm-8.23-81.04c-3.2-1.11-6.74-.78-9.89-2.26-.79-.37-1.81-.27-2.73-.33-1.65-.11-1.92,.11-1.6,1.6,.32,1.46,.54,2.87,.09,4.36-.18,.59-.15,1.31-.01,1.92,.61,2.67,.29,5.31,.05,7.99-.29,3.22-.2,6.48-.64,9.67-.48,3.5-.63,7-.53,10.5,.18,6.09,.42,12.18,1.65,18.18,.25,1.24,.21,2.56,.21,3.84,.02,3.04-.17,6.09,0,9.12,.18,3.03,.68,6.05,1.07,9.07,.11,.82,.26,1.65,.49,2.45,.49,1.66,.75,1.8,2.57,1.64,2.94-.27,5.86-.81,8.83-.14,1.89,.43,3.82,.72,5.74,.95,4.02,.47,8.08,1.32,11.89-1,.77-.47,1.73-.54,2.06,.52,.33,1.08,1.07,1.2,1.92,1.15,3.23-.19,6.45-.43,9.68-.63,.8-.05,1.13-.47,1.14-1.25,.05-4.11-.37-8.08-2.42-11.8-1.66-3-2.87-6.21-3.16-9.68-.35-4.14-.74-8.28-1.03-12.43-.15-2.12-.09-4.22,.45-6.33,.56-2.22,1.03-4.53,1.08-6.81,.12-6.26,1.49-12.26,3.17-18.23,.57-2.02,1.34-4.02,.83-6.23-.48-2.09-.75-2.46-2.85-2.71-2.66-.31-5.33-.51-7.96-.97-3.18-.56-6.3-1.46-9.48-2-3.49-.59-6.87-1.47-10.12-2.84-2.36-1-4.82-1.23-7.34-.91-.21,.03-.39,.26-.59,.39,.17,.19,.31,.49,.52,.55,.61,.19,1.25,.34,1.89,.41,1.88,.21,3.56,.9,5.03,2.22ZM13.48,237.12v.04c-1.85,0-3.7-.02-5.55,0-3.02,.03-3.15,.02-3.73,2.87-.72,3.52-1.21,7.09-1.79,10.65-1.52,9.31-.57,18.62,.08,27.93,.08,1.17,.48,1.33,1.69,.94,.87-.28,1.74-.69,2.63-.76,5.43-.44,10.85-.94,16.26-1.62,6.14-.78,12.26-.75,18.48,.25,7.27,1.17,14.7,1.4,22.04,2.14,3.18,.32,5.96-1.11,8.91-1.76,.58-.13,1.21-.89,1.46-1.5,.34-.82,.37-1.79,.5-2.7,.14-1,.21-2.02,.35-3.02,.26-1.82,.58-3.64,.83-5.46,.25-1.83,.41-3.67,.68-5.5,.17-1.18,.64-2.35,.67-3.53,.14-4.84,1.18-9.53,2.03-14.26,.31-1.72,.63-3.45,.76-5.2,.1-1.39-.5-1.83-1.88-1.64-.54,.07-1.08,.26-1.59,.46-1.2,.48-2.42,.93-3.58,1.51-2.95,1.49-5.99,1.37-9.19,1-4.12-.48-8.32-.9-12.44-.62-6.58,.45-13.09,.11-19.63-.38-1.56-.12-3.13-.35-4.7-.31-4.44,.1-8.87,.3-13.31,.46Z"/><path d="M113.46,184.51c-.38,2.46-.64,4.94-1.16,7.37-1.1,5.15-.82,10.29-.18,15.44,.09,.72,.5,1.39,.65,2.1,.24,1.12-.15,1.87-1.26,2.07-3.13,.56-6.02,1.71-8.85,3.11-1.49,.74-3.95-.29-4.7-1.82-.09-.19-.03-.58,.12-.74,.12-.13,.53-.17,.7-.06,1.74,1.11,3.34,.51,4.99-.26,1.41-.66,2.88-1.2,4.36-1.72,1.76-.62,2.44-.74,2.25-3.1-.28-3.49-.49-7-.39-10.5,.08-3.03,.66-6.05,.95-9.08,.12-1.28,.1-2.58,.05-3.87-.03-.88-.54-1.33-1.48-1.18-1.28,.2-2.57,.31-3.83,.6-2.79,.63-5.52,0-8.26-.34-.36-.04-.78-.11-1.05-.32-.31-.25-.7-.71-.66-1.02,.05-.36,.5-.88,.84-.93,.61-.1,1.28,.03,1.9,.19,4.05,1.02,8.07,.51,12.09-.17,1.92-.33,2.47,.05,2.68,1.99,.08,.73,.01,1.48,.01,2.22l.24,.03Z"/><path d="M136.67,46.7c-1.61-.28-3.26-.5-4.87-.87-1.16-.26-1.49-.79-.98-1.79,.71-1.38,1.56-2.72,2.58-3.88,1.34-1.52,2.9-2.85,4.35-4.27,.46-.45,.91-.92,1.33-1.41,.38-.44,.34-.85-.29-1.02-.44-.12-.98-.05-1.33-.28-.31-.21-.64-.76-.57-1.08,.07-.34,.64-.88,.9-.83,2.79,.49,5.8-.18,8.37,1.45,.84,.53,1.66,1.2,2.25,1.98,.69,.9,.31,1.75-.82,2.12-.96,.32-1.97,.51-2.95,.78-.8,.22-1.62,.42-2.4,.7-1.22,.45-1.27,.57-.46,1.6,1.1,1.39,1,2.93,.72,4.49-.16,.89-.75,1.47-1.68,1.62-1.36,.23-2.72,.44-4.16,.67Zm.96-2.12c.14-.01,.78-.05,1.41-.12,.79-.08,1.46-.31,1.52-1.27,.06-.94-.28-1.7-1.24-1.88-1.17-.22-2.38-.33-3.57-.35-.94-.01-2.03,1.12-2.08,2.24-.05,1.18,1.05,1.03,1.8,1.2,.54,.12,1.1,.1,2.16,.18Zm1.97-7.35c2.35-.6,4.08-1.04,5.79-1.51,.11-.03,.26-.5,.18-.61-.54-.7-2.27-1.13-2.95-.69-.95,.62-1.9,1.29-3.01,2.81Z"/><path d="M163.14,38.73c2.26,.13,3.71,1.37,5.25,2.32,.76,.47,.55,1.89-.32,2.36-.96,.52-2.03,.86-3.08,1.2-.7,.23-1.45,.29-2.16,.47-.77,.19-1.09,.73-.83,1.46,.36,1.04,.83,2.04,1.25,3.06,.24,.59,.56,1.16,.69,1.77,.14,.67-.04,1.34-.84,1.5-.69,.14-1.21-.08-1.48-.86-.66-1.92-1.37-3.82-2.09-5.71-.4-1.05-.82-1.13-1.48-.3-.81,1.01-1.54,2.08-2.4,3.03-.4,.44-.99,.82-1.56,.97-.75,.2-1.45-.68-1.15-1.41,.21-.5,.58-.93,.89-1.38,1.1-1.59,2.47-3.06,3.26-4.8,1.3-2.87,3.94-2.99,6.06-3.69Zm-2.46,3.78c.19,.13,.41,.42,.61,.4,1.25-.1,2.5-.25,3.75-.45,.1-.02,.26-.7,.13-.83-1.05-1.13-3.35-.95-4.38,.3-.1,.12-.07,.34-.11,.57Z"/><path d="M158.42,216.89c-.27-1.91-.52-3.83-.85-5.73-.04-.21-.56-.5-.81-.47-2.29,.29-3.44,1.6-3.26,3.91,.16,2.02,.54,4.01,.79,6.02,.09,.71,.33,1.53-.59,1.92-.66,.28-1.3-.47-1.38-1.6-.16-2.3-.23-4.6-.49-6.89-.17-1.5,.37-2.53,1.58-3.24,2.25-1.33,4.66-2.27,7.28-2.45,2.56-.18,4.75,1.48,5.31,3.95,.55,2.42,.25,4.79-.95,6.99-.71,1.31-1.86,2.08-3.33,2.19-2.28,.16-3.57-1.17-3.51-3.48,0-.37,.04-.74,.06-1.11l.15-.02Zm6.52-1.8c0-3.36-1.94-5.29-4.84-5.15-.76,.04-1.16,.3-.98,1.22,.42,2.16,.69,4.35,1.11,6.52,.11,.57,.42,1.31,.87,1.57,.75,.44,1.64,.19,2.27-.47,1.06-1.13,1.54-2.5,1.58-3.68Z"/><path d="M196.05,57.49c-2.46-.16-4.17,.19-5.74,1.08-1.13,.64-1.79,1.63-1.72,2.95,.07,1.28,1.03,1.89,2.1,2.33,.51,.21,1.05,.36,1.59,.48,.84,.19,1.31,0,1.53-1.02,.37-1.67,.75-1.86,2.26-1.4,1.59,.49,3.13,1.12,4.86,.95,.31-.03,.68,.49,1.02,.76-.29,.3-.53,.79-.87,.87-.8,.2-1.64,.27-2.47,.27-.95,0-1.85-.18-2.06,1.2-.04,.3-.86,.74-1.26,.68-1.91-.27-3.89-.45-5.69-1.09-3.94-1.41-4.54-5.7-1.25-8.31,1.33-1.05,2.78-1.77,4.56-1.78,1.29,0,2.57-.26,3.86-.37,.45-.04,1.02-.16,1.35,.04,.41,.25,.77,.78,.86,1.24,.05,.24-.5,.78-.86,.86-.89,.2-1.81,.22-2.07,.24Z"/><path d="M181,52.51c-.07,1.11-.18,2.21-.18,3.32,0,1.04,.54,1.33,1.4,.66,1.3-1.02,2.51-2.17,3.73-3.29,.34-.31,.56-.73,.89-1.06,.7-.7,1.76-.88,2.19-.32,.56,.71,.32,1.45-.29,1.96-2.19,1.83-4.43,3.61-6.66,5.39-.28,.23-.64,.38-.99,.5-1.69,.59-2.47,.07-2.45-1.73,.03-1.85,.18-3.69,.24-5.54,.01-.34-.16-.69-.25-1.04-.41,.12-.88,.15-1.2,.38-1.44,1.01-2.79,2.14-4.26,3.1-.75,.49-1.66,.79-2.53,.99-.29,.07-.9-.36-1.02-.69-.11-.31,.22-.79,.37-1.19,.03-.07,.14-.12,.23-.15,3.25-1.12,5.7-3.35,8.07-5.71,.13-.13,.29-.25,.46-.31,.58-.2,1.3-.66,1.74-.48,.4,.17,.66,1.04,.69,1.61,.05,1.2-.09,2.4-.15,3.6h-.04Z"/><path d="M132.65,224.86c-.5,.68-.55,1.32,.07,1.98,.69,.73,1.41,1.47,1.94,2.32,.21,.33-.08,.97-.14,1.47-.41-.11-.97-.09-1.22-.36-.99-1.09-1.84-2.31-2.82-3.41-.97-1.09-4.11-.99-5.03,.16-.19,.24-.18,.67-.21,1.02-.05,.54-.02,1.1-.12,1.64-.04,.21-.43,.55-.51,.51-.28-.14-.57-.37-.72-.64-.12-.22-.07-.54-.05-.82,.26-3.49,.49-6.99,.83-10.48,.06-.65,.59-1.25,.9-1.87,.58,.41,1.34,.69,1.7,1.25,.81,1.23,1.41,2.59,2.1,3.88,.79,1.46,1.5,3,3.34,3.43l-.07-.08Zm-5.7-.41c.36-.02,.75,.02,1.08-.08,.18-.06,.45-.45,.4-.55-.49-.96-1.04-1.9-1.61-2.82-.04-.06-.58,.05-.6,.15-.15,.71-.22,1.43-.34,2.15-.14,.86,.26,1.17,1.07,1.15Z"/><path d="M129.59,164.74c.09,.37,.39,.91,.24,1.12-.53,.74-1.21,1.36-1.84,2.03-1.5,1.59-1.36,2.14,.47,3.42,1.51,1.06,2.91,.99,4.37,.03,.85-.56,1.64-1.22,2.52-1.7,.81-.44,1.49,.1,1.34,1.04-.07,.42-.23,.98-.54,1.19-1.44,.99-2.94,1.91-4.45,2.79-.79,.46-1.56,.3-2.34-.21-1.77-1.16-3.58-2.25-5.37-3.39-.53-.34-.86-.94-.4-1.39,1.71-1.67,3.51-3.25,5.29-4.85,.11-.1,.34-.04,.73-.08Z"/><path d="M146.36,46.93c-.33-.17-1.06-.37-1.54-.83-.69-.65-.17-1.4,.25-1.98,1.24-1.71,2.48-3.42,3.83-5.03,.94-1.11,1.75-1.16,2.88-.31,2.28,1.71,2.73,4.11,.34,6.23-1.55,1.37-3.47,1.55-5.77,1.92Zm5.04-4.84c-.22-.28-.47-.88-.89-1.04-.29-.11-.92,.3-1.22,.64-.47,.53-.84,1.18-1.14,1.83-.1,.2,.09,.77,.26,.83,1.14,.38,3.07-.98,2.99-2.26Z"/><path d="M132.72,224.93c-.29-1.43-.61-2.86-.85-4.3-.05-.28,.24-.62,.37-.93,.27,.19,.65,.32,.78,.57,.24,.49,.29,1.07,.5,1.57,.35,.85,.69,1.71,1.18,2.48,.26,.41,.8,.64,1.22,.95,.25-.37,.6-.71,.74-1.12,.48-1.42,.6-2.86,.25-4.35-.16-.69-.12-1.45-.03-2.15,.03-.23,.49-.49,.8-.57,.17-.04,.5,.22,.63,.42,.19,.3,.38,.68,.35,1.01-.16,2.19-.34,4.39-.59,6.57-.08,.72-.31,1.45-.61,2.11-.59,1.31-1.62,1.45-2.56,.36-.77-.88-1.49-1.8-2.23-2.7l.07,.08Z"/><path d="M142.2,221.46c.16-2.09,1.12-3.85,3.14-5,.94-.53,1.71-.45,2.47,.32,1.62,1.64,1.74,3.12,.09,4.74-.82,.81-1.86,1.47-2.92,1.94-1.87,.82-2.8,.14-2.78-1.99Zm4.9-2.18c0-.8-.79-1.32-1.53-1.03-1,.41-1.9,2.06-1.67,3.16,.04,.2,.31,.49,.49,.5,1.13,.06,2.72-1.51,2.71-2.63Z"/><path d="M76.39,14.03c1.53,.46,2.93,.7,4.13,1.31,.86,.43,1.45,.61,2.2-.04,.19-.17,.56-.33,.75-.25,.39,.16,.81,.42,1.01,.75,.12,.2-.1,.7-.31,.94-.22,.25-.67,.54-.94,.47-2.25-.55-4.27,.47-6.37,.88-.46,.09-3.35-1.41-3.45-1.83-.06-.22,.04-.64,.2-.73,.92-.55,1.88-1.02,2.78-1.5Z"/><path d="M214.13,62.77c-.31,.53-.52,1.04-.87,1.44-1.8,2.11-3.61,4.19-5.45,6.26-.3,.33-.7,.59-1.08,.83-.55,.35-1.05,.25-1.42-.31-.34-.51-.47-1.1,.04-1.5,2.71-2.14,4.8-4.84,6.98-7.47,.21-.25,.84-.29,1.22-.19,.24,.07,.37,.56,.58,.93Z"/><path d="M168.19,53.95c-.97,.1-1.65-.71-1.38-1.44,.12-.33,.37-.63,.58-.92,1.59-2.25,3.18-4.5,4.77-6.74,.16-.22,.28-.54,.5-.64,.3-.14,.74-.26,1.01-.14,.27,.11,.57,.54,.56,.82-.02,.53-.14,1.13-.43,1.56-1.51,2.31-3.07,4.6-4.66,6.86-.24,.34-.74,.5-.96,.64Z"/><path d="M36.01,180.51c2.28,.38,4.37,.73,6.47,1.07,.7,.11,1.26,.39,1.28,1.19,.01,.6-.89,1.03-1.77,.88-.09-.02-.18-.05-.26-.09-2.63-1.18-5.36-1.22-8.15-.84-.35,.05-.76-.35-1.14-.54,.26-.34,.45-.86,.78-.98,.94-.33,1.94-.49,2.8-.69Z"/><path d="M39.27,184.5c.87,.25,2.1,.57,3.29,.98,.22,.08,.47,.62,.39,.83-.1,.25-.61,.58-.81,.51-2.09-.76-4.16-.31-6.24,0-.18,.03-.42,.05-.54-.04-.31-.27-.77-.58-.79-.91-.02-.29,.43-.81,.75-.87,1.16-.23,2.36-.32,3.94-.51Z"/><path d="M105.41,187.29c1.52-.03,2.16,.8,1.63,1.75-.17,.3-.87,.65-1.02,.54-1.3-.91-2.49-.21-3.68,.18-.87,.29-1.71,.69-2.59,.96-.19,.06-.57-.14-.69-.32-.11-.18-.05-.53,.05-.75,.11-.23,.33-.5,.57-.58,2.01-.65,4.04-1.26,5.73-1.78Z"/><path d="M105.96,192.72c-.25,.4-.38,.81-.52,.81-1.72-.03-2.75,1.32-4.12,1.98-.33,.16-.67,.33-1.02,.38-.23,.03-.59-.09-.7-.26-.11-.17-.1-.62,.04-.74,1.51-1.36,3.15-2.51,5.22-2.77,.32-.04,.7,.37,1.11,.6Z"/><path d="M40.8,197.01c-.11,.2-.16,.45-.28,.49-1.47,.48-2.95,.96-4.44,1.35-.23,.06-.64-.27-.83-.52-.1-.14,.01-.56,.17-.74,.75-.89,3.83-1.61,4.86-1.13,.22,.1,.36,.37,.53,.55Z"/><path d="M153.21,181.28c-.14-.15-.55-.38-.57-.63-.03-.52-.03-1.21,.28-1.54,.67-.72,1.49-1.31,2.32-1.86,.56-.37,1.36,.22,1.3,.88-.08,.88-2.27,3.07-3.33,3.15Z"/><path d="M67.48,16.87c.31,.17,.87,.34,.87,.51,0,.39-.15,.99-.44,1.14-.71,.37-1.52,.63-2.32,.74-.33,.05-.93-.32-1.03-.62-.09-.29,.21-.94,.51-1.08,.73-.33,1.56-.47,2.41-.7Z"/><path d="M38.89,191.6c.42,.18,1.17,.44,1.84,.85,.21,.13,.32,.7,.21,.97-.09,.22-.58,.41-.86,.38-.9-.1-1.8-.27-2.67-.5-.29-.08-.76-.52-.72-.61,.15-.36,.42-.73,.75-.92,.28-.17,.71-.1,1.45-.17Z"/><path d="M202.91,75.41c-.17-.21-.58-.5-.66-.86-.18-.81,.66-1.65,1.52-1.5,.36,.06,.84,.47,.94,.81,.2,.69-.75,1.54-1.8,1.55Z"/><path d="M98.45,17.6c.31,.5,.62,.78,.6,1.04-.01,.19-.43,.41-.71,.49-.09,.03-.44-.35-.42-.51,.03-.28,.26-.54,.53-1.02Z"/><path d="M118.89,82.24c.29-.63,.53-1.21,.8-1.77,1.08-2.21,2.68-4.19,2.78-6.82,.03-.86,.72-1.4,1.56-1.11,2.09,.72,4.17,1.47,6.17,2.41,1.13,.53,1.06,1.22,.14,2.14-.67,.67-1.36,1.1-2.37,1.23-1.45,.19-2.86,.72-4.29,1.08-.67,.17-1.42,.48-1.21,1.2,.12,.41,.95,.77,1.51,.86,.9,.15,1.85,0,2.76,.1,.98,.12,1.95,.35,2.9,.62,.96,.28,3.25-.5,3.58-1.39,.13-.36-.02-.88-.19-1.27-.32-.76-.87-1.45-1.06-2.23-.09-.38,.33-.98,.67-1.32,.11-.11,.77,.24,1.09,.49,.27,.22,.42,.6,.62,.91q1.69,2.61,4.72,1.49c.82-.3,1.85-1.14,2.36,.05,.39,.91-.84,1.22-1.48,1.67-.22,.16-.48,.28-.72,.41q-1.85,1.01-1.51,3.17c.07,.46,.23,.91,.22,1.36-.02,.62,.02,1.51-.83,1.47-.49-.02-1.08-.61-1.38-1.09-.26-.42-.15-1.06-.26-1.6-.27-1.3-.97-1.82-1.9-1.09-2.23,1.75-4.52,1.34-7,.82-1.4-.29-2.92,.02-4.39-.03-.79-.03-1.63-.11-2.35-.41-.4-.17-.6-.82-.96-1.35Zm7.97-5.67l.2-.52c-.66-.18-1.31-.42-1.99-.5-.16-.02-.43,.46-.54,.76-.03,.09,.31,.46,.48,.46,.62,0,1.24-.12,1.85-.19Z"/><path d="M83.4,53.9c-.18-1.56-.37-3.12-.55-4.68-.04-.37-.09-.74-.07-1.1,.03-.67,.19-1.43,1.01-1.36,.4,.04,.76,.66,1.09,1.05,.1,.12,.11,.36,.1,.54-.15,3.07,.34,6.08,.87,9.09,.13,.75-.11,1.67-.46,2.38-.63,1.26-1.56,1.41-2.62,.38-1.16-1.13-2.45-1.58-4.02-1.42-1.56,.15-3.13,.27-4.69,.36-.73,.04-1.48,.08-2.18-.08-1.19-.27-1.33-.83-.71-2.01,.64-1.23,1.16-2.52,1.89-3.7,.96-1.57,2.04-3.07,3.14-4.54,.31-.42,.84-.69,1.32-.94,.19-.1,.57,.01,.75,.16,.09,.07,.03,.55-.11,.67-2.24,1.87-2.94,4.65-4.24,7.07-.54,1.01-.26,1.36,.83,1.31,.92-.04,1.85-.11,2.77-.2,1.67-.17,3.3-.21,4.9,.53,.97,.45,1.29,.12,1.19-1.01-.07-.83-.18-1.65-.27-2.48h.07Z"/><path d="M88.92,76.57c-.78,1.55-1.26,2.52-1.75,3.5-.33,.66-.61,1.34-.98,1.98-.38,.65-.9,1.36-1.74,.92-.96-.5-.38-1.23-.02-1.87,1.39-2.49,2.75-4.99,4.15-7.47,.22-.39,.49-.79,.83-1.06,.39-.32,.96-.34,1.12,.23,.33,1.13,.52,2.31,.79,3.46,.04,.16,.2,.42,.3,.41,.23-.01,.56-.09,.66-.25,.47-.79,.86-1.63,1.33-2.42,.32-.54,.67-1.1,1.12-1.54,.52-.5,1.26-.27,1.57,.41,.11,.25,.23,.52,.24,.79,.05,2.11,.11,4.23,.09,6.34,0,.72-.5,1.23-1.28,1.12-.82-.12-.85-.79-.86-1.48-.02-1.02,1.1-2.03,.03-3.05-.57,.79-1.12,1.59-1.7,2.37-.33,.44-.67,.9-1.1,1.22-.73,.56-1.69,.3-2.07-.54-.19-.41-.22-.89-.33-1.33-.08-.35-.16-.71-.39-1.72Z"/><path d="M104.48,78.7q-2.34-.07-3.13,1.97c-.43,1.11-.76,2.27-1.31,3.32-.17,.33-.99,.61-1.33,.47-.36-.15-.52-.82-.71-1.29-.05-.13,.08-.35,.13-.52,.65-2.49,1.31-4.97,1.92-7.46,.22-.91,.5-1.69,1.62-1.21,.74,.31,1.16,.04,1.71-.39,.79-.62,1.63-1.23,2.55-1.62,1.41-.6,2.56,.12,2.84,1.62,.51,2.81-1.49,5.19-4.29,5.11Zm2.49-4.48c-.22-.1-.52-.38-.76-.33-1,.2-2.16,1.37-2.2,2.19,0,.17,.28,.49,.47,.52,.86,.13,1.93-.75,2.39-1.89,.03-.08,.04-.17,.1-.48Z"/><path d="M119.2,91.79c2.32,.55,4.7,.93,6.96,1.69,4.11,1.38,8.18,2.9,12,5.01,1.2,.66,2.57,.99,3.85,1.52,.18,.08,.35,.47,.31,.68-.03,.17-.39,.38-.6,.38-.35,0-.72-.13-1.05-.27-3.49-1.45-6.91-3.1-10.48-4.31-3.39-1.15-6.91-2.02-10.43-2.67-1.56-.28-3.27,.32-4.91,.46-.4,.03-.82-.17-1.23-.27,.29-.42,.51-1.09,.89-1.21,1.14-.35,2.34-.49,3.52-.68,.36-.06,.74,0,1.11,0l.07-.32Z"/><path d="M71.16,72.01c.74,.1,1.2,.04,1.45,.23,.32,.25,.6,.69,.66,1.08,.09,.58-.38,.55-.87,.66-1.5,.34-3.02,.74-4.42,1.37-.67,.3-1.24,1.12-1.55,1.84-.75,1.76-.09,3.07,1.74,3.62,1.15,.34,2.36,.47,3.5,.81,.48,.14,.94,.51,1.26,.9,.16,.19,.05,.7-.08,1-.07,.15-.49,.26-.71,.22-1.8-.37-3.6-.77-5.4-1.19-1.43-.33-2.25-1.33-2.47-2.69-.51-3.11,.28-5.52,3.24-6.88,1.23-.56,2.65-.71,3.65-.96Z"/><path d="M116.69,84.46c-.52-.13-.8-.16-1.04-.28-1.63-.8-3.3-1.02-5.12-.67-.46,.09-1.23-.39-1.54-.83-.23-.32-.05-1.06,.16-1.52,.22-.48,.69-.85,1.06-1.27,1.29-1.48,2.33-3.08,2.62-5.1,.12-.82,.34-1.72,1.43-1.69,.82,.02,1.09,.91,.62,2.28-.42,1.22-1.01,2.38-1.45,3.59-.4,1.11-.23,1.45,.92,1.87,.86,.32,1.76,.54,2.64,.82,.69,.22,.8,.74,.56,1.31-.22,.53-.58,1.01-.85,1.48Z"/><path d="M75.9,100.64c-.21,.39-.26,.63-.38,.67-.13,.04-.39-.06-.46-.18-1.43-2.49-4.15-2.04-6.33-2.79-1.9-.66-3.89-1.08-5.79-1.74-2.35-.82-4.62-1.9-7.21-1.63-.27,.03-.57,0-.82-.1-.21-.09-.48-.32-.51-.52-.02-.22,.15-.55,.34-.67,.29-.2,.67-.37,1.01-.38,1.1-.01,2.26-.16,3.28,.13,4.52,1.29,9,2.68,13.48,4.1,.77,.25,1.55,.68,2.14,1.23,.56,.53,.88,1.32,1.24,1.88Z"/><path d="M113.5,97.05c1.97,.53,4.28,1.13,6.58,1.77,4.35,1.21,8.69,2.44,13.04,3.67,.62,.17,1.25,.33,1.81,.62,.26,.13,.36,.56,.54,.85-.37,.18-.79,.58-1.1,.51-1.98-.45-3.93-.98-5.88-1.52-5.05-1.42-10.1-2.86-15.14-4.3-.35-.1-.68-.27-1-.46-.13-.08-.29-.34-.25-.44,.09-.22,.28-.43,.48-.57,.13-.09,.35-.06,.92-.14Z"/><path d="M82.44,78.21c-.02,1.53-.68,2.37-2.22,2.71-2.15,.48-3.98-.46-5.73-1.49-.35-.2-.64-.99-.53-1.39,.25-.86,.67-1.72,1.2-2.45,1.26-1.71,2.5-2.17,3.98-1.66,2.07,.71,3.31,2.33,3.29,4.28Zm-3.65,.75c.34-.19,1.2-.43,1.59-.98,.41-.58-.85-1.72-1.98-1.8-.43-.03-1.01,.02-1.29,.29-.42,.41-.78,1.01-.86,1.57-.03,.22,.8,.57,1.27,.8,.23,.11,.54,.06,1.26,.13Z"/><path d="M112.22,102.82c.72,.15,1.36,.28,1.99,.4,2.72,.53,5.44,1.03,8.15,1.61,1.26,.27,2.51,.61,3.7,1.08,.38,.15,.56,.82,.83,1.25-.47,.17-.99,.58-1.39,.48-3.76-.89-7.5-1.89-11.25-2.82-1.07-.27-2.16-.41-3.24-.65-.24-.05-.46-.25-.69-.37,.21-.23,.37-.57,.63-.68,.41-.18,.89-.22,1.26-.3Z"/><path d="M153.29,132.38c-.36,1.42-.69,2.48-.9,3.56-.16,.81-.2,1.65-.22,2.48,0,.2,.24,.56,.39,.57,.21,.01,.52-.18,.63-.38,.66-1.22,1.19-2.52,1.94-3.67,.7-1.07,1.59-2.01,2.47-2.95,.19-.2,.91-.27,.97-.17,.2,.37,.36,.86,.27,1.25-.09,.41-.44,.81-.77,1.1-1.15,1.01-1.86,2.23-2.29,3.7-.28,.96-.76,1.91-1.37,2.71-.47,.62-1.21,1.15-1.94,1.44-1.25,.48-2.16-.18-2.32-1.55-.07-.64,.01-1.3-.05-1.94-.05-.5-.21-.98-.32-1.48-.38,.36-.78,.71-1.15,1.09-.84,.85-1.65,1.74-2.53,2.55-.51,.46-1.25,.68-1.67,0-.18-.29,.08-1.05,.37-1.4,1.12-1.34,2.38-2.58,3.51-3.91,.89-1.05,1.72-2.16,2.5-3.3,.37-.54,.66-1.36,1.36-1.07,.53,.22,.82,1.01,1.1,1.38Z"/><path d="M194.96,148.35c.82,.11,1.18,.14,1.54,.22,2.41,.49,2.73,1,2.15,3.39-.72,3.01-2.23,3.83-5.24,2.84-2.01-.66-2.6-.5-3.03,.96-.1,.34,.08,.93,.35,1.15,.56,.47,1.27,.74,1.89,1.15,.36,.24,.78,.54,.93,.92,.14,.36,.08,.91-.11,1.25-.11,.2-.65,.2-.99,.23-.17,.02-.39-.06-.52-.16-1.21-.97-2.66-1.2-4.12-1.46-1.05-.19-1.37-.98-.75-1.87,1.75-2.49,3.47-5.01,5.41-7.34,.62-.75,1.87-.97,2.51-1.28Zm.4,2.38c-1.15,0-2.34,.6-2.2,1.13,.26,.99,1.25,.91,1.96,1.23,.16,.07,.35,.09,.53,.1,.76,.04,1.71-.64,1.5-1.2-.19-.49-.8-.83-1.26-1.2-.12-.1-.35-.05-.53-.07Z"/><path d="M171.74,162.06c.3,1.13,.54,2.29,.93,3.39,.19,.53,.84,.53,1.13,.11,.62-.91,1.13-1.89,1.64-2.87,.39-.74,.7-1.6,1.76-1.4,.7,.14,.79,1.09,.21,2.43-.44,1.01-.94,2.01-1.48,2.97-1.29,2.26-4.24,2.42-5.41-.27-.29-.66-.41-1.4-.62-2.1-.21-.71-.65-.87-1.17-.34-.64,.66-1.21,1.39-1.84,2.07-.31,.33-.63,.75-1.02,.88-.36,.11-.9-.02-1.21-.25-.2-.14-.3-.78-.15-.98,1.82-2.43,3.67-4.84,5.58-7.21,.14-.17,.88-.09,1.13,.13,1.07,.9,.77,2.18,.52,3.42Z"/><path d="M120.94,142.7c1.52-1.44,2.67-2.6,3.89-3.67,.46-.4,1.07-.66,1.65-.89,.16-.06,.56,.15,.66,.33,.1,.18,.06,.63-.08,.73-2.56,1.83-3.81,4.67-5.53,7.15-.22,.32-.78,.63-1.11,.57-.33-.07-.7-.57-.81-.95-.31-1.06-.48-2.15-.74-3.23-.05-.22-.27-.54-.44-.56-.22-.03-.53,.14-.69,.33-.41,.49-.75,1.05-1.13,1.57-.49,.67-.92,1.41-1.51,1.96-.32,.3-.94,.26-1.43,.38-.04-.51-.23-1.06-.09-1.52,.14-.5,.55-.95,.89-1.38,1.2-1.51,2.39-3.03,3.03-4.9,.17-.48,.59-.93,1-1.26,1.03-.81,1.95-.37,2.08,.96,.13,1.34,.22,2.68,.36,4.39Z"/><path d="M117.05,120.66c.04,.74-.02,1.49,.14,2.2,.11,.48,.53,.89,.81,1.34,.44-.28,.98-.47,1.28-.86,.38-.5,.49-1.2,.86-1.72,.42-.59,.94-1.12,1.51-1.56,.2-.15,.76-.08,.99,.1,.22,.18,.43,.73,.31,.93-.97,1.66-1.92,3.34-3.06,4.88-.83,1.12-1.38,1.07-2.63,.4-1.42-.76-2.12-1.95-2.36-3.52-.14-.91-.61-1-1.25-.33-.93,.99-1.8,2.06-2.78,3-.23,.22-.81,.09-1.22,.11,0-.42-.17-.97,.03-1.24,.98-1.33,2.04-2.61,3.11-3.87,.83-.98,1.72-1.91,2.6-2.85,.54-.57,1.32-.46,1.5,.28,.22,.87,.22,1.8,.32,2.7h-.17Z"/><path d="M190.06,170.79c-1.14-.39-1.6,.17-2.05,1.18-.86,1.93-1.51,2.23-3.7,1.94-1.28-.17-2.57-.38-3.78-.79-2.39-.81-3.05-2.55-1.99-4.78,.91-1.92,2.33-3.29,4.26-4.17,.63-.29,1.29-.56,1.75,.09,.55,.79-.23,1.11-.74,1.47-.75,.53-1.61,.94-2.26,1.58-.57,.56-1.03,1.32-1.29,2.07-.13,.37,.19,1.21,.52,1.35,1.34,.58,2.75,1.06,4.18,1.41,.71,.18,1.26-.31,1.16-1.13-.11-1.02,.03-1.88,1.16-2.19,1.35-.36,2.75-.69,3.96,.32,.27,.23,.48,.84,.37,1.15-.12,.31-.65,.49-1.03,.66-.12,.06-.34-.1-.52-.16Z"/><path d="M137.4,149.84c.46-1.58,1.06-3.71,1.75-5.81,.1-.29,.77-.64,1.06-.55,.31,.09,.67,.66,.67,1.02,0,.52-.33,1.03-.47,1.56-.3,1.16-.62,2.31-.85,3.49-.19,.95-.12,1.88,1.02,2.27,.96,.33,2.11,0,2.66-.91,.62-1.02,1.06-2.15,1.66-3.19,.2-.35,.65-.56,.99-.84,.27,.43,.73,.85,.77,1.31,.04,.5-.27,1.05-.47,1.56-.69,1.74-1.3,3.46-.42,5.34,.11,.24-.07,.9-.23,.94-.38,.1-.85,0-1.23-.13-.21-.08-.39-.39-.48-.64-.49-1.24-1.38-1.53-2.66-1.41-.69,.06-1.45-.25-2.12-.54-1.23-.54-1.79-1.59-1.65-3.46Z"/><path d="M138.03,142.52c-1.79-.29-3.14-.58-4.5-.69-.41-.03-1.03,.37-1.26,.75-.36,.59,.08,.99,.69,1.2,.33,.12,.68,.29,.93,.53,.57,.52,.41,1.47-.32,1.49-2.61,.05-3.27,1.82-3.77,3.86-.08,.32-.37,.66-.66,.84-.27,.16-.69,.21-1,.14-.18-.04-.4-.43-.4-.65,0-.54,.09-1.09,.2-1.63,.28-1.43,.57-2.85,.87-4.28,.06-.26,.1-.62,.28-.75,1.16-.84,1.11-1.97,.99-3.22-.07-.72,.5-1.28,1.25-1.1,2.23,.54,4.43,1.19,6.64,1.8,.09,.02,.2,.07,.23,.14,.19,.38,.54,.81,.46,1.13-.06,.28-.64,.43-.64,.43Z"/><path d="M129.13,129.07c-.14,1.07-.17,1.79-.36,2.47-.08,.29-.51,.68-.76,.67-.4-.03-.77-.35-1.15-.57-.07-.04-.15-.16-.14-.23,.2-2.4-2.22-2.29-3.36-3.4-.19-.18-1.11,.26-1.62,.55-.55,.32-1.13,.46-1.42-.11-.19-.37-.13-1.24,.14-1.43,2.04-1.39,4.12-2.73,6.27-3.95,.79-.45,1.55,.08,1.75,1.17,.31,1.7,.47,3.43,.64,4.82Z"/><path d="M99.41,109.3c2.69,.07,4.38,1.72,5.83,3.73,.07,.1,.03,.42-.07,.49-.21,.14-.56,.32-.72,.24-.98-.5-1.9-1.13-2.89-1.61-1.47-.71-1.5-.68-2.06,.9-.29,.81-.95,1.51-.07,2.51,.66,.74,.06,1.4-.86,1.46-1.36,.08-2.08,.58-1.83,2.09,.15,.93-.42,1.41-1.31,1.32-.94-.1-1.2-.83-1.01-1.64,.31-1.31,.37-2.62,1.48-3.74,1.11-1.12,2.2-2.5,1.52-4.46-.28-.8,.59-1.28,1.99-1.27Z"/><path d="M135.24,126.27c-.3,.72-.47,1.35-.79,1.89-.66,1.1-1.39,2.16-2.12,3.23-.9,1.32-.88,1.37,.61,1.53,.73,.07,1.47,.15,2.17,.35,.51,.14,1.07,.39,1.42,.77,.32,.34,.63,1.02,.49,1.37-.14,.34-.96,.74-1.29,.61-2.07-.79-4.16-.62-6.26-.37-.09,.01-.18,0-.28,0-1.12-.08-1.47-.64-.99-1.65,.2-.41,.46-.8,.72-1.18,1.49-2.2,3.19-4.27,4.04-6.86,.12-.37,.85-.81,1.22-.75,.39,.06,.7,.68,1.06,1.08Z"/><path d="M109.29,141.55c-.35-.07-1.19-.14-1.97-.38-2.29-.71-2.85-3.24-1.18-4.97,2.4-2.49,6.71-1.52,8.36,1.17,.53,.87,.25,1.61-.33,2.26-1.16,1.31-2.66,1.92-4.89,1.92Zm.87-5.19c-.62,.19-1.25,.33-1.84,.58-.65,.26-1.18,.77-.8,1.49,.26,.5,.88,1.16,1.31,1.15,.98-.04,1.99-.35,2.89-.76,.95-.43,.93-1.4,.02-1.9-.47-.26-1.03-.36-1.59-.55Z"/><path d="M97.12,135.51c.25-1.07,.48-2.15,.75-3.21,.72-2.85,2.77-3.11,5.76-2.34,.21,.05,.34,.39,.51,.6-.25,.18-.48,.39-.75,.52-.15,.07-.36,.01-.55,.03-2.69,.24-3.29,.96-3.83,3.54-.43,2.09,.63,3.56,2.82,4.44,.85,.34,1.68,.72,2.49,1.15,.15,.08,.23,.51,.16,.71-.08,.2-.45,.5-.58,.45-1.87-.72-3.84-1.3-5.54-2.32-1.14-.68-1.23-2.19-1.24-3.57Z"/><path d="M160.14,145.03c-1.82,.01-3.32,.03-4.49-1.08-.2-.19-.2-.63-.17-.95,0-.08,.53-.24,.72-.16,2.01,.92,3.97,.54,5.9-.18,.4-.15,.95-.49,1.02-.82,.09-.46-.07-1.11-.38-1.47-.48-.58-.95-.24-1.28,.32-.14,.23-.3,.49-.53,.6-.21,.1-.59,.13-.76,0-.25-.19-.55-.55-.54-.83,.03-1.3,1.26-2.49,2.49-2.51,1.23-.02,2.55,1.15,3.1,2.76,.46,1.34,.21,2.27-.98,3.14-1.31,.96-2.81,1.37-4.11,1.17Z"/><path d="M170.54,137.98c1.5,.14,2.81,.14,3.26,1.57,.41,1.33,.02,2.49-.94,3.55-1.41,1.56-2.68,3.24-4.06,4.83-.34,.4-.82,.74-1.31,.93-.67,.26-1.4-.48-1.06-1.1,.56-1.04,1.21-2.07,2.01-2.93,1.12-1.21,2.43-2.25,3.62-3.41,.2-.2,.33-.72,.21-.92-.15-.24-.61-.43-.92-.41-.82,.05-1.65,.34-2.45,.28-.4-.03-1.04-.56-1.08-.92-.04-.36,.46-.97,.87-1.13,.66-.27,1.43-.27,1.87-.34Z"/><path d="M150.83,158.99c-.31-.06-1.24-.13-2.08-.44-.72-.26-1.22-.9-.88-1.76,.31-.78,.96-.71,1.62-.5,.35,.11,.7,.26,1.06,.28,.53,.03,.9-.16,.64-.81-.31-.77-.69-1.52-.89-2.31-.62-2.48,1.34-4.62,3.88-4.26,.16,.02,.41,.16,.43,.28,.04,.23,.04,.59-.1,.7-.92,.74-2.28,1.26-2.17,2.62,.09,1.04,.74,2.03,1.2,3.02,1.22,2.66,.88,3.19-2.7,3.16Z"/><path d="M182.36,154.97c-2.98,.63-3.9-1.11-2.72-4.1,.47-1.2,.98-2.41,1.71-3.45,.55-.78,1.42-1.42,2.28-1.9,1.27-.72,2.03-.33,2.43,1.12,.11,.39-.09,.86-.15,1.29-.31-.15-.62-.41-.93-.43-.49-.03-1.09-.04-1.47,.21-1.14,.74-1.65,1.92-1.94,3.22-.41,1.85-.43,1.85,1.45,2.42,.26,.08,.6,.09,.76,.26,.23,.25,.48,.64,.43,.92-.04,.23-.49,.49-.79,.55-.34,.07-.72-.07-1.05-.11Z"/><path d="M179.35,144.93c-.25,.47-.47,1.08-.85,1.55-1.33,1.64-2.68,3.27-4.1,4.83-.29,.32-.98,.56-1.37,.45-.66-.19-.59-.85-.32-1.38,1.28-2.48,2.85-4.72,5.24-6.26,.26-.16,.71-.15,1.02-.05,.16,.05,.21,.46,.38,.87Z"/><path d="M159.46,163.9c-.36-.44-.79-.74-.84-1.09-.06-.41,.14-.9,.35-1.3,1-1.96,2.05-3.89,3.05-5.84,.27-.52,.53-1.05,1.2-.78,.64,.26,1,.79,.85,1.53-.02,.09-.05,.18-.1,.26-1.12,2.1-2.22,4.21-3.39,6.29-.19,.35-.65,.55-1.12,.93Z"/><path d="M108.69,115.32c-.13,.43-.18,.82-.36,1.12-.79,1.34-1.59,2.66-2.44,3.96-.31,.48-.9,.87-1.36,.38-.28-.3-.18-.97-.2-1.48,0-.15,.18-.31,.28-.46,.83-1.31,1.64-2.64,2.51-3.92,.15-.22,.62-.41,.85-.33,.29,.09,.48,.47,.72,.73Z"/><path d="M110.59,295.01c.63-4.42-1.09-7.95-3.96-11.07-.31-.34-.63-.69-.84-1.09-.48-.91,.09-1.82,1.06-1.54,2.95,.86,5.87,.25,8.8-.01,1.56-.14,1.67-.26,1.59-1.91-.07-1.47-.27-2.94-.35-4.41-.07-1.29-.19-2.59-.05-3.87,.15-1.38,1.33-1.84,2.38-.91,.96,.84,1.78,1.86,2.52,2.91,1.01,1.43,1.88,2.96,2.81,4.44,.39,.62,.89,.93,1.62,.5,2.28-1.37,4.88-.75,7.32-1.15,.57-.09,1.46,.37,1.83,.86,.23,.31-.1,1.27-.46,1.72-1.21,1.51-2.48,2.98-3.83,4.37-1.44,1.49-1.52,2.28,1.01,2.8,1.35,.28,2.74,.37,4.12,.53,.46,.05,.92,.06,1.38,.12,.98,.15,2.24-.06,2.68,1.05,.5,1.24-.6,2.05-1.34,2.79-.84,.84-1.88,1.48-2.84,2.21-1.17,.89-2.46,1.65-3.11,3.08-.45,.99-1.27,1.04-2.06,.5-1.15-.77-2.21-1.66-3.33-2.48-.52-.38-1.03-.81-1.62-1.02-.29-.1-.75,.24-1.12,.41-.06,.03-.08,.16-.09,.25-.41,3.49-2.87,5.92-4.57,8.74-.05,.08-.1,.16-.16,.23-.55,.61-1.07,1.48-2.02,1.11-1.07-.42-.59-1.4-.46-2.18,.14-.82,.36-1.62,.54-2.43,.29-1.34-.08-1.74-1.42-1.27-1.47,.52-2.87,1.23-4.3,1.87-.98,.44-1.4,.28-1.51-.79-.15-1.47-.16-2.95-.23-4.38Zm1.88,.51c.15,2.29,.39,2.45,2.51,1.54,.76-.33,1.5-.72,2.24-1.11,2.55-1.35,2.73-1.26,2.8,1.52,0,.18-.01,.38,.04,.55,.05,.15,.17,.36,.28,.38,.15,.02,.43-.07,.48-.19,.65-1.51,1.38-3,1.87-4.57,.6-1.88,1.39-2.46,3.23-1.85,.87,.29,1.65,.81,2.48,1.23,.74,.37,1.46,.8,2.24,1.06,.37,.13,.94,.09,1.27-.12,1.32-.83,2.63-1.7,3.84-2.69,.53-.43,.81-1.15,1.2-1.74-.68-.22-1.37-.63-2.04-.61-2.46,.09-4.77-.51-7.04-1.34-1.12-.41-1.26-.87-.61-1.87,.3-.46,.72-.84,1.06-1.27,1.08-1.38,2.22-2.72,3.2-4.17,.67-.98,.3-1.56-.92-1.51-.81,.03-1.63,.25-2.39,.53-.69,.25-1.28,.74-1.96,1.03-1.24,.54-1.84,.38-2.63-.71-.38-.52-.63-1.13-.96-1.68-.87-1.42-1.72-2.85-2.64-4.23-.22-.33-.69-.5-1.05-.75-.11,.4-.35,.82-.3,1.19,.34,2.56,.74,5.11,1.11,7.67,.22,1.52-.39,2-1.9,1.72-1.16-.21-2.37-.43-3.52-.31-1.54,.15-3.05,.62-4.57,.95,.21,1.75,1.36,3,2.44,4.21,.92,1.03,1.11,2.06,.88,3.31-.23,1.27-.43,2.55-.64,3.82Z"/><path d="M110.5,251.09c.38,.24,.69,.42,.98,.63,1.5,1.08,3.01,2.15,4.49,3.25,5.81,4.3,12.27,7.54,18.35,11.41,2.18,1.39,4.37,2.78,5.68,5.12,.15,.27,.09,.66,.13,.99-.42,0-.86,.11-1.24-.01-.32-.1-.64-.41-.82-.72-1.8-3.03-5.14-4.08-7.77-6.03-.88-.65-1.9-1.14-2.9-1.61-5.97-2.79-11.04-7.02-16.59-10.47-.74-.46-.96-1.09-.78-1.88,.05-.22,.28-.4,.48-.68Z"/><path d="M194.32,124.17c-.11,.18-.25,.65-.57,.91-1.55,1.3-3.13,2.57-4.73,3.81-.55,.43-1.22,.59-1.72-.04-.5-.63-.19-1.27,.35-1.69,1.73-1.36,3.48-2.69,5.25-3.99,.54-.4,1.37,.06,1.43,.99Z"/><path d="M72.4,177.63c-1.7,1.15-3.46,1.81-5.49,1.72-1.06-.05-1.41,.59-1.77,1.41-.7,1.6-1.44,3.18-2.25,4.72-.23,.44-.73,.82-1.19,1.06-.79,.4-1.53-.11-1.45-.98,.35-4.08,1.25-7.99,3.81-11.34,.06-.07,.14-.14,.16-.22,.78-2.38,2.59-2.71,4.8-2.61,2.42,.11,3.14,.57,3.61,2.87,.34,1.69,.42,1.76,2.08,1.82,.37,.01,.74-.06,1.11-.06,2.27-.01,2.82,.23,3.38,2.42,.34,1.31,.99,1.58,2.12,1.56,.73,0,1.52-.04,2.19,.19,.42,.14,.77,.73,.95,1.19,.05,.13-.54,.64-.92,.79-1.28,.51-1.24,.46-.74,1.72,.4,1.02,.77,2.08,.98,3.15,.2,1-.29,1.8-1.25,2.23-1.85,.82-4.96-.8-5.24-2.79-.05-.37,.18-.95,.47-1.15,.22-.15,.82,.06,1.12,.28,.58,.43,1.02,1.04,1.61,1.45,.22,.15,.78,.07,1.01-.12,.22-.18,.33-.66,.27-.97-.22-1.22-2.82-3.72-3.89-3.59-.89,.1-1.7,.77-2.59,.89-1.69,.22-2.59,1.08-3.05,2.69-.38,1.32-.98,2.59-1.57,3.84-.26,.56-.65,1.12-1.11,1.52-.53,.46-1.05,.17-1.32-.42-.15-.32-.25-.73-.19-1.07,.48-2.72,.96-5.45,1.56-8.15,.15-.67,.75-1.25,1.18-1.85,.52-.75,1.07-1.48,1.61-2.22Zm-6.14-1.2c-.07,.98,.29,1.38,1.2,1.34,1.62-.06,2.97-1.24,3.23-2.81,.21-1.26-.56-2.12-1.84-2.09-1.01,.02-1.93,.67-2.24,1.69-.18,.6-.23,1.25-.34,1.88Zm10.83,2.01c-.31-.14-.8-.56-1.15-.47-1.25,.31-2.13,1.74-1.92,2.97,.04,.21,.53,.54,.76,.5,1.29-.24,2.36-1.54,2.31-2.99Zm-14.25,2.31l.36,.11c.21-.56,.43-1.12,.62-1.68,.02-.06-.06-.22-.09-.23-.14,0-.39,0-.4,.06-.18,.57-.33,1.16-.49,1.74Z"/><path d="M89.44,224.56c-.2,.87-.24,1.44-.47,1.93-.26,.56-.92,1.51-.98,1.48-.92-.47,.13-1,.03-1.52-.17-.88-.19-1.92-.69-2.57-.83-1.07-1.86-2.11-3.03-2.75-3.14-1.72-6.07-3.82-9.57-4.94-1.63-.52-3.06-1.68-4.56-2.6-1.1-.67-2.18-1.37-3.21-2.14-.29-.21-.36-.71-.54-1.08,.41-.13,.81-.32,1.23-.36,.24-.02,.53,.16,.74,.33,4.73,3.64,10.41,5.58,15.41,8.71,1.63,1.02,3.1,2.33,4.53,3.63,.56,.51,.81,1.36,1.1,1.87Z"/><path d="M63.65,170.65c-.25,1.81-1.22,3.39-3.09,4.37-1.72,.9-3.4,.73-5.01-.25-.98-.59-1.34-1.52-1.11-2.62,.45-2.11,2.77-4.93,5.29-5.02,2.11-.08,3.89,1.22,3.92,3.53Zm-6.39,.62c0,2.03,.1,2.33,.78,2.62,.93,.4,1.74,.12,2.63-.91,.12-.14,.25-.27,.36-.42,.89-1.31,.82-2.87-.14-3.46-1.04-.63-2.48-.19-3.31,1.11-.27,.43-.3,1-.32,1.06Z"/><path d="M80.25,169.66c-.09-.21-.33-.52-.26-.64,.33-.55,.71-1.09,1.15-1.55,2.02-2.14,4.51-3.83,6.04-6.43,.13-.22,.41-.39,.66-.48,.23-.08,.58-.12,.76,0,.18,.12,.34,.51,.27,.7-.17,.51-.43,1-.73,1.44-1.94,2.78-4.76,4.6-7.29,6.74-.13,.11-.34,.13-.6,.22Z"/><path d="M37.32,247.29c0,1.01-.02,2.03,.02,3.04,0,.23,.17,.58,.34,.64,.2,.06,.54-.08,.71-.24,.47-.44,.85-.98,1.34-1.4,.67-.57,1.45-.33,1.74,.53,.17,.52,.24,1.08,.27,1.63,.07,1.47,.14,2.95,.11,4.42,0,.36-.4,.72-.62,1.08-.35-.26-.85-.45-1.01-.8-.27-.57-.31-1.24-.46-1.86-.26-1.1-.5-1.16-1.45-.4-.5,.4-.97,.87-1.51,1.2-1.04,.62-1.83,.22-1.93-.97-.05-.55,.11-1.11,.04-1.65-.05-.38-.31-.74-.47-1.1-.4,.2-.99,.31-1.16,.63-.32,.63-.34,1.42-.63,2.07-.16,.35-.62,.56-.95,.84-.25-.32-.73-.65-.72-.97,.03-1.23,.07-2.39-1.34-2.97-.05-.02,.06-.96,.29-1.07,1.06-.5,1.1-1.34,1.06-2.32-.03-.91,.04-1.84,.18-2.74,.04-.28,.46-.5,.71-.75,.23,.25,.6,.47,.67,.76,.19,.81,.18,1.66,.38,2.46,.12,.46,.48,1.2,.78,1.22,.72,.05,1.49-.23,1.61-1.16,.08-.64,.09-1.29,.15-1.93,.06-.64,.09-1.3,.27-1.91,.08-.28,.57-.71,.73-.65,.36,.13,.87,.49,.9,.79,.1,1.19,.04,2.4,.04,3.59h-.1Z"/><path d="M9.45,253.74c.17-1.65,.33-3.29,.5-4.94,.05-.46,.26-.96,.15-1.36-.42-1.45-.27-2.37,1.47-2.81,.59-.15,.95-1.28,1.4-1.97,1.07-1.6,2.18-1.54,3.09,.17,.99,1.86,.81,3.72-.84,5.26-1.02,.95-1.14,1.82-.59,2.92,.65,1.31,1.32,2.62,2.05,3.89,.35,.62,.24,1.18-.28,1.41-.4,.17-1.24,.1-1.44-.19-.74-1.05-1.28-2.24-1.94-3.35-.16-.27-.5-.44-.76-.66-.16,.32-.4,.62-.47,.96-.13,.63-.03,1.33-.27,1.91-.17,.41-.7,.87-1.13,.94-.65,.11-.94-.46-.92-1.09,.01-.36,.1-.73,.15-1.09l-.15-.02Zm5.52-8.46c-.27-.31-.46-.63-.73-.79-.1-.06-.48,.19-.62,.38-.27,.36-.54,.76-.65,1.19-.13,.47-.09,.99-.13,1.49,.46-.25,1.01-.42,1.36-.78,.35-.37,.49-.93,.77-1.49Z"/><path d="M50.04,255.15c0-.46,.03-.93,0-1.38-.12-1.41-.4-1.53-1.69-.71-.62,.39-1.3,.76-1.77,1.3-.3,.35-.42,1.04-.31,1.51,.06,.28,.7,.51,1.11,.6,.33,.08,.72-.11,1.08-.12,.13,0,.35,.16,.37,.28,.03,.15-.03,.4-.14,.5-.85,.74-1.76,1.4-2.97,1.07-1.22-.34-1.82-1.2-1.83-2.46,0-.81-.34-1.89,.06-2.36,.93-1.09,1.43-2.65,2.98-3.18,.17-.06,.35-.19,.52-.18,.45,.02,1.21-.02,1.3,.19,.63,1.5,3.12,.32,3.31,2.36,.12,1.25,.75,1.01,1.48,.47,.37-.27,.76-.56,1.18-.71,1.72-.6,3.44,.67,3.4,2.52,0,.32-.24,.73-.5,.9-.16,.1-.6-.14-.85-.32-1.28-.93-1.52-.96-2.54,.01-.66,.64-1.21,1.4-1.87,2.04-.94,.91-1.98,.6-2.23-.66-.1-.53-.02-1.1-.02-1.65h-.04Z"/><path d="M33.38,263.78c-.94,1.6-1.69,3.31-2.84,4.68-.94,1.12-2.54,.85-4.02-.2-.65-.46-1.33-.9-1.99-1.34-.38,.72-.78,1.43-1.12,2.17-.34,.75-.52,1.6-.97,2.27-.22,.32-.93,.49-1.36,.41-.26-.04-.45-.68-.6-1.07-.05-.14,.04-.37,.14-.52,1.74-2.81,2.05-6.07,2.97-9.15,.16-.53,.29-1.07,.52-1.56,.1-.21,.46-.45,.65-.41,.31,.07,.77,.3,.83,.55,.17,.69,.26,1.43,.23,2.15-.06,1.35,.28,2.55,1.01,3.66,1.17,1.79,2.5,1.71,3.49-.23,.33-.65,.45-1.41,.82-2.04,.2-.34,.84-.79,1.05-.69,.43,.2,.7,.73,1.2,1.32Z"/><path d="M20.3,253.34c.06-2.82,1.52-4.88,3.69-6.47,.52-.38,1.39-.42,2.09-.38,1.18,.07,1.36,.45,1.01,1.63-.71,2.36-.72,4.73,.04,7.06,.55,1.7,.81,1.78,2.78,1.68,.22-.01,.59,.11,.66,.27,.09,.21,.03,.58-.11,.77-.81,1.12-2.28,1.36-3.41,.4-.75-.64-1.3-1.53-1.85-2.37-.42-.65-.81-1-1.52-.42-.07,.06-.15,.12-.23,.15-2.06,.73-3.15-.08-3.15-2.31Zm2.37,.29c.09-.02,.19-.01,.26-.06,1.33-.96,1.57-2.42,1.75-3.89,.01-.12-.25-.39-.3-.37-1.34,.53-1.72,1.79-2.12,2.99-.11,.32-.05,.72,0,1.07,.02,.11,.26,.18,.4,.27Z"/><path d="M50.95,261.53c2.7,.18,5.37,.32,8.02,.56,.42,.04,1.04,.51,1.14,.89,.21,.82-.52,1.15-1.18,1.16-1.19,.02-2.39-.15-3.59-.19-2.34-.08-2.56,.16-2.69,2.37-.14,2.29-.35,4.58-.53,6.88-.06,.74-.4,1.35-1.17,1.16-.38-.09-.87-.73-.89-1.14-.06-1.19,.09-2.39,.16-3.58,.08-1.47,.16-2.95,.25-4.42,.05-.91-.36-1.37-1.27-1.43-.55-.04-1.16-.02-1.62-.27-.41-.23-.74-.75-.88-1.21-.04-.15,.61-.71,.98-.75,1.1-.1,2.21-.04,3.27-.04Z"/><path d="M37.16,269.85c-.28,0-.55,.02-.83,0-1.47-.11-1.22-.29-1.15-1.87,.09-2.33,1.82-3.05,3.23-4.09,1.04-.77,2.19-.64,3.05,.18,1.01,.96,2,2.09,1.58,3.59-.16,.57-.93,1.19-1.55,1.38-1.39,.44-2.86,.64-4.29,.93l-.03-.13Zm3.69-3.43c-.35-.29-.63-.72-.98-.79-.83-.17-2.25,.87-2.73,1.89-.06,.14-.08,.44-.01,.48,.95,.55,1.71-.13,2.53-.43,.25-.09,.51-.21,.71-.38,.18-.16,.28-.42,.49-.76Z"/></g></g></g></svg>