<?xml version="1.0" encoding="UTF-8"?><svg xmlns="http://www.w3.org/2000/svg" viewBox="0 0 191.23 271.37"><g id="a"/><g id="b"><g id="c"><g><path d="M134.2,75.38c.13,.6,.44,1.24,.34,1.8-.26,1.49-.11,2.42,1.77,2.33,.45-.02,.98,.66,1.38,1.09,1.55,1.65,3.06,3.35,4.59,5.01,1.91,2.07,3.15,4.33,2.42,7.29-1.16,4.68,.25,9.22,.78,13.82,.12,1.01,.18,2.05,.09,3.06-.03,.4-.49,.98-.86,1.07-.38,.1-1.03-.17-1.32-.49-.89-1-1.65-2.12-2.49-3.17-.77-.97-1.65-1.87-2.34-2.89-.98-1.45-2.47-1.39-3.89-1.36-.47,.01-1.15,.56-1.35,1.03-1.9,4.52-4.87,8.32-7.71,12.25-3.13,4.34-5.63,9.13-8.66,13.55-1.91,2.78-4.33,5.22-6.48,7.84-1.7,2.07-3.38,4.17-5.03,6.29-3.41,4.37-7.77,7.62-12.26,10.75-.92,.64-1.73,1.44-2.53,2.21-.51,.49-.84,1.25-1.42,1.59-.99,.58-1.14,1.26-.94,2.32,.3,1.51,.39,3.07,.6,4.6,.04,.26,.22,.63,.42,.71,.21,.08,.65-.05,.79-.23,.82-1.06,1.56-2.19,2.38-3.24,.89-1.13,1.78-2.28,2.78-3.3,1.44-1.47,3-2.81,4.46-4.25,3.91-3.82,7.81-7.65,11.69-11.5,1.31-1.3,2.53-2.68,3.77-4.05,.83-.92,1.61-1.88,2.43-2.81,1.16-1.31,2.46-2.53,3.49-3.94,4.19-5.75,8.93-11.06,13.33-16.64,1.93-2.45,4.09-5.01,3.56-8.6-.04-.26,.34-.77,.6-.83,.33-.07,.94,.09,1.08,.34,.28,.51,.51,1.18,.42,1.73-.22,1.42-.29,3.04-1.05,4.15-1.09,1.59-.68,2.79,0,4.24,1.63,3.5,4.07,6.42,6.49,9.37,1.9,2.31,3.67,4.74,5.38,7.19,1.03,1.48,.6,2.2-1.24,2.32-.92,.06-2.16-.24-2.41,.81-.16,.7,.42,1.76,.96,2.41,2.18,2.61,4.45,5.15,6.72,7.68,.91,1.02,1.79,1.98,1.43,3.54-.28,1.25,.57,2.15,1.31,3,.87,1,1.82,1.92,2.74,2.87,.82-.89,1.69-1.73,2.44-2.67,1.34-1.7,2.61-3.45,3.87-5.2,.88-1.23,1.22-1.48,2.53-.73,2.95,1.68,5.86,3.45,8.7,5.33,2.49,1.64,4.85,3.47,7.26,5.23,.42,.3,.89,.58,1.19,.97,1.44,1.89,2.87,3.78,4.22,5.73,.97,1.41,.72,1.99-.87,2.38-.8,.19-1.65,.24-2.42,.52-.64,.24-1.45,.58-1.74,1.12-1.01,1.9-2.79,2.7-4.53,3.6-1.84,.94-3.68,1.87-5.52,2.8-.61,.31-.85,.72-.77,1.48,.33,3.1-1.27,5.29-3.57,7.09-.65,.51-1.45,.82-2.08,1.35-1.18,.97-2.27,1.38-3.45,0-.53-.62-1.14-.48-1.5,.2-1.29,2.47-3.89,3.95-4.88,6.72-.58,1.63-1.93,1.59-3.11,.18-.72-.87-1.32-1.85-1.95-2.78-.75-1.11-1.29-2.48-2.28-3.3-1.94-1.6-2.86-3.73-3.87-5.88-.45-.95-.88-1.82-.76-2.92,.13-1.16-.47-2.06-1.51-2.46-.82-.31-2.04-.74-2.57-.37-.91,.62-.14,1.67,.31,2.44,.68,1.15,1.35,2.33,2.17,3.38,.71,.92,.78,1.7-.12,2.4-1.61,1.26-2.67,3.21-4.8,3.84-.29,.08-.63,.26-.77,.5-1.75,3.05-5.02,3.11-7.85,4.02-.39,.13-.8,.21-1.19,.34-1.94,.64-2.08,.9-1.66,2.9,.02,.1,.12,.18,.13,.28,.12,.89,.24,1.77,.36,2.66,.82-.69,1.63-1.39,2.45-2.08,.67-.57,1.35-1.13,2.03-1.69,.56,1.29-.71,1.76-1.21,2.54-.66,1.04-1.59,1.91-2.29,2.93-.51,.74-.85,1.61-1.22,2.43-.16,.36-.09,.91-.34,1.15-2.97,2.8-1.91,6.5-2.12,9.86-.1,1.61,.53,3.25,.72,4.89,.07,.55-.02,1.52-.31,1.64-2.09,.9-1.4,2.69-.7,3.6,2.79,3.58,3.08,8.35,5.89,11.87,.13,.16,.28,.35,.29,.54,.03,.47,.17,1.24-.05,1.36-.47,.27-1.23,.45-1.68,.25-1.46-.64-2.75-1.71-3.07-3.28-.43-2.07-1.39-4.08-1.03-6.3,.07-.46-.07-1.08-.35-1.44-1.58-2.08-2.1-4.44-2.07-6.99,0-.41-.08-.83-.22-1.22-.09-.25-.36-.43-.55-.65-.21,.2-.53,.37-.6,.62-.35,1.17-.74,2.27-.05,3.57,.8,1.53,.62,1.58-.81,2.87-.53,.47-1.02,1.05-1.35,1.67-.5,.92-.95,1.58-2.14,.94-.66-.36-1.13-.03-1.43,.67-.56,1.29-1.15,2.56-1.82,3.79-.13,.25-.8,.48-1.01,.36-1.35-.78-2.6-1.71-3.05-3.33-.07-.26,.07-.59,.11-.88,.31,.15,.64,.27,.92,.46,.16,.11,.22,.36,.38,.48,.46,.37,.97,.52,1.22-.18,.57-1.53,1.08-3.08,1.61-4.62,.19-.56,.3-1.17,.61-1.67,.23-.37,.71-.58,1.07-.86-.5-.65-.96-1.33-1.52-1.91-.11-.11-.77,.1-.98,.33-.96,1.08-1.83,2.24-2.79,3.33-.5,.57-1.11,1.06-1.95,1.32,1.21-1.75,2.43-3.5,3.62-5.26,1.79-2.65,3.54-5.33,5.35-7.96,1.34-1.95,2.93-3.74,4.07-5.79,.99-1.78,1.59-3.79,2.19-5.75,.49-1.6-.28-3.04-1.06-4.39-.14-.25-.73-.45-1.01-.36-2.28,.76-4.42-.57-6.66-.37-.21,.02-.48-.3-.67-.52-.38-.43-.69-1.25-1.07-1.28-.88-.07-1.92,.01-2.66,.44-1.36,.8-2.75,1.26-4.3,1.59-1.86,.39-3.68,.47-5.53,.28-2.64-.27-5.35,.25-7.91-.86-1.32-.57-2.64-1.21-4.02-1.58-4.26-1.16-8.48-2.54-12.96-2.73-1.28-.05-1.56,.36-1.54,1.59,.01,.84-.34,1.86-.88,2.51-1.24,1.49-2.72,2.76-4.02,4.2-.35,.39-.56,1.08-.51,1.61,.15,1.87,.33,3.7-.46,5.5-.14,.33-.16,1,.02,1.13,1.35,.93,.54,2.31,.77,3.45,.16,.75-.36,1.24-1.36,1.17-1.88-.12-2.37,.11-2.64,1.63-.21,1.2-.55,1.83-1.84,1.95-2.76,.25-3.69,2.21-4.08,4.62-.1,.61-.16,1.26-.42,1.8-.63,1.35-1.58,2.42-.29,4.14,.9,1.2,1.2,2.78,2.91,3.34,.49,.16,.94,.81,1.16,1.34,1.04,2.47,2,4.98,2.97,7.48,.11,.28,.26,.64,.17,.89-.12,.35-.41,.68-.71,.89-.11,.07-.6-.18-.72-.39-.44-.82-.79-1.68-1.17-2.53-.38-.85-.69-1.74-1.16-2.53-.21-.36-.83-.79-1.14-.72-.75,.18-1.28,.83-.99,1.64,.38,1.07,.89,2.09,1.41,3.1,.45,.86,.51,1.63-.48,2.05-.75,.32-.61,.92-.8,1.48-.2,.62-.69,1.19-1.17,1.67-.52,.52-1.1,.51-1.5-.24-.05-.09-.09-.18-.15-.27-.48-.74-.7-1.98-1.78-1.79-.38,.07-.49,1.42-.79,2.16-.81,2-.6,3.99,.01,5.99,.56,1.81,.66,3.64,.04,5.48-.23,.67-.23,1.43-.31,2.15-.18,1.5,.14,2.04,1.36,2.69,1.08,.57,2.19,1.12,3.16,1.84,2.29,1.69,4.87,2.7,7.57,3.47,.47,.13,.92,.31,1.34,.64-2.71,.54-5.21-.16-7.61-1.29-1.02-.48-2.15-.98-2.89-1.78-.79-.85-2.36-.24-2.73-1.67-.04-.14-.56-.3-.8-.24-.98,.25-2.19,2.63-1.86,3.57,.56,1.57,1.96,2.17,3.47,1.42,.54-.27,1-.71,1.53-1.03,.08-.05,.33,.12,.47,.23,.05,.04,.04,.23,0,.29-.98,1.24-2.09,2.37-3.75,2.46-.63,.03-1.42-.35-1.89-.81-.65-.63-1.05-1.52-1.58-2.28-.68-.98-.62-1.74,.18-2.75,2.13-2.71,3.73-5.67,3.37-9.34-.12-1.23-.37-2.16-1.59-2.75-.92-.44-1.72-1.14-2.58-1.7-.61-.39-1.22-1.03-1.86-1.07-3.26-.2-5.52-2.66-8.45-3.57-.19-.06-.39-.18-.52-.33-.19-.22-.5-.66-.44-.72,.24-.26,.58-.47,.91-.61,.26-.11,.57-.08,1.18-.15-2.83-2.52-5.6-4.6-8.84-6.01-1.98-.86-4.05-1.61-5.41-3.45-.29-.39-.82-.9-.74-1.23,.63-2.59-.05-5.32,1.09-7.9,.64-1.44,.57-3.2,.78-4.83,.14-1.05,.26-2,1.62-.93,.03,.02,.64-.47,.6-.63-.12-.46-.32-1.02-.68-1.29-1.57-1.18-3.09-2.51-4.84-3.33-4.89-2.32-9.44-5.12-13.59-8.56-.71-.59-1.44-1.19-2-1.91-2.11-2.7-2.11-2.9,.24-5.38,1.38-1.46,2.33-3.13,3.03-5,1.27-3.39,2.64-6.73,2.9-10.41,.08-1.21-.28-1.94-1.37-2.45-1.12-.53-2.13-1.29-3.27-1.78-.82-.35-1.76-.52-2.65-.59-1.02-.08-2.06,.05-3.1,.07-2.13,.04-3.91-.49-4.56-2.84-2.75-2.52-1.08-5.82-1.56-8.75,1.68-1.34,1.35-3.82,3.38-5.23,1.96-1.35,3.18-3.74,4.76-5.66,3.47-4.23,6.94-8.45,9.96-13.03,.84-1.28,2.09-2.13,1.84-3.91-.04-.3,.61-.72,.96-1.07,1.81-1.8,3.62-3.6,5.43-5.39,.61-3.41,3.94-4.55,5.88-6.84,1.91-2.26,4.38-4.05,6.69-5.95,1.91-1.57,3.93-2.97,5-5.37,.49-1.1,1.46-1.99,2.25-2.95,.67-.81,1.3-1.57,1.21-2.74-.04-.47,.15-1.09,.47-1.42,1.8-1.81,2.55-4.44,4.85-5.92,.78-.5,1.25-1.95,1.31-3,.08-1.61,.79-2.32,2.18-2.94,1.68-.74,3.24-1.78,4.79-2.79,1.12-.73,1.03-.86,.19-1.88-1.31-1.58-2.6-3.19-3.76-4.88-.85-1.22-.59-2.02,.64-2.77,.35-.21,.74-.39,1.14-.48,2.71-.66,4.71-2.53,6.93-4.01,1.08-.72,1.93-1.58,1.98-2.96,.05-1.33,.7-2.23,2.02-2.31,3.82-.24,4.9-2.75,5.36-6,.24-1.71,.25-3.26-.79-4.73-1.31-1.84-2.52-3.75-3.84-5.57-.62-.85-1.48-1.41-2.61-1.49-2.56-.2-3.57-2.24-4.69-4.08-.53-.87-.27-1.8,.37-2.59,1.39-1.73,1.96-3.83,2.77-5.84,.73-1.78,1.84-3.42,2.9-5.06,2.4-3.72,4.86-7.4,7.32-11.09,.56-.84,1.17-1.66,1.79-2.46,.38-.49,.88-.89,1.22-1.4,3.53-5.33,8.33-9.41,13.28-13.31,2.1-1.66,4.31-3.22,6.64-4.52,4.37-2.45,5.88-1.82,8.59,.82,1.84,1.79,3.59,3.68,5.28,5.62,1.4,1.61,1.54,1.7,3.25,.55,1.11-.74,2.25-1.44,3.37-2.18,3.18-2.11,7.06-1.99,10.12,.2,2.13,1.53,3.03,3.35,2.63,6.09-.42,2.9-1.27,5.58-2.57,8.16-.16,.32-.1,.75-.14,1.13,.37-.02,.87,.1,1.08-.09,.75-.69,1.57-.83,2.55-.81,.69,.01,1.41-.28,2.09-.52,3.01-1.07,6.06-2.04,8.99-3.31,2.23-.96,4.57-1.22,6.88-1.68,.52-.1,1.37,.09,1.62,.46,.24,.35,.06,1.22-.24,1.65-1.33,1.95-2.76,3.83-4.17,5.73-.25,.33-.56,.62-.77,.97-.42,.69-1.14,1.47-.45,2.23,.78,.86,1.49-.07,2.14-.45,.71-.41,1.39-.91,2-1.46,1.41-1.28,2.86-1.3,4.54-.51,1.61,.75,2.04,1.74,.84,2.95-1.46,1.46-2.95,2.93-4.65,4.07-2.59,1.75-4.31,4.1-5.67,6.83-1.51,3.02-3.09,6-4.67,8.99-.24,.44-.54,.93-.95,1.19-1.91,1.22-2.06,3.22-2.41,5.15-.31,1.72-.45,3.49-.94,5.15-1.34,4.46-2.27,9-2.96,13.6-.18,1.17,.03,2.53-1.12,3.41,.07-1.03,.1-2.07,.23-3.09,.11-.86,1.13-1.91,.05-2.48-.62-.33-1.72,.25-2.61,.43-.1,.02-.19,.08-.27,.14-1.07,.8-2.16,.59-3.18-.05-1.48-.92-2.9-1.95-4.37-2.88-.95-.59-1.99-1.03-2.92-1.64-1.02-.66-2.23-1.24-2.9-2.19-1.13-1.61-2.72-2.32-4.3-3.3-3.3-2.03-6.16-1.83-9.06,.56-.61,.51-1.65,.75-1.94,1.37-1.49,3.2-2.78,6.46-1.32,10.09,.34,.84,.61,1.83,.49,2.69-.22,1.64,.41,2.78,1.52,3.84,.6,.57,1.27,1.13,1.66,1.83,.54,.96,1,2.02,1.18,3.09,.14,.8,2.01,2.33-.65,2.49-.02,0-.1,.61,0,.86,.32,.76,.89,1.45,1.03,2.23,.11,.6-.18,1.81-.47,1.87-1.61,.32-.84,1.05-.39,1.67,.88,1.22,.79,2.24-.34,3.26-.68,.62-1.24,1.38-1.84,2.09-.96,1.14-.96,1.82-.02,2.99,.26,.32,.58,.59,.87,.89,2.62,2.78,5.24,5.56,7.86,8.34,.35,.38,.79,.74,.96,1.2,.15,.4-.03,.93-.06,1.4-.37-.11-.83-.11-1.08-.34-.61-.56-1.19-1.17-1.65-1.85-2.32-3.49-5.81-5.85-8.56-8.92-.53-.59-1.34-.94-2-1.43-3.14-2.34-6.36-4.59-9.37-7.09-1.85-1.54-3.68-2.94-5.98-3.74-.82-.29-1.65-.91-2.19-1.6-1.65-2.11-3.14-4.34-4.73-6.5-.56-.76-.76-1.58-.97-2.51-.5-2.19-1.3-4.33-2.15-6.43-.48-1.19-1.68-1.74-2.75-1.51-1.08,.23-1.95,.73-1.89,2.05,.05,1.09-.62,1.66-1.45,2.18-2.61,1.65-5.18,3.36-7.79,5-1.22,.76-1.47,1.25-.72,2.48,.53,.87,1.15,1.75,1.92,2.41,3.53,3.03,5.68,7.06,8.04,10.93,.67,1.1,.96,2.47,1.22,3.76,.29,1.41,.27,2.87,.51,4.29,.13,.79,.72,.99,1.35,.42,1.53-1.39,3.07-2.77,4.53-4.24,.94-.95,1.99-1.43,3.32-1.35,2.06,.13,4.16,.04,6.18,.41,1.48,.27,2.86,1.07,4.25,1.73,.21,.1,.27,.71,.22,1.05-.02,.15-.55,.38-.78,.32-.59-.16-1.11-.55-1.7-.68-1.59-.37-3.19-.75-4.8-.93-1-.12-2.04,.23-3.05,.16-1.36-.09-2.36,.35-3.28,1.34-1.75,1.89-3.59,3.7-5.39,5.54-1.03,1.05-1.76,1.03-2.34-.33-.43-.99-.69-2.2-.56-3.25,.61-5.12-2.16-9.12-4.3-13.31-.72-1.42-1.51-1.51-2.84-.72-1.86,1.11-3.72,2.25-5.44,3.56-.77,.59-1.28,1.58-1.77,2.47-.69,1.25-1.12,2.67-1.92,3.84-.72,1.04-.42,1.71,.29,2.42,.36,.36,.8,.65,1.21,.96,2.36,1.77,3.99,4.16,5.56,6.59,.75,1.16,1.08,2.44,1.21,3.8-.43-.26-.76-.54-.92-.9-1.67-3.68-4.48-6.41-7.47-8.99-.61-.53-1.34-.94-2.06-1.32-.2-.1-.63,.04-.83,.22-.19,.16-.33,.55-.26,.78,.11,.38,.35,.75,.61,1.07,2.16,2.63,4.35,5.23,6.51,7.86,.78,.96,1.58,1.92,2.22,2.97,.68,1.11,.47,2-.47,2.72-.49,.37-1.07,.62-1.61,.93-2.32,1.35-4.08,3.28-4.94,5.77-.38,1.11-.77,2.04-1.58,2.86-.54,.55-.87,1.69-1.89,1.09-.9-.53-.5-1.56-.15-2.24,.74-1.45,.29-2.53-.69-3.64-1.37-1.55-2.61-3.2-3.97-4.76-1.69-1.93-2.74-2.22-4.79-.65-2.6,2-4.87,4.43-7.42,6.51-1.53,1.25-1.35,2.6-.73,4.07,.27,.65,.77,1.2,1.17,1.79,1.02,1.55,2.13,3.04,3.02,4.66,2.29,4.14,4.09,8.56,7.63,11.93,1.18,1.12,2.01,2.59,3,3.9,.41,.54,.65,1.09,.05,1.63-.53,.47-1.15,.55-1.62-.05-1.26-1.61-2.9-2.53-4.9-2.85,.16-1.63-.76-2.68-1.89-3.62,.07,.6,.32,1.1,.61,1.58,.42,.67,.89,1.32,1.34,1.98q-.63,1.89-1.91,.67c-.15-.14-.26-.44-.4-.45-.46-.01-.98-.03-1.37,.17-.18,.09-.23,.75-.1,1.05,.48,1.03,1.02,2.04,1.61,3,.49,.79,1.19,.75,1.83,.17,.52-.47,.93-1.09,1.5-1.49,.22-.15,.79,.04,1.1,.24,.17,.11,.18,.55,.18,.83,0,.19-.13,.38-.23,.56-1.18,2.3-4.28,2.83-5.07,5.49-.03,.09-.37,.09-.57,.12-3.07,.55-3.13,.69-3.72,3.77-.18,.91,.03,1.42,.76,1.73,2.18,.93,4.35,1.94,6.59,2.69,6.56,2.19,12.38,5.66,17.74,9.97,1.05,.84,2.1,1.67,3.12,2.55,.5,.43,.77,.95,.21,1.6-.18,.21-.15,.6-.22,.91,.28-.07,.62-.06,.83-.22,1.47-1.14,2.39-2.66,2.2-4.51-.11-1.01,.32-1.46,.84-2.12,1.7-2.2,3.37-4.43,4.91-6.74,.87-1.3,.68-1.77-.62-2.47-1-.54-2.03-1.12-3.12-1.36-3.29-.7-6.19-2.31-9.11-3.84-2.34-1.23-4.76-1.89-7.39-2.08-1.41-.11-2.8-.63-4.16-1.08-.39-.13-.87-.67-.89-1.05-.02-.34,.49-.97,.84-1.02,.95-.15,1.33-.82,1.88-1.44,.92-1.02,.1-2.31,.52-3.11,.42-.81,1.86-1.02,2.7-1.69,.42-.34,.53-1.09,.73-1.67,.28-.8,.76-1.09,1.19-.23,.61,1.2,1.37,1.04,2.26,.48,2.37-1.47,4.65-3.11,7.13-4.37,2.37-1.2,4.93-2.06,7.44-2.96,.79-.28,1.5,.3,1.52,1.09,.01,.39-.62,1-1.08,1.15-.76,.26-1.63,.21-2.44,.33-.16,.02-.43,.3-.4,.39,.08,.24,.26,.59,.44,.61,1.63,.24,3.29,.34,4.91,.64,.52,.1,1.4,.74,1.35,1.02-.17,1.05-.91,.16-1.4,.2-.61,.05-1.24-.05-1.86-.06-1.75-.04-3.57,.23-5.16-.68-1.51-.86-2.7-.35-4,.47-2.62,1.66-5.26,3.28-7.98,4.78-1.82,1-3.05,2.41-3.84,4.29-.61,1.46-.5,1.71,1.07,2.08,1.6,.38,3.39,.41,4.75,1.19,4.88,2.82,10.32,4.19,15.5,6.22,.71,.28,1.62,.37,2.36,.21,1.07-.22,.89,.1,.73,.88-.22,1.06,.67,1.32,1.35,1.03,.91-.39,1.69-1.11,2.52-1.7,.48-.34,.94-.71,1.41-1.06,1.07-.78,2.22-1.46,3.19-2.35,1.29-1.18,2.29-2.69,3.66-3.76,3.16-2.47,5.81-5.59,9.49-7.41,.89-.44,1.55-1.34,2.33-2.02,.7-.61,1.34-1.3,2.12-1.78,3.03-1.87,4.66-4.92,6.63-7.68,.47-.65,.35-1.14-.35-1.79-.67-.63-1.22-1.73-1.26-2.64-.11-2.55-1.12-4.8-1.98-7.11-.83-2.22-1.18-2.45-3.42-1.52-2.38,.99-4.63,2.29-6.93,3.45-1.2,.6-2.36,1.28-3.6,1.76-1.12,.44-2.26,.34-3.12-.67-.26-.3-.43-.67-.65-1.01,.42-.05,.88-.23,1.27-.14,2.02,.49,3.62-.47,5.21-1.45,4.01-2.49,8.32-4.09,13.02-4.6l-.07-.07c.16,2.75,.08,5.54,1.17,8.16,.74,1.76,.51,3.94,2.27,5.26,1.3-1.31,2.6-2.62,3.9-3.94,2.13-2.15,2.68-4.74,2.25-7.67-.3-2.02-.3-4.1-.74-6.08-.28-1.25-.86-2.67-1.77-3.5-1.5-1.37-3.3-2.47-5.12-3.41-2.3-1.19-4.5-2.46-6.47-4.18-1.63-1.41-3.45-2.59-5.2-3.87-.58-.43-1.21-.79-1.75-1.27-.15-.14-.18-.63-.05-.82,.13-.2,.6-.39,.78-.3,1.1,.55,2.21,1.12,3.24,1.8,2.99,2.01,5.92,4.12,8.94,6.09,1.02,.67,2.29,.97,3.35,1.58,3.75,2.17,6.49,4.95,6.11,9.79-.12,1.51,.29,3.07,.53,4.6,.02,.13,.73,.34,.86,.22,.37-.33,.64-.8,.9-1.24,3.18-5.19,6.77-10.1,10.43-14.96,1.11-1.47,1.94-3.16,2.81-4.79,.31-.58,.94-1.37,.12-1.93-.83-.57-1.82-.42-2.58,.25-.45,.4-.73,.99-1.11,1.48-1.02,1.3-2.02,2.62-3.1,3.87-.3,.34-.83,.51-1.29,.68-.13,.05-.42-.09-.53-.23-.08-.1-.08-.42,.02-.51,.58-.55,1.05-1.07,1.44-1.86,2.42-4.96,4.15-10.35,8.5-14.17,1.49-1.31,1.85-3.04,.8-4.76-.61-1-.65-1.85-.33-2.91,.19-.66-.02-1.43,.06-2.13,.31-2.62,.15-5.33,1.48-7.75Zm-49.11-29.65c.95-.24,1.94-.08,2.65-1.2,2.37-3.71,4.84-7.36,8.14-10.34,.38-.34,.61-.83,.94-1.23,1.24-1.52,2.49-3.02,3.73-4.54,.98-1.19,1.98-2.37,2.93-3.59,.15-.19,.07-.56,.09-.85-.36,0-.77-.12-1.08,0-.36,.15-.67,.48-.95,.78-1.88,2.05-3.79,4.06-5.59,6.17-2.74,3.21-5.47,6.43-8.06,9.76-1.18,1.51-2.47,3.06-2.72,5.11-.53,.27-1.2,.42-1.56,.84-1.07,1.25-2.05,2.59-3.02,3.93-.85,1.17-1.6,2.41-2.44,3.58-.69,.96-.39,1.75,.33,2.47,.25,.24,.89,.53,.92,.48,.41-.57,.78-1.17,1.07-1.8,.12-.25-.11-.68,.02-.91,1.05-1.73,.93-4.24,3.41-5.06,.38-.13,.74-.71,.86-1.15,.21-.79,.23-1.63,.34-2.45ZM52.17,238.13c-.57-.84-1.12-1.7-1.73-2.51-.86-1.15-1.81-2.23-2.62-3.42-1.51-2.21-2.94-4.48-4.42-6.72-.23-.34-.48-.67-.78-.95-.1-.1-.4-.12-.54-.04-.15,.09-.33,.37-.29,.49,.29,.75,.57,1.53,.99,2.21,.82,1.31,1.73,2.56,2.6,3.84,.34,.51,.65,1.04,.97,1.56-.63,.13-1.25,.25-1.88,.4-.2,.05-.43,.1-.57,.23-1.65,1.5-2.76,.47-3.88-.77-1-1.11-2.06-2.15-3.1-3.23,.68,3.37,3.08,5.59,4.8,8.24,1.41,2.17,4.44,2.49,5.43,5.08,.1,.27,.71,.36,1.08,.53,1.02,.48,2.08,.88,3.04,1.46,.69,.41,1.35,.67,1.99,.18,.68-.52,.47-1.23,.22-1.97-.52-1.55-.94-3.13-1.4-4.7,.09,.04,.2,.07,.28,.14,.67,.55,1.34,1.11,2,1.66,.05-.9,.11-1.81,.15-2.71,0-.2,.02-.43-.05-.61-.15-.36-.37-.69-.56-1.03-.24,.27-.52,.5-.7,.8-.38,.6-.7,1.22-1.05,1.84Zm96.46-66.47c-2.93-1.6-5.35-3.82-7.52-6.33-.53-.62-1.13-1.19-1.75-1.73-.14-.12-.49,0-.74,.02,.03,.19-.01,.45,.1,.57,2.64,2.88,5.28,5.76,7.99,8.58,.34,.35,1.07,.34,1.61,.49l.22-1.71c1.52-.13,1.95-1.35,2.44-2.49,.65-1.52,1.38-2.89,2.84-3.92,.93-.66,1.5-1.92,2.04-3.01,.46-.93-.07-2.14-1.01-2.14-1.62,0-1.99-.51-1.63-2.03,.15-.62-.2-1.39-.42-2.07-1.53-4.84-5.7-7.72-8.66-11.49-.53-.68-1.86-.89-2.84-.96-.35-.02-.7,1.09-1.18,1.56-.41,.4-.98,.66-1.49,.94-2.09,1.14-2.73,3.43-3.26,5.32-.47,1.69,.39,3.8,.87,5.67,.15,.6,1.04,.98,1.42,1.57,2.62,4.11,5.78,7.74,9.5,10.9,.66,.56,1,1.5,1.48,2.27Zm-29.17,.23c.52-1,1.37-1.96,1.48-3,.25-2.35,.43-4.77,.1-7.09-.8-5.61-1.92-11.18-2.86-16.77-.15-.9-.09-1.86,.05-2.77,.05-.38,.54-.69,.83-1.04,.27,.27,.71,.51,.78,.83,.37,1.82,.7,3.65,.96,5.48,.83,5.72,1.63,11.45,2.41,17.18,.17,1.22,.08,2.35-.37,3.61-.89,2.51-1.42,5.16-1.98,7.77-.21,.99-.25,2.06-.13,3.07,.34,2.96,.79,5.91,1.23,8.86,.12,.81,.36,1.61,.58,2.41,.23,.82,.63,1.21,1.58,.79,1.32-.58,2.73-.95,4.04-1.54,.94-.42,1.72-.86,2.89-.51,.79,.24,1.81-.21,2.71-.44,3.43-.86,5.78-3.41,8.49-5.41,.16-.12,.28-.3,.41-.46,1.22-1.47,1.31-1.67,.29-3.26-1.3-2.03-2.36-4.13-2.5-6.58-.07-1.27-.94-1.98-1.79-2.76-1.14-1.04-2.2-2.17-3.23-3.31-.19-.21-.08-.7-.11-1.06,.28,.05,.58,.06,.85,.15,.63,.21,.75-.05,.47-.54-.61-1.07-1.29-2.1-1.91-3.16-.25-.43-.56-.87-.65-1.35-.47-2.31-.91-4.62-1.3-6.95-.15-.9-.3-1.85-.18-2.75,.65-4.87,.47-9.67-.85-14.43-.49-1.78-.75-3.63-1.06-5.46-.04-.24,.22-.53,.35-.79,.31,.18,.82,.29,.89,.53,.35,1.29,.57,2.61,.85,3.92,.37,1.71,.49,3.53,1.21,5.08,.46,.99,1.32,1.75,1.08,3-.03,.13,.24,.46,.33,.44,.26-.04,.69-.17,.72-.33,.58-2.8,3.13-4.02,4.8-5.92,.82-.94,2.02-1.59,3.51-1.74,1.15-.11,2.23-.97,3.33-1.53,.73-.37,.72-.91,.25-1.5-.19-.24-.39-.48-.58-.73-3.42-4.38-7.27-8.45-9.63-13.59-.54-1.17-1.28-1.15-2.14-.12-2.11,2.52-4.17,5.09-6.27,7.62-3.89,4.68-7.32,9.73-11.65,14.05-3.58,3.56-6.98,7.3-10.54,10.88-2.03,2.05-4.25,3.91-6.31,5.93-1.1,1.08-1.87,2.59-3.12,3.42-2.34,1.55-3.64,3.88-5.29,5.98-1.97,2.51-3.97,5.12-6.45,7.07-1.75,1.37-3.21,2.81-4.46,4.59-.65,.92-1.54,1.67-2.2,2.59-1.32,1.83-2.59,3.71-3.82,5.61-.39,.61-.23,1.21,.62,1.34,.51,.08,1.03,.2,1.54,.16,4.55-.34,8.59,2.12,13.02,2.37,3.63,1.97,7.56,2.63,11.64,2.79,3.44,.14,6.79,.11,9.71-2.08,.24-.18,.54-.42,.82-.42,2.34-.02,2.97-1.83,3.74-3.5,.39-.84,.69-1.73,1.11-2.56,.62-1.26,.66-2.5,.47-3.9-.19-1.39,.06-2.85,.25-4.26,.16-1.21,.52-2.4,.8-3.6,.04-.11,.1-.22,.17-.32Zm-69.76,30.85c.13-2.58-1.14-4.31-3.37-5.28-.84-.37-1.77-.63-2.5-1.15-3.42-2.46-7.23-4.34-10.42-7.16-.91-.81-2.12-1.28-3.14-1.97-2.22-1.5-4.41-3.04-6.6-4.57-1.27-.89-2.5-1.83-3.79-2.68-.62-.41-1.2-.29-1.43,.52-.51,1.79-.98,3.59-1.5,5.37-.95,3.28-2.07,6.47-4.22,9.23-1.89,2.42-1.78,3.62,.58,5.5,3.55,2.82,7.09,5.7,11.39,7.39,.86,.34,1.79,.65,2.5,1.21,4.64,3.67,10.54,5.25,15.07,9.1,.65,.55,1.13,.52,2.05-.13,1.7-1.2,2.4-2.74,2.85-4.56,.57-2.3,1.1-4.61,1.64-6.91,.35-1.51,.7-3.01,.9-3.9ZM103.86,2.09c-.75,.27-1.7,.43-2.45,.9-2.18,1.37-4.37,2.74-6.39,4.33-2.1,1.65-3.89,3.69-6,5.31-3,2.29-5.39,5.12-7.59,8.11-4.03,5.47-7.97,11.02-11.86,16.6-.67,.97-1.42,2.42-1.16,3.39,.41,1.55-.21,2.28-1.1,3.17-.43,.43-.8,.94-1.16,1.44-1.28,1.8-1.04,3.05,1.02,3.88,2.1,.86,4.21,1.52,5.86,3.27,.61,.65,1.89,.95,2.83,.88,.59-.05,1.14-1.05,1.64-1.69,4.38-5.59,8.08-11.7,12.96-16.91,.07-.07,.13-.16,.19-.25,2.43-3.6,5.22-6.88,8.33-9.91,3.05-2.98,3.07-4.23,.2-7.41-.82-.92-1.7-1.81-2.36-2.84-.96-1.49-.72-2.37,.79-3.36,2.67-1.75,5.41-3.41,8.07-5.17,.64-.42,1.1-1.11,1.65-1.67-.6-.53-1.16-1.12-1.82-1.56-.4-.27-.96-.31-1.64-.51Zm46.75,174.16s.21,.74-.03,.96c-1.98,1.81-.65,3.52,.31,4.94,1.78,2.64,3.86,5.09,5.84,7.59,.58,.73,1.1,.67,1.69-.15,1.02-1.41,2.11-2.78,3.28-4.07,1.01-1.11,1.79-2.21,1.57-3.84-.13-.94-.26-1.91,1.42-1.23,1.27,.51,2.04-.85,2.61-1.74,1.59-2.48,4.26-3.52,6.57-4.95,2.34-1.45,5.04-2.31,7.5-3.58,.96-.5,1.88-1.27,2.53-2.14,.79-1.05,1.66-1.72,2.93-2.09,1.48-.43,1.58-.85,.68-2.2-1.38-2.09-3.13-3.82-5.3-5.11-.8-.47-1.58-.98-2.32-1.53-2.4-1.78-4.78-3.59-7.19-5.36-.49-.36-1.06-.62-1.62-.86-.12-.06-.41,.08-.52,.21-.11,.13-.19,.42-.11,.54,.87,1.52,1.68,3.05,3.45,3.83,1.03,.46,1.05,1.08,.33,1.95-1.31,1.59-2.67,3.15-4,4.73-1.19,1.42-1.22,1.46-2.58,.27-.74-.65-1.36-1.24-2.42-.62-.73,.43-.57-.09-.34-.44,.51-.79,.33-1.42-.47-1.77-.7-.31-1.44-.93-2.27-.2-.92,.8-1.93,1.51-2.78,2.37-1.96,1.96-3.64,4.19-5.43,6.28-1.72,2.01-2.37,4.94-3.49,7.47-.03,.07,.04,.19,.16,.74Zm-101.39,40.27c.96-.37,1.75-.62,2.48-.98,1.77-.86,2.8-3.06,5.23-2.78,.29,.03,.79-.64,.98-1.08,.32-.75,.5-1.57,.7-2.37,.97-3.79,1.83-7.62,2.91-11.38,1.36-4.78,3.17-9.38,5.94-13.55,.36-.54,.88-1.23,1.38-.49,.88,1.3,1.31,1.03,2.21-.02,1.59-1.85,2.78-4.41,5.9-4.15,.16,.01,.37-.19,.5-.34,1.07-1.24,2.15-2.48,3.17-3.76,.24-.3,.47-.83,.37-1.13-.69-1.94-1.45-3.86-2.26-5.75-.11-.25-.85-.54-.98-.43-1.3,1.07-2.92,1.89-3.33,3.77-.1,.44-.31,.86-.47,1.29-.35-.42-.84-.79-1.02-1.28-.17-.44,0-1.01,.03-1.53,.05-.73,.14-1.68-.83-1.63-.48,.02-.95,.91-1.34,1.47-.15,.22-.15,.62-.09,.9,.46,1.87-.55,3.21-1.71,4.39-1.25,1.27-2.14,2.71-2.93,4.31-1.06,2.13-2.5,3.95-4.69,5.21-1.85,1.07-3.69,2.39-3.57,5.01,.01,.24-.23,.63-.46,.73-2.27,1-2.52,3.7-4.34,5.1-.34,.26-.42,.93-.53,1.42-1.17,5.23-2.34,10.46-3.48,15.7-.18,.8-.3,1.63-.33,2.45,0,.29,.35,.59,.56,.9Zm-.91-20.84c2.3-.19,4.84-2.11,5.93-4.24,.51-1,.48-1.78-.57-2.33-1.83-.95-3.59-2.1-5.52-2.77-6.39-2.21-12.45-5-17.73-9.31-.96-.78-1.98-1.5-3.05-2.12-1.78-1.03-3.55-2.14-5.78-1.85-.98,.13-1.79-.3-2.43-1.09-.2-.24-.76-.44-1.01-.34-1.23,.51-2.42,1.12-3.59,1.75-.15,.08-.24,.64-.14,.74,.44,.42,.96,.77,1.47,1.12,3.31,2.29,6.61,4.59,9.93,6.85,1.53,1.05,3.11,2.04,4.67,3.05,1.82,1.18,3.66,2.31,5.45,3.53,3.49,2.37,6.82,4.99,10.98,6.18,.55,.16,1.03,.59,1.41,.82ZM127.94,19.92l.59,.33c.88-2.06,1.94-4.08,2.61-6.21,1.13-3.56-.52-6.06-4.21-6.78-3.38-.65-8.38,1.63-10,4.81-.46,.91-.93,1.51-1.8,1.92-.46,.21-.84,.59-1.23,.93-.14,.12-.19,.35-.27,.54,.26,.03,.59,.17,.79,.07,1.91-1,3.77-2.09,5.7-3.07,1.76-.9,3.63-.58,5.46-.2,.28,.06,.66,.56,.64,.82-.02,.26-.47,.6-.79,.68-.98,.26-2.02,.66-2.99,.57-3.05-.27-4.87,1.87-7.06,3.3-.8,.52-.72,1.24-.23,1.86,.44,.55,.97,1.2,1.59,1.4,2.04,.66,4.13,1.17,6.21,1.68,.67,.17,1.2,.04,1.13-.91-.06-.75,.18-1.6,1.06-1.61,1.75-.02,2.07-1.45,2.82-2.5,.06-.08,.29-.04,.45-.05-.15,.83-.3,1.62-.44,2.42Zm14.84,71.83c.53-3.08-1.95-4.6-3.82-6.46-.17-.17-.64-.27-.83-.16-.98,.55-1.5-.12-2.14-.66-.62-.52-.9-.17-.87,.5,.03,.72,.03,1.46,.2,2.15,.64,2.58-.38,4.67-1.92,6.56-1.17,1.43-2.49,2.74-3.71,4.14-.47,.53-.92,1.11-1.24,1.74-.43,.84-.1,1.39,.84,1.41,2.05,.04,4.12,.11,6.16-.06,2.29-.18,4.01,.38,5.06,2.59,.44,.92,1.14,1.71,1.77,2.53,.16,.21,.49,.28,.74,.41,.12-.25,.36-.51,.34-.76-.05-.92-.16-1.85-.3-2.76-.48-3.25-1.34-6.48-.31-9.79,.12-.38,.02-.82,.02-1.39Zm-40.7-53.61c.21,1.46,.33,2.49,.52,3.5,.09,.5,.24,1.01,.45,1.48,1.17,2.63,4.35,4.25,6.27,2.82,1.36-1.01,2.89-1.48,4.28-2.31,1.88-1.12,3.52-4.33,2.78-6.31-.93-2.5-2.04-4.95-4.13-6.79-.87-.77-1.76-.84-2.47-.11-.91,.92-1.63,1.43-2.72,.29-.13-.14-.87,.04-1.1,.29-1.99,2.15-3.41,4.61-3.88,7.15ZM31.25,165.81c0-.45,.03-.97,0-1.49-.08-1.11-.8-1.47-1.67-.77-1.05,.84-2.03,1.76-3.02,2.66-1.29,1.18-1.29,1.56,.02,2.68,.55,.47,1.16,.87,1.77,1.25,3.07,1.91,6.17,3.77,9.22,5.71,6.03,3.84,12.58,6.68,19.01,9.74,.27,.13,.64,.37,.84,.28,.55-.24,1.13-.55,1.49-1,.13-.17-.23-.87-.52-1.2-.4-.46-.94-.8-1.43-1.18-5.51-4.27-11.64-7.45-17.98-10.28-2.25-1-4.38-2.29-6.53-3.52-1.06-.6-1.77-1.47-1.18-2.88Zm12.78-51.54c.16,.72,.12,1.33,.4,1.69,1.86,2.45,3.77,4.88,5.72,7.25,.64,.78,1.3,.35,1.74-.35,1.22-1.93,2.65-3.63,4.55-4.96,1.27-.89,1.26-1.4,.19-2.83-1.59-2.14-3.22-4.26-4.95-6.28-1.76-2.07-2.11-2.03-4.1-.02-.72,.73-1.48,1.47-2.02,2.33-.64,1.03-1.07,2.19-1.54,3.16ZM113.69,10.63c-.38-.61-.7-1.26-1.15-1.82-3.01-3.75-2.73-3.07-5.94-1.29-2.41,1.34-4.64,3.02-6.92,4.59-.71,.49-1.26,1.17-.59,2.07,1.16,1.56,2.36,3.1,3.58,4.61,.45,.56,1.07,.58,1.64,.14,.57-.44,1.18-.86,1.62-1.42,1.63-2.04,3.77-3.46,5.87-4.94,.5-.35,1.02-.7,1.48-1.11,.2-.18,.26-.53,.42-.85ZM24.7,155.36l-.43,.4c.34,.84,.73,1.67,.99,2.54,.1,.33-.1,.75-.16,1.12-.34-.09-.79-.08-1.01-.3-.57-.59-1.06-1.26-1.53-1.92-.42-.58-.76-1.23-1.19-1.79-.12-.15-.46-.12-.71-.18,0,.2-.08,.42,0,.58,.25,.56,.56,1.1,.82,1.66,.61,1.31,1.24,2.6,1.76,3.94,.11,.27-.21,.7-.33,1.06-.26-.09-.59-.11-.78-.29-.72-.69-1.4-1.42-2.09-2.14,.06,.92,.46,1.62,.67,2.38,.14,.52,0,1.12-.02,1.68-.45-.16-.9-.31-1.34-.48-.09-.03-.13-.18-.21-.22-.25-.11-.51-.18-.77-.27,0,.28-.08,.58,0,.84,.3,1.04,.11,1.72-1,2.21-.56,.25-.88,1.04-1.32,1.58-.51,.63-1.2,1.34-.55,2.07,.16,.18,1.5-.36,2.03-.86,1.61-1.51,3.37-2.6,5.52-3.23,2.24-.65,3.75-2.47,5.42-3.99,.56-.51,.55-1.05,.1-1.62-1.28-1.59-2.55-3.18-3.83-4.77Zm62.83,10.51c-.08-.66-.18-1.89-.41-3.1-.12-.64-.47-1.24-.71-1.86-.55,.42-1.16,.78-1.65,1.27-1.01,1.01-1.83,2.26-2.96,3.09-1.64,1.2-1.86,2.52-1.08,4.24,.38,.84,.63,1.73,1.06,2.54,.13,.24,.69,.44,.99,.37,2.65-.64,4.85-3.43,4.76-6.54Zm-68.82-10.36l.45-.32c-.31-.74-.63-1.49-.94-2.23-.65-1.52-1.32-3.03-1.91-4.57-.12-.31,.1-.74,.17-1.12,.35,.16,.81,.22,1.04,.49,.73,.87,1.36,1.82,2.06,2.71,.36,.47,.79,.89,1.18,1.34-.24-1.67-.85-3.08-1.48-4.48-.25-.56-.62-1.09-.79-1.67-.1-.33,.08-.75,.13-1.13,.36,.11,.89,.11,1.06,.35,1.32,1.97,2.55,4,3.85,5.99,1.24,1.9,2.51,3.77,3.8,5.64,.14,.21,.48,.28,.73,.42,0-.27,.1-.6-.02-.79-2.53-4.01-5.09-8-7.65-12-.17-.26-.35-.51-.57-.73-.76-.79-1.4-.84-2.05,.08-1.24,1.77-2.33,3.64-3.48,5.46,.96,1.56,1.89,3.14,2.88,4.67,.44,.68,1.02,1.26,1.54,1.89Zm27.08,27.96l.33-.56c-.32-.22-.62-.48-.95-.67-2.96-1.65-6-3.18-8.89-4.95-4.28-2.62-8.75-4.98-12.54-8.36-.68-.61-2.51-.04-2.87,.86-.07,.19,.12,.57,.3,.75,.2,.21,.52,.38,.81,.42,3.95,.59,7,2.93,10.01,5.24,3.13,2.4,6.56,4.24,10.09,5.93,1.18,.56,2.46,.9,3.7,1.35Zm-18.39-32.5l.62-.49c-.76-1.43-1.52-2.86-2.27-4.29-.38-.73-.79-1.44-1.05-2.21-.08-.24,.37-.93,.46-.91,2.33,.53,1.06-.68,.67-1.39-.6-1.07-1.19-2.16-1.9-3.15-.23-.32-.91-.61-1.26-.5-1.07,.31-2.03,2.32-1.55,3.28,1.72,3.47,3.77,6.74,6.29,9.67Zm144.58,6.28c-.03-.2,0-.46-.11-.57-1.06-1.09-2.15-2.15-3.23-3.22-.79,.74-1.59,1.47-2.37,2.23-.44,.43-.86,.87-1.21,1.37-.12,.18-.11,.65,.03,.79,.92,.89,1.9,1.74,2.87,2.58,.13,.12,.39,.14,.58,.13,.81-.07,3.32-2.51,3.43-3.3Zm-114.38,23.15c-4.18-4.35-12.79-9.18-16.48-9.45,5.28,3.03,10.63,6.09,16.48,9.45Zm-29.11-38.49c-.44-2.25-.92-4.33,1.47-5.87,.1-.07,.15-.46,.07-.52-.22-.18-.56-.44-.77-.38-1.17,.35-2.34,.73-3.45,1.24-.23,.1-.38,.95-.2,1.24,.9,1.47,1.91,2.87,2.88,4.29Zm29.53,91.77c-.02-.3,.02-.51-.04-.69-1.03-2.79-2.61-5.13-5.33-6.53-.16-.08-.38-.05-.57-.06,.02,.26-.05,.58,.08,.76,1.58,2.21,4.21,3.65,4.86,6.57,.02,.07,.17,.17,.25,.16,.27-.05,.52-.14,.77-.21ZM14.2,159.09c0-.12,.04-.24,0-.32-.94-1.8-1.87-3.61-2.88-5.38-.12-.21-.82-.35-.98-.21-.24,.21-.43,.82-.29,1.04,1.06,1.73,2.21,3.41,3.35,5.09,.09,.14,.37,.24,.54,.21,.11-.02,.18-.3,.27-.44Zm60.57,24.19c-.16-.31-.22-.48-.33-.62-.03-.04-.22,0-.28,.05-1.66,1.66-3.26,3.37-4.14,5.61-.04,.11,.27,.51,.44,.52,.28,.02,.57-.17,.86-.26,2.63-.89,1.68-3.98,3.45-5.3ZM150.41,29.81c.59-.26,1.3-.42,1.79-.84,.85-.71,1.57-1.57,2.32-2.4,.17-.19,.23-.49,.35-.74-.28-.05-.65-.24-.82-.12-1.42,.94-2.81,1.94-4.2,2.94-.14,.1-.27,.42-.21,.52,.13,.21,.39,.34,.77,.64ZM32.17,154.8c-.68,.87,.43,2.17-.85,2.73-.64,.28-.68,.78-.22,1.18,.23,.21,.77,.27,1.08,.16,1.81-.64,2.02-1.5,.83-3.14-.23-.32-.53-.59-.84-.94Zm-16.46,2.02l.42-.39c-.99-1.68-1.97-3.37-3.01-5.03-.15-.24-.62-.29-.94-.43,.05,.36-.02,.8,.16,1.08,1.09,1.61,2.24,3.19,3.37,4.77ZM147.36,30.41c-1.71,.53-2.87,1.22-3.84,2.23-.16,.17-.24,.71-.15,.77,.29,.2,.86,.46,1.01,.33,1.04-.87,2.24-1.62,2.97-3.33Zm-9.95,9.07c.69-.62,1.49-1.23,2.16-1.96,.7-.75,1.9-1.3,1.4-2.7-.63,.6-1.26,1.22-1.91,1.81-.75,.69-1.52,1.35-2.25,2.06-.06,.06,.09,.35,.18,.52,.04,.07,.16,.1,.42,.26Zm-35.16,54.41c-.34,.23-.64,.38-.62,.43,.35,1.05,.7,2.1,1.13,3.12,.05,.11,.53,.11,.79,.04,.15-.04,.37-.37,.33-.46-.51-1.05-1.07-2.08-1.63-3.14Zm-24.87-28.61c-.85,1.72-1.38,2.85-.87,4.21,.01,.03,.2,.05,.24,0,1.14-1.05,.83-2.32,.62-4.22ZM112.39,19.67c-.72,.38-1.54,.77-2.31,1.24-.21,.13-.25,.51-.37,.77,.27,.02,.6,.14,.8,.03,.81-.42,1.58-.91,2.36-1.38,.07-.04,.12-.24,.09-.27-.12-.12-.29-.2-.57-.39ZM48.18,224.84c-.25,.1-.4,.12-.42,.18-.07,.17-.18,.44-.11,.53,.39,.46,.81,.89,1.26,1.29,.08,.07,.34-.04,.5-.09,.01,0,0-.21-.05-.29-.4-.56-.81-1.11-1.19-1.62ZM101.12,80.52l.4-.29c-.39-.63-.76-1.28-1.2-1.87-.13-.17-.47-.18-.72-.26,.03,.26-.04,.6,.09,.78,.43,.58,.94,1.1,1.42,1.64ZM31.64,132.28c-.4-.47-.8-1.01-1.28-1.47-.14-.14-.64-.15-.74-.03-.15,.17-.2,.64-.07,.78,.39,.43,.88,.79,1.36,1.13,.11,.08,.35,0,.52-.03,.06-.01,.09-.15,.22-.38Zm.44,97.52c-.17,.38-.37,.64-.31,.71,.32,.43,.69,.84,1.07,1.22,.03,.03,.28-.15,.43-.24-.37-.53-.75-1.06-1.19-1.69Zm-22.27-58.58c.37,.33,.68,.61,.99,.88,.12-.14,.37-.35,.34-.42-.2-.4-.46-.76-.7-1.14l-.63,.67Zm162.14,6.36c-.24,.76-.4,1.09-.42,1.42-.02,.29,.1,.59,.16,.89,.26-.38,.57-.74,.74-1.15,.07-.16-.18-.46-.48-1.15ZM6.73,159.62c-.28-.24-.49-.42-.69-.6-.14,.23-.41,.47-.4,.69,.02,.21,.33,.39,.51,.59l.58-.69ZM95.09,83.75l-.51,.47c.32,.35,.63,.7,.97,1.03,.02,.02,.37-.27,.36-.29-.25-.41-.53-.8-.82-1.21ZM28.56,132.99c-.26-.28-.44-.52-.47-.5-.5,.32-.99,.66-1.48,1,.13,.1,.3,.3,.37,.27,.52-.22,1.02-.49,1.58-.77ZM5.59,171.53l-.66-.58c-.17,.27-.39,.52-.46,.82-.02,.08,.41,.4,.61,.37,.18-.02,.32-.36,.52-.61Z"/><path d="M159.95,237.56c-.62,.15-1.76,.28-2.78,.69-2.66,1.08-5.39,1.41-8.21,.95-3.03-.5-5.74,.07-8.06,2.15-1.2,1.07-2.61,1.73-4.21,1.73-1.81,0-3.17,.7-4.25,2.11-1.15,1.51-2.58,2.6-4.42,3.24-1.05,.36-1.99,1.08-2.91,1.73-1.44,1.02-3.06,1.2-4.73,1.11-1.06-.06-1.5-.86-.71-1.65,.85-.85,.58-1.4,.07-2.09-.43-.58-.81-1.26-1.38-1.65-1.88-1.25-3.02-3.07-4.13-4.94-.37-.62-.74-1.33-1.3-1.72-3.21-2.2-6.05-4.99-9.88-6.19-.2-.06-.41-.1-.58-.21-3.39-2.19-6.67-1.42-9.95,.31-1.37,.72-2.85,1.22-4.22,1.94-.69,.37-1.45,.89-1.81,1.54-.6,1.09-1.18,.98-1.92,.31-.88-.81-1-1.76-.25-2.4,.46-.39,1.05-.65,1.61-.87,2.7-1.04,5.42-2.03,8.12-3.06,1.95-.75,3.88-1.35,6.03-.85,.74,.17,1.75-.44,2.34-.13,1.85,.99,3.58,2.23,5.31,3.42,.68,.46,1.19,1.19,1.89,1.59,5.21,2.96,8.5,7.73,11.83,12.46,1.28,1.81,1.27,1.87,3.17,.91,2.68-1.36,5.25-2.86,7.37-5.06,.68-.7,1.65-1.2,2.57-1.58,1.51-.62,3.14-.96,4.63-1.63,3.53-1.6,7.07-2.76,11.07-2.19,2.74,.39,5.21-1.08,7.76-1.84,.17-.05,.35-.83,.26-.9-.74-.54-1.55-.97-2.32-1.48-.87-.56-1.52-.14-2.24,.34-.75,.49-1.4,.2-1.77-.58-.43-.89,.33-.94,.86-1.23,.27-.15,.38-.6,.57-.92-.34-.08-.74-.3-1.02-.2-4.48,1.6-8.88,3.32-12.64,6.39-1.17,.96-2.69,1.53-4.1,2.15-.73,.32-1.57,.08-1.66-.81-.05-.42,.47-1.19,.9-1.34,3.64-1.29,6.85-3.36,10.09-5.37,.35-.22,.73-.4,1.1-.56,3.68-1.6,7.36-3.18,11.03-4.81,.65-.29,1.25-.71,1.85-1.1,.63-.41,1.21-.81,1.91-.11,.9,.9,1.14,1.86,.44,2.74-.7,.88-1.55,1.66-2.38,2.42-1.36,1.25-1.38,1.36,.24,2.39,.52,.33,1.18,.5,1.6,.93,.7,.71,1.42,1.49,1.84,2.38,.54,1.15-.17,2.15-1.49,1.81-.2-.05-.4-.09-1.12-.26Zm-3.85-8.51l.14,.34c.65-.17,1.31-.3,1.93-.55,.23-.09,.34-.47,.5-.72-.35-.02-.74-.15-1.03-.02-.55,.24-1.03,.62-1.54,.94Z"/><path d="M70.11,250.4c.04-2.48,.58-4.77,2.03-6.78,1.47-2.04,2.56-4.23,3.04-6.71,.1-.5,.29-1,.55-1.43,.12-.2,.55-.38,.76-.31,.19,.06,.36,.47,.36,.73,0,.79-.09,1.59-.14,2.38,.74-.51,1.61-.89,2.2-1.54,1.68-1.82,3.33-3.68,4.84-5.65,4.52-5.89,9.94-10.79,16.29-14.59,2.64-1.58,5.55-2.74,8.34-4.08,.28-.13,.59-.29,.88-.27,.57,.04,1.54,.07,1.63,.34,.28,.83-.58,.92-1.14,1.03-5.12,1.04-9.2,4.08-13.39,6.93-5.56,3.78-9.52,9.11-13.8,14.13-1.61,1.89-3.23,3.76-4.86,5.63-.34,.39-.65,.85-1.08,1.1-4.2,2.48-5.2,6.56-4.91,10.89,.18,2.72,1.23,5.41,2.14,8.03,.69,1.99,1.63,2.29,3.64,1.74,.5-.14,.96-.37,1.45-.54,2.24-.79,4.41-.9,6.53,.47,2.13,1.37,4.64,1.53,7.06,1.9,1.4,.21,2.63,.61,3.33,1.92,.15,.29,.1,.78-.04,1.1-.08,.18-.64,.37-.79,.27-1.86-1.21-3.29-.17-4.81,.78-1,.63-2.16,.83-3.24,.15-1.09-.68-2.07-.55-3.21-.05-2.06,.91-4.44,.73-6.49,1.93-.72,.42-2.04,.13-2.98-.17-2.24-.71-4.53-.85-6.74-.34-3.59,.84-5.14-1.16-6.87-3.51-.09-.12-.07-.41,.02-.53,.07-.09,.41-.12,.5-.04,.37,.36,.68,.77,1.04,1.15,.99,1.06,2.23,1.44,3.65,1.28,3.18-.36,6.35-.69,9.53,.21,.78,.22,1.78-.27,2.66-.5,2.38-.6,4.74-1.31,7.14-1.81,.63-.13,1.37,.32,2.07,.47,.59,.13,1.18,.24,1.78,.29,.14,.01,.36-.21,.44-.37,.06-.12,0-.41-.09-.47-1.51-.88-2.99-1.84-4.58-2.55-1.74-.78-3.56-1.08-5.34,.07-.42,.27-.95,.41-1.44,.55-3.41,.96-5.65-.63-6.17-4.2-.25-1.72-.81-3.4-1.16-5.11-.26-1.3-.42-2.62-.62-3.94Z"/><path d="M110.59,267.33c-.1,0-.21,.02-.31,0-.95-.18-2.72,.46-2.71-.51,.02-1.44,1.82-.86,2.76-.83,1.9,.07,3.2-1.23,4.84-1.71,.58-.17,1.09-.59,1.67-.68,3.56-.6,7.12-1.29,10.7-1.65,2.61-.27,5.3-.76,7.85,.75,.76,.45,2,.08,3.02,.12,.18,0,.36,.17,.54,.27-.15,.22-.26,.56-.46,.63-.68,.22-1.38,.4-2.09,.5-7.06,.92-14.12,1.83-21.18,2.73-1.54,.19-3.08,.32-4.62,.48v-.09Z"/><path d="M29.19,261.9c.06-.29,.56-.69,.85-.68,.28,0,.76,.42,.81,.72"/><path d="M137.45,265.59s.51,.07,1,.16c.07,.01,.18,.15,.17,.21-.03,.18-.07,.44-.19,.51-.26,.14-.57,.22-.86,.24-3.5,.32-7.01,.53-10.49,.96-3.07,.37-6.11,.98-9.17,1.48-.4,.07-.81,.15-1.22,.14-.15,0-.42-.22-.43-.35-.02-.27,.02-.74,.17-.8,.75-.32,1.54-.65,2.34-.75,3.69-.44,7.39-.83,11.09-1.19,2.36-.23,4.74-.39,7.6-.62Z"/><path d="M65.78,226.31c.05-.55,0-.89,.14-1.15,.11-.22,.4-.39,.65-.47,.13-.04,.48,.14,.5,.25,.34,2.18,1.73,4.15,1.32,6.46-.06,.32-.44,.59-.67,.88-.28-.25-.74-.46-.81-.76-.44-1.8-.79-3.62-1.12-5.22Z"/><path d="M53.3,269.77c.06,.79-.11,1.49-1.02,1.6-.79,.09-1.46-.83-1.5-1.98-.02-.65,.13-1.24,.9-1.37,.94-.15,1.56,.53,1.62,1.76Z"/><path d="M119.29,172.21c-2.32,2.3-3.66,2.6-5.92,1.68-1.12-.46-1.65-1.22-1.77-2.27-.1-.9-.09-1.86,.13-2.72,.44-1.73,2.44-3.45,3.94-3.43,2.01,.02,2.75,1.64,3.33,3.14,.39,1,.31,2.18,.44,3.29-.07,.1-.13,.21-.17,.32Zm-3.6-4.81c-1.06-.06-2.05,.94-2.11,2.13-.08,1.44,1.17,2.88,2.5,2.89,.93,0,1.68-.74,1.74-1.75,.1-1.57-.96-3.2-2.13-3.27Z"/><path d="M89.21,145.02c0,.3,.09,.64-.02,.9-.1,.24-.39,.51-.64,.56-.25,.05-.69-.07-.8-.26-.24-.43-.43-.94-.45-1.42-.08-2.93-.97-5.61-2.23-8.23-.44-.91-1.31-1.93-.27-3.03,.54,.81,1.19,1.58,1.6,2.45,1.34,2.88,2.62,5.79,2.81,9.03Z"/><path d="M104.34,123.94c-1.05-3.54-3.34-6.31-5.67-9.05-1.18-1.4-2.6-2.64-3.21-4.46,.25-.12,.51-.3,.56-.25,3.69,3.63,6.79,7.7,9.04,12.38,.4,.84,.37,1.42-.79,1.31l.07,.07Z"/><path d="M94.86,117.82c-.49-.18-.74-.19-.81-.31-2.14-3.82-5.22-6.89-8.12-10.1-.21-.23-.48-.44-.59-.71-.22-.52-.63-1.43-.46-1.57,.89-.74,1.18,.3,1.59,.78,1.73,2.05,3.45,4.11,5.12,6.21,1.33,1.67,2.46,3.46,3.27,5.7Z"/><path d="M108.43,123.09c.13-.82,.17-1.23,.26-1.63,.2-.87,.73-1.64,1.64-1.53,.58,.07,1.22,.67,1.58,1.21,.87,1.29,.99,2.62,.24,3.09-.73,.45-1.81,.91-2.52,.68-.61-.19-.91-1.35-1.19-1.82Z"/><path d="M73.56,88.07c2.28,2.18,4.56,4.35,6.83,6.53,.29,.28,.6,.61,.72,.98,.18,.55,.44,1.51,.22,1.66-.82,.57-.79-.5-1.15-.84-1.09-1.06-2.21-2.11-3.2-3.27-1.31-1.53-2.52-3.16-3.77-4.75l.34-.3Z"/><path d="M116.32,115.95c-.37-.13-.98-.28-1.51-.55-.21-.1-.38-.52-.35-.76,.03-.2,.39-.49,.6-.49,1.55,.01,3.12,.21,4.17-1.37,.33-.49,.84-.86,1.26-1.28-.13,.62-.15,1.3-.42,1.86-.72,1.44-1.7,2.61-3.75,2.6Z"/><path d="M117.54,154.14c-.36,.83-.5,1.61-.96,2.07-.77,.78-.84,1.26,.11,1.89,.16,.11,.12,.96-.06,1.06-.37,.21-1.04,.35-1.33,.16-.57-.38-1.02-.98-1.42-1.56-1.8-2.57-2.72-2.88-5.66-1.8-.38,.14-.73,.37-1.12,.49-.14,.04-.42-.09-.5-.22-.08-.14-.07-.5,.03-.56,1.79-1.12,2.3-3.48,4.28-4.41,.25-.12,.53-.18,.8-.27,0,.26,.06,.54,0,.79-.15,.62-.65,1.65-.49,1.76,.77,.54,1.54,.27,2.03-.59,.1-.17,.24-.36,.41-.44,.8-.37,1.59-1.35,2.49-.6,.64,.53,.94,1.47,1.4,2.25Z"/><path d="M104.53,176.55c-.29,2.64-.5,5.3-.91,7.93-.15,.98-.7,1.92-1.2,2.81-.22,.4-.76,.62-1.15,.92,.06-.43,.02-.92,.2-1.28,1.61-3.1,1.99-6.48,2.19-9.88,.13-2.36,.04-4.73,.07-7.1,.02-1.97,.78-2.82,2.68-3.09,2.38-.33,4.08,.42,4.64,2.08,.05,.15-.04,.47-.16,.54-.23,.13-.6,.25-.79,.15-.35-.19-.58-.58-.91-.81-2.28-1.59-4.57-.61-4.95,2.16-.12,.91-.02,1.85-.02,2.78,0,.92,0,1.85,0,2.77l.31,.03Z"/><path d="M132.2,185.69l-.47,.67c-.32-.32-.85-.6-.92-.97-.76-3.83-1.44-7.67-2.15-11.51-.19-1.01-.45-2-.61-3.01-.04-.25,.18-.55,.28-.83,.22,.18,.58,.33,.63,.55,1.03,4.6,2.02,9.21,3.01,13.82,.09,.4,.14,.81,.23,1.28Z"/><path d="M134.77,171.99c.14,.21,.41,.45,.44,.72,.43,3.26,1.64,6.15,3.83,8.63,.13,.15,.01,.52,.01,.79-.28-.02-.73,.06-.83-.09-.83-1.28-1.79-2.54-2.35-3.94-.72-1.8-1.12-3.73-1.62-5.61-.04-.15,.11-.37,.2-.54,.01-.02,.16,.02,.32,.05Z"/><path d="M108.08,188.09c.04-2.27,.38-4.07,1.51-5.64,.1-.14,.47-.28,.52-.22,.18,.19,.46,.56,.39,.68-1.22,2.09-1.21,4.31-.79,6.6,.03,.19-.01,.44-.12,.6-.16,.23-.39,.53-.62,.56-.18,.02-.55-.29-.59-.5-.17-.8-.24-1.63-.3-2.07Z"/><path d="M141.39,129.23c-2.12-2.65-3.77-5.13-4.41-8.4,1.46,1.36,3.83,5.86,4.41,8.4Z"/><path d="M110.12,173.73c.23,.16,.61,.29,.63,.47,.03,.22-.17,.65-.37,.72-.85,.32-1.75,.5-2.61,.8-.51,.18-.98,.7-1.44,.67-.41-.03,.21-1.45,1.11-1.84,.83-.36,1.74-.54,2.68-.82Z"/><path d="M133.03,126.39c.24,.18,.49,.27,.53,.41,.51,1.78,1.01,3.56,1.47,5.35,.04,.14-.16,.34-.25,.51-.15-.09-.41-.15-.45-.28-.58-1.75-1.15-3.51-1.67-5.28-.05-.18,.23-.46,.36-.71Z"/><path d="M175.21,165.74c-2.3,1.34-4.56,2.77-6.92,4-3.72,1.95-7.93,2.96-11.24,5.73-.1,.09-.35,0-.53-.01,.02-.19-.04-.45,.06-.54,.52-.49,1.01-1.08,1.63-1.38,3.05-1.48,6.15-2.86,9.2-4.33,1.57-.76,3.1-1.62,4.63-2.46,.96-.53,1.89-1.11,2.83-1.67l.33,.68Z"/><path d="M156.47,172.35c-.04,2.31-1.89,3.76-2.7,5.7-.14-2.41,1.23-4.07,2.75-5.65l-.05-.05Z"/><path d="M163.27,164.24c-.63,.48-1.25,.96-1.88,1.44,.36-.7,.72-1.4,1.08-2.1,.27,.22,.53,.44,.8,.66Z"/><path d="M156.52,172.4c-.06-1.08,.54-1.76,1.62-2.15-.56,.7-1.11,1.4-1.67,2.1l.05,.05Z"/><path d="M141.27,157.86c.27,.15,.5,.2,.62,.35,.52,.62,1.05,1.25,1.5,1.91,1.92,2.8,3.82,5.61,5.7,8.43,.13,.19,.16,.66,.03,.77-.18,.15-.59,.2-.81,.09-.36-.17-.74-.43-.95-.76-2.1-3.31-4.17-6.64-6.22-9.98-.11-.17,.07-.52,.11-.82Z"/><path d="M145.48,159.6l-1.1-.73c.56-.32,1.12-.65,1.7-.94,.02-.01,.41,.5,.35,.59-.24,.37-.58,.68-.95,1.08Z"/><path d="M138.46,94.33c-.11-.51-.23-.72-.18-.9,.06-.24,.25-.44,.39-.66,.15,.11,.38,.18,.44,.33,.59,1.33,.83,2.7,.17,4.07-.1,.21-.47,.44-.67,.4-.21-.04-.52-.4-.5-.6,.08-.98,.26-1.96,.36-2.65Z"/><path d="M111.26,35.98c.8,.04,1.9,1.27,1.69,2.2-.25,1.06-.75,2.09-1.3,3.03-.19,.33-.88,.5-1.33,.5-1.15,0-2.27-1.27-2.51-2.7-.16-.95,.4-1.99,1.43-2.43,.65-.28,1.35-.41,2.03-.6Z"/></g></g></g></svg>