<?xml version="1.0" encoding="UTF-8"?><svg xmlns="http://www.w3.org/2000/svg" viewBox="0 0 326.5 183.15"><g id="a"/><g id="b"><g id="c"><g><path d="M0,155.79c5.28,.02,10.55,.02,15.83,.06,6.79,.06,13.58,.14,20.37,.23,7.59,.1,15.18,.24,22.77,.35,5.79,.08,11.58,.11,17.37,.17,13.45,.13,26.91,.25,40.36,.4,9.62,.11,19.25,.28,28.87,.39,14.37,.16,28.75,.28,43.13,.42,6.83,.07,13.65,.15,20.48,.22,.23,0,.47,0,.82,0,.03-1.15,.02-2.27-.82-3.02-2.03-1.81-3.53-3.96-4.71-6.39-1.43-2.95-3.05-5.81-4.46-8.77-.45-.94-.54-2.06-.75-3.1-.27-1.36-.5-2.73-.76-4.09-.04-.23-.1-.55-.26-.66-1.54-1.02-1.21-2.52-1.09-3.98,.02-.23-.03-.46-.05-.68-.85-.06-1.63-.08-2.4-.19-.85-.12-1.45-.42-.93-1.51,.24-.5,.2-1.15,.32-2.03-.57,.26-.91,.37-1.19,.56-.29,.2-.5,.54-.8,.71-.42,.22-.9,.33-1.35,.49,.04-.48,0-.98,.15-1.42,.36-1.11,.54-2.18,.1-3.27l-.42-.18c-.57,.95-1.2,1.87-1.68,2.85-.47,.96-.74,2.03-1.2,3-.18,.38-.66,.94-.92,.9-.4-.06-.84-.51-1.07-.91-.43-.73-.73-1.54-1.34-2.27,0,.72,.09,1.46-.04,2.16-.06,.37-.49,.68-.75,1.02-.19-.36-.53-.71-.54-1.07-.01-1.2,.07-2.4,.18-3.59,.09-.96,.62-1.18,1.36-.55,.47,.4,.82,.96,1.14,1.49,.33,.54,.57,1.14,.91,1.83l3.23-5.47h-23.5v-.43h22.65c-2.08-.5-3.8-2.09-6.2-1.79-1.6,.2-3.26,.03-4.88-.11-.68-.06-1.45-.32-1.96-.75-.69-.59-1.3-.54-1.95-.19-2.32,1.23-4.87,1.56-7.42,1.91-.65,.09-1.29,.3-1.92,.7l.93,.21v.22h-25.82c.02,.17,.08,.36,.05,.53-.05,.28-.17,.55-.26,.82-.16-.24-.29-.5-.47-.72-.23-.28-.5-.74-.76-.75-3.13-.05-6.26-.03-9.38-.03l1.65,1.71c-3.1-.72-5.9-2.01-9.03-1.98-1.6,.01-1.6-.02-2.5,1.13-.18-1.77-1.65-.93-2.71-1.45l1.69-.17,.1-.37-4.24-1.38-.3,.54c.55,.42,1.05,.96,1.67,1.22,.91,.38,.72,.67,.39,.91-.98-.26-1.71-.62-2.45-.63-5.24-.06-10.47-.02-15.71-.06-7.15-.06-14.29-.16-21.44-.26-5.11-.07-10.21-.17-15.32-.25-1.64-.03-3.27-.04-4.91-.07q-1.82-.03-1.53,1.89c-.61-.39-1.27-.63-1.66-1.1-.8-.98-1.83-.82-2.85-.83-7.63-.1-15.26-.19-22.89-.29-2.24-.03-5.16,2.02-5.9,4.12-.08,0-.18,.03-.23,0q-1.68-1.3-.09-2.86c.31-.3,.57-.65,1.12-1.28-1.37-.07-2.51-.16-3.65-.17-5.75-.06-11.51-.09-17.26-.14-.32,0-.63-.08-.95-.13v-.24c3.31,.04,6.62,.08,9.93,.12,3.79,.04,7.59,.07,11.38,.12,1.1,.02,2.06-.15,3.01-.87,1.41-1.08,2.97-1.98,4.51-2.87,1.57-.91,3.15-1.84,4.82-2.53,1.07-.44,2.3-.59,3.48-.64,1.41-.07,2.83,.1,4.49,.18-.52-1.32-1.01-2.47-1.44-3.64-.13-.36-.11-.78-.15-1.17,.41,.16,.91,.23,1.21,.51,.62,.58,1.14,1.27,1.7,1.92l.41-.22c-.39-.9-.73-1.82-1.17-2.69-1.11-2.2-2.29-4.37-3.4-6.57-.14-.28-.05-.67-.06-1.01,.34,.11,.83,.1,1,.34,1.05,1.4,2.05,2.84,3.04,4.28,.69,1,1.36,2.02,2.05,3.03l.42-.15-1.88-8.11c.65-.6,1.21-.44,1.5,.3,.89,2.25,1.74,4.52,2.54,6.81,.48,1.36,.92,2.73,1.22,4.14,.17,.82,.69,1.09,1.31,1.15,1.93,.19,3.87,.29,5.81,.41,.82,.05,1.31-.23,1.46-1.17,.2-1.25,.78-1.43,2.72-.94,.15-1.05,.26-2.1,.45-3.13,.25-1.32,.7-2.61,.8-3.93,.12-1.53,.02-3.09-.13-4.62-.2-2.03-1.21-3.76-2.27-5.46-.24-.38-.38-1.21-.17-1.41,.59-.57,1.23-.17,1.56,.44,.57,1.05,1.02,2.16,1.55,3.23,1.46,2.96,2.95,5.91,4.41,8.87,.33,.67,.68,.94,1.5,.64,1.4-.52,2.73-.4,4.04,.53,.58,.41,1.54,.26,2.3,.47,.46,.13,.89,.42,1.27,.72,.08,.07-.05,.65-.19,.71-.48,.18-1.07,.43-1.52,.3-1.2-.34-2.31-1.02-3.52-1.26-.76-.15-1.69,.13-2.45,.44-1.51,.63-1.75,.49-2.37-1.02-.44-1.07-1.2-2.01-1.82-3-.18-.29-.41-.56-.7-.94,.12,1.34,.27,2.58,.33,3.83,.05,1.04,.36,2.21-1.02,2.77-.18,.07-.3,.45-.35,.7-.26,1.36-.52,2.73-.72,4.1-.12,.83-.57,1.04-1.33,1-2.82-.18-5.64-.34-8.45-.5-.31-.02-.65-.05-.94,.04-1.19,.35-1.89-.21-2.39-1.21-.1-.21-.25-.4-.37-.59-1.27,.61-1.51,.53-2.56-1.08,.07,.75,.09,1.19,.16,1.62,.2,1.21-.07,1.48-1.28,1.26-.64,1.59-.62,1.45-2.29,1.2-2.9-.44-5.82-.98-8.55,.82-1.79,1.18-3.71,2.18-5.56,3.27-.15,.09-.23,.29-.5,.62,.68,.12,1.2,.29,1.73,.29,6.79,.04,13.57,.05,20.36,.07,.36,0,.72,0,1.08,.02q1.85,.09,2.27-1.58c.11,.02,.28,0,.31,.07,1.02,1.79,2.76,1.67,4.44,1.69,5.27,.06,10.54,.12,15.82,.18,8.59,.1,17.17,.19,25.76,.31,4.95,.07,9.89,.17,14.84,.25,.18,0,.36-.06,.57-.1-.7-1.46-1.71-1.89-3.14-1.77-1,.08-2.02-.24-3.04-.33-.64-.05-1.29,.01-1.94,0-1.26-.03-2.55-.26-3.78-.09-3.03,.42-5.73-1.39-8.69-1.16-2.49,.19-4.98,.5-7.47,.61-1.15,.05-2.31-.31-3.46-.33-2.03-.04-4.06-.03-6.08,.09-2.54,.15-5.08,.39-7.62,.64-1.45,.14-2.93,.66-4.34,.49-1.39-.18-2.74-.94-4.04-1.58-.76-.38-.79-1.17-.4-1.89,.59-1.11,1.57-1.48,2.75-1.95,2.08-.83,4.18-1.23,6.35-1.53,.71-.1,1.43-.1,2.13-.21,4.07-.65,7.09-3.05,9.75-5.97,1.65-1.82,3.29-3.66,4.74-5.64,2.04-2.79,4.01-5.65,4.9-9.09,.68-2.61,1.35-5.19,2.4-7.72,1.09-2.61,1.59-5.52,1.99-8.34,.37-2.58,1.03-4.98,2.35-7.21,1.12-1.9,1.73-3.97,2.35-6.07,.64-2.2,1.73-4.27,2.62-6.39,.13-.32,.24-.65,.47-1.31-2.04,1.21-3.89,2.12-6.2,1.39l.3,2.37-.2,.04c-.06-.25-.12-.49-.18-.74-.07-.29-.13-.58-.25-1.09-.54,.61-.91,1.05-1.3,1.48-1.57,1.71-3.1,2.07-5.27,1.3-.97-.35-1.87-.34-2.28,.46-1.32-.51-2.67-.89-3.89-1.53-1.19-.62-2.25-1.5-3.37-2.27l-.44,.33c-.64-2.57-1.17-5.18-1.95-7.7-1.25-4.02,.15-7.53,1.78-11.04,.74-1.59,1.45-3.19,2.27-4.74,1.11-2.1,2.2-4.22,3.51-6.2,1.22-1.86,2.75-3.52,4.08-5.31,2.08-2.82,4.82-4.67,8.11-5.84,1.64-.58,3.13-1.62,4.8-2.09,1.86-.52,3.84-.65,5.77-.88,2.37-.29,4.75-.52,7.13-.74,.94-.09,1.89-.08,2.83-.11l.08-.46-.98-.71,.04-.2c.33,.07,.79,.02,.96,.22,1.12,1.34,2.72,1.27,4.22,1.57,.86,.17,1.86,.23,2.23,1.38,.27-.11,.56-.15,.76-.31,1.23-.97,2.43-1.99,3.67-2.96,.56-.43,1.18-.77,1.79-1.13,2.56-1.53,5.32-2.58,8.1-3.64,2.05-.79,4-1.87,6.07-2.58,1.66-.57,3.28-.04,4.78,.88,3.34,2.06,5.7,5.01,7.99,8.11,1.51,2.04,3.38,3.79,5.06,5.71,1.02,1.16,1.97,2.39,2.96,3.58,2.11,2.53,4.22,5.05,6.33,7.58,.18,.21,.33,.46,.54,.63,1.54,1.19,1.05,3.47-.72,4.46-.29,.16-.63,.42-.73,.71-.52,1.45-1.77,1.82-3.03,2.22-1.78,.57-3.58,1.11-5.31,1.8-.5,.2-.8,.91-1.07,1.24l-1.98-.43c.07-.64,.18-1.63,.27-2.62,.05-.52,.06-1.04,.06-1.56,.01-2.58-.75-3.44-3.37-3.8-.22-.03-.45-.09-.82-.16,.2,1.83,.39,3.55,.58,5.26,.71-1.35,.27-2.74,.19-4.12l.37-.05c.09,.84,.17,1.68,.29,2.51,.12,.84,.29,1.68,.44,2.51h.37c.17-.88,.34-1.75,.51-2.62h.2c.03,.42,.08,.83,.1,1.24,.05,1.49,.07,2.97,.17,4.46,.01,.2,.38,.5,.62,.53,2.63,.41,5.25,.88,7.89,1.11,2.72,.24,5.47,.16,8.2,.36,1.45,.1,2.74,.7,3.38,2.33-.24-.02-.41,.02-.45-.04-1.31-1.78-3.13-1.96-5.14-1.76-2.85,.28-5.68,.66-8.55-.08-1.46-.38-3.03-.36-4.55-.5-.16-.01-.33,.16-.48,.24,.33,1.63,1.7,2.04,2.88,2.63,5.95,2.98,10.51,7.4,13.79,13.18,.2,.35,.36,.71,.5,1.09,.29,.77,.56,1.54,.76,2.35-2.64-6.03-6.98-10.46-12.72-13.64l.5,.7c-2.11-1.13-4.29-2.3-6.47-3.47l-.23,.33c.21,1.03,.65,1.84,1.56,2.58,2.07,1.66,4.14,3.36,5.93,5.31,1.73,1.89,3.1,4.11,4.62,6.2,.17,.24,.27,.53,.45,.89-1.91-2.2-3.7-4.32-5.55-6.4-1.89-2.12-4.11-3.81-6.97-5.05,.19,2.31,.27,4.4,.55,6.47,.25,1.8,.64,3.6,1.15,5.35,.16,.55,.89,1,1.46,1.33,1.56,.91,3.18,1.71,4.75,2.61,2.13,1.21,4.47,1.35,6.83,1.42,1.95,.06,3.91,0,5.87,.1,3.38,.17,6.73,.52,9.97,1.68,1.53,.55,3.17,.78,4.78,1.07,.31,.06,.86-.13,1.02-.39,1.22-1.99,2.38-4.02,3.55-6.04h-.42c-.19-.59-.65-1.26-.52-1.78,.16-.62,.82-1.11,1.25-1.36,.6,0,1.31,.21,1.78-.04,2.52-1.32,5.19-1.85,8.01-1.91,2.5-.05,5-.22,7.49-.42,.38-.03,.89-.41,1.05-.76,.95-2.05,2.89-2.62,4.74-3.29,1.12-.4,2.28-.85,3.45-.9,1.43-.06,2.88,.28,4.32,.42,2.49,.24,4.97,.65,7.48,.19,2.13-.39,3.46,.92,4.5,2.46,.63,.93,1.34,1.32,2.38,1.19,1.9-.23,3.8-.44,5.68-.75,.51-.09,.96-.53,1.43-.81,.65-.39,1.31-.78,1.95-1.18,.19-.12,.49-.32,.47-.45-.15-1.09,.67-1.12,1.35-1.27,2.36-.53,4.71-1.06,7.08-1.54,3.05-.62,6.14-.61,9.16,.1,.98,.23,2.01,1.03,2.64,1.85,1.34,1.75,3.14,2.41,5.15,2.94,.94,.25,1.92,.85,2.57,1.57,1.49,1.67,2.6,3.6,3.13,5.82,.79,3.29,1.67,6.57,2.34,9.88,.36,1.79,.31,3.65,.5,5.47,.05,.51,.37,1,.4,1.5,.02,.41-.18,.84-.32,1.26-.2,.62-.57,1.22-.63,1.85-.15,1.7-.17,3.4-.25,5.11,0,.08,0,.16-.02,.24-.57,2.43-1.05,4.87-1.72,7.27-.78,2.79-.8,5.58-.49,8.42,.21,1.93-.15,3.78-.57,5.67-.37,1.62-1.05,2.53-2.65,2.82-.28,.05-.51,.38-.77,.58,.24,.23,.46,.62,.73,.66,1.8,.29,3.64,.81,5.42,.68,2.28-.17,4.44,.02,6.61,.66,2.17,.64,4.52-.72,5.16-2.84,.23-.77-.03-1.1-.61-1.43-1.71-.99-3.57-.94-5.45-.93-1.03,0-2.08,0-3.07-.23-.93-.22-1.1-1.07-.37-1.69,.81-.68,1.73-1.23,2.63-1.79,.95-.6,1.94-1.16,3.15-1.87-1.48-.65-2.7-.75-3.96-.51-.78,.15-1.55,.46-2.34,.5-.85,.04-1.73-.08-2.55-.31-.23-.06-.38-.8-.34-1.2,.02-.18,.73-.51,.93-.4,1.52,.85,3.05,.01,4.55,.12,2.29,.16,4.57,.38,6.85,.68,.32,.04,.57,.63,.85,.96-.37,.28-.69,.66-1.1,.81-2.26,.84-4.55,1.61-6.8,2.46-.3,.11-.48,.54-.91,1.06,.88,.07,1.45,.09,2.02,.18,2.12,.32,4.24,.64,6.34,1.03,.47,.09,1.03,.41,1.3,.79,.59,.86,1.27,.73,2.06,.48,1.28-.4,2.55-.8,3.84-1.16,.37-.1,.84-.2,1.16-.06,.41,.18,.72,.61,1.07,.93-.3,.31-.57,.67-.92,.9-.58,.39-1.32,.59-1.79,1.08-.36,.37-.4,1.05-.58,1.59,.53,.12,1.04,.31,1.58,.36,.69,.07,1.47-.16,2.08,.07,.86,.32,1.73,.84,2.39,1.48,1.4,1.36,2.72,2.8,3.96,4.31,.57,.69,.9,1.58,1.25,2.42,.11,.26-.08,.64-.13,.96-.39-.1-.85-.09-1.14-.31-.55-.4-1-.94-1.49-1.42l-.31,.21c.14,.47,.21,.97,.43,1.39,1.02,1.96,1.3,4.09,1.57,6.23,.21,1.66,.31,3.34,.45,5.01,.03,.32,.09,.65,.04,.96-.13,.77,.2,1.86-.92,2.09-1.33,.27-1.06-1.01-1.36-1.68-1.04-2.32-2.03-4.66-3.08-6.98-.12-.26-.5-.56-.75-.55-.28,.01-.69,.3-.79,.57-.53,1.42-1.06,2.84-1.43,4.3-.64,2.57-1.43,5.14-1.66,7.76-.23,2.59,.16,5.24,.27,7.86,.06,1.35,.33,2.61,1.55,3.42,1.52,1.02,3.08,1.73,5.04,1.36,3.31-.61,6.57-.37,9.75,.87,.87,.34,1.91,.22,2.81,.52,.6,.2,1.35,.66,1.54,1.18,.13,.35-.54,1.39-.98,1.47-1.81,.36-3.67,.57-5.52,.63-1.05,.03-2.11-.37-3.18-.5-.67-.08-1.37-.02-2.05-.02l-.04,.38c.18,.07,.39,.11,.54,.23,.4,.3,.77,.62,1.15,.94-.38,.42-.7,1.03-1.17,1.21-.84,.32-1.79,.51-2.69,.5-2.57-.02-4.83,.96-7.07,2.03-1.08,.51-2.2,.94-3.24,1.52-.36,.2-.75,.74-.76,1.14-.12,6.55-.19,13.1-.27,19.65h-.48c.01-4.11,.01-8.23,.05-12.34,.02-2.2,.09-4.39,.18-6.58,.04-1.06-.24-1.5-1.45-1.3-2.04,.34-4.11,.49-6.16,.72,.37-.36,.83-.66,1.33-.75,1.76-.32,3.53-.58,5.3-.85,.89-.14,1.01-.74,1-1.49-.01-.84-.51-.95-1.19-.96-6.35-.06-12.69-.13-19.04-.21-.67,0-.98,.25-.9,.92,.08,.69,.16,1.38,.24,2.07l-.12,.02-.43-.96c-.37,.39-.65,.66-.9,.95-1.08,1.26-2.45,1.97-4.04,2.42-2.72,.78-5.43,1.59-8.1,2.52-2.14,.74-4.2,1.7-6.32,2.51-.31,.12-.74-.05-1.1-.15-.07-.02-.13-.47-.07-.51,.32-.2,.68-.38,1.04-.48,.67-.17,1.39-.17,2.01-.44,1.25-.53,2.43-1.21,3.66-1.78,2.75-1.26,5.51-2.49,8.56-2.88,.54-.07,1.09-.26,1.59-.5,1.53-.73,2.31-1.88,2.14-3.01-.5-.05-1.01-.04-1.48-.16-.52-.13-1.01-.54-1.53-.56-3.23-.09-6.47-.09-9.71-.14-5.83-.1-11.65-.24-17.48-.31-5.59-.07-11.17-.05-16.76-.14-1.06-.02-2.08-.21-2.72,.86-.28,.46-.42,1.01-.63,1.53-.9-.89-1.8-.06-2.69,.2-.97,.29-1.59,.89-1.45,2.1,.16,1.43-.46,2.73-1.79,3.22-.69,.25-1.73-.18-2.51-.53-.88-.4-1.64-1.07-2.62-1.73-.23,1.62-.48,3.13-.63,4.64-.09,.9-.52,1.39-1.4,1.5-.95,.12-1.21-.51-1.42-1.27-.22-.79-.41-1.63-.83-2.31-1.42-2.3-1.83-4.83-1.85-7.44,0-.85-.34-1.06-1.04-1.07-1.28-.02-2.56-.05-3.84-.07-13.01-.15-26.03-.3-39.04-.45-8.11-.09-16.22-.17-24.33-.24-4.87-.04-9.75-.03-14.62-.09-6.03-.07-12.06-.18-18.08-.26-.33,0-.67,.09-.97,.14,0,.69,0,1.24,0,1.8-.04,4.87-.06,9.74-.13,14.61-.04,3.07-.14,6.14-.22,9.2h-.48c.1-8.27,.19-16.53,.31-24.8,.01-.74-.21-1-.94-1.01-1.87,0-3.75-.07-5.62-.09-9.07-.09-18.14-.16-27.21-.27-8.71-.11-17.41-.29-26.12-.41-7.59-.11-15.17-.18-22.76-.26-8.47-.1-16.94-.19-25.41-.28v-.24Zm231.15-44.83l.92,.71,1.23-2.34c.27-.09,.8-.11,.97-.37,.9-1.35,1.68-2.76,2.55-4.13,.24-.38,.64-.65,.96-.98,.26,.41,.69,.8,.73,1.23,.07,.74-.07,1.51-.2,2.26-.14,.81-.38,1.61-.64,2.68,1.33-.34,2.42-.68,3.53-.88,.52-.1,1.09,.05,1.64,.08-.1,.54-.07,1.16-.34,1.59-.54,.87-1.05,1.67-.41,2.4-.34-.07-1.04-.44-1.3-.24-.89,.69-1.63,1.57-2.65,2.61,1.05,.35,1.8,.66,2.59,.86,1.21,.31,2.46,.5,3.66,.84,1.66,.47,2.08,.18,2.38-1.46,.19-1.04,.66-2.03,1.11-3.35,.68,.99,1.24,1.6,1.53,2.31,.26,.63,.23,1.39,.33,2.09l.36-.04c.63-1.47,1.25-2.94,1.98-4.67,1.03,1.76,1.95,3.35,2.88,4.93l-.38,.08c.06,.31,0,.72,.19,.92,.72,.81,2.48,1.04,3.98,.43l-1.63-.6,.5-.88,3.38,1.08c.3-1.29,.13-1.53-.54-2.43-1.28-1.73-2.46-3.53-3.68-5.31l.29-.2c1.39,2.02,2.79,4.04,4.33,6.29,.7-4.14,.65-7.93-.13-11.83-.76,.22-1.33,.28-1.81,.54-.99,.54-1.87,1.53-2.89,1.7-1.1,.18-2.33-.37-3.5-.59-.19-.04-.41,.01-.6-.04-.63-.16-1.17-.36-.75-1.23,.12-.25-.04-.65-.14-.97-.5-1.75-1.02-3.49-1.52-5.24-.33-1.14-.2-2.1,1.43-2.59-.55-.15-.76-.25-.97-.25-2.22-.02-4.43-.06-6.65-.03-1.3,.02-2.63,.33-3.9,.17-1.71-.21-3.13,.19-4.47,1.18-.22,.16-.51,.3-.77,.3-1.84,.03-3.68,.01-5.63,.01-.02,.33-.08,.87-.08,1.42,.01,1.8,.01,3.6,.1,5.39,.05,.97,.13,1.98,.43,2.89,.42,1.27,1.07,2.46,1.62,3.67-.75-1.05-1.51-2.1-2.28-3.18-.1,.35-.44,.86-.34,1.27,.26,1.07,.68,2.11,1.12,3.13,.11,.25,.5,.39,.77,.58,.23-.33,.51-.64,.67-1,.1-.23,.03-.55,.04-.82Zm-9.16,10.01c-2-.25-3.99-.66-5.99-.72-5.63-.14-11.26-.14-16.9-.17-1.06,0-2.11,.1-3.17,.15l-.17,.31c.47,.49,.89,1.04,1.4,1.47,1.11,.92,2.56,1.53,2.56,3.32,0,.29,.27,.57,.39,.87,.86,2.04,1.58,4.15,1.12,6.38-.94,4.48-.35,8.52,2.99,11.9,.1,.1,.13,.28,.19,.42,1.01,2.73,2.76,4.99,4.56,7.21,1.25,1.54,3.11,2.71,2.85,5.11-.03,.25,.33,.76,.54,.78,1.01,.08,2.02,.04,3.39,.04-1.07-.89-1.89-1.55-2.67-2.24-.21-.18-.33-.47-.5-.7,.32,.06,.7,.02,.94,.18,1.03,.75,2.07,1.51,3.01,2.36,.73,.66,1.45,.63,2.35,.37-.46-1.02-.66-2.07-2.1-1.97-.46,.03-1.04-.28-1.41-.6-1.27-1.12-2.49-2.32-3.7-3.51-.15-.15-.13-.46-.19-.69l.27-.24c1.71,1.61,3.26,3.44,5.6,4.16-.94-2.81-2.51-5.13-4.77-6.99l1.38,.95,.34-.2c-2-3.54-3.02-7.34-3.25-11.36,.34,.31,.51,.67,.67,1.04,1.07,2.62,1.15,5.65,3.12,7.88-.09,.51-.13,1.01,.05,1.43,1.04,2.45,2.14,4.88,3.21,7.32,.29,.66,.47,1.39,.88,1.95,.33,.44,.93,.9,1.45,.95,1.54,.15,3.1,.11,4.64,.1,.23,0,.46-.26,.64-.38l1.62,.42,.13-.39c-.9-1.17-1.69-2.47-2.74-3.5-1.47-1.43-3.17-2.61-4.7-3.98-1.35-1.22-2.59-2.56-3.87-3.85l.2-.2c1.93,1.61,3.86,3.22,5.79,4.83l.23-.26c-.7-1.32-1.37-2.66-2.12-3.94-.88-1.5-1.83-2.96-2.75-4.43-.17-.27-.36-.53-.45-.82-.22-.73-.35-1.49-.57-2.23-.39-1.3-.84-2.57-1.24-3.87-.22-.72,.12-1.1,1.12-1.3-.52,1.78,1.59,2.46,1.36,4.38-.14,1.23,1.01,2.6,1.58,3.91,1.11,2.56,2.86,4.52,5.27,5.96,.91,.54,1.55,1.53,2.46,2.08,.52,.32,1.47,.41,1.98,.15,.44-.23,.88-1.21,.74-1.69-.49-1.65-1.11-3.29-1.91-4.82-.78-1.51-1.84-2.87-2.77-4.31-.14-.22-.29-.53-.25-.76,.21-1.16-.5-1.87-1.18-2.6-.36-.39-.74-.77-1.12-1.15l.17-.39c.39,.07,.97-.01,1.15,.22,.86,1.09,1.68,2.21,2.37,3.41,.69,1.2,1.06,2.61,1.85,3.72,1.54,2.16,2.86,4.36,3.48,6.99,.25,1.04,.97,2,1.57,2.92,.43,.65,.95,.58,1.39-.11,.56-.88,.22-1.67-.97-2.23-.88-.42-1.61-.99-1.99-2.2,2.92,2.41,2.86,2.42,5.07,1.49-2.21-2-4.55-3.79-5.46-5.52l5.64,5.7,.45-.42c-.12-.23-.25-.46-.36-.69-1.39-2.88-3.03-5.66-4.09-8.66-.9-2.55-2.67-4.18-4.5-5.9-.89-.84-1.7-1.77-2.54-2.66l.26-.24c1.49,1.45,2.97,2.91,4.46,4.36l.42-.34c-.97-1.45-1.84-2.97-2.92-4.34-.98-1.24-2.33-2.2-3.22-3.48-.69-1-.84-.77-1.53-.05-.82,.85-.04,1.17,.39,1.68l-.24,.23-5.32-2.85,.22-.43c.91,.46,1.81,.92,2.72,1.36,.53,.26,1.05,.66,1.49-.19,.35-.66,.82-1.23-.15-1.78-.2-.11-.27-.46-.51-.89,.5,.16,.73,.22,.95,.3,.22,.08,.43,.17,.63,.25,.93-1.5,.88-1.61-.35-2.53-.43-.32-.73-.82-1.09-1.24l1.99,1.11,.55-1.5c-.71-.05-1.23-.16-1.72-.1-.28,.03-.52,.34-.78,.53Zm-33.24-5.36c.95,1.48,1.51,1.59,3.54,.64-1.53-1.61-3.03-3.21-4.54-4.81l.25-.24c.14,.13,.29,.25,.43,.39,1.27,1.32,2.51,2.66,3.82,3.93,.33,.32,.92,.62,1.32,.54,.84-.16,1.63-.58,2.5-.91l-.34-1.01c1.68,2.03,2.77-.53,4.36-.18-.6-1.19-1.05-2.09-1.5-2.99,.93,1.1,1.87,2.2,2.6,3.41,.45,.75,.53,1.68-.08,2.65-.21-2.03-.45-2.16-2.24-1.16-1.07,.6-2.01,1.45-3.3,1.62-.6,.08-1.34,.33-1.09,1.11,.2,.64,.65,1.21,1.58,1.16,1.51-.08,3.03-.02,4.55,0,7.54,.08,15.08,.18,22.63,.23,.48,0,.96-.32,1.44-.48-.23-.63-.35-1.35-.74-1.86-.4-.53-1.08-.84-1.64-1.25l.14-.23c.71,.36,1.41,.73,2.3,1.18,.11-1.39,.24-2.59-.84-3.2,.25-.39,.59-.68,.57-.96-.06-1.27-.14-2.57-1.08-3.21,.07-.63,.2-1.03,.14-1.4-.13-.74-.34-1.48-.58-2.2-.24-.71-.42-1.53-.9-2.04-.95-1.01-2.11-1.81-3.13-2.77-.92-.86-1.76-1.8-2.64-2.7l.38-.4c1.36,1.26,2.41,2.96,4.64,3.66-1.54-3.05-2.92-5.76-4.28-8.45-1.51,.64-1.9,.41-2.45-1.28l1.52,.51c-.5-.88-.85-1.61-1.31-2.26-.22-.32-.66-.69-.99-.68-.74,.01-.6,.61-.57,1.16,.05,1.36,.02,2.72,.02,4.07l-.34,.06c-.14-.16-.38-.31-.39-.48-.04-.65,.05-1.31-.02-1.95-.22-1.94-.35-3.9-.77-5.8-.48-2.14-1.08-4.27-1.92-6.29-.58-1.4-1.51-2.71-2.5-3.88-1.08-1.27-2.46-2.28-3.61-3.5-1.51-1.59-3.13-2.96-5.3-3.53-3.43-.9-6.87-1.77-10.31-2.65-1.35-.34-2.68-.87-4.05-.97-3.45-.25-6.91-.32-10.36-.43-2.15-.07-4.25-.21-6.2-1.31-1.02-.58-2.16-.93-3.25-1.38,4,4.57,4.1,9.92,3.23,15.49-.96-3.67-.21-7.73-2.37-11.2-.58,.44-1.02,.65-1.32-.33-.17-.55-.73-1-1.17-1.45-1.06-1.07-2.26-2.05-2.64-3.61-.45-1.84-.97-3.67-1.26-5.53-.41-2.62-.64-5.28-.95-7.92-.02-.21-.11-.4-.24-.83-.56,.79-.89,1.5-1.45,1.96-.32,.26-.99,.11-1.5,.15,.05-.33,.02-.71,.16-.99,.38-.74,1.35-1.61,1.17-2.11-.33-.93-.86-2.1-2.23-2.22-.25-.02-.68-.34-.67-.5,.03-.4,.16-.99,.44-1.12,.45-.22,1.07-.24,1.58-.15,.72,.12,1.41,.41,2.22,.66-.08-.28-.08-.46-.15-.49-1.4-.62-.98-1.53-.43-2.49,.16-.27,.22-.6,.35-.89,.63-1.42,.52-1.65-.8-1.92-.52-1.64-1.11-3.16-1.46-4.74-.41-1.84-.62-3.73-.88-5.6-.11-.79-.39-1.29-1.26-1.46-1.66-.34-3.38-.61-4.94-1.23-4.1-1.63-8.27-1.4-12.48-.79-2.95,.43-5.88,.97-8.82,1.45-.27,.04-.57-.08-.82-.02-.99,.27-2.18-.02-2.89,1.06-.34,.51-.71,1.01-1.11,1.47-.76,.87-1.64,1.64-2.33,2.56-1.22,1.61-2.34,3.31-3.51,4.96-1.68,2.37-3.46,4.68-5.05,7.1-1.46,2.23-2.75,4.57-4.09,6.88-1.48,2.55-3.07,5.05-4.35,7.69-1,2.07-1.54,4.35-2.41,6.49-.78,1.92-1.93,3.7-2.55,5.66-.68,2.19-.81,4.55-1.41,6.77-1.3,4.89-2.66,9.77-4.17,14.6-.59,1.89-1.42,3.77-2.5,5.42-2.75,4.16-5.84,8.1-9.52,11.47-2.72,2.49-5.9,4.22-9.73,4.25-2.95,.02-5.69,.72-8.57,2.5,.89,.37,1.58,.9,2.24,.87,2.81-.12,5.61-.45,8.42-.62,3.29-.2,6.58-.29,9.87-.48,1.02-.06,2.02-.27,3.04-.41l-.04-.42c-.89-.36-1.69-1.17-2.82-.39-.16,.11-.8-.24-.98-.52-.12-.19,.11-.81,.34-.95,.85-.51,1.77-.89,2.59-1.29l-.43,1.54q4.37,1.29,5.36,.6l-3.92-1.19c0-.81,.58-.61,1.13-.4,1.12,.43,2.23,.88,3.33,1.34,1.38,.57,2.63,.19,3.79-.57,.16-.1,.14-.48,.22-.75,.14,.05,.42,.21,.72,.28,1.58,.39,2.97-.65,2.75-2.12-.28-1.88-1.22-3.48-2.26-5.14-1.73,1.62-3.59,2.65-5.85,2.85,1.17-.69,2.37-1.34,3.62-1.86,1.3-.55,1.75-1.5,1.18-2.81-.17-.38-.3-.78-.48-1.24,1.5-.42,1.82,.86,2.74,1.66l-1.08-5.2-1.64,.38c-.08-.5-.35-1.08-.2-1.49,.57-1.56,.96-3.14,1.13-4.81,.16-1.6,1.83-1.98,2.7-3.02,.06-.07,.43,.01,.51,.13,.12,.16,.18,.44,.12,.62-.55,1.91-1.17,3.8-1.68,5.72-.18,.67-.22,1.43-.13,2.12,.18,1.34,.7,2.66,.72,4,.02,1.48,.66,2.58,1.45,3.69,.08,.11,.06,.28,.09,.42l-.25,.19-.56-1.08-.44,.35c.9,1.33,1.79,2.66,2.7,3.99,1.39,2.02,2.9,3.94,4.92,5.38,.42,.3,1.02,.36,1.53,.53,1.42,.94,2.96,1.19,4.86,.91-1.03-1.51-1.95-2.85-2.87-4.19l.28-.17c.98,1.3,1.93,2.61,2.97,3.87,.31,.37,.8,.7,1.27,.8,.75,.17,1.55,.13,2.34,.18l.23-1.2c1.62,1.85,3.62,2.47,5.7,2.95,2.47,.58,4.91,1.35,7.42,1.73,1.84,.28,3.75,.18,5.62,.07,1.31-.08,2.6-.47,4.09-.77-1.21-1.03-2.22-1.88-3.23-2.74l.4-.44c.99,.83,1.93,1.71,2.98,2.45,.46,.32,1.17,.57,1.69,.46,2.69-.53,5.37-1.11,7.67-2.75,.53-.38,.87-.17,.78,.44-.06,.44-.21,1.03-.52,1.23-1,.62-2.09,1.1-3.15,1.6-.41,.19-.85,.31-1.27,.47l.06,.16h6.52c.07-.92,.02-1.7,.2-2.43,.52-2.12,.26-4.04-.93-5.91-.97-1.52-2.02-3.04-1.97-5,.06-2.7,.05-5.41,.06-8.11,0-.3,.05-.67-.1-.9-.85-1.33-1.75-2.63-2.62-3.95-.37-.56-.71-1.14-1.06-1.71l.36-.31,3.25,2.8c.17-1.17,.3-2.12,.44-3.08,.27,.59,.41,1.25,.55,1.91,.08,.37,.17,.75,.24,1.12,.21,1.16,.57,2.32,.58,3.48,.03,2.66-.23,5.33-.12,7.99,.05,1.18,.45,2.53,1.15,3.46,1.84,2.46,2.4,5.09,1.63,8-.28,1.06,.21,1.41,1.09,1.51,.75,.08,1.52,.13,2.27,.1,2.94-.1,5.89-.07,8.8-.4,2.51-.29,5-.93,7.45-1.58,1.12-.3,2.17-.95,3.19-1.54,.26-.15,.47-.7,.42-1.02-.3-1.93-1.49-3.41-2.58-5.25l-.82,2.19c-1.14-.45-1.31-.71-1.11-1.49,.29-1.12,.63-2.22,.84-3.35,.38-1.99,.81-3.99,.98-6,.1-1.16-.36-2.35-.43-3.53-.12-2.05-.14-4.11-.19-6.17,0-.1,.08-.21,.24-.58,1.5,3.35,.92,6.75,1.97,10.05,1.33-1.17,2.52-2.22,3.72-3.27l.32,.24c-.19,.36-.29,.85-.58,1.07-2.41,1.81-3.8,4.12-4.45,7.11-.38,1.75,.18,3.15,1.03,4.21,1.64,2.03,2.84,4.06,2.38,7.02,.49-.23,.95-.31,1.06-.55,.13-.27-.05-.69-.1-1.04,1.15,1.29,2.47,1.87,4.3,1.62-.61-.81-1.14-1.51-1.68-2.21,.62,.32,1.03,.83,1.52,1.26,.43,.38,.91,.8,1.44,.97,1.58,.5,3.19,.91,4.81,1.29,.6,.14,1.25,.12,1.88,.17l-.3-1.62-.02,.02Zm41.22,42.69c.19,.02,.57,.07,.96,.08,6.54,.11,13.09,.22,19.63,.3,4.24,.05,8.47,.03,12.71,.07,4.15,.04,8.3,.13,12.45,.17,1.32,.01,2.64-1.32,2.56-2.47-.19-2.8-.52-5.61-.51-8.41,.01-1.95,.39-3.93,.82-5.85,.43-1.91,1.49-2.17,2.71-1.01,1.72-.3,3.32-.6,4.93-.84,1.23-.18,2.38,1.22,2.05,2.4-.12,.45-.15,.92-.25,1.61,.94-.48,1.17-2.06,2.46-.87-.75,1.16-1.47,2.34-2.28,3.45-.17,.24-.72,.34-1.04,.27-.17-.03-.34-.6-.3-.9,.07-.63,.22-1.26,.44-1.85,.32-.85,.64-1.61-.68-1.86-.17-.03-.38-.32-.42-.52-.15-.83-.66-.75-1.26-.58-.5,.14-1.03,.19-1.51,.37-2.51,.97-4.68,2.24-4.71,5.4,0,.59-.26,1.18-.26,1.77,0,2.04,.07,4.09,.12,6.13l.39,.04c.23-.26,.46-.52,.69-.79,.75-.92,1.47-.88,1.72,.26,.29,1.33,1.81,2.5,.28,4.19,.9,.07,1.48,.14,2.06,.15,4.94,.11,9.89,.18,14.83,.34,2.5,.08,2.73-.1,2.32-2.64,0-.04-.04-.07-.05-.1-1.68-.33-3.36-.67-5.04-1,1.82-.46,1.87-.45,2.02-2.28,.08-.96-.05-1.93-.03-2.9,.02-1.11,.06-2.22,.14-3.32,.08-.95,.45-1.93,.32-2.84-.48-3.44,0-6.56,2.46-9.2,.73-.78,.66-1.67,.43-2.53-2.02,2.12-3.96,4.25-6,6.29-1.37,1.37-2.65,1.41-4.48,.66-1.07-.43-2.29-.83-3.41-.75-1.81,.14-3.59,.69-5.38,1.05-.39,.08-.79,.07-1.19,.1,.09-.36,.22-.52,.38-.57,1.95-.55,3.89-1.24,5.88-1.56,1.15-.19,2.51-.06,3.57,.4,1.4,.61,2.32,.85,3.5-.17,1.75-1.51,3.5-3.03,5.06-4.71,.91-.99,1.9-2.24,2.1-3.49,.37-2.38,.17-4.84,.27-7.26,.03-.83-.32-1.03-1.06-1.03-1.99,0-3.99-.04-5.98-.07-10.23-.15-20.45-.3-30.68-.44-1.86-.03-3.73,0-5.92,0,.5,.64,.83,1.04,1.15,1.45l-.19,.22c-.3-.24-.76-.42-.86-.72-.31-.91-.96-1.04-1.78-1.05-3.43-.05-6.86-.13-10.29-.19-.96-.02-1.92,0-2.88,0l-.06,.44c.36,.21,.74,.39,1.09,.62,.69,.46,1.42,.89,2.02,1.46,.22,.21,.09,.78,.12,1.19-.36-.05-.76-.02-1.08-.16-.93-.4-1.8-.98-2.75-1.27-1.22-.36-2.14-.82-1.9-2.33h-10.1c2.11,2.17,4.04,4.06,5.84,6.05,1.94,2.15,4.06,4.23,5.54,6.68,1.35,2.24,2.14,4.88,2.81,7.44,.73,2.77,1.89,5.27,3.44,7.65,.88,1.35,1.78,2.75,1.64,4.48-.09,1.07-.25,2.12-1.37,2.74-1.15,.64-2.04,.26-2.91-.5-.17-.15-.38-.23-.67-.4-.08,.32-.19,.53-.18,.74,.03,1.2-.7,1.73-1.73,1.57-.67-.1-1.47-.52-1.85-1.06-1.13-1.63-2.57-2.78-4.44-3.56-.19,.38-.4,.76-.59,1.15-.71,1.45-1.68,1.73-2.97,.76-.62-.47-1.1-1.13-1.69-1.66-.21-.19-.56-.24-.84-.35l-.39,.59,1.76,1.01-.34,.41-1.94-1.2c.21,1.86,.39,3.41,.59,5.12Zm-2.62-106.66c1.24,1.36,2.41,2.53,3.43,3.81,.66,.83,1.09,1.84,1.67,2.75,1.22,1.91,2.65,3.7,3.64,5.71,.97,1.98,1.74,4.14,2.14,6.3,.43,2.35,.94,4.8,.24,7.22-.67,2.27,.43,5.09-2.47,6.73-.83,.47-1.28,1.5-2.5,1.07-.2-.07-.47,.08-.7,.11-.95,.13-1.89,.31-2.84,.35-1.71,.07-1.77,.09-1.58,1.75,.03,.3,.18,.58,.27,.85,.48-.18,.87-.42,1.28-.47,3.03-.39,6.06-.74,9.09-1.11,2.01-.25,4.03-.53,6.04-.77,1.09-.13,2.21-.38,3.28-.26,.51,.05,1.3,.81,1.33,1.29,.05,.79-.71,.8-1.43,.68-.57-.09-1.19,.02-1.77,.1-1.1,.16-2.19,.39-3.3,.54-3.66,.49-7.32,.98-10.99,1.4-1.13,.13-2.29,.02-3.45,.02,0,1.75-.02,3.65,.02,5.54,0,.29,.31,.81,.5,.83,1.73,.1,3.75,.69,5.14,.01,2.72-1.33,5.57-1.06,8.34-1.54,2.16-.37,4.44-.12,6.66-.13,1.42,0,2.85-.05,4.26,.1,1.28,.13,1.41,.14,1.15-1.06-.68-3.18,.54-5.71,2.7-7.89,.44-.44,1.01-.97,1.56-1.03,.52-.06,1.1,.45,1.64,.71,.38-1.05-.86-2.2,.04-3.37,1.11,.73,1.39,1.75,1.52,2.83,.08,.71-.07,1.46,.12,2.14,.27,1-.12,1.54-.85,2.12-.87,.69-1.72,1.44-2.41,2.3-.72,.9-.81,2-.4,3.05,1.53-.36,2.93-.74,4.36-1.02,.87-.17,1.24-.64,1.13-1.47-.11-.77-.33-1.47-1.31-1.59-.29-.04-.55-.36-.9-.6,.77-.72,1.49-.85,2.06-.25,.69,.72,1.31,1.55,1.77,2.44,.51,1,1.32,1.49,2.41,1.05-.14-.15-.29-.26-.37-.41-.08-.17-.1-.37-.14-.55-.41-2.4-1.6-4.1-4.1-4.7-.23-.05-.51-.43-.53-.68-.09-1.05-.11-2.1-.11-3.16,0-.38,.14-.76,.23-1.24,1.13,.56,1.2,1.45,1.39,2.3,.1,.43,.22,1,.54,1.21,2.42,1.62,3.63,3.98,4.33,6.83,1.11-.6,2.26-1.02,3.47-.16,.2,.14,.63,.01,.93-.07,1.18-.33,2.34-.9,3.54-.99,1.86-.14,3.76-.08,5.62,.13,1.08,.12,1.2-.22,1.22-1.11,.03-1.02,.17-2.04,.35-3.05,.24-1.32,.68-2.62,.81-3.95,.14-1.48,.03-2.98,.03-4.38-1.43-1.02-4.46-.45-6,1.07-1.24-1.06-2.25-2.28-2.26-3.98-.01-1.22,.3-2.43,.32-3.65,.04-1.9-.02-3.81-.08-5.71-.07-2.37,.08-4.79-.33-7.1-.41-2.28-.78-4.77-3.06-6.22-.22-.14-.32-.56-.36-.86-.14-1.35-1.12-1.98-2.22-2.18-3.02-.56-6.07-1.01-9.13-.32-.47,.11-.91,.32-1.61,.57,.7,.51,1.24,.79,1.62,1.21,2.94,3.27,5.64,6.7,6.54,11.18,.22,1.09,.46,2.19,.86,3.22,1.11,2.84,1.66,5.79,1.8,8.8,.06,1.22-.35,2.49-.7,3.7-.17,.57-.7,1.04-1.07,1.55l-.4-.18c.03-.4,0-.82,.11-1.19,.87-2.78,.2-5.53-.23-8.24-.3-1.9-1.1-3.72-1.57-5.6-.71-2.81-1.47-5.59-3.19-7.99-.6-.84-1.17-1.71-1.85-2.49-.58-.66-1.3-1.21-1.95-1.81l-.23,.24c1.96,2.54,3.21,5.43,4.27,8.42,.68,1.91,1.32,3.84,1.9,5.78,.8,2.64,1.55,5.3,1.43,8.09-.04,.79-.32,1.64-.71,2.33-.33,.58-.42,1-.02,1.5,.74,.92,1.08,1.91,.71,3.1-.14,.45-.05,.97-.21,1.41-.15,.41-.49,.75-.75,1.12-.21-.39-.46-.75-.6-1.16-.07-.19,.09-.45,.14-.69,.52-2.67-1.62-4.81-4.23-4.25-.31,.07-.65,.15-.94,.09-2.89-.58-4.29,1.85-6.25,3.12-.18,.11-.19,.58-.17,.87,.06,1.31,.23,2.61,.2,3.91,0,.4-.52,.8-.8,1.2-.31-.4-.85-.77-.89-1.19-.13-1.18-.04-2.38-.09-3.57-.02-.44-.18-.88-.31-1.45-.55,.28-.91,.57-1.32,.67-.95,.23-1.93,.43-2.9,.49-.24,.01-.52-.56-.78-.86,.33-.16,.65-.43,.99-.46,1.35-.14,2.7-.22,3.78-1.22,.22-.21,.66-.37,.93-.3,1.17,.3,2.05-.06,2.28-1.16,.17-.82,.64-1.15,1.37-1.26,2-.3,3.99-.64,6-.84,.72-.07,1.5,.12,2.22,.31,.85,.22,1.31-.05,1.23-.94-.1-1.18-.18-2.37-.43-3.52-.48-2.16-.99-4.32-1.67-6.43-.7-2.17-1.57-4.29-2.48-6.39-.68-1.56-1.51-3.07-2.32-4.57-.66-1.23-1.85-.57-2.73-.54-2.19,.06-4.36,.43-6.55,.62-.9,.08-1.51,.27-1.06,1.49-.81-1.4-1.99-1.06-3.09-.93-.7,.08-.81,.42-.32,.95,.44,.48,.87,.96,1.31,1.44l-.18,.18-2.56-2.22c-.11,.42-.19,.54-.16,.64,.06,.27,.14,.54,.25,.8,2.61,5.64,2.78,11.61,2.54,17.67-.06,1.41,.25,2.84,.36,4.27,.03,.42-.01,.85-.03,1.27l-.56,.05c-.24-.69-.63-1.37-.69-2.07-.22-2.68-.44-5.36-.47-8.05-.05-4.35-.62-8.58-2.39-12.58-.17-.38-.5-.68-.76-1.02-.38-.48-.83-.92-1.12-1.44-.73-1.29-1.46-2.74-3.04-2.91-2.02-.22-4.08-.05-6.12-.05l.18,.31-1.25,1.03-1.04-1.31,.22-.22-3.41-.76Zm-114.33-15.12c-1.04-.58-1.91-1.05-2.76-1.54-2.66-1.52-5.36-2.98-7.95-4.61-1.4-.88-2.63-2.03-3.87-3.13-.27-.24-.29-.78-.38-1.2-.1-.45-.14-.9-.2-1.36-.04-.29-.18-.67-.05-.86,1.19-1.89,2.34-3.88,4.48-4.84,2.14-.96,4.32-1.83,6.53-2.6,1.29-.45,2.68-.81,4.03-.88,2.67-.12,5.39,.2,7.92-1.36-.32-.67-.64-1.39-1-2.09-1.15-2.21-1.15-2.17-3.59-1.86-2.41,.3-4.83,.71-7.24,.72-3.73,.02-7.26,.56-10.34,2.8-2.05,1.49-4.05,3.04-6.05,4.54,.02,.05-.05-.18-.2-.65-1.85,2.11-3.71,3.97-5.27,6.07-1.53,2.07-2.93,4.28-4.07,6.6-1.62,3.31-2.99,6.75-4.37,10.18-.19,.47,.1,1.22,.35,1.76,.31,.7,.99,1.26,1.17,1.97,.68,2.72,1.23,5.48,1.82,8.22,.24,1.11,1.04,1.57,2.45,1.99-1.45-2.94-2.58-5.66-2.28-8.93,.18,.56,.33,.93,.41,1.32,.16,.82,.14,1.7,.43,2.47,.63,1.66,1.47,3.24,2.08,4.91,.28,.76,.6,.93,1.49,.62-.5-1.7-1.07-3.34-1.45-5.03-.38-1.69-.56-3.42-.82-5.13l.55-.09c.13,3.76,1.32,7.23,2.44,10.71l.57-.11c-.09-.55-.2-1.1-.26-1.65-.03-.25-.04-.62,.1-.72,.17-.12,.57-.1,.74,.03,.33,.25,.6,.61,.85,.95,.23,.32,.41,.69,.61,1.03l.46-.17-1.43-5.02,.31-.08c.25,.9,.47,1.82,.77,2.7,.37,1.07,.56,2.35,1.28,3.12,.66,.7,1.51-.2,2.29-.66,1.12-.65,1.66-1.13,1.51-2.35-.05-.41,0-.85,.08-1.27,.12-.71,.33-1.41,.44-2.13,.05-.35-.05-.73-.08-1.09,.34,1.73,.2,3.68,2.84,4.14l-.3-3.13c.21,.74,.33,1.49,.55,2.21,.11,.37,.41,.68,.62,1.01,.41-.31,.95-.55,1.2-.96,.28-.46,.3-1.08,.42-1.53l.5,1.11c.38-.17,.89-.24,1.11-.53,.64-.85,1.3-1.74,1.7-2.72,.26-.64,.16-1.46,.08-2.19-.03-.23-.51-.56-.81-.58-.51-.04-1.03,.14-1.57,.22q-.32-1.51,1.54-2.11c.54-.18,1.17-.27,1.6-.6,1.07-.82,1.66-2,1.61-3.33-.02-.56-.5-1.32-.99-1.6-1.42-.82-4.85-.07-6.04,1.07-.38,.37-1.05,.77-1.49,.69-1.87-.35-3.71-.84-5.54-1.35-.37-.1-.95-.52-.92-.72,.06-.39,.44-.76,.75-1.07,.18-.18,.51-.2,.77-.31,.88-.36,1.77-.7,2.64-1.1,.19-.09,.38-.42,.37-.63-.1-1.45-1.09-2.12-2.47-1.64-.5,.18-.94,.58-1.36,.93-1.01,.82-2.05,.79-2.79-.26-1.41-2.01-1.14-4.29-.89-6.54,0-.03,.13-.05-.08,.03,.34,1.6,.6,3.26,1.1,4.86,.12,.39,1.04,.8,1.52,.72,.49-.08,1.1-.67,1.25-1.16,.16-.51,.36-1.28-.62-1.68-.47-.19-.96-1.06-.94-1.59,.14-2.83,1.46-5.18,3.42-7.16,.27-.27,.87-.21,1.32-.3l.04,.32c-2.22,1.08-4.15,5.61-2.98,7.8,.19-.18,.29-.44,.39-.7,1.04-2.62,2.81-4.69,4.97-6.45,.29-.24,.7-.34,1.18-.55-2.28,2.77-5.36,4.75-4.67,8.87,.13,.76,.36,1.14,.86,1.64,.86,.85,1.68,1.82,2.27,2.87,.57,1.02,.18,1.56-.93,1.97-.55,.2-1.05,.5-1.58,.76l.09,.52c.71,.07,1.69,.47,2.07,.15,.79-.67,1.73-.49,2.52-.88,2.03-1.01,4.13-.87,6.19-.29,.62,.17,1.36,.85,1.56,1.45,.49,1.48,.47,3.15-.54,4.36-1.12,1.34-1.13,2.65-.65,4.4l6.64-9.75Zm52.78-3.04c.77-.28,1.53-.51,2.25-.81,2.42-1,2.93-3.1,1.01-4.89-3.32-3.09-6-6.66-8.35-10.5-.38-.62-1.04-1.08-1.6-1.6-.73-.67-1.51-1.29-2.21-1.99-1.57-1.56-3.06-3.21-4.67-4.73-1.27-1.2-2.67-2.26-4.01-3.38-1-.84-2.11-1.65-3.45-1.04-1.87,.85-3.68,1.85-5.46,2.9-2.33,1.38-4.52,3.02-6.92,4.27-4.8,2.51-9.73,4.77-14.53,7.27-3.58,1.87-7.37,3.05-11.3,3.69-2.33,.38-4.15,1.53-6.02,2.72-.31,.19-.5,.57-.76,.87l3.03,2.82,.09-1.03,1.73,2.35,.4-.27c.59-1.75-1.04-2.36-1.93-3.47,.52,0,1.07,.09,1.24,.39,.63,1.1,1.3,2.21,1.62,3.42,.28,1.04,.88,1.21,1.81,1.47-.11-2.52-.94-4.67-1.82-6.87,.32,.11,.71,.25,.79,.5,.63,1.92,1.33,3.84,1.74,5.81,.28,1.33,.34,1.61,1.99,1.75-.09-2.84-1.03-5.46-1.72-8.16,.58,1.08,1.05,2.19,1.36,3.35,.39,1.46,.6,2.97,.99,4.44,.29,1.08,.88,1.31,1.58,.85l.73,1.88c.3-.64,.48-1.03,.67-1.41,.14-.27,.26-.74,.44-.76,1.15-.16,.92-.99,.92-1.72,0-.4,0-.79,0-1.19h.25l.37,1.67q1.6-1.73,.35-3.42c-.23-.31-.43-.63-.83-1.21v2.1h-.33c-.1-1.71-.2-3.42-.3-5.13l.17-.02,.41,2.27c.97-.46,1.8-1.06,2.73-1.27,2.62-.6,5.26-1.1,7.92-1.54,4.28-.71,8.55-1.46,12.86-1.96,2.97-.34,5.94-.19,8.81,1.03,1.48,.63,3.16,.78,4.68,1.33,1.28,.46,2.52,1.1,3.66,1.84,1.48,.95,2.87,2.05,4.25,3.15,.24,.19,.4,.66,.38,1-.06,1.5-.2,2.99-.29,4.48-.03,.51,0,1.02,0,1.78,2.07-1.34,1.23-3.36,1.97-4.88v3.53q2.3-.97,2.6-3.43l.71,1.76Zm97.04,86.59l-.04,.29c.35,.06,.7,.16,1.05,.17,1.16,.03,2.32,.02,3.47,.04,8.54,.14,17.08,.3,25.61,.43,2.47,.04,4.95,.05,7.43,.02,1.1-.02,1.64,.36,1.56,1.53-.07,1.11-.05,2.24-.06,3.36,0,.8,0,1.61,0,2.41l.37,.06c.24-.48,.43-.99,.73-1.42,.18-.26,.53-.41,.8-.61,.13,.28,.27,.55,.38,.84,.18,.43,.34,.87,.51,1.31h.44c.59-1.42,1.13-2.86,1.78-4.25,.25-.53,.86-1.39,1.12-1.33,.65,.16,1.37,.64,1.74,1.2,.75,1.16,1.28,2.47,1.93,3.7,.83,1.56,1.68,3.1,2.53,4.65l.44-.1c-.12-1.6-.21-3.21-.37-4.81-.25-2.37-1.08-4.54-2.18-6.66-.97-1.87-.71-2.89,.72-3.77-.74-.7-1.54-1.31-2.14-2.07-1.24-1.56-2.6-2.71-4.78-2.14-.29,.08-.64-.02-.95-.05-1.33-.13-1.68-.82-1.04-2.04,.34-.65,.72-1.27,1.25-2.2-1.84,.72-3.51,1.11-4.88,1.97-1.54,.96-2.82,2.35-4.22,3.55-.22,0-.14,.24-.18,.46-.06,.36-.15,.99-.31,1.01-.41,.06-.88-.1-1.29-.25-.21-.07-.45-.29-.51-.49-.38-1.23-1.43-1.33-2.41-1.34-1.02-.01-2.06,.16-3.08,.33-2.22,.36-4.42,.32-6.29-1.02-.83-.59-1.44-.59-2.32-.3l.38,1.34-.33,.18c-.14-.26-.37-.52-.39-.8-.05-.82-.52-.83-1.07-.58-.63,.29-1.3,.58-1.79,1.04-1.54,1.45-3.03,2.95-4.48,4.48-.78,.83-1.61,.78-2.02-.3-.24-.62-.38-1.31-.43-1.98-.13-1.55-.1-3.12-.3-4.65-.23-1.73-.64-3.44-.97-5.16l-.45,.08c.03,.54,.03,1.09,.1,1.63,.29,2.31-.36,4.43-1.36,6.44-.22,.45-1.06,.99-1.44,.89-.5-.14-.87-.86-1.23-1.37-.25-.36-.38-.8-.57-1.2l-.43,.07c0,1.34,.02,2.68,0,4.02-.02,.71-.05,1.28,.86,1.56,.34,.11,.48,.88,.72,1.34-.37,.15-.73,.3-1.11,.43-.16,.06-.33,.06-.5,.09Zm-39.14-24.15l.33-.07c.1,.11,.23,.2,.29,.33,.86,1.92,.88,3.94,.62,5.97-.13,1.05-.61,2.12-.46,3.11,.27,1.79,.88,3.54,1.39,5.29,.06,.2,.37,.32,.8,.66,.21-1.39,.43-2.53,.55-3.68,.19-1.81,.49-3.64,.43-5.45-.16-4.71-.51-9.41-.75-14.11-.13-2.52-.38-2.87-2.97-3.57v5.42l1.11,.52c-.34,.32-.66,.66-1.01,.96-.32,.28-.67,.53-.88,.69-.5-.15-.91-.25-1.3-.4-.7-.27-1.4-.54-2.07-.87-.16-.08-.23-.36-.34-.55,.24-.11,.49-.33,.7-.3,.46,.08,.89,.34,1.35,.44,.67,.14,1.35,.22,1.16-.86-.15-.84-.35-1.69-.39-2.53-.09-1.94-.1-3.89-.15-5.84-.09-3.59-1.87-6.69-2.99-9.98-.18-.52-.74-.91-1.15-1.34-1-1.07-1.98-2.15-3.04-3.17-.61-.59-1.04-1.54-2.33-1.39,2.3,4.42,5.18,8.39,6.84,13-.88-1.35-1.59-2.81-2.41-4.19-1.84-3.11-3.72-6.2-5.6-9.29-.84-1.38-2.28-1.34-4-1.64,1.36,2.25,2.59,4.17,3.7,6.15,1.11,1.97,2.1,4,3.15,6,1.04,1.97,2.09,3.93,3.14,5.9l-.27,.13c-.98-1.71-2.06-3.37-2.92-5.14-1.97-4.03-3.96-8.04-6.67-11.64-.98-1.3-1.66-1.57-3.16-.98,2.03,2.91,4.15,5.72,6,8.7,1.86,3.01,3.45,6.2,5.15,9.31l-.13,.06c-3.91-5.96-7.83-11.92-11.72-17.85-1.08,.44-1.81,.8-1.23,1.78,.81,1.37,1.67,2.71,2.56,4.03,1.58,2.37,3.31,4.65,4.73,7.11,.96,1.65,1.46,3.56,2.24,5.33,.76,1.75,1.53,3.51,2.44,5.18,.76,1.39,1.77,2.63,2.63,3.97,.72,1.11,1.41,2.18,2.84,2.56,.79,.21,1.54,.69,2.21,1.18,.29,.21,.49,.77,.45,1.14-.15,1.29,.82,2.03,1.13,3.08l.33-.09c-.12-1.02-.24-2.05-.36-3.07Zm-10.96-38.79l-.1,.43c.67,.28,1.31,.66,2,.82,2.66,.62,4.5,2.29,5.93,4.51,1.03,1.6,2.11,3.18,3.1,4.81,2.3,3.8,4.01,7.76,3.19,12.38-.16,.88-.66,2.06,.89,2.4,.09,.02,.18,.27,.17,.4-.03,1.22,.83,1.18,1.64,1.14,.75-.04,1.5-.19,2.25-.24,2.11-.14,2.73-.74,2.82-2.81,.02-.44,.11-.87,.09-1.31-.09-2.15,.06-4.35-.37-6.42-.75-3.57-1.85-7.01-3.9-10.18-1.35-2.1-2.99-3.87-4.57-5.73-.16-.19-.49-.25-.81-.41l.15,.89c-1.32-1.82-3.37-2.3-4.72-1.22l.67,.71c-2.86-1.64-5.64-.43-8.43-.18Zm13.25,66.39l.39,.06c-.2,.1-.43,.17-.58,.32-.31,.3-.83,.64-.83,.97,0,.6,.13,1.5,.53,1.75,2.92,1.8,4.73,4.53,6.12,7.49,2.04,4.35,3.82,8.83,5.76,13.23,.3,.68,.82,1.77,1.26,1.78,1.74,.03,2.51,1.37,3.63,2.24,.21,.17,.49,.39,.71,.37,1.42-.13,2.12,.88,2.95,1.73,.24,.24,.53,.52,.84,.58,.24,.04,.6-.18,.78-.39,.11-.14,.06-.59-.07-.7-1.03-.81-2.01-1.76-3.17-2.31-2.38-1.14-3.77-3.07-4.99-5.19,1.35,1.2,2.68,2.46,4.09,3.63,1.41,1.16,2.89,2.24,4.34,3.35l.31-.1c-.11-.57-.04-1.33-.38-1.65-.42-.39-1.19-.41-1.56-.52-.39-.8-.72-1.51-1.08-2.2-.2-.38-.72-.79-.65-1.09,.4-1.78-.76-2.78-1.81-3.82-.93-.92-1.94-1.76-2.88-2.66-.22-.21-.32-.54-.48-.82l.2-.13,3.16,2.94,.41-.26-1.86-4.89c.07-.19,.24-.42,.2-.6-.48-1.8-1.64-3.15-3.05-4.27-1.36-1.09-2.84-2.04-4.19-3.14-1.09-.89-2.07-1.9-3.1-2.86l.2-.2,6.68,5.21,.24-.28c-.83-.94-1.56-2-2.52-2.78-1.89-1.55-3.52-3.46-5.88-4.41-.62-.25-1.24-.57-1.78-.96-.24-.17-.27-.62-.4-.94,.31,.08,.65,.08,.91,.24,.64,.38,1.23,.82,1.85,1.24-1.22-2.86-1.8-3.22-4.41-2.83l.13,2.88Zm50.29-14.98l.14-.14c.23,.2,.46,.39,.69,.6,.81,.76,1.78,.67,2.41-.23,.07-.11,.2-.27,.28-.26,2,.19,3.06-1.41,3.18-2.95,.31-3.87,.51-7.74,.75-11.62,.01-.23-.05-.46-.08-.69-.56-.12-1.06-.3-1.56-.31-1.57-.06-3.15-.15-4.72-.03-1.05,.08-2.05,.57-3.1,.75-.73,.13-.99,.39-.74,1.11,.23,.68,.44,1.37,.6,2.07,.49,2.09,.25,2.37-1.86,3.02-1.35,.42-2.64,1.04-3.8,1.51,.78,3.65,1.51,7.04,2.25,10.46l2.81-.24c-.87-1.27-1.54-2.26-2.22-3.25l.27-.19c.44,.6,.85,1.23,1.33,1.79,.38,.44,.93,1.2,1.26,1.13,1.09-.24,2.12-.78,3.29-1.25l-1.17-1.29Zm1.27-54.23l-.22,.29c.11,.49,.09,1.06,.34,1.46,1.02,1.6,.92,3.41,1.01,5.17,.12,2.17,.07,4.35,.14,6.52,.05,1.74,.25,3.48,.23,5.21-.02,1.55-.24,3.11-.39,4.85,1.01-.14,1.67-.25,2.33-.32,1.17-.13,2.35-.33,3.52-.32,1.66,0,1.81,.06,1.63-1.64-.35-3.27-.83-6.53-1.35-9.78-.27-1.67-.51-3.4-1.17-4.93-.75-1.76-1.78-3.47-3.01-4.94-.68-.81-2.03-1.07-3.07-1.58Zm-53.29,28.24l.4,.04c.08-.39,.19-.79,.24-1.19,.13-.98,.13-1.99,.36-2.94,.69-2.92-.67-5.36-1.82-7.8-.72-1.52-2.03-2.77-2.76-4.29-1.96-4.12-5.59-6.18-9.52-7.73-1.59-.63-3.53-.57-5.3-.49-2.15,.1-4.27,.88-5.64,2.54-1.6,1.93-2.77,4.2-4.13,6.32,1.48,.51,1.14,.71,2.65-1.23,1.68-2.14,3.51-3.94,6.47-4.34,3.93-.53,7.39,.75,10.04,3.22,2.66,2.48,5.77,4.86,6.79,8.73,.52,1.95,1.24,3.85,1.75,5.81,.28,1.08,.31,2.23,.46,3.34Zm79.34,45.97c-2.21,1.92-1.79,4.23-1.84,6.37-.12,5.7-.12,11.41-.17,17.11,0,1.02,0,2.05,0,3.29,1.59-.41,2.81-.95,3.92-1.82,.74-.58,.9-1.19,.67-2.07-.41-1.58-.83-3.17-1.07-4.78-.3-2.04-.46-4.1-.63-6.15-.08-.87-.22-1.79-.04-2.62,.6-2.86,1.33-5.69,1.99-8.54,.2-.88,.36-1.77,.53-2.66-.33,.28-.53,.57-.68,.89-.15,.32-.24,.67-.37,1.01-.52,1.35-1.01,1.47-2.04,.52-.14-.13-.18-.36-.27-.54Zm-31.58-30.74c.14-3.83-.59-3.94-3.34-2.87-1.55,.6-3.08,1.28-4.67,1.75-2.4,.71-4.87,1.17-7.26,1.91-1.97,.61-1.93,.73-1.52,2.71,.14,.66,.16,1.35,.34,2,.08,.27,.44,.67,.65,.66,1.06-.05,2.22,.02,3.15-.39,4.27-1.85,8.47-3.85,12.64-5.78Zm52.96,56.81l.07-.57c-.3-.12-.59-.27-.9-.35-1.19-.34-2.36-.78-3.57-.96-1.95-.29-3.93-.46-5.9-.54-.67-.03-1.55,.18-2,.63-1.28,1.29-2.88,.98-4.16,.62-1.29-.37-1.18,.39-1.45,.92-.25,0-.5-.07-.69,.01-1.45,.6-2.89,1.23-4.32,1.87-.2,.09-.5,.27-.5,.42-.04,1.6-.02,3.2-.02,4.93,1.25-.62,2.3-1.14,3.36-1.68,2.82-1.43,6.05-2.05,8.44-4.35,1.1-1.06,2.48-1.03,3.94-.76,1.32,.25,2.7,.36,4.04,.33,1.23-.03,2.45-.34,3.68-.52Zm-96.98-37.62c.37,.65,.64,1.04,.81,1.47,.49,1.22,1.29,1.68,2.67,1.64,2.59-.09,5.19-.01,7.77,.14,1.69,.1,2.17-.05,2.99-1.69-.23-.07-.46-.13-.68-.19-1.23-.34-2.48-.62-3.67-1.04-1.65-.58-1.86-1.68-.65-2.89,.28-.28,.58-.54,.86-.82,.69-.7,1.38-1.41,2.06-2.11l-.31-.47c-.52,.18-1.11,.26-1.54,.56-1.1,.78-2.15,1.63-3.17,2.51-.78,.67-1.44,.81-2.01-.19,.71-1.76,3.1-2.43,3.04-5.06-.78,1.03-1.24,1.97-1.98,2.54-1.12,.87-2.16,1.62-1.4,3.24,.01,.03-.08,.1-.17,.22l-.93-1.52-.64,1.8c-1.66-.31-1.51,1.89-3.07,1.88Zm9.03-34.42c0-1.33-.12-2.7,.02-4.05,.31-2.88,.08-5.72-.53-8.52-.32-1.45-.63-3-1.37-4.25-2.03-3.45-4.29-6.76-6.46-10.12-.27-.42-.51-.96-.9-1.2-.93-.57-2.03-.89-2.92-1.51-1.05-.74-1.94-.48-2.85,.11-.19,.12-.43,.45-.39,.61,.08,.26,.34,.58,.58,.63,.41,.08,.86-.07,1.29-.03,.64,.05,1.47-.04,1.86,.31,1.52,1.39,3.09,2.78,4.28,4.44,2.1,2.95,3.72,6.21,4.67,9.73,.57,2.13,1.15,4.29,1.38,6.47,.22,2.07,.03,4.2-.05,6.3-.03,.84,.2,1.2,1.39,1.08Zm64.16,54.24l-.57-.14c-.41,1.46-.99,2.91-1.18,4.4-.57,4.5-.99,9.02-1.45,13.54-.02,.24,.09,.69,.19,.71,.81,.11,1.65,.23,2.45,.13,.18-.02,.35-.87,.37-1.34,.09-3.58,.15-7.17,.19-10.75,.03-2.18,0-4.36,0-6.55ZM146.25,2.44c-.34-.64-.82-.99-1.61-.63-.75,.35-1.49,.71-2.24,1.06-3.41,1.6-6.85,3.14-10.23,4.82-1.25,.62-2.37,1.54-3.52,2.36-1.34,.95-2.64,1.95-3.96,2.92-.19,.14-.46,.24-.57,.43-.16,.26-.2,.59-.3,.9,.32,.02,.71,.17,.95,.03,4.61-2.66,9.18-5.4,13.82-8.01,2.46-1.39,5.04-2.56,7.66-3.88Zm66.41,155.96c-2,4.1,.67,6.85,2.02,9.95,.34-1.57,.54-3.14,.81-4.71,.07-.4,.27-1.03,.52-1.08,.43-.09,.97,.11,1.41,.31,.31,.14,.52,.49,.82,.69,.89,.58,1.79,1.13,2.69,1.69l.22-.32c-.1-.16-.16-.35-.29-.46-1.99-1.73-3.95-3.51-6.01-5.16-.62-.5-1.52-.64-2.19-.91Zm54.23-55.91c-1.47,.55-2.56,.92-3.59,1.39-.2,.09-.32,.59-.3,.89,.1,2.67,1,5.13,2.08,7.54,.07,.15,.26,.24,.45,.4,2.35-3.13,.59-6.63,1.37-10.22Zm-51.67,55.96l-.29,.59c1.52,.8,3.04,1.58,4.54,2.42,.37,.21,.94,.64,.91,.91-.14,1.1,.5,1.42,1.41,1.7,.23-1.1,.17-2.36,.75-3.14,.58-.77,1.81-1.05,3.02-1.68-2.46-1.1-4.79-.43-6.96-.58l-.6,1.2c-.35-.21-.69-.45-1.06-.63-.57-.28-1.15-.53-1.73-.8ZM117.04,17.72l-.1-.48c-2.22,.23-4.47,.32-6.67,.71-2.31,.41-3.85,2.24-5.68,3.57,4.38-.61,8.66-1.44,12.45-3.8Zm110.6,139.89c1.25-2.67,.33-5.75-1.77-7.01-.43-.26-.75-.7-1.13-1.05-.95-.85-1.91-1.69-2.87-2.53l-.43,.39c2.03,3.33,4.05,6.65,6.21,10.19Zm20.38-40.87c-.14,.48-.27,.77-.31,1.07-.35,2.37-.81,2.61-3.02,1.72-.26-.1-.68,.18-1.02,.29l.13,.45h10.68c-2.08-1.09-.79-3.7-2.52-5.29-.15,1.34-.26,2.36-.37,3.38-.5,.16-1,1.49-1.94,.59-.59-.56-.99-1.32-1.63-2.2ZM156.28,10.99l.52-.53c-1.37-2.93-7.08-8.4-8.82-8.3,.17,.58,.17,1.3,.53,1.66,.92,.91,2.01,1.66,3.02,2.48,1.41,1.15,2.82,2.3,4.18,3.5,.3,.27,.39,.78,.57,1.18Zm100.12,83.11l.34-.09c.05-.18,.14-.36,.13-.54-.06-1.69,.65-2.88,2.01-3.93,1.02-.79,2.44-1.65,1.79-3.49-.5,.36-.94,.78-1.46,1.01-2.47,1.06-3.3,3.09-3.32,5.57,0,.49,.34,.99,.52,1.48Zm14.7,22.12c1.21-.93,2.17-1.61,3.06-2.38,.54-.46,.51-1.08-.24-1.21-.84-.15-1.73-.11-2.59-.04-.27,.02-.73,.44-.71,.66,.06,.89,.27,1.77,.48,2.97Zm-65.39-43.94l.29-.24c-1.64-2.08-3.28-4.15-4.92-6.23-.46,1.38,2.61,5.3,4.63,6.47Zm36.51,83.02c.91-1.99-1.08-4.61-3.62-4.99,1.25,1.73,2.36,3.25,3.62,4.99ZM99.48,23.54l.38,.51,3.88-2.06-1.25-1.95-3,3.5Zm123.9,78.93c.27-1.82-2.54-7.05-3.82-7.28,1.31,2.51,2.56,4.89,3.82,7.28Zm57,53.46c-.58,.87-1.47,1.63-.81,2.75,.15,.26,1.17,.38,1.37,.17,1.05-1.1,.08-1.97-.55-2.92Zm-88.16-33.02l.39,.19,1.61-1.89c-.6-.46-.97-1.41-2-1v2.71ZM121.65,13.18l2.23-1.93-3.26-.7,1.03,2.63Zm47.24,12.08c-.45-1.97-3.44-5.42-4.52-5.44l4.52,5.44Zm83.01,74.69c.5,1.49,.95,2.81,1.4,4.13,.66-1.43-.13-3.68-1.4-4.13Zm-96.76-55.25c.81,.64,1.38,1.13,2.02,1.54,.09,.06,.64-.31,.64-.47,0-.54-1.58-1.32-2.66-1.07Zm72.77,67.02l.31,2.73c1.54-.6,1.41-.81-.31-2.73Zm-32.84,14.24l2.29-.34-1.28-1.8-.39,.34-.62,1.81ZM79.19,44.85l-.51,.12,1.12,4.03,.33-.09c-.31-1.36-.63-2.71-.94-4.07Zm177.17,52.11c-.48-1.07-1.15-.95-2.03,.59l2.03-.59Zm50.98,28.34l.22,.1c.38-.32,.8-.62,1.13-.99,.12-.14,.04-.47,.04-.71-.28,.01-.73-.07-.8,.06-.27,.48-.41,1.02-.6,1.54Zm-80.7-12.88c-.67,1.75-.46,2.44,.5,2.48-.16-.83-.33-1.65-.5-2.48Zm-27.64,16.05c-.75,.94-.66,1.67,.55,2.1l-.55-2.1Z"/><path d="M0,107.31c3.05,.16,6.11,.32,9.16,.5,.55,.03,1.12,.12,1.63,.32,.29,.12,.47,.52,.7,.8-.32,.16-.71,.52-.94,.44-2.81-1.05-5.78-.36-8.64-.84-.62-.11-1.27-.01-1.9,0v-1.2Z"/><path d="M0,122.67c1.89-.1,3.78-.22,5.68-.29,.25,0,.5,.2,.75,.32-.22,.22-.44,.61-.67,.62-.87,.04-1.74-.06-2.62-.09-1.05-.04-2.1-.05-3.14-.08v-.48Z"/><path d="M56.29,129.19c.64-.75,1.27-1.51,1.91-2.26,.85-1.01,1.42-1.07,2.12,.05,.88,1.41,1.54,2.97,2.33,4.45,.28,.53,.65,1.01,.98,1.52l.33-.08c.23-.78,.52-1.55,.68-2.35,.41-1.98,1.65-2.44,3.29-1.18,.25,.19,.5,.39,.76,.57,.06,.04,.15,.03,.36,.05l.96-1.76c.32,.58,.67,.96,.7,1.36,.03,.49-.12,1.03-.34,1.48-.51,1.08-1.43,1.24-2.35,.46-.3-.26-.54-.6-.86-.82-.65-.44-1.14-.35-1.24,.53-.07,.67-.1,1.35-.19,2.02-.09,.71,.2,1.83-.77,1.88-.77,.04-1.88-.39-2.32-.99-.94-1.3-1.54-2.85-2.28-4.3-.3-.59-.61-1.18-1.02-1.98-.66,.83-1.2,1.49-1.71,2.16-.65,.86-1.47,1.02-2.44,.66-.97-.36-1.03-1.21-.91-2,.24-1.57,.6-3.12,.92-4.68,.06-.3,.15-.58,0-1.08-.56,.45-1.11,.91-1.69,1.34-.61,.44-1.22,.9-1.89,1.23-.24,.12-.83,.03-.93-.14-.15-.27-.13-.77,.02-1.05,.94-1.73,2.71-2.4,4.35-3.2,.57-.28,1.18-.5,1.8-.62,.32-.06,.82,.05,1.01,.27,.17,.2,.13,.71,0,1.01-.66,1.7-1.45,3.36-2.03,5.09-.23,.68-.04,1.49-.04,2.25l.44,.11Z"/><path d="M46,142.1v-5.77c.13-.08,.22-.18,.25-.16,1.07,.47,2.31-.19,3.15,.11,1.38,.48,2.49,.24,3.78,0,1.09-.21,1.86,.49,1.96,1.61,.11,1.23,.13,2.47,.07,3.7-.01,.27-.51,.52-.78,.78-.21-.29-.56-.57-.61-.89-.13-.98-.12-1.98-.2-2.97-.06-.65-.34-1.21-1.12-1.1-.76,.1-1.21,.54-1.19,1.38,.02,.88,.08,1.76-.03,2.63-.04,.34-.48,.63-.74,.94-.27-.32-.73-.62-.76-.96-.07-.83,.11-1.67,.09-2.5-.02-.75-.24-1.53-1.16-1.53-.92,0-1.3,.59-1.23,1.53,.06,.75,.02,1.52,0,2.27-.02,1.17-.24,1.31-1.49,.95Z"/><path d="M1.71,132.82c2.68,.08,.95,2.25,1.83,3.15-.02,0,.06,.05,.12,.04,3.31-.75,3.31,.5,3.51,2.97,.06,.67,.09,1.37-.04,2.03-.06,.3-.53,.53-.81,.79-.24-.28-.67-.56-.68-.86-.06-.91,.09-1.83,.07-2.75-.02-.78-.34-1.43-1.27-1.42-.91,.01-1.24,.57-1.22,1.43,.02,.84,.04,1.68,.02,2.51,0,.56-.19,1.14-.88,.94-.29-.08-.61-.64-.62-.99-.05-2.55-.03-5.1-.03-7.84Z"/><path d="M8.71,138.93c0-2.29,.83-3.11,3.21-3.13,1.91-.01,2.96,1.08,2.95,3.07-.02,1.82-1.19,3.04-2.94,3.07-2.19,.04-3.21-.92-3.21-3.01Zm4.61-.32c-.03-1.02-.19-1.81-1.31-1.89-1.01-.07-1.55,.45-1.64,1.58-.03,.39-.15,.85,0,1.17,.24,.51,.58,1.15,1.05,1.36,.78,.35,1.36-.25,1.66-.95,.18-.42,.18-.93,.24-1.28Z"/><path d="M33.38,139.44c.06-2.75,.77-3.44,3.53-3.37,1.65,.04,2.5,1.11,2.47,3.09-.03,2.01-1.14,3.06-3.15,3.06-1.53,0-3.23-.87-2.85-2.78Zm1.45-.37c-.02,1.44,.38,2,1.42,1.99,1.11,0,1.63-.62,1.68-1.97,.04-1.33-.5-2.04-1.58-2.06-1.12-.02-1.5,.5-1.52,2.04Z"/><path d="M32.42,136.61c-1.61,.29-1.23,1.5-1.21,2.56,.01,.56,.03,1.12,0,1.67-.04,1.15-.3,1.3-1.48,.96,0-.96,.04-1.92-.01-2.86-.05-.89,.43-2.05-1.26-2.4,1.38-.4,1.26-1.37,1.4-2.3,.12-.85,2.12-1.45,2.75-.88,.14,.13,.21,.42,.19,.63-.01,.14-.26,.38-.37,.36-.66-.11-1.05,.04-1.17,.78-.15,.9,.61,.86,1.06,1.16,.03,.02,.03,.07,.11,.32Z"/><path d="M22.13,134.46c.5-.13,.97,0,1.22,.92,.11,.4,.83,.64,1.27,.96-.01,.07,0,.19-.04,.22-.44,.27-1.21,.47-1.27,.79-.17,.97-.11,1.99-.01,2.98,.02,.22,.6,.36,.89,.57,.19,.14,.43,.33,.47,.53,.03,.13-.22,.41-.4,.49-1.4,.6-2.58-.19-2.57-1.7,0-.6,.1-1.21,0-1.79-.12-.69-.39-1.36-.6-2.03l-.28,.1,1.32-2.02Z"/><path d="M41.12,136.38c1.1-.1,1.99-.25,2.88-.22,.3,.01,.58,.48,.87,.75l-.21,.33c-.3,.04-.6,.07-.89,.13-.71,.13-1.13,.48-1.08,1.29,.05,.87,.09,1.76-.05,2.62-.06,.35-.6,.62-.93,.92-.2-.32-.55-.63-.56-.95-.06-1.66-.03-3.32-.03-4.87Z"/><path d="M16.52,136.17c1.15-.12,1.96-.24,2.77-.25,.27,0,.55,.28,.83,.43-.24,.22-.45,.59-.71,.62-.98,.13-1.4,.61-1.37,1.6,.03,.88,.03,1.77-.08,2.63-.03,.26-.48,.64-.74,.64-.24,0-.66-.44-.67-.69-.06-1.71-.03-3.43-.03-4.97Z"/><path d="M114.23,163.16c0,1.14,.05,2.28-.03,3.42-.02,.31-.4,.6-.62,.91-.17-.3-.49-.6-.49-.9,0-1.59,.06-3.19,.16-4.78,.02-.27,.4-.76,.53-.73,.5,.1,1.16,.23,1.41,.6,.6,.88,1,1.9,1.5,2.85,.14,.27,.35,.5,.52,.74l.35-.05c0-1.09-.04-2.18,.02-3.27,.02-.34,.31-.67,.48-1.01,.23,.33,.64,.65,.65,.98,.03,1.63-.02,3.27-.12,4.9-.01,.24-.44,.65-.66,.65-.41-.01-1-.16-1.19-.46-.61-.98-1.07-2.05-1.6-3.07-.16-.3-.35-.59-.53-.88l-.38,.11Z"/><path d="M120,165.32c.06-2.11,.6-2.63,2.65-2.56,1.44,.05,2.13,.89,2.11,2.59-.02,1.4-1.1,2.39-2.59,2.35-1.71-.04-2.22-.6-2.17-2.38Zm.94,.25c.4,.42,.76,1.13,1.21,1.19,1.02,.14,1.34-.74,1.37-1.58,.03-.82-.29-1.51-1.29-1.51-1.2,0-.94,.93-1.28,1.89Z"/><path d="M133.59,167.22c-.83,.81-1.94,.69-2.9,.4-.85-.25-1.34-.98-1.27-2.04,.14-2.1,.82-2.9,2.54-2.79,1.16,.08,1.68,.79,1.88,1.82,.13,.63-.12,1.01-.83,.97-.44-.02-.88-.1-1.31-.03-.35,.06-.68,.3-1.02,.45,.37,.34,.69,.87,1.12,.98,.52,.13,1.13-.1,1.7-.18l.09,.41Zm-1.25-2.29c.24-1.08-.22-1.42-.89-1.32-.28,.04-.49,.56-.74,.87l1.63,.46Z"/><path d="M138.04,163.99c-.44-.15-.76-.35-1.07-.34-.35,0-.69,.21-1.04,.32,.18,.27,.32,.61,.56,.8,.27,.22,.65,.29,.96,.46,.99,.55,1.09,1.83,.07,2.25-.73,.3-1.66,.14-2.5,.1-.14,0-.24-.52-.37-.83,.22-.04,.26-.07,.29-.06,.6,.15,1.3,.79,1.72-.11,.08-.17-.74-.69-1.04-1.13-.32-.48-.75-1.07-.69-1.56,.05-.39,.74-.93,1.19-.98,.62-.06,1.28,.28,1.91,.48,.04,.01,0,.28,0,.6Z"/><path d="M126.52,165.51c-.31-.66-.85-1.32-.86-1.99,0-.62,.56-1.25,.87-1.88,.32,.24,.64,.48,.94,.73,.11,.09,.19,.28,.31,.32,1.26,.4,1,.68-.02,1.1-.65,.27-.47,2.61,.15,3.07,.19,.14,.31,.36,.46,.55-.24,.1-.47,.26-.71,.3-.89,.17-1.79-.34-1.14-2.2Z"/><path d="M271.48,176.43c0,1.6-.43,2.74-2.46,2.31l.12,.44c.43,.12,.85,.25,1.29,.34,.6,.13,1.24,.24,1.2,1.04-.05,.79-.62,1.01-1.33,1.06-1.64,.11-1.92-.17-1.77-1.73,.05-.55,.05-1.11,.08-1.66,.11-1.69,.32-1.88,2.02-1.84,.27,0,.55,.03,.85,.05Zm-.94,3.1l-.6,.27c-.28,.24-.56,.48-.84,.72,.24,.22,.51,.65,.73,.63,.39-.04,.89-.27,1.08-.58,.12-.2-.22-.69-.36-1.05Zm-.68-3.01c-.28,.46-.57,.71-.53,.9,.06,.32,.33,.6,.51,.9,.26-.23,.7-.44,.73-.7,.03-.27-.35-.58-.71-1.11Z"/><path d="M249.64,176.5c1.34-.74,2.62,.47,3.9-.26,.22-.13,.74,.03,.99,.22,.6,.46,.55,2.79-.12,3.63-.06-.85-.01-1.59-.19-2.28-.11-.42-.57-.74-.87-1.11-.27,.4-.69,.76-.78,1.2-.13,.66-.03,1.37-.03,2.06l-.44,.05c-.08-.2-.21-.39-.23-.6-.04-.55,.08-1.14-.08-1.65-.13-.41-.58-.72-.88-1.07-.26,.4-.65,.78-.75,1.22-.15,.66-.09,1.36-.13,2.04h-.38v-3.46Z"/><path d="M158.1,175.19l.16-2.02h.41c.42,1.84-.03,3.71,.13,5.55-.71,.04-1.28,.06-1.85,.11-.93,.07-1.43-.32-1.48-1.28-.13-2.17,.4-2.68,2.63-2.36Zm-2.16,1.46c.18,.93,.19,1.65,1.17,1.63,.82-.02,.97-.66,1.03-1.34,.07-.85-.43-1.36-1.15-1.33-.36,.01-.7,.67-1.05,1.04Z"/><path d="M222.34,179.5c-1.28,.16-.85-1.59-2.21-1.51-1.24,.07-1.25,1.1-1.87,1.61l-.31-.19c.22-.63,.44-1.26,.64-1.89,.29-.87,.53-1.76,.87-2.61,.09-.24,.4-.46,.66-.55,.12-.04,.46,.19,.52,.37,.58,1.55,1.11,3.11,1.7,4.77Zm-3.2-1.8l1.59-.28-.49-1.86-.34,.03-.76,2.11Z"/><path d="M123.44,174.67c1.18,.17,2.11,.19,2.94,.49,.29,.1,.43,.9,.46,1.39,.1,1.38-.51,1.81-2.54,1.91-.04,.07-.09,.13-.11,.2-.12,.44-.24,.88-.35,1.33-.13-.44-.36-.87-.38-1.31-.05-1.23-.02-2.46-.02-4Zm.28,1.93c.62,.61,.92,1.16,1.35,1.28,.81,.24,1.07-.52,1.05-1.08-.03-.58,.16-1.59-.84-1.53-.45,.03-.86,.71-1.55,1.33Z"/><path d="M281.33,174.74c.13,.63,.25,1.26,.38,1.9,2.04,.08,2.52,.45,2.43,1.91-.09,1.59-.45,1.77-3.24,1.63v-5.37l.43-.08Zm-.09,3.85c.4,.41,.76,1.1,1.21,1.16,.97,.14,.91-.81,.96-1.42,.05-.59-.08-1.22-.92-1.23-.88-.01-1.05,.52-1.24,1.49Z"/><path d="M177.67,179.04l-.38,1.46-.32-.05v-5.19c.92,.13,1.88,.14,2.72,.47,.31,.12,.44,.98,.47,1.51,.07,1.3-.67,1.82-2.49,1.8Zm-.6-1.92c.6,.65,.95,1.04,1.31,1.43,.37-.45,.96-.86,1.04-1.35,.07-.5,0-1.47-.92-1.32-.44,.07-.8,.67-1.43,1.24Z"/><path d="M193.46,175.55c-.09,1.78,.18,3.47-.13,5.11h-.44l-.23-1.51c-2.4-.12-2.59-.21-2.58-1.41,0-.81-.16-1.85,.86-2.15,.71-.21,1.54-.04,2.53-.04Zm-.1,1.78c-.8-.64-1.22-1.25-1.74-1.34-.95-.16-.83,.69-.85,1.31-.03,.65-.08,1.45,.85,1.3,.51-.08,.94-.66,1.74-1.27Z"/><path d="M210.64,175.9l.19-2.09h.4c.33,1.86-.15,3.73,.03,5.55-.66,0-1.16,.07-1.64-.02-.53-.1-1.43-.28-1.48-.56-.16-.81-.1-1.72,.14-2.51,.09-.3,.92-.41,1.43-.52,.24-.05,.53,.08,.93,.16Zm.29,1.92v-.56l-1.56-1.13c-.26,.47-.66,.91-.75,1.4-.13,.64,.05,1.43,.91,1.3,.5-.08,.93-.66,1.4-1.01Z"/><path d="M241.34,178.39l-.32,1.38-.35-.04v-5.48l.36-.08c.07,.47,.17,.94,.2,1.41,.04,.5,0,1,0,1.76l1.79-1.42,.17,.17c-.4,.59-1.14,1.2-1.1,1.77,.04,.63,.78,1.22,1.22,1.82l-.21,.24-1.77-1.54Z"/><path d="M173.02,178.99c0-.6,.11-1.23-.03-1.79-.14-.53-.48-1.35-.84-1.41-.78-.13-.98,.61-1,1.31-.02,.65-.07,1.29-.1,1.94l-.38-.04v-5.53l.36-.04,.28,1.73,.2-.25c.71,.42,1.76,.68,2.04,1.3,.38,.81,.45,1.95-.19,2.81l-.34-.02Z"/><path d="M150.32,176.81c-.46,0-.94-.07-1.39,.02-.38,.08-.73,.36-1.09,.56,.4,.31,.76,.73,1.21,.89,.35,.12,.81-.09,1.38-.18-.62,.75-1.86,.87-2.65,.41-.65-.38-1.03-1.91-.42-2.68,.38-.48,1.25-.79,1.89-.78,.93,.02,1.21,.64,1.06,1.76Zm-.71-.56l.1-.32c-.29-.18-.59-.51-.86-.49-.33,.03-.63,.36-.95,.56l.13,.25h1.58Z"/><path d="M130.92,176.61c-.57,0-1.12-.05-1.66,.02-.29,.04-.54,.3-.81,.46,.23,.31,.41,.8,.71,.9,.45,.15,.99,.04,1.5,.18-.75,.48-1.59,.6-2.36,.09-1.01-.67-.68-1.71-.39-2.59,.26-.81,1.04-1.13,1.84-.89,.78,.23,1.42,.71,1.16,1.83Zm-.85-.32l.2-.66c-.43-.11-.86-.27-1.3-.29-.13,0-.28,.37-.43,.57l1.52,.38Z"/><path d="M139.66,176.25c-.07-1.61-1.21-.75-1.92-.83v-.4c.63-.05,1.32-.26,1.9-.1,.34,.09,.54,.77,.75,1.2,.08,.17,.06,.39,.08,.59,.15,1.74-.73,2.44-2.39,1.87-.24-.08-.54-.45-.53-.67,.03-.39,.17-.91,.46-1.11,.43-.3,1.03-.36,1.65-.56Zm.18,1.01l-.42-.54-1.22,.85c.2,.19,.52,.57,.59,.53,.38-.22,.7-.55,1.04-.85Z"/><path d="M260.42,180.02v-3.74c.35,.08,.6,.15,.85,.19,.66,.11,1.79,.04,1.9,.35,.33,.89,.26,1.93,.31,2.92,0,.11-.25,.24-.38,.36-.13-.15-.38-.3-.38-.46-.02-.51,.08-1.03,.07-1.55-.01-.62-.14-1.34-.94-1.18-.34,.07-.67,.73-.79,1.17-.17,.64-.15,1.33-.21,2l-.42-.06Z"/><path d="M189,177.26l-2.19,.1q-.13,1.26,2.07,1.3c-.53,.54-1.92,.7-2.51,.2-.81-.68-.64-1.59-.33-2.42,.35-.93,1.13-1.18,2.05-.91,.81,.24,1.15,.78,.91,1.73Zm-.71-.52l.17-.4c-.37-.14-.74-.39-1.11-.4-.26,0-.52,.32-.78,.5l.13,.3h1.58Z"/><path d="M256.26,176.65c1.96-.86,2.7-.41,2.73,1.5,0,.58,0,1.17,0,1.79-.69,.04-1.25,.17-1.78,.07-.42-.08-1.02-.35-1.14-.69-.21-.58,.06-1.09,.79-1.36,.46-.17,1.48,.35,1.34-.66-.15-1.05-1.15-.45-1.94-.65Zm2.5,2.04c-.6-.21-.94-.45-1.16-.37-.31,.11-.55,.45-.82,.7,.24,.18,.53,.56,.71,.51,.36-.09,.66-.41,1.26-.84Z"/><path d="M153.59,176.49c-.08-1.42-1-1.06-1.82-.87l-.05-.36c.54-.09,1.12-.34,1.6-.21,.38,.1,.85,.63,.92,1.02,.14,.85,.04,1.73,.04,2.6-.56,.05-1.11,.19-1.62,.1-.47-.09-.89-.43-1.33-.67,.3-.45,.52-.98,.92-1.31,.29-.24,.82-.2,1.35-.31Zm.32,.91c-.5-.19-.78-.42-.98-.36-.33,.1-.6,.38-.89,.58,.27,.22,.56,.64,.82,.62,.29-.01,.55-.42,1.05-.85Z"/><path d="M197.71,175.57c.45,1.16,.04,2.36,.03,3.64-.37-.06-.62-.14-.88-.14q-2.17,.02-2.14-2.19c0-.46,0-.93,0-1.39l.45-.05c.05,.59,.04,1.19,.17,1.76,.12,.51,.31,1.35,.61,1.42,.85,.19,1.13-.53,1.2-1.27,.06-.58,.1-1.17,.15-1.76l.4-.03Z"/><path d="M163.06,176.99c-.56,0-1.12-.07-1.65,.03-.3,.05-.55,.37-.83,.58,.29,.26,.54,.67,.87,.75,.43,.11,.92-.03,1.41,.13-.72,.53-1.62,.57-2.36,.23-1.18-.54-.67-1.73-.46-2.55,.12-.47,1.03-.99,1.61-1.02,1.04-.06,1.49,.71,1.4,1.85Zm-2.55-.95l.27,.62,1.46-.53c-.17-.18-.36-.52-.51-.5-.42,.06-.82,.27-1.22,.41Z"/><path d="M290.08,178.55c-.48-.03-.92-.12-1.33-.05-.35,.06-.67,.32-1.01,.5,.36,.34,.66,.8,1.09,.99,.32,.14,.8-.07,1.37-.14-.82,.7-2.43,.86-2.76,.2-.35-.7-.4-1.69-.21-2.46,.19-.76,.99-1.12,1.85-.88,.86,.23,1.26,.78,1.01,1.85Zm-.78-.56l.15-.4c-.3-.15-.61-.46-.89-.42-.33,.04-.62,.37-.93,.57l.13,.25h1.54Z"/><path d="M279.57,180.16c-.71,.05-1.25,.09-1.8,.13-.64,.04-1.22-.17-1.13-.86,.06-.43,.51-.88,.89-1.19,.37-.3,1.43,.26,1.2-.77-.2-.88-.98-.55-1.59-.39-.06,.02-.15-.03-.28-.32,.55-.08,1.17-.35,1.64-.19,.4,.14,.78,.74,.89,1.2,.18,.74,.13,1.54,.17,2.38Zm-.63-1.19l-.39-.57-1.3,.65c.2,.24,.5,.72,.57,.68,.4-.19,.75-.5,1.11-.77Z"/><path d="M229.13,179.04c-.75,.8-1.64,.67-2.45,.37-.93-.34-.66-1.23-.67-1.97,0-.8,.32-1.3,1.11-1.45,.8-.16,1.52-.09,2.01,.68,.46,.73,.27,1.11-.6,1.15-.32,.01-.64-.11-.95-.07-.3,.04-.58,.21-.87,.32,.23,.36,.41,.8,.73,1.05,.19,.15,.61,.02,.93,0,.25-.01,.51-.05,.76-.07Zm-1.52-1.51l.88-.66c-.23-.17-.49-.51-.68-.47-.36,.07-.68,.36-1.01,.56l.81,.57Z"/><path d="M275.66,179.76c-1.06,.67-1.95,.72-2.72,.18-.94-.66-.62-1.71-.29-2.51,.18-.44,.95-.86,1.47-.88,.95-.04,1.53,.57,1.45,1.73-.52,0-1.07-.07-1.58,.03-.3,.06-.56,.37-.84,.56,.25,.3,.44,.76,.76,.86,.45,.15,.98,.04,1.76,.04Zm-2.55-2.47l.13,.66,1.46-.29c-.08-.2-.17-.56-.25-.56-.45,.02-.89,.12-1.34,.2Z"/><path d="M206.91,177.43c-.58,0-1.07-.08-1.51,.03-.34,.08-.62,.4-.92,.61,.34,.29,.64,.71,1.03,.84,.35,.12,.81-.08,1.23,.01-.83,.57-1.91,.7-2.49,.01-.45-.52-.49-1.65-.27-2.38,.14-.46,1.09-.94,1.68-.94,.93,0,1.26,.8,1.25,1.82Zm-2.47-1l.13,.64,1.61-.28c-.12-.21-.24-.6-.34-.6-.47,.02-.93,.15-1.4,.24Z"/><path d="M266.71,177.8c-.14-1.34-.97-1.21-1.96-.76l.05-.47c.59-.05,1.28-.31,1.75-.1,.41,.19,.72,.88,.82,1.4,.14,.72,.03,1.49,.03,2.22-.69,0-1.29,.07-1.85-.02-.36-.06-.99-.41-.97-.54,.08-.48,.28-1.05,.63-1.33,.36-.29,.95-.27,1.5-.4Zm-.84,2.23l.95-1.22c-.23-.15-.51-.47-.68-.42-.34,.11-.68,.37-.9,.66-.06,.08,.31,.49,.63,.98Z"/><path d="M122.5,175.11l-1.73,.13-.13,.3c.33,.28,.68,.54,.97,.86,.29,.32,.65,.68,.71,1.07,.04,.26-.35,.81-.61,.86-.56,.1-1.17-.04-1.75-.09l.05-.41c.18,.02,.37,.08,.54,.05,.36-.07,.71-.19,1.06-.29-.22-.28-.39-.67-.67-.81-.77-.38-1.26-.99-.75-1.69,.48-.67,1.34-.74,2.33,0Z"/><path d="M169.48,175.63c-.44,0-.62-.03-.79,0-.31,.08-.61,.2-.92,.3,.2,.29,.34,.69,.62,.83,.78,.41,1.26,.9,.78,1.79-.36,.65-1.2,.61-2.16-.06,.12-.05,.22-.09,.32-.12,.39-.1,.78-.19,1.17-.28-.25-.31-.44-.71-.76-.92-.64-.41-1.02-1.03-.56-1.58,.5-.6,1.33-.74,2.3,.03Z"/><path d="M244.18,179.28c.18,.02,.38,.08,.55,.04,.34-.09,.67-.25,1-.37-.2-.25-.35-.61-.62-.74-.71-.36-1.29-.76-.87-1.65,.32-.68,1.17-.69,2.14-.09-.05,.05-.1,.13-.16,.14-.46,.08-.93,.14-1.39,.21,.32,.34,.69,.64,.95,1.02,.28,.42,.6,.9,.63,1.37,.01,.2-.65,.55-1.05,.62-.4,.08-.85-.11-1.28-.18l.08-.38Z"/><path d="M141.83,178.94v-6.04c.26,.22,.52,.33,.59,.51,.33,.96,.01,4.73-.59,5.53Z"/><path d="M114.73,177.94c.06-.04,.13-.09,.2-.11,.49-.12,.98-.24,1.48-.36-.35-.32-.66-.69-1.06-.94-.68-.42-.71-.99-.31-1.52,.58-.75,1.3-.6,2.23-.14-.78,.22-1.29,.36-1.8,.5,.41,.38,.88,.72,1.21,1.16,.23,.31,.43,.78,.38,1.13-.04,.27-.48,.62-.79,.67-.5,.08-1.03-.05-1.55-.09l.03-.3Z"/><path d="M134.51,175.22c-.56,.13-1.43,.09-1.62,.43-.29,.51-.31,1.39-.05,1.92,.17,.34,1.05,.33,1.96,.57-.61,.18-1.11,.49-1.45,.37-.51-.18-1.2-.61-1.3-1.04-.2-.94-.34-2.1,.86-2.57,.5-.2,1.15,0,1.74,0l-.13,.31Z"/><path d="M239.16,176.38l-1.88,.13c.55,.56,.81,.95,1.16,1.15,.73,.42,1.12,.94,.67,1.74-.32,.56-1.49,.5-2.12-.04l1.82-.4c-.5-1.1-2.45-1.05-1.53-2.51,.25-.4,1.17-.39,1.78-.57l.09,.49Z"/><path d="M145.86,173.14c.87,1.83,.28,3.7,.13,5.57-.52-1.83-.41-3.69-.13-5.57Z"/><path d="M213.29,177.88c.12-.42,.12-1.03,.39-1.21,.6-.4,1.01-.8,.78-1.53-.26-.81-.94-.7-1.58-.62-.06,0-.13-.07-.41-.21,.96-.38,1.83-.57,2.45,.13,.6,.67,.54,1.53-.16,2.24-.39,.4-.73,.86-1.09,1.29l-.39-.09Z"/><path d="M113.01,172.91c1.02,1.13,.91,4.87,0,5.47v-5.47Z"/><path d="M292.17,178.81c.22-.43,.45-.86,.66-1.3,.21-.45,.39-.92,.58-1.38-.47-.18-.93-.37-1.4-.52-.19-.06-.41-.05-.75-.08,1.03-.64,2.25-.59,2.69,.03,.52,.72,.25,1.61-.62,2.33-.33,.27-.53,.7-.79,1.06l-.37-.14Z"/><path d="M183.24,179.09v-3.68h1.95c-2.42,.41-.75,2.74-1.95,3.68Z"/><path d="M201.12,179.27v-3.56l1.99-.16,.28,.28c-2.56,.23-1.15,2.39-1.93,3.48l-.33-.03Z"/><path d="M225.36,175.99c-2.42,.3-.86,2.6-1.97,3.79v-3.79h1.97Z"/><path d="M232.36,179.66v-3.62l1.94-.1c-1.7,.59-1.22,1.99-1.29,3.17-.01,.22-.21,.42-.32,.63l-.32-.09Z"/><path d="M285.43,180.37v-5.58h.33v5.58h-.33Z"/><path d="M166.46,175.52c-2.55,.18-.94,2.4-2.07,3.67v-3.91l1.86-.16,.2,.4Z"/><path d="M199.19,179.26v-3.84c.79,.74,.85,2.78,0,3.84Z"/><path d="M175.03,179.12v-3.96c.83,.82,.82,3.13,0,3.96Z"/><path d="M235.74,176v3.67h-.33v-3.68h.33Z"/><path d="M135.83,178.73v-4c.77,.64,.76,3.07,0,4Z"/><path d="M141.05,167.01c-.39,.34-.62,.71-.87,.72-.22,0-.45-.38-.68-.6,.25-.25,.46-.57,.76-.71,.12-.05,.43,.31,.79,.59Z"/><path d="M141.2,163.65c-.51,.28-.79,.55-1.04,.54-.21-.01-.6-.41-.56-.55,.07-.26,.37-.63,.6-.65,.24-.02,.51,.32,1.01,.66Z"/><path d="M39.67,166.41c-.17-.08-.21-.11-.24-.11-2.65,.47-3.74-.79-2.7-3.35,.23-.56,1.13-.97,1.81-1.19,.56-.19,1.26-.07,1.87,.05,.24,.05,.58,.46,.58,.71,.04,1.72,.03,3.44-.03,5.15-.01,.28-.39,.55-.59,.83-.23-.3-.56-.57-.66-.9-.11-.38-.03-.82-.03-1.18Zm.63-2.39c-.73-.65-1.16-1.35-1.65-1.4-.98-.11-1.04,.77-1,1.51,.04,.68-.11,1.71,.9,1.57,.56-.08,1.02-.94,1.75-1.68Z"/><path d="M53.98,161.97c2.27,.03,1.17,2.36,2.36,3,.44-.98,.85-1.97,1.34-2.92,.05-.11,.5-.01,1.05-.01-.81,2.22-1.53,4.27-2.34,6.28-.1,.25-.7,.3-1.36,.57,1.02-2.65-.61-4.55-1.05-6.9Z"/><path d="M35.39,160.73c-.53,.03-1.05,.11-1.58,.09-.69-.02-1.04,.22-1.05,.95-.02,.77,.43,.77,1.01,.78,.44,0,.88,.19,1.31,.3l-.05,.45c-.32,.04-.65,.14-.97,.11-.9-.09-1.26,.21-1.32,1.18-.06,1.07,.56,1.02,1.25,1.07,.45,.03,.9,.13,1.34,.2l-.05,.44h-3.61c0-1.86,0-3.79,.01-5.72,0-.15,.18-.41,.32-.44,1.15-.26,2.3-.29,3.39,.13l-.02,.45Z"/><path d="M2.76,165c.82,.19,1.33,.44,1.8,.38,.37-.04,.86-.4,.99-.74,.1-.27-.17-.82-.45-1.05-.45-.38-1.21-.47-1.51-.9-.35-.52-.55-1.32-.43-1.91,.2-.98,1.16-1.12,2.02-1.11,.63,.01,1.39-.05,1.54,1.11-.43-.1-.75-.24-1.06-.22-.45,.04-.89,.2-1.34,.31,.22,.46,.38,.99,.7,1.37,.27,.31,.76,.43,1.11,.68,1.11,.79,1.19,2.41-.03,2.94-.85,.37-1.97,.15-2.97,.11-.12,0-.23-.54-.39-.96Z"/><path d="M10.07,166.3c-1.56,0-2.17-.63-2.16-2.2,.02-1.81,.76-2.7,2.26-2.71,1.62-.01,2.5,.8,2.52,2.36,.02,1.58-.98,2.56-2.63,2.55Zm.37-4.05c-1.36,0-1.31,.84-1.33,1.66-.02,.78-.04,1.6,1.04,1.64,1.1,.04,1.28-.83,1.33-1.61,.06-.82-.16-1.6-1.05-1.68Z"/><path d="M20.88,162.42c.28-.35,.39-.61,.58-.71,1.5-.79,3.2,.14,3.34,1.81,.25,2.91,.21,2.98-2.67,2.84-.43-.02-1.16-.5-1.19-.82-.05-.52,.26-1.17,.62-1.6,.22-.27,.82-.2,1.23-.34,.31-.11,.59-.33,.88-.5-.28-.29-.53-.77-.86-.83-.54-.09-1.13,.08-1.94,.17Zm3.12,2.34c-.54-.3-.87-.62-1.04-.55-.36,.14-.64,.49-.95,.75,.23,.25,.54,.74,.69,.7,.39-.11,.7-.46,1.3-.91Z"/><path d="M53.22,166.7c-.53,0-1.17,.18-1.57-.05-.37-.22-.61-.86-.69-1.36-.15-.97-.16-1.96-.22-2.94h-.34c.2-.4,.32-.9,.63-1.21,.19-.19,.79-.26,.98-.11,.44,.37,.75,.9,1.11,1.37-1.48,1.24-1.49,2.96,.07,3.83l.02,.46Z"/><path d="M22.64,175.2c-.16,.47-.28,.96-.48,1.41-.1,.22-.33,.45-.55,.51-.16,.05-.53-.12-.58-.26-.35-1.06-.64-2.14-.94-3.22l.54-.18,.93,2.85,1.16-2.84,.39,.05,.67,2.31,.32,.07,1.05-2.4,.44,.15-1.16,3.46c-.36-.17-.85-.25-1.05-.53-.25-.36-.26-.89-.38-1.35l-.35-.04Z"/><path d="M17.11,165.58c-.36,.72-1.28,1.02-2.31,.65-.98-.35-1.41-1.53-1.14-3.09,.19-1.12,1-1.74,2.24-1.7,.66,.03,1.39,.03,1.35,.78-.86,.24-1.87,.24-2.23,.72-.34,.46-.27,1.6,.09,2.11,.3,.42,1.27,.37,2.01,.54Z"/><path d="M16.24,175.84l.94-2.37,.42,.16c-.33,1.04-.63,2.09-1,3.12-.06,.16-.41,.36-.55,.31-.23-.07-.47-.3-.57-.52-.22-.47-.35-.99-.51-1.48l-.36,.04c-.1,.44-.16,.91-.33,1.33-.1,.25-.34,.54-.58,.61-.15,.05-.54-.23-.61-.44-.3-1.01-.53-2.04-.79-3.06l.34-.13,1.09,2.67,1.06-2.57h.31l.84,2.3h.3Z"/><path d="M26.4,162.87c0-.87-.05-1.75,.03-2.62,.03-.29,.38-.55,.58-.82,.2,.24,.56,.48,.57,.73,.04,1.87,.03,3.73-.02,5.6,0,.22-.41,.42-.62,.63-.21-.26-.59-.51-.61-.79-.08-.91-.03-1.82-.03-2.73h.11Z"/><path d="M3.06,176.83v-4.94l.34-.15c.35,1.07-.14,2.95,1.92,2.36,.35-.1,.73-.51,.87-.87,.15-.39,.03-.87,.03-1.32h.32v5.02h-.42c.03-.44,.04-.88,.08-1.31,.09-.84-.34-1.18-1.11-1.19-.73,0-1.49-.06-1.48,1.05,0,.47-.12,.94-.18,1.41l-.37-.06Z"/><path d="M45.82,165.3l.06,.89c-.4,.12-.75,.2-1.08,.33-1.47,.54-2.33-.05-2.32-1.59,0-.8-.07-1.6-.01-2.39,.02-.26,.33-.49,.51-.74,.22,.24,.59,.46,.63,.73,.09,.71,.02,1.43,.04,2.15,.04,1.12,.25,1.22,1.31,.8,.27-.11,.59-.07,.89-.1l-.04-.07Z"/><path d="M69.87,173.99c1.09,.24,1.99,.38,2.83,.68,.22,.08,.34,.7,.33,1.08,0,1.69-.36,1.98-2.4,2.11l-.45,1.41-.32-.06v-5.22Zm.66,1.98l-.26,.22c.37,.39,.7,1.04,1.12,1.1,.94,.15,1.08-.78,1.03-1.39-.04-.48-.52-1.24-.91-1.3-.88-.15-1.09,.58-.98,1.37Z"/><path d="M40.45,177.49c-1.02-.17-1.98-.25-2.88-.55-.23-.08-.31-.84-.32-1.29-.03-1.5,.39-1.78,2.65-1.86,.03-.32,.06-.66,.08-1,.02-.28,.04-.56,.07-.98,.67,.71,.79,2.93,.39,5.68Zm-3-2.01l1.29,1.59c.41-.52,1.01-.99,1.17-1.58,.2-.73-.32-1.42-1.11-1.32-.42,.05-.77,.72-1.35,1.32Z"/><path d="M47.01,171.97l.36,1.86,.16-.24c.64,.32,1.57,.48,1.86,1,.49,.88,.53,1.98,.08,2.95h-.42c0-.56,.04-1.13-.01-1.68-.06-.64,.08-1.53-.89-1.55-.96-.01-.87,.84-.93,1.51-.05,.56-.12,1.12-.18,1.68l-.35-.03v-5.45l.33-.04Z"/><path d="M58.83,177.69l-.38,1.46-.3-.05v-4.87c2.46-.29,2.93-.09,3.08,1.24,.18,1.65-.25,2.07-2.39,2.23Zm-.53-1.89c.53,.63,.84,1.35,1.24,1.4,.84,.12,1.09-.66,1.11-1.36,.01-.71-.22-1.48-1.08-1.37-.4,.05-.73,.73-1.27,1.33Z"/><path d="M28.21,177.31c-1.33,0-1.96-.54-1.94-1.71,.02-1.35,.69-2.05,1.96-2.05,.96,0,1.66,.76,1.69,1.8,.03,1.25-.58,1.95-1.71,1.96Zm-1.23-1.83c0,.77,.15,1.42,1.1,1.36,.89-.05,1.27-.67,1.23-1.47-.03-.77-.37-1.47-1.28-1.45-1.01,.02-.99,.85-1.05,1.56Z"/><path d="M73.95,176.06c0-1.26,.65-1.98,1.74-1.93,.94,.04,1.69,.77,1.71,1.67,.03,1.4-.56,2.06-1.87,2.07-1.26,0-1.59-.36-1.58-1.81Zm.37-.26c.22,.98,.3,1.64,1.27,1.63,.91-.01,1.09-.68,1.1-1.39,.02-.76-.18-1.58-1.14-1.39-.47,.09-.82,.75-1.23,1.15Z"/><path d="M18.44,163.98c0-.6-.04-1.2,.02-1.79,.03-.26,.27-.49,.42-.74,.25,.2,.7,.4,.71,.61,.07,1.23,.07,2.46,0,3.69-.01,.2-.47,.37-.73,.55-.16-.22-.43-.43-.46-.67-.07-.55-.02-1.11-.02-1.67h.05Z"/><path d="M65.1,176.12c.06-1.48,.58-2.12,1.73-2.09,1.12,.03,1.71,.73,1.67,2-.04,1.28-.59,1.79-1.88,1.72-1.19-.06-1.57-.47-1.52-1.64Zm3.38-.21c-.75-.64-1.16-1.27-1.66-1.36-.88-.16-1.09,.57-1.09,1.33,0,.76,.23,1.49,1.07,1.37,.5-.07,.92-.7,1.68-1.33Z"/><path d="M33.66,173.47c.75,.85,.82,2.27,.34,3.94-.86-.14-2.26,0-2.54-.5-.47-.83-.24-2.07-.3-3.13l.58-.02c0,.68-.08,1.36,.03,2.02,.06,.39,.42,.74,.64,1.1,.36-.32,.91-.57,1.03-.96,.21-.69,.15-1.47,.22-2.45Z"/><path d="M48.26,164.31c0-.59-.05-1.19,.02-1.78,.03-.23,.33-.42,.51-.63,.2,.2,.57,.4,.58,.62,.06,1.18,.06,2.38-.01,3.56-.01,.21-.45,.39-.69,.59-.15-.23-.41-.45-.44-.69-.07-.55-.02-1.11-.02-1.66h.05Z"/><path d="M84.51,177.82c-.66,.04-1.3,.16-1.91,.08-.34-.05-.84-.4-.89-.68-.06-.31,.28-.74,.54-1.03,.16-.18,.54-.14,.77-.29,.3-.2,.53-.49,.8-.74-.4-.17-.78-.38-1.2-.49-.18-.05-.42,.1-.87,.22,1.55-1.15,2.61-.76,2.76,.8,.07,.67,.01,1.35,.01,2.14Zm-1.63,.05c.4-.49,.69-.78,.88-1.12,.03-.05-.48-.54-.59-.49-.34,.15-.66,.43-.88,.73-.05,.07,.28,.43,.58,.87Z"/><path d="M10.55,176.94c-.13-1.18,1.09-2.6-.77-3.12-.3-.08-.97,.34-1.13,.69-.43,.97,.02,1.89,1,2.36-.86,.27-1.55-.03-1.67-.83-.13-.8-.37-1.8,.6-2.36,.84-.49,2.04-.3,2.5,.35,.53,.74,.34,1.97-.54,2.92Z"/><path d="M45.82,165.3l.04,.07c-.09-.98-.21-1.97-.26-2.96,0-.2,.32-.6,.4-.57,.27,.08,.7,.29,.71,.47,.06,1.33,.03,2.65,.03,3.98l-.38,.08-.54-1.07Z"/><path d="M44.04,172.61l1.08,1.32c-1,.96-.91,2.68,.2,3.34-1.36,.37-1.56,.19-1.56-1.2,0-.65-.24-1.29-.22-1.94,.01-.45,.28-.89,.5-1.53Z"/><path d="M52.69,177.11c.19,.01,.39,.08,.56,.02,.34-.1,.66-.27,.99-.41-.21-.26-.42-.51-.62-.77-.31-.43-.86-.88-.85-1.31,.02-.83,.87-1.01,2.03-.43-.26,.02-.4,0-.53,.04-.31,.1-.6,.22-.9,.34,.19,.31,.31,.75,.58,.9,.68,.38,1.36,.75,.81,1.62-.55,.88-1.35,.46-2.07,0Z"/><path d="M78.5,177.51c.15-.01,.31,0,.45-.05,.35-.11,.7-.24,1.04-.37-.24-.26-.43-.6-.72-.76-.7-.4-.97-.96-.7-1.69,.2-.55,1.19-.57,2.01-.04-.28,0-.47-.04-.63,0-.3,.08-.6,.21-.89,.32,.17,.28,.28,.65,.52,.82,.6,.41,1.41,.78,.97,1.63-.45,.85-1.32,.54-2.05,.14Z"/><path d="M85.94,178.19v-5.89c.8,.9,.79,4.68,0,5.89Z"/><path d="M35.64,177.49v-5.73c.75,.74,.78,4.66,0,5.73Z"/><path d="M64.55,174.25c-2.41,.26-.96,2.41-2.1,3.38v-3.43l1.83-.26,.27,.31Z"/><path d="M50.82,177.47l.17-3.56c.81,.94,.73,2.99-.17,3.56Z"/><path d="M61.3,166.07c-.48,.37-.72,.71-.96,.7-.24,0-.48-.34-.72-.53,.21-.24,.38-.61,.63-.67,.22-.06,.52,.23,1.05,.5Z"/><path d="M61.29,162.73c-.54,.26-.82,.52-1.07,.49-.21-.02-.4-.36-.59-.56,.22-.21,.43-.57,.67-.59,.23-.02,.49,.31,.99,.66Z"/><path d="M49.75,160.42c-.55,.28-.81,.52-1.04,.5-.24-.03-.45-.31-.67-.48,.21-.17,.41-.44,.64-.47,.24-.02,.5,.19,1.07,.44Z"/><path d="M124.16,47.53v3.49c2.71-.68,4.01-2.93,5.86-4.44l.26,.2c-.93,1.26-1.73,2.65-2.84,3.72-.78,.75-.68,1.15-.16,1.86,.24,.32,.46,.85,.35,1.16-.11,.31-.74,.69-1,.61-.34-.11-.56-.64-.8-1.01-.1-.15-.14-.35-.21-.56-3.77,1.94-7.48,3.86-11.18,5.77l-.17-.3c1.47-.88,2.94-1.74,4.39-2.63,1.22-.75,2.49-1.44,3.58-2.35,.41-.34,.35-1.23,.46-1.67-1.04-.24-1.94-.36-2.76-.67-.68-.26-.82-.85-.56-1.59,.4-1.14,.7-2.32,1.05-3.49l-.32-.27-5.74,2.57c.8-.65,1.33-1.16,1.93-1.56,1.9-1.24,3.45-2.74,4.54-4.79,.39-.75,1.4-1.19,2.18-1.7,.5-.33,1.09-.55,1.84-.92,.02,.93-.21,1.54-1.16,1.85-.8,.26-1.73,.4-2.1,1.8,2.02-.47,3.82-.9,5.63-1.28,.65-.14,1.35-.23,2.01-.16,.38,.04,.93,.4,1.01,.71,.09,.39-.22,.88-.3,1.14-.53-.29-.83-.6-1.05-.55-1.8,.34-3.59,.75-5.38,1.14-.15,.03-.31,.08-.45,.16-.84,.48-2.49,4.89-2.1,5.78,.11,.26,.59,.59,.79,.53,.35-.11,.78-.44,.88-.77,.25-.82,.38-1.64,1.56-1.77Z"/><path d="M151.55,48.69c-1.3,.78-3.86-.75-6.22-3.42-.4,.38-.84,.73-1.19,1.15-.63,.75-1.11,1.66-2.36,.85-.25-.16-.89,.38-1.38,.46-.5,.08-1.03,0-1.55-.02,.17-.46,.24-.99,.52-1.36,.53-.69,1.25-.87,2.14-.59,.76,.23,.79,.16,2.39-1.47-.42-.76-.82-1.44,.4-2.05,.99-.5,.87-3.58,0-4.22-.74-.55-.86-1.74-.24-2.43,.71-.78,4.45-1.54,5.42-1.09,.75,.35,1.05,.98,.59,1.65-.42,.6-1.01,1.15-1.64,1.51-1.21,.7-2.11,2.4-1.84,3.75,.17,.85,.39,1.7,.42,2.56,.05,1.64,.91,2.65,2.27,3.38,.72,.38,1.41,.84,2.27,1.35Z"/><path d="M130.82,52.35c1.06,.18,1.79,.17,2.11-.87,.07-.22,.54-.32,.82-.48,.12,.27,.34,.53,.34,.8-.03,1.49-.83,2.1-2.27,1.78-.39-.08-.76-.24-1.2-.38-2.57,5.68-3.22,11.45-.97,17.42-1.32-1.33-1.67-3.06-2.03-4.78-.68-3.2-.29-6.33,.64-9.41,.66-2.19,1.32-4.39,2.15-6.52,.55-1.4,1.38-2.69,2.16-3.98,.15-.26,.64-.31,.98-.46,.05,.35,.26,.78,.13,1.04-.67,1.34-1.45,2.62-2.14,3.95-.29,.55-.44,1.17-.71,1.88Z"/><path d="M171.6,112.75c-.5,.74-1.03,.62-1.55,.19-1.67-1.41-3.61-1.92-5.76-1.86-1.91,.05-3.82,0-5.72,.09-.64,.03-1.27,.37-1.92,.48-.3,.05-.63-.09-.95-.14,.1-.27,.13-.68,.32-.79,.78-.44,1.6-1.05,2.43-1.11,2.22-.16,4.47-.02,6.7-.09,1.62-.05,2.93,.62,4.19,1.5,.77,.53,1.49,1.14,2.26,1.73Z"/><path d="M134.28,31.71c-1.26-.06-2.04-.58-1.89-1.34,.13-.65,.93-1.61,1.49-1.65,1.02-.08,.92,1.12,1.01,1.83,.05,.4-.44,.87-.61,1.17Z"/><path d="M149.15,28.53c.78-.64,1.31-1.38,1.66-1.3,.49,.11,1.08,.79,1.16,1.3,.06,.38-.65,1.24-.98,1.23-.51-.02-.99-.62-1.84-1.23Z"/><path d="M200.71,107.84c1.88,.97,3.23,3.99,2.65,5.72-.83-1.8-1.78-3.83-2.65-5.72Z"/><path d="M211.92,97.52c-1.5-1.58-2.81-2.97-4.37-4.62,.58,.17,1.05,.16,1.27,.39,.99,1.01,1.94,2.07,2.84,3.16,.2,.24,.17,.68,.26,1.07Z"/><path d="M123.17,37.11c.9-1.18,1.81-2.36,2.71-3.54l.45,.36c-1.29,.88-1.04,3.01-2.9,3.43l-.26-.26Z"/><path d="M99.74,107.04l-1.09-1.89,.78-.95,.6,2.7-.29,.15Z"/><path d="M88.01,106.91c-.58,1.76-2.11,1.32-3.25,1.63l3.25-1.63Z"/><path d="M92.43,110.05l-3.81-1.33c1.14-.33,1.76-.14,3.81,1.33Z"/><path d="M188.78,115.6c-.82-.58-1.66-1.13-2.46-1.74-.25-.19-.39-.52-.42-.95,.95,.9,1.9,1.81,2.85,2.71l.03-.02Z"/><path d="M174.06,68.07l1.19,1.14c-.18,.1-.46,.33-.54,.28-.39-.28-.74-.63-1.1-.95l.44-.46Z"/><path d="M273.08,85.05c-.73-.2-1.55-.36-2.32-.66-.22-.09-.4-.59-.37-.87,.02-.18,.47-.42,.74-.43,1.53-.03,3.07,.06,4.6-.01,1.65-.07,3.3-.2,4.69-1.29,.23-.18,.68-.1,1.02-.13-.03,.39,.08,.97-.13,1.14-.63,.52-1.35,1.08-2.11,1.25-1.97,.44-3.98,.67-6.12,1.01Z"/><path d="M240.53,85.69c-.96,.1-1.41-.47-1.46-1.39-.06-1.01,1.12-2.18,2.11-2.18,1.04,0,1.68,.77,1.68,2.03,0,1.19-.47,1.51-2.33,1.54Z"/><path d="M243.8,76.75c-.6,.76-1.02,1.57-1.67,2.06-.67,.5-1.16,0-1.34-.75-.15-.64-.38-1.28-.41-1.93-.02-.51,.04-1.33,.34-1.49,.46-.24,1.34-.26,1.72,.03,.57,.45,.85,1.26,1.36,2.07Z"/><path d="M273.29,61.33c-.15,1.16-.11,2.05-1.15,2.35-.81,.23-1.57,.34-1.43-.94,.02-.18-.16-.38-.15-.57,.03-.68-.08-1.46,.23-1.98,.17-.3,1.19-.41,1.59-.18,.48,.27,.7,.99,.91,1.33Z"/><path d="M270.69,54.19c-.02,1.03-.74,1.3-1.57,1.38-.75,.07-1.82-.9-1.8-1.57,.02-.8,1.07-2,1.76-2.01,.71-.02,1.59,1.19,1.6,2.21Z"/><path d="M241.65,68.51c-.7,0-2.18-1.76-1.96-2.45,.16-.49,.74-1.05,1.23-1.18,.85-.21,2.02,.85,1.77,1.6-.24,.71,.1,1.87-1.04,2.03Z"/><path d="M238.54,58.14c-.18,.15-.54,.69-.97,.74-1.11,.14-1.94-.69-1.89-1.78,.03-.71,.13-1.49,1.07-1.6,.79-.09,1.75,1.14,1.78,2.64Z"/><path d="M274.08,73.68c-.53-.54-1.06-1.08-1.59-1.62,.58-.53,1.08-1.25,1.76-1.54,.65-.28,1.39,.75,1.43,1.66,.04,.99-.58,1.19-1.6,1.51Z"/><path d="M279.14,88c.79-1.01,1.38-1.86,2.1-2.59,.18-.18,.9-.06,1.17,.16,.35,.29,.67,.81,.69,1.24,0,.23-.62,.54-1,.73-.6,.29-1.22,.53-1.86,.72-.23,.06-.52-.11-1.1-.25Z"/><path d="M252.84,90.6c.15,1.1-.83,1.23-1.52,1.43-.72,.21-1.55-.58-1.56-1.3-.01-1.01,.58-1.73,1.42-1.73,.74,0,1.65,.84,1.66,1.6Z"/><path d="M243.06,91.43c-.44,.38-.99,1.22-1.6,1.27-.49,.04-1.39-.8-1.52-1.39-.17-.74,.38-1.48,1.37-1.54,.95-.06,1.48,.41,1.75,1.66Z"/><path d="M232.33,94.46c-.28-.18-1.1-.41-1.32-.91-.29-.64,1.1-1.95,1.86-1.93,.78,.02,1.32,.41,1.33,1.21,0,.91-.53,1.45-1.87,1.63Z"/><path d="M273.67,89.77c-1.01-.16-1.68-.31-1.59-1.24,.07-.76,.15-1.65,1.18-1.78,.75-.09,1.54,.82,1.42,1.81-.06,.44-.66,.81-1.01,1.21Z"/><path d="M276.21,80.16l-1.26,1.09c-.33-.43-.8-.82-.91-1.29-.05-.24,.61-.92,.88-.88,.4,.06,.73,.57,1.3,1.08Z"/><path d="M217.83,128.71v-1.12l3.91,3.32-.21,.36c-2.18-1.07-4.35-2.14-6.53-3.2l.19-.49c.43,.14,.88,.25,1.3,.43,.43,.18,.82,.43,1.33,.7Z"/><path d="M219.66,152.67c1.74,1.44,3.48,2.87,5.22,4.31l-.19,.22c-1.65-1.54-4.28-1.95-5.03-4.53Z"/><path d="M141.66,12.36c-.67-.28-1.36-.54-2.02-.85-.39-.18-.81-.35-1.09-.65-.56-.56-.33-1.2,.46-1.21,.65,0,1.35,.18,1.94,.46,2.87,1.36,3.65,1.24,5.84-1.04,.25-.26,.47-.6,.78-.73,.45-.18,1.02-.37,1.44-.24,.31,.1,.74,.85,.63,1.07-.23,.47-.73,.87-1.21,1.13-.82,.45-1.71,.78-2.57,1.15l.06,.42c1.05,.69,2.1,1.38,3.15,2.07,.13,.09,.3,.12,.43,.22,.6,.45,1.6,.7,1.09,1.79-.3,.64-1.45,.59-2.34-.08-.73-.55-1.4-1.18-2.16-1.69-2.11-1.41-3.59-.99-4.75,1.24-.21,.4-.66,.68-1,1.02-.44-.48-1.02-.91-1.24-1.47-.1-.27,.44-.9,.82-1.2,.53-.42,1.17-.7,1.77-1.04l-.03-.37Z"/><path d="M112.12,24.9c.73,2.45,.95,4.97,.62,7.53l-.62-7.53Z"/><path d="M270.91,104.34l3.79,5.04-.31,.25-3.95-4.89,.47-.4Z"/></g></g></g></svg>