<?xml version="1.0" encoding="UTF-8"?><svg xmlns="http://www.w3.org/2000/svg" viewBox="0 0 282.02 221.69"><defs><style>.d{fill:#fff;}</style></defs><g id="a"/><g id="b"><g id="c"><g><path d="M112.42,0l-.36,.79c-.66-.03-.57-.46-.62-.79h.98Z"/><path d="M85.48,102.58l.06,.61c-.28-.12-.5-.18-.67-.31-1.24-.91-2.6-1.7-3.66-2.79-1.4-1.45-2.63-3.08-3.79-4.73-1.06-1.52-1.91-3.19-2.89-4.77-.7-1.12-1.7-2.04-2.11-3.38-.13-.42-.76-.68-1.15-1.02-.14-.24-.27-.47-.41-.71l-.19,.16,.61,.54c.53,.96,1.06,1.92,1.59,2.87,.23,.4,.46,.8,.7,1.2l-.39,.32c-.07-.19-.11-.4-.22-.56-1.49-2.18-2.99-4.36-4.48-6.54-.09-.13-.16-.31-.29-.39-1.61-.96-1.92-2.76-2.7-4.25-.37-.71-.52-1.54-.86-2.28-1.54-3.27-2.27-6.78-3.22-10.23-.69-2.51-1.51-4.97-2.64-7.32-.58-1.2-1.31-2.24-2.87-2.44-.17,.88-.25,1.78-.53,2.6-.28,.83-.75,1.59-1.16,2.42l.82,.31c-.11,.72-.13,1.5-.34,2.22-.51,1.7-.26,3.33,.35,4.91,1.2,3.08,2.46,6.12,3.73,9.17,1.44,3.48,3.42,6.67,5.53,9.77,.47,.7,1.18,1.24,1.73,1.89,.6,.71,1.19,1.44,1.69,2.22,.48,.75,.91,1.55,1.22,2.38,.42,1.15,.28,1.3-.94,1.41-.16,.01-.39,0-.46,.1-.7,1.04-1.98,1.07-2.92,1.69-.03,.02-.06,.05-.05,.05,.68,1.75,1.3,3.51,2.06,5.2,.48,1.07,1.12,2.08,1.78,3.05,.61,.9,.74,1.88,.73,2.91-.02,.88-.62,1.24-1.42,.88-.15-.07-.3-.15-.41-.26-1.52-1.49-3.45-2.33-5.32-3.2-1.97-.91-3.92-2.01-6.15-2.27-.4-.05-.81-.17-1.17-.35-.28-.14-.48-.42-.91-.81,.55-.12,.81-.25,1.06-.22,1.98,.29,3.91,.78,5.67,1.77,1.02,.58,2.14,.91,3.12,1.64,1.3,.98,2.84,1.65,4.34,2.48,.4-.58,.29-1.16-.09-1.75-1.48-2.24-2.84-4.55-3.73-7.1-.17-.49-.32-.99-.48-1.5-3.4,.72-6.72,1.9-10.34,1.97,0,.26-.03,.53,0,.79,.26,1.77,.57,3.54,.8,5.32,.14,1.09,.11,2.2,.25,3.29,.54,4.12,1.18,8.23,1.67,12.36,.3,2.59,.4,5.2,.59,7.79,.03,.4,.05,.79,.26,1.24,.12-.22,.24-.43,.35-.65,.3-.58,.51-1.21,.9-1.73,.81-1.09,2.02-1.42,2.97-.28,.65,.78,1.36,1.52,1.99,2.31,.33,.41,.71,.6,1.21,.74,.57,.16,1.2,.36,1.63,.74,.61,.54,1.26,.64,2.02,.65,.68,.01,1.38,.08,2.05,.23,1.14,.27,2.06,.79,2.59,1.99,.4,.91,1.17,1.66,1.73,2.5,.2,.3,.4,.66,.41,1,.04,2.15,1.05,4,1.8,5.93,.45,1.14,1.08,2.24,1.28,3.42,.4,2.33,1.54,4.43,1.94,6.74,.1,.6,.21,1.21,.24,1.81,.15,2.85,.46,5.68,.32,8.54-.08,1.56,.21,3.16,.44,4.73,.36,2.37,.87,4.72,1.21,7.09,.29,2.01-.4,2.92-2.34,3.54-.36,.12-.76,.35-.97,.65-.49,.7-.95,1.43-1.3,2.21-.62,1.37-1.12,2.79-1.71,4.17-.24,.56-.54,1.1-.89,1.6-.89,1.26-1.84,2.48-2.74,3.74-.25,.36-.42,.79-.58,1.21-.94,2.48-2.61,3.98-5.37,4.06-.49,.01-1,.17-1.46,.07-1.99-.44-3.55,.52-5.13,1.46-.28,.17-.52,.41-.82,.54-.23,.09-.51,.05-.77,.07,.05-.25,.1-.5,.16-.75,.02-.1,.08-.19,.13-.31-.73,.14-1.4,.25-2.07,.39-1.19,.24-1.53,.54-1.65,1.76-.16,1.62-.24,3.24-.33,4.87-.1,1.91-.29,3.83-.2,5.74,.07,1.3-.17,2.49-.5,3.7-.43,1.56-.89,3.12-1.36,4.67-.1,.35-.24,.7-.42,1.01-.35,.6-.82,.77-1.44,.45-.72-.38-1.41-.82-2.07-1.3-.41-.3-.76-.55-1.32-.43-.68,.14-1.28-.1-1.78-.59-1.01-1-2.05-1.96-2.63-3.33-.36-.86-.88-1.66-1.82-2.06-.14-.06-.31-.18-.36-.32-.37-.95-1.15-1.19-2.07-1.17-.49-.86-.63-1.67-.16-2.57,.5-.93,.92-1.91,1.37-2.86,.5-1.06,.81-2.18,.99-3.48-.35,.09-.55,.11-.72,.18-1.08,.46-2.09,.42-3.16-.13-.99-.5-1.75-1.05-2.02-2.23-.31-1.35-1.18-2.04-2.69-2.19-1.43-.14-2.83-.71-4.23-1.13-.25-.07-.53-.28-.65-.51-.94-1.8-1.63-3.66-.89-5.73,.28-.78,.12-1.47-.21-2.23-.71-1.62-1.57-3.1-2.76-4.43-.68-.76-.78-1.84-.8-2.88-.02-1.38-.09-2.76-.18-4.14-.11-1.71-.27-3.41-.4-5.12-.01-.16,0-.33,.03-.48,.67-2.89,1.37-5.77,1.99-8.67,.15-.69,.12-1.47-.02-2.17-.37-1.74-.16-3.39,.43-5.04,.53-1.49,1.07-3,1.41-4.54,.19-.84,.15-1.81-.07-2.64-.32-1.21,.24-2.14,.64-3.15,.07-.16,.27-.33,.45-.38,.81-.23,1.62-.54,2.45-.6,1.22-.09,2.23-.49,2.94-1.49,1.33-1.87,3.17-3.12,5.05-4.34,.37-.24,.73-.5,1.1-.75,.27-.19,.5-.48,.79-.56,1.48-.4,2.62-1.24,3.43-2.52,.06-.1,.16-.22,.26-.24,1.2-.22,1.9-1.21,2.83-1.91,.33,.23,.66,.66,.94,.63,.67-.07,1.38-.25,1.95-.59,.56-.33,1.07-.47,1.71-.42,1.34,.11,2.68,.07,3.97-.43,.92-.35,1.47-1.01,1.45-1.98-.06-3.38-.18-6.75-.72-10.11-.39-2.41-.58-4.86-.87-7.29-.15-1.3-.44-2.59-.46-3.88-.04-2.66-.81-5.21-1.02-7.84-.07-.84-.21-1.68-.33-2.52-.02-.15-.14-.28-.24-.49-.41,.14-.83,.2-1.16,.4-1.07,.65-2.33,.75-3.45,1.19-1.81,.72-3.53,1.67-5.27,2.54-.45,.22-.41,.67-.31,1.08,.28,1.19,.57,2.38,.84,3.57,.11,.48,.24,.95,.29,1.43,.24,2.47,.39,4.95,.68,7.41,.29,2.38,.73,4.75,1.07,7.13,.39,2.74,.74,5.49,1.1,8.23,.02,.16,.03,.33,.02,.49-.03,.44,.03,.99-.6,1.02-.61,.03-.67-.46-.7-.94-.05-.73-.09-1.47-.18-2.19-.39-3.19-.83-6.38-1.21-9.58-.29-2.43-.49-4.86-.78-7.29-.17-1.49-.41-2.98-.64-4.47-.05-.31-.21-.6-.37-1.02-2.05,.7-4.09,1.2-5.91,2.34-1.52,.95-3.04,1.91-4.63,2.72-.93,.47-1.99,.77-3.02,.96-1.2,.23-2.47-1.02-2.09-2.19,.57-1.77-.32-3.02-1.16-4.28-.6-.9-1.05-1.79-1.26-2.86-.32-1.59-.81-3.15-1.17-4.73-.13-.58-.26-1.24-.14-1.8,.44-2.02,0-3.97-.3-5.94-.36-2.34-.8-4.67-.59-7.04,.18-2.07-.71-3.56-2.27-4.85-1.66-1.38-3.13-2.96-3.97-5.02-.25-.6-.62-1.14-.9-1.73-.23-.48-.48-.97-.58-1.48-.43-2.22-1.45-4.22-2.32-6.27-.54-1.27-.87-2.63-1.24-3.96-.25-.89,0-1.68,.66-2.35,.4-.41,.7-.9,1.06-1.34,.9-1.1,1.85-2.15,2.71-3.29,1.14-1.52,2.22-3.09,3.3-4.66,.5-.73,.94-1.51,1.4-2.27,.19-.31,.37-.63,.51-.97,.44-1.05,.79-2.13,1.29-3.14,1.46-2.99,1.34-5.9-.29-8.77-.24-.42-.57-.81-.93-1.11-.9-.76-1.84-1.48-2.79-2.18-.68-.5-1.43-.7-2.31-.52-1.72,.36-3.31,.05-4.75-1-.61-.44-.97-.95-1.02-1.71-.1-1.46-.24-2.92-.34-4.38-.15-2.29-.64-4.43-2.36-6.12-.53-.52-.62-1.12-.24-1.78,.12-.21,.23-.43,.35-.65,.56-1.05,1.65-1.38,2.67-.76,.24,.15,.39,.48,.54,.75,.37,.67,.64,1.41,1.1,2,.75,.96,1.62,1.82,2.43,2.73,.22,.24,.43,.49,.61,.76q1.02,1.57,2.88,2.17l.28-.43c1.37,.45,2.7,.89,4.04,1.32,1.44,.46,2.87,.91,4.32,1.34,.3,.09,.66,.15,.96,.08,1.38-.34,2.76-.7,4.13-1.11,.81-.24,1.6-.6,2.4-.89,.15-.06,.32-.12,.47-.09,1.54,.23,3.21,.37,4.34,1.46,2.88,2.78,6.32,4.89,9.17,7.69,.29,.29,.57,.59,.86,.87,1.21,1.15,2.43,2.29,3.64,3.44,.56,.53,1.14,1.05,1.65,1.62,.54,.6,.51,.92-.04,1.75-.33-.48-.59-.99-.97-1.38-.71-.72-1.5-1.36-2.24-2.05-2.05-1.92-4.08-3.86-6.15-5.76-.75-.68-1.64-1.21-2.42-1.86-1.25-1.04-2.48-2.11-3.71-3.18-1.57-1.36-3.29-1.78-5.3-1.05-2.1,.76-4.21,1.55-6.67,1.77,.66,.4,1.18,.73,1.7,1.04,.56,.33,1.12,.68,1.7,.95,3.35,1.58,6.75,3.08,10.07,4.73,2.95,1.46,5.82,3.08,8.73,4.63,.25,.13,.53,.26,.7,.47,.12,.15,.18,.49,.09,.65-.07,.12-.4,.12-.61,.14-.07,0-.15-.06-.22-.11-1.88-1.5-4.17-2.21-6.29-3.24-.95-.46-1.83-1.06-2.78-1.53-1.74-.87-3.51-1.69-5.27-2.52-.66-.31-1.33-.61-1.99-.92-1.25-.58-2.51-1.16-3.76-1.74-.07-.03-.16-.05-.22-.1-1.25-1.2-2.89-1.11-4.43-1.38-1.35-.24-2.7-.53-4.05-.81-.16-.03-.33-.09-.45-.19-1.89-1.51-4.06-2.69-5.26-4.98-.5-.95-1.34-1.74-2.08-2.54-.88-.96-1.9-1.8-2.33-3.1-.17-.49-.53-.73-1.06-.51-.44,.18-.78,.79-.62,1.2,.13,.33,.35,.65,.59,.91,.94,1.02,1.53,2.21,1.76,3.57,.34,1.97,.74,3.92,.73,5.93,0,1.89,1.17,2.96,3.08,2.94,.28,0,.58-.01,.85-.11,1.95-.7,3.37,.26,4.73,1.47,.48,.43,1.08,.75,1.51,1.22,.71,.77,1.5,1.54,1.94,2.47,1.51,3.16,1.23,6.32-.37,9.4-.22,.43-.45,.87-.61,1.33-.43,1.23-1.14,2.32-1.75,3.46-1.03,1.92-2.56,3.48-3.56,5.39-.24,.46-.57,.93-.97,1.24-1.35,1.05-2.2,2.51-3.19,3.84-.31,.42-.57,1.09-.47,1.56,.24,1.1,.71,2.14,1.1,3.2,.11,.3,.36,.57,.37,.87,.08,1.3,.55,2.44,1.12,3.59,.34,.68,.56,1.43,.8,2.16,.72,2.1,1.76,4,3.07,5.8,1.05,1.44,2.45,2.49,3.65,3.77,.47,.5,.8,1,.84,1.7,.06,1.14,.14,2.27,.25,3.41,.19,1.94,.35,3.89,.63,5.82,.23,1.57,.9,3.1,.58,4.7-.37,1.87-.16,3.67,.33,5.44,.55,1.99,.94,4.05,2.33,5.72,.46,.55,.73,1.25,1.05,1.8,2.19,.36,3.79-.53,5.37-1.74,1.71-1.31,3.53-2.5,5.39-3.58,2.5-1.45,5.09-2.74,7.65-4.09,.29-.15,.59-.29,.91-.36,1.81-.38,3.45-1.2,5.12-1.94,1-.45,2.06-.76,3.09-1.15,.49-.18,.97-.42,1.48-.57,1.52-.46,3.03-.96,4.59-1.28,.68-.14,1.47,0,2.15,.22,1.7,.56,3.36,.28,5.23,.03-.65-1.33-1.06-2.65-2.08-3.54-2.01-1.75-3.28-4.03-4.68-6.22-1.95-3.03-3.35-6.32-4.68-9.66-.77-1.92-1.69-3.79-2.46-5.71-.62-1.56-.97-3.19-.85-4.89,.05-.81,.11-1.63,.11-2.44,0-1.02,.32-1.88,.9-2.73,.42-.61,.74-1.39,.8-2.12,.09-1.03-.12-2.09-.15-3.14-.02-.6,.04-1.21,.12-1.81,.18-1.43-.06-1.72-1.46-1.95-3.3-.53-6.57-1.22-9.89-1.62-2.37-.29-4.63-.86-6.88-1.58-.89-.28-1.79-.56-2.42-1.35-.35-.44-.38-.86-.19-1.36,.15-.39,.38-.6,.82-.58,.61,.03,1.22,.05,1.83,.07,3.91,.08,7.81,.15,11.72,.22,.41,0,.83,.02,1.22-.08,2.05-.52,4.15-.88,6.02-1.96,.25-.14,.5-.29,.77-.38,.91-.3,1.68-.8,2.35-1.49,.79-.82,1.8-1.11,3.14-1.14-.25,.3-.34,.47-.49,.56-.94,.54-1.93,1-2.53,1.98-.15,.25-.52,.39-.81,.52-1.25,.59-2.48,1.28-3.79,1.71-2.43,.79-4.9,1.51-7.53,1.26-1.98-.19-3.97-.28-5.96-.35-1.42-.06-2.84-.03-4.26-.02-.38,0-.76,.06-1.38,.11,1.03,.9,2.05,1.07,3.01,1.32,2.48,.65,4.99,1.12,7.57,1.33,1.45,.12,2.86,.71,4.31,.86,2.08,.21,4.08,.75,6.09,1.24,.32,.08,.63,.17,.94,.28,1.18,.4,1.92,1.43,1.95,2.66,.01,.69-.78,1.66-1.47,1.81-.47,.1-.94,.22-1.42,.34-.03,0-.04,.07-.1,.2,.17,.1,.33,.26,.52,.32,.87,.26,1.41,.85,1.96,1.56,1.42,1.85,2.29,3.95,2.92,6.15,.68,2.37,1.5,4.7,2.1,7.09,.09,.36-.03,.95,.67,.96,.05,0,.04,.61,.13,.91,.55,1.83,1.03,3.69,1.72,5.47,.52,1.34,1.32,2.58,2.01,3.85,.14,.26,.39,.47,.8,.59-.3-.82-.6-1.65-.89-2.47-.3-.84-.62-1.68-.88-2.54-.25-.82-.8-1.58-.55-2.7,1.72,4,2.89,8.06,5.47,11.67l.34-1.15c.76,1.13,1.47,2.11,1.92,3.35,.47,1.31,1.4,2.47,2.18,3.66,.64,.99,1.32,1.96,2.04,2.89,1.39,1.81,2.8,3.6,4.25,5.36,.43,.52,1.03,.9,1.56,1.34l1.27,1.26Zm-10.76,83.5c-.92,1.1-2.54,3.88-2.69,4.74,.74-1.11,1.43-2.06,2.02-3.06,.3-.51,.44-1.13,.65-1.7,.47-.59,.82-1.23,.93-1.97l-.23-.09-.68,2.08Zm2.91-7.13c.16,0,.34-.03,.46,.04,1.29,.7,2.75,.04,2.82-1.4,.05-1.08-.13-2.17-.27-3.25-.13-.96-.36-1.91-.55-2.86-.05-.24-.1-.49-.15-.73-.31,.47-.42,.94-.52,1.41-.27,1.27-.51,2.54-.83,3.79-.26,1.02-.63,2.01-.95,3.01-.43,.64-.71,1.34-.77,2.11,.48-.63,1.15-1.19,.76-2.12Zm-35.72,20.33l.2,1.12,1.8-.25v-.15c-.68-.24-1.35-.47-2.02-.71-.91-1.06-1.9-1.96-3.44-1.88-.18,0-.37-.12-.54-.22-.84-.5-1.69-.99-2.51-1.52-.95-.62-2.03-1.14-2.76-1.97-1.29-1.46-2.36-3.11-3.51-4.68-.17-.23-.35-.48-.4-.75-.04-.2,.1-.45,.21-.86,.34,.4,.53,.61,.69,.83,1.01,1.33,2,2.67,3.02,4,1.01,1.32,2.41,2.09,3.86,2.82-.09-.25-.27-.41-.41-.6-.95-1.27-1.98-2.49-2.83-3.82-1.01-1.57-1.89-3.23-2.77-4.87-.48-.89-1.01-1.81-1.25-2.78-.48-1.98-.87-3.99-1.11-6-.23-1.94-.27-3.9-.28-5.86-.01-2.16-.13-4.33,.47-6.44,.49-1.72,.91-3.47,1.45-5.17,.66-2.09,1.35-4.18,2.15-6.23,.53-1.36,1.29-2.63,1.93-3.95,.89-1.84,1.78-3.67,3.27-5.12,.34-.34,.57-.8,.9-1.15,.68-.74,1.36-1.5,2.11-2.16,.89-.78,1.84-1.48,2.79-2.18,.87-.65,1.69-1.37,2.8-1.69,1.72-.49,3.41-1.08,5.1-1.68,.53-.19,1.12-.33,1.71-.92-1.54-.23-2.85-.3-4.16,.15-.65,.23-1.31,.5-1.99,.59-1.55,.21-2.87,.89-4.07,1.83-1.16,.91-2.1,2.15-3.71,2.36-2.24,1.5-4.42,3.08-6.05,5.26-.57,.77-1.18,1.34-2.11,1.49-.63,.1-1.28,.17-1.91,.14-1.31-.05-1.91,.39-2,1.68-.04,.48,.07,.97,.11,1.46,.05,.65,.23,1.33,.1,1.94-.33,1.46-.77,2.9-1.23,4.33-.65,2.03-1.27,4.04-.73,6.22,.15,.6,.06,1.31-.08,1.94-.42,1.91-.89,3.81-1.37,5.7-.63,2.44-.73,4.92-.32,7.38,.29,1.74,.42,3.46,.38,5.22-.02,.78,.06,1.74,.49,2.32,.88,1.18,1.58,2.44,2.31,3.71,.87,1.54,1.33,3.02,.86,4.74-.03,.12-.05,.24-.06,.36-.19,1.25,.27,2.33,.91,3.34,.19,.3,.63,.54,1,.63,1.22,.31,2.45,.6,3.7,.8,1.18,.19,2.05,.77,2.57,1.83,.22,.44,.35,.92,.6,1.34,.27,.43,.59,.86,.97,1.19,.85,.73,1.76,.24,2.67,.1,.92-.15,1.37-.58,1.44-1.49,.03-.36,.11-.75,.29-1.05,.17-.27,.51-.44,.78-.65Zm37.31-37.42c-.12-1.86-.19-3.69-.38-5.51-.27-2.71-1.17-5.24-2.32-7.69-.76-1.62-1.51-3.25-2.31-4.85-.4-.8-.82-1.6-1.36-2.31-1.73-2.25-4.11-3.67-6.55-5.01-1.46-.8-3.05-1.15-4.67-1.34-1.17-.14-2.35-.16-3.53-.15-.63,0-1.22,.18-1.22,1.04,0,.18-.23,.48-.4,.52-.15,.03-.48-.18-.54-.35-.23-.66-.67-.68-1.26-.61-1.71,.21-3.36,.53-4.93,1.29-.72,.35-1.54,.5-2.3,.78-.8,.29-1.7,.48-2.36,.96-1.67,1.22-3.31,2.5-4.81,3.92-3.66,3.47-5.76,7.96-7.78,12.46-1.36,3.02-1.99,6.28-2.9,9.45-.28,.97-.53,1.99-.55,2.99-.05,2.28-.06,4.57,.11,6.83,.18,2.39,.55,4.77,.91,7.14,.11,.71,.37,1.42,.69,2.07,.59,1.21,1.33,2.34,1.88,3.56,1,2.21,2.23,4.24,3.82,6.07,.37,.43,.87,.79,1.13,1.28,.61,1.17,1.64,1.75,2.74,2.33,1.07,.56,2.05,1.29,3.09,1.93,.24,.15,.5,.26,.77,.34,2.26,.7,4.62,.35,6.92,.62,.5,.06,1.04-.15,1.55-.3,1.48-.45,2.94-.93,4.41-1.39,.58-.18,1.19-.28,1.75-.5,1.86-.72,3.74-1.41,5.54-2.25,1.32-.62,2.64-1.32,3.77-2.23,2.29-1.84,3.85-4.3,5.11-6.92,.85-1.76,1.51-3.6,2.33-5.37,1.32-2.89,2.36-5.84,2.96-8.99,.63-3.28,.56-6.56,.7-9.82Zm-28.6,58.74c.23-.53,.48-.91,.56-1.32,.19-.91,.27-1.85,.46-2.77,.2-.95,.47-1.88,.73-2.82,.09-.35,.29-.68,.32-1.02,.15-1.82,.3-3.65,.38-5.47,.09-2.14,.12-4.29,.18-6.59-1.65,.6-3.24,.18-4.84,0-.43-.05-.97-.03-1.3,.19-.85,.56-1.75,.54-2.69,.56-1.64,.03-2.68,.96-3.1,2.53-.42,1.57-.93,3.11-1.45,4.65-.18,.53-.52,1.01-.75,1.53-.24,.51-.14,.86,.4,1.2,1.36,.84,2.49,1.93,3.34,3.32,.63,1.04,1.35,2.02,2.07,3,.45,.62,1.08,.98,1.86,1.02,.85,.03,1.56,.39,2.22,.9,.47,.36,.99,.68,1.61,1.1Zm7.76-89.62c-.19,1.49-.05,1.84,1.18,2.47,.31,.16,.7,.22,1.05,.26,4.12,.4,7.66,2.1,10.76,4.76,.82,.71,1.56,1.5,2.5,2.41-.07-.64-.17-1.07-.15-1.5,.05-.97-.34-1.73-.95-2.43-.4-.46-.9-.9-1.1-1.45-.47-1.24-1.46-1.56-2.58-1.69-.56-.07-1.14-.08-1.7-.01-.74,.09-1.35-.08-1.92-.56-.33-.28-.73-.55-1.14-.68-1.02-.31-1.77-.91-2.4-1.78-.53-.74-1.16-1.43-2.14-1.95-.14,.53-.16,1-.39,1.33-.22,.32-.64,.51-1.03,.81Zm-5.23-32.07c.61-.06,1.17-.09,1.73-.18,1.48-.23,2.95-.51,4.44-.71,1.59-.22,3-.98,4.5-1.47,.18-.06,.32-.27,.46-.4-.62-.18-1.15-.39-1.7-.48-.71-.11-1.49-.3-2.15-.13-2.24,.58-4.43,1.32-6.65,1.97-.7,.2-.93,.57-.63,1.4Zm-12.7,4.85c-2.44,.82-4.39,2.38-6.5,3.65-1.91,1.16-3.48,2.98-5.97,3.02-.48,0-.9,.26-.97,1.06,.75-.2,1.38-.3,1.97-.53,3.33-1.31,6.33-3.26,9.4-5.05,.6-.35,1.17-.74,1.75-1.1,.34-.21,.59-.45,.31-1.05Zm23.16,92.92c2.43,.67,4.46,.15,5.79-1.57,.74-.96,1.21-2.14,1.8-3.21-1.23,.88-2.26,1.9-3.33,2.87-1.14,1.03-2.7,1.21-4.26,1.92ZM16.63,24.33c1.12,.95,2.09,1.7,3.47,1.6,.26-.02,.53,.17,.8,.26,.19,.06,.38,.16,.57,.18,.35,.03,.71-.05,.7-.47,0-.21-.25-.49-.45-.58-.66-.29-1.36-.5-2.05-.75-.93-.34-1.88-.42-3.04-.24Zm53.53,60.39l.17-.09-.44-.81-.2,.11,.46,.79Zm-29.32,21.25c-.21-.05-.32-.09-.42-.08-.06,0-.11,.1-.17,.15,.08,.06,.16,.17,.24,.16,.09,0,.17-.11,.35-.23Z"/><path d="M120.48,73.67c.28,0,.57,.06,.85,.02,1.43-.17,2.27,.4,3.11,1.65,.96,1.42,2.45,2.47,3.72,3.68,.28,.27,.62,.49,.85,.93l-1.46-.26c1.44,1.98,2.95,3.6,5.5,3.61-.5-1.37-1.35-2.47-2.82-3.02-.14-.05-.24-.21-.34-.33-.63-.74-1.25-1.49-1.87-2.24-.12-.15-.22-.32-.42-.61,.81-.07,1.13,.65,1.78,.69-.09-1.05-1.33-1.77-.88-3.1,.66,1.1,1.24,2.08,1.83,3.07,.66,1.13,1.88,1.3,3,1.85l-1.01,.39c.91,.5,1.88,.22,2.87,.47-.55,.68-1.34,.43-2.05,.79,1.34,1.14,2.44,2.4,3.96,3.14,.11,.05,.23,.16,.33,.14,1.41-.25,2.59,.59,3.9,.82,.16,.03,.32,.04,.73,.08-.39-.33-.61-.51-.83-.69-1.21-1.02-2.5-1.98-3.62-3.1-.71-.71-1.42-1.33-2.35-1.7-1.4-.56-2.02-1.82-2.67-3.04-.05-.1-.05-.24-.04-.36,0-.07,.08-.13,.23-.35,.64,.87,1.13,1.85,1.9,2.47,.77,.62,1.87,.73,3,1.05-.14-.9-.55-1.39-.96-1.88-.58-.68-1.17-1.36-1.74-2.06-.31-.39-.29-.4-.2-1.15,.19,.14,.37,.23,.49,.37,1,1.19,1.96,2.4,2.98,3.57,.36,.41,.83,.87,1.33,1,2.16,.59,4.34,1.07,6.51,1.59l.43-.67c.14,.03,.27,.04,.37,.09,.25,.14,.51,.27,.71,.47,1.11,1.05,2.44,1.54,3.95,1.73,1.04,.13,2.05,.49,3.08,.73,.5,.11,1.01,.17,1.51,.26l.14-.27c-.2-.2-.37-.48-.61-.58-.44-.19-.93-.29-1.4-.41-.99-.24-1.86-.54-2.41-1.56-.42-.77-1.16-1.36-1.71-2.06-.42-.52-.77-1.09-1.23-1.76,.79-.13,1.09,.24,1.4,.62,.72,.88,1.46,1.76,2.2,2.62,.72,.83,1.54,1.44,2.73,1.38,.31-.02,.62,.14,1.11,.26-.16-.32-.24-.57-.38-.76-.77-1.1-1.56-2.18-2.33-3.29-.16-.23-.21-.53-.31-.8l.26-.19c.23,.17,.53,.3,.68,.52,.7,1.05,1.43,2.08,2,3.19,.68,1.31,1.64,2.02,3.13,2.09,.68,.03,1.34,.27,2.02,.42l.13-.22c-.54-.43-1.06-.89-1.62-1.3-.95-.68-1.58-1.61-2.19-2.58-.21-.33-.19-.62,.23-.78,.69,1.23,1.61,2.25,2.73,3.09,.54,.4,1.1,.62,1.82,.43,.45-.12,.96-.02,1.43,.04,.57,.07,1.14,.2,1.71,.31l.11-.25c-1.29-.31-2.08-1.19-2.83-2.16-.18-.23-.55-.35-.85-.43-1.38-.35-2.76-.68-4.14-1.01l-.26-.65,4.51,1.18,.06-1.35c.53-.09,.6,.35,.79,.61,.61,.81,1.13,1.7,1.83,2.43,.52,.54,1.41,.75,1.84,1.33,.55,.76,1.23,.59,2.09,.78-.27-.43-.43-.7-.6-.95-.57-.83-1.12-1.68-1.72-2.49-.27-.36-.66-.63-1.1-1.03l1.7,.08c-.06-1.21-1.49-1.71-1.32-3.22,.6,.73,1.03,1.29,1.5,1.8,.63,.67,1.24,1.39,1.99,1.92,.69,.48,1.55,.28,2.56,.15-.77-1.32-2.09-2.14-2.44-3.6,1.53,.85,2.05,2.72,3.84,3.59l-2.06,1.03c.44,.55,.88,1.23,1.45,1.77,.61,.58,1.29,1.18,2.05,1.48,.76,.29,.96,1.27,1.99,1.17-.3,.63-.68,.61-1.07,.43-.51-.24-1.02-.51-1.5-.81-.77-.47-1.58-.64-2.46-.38-.57,.17-1.1,.11-1.66-.15-.36-.16-.81-.12-1.23-.17l-.12,.27c.23,.25,.41,.58,.69,.75,2.35,1.44,4.53,3.24,7.54,3.56-1.2-1.17-2.78-1.71-4.07-3,.42-.05,.61-.13,.71-.07,1.41,.81,2.81,1.63,4.21,2.45,.1,.06,.19,.2,.29,.21,1.18,.04,2.37,.17,3.84-.03-1.68-1.82-3.41-3.08-5.37-4.01,.24-.56,.58-.32,.88-.31,.27,0,.53-.04,1.05-.09-.46-.63-.79-1.11-1.15-1.57-.3-.38-.67-.71-.96-1.11-.32-.44-.28-.84,.31-1.04h-.03c.71,.88,1.42,1.77,2.12,2.66,.71,.9,1.76,1.27,2.72,1.76,.35,.18,.83,.09,1.44,.15-.77-1.31-2.03-2.11-1.96-3.6,.56-.12,.68,.28,.9,.56,.5,.64,.99,1.29,1.52,1.91,1.18,1.38,2.66,1.49,4.5,.92-.4-.39-.72-.62-.95-.92-.46-.61-.91-1.24-1.28-1.91-.08-.14,.14-.46,.22-.69,.24,.08,.67,.12,.71,.26,.41,1.6,1.66,2.23,3.04,2.72,.08,.03,.2,.04,.22,.09,.43,1.08,1.4,.62,2.19,.75-.64-.6-1.28-1.2-1.92-1.81-.18-.17-.4-.32-.5-.53-.81-1.7-2.37-1.86-3.94-1.85-.67,0-1.26-.07-1.68-.52-.99-1.07-1.92-2.2-2.85-3.32-.09-.1-.05-.44,.05-.53,.11-.1,.41-.1,.54-.02,.23,.15,.42,.38,.59,.61,.27,.36,.5,.74,.75,1.12,1.14,1.74,2.92,1.97,4.85,2.16-.13-1.04-1.18-1.45-1.3-2.63,1.06,.69,1.48,1.7,2.24,2.35,.76,.65,1.6,1.19,2.48,1.84l-.85,.45c1.03,.86,1.99,1.66,2.98,2.5l-.26,.61c.1,.07,.2,.17,.31,.19,1.09,.13,2.19,.24,3.28,.37,.42,.05,.84,.11,1.34,.18-.32,.8-.88,.62-1.31,.58-.93-.08-1.86-.25-2.79-.36-.44-.05-.88-.06-1.51-.11,.95,1.55,2.28,2.18,3.82,2.65,.16-.25,.25-.5,.42-.61,.21-.13,.52-.23,.74-.17,.71,.2,1.41,.48,2.17,.75,.23-.9-.83-1.15-.8-1.9,.49-.18,.76,.2,1.07,.4,.55,.35,1.06,.77,1.63,1.06,.54,.27,1.09,.42,1.74,.07,.43-.23,1.03-.14,1.55-.17,.47-.02,.94,0,1.44-.21-.42-.07-.85-.1-1.27-.21-1.14-.3-2.44-.38-3.35-1.01-1.4-.98-2.91-1.02-4.43-1.24-.47-.07-.92-.21-1.48-.34l.37-.72c-.78-.72-1.67-1.35-2.29-2.18-.91-1.22-2.05-2.18-3.15-3.2-.36-.33-.58-.82-.87-1.24l.17-.22c.24,.06,.53,.05,.72,.18,.43,.31,.8,.69,1.2,1.03,.71,.6,1.43,1.19,2.14,1.79,.15,.13,.32,.26,.41,.43,.9,1.62,2.23,2.63,3.97,3.34,1.39,.57,2.76,.83,4.22,.86,.15,0,.29-.02,.49-.22-.67-.35-1.35-.69-2.02-1.04-1.04-.55-2.13-1.01-2.61-2.26-.11-.28-.74-.41-1.15-.5-.61-.13-1.23-.18-1.36-1.03l.64-.28c-.98-1.01-2.39-1.53-3.15-2.9,.62-.19,.92,.14,1.24,.36,1.1,.77,2.27,1.47,3.26,2.37,.98,.89,2.13,.83,3.35,1.08-.35-.57-2-2.08-2.66-2.35-.83-.34-1.1-.98-1.33-1.88,.26,.08,.43,.08,.54,.17,1.4,1.17,2.78,2.38,4.46,3.16,.11,.05,.26,.11,.29,.21,.66,1.64,2.38,1.83,3.64,2.65,.19,.13,.41,.23,.86,.48-.47,.13-.73,.3-.92,.24-.81-.25-1.69-.44-2.39-.89-.87-.54-1.78-.77-2.75-.9-.44-.06-.87-.13-1.49-.22,.37,.79,1.05,.97,1.6,1.29,.6,.35,1.18,.72,1.79,1.05,.6,.32,1.23,.61,1.87,.92-.17,1.49-1.51,.89-2.5,1.39,.92,.39,1.74,.42,2.53,.57,.75,.15,1.58,.18,2.24,.52,1.12,.57,2.18,.15,3.3,.08-.93-1.34-2.64-1.27-3.82-2.17,1.01-.66,2.83-.04,5.14,1.76,.03-.34,.14-.65,.04-.76-.29-.33-.66-.58-1.02-.85-.35-.25-.83-.39-.77-.97,.85,.06,2.24,.75,2.61,1.27,.71,.99,.06,2.35-1.17,2.56-.58,.1-1.14,.36-1.71,.55-1.46,.48-2.94,.66-4.46,.44-.57-.09-.99,.04-1.43,.45-.25,.23-.72,.26-1.1,.3-.23,.03-.48-.13-.71-.13-1.16,.01-2.4-.14-2.92,1.33-.07,.21-.31,.38-.51,.52-1.79,1.27-3.58,2.54-5.38,3.8-.22,.16-.51,.22-.83,.25,1.96-2.16,4.79-3.32,6.68-5.67-.55-.37-.86-.12-1.2,.11-.97,.67-1.94,1.34-2.92,1.98-.18,.12-.42,.14-.63,.21l-.14-.23,2.42-1.97c-.76-.15-1.22,.03-1.67,.43-1.16,1.04-2.44,1.87-4.13,2.33,.35-.79,1.07-.95,1.57-1.35,.53-.42,1.12-.76,1.87-1.26-.44-.12-.65-.2-.86-.22-.65-.06-1.3-.13-1.94-.14-.34,0-.67,.14-1.01,.22-.42,.1-.85,.35-1.24,.29-1.2-.17-2.4-.4-3.58-.72-1.16-.31-2.28-.57-3.48-.27-.39,.1-.81,.1-1.21,.09-1.02-.03-2.03-.08-3.02,.29-.69,.26-1.35,.05-2.03-.16-1.63-.5-3.27-.97-4.92-1.4-.33-.09-.73,0-1.08,.08-2.14,.53-4.27,.44-6.38-.13-.08-.02-.16-.08-.23-.07-1.5,.26-2.88-.33-4.32-.52-.64-.09-1.39,.1-1.99,.39-.72,.34-1.41,.43-2.13,.25-1.34-.34-2.64-.44-3.94,.14-.26,.12-.65,.05-.94-.03-2.77-.81-5.6-1.03-8.46-1.04-1,0-2.02-.21-3.01-.39-.88-.16-1.76-.35-2.6-.65-2.38-.86-4.94-.95-7.3-1.9-1.65-.66-3.42-1.01-5.13-1.54-.7-.22-1.38-.49-2.04-.81-1.07-.52-2.08-.87-3.36-.53-.8,.21-1.73-.26-2.47-.83-.71-.54-1.44-1.06-2.22-1.5-1.59-.9-2.83-2.19-4-3.56-.34-.4-.54-.88-.34-1.65,.33,.34,.55,.54,.74,.77,1.41,1.78,3.12,3.21,5.05,4.39,.66,.4,1.27,.52,1.95-.2-.58-1.17-2.17-1.77-2.29-3.27l.22-.18c.25,.28,.5,.56,.74,.85,1.01,1.18,2.02,2.35,3.69,2.65,.46,.08,.86,.45,1.31,.65,1.3,.56,2.62,1.08,3.92,1.66,.78,.35,1.53,.77,2.29,1.15,.36,.18,.72,.34,1.03,.49,.47-.3,.41-.61,.17-.88-.96-1.07-1.79-2.19-3.45-2.45-1.25-.2-2.48-.72-3.78-.88-.38-.05-.81-.18-.79-.92l2.71,.42c-.38-.4-.72-.74-1.05-1.09-.61-.64-1.19-1.32-1.84-1.92-.4-.37-.9-.62-1.34-.91,.92-.33,1.2-.3,2.28,.28-.34,.45-.04,.78,.26,1.05,1.3,1.16,2.58,2.35,3.94,3.43,.42,.33,1.05,.45,1.83,.43-.27-.32-.41-.51-.57-.68-.79-.86-1.6-1.72-2.38-2.58-.64-.71-1.32-1.31-2.37-1.28-.23,0-.47-.24-.71-.38Zm32.74,12.18c-.15-.18-.18-.26-.25-.3-1.96-1.22-4.16-2.05-5.92-3.61-.13-.12-.38-.13-.57-.17-1.19-.24-2.38-.48-3.56-.72,1.13,1.24,2.23,2.51,3.65,3.49,1.75,1.2,3.48,2.1,5.67,1.39,.26-.08,.56-.05,.97-.09Zm40.67,2.25c-1.23-.79-1.36-.96-2.55-3.03-.12-.21-.43-.38-.68-.43-.39-.08-.81-.06-1.21-.05-.97,.02-1.94,.05-2.91,.1-.29,.01-.57,.08-.92,.13,.75,1.16,3.4,3.42,3.94,3.39l.31-.7c.34,.03,.62,.09,.9,.07,.27-.02,.54-.11,.77-.17q.76,.7,2.35,.7Zm-48.13-2.8c-.02-.1-.02-.21-.06-.24-1.57-1.13-2.75-2.62-3.94-4.11-.2-.26-.71-.41-1.06-.38-.59,.05-1.09,.04-1.62-.29-.39-.24-.88-.31-1.39-.08,.09,.18,.13,.29,.2,.38,1.34,1.66,3.01,2.91,4.8,4.06,.98,.63,1.95,.89,3.08,.66Zm34.6-.7l-.16,.18c.54,.46,1.1,.9,1.63,1.38,.52,.47,1.03,.89,1.75,1.04,.71,.14,1.41,.37,2.12,.57,.64,.18,1.24,.66,1.89,.51-.9-1.01-1.84-1.92-2.59-2.96-.33-.46-.63-.7-1.14-.71-1.16-.01-2.33,0-3.5,0Zm-17.21-2.08l-.14,.32c.17,.14,.33,.3,.51,.43,.55,.41,1.09,.83,1.67,1.2,.92,.59,1.84,1.17,2.79,1.7,.66,.37,1.3,.24,1.86-.3-.5-1-2.15-.99-1.91-2.46-1.63-.3-3.2-.59-4.78-.88Zm3.95,4.18c-1.32-.86-2.36-1.77-3.57-2.25-1.34-.53-2.83-.67-4.26-.93-.21-.04-.46,.18-.73,.29,.83,1,1.96,1.67,2.74,1.48,.43-.11,.69-.02,.99,.19,1.37,1.02,2.98,1.09,4.83,1.21Zm.75-7.33l-.2,.25c.41,.53,.87,1.03,1.21,1.6,.81,1.37,2.05,1.66,3.76,1.56-.41-.43-.67-.71-.93-.99-.36-.39-.84-.72-1.04-1.17-.58-1.34-1.67-1.3-2.79-1.26Zm-16.12,4.1l-.05,.38c2.29,1.17,4.6,2.26,7.36,1.64-1.09-.97-2.23-1.51-3.68-1.41-.62,.04-1.27-.26-1.9-.38-.57-.1-1.15-.16-1.73-.24Zm-29.09-2.98c.22,.24,.27,.33,.32,.34,.1,.02,.21-.02,.32-.03l-.64-.31Zm-3.03-1v-.14c-.06-.03-.14-.1-.19-.09-.08,.02-.15,.1-.22,.15l.41,.09Z"/><path d="M108,137.84c1-1.01,2-2.02,3-3.03,.24-.24,.5-.48,.9-.85,.1,.92-.59,1.34-.68,2.08,.38-.12,.77-.13,.95-.33,1.08-1.14,2.17-.46,3.23-.03,.52,.21,.97,.6,1.47,.87,.34,.18,.71,.3,1.06,.45l.14-.21c-1.06-1.4-2.13-2.8-3.21-4.23l-.84,1.26c-.54-.9-.98-1.64-.89-2.53,.26-2.71,.96-5.28,2.62-7.51,.21-.28,.35-.61,.59-1.04l-2.75-1.39c-.38,1.39-.66,2.67-1.07,3.89-.41,1.19-.95,2.33-1.44,3.49-.06,.15-.14,.33-.26,.4-.19,.11-.42,.14-.64,.21-.05-.22-.2-.46-.14-.64,.13-.42,.36-.82,.55-1.22,1-2.11,1.67-4.32,1.85-6.67,.02-.26,.18-.5,.35-.97,.63,1.16,1.67,1.29,2.6,1.62,.08,.03,.16,.09,.23,.08,1.42-.27,2.53,.65,3.79,.99,.19,.05,.39,.08,.58,.12l.18-.48c1.68,.66,3.33,1.31,4.95,1.94,.42-.28,.56-.83,1.18-.54,.39,.19,.81-.5,1.38-.14,.43,.27,1,.33,1.51,.45,.35,.09,.72,.14,1.08,.18,.38,.05,.86-.1,.86,.57,0,.08,.3,.2,.48,.25,.98,.25,1.97,.48,2.95,.73,.49,.13,.98,.29,1.42,.59-2.95-.28-5.84-.8-8.7-1.59,.71,.72,1.66,.78,2.49,1.12,.81,.34,1.66,.59,2.71,.95-1.45,.25-2.53-.27-3.65-.57-.74-.2-1.49-.38-2.24-.57-.4-.35-.78-.76-1.56-.55,.56,.44,1.03,.59,1.57,.53-.44,.56-1,.28-1.44,.11-1.13-.44-2.22-1.01-3.34-1.48-.89-.37-1.8-.68-2.75-.9,1.87,1.2,3.75,2.36,5.92,3.02-.3,.56-.58,.41-.91,.32-1.67-.47-3.1-1.43-4.59-2.25-.78-.43-1.56-.85-2.33-1.26-1.62,1.39-1.89,3.29-2.21,5.17-.05,.28,0,.58-.05,.85-.23,1.16,.11,2.02,1.13,2.7,.47,.31,.77,.91,1.11,1.4,.51,.74,.99,1.49,1.46,2.25,.26,.41,.54,.83,.7,1.28,.26,.71,.26,1.55,1.09,1.93,.47,1.53,1.88,2.41,2.58,3.79,.36,.7,.89,1.24,1.84,1.12,.31-.04,.69,.2,1,.38,1.35,.83,2.69,1.68,4.02,2.55,.4,.26,.82,.57,1.09,.95,1.33,1.91,2.87,3.64,4.55,5.25,.31,.3,.72,.54,.56,1.1-.17,0-.32,.05-.39,0-1.87-1.62-3.92-3.05-5.22-5.25-.26-.44-.66-.84-1.08-1.14-1.3-.89-2.64-1.73-3.97-2.58-.13-.08-.3-.16-.45-.16-1.2-.04-1.94-.69-2.45-1.71-.74-1.49-2.2-2.39-3.14-3.72-.09-.13-.24-.22-.38-.3-1.66-1-3.33-1.99-5.02-3.01-.48,.22-.95,.45-1.43,.66q-.99,.45-1.93-.11c-.66,.85-1.38,1.68-1.98,2.59-.28,.42-.49,.99-.47,1.48,.08,1.66,.04,3.35,.72,4.93,.13,.3,.1,.66,.15,1.11-1.02-.15-1.69-.6-2.25-1.16-.75-.75-1.23-1.65-1.62-2.67-.47-1.25-.56-2.54-.77-3.81-.2-1.15-.03-2.29,.67-3.27,.86-1.21,1.75-2.4,2.65-3.63,0,0-.12-.12-.19-.11-.91,.2-1.86,.32-2.72,.66-.66,.26-1.33,.7-1.78,1.24-.58,.69-1.26,1.14-2.05,1.48-.69,.3-1.29,.66-1.52,1.47-.14,.52-.56,.76-1.12,.78-.32,.01-.64,.1-.95,.18-1.29,.31-1.91,1.14-1.9,2.47,.01,.97,.02,1.94,0,2.91,0,.24-.15,.63-.31,.67-.25,.08-.66,.01-.85-.16-.25-.23-.43-.61-.48-.96-.22-1.45-.44-2.9-.53-4.36-.12-1.94,.47-3.6,2.2-4.7,.17-.11,.32-.24,.54-.41l-.48-.74c1.04-.31,2.07-.51,2.99-.94,.89-.42,1.68-1.08,2.51-1.63l-.1-.28c-.83-.02-1.66-.13-2.48-.04-1.83,.21-3.64,.35-5.46-.05-.81-.18-1.71,.18-1.85,.6-.21,.63,.24,2.06,.77,2.43,.13,.09,.28,.14,.42,.22,.03,.19,.05,.35,.07,.51,.14,1.06,.14,1.09-.87,1.26-.66,.11-1.13,.46-1.51,.95-.63,.81-1.49,1.22-2.4,1.6-.7,.29-1.36,.7-2.01,1.04,.06,.63,.1,1.11,.16,1.59,.11,.96,.15,1,1.31,1.2,.14,1.57,.22,3.19,.44,4.79,.15,1.04,.52,2.04,.76,3.06,.12,.55,.27,1.13,.2,1.67-.1,.69,.04,1.24,.39,1.83,.59,.97,.51,1.08-.33,1.84-1.34,1.21-2.56,2.5-3.23,4.23-.11,.3-.28,.61-.51,.82-.92,.83-1.88,1.63-2.99,2.33,.06-.2,.07-.44,.18-.61,.22-.34,.45-.7,.75-.96,1.14-.98,1.9-2.18,2.44-3.59,.23-.61,.82-1.09,1.27-1.61,.21-.24,.48-.44,.7-.67,.94-.95,1.34-1.1,.24-2.41-.2-.24-.26-.59-.37-.89-.28-.72-.58-1.43-.82-2.16-.15-.45-.27-.94-.27-1.41,0-.67,.33-1.35-.37-1.92-.14-.11-.08-.56-.02-.82,.22-.88-.04-1.69-.21-2.53-.25-1.19-.44-2.38-.58-3.59-.03-.24,.21-.62,.44-.78,.9-.62,1.84-1.18,2.78-1.76,.17-.11,.4-.14,.55-.26,.83-.7,1.65-1.42,2.43-2.1-.21-1.08-.47-2.1-.6-3.14-.12-1.05,.09-1.23,1.07-1.6,.92-.35,1.81-.34,2.74-.03,.49,.16,1.04,.26,1.55,.23,1.79-.1,3.57-.27,5.36-.43,.6-.05,1.19-.16,1.84-.25v.76c.09,0,.17,.01,.23-.02,1.06-.57,2.13-.97,3.37-.59,.45,.14,.97,.01,1.46,.06,.64,.05,.63,.07,1.15,.8-.8,.07-1.55,.19-2.31,.2-1.95,.01-3.65,.76-5.27,1.75-1.8,1.11-3.6,2.23-5.4,3.33-.65,.4-1.15,.89-1.33,1.66-.26,1.06-.62,2.11-.35,3.43,.56-.88,.95-1.7,1.52-2.36,.57-.66,1.3-1.18,2.05-1.83l.28-1.33,.81,.99c.09-.02,.18-.02,.24-.06,1.15-.84,2.24-1.76,3.44-2.51,1.94-1.21,4.12-1.37,6.41-1.31,.17,.84-.14,1.44-.73,1.84-1.28,.87-1.94,2.17-2.59,3.49-.55,1.11-.57,2.3-.29,3.47,.27,1.14,.63,2.27,.99,3.39,.12,.35,.39,.66,.81,.9,.01-.26,.08-.54,.03-.79-.35-1.67-.38-3.31,.38-4.89,.12-.25,.14-.55,.2-.83l-.02,.02Zm-20.3,11.83l.21-.07c-.07-.18-.13-.36-.21-.54,0,0-.16,.05-.15,.05,.05,.19,.1,.37,.16,.56Z"/><path d="M142.39,159.97l-.13,1.03c.53-.15,.62-.98,1.32-.86-.14,.87-1,2.2-1.71,2.41-.52,.15-.75,.47-.9,.89-.53,1.49-1.07,2.98-1.54,4.49-.33,1.09-.56,2.21-.81,3.32-.1,.47-.14,.95-.2,1.43-.02,.16,0,.34-.05,.48-.57,1.57-1.13,3.14-1.74,4.69-.1,.24-.45,.5-.7,.52-.39,.03-.66-.26-.69-.7,0-.04,0-.08,0-.12-.03-1.3-.12-2.6-.06-3.9,.03-.54,.37-1.06,.6-1.67-.63-1.34-.27-2.76,.01-4.18,.13-.64,.35-1.25,.53-1.88,.11-.37,.06-.83,.58-.98,.1-.03,.21-.26,.21-.4-.03-.63-.11-1.26-.19-2.12-.46,.3-.74,.43-.96,.63-.36,.33-.68,.7-1.01,1.06-.11,.12-.31,.25-.3,.36,.1,1.44-1.11,2.02-1.95,2.69-1.74,1.38-3.12,2.95-3.88,5.06-.15,.42-.53,.79-.88,1.1-.38,.35-.57,.71-.65,1.23-.07,.48-.32,.99-.64,1.36-.95,1.11-1.96,2.17-2.97,3.23-.39,.41-.84,.77-1.24,1.17-.27,.28-.52,.58-.75,.9-.2,.28-.2,.74-.76,.68-.4-.39-.08-.83-.02-1.23,.12-.84,.24-1.68,.44-2.5,.19-.79,.42-1.58,.72-2.33,.41-1.03,.91-1.96,1.82-2.75,1.65-1.42,2.56-3.45,3.77-5.23,.43-.63,.96-1.2,1.44-1.79,.1-.13,.25-.22,.34-.35,1.08-1.81,2.16-3.62,3.35-5.61-.58,0-1.03-.09-1.42,.02-1.52,.43-3.05,.86-4.53,1.4-.87,.32-1.66,.85-2.49,1.28-.18,.09-.37,.2-.56,.23-1.68,.25-3.05,1.17-4.45,2.04-.69,.43-1.41,.81-2.13,1.19-.48,.25-1,.45-1.53,.69-.28-.61-.04-1.16,.29-1.59,1.32-1.7,2.58-3.5,4.62-4.43,1.44-.66,2.95-1.17,4.43-1.73,1.83-.69,3.57-1.56,5.19-2.67,.69-.47,1.31-1.11,2.32-.76,.26,.09,.67-.22,.99-.37,.57-.28,1.13-.58,1.69-.87l.18,.19c-.12,.21-.18,.51-.36,.61-1.06,.61-2.09,1.33-3.23,1.7-1.3,.43-2.44,1.1-3.63,1.72-1.12,.58-2.26,1.12-3.39,1.67-.49,.24-.98,.47-.71,1.2,.6,.14,1.01-.26,1.45-.51,1.72-.98,3.52-1.73,5.49-1.96,1.2-.14,2.43-.06,3.65-.03,.18,0,.36,.25,.54,.39-.17,.19-.32,.5-.52,.54-1.4,.28-2.08,1.23-2.67,2.43-.71,1.46-1.57,2.85-2.45,4.22-1.16,1.81-2.4,3.57-3.6,5.36-.07,.1-.08,.23-.12,.34,.97,.52,1.8,.32,2.17-.61,.78-1.97,1.91-3.66,3.62-4.98,.42-.32,.58-.96,.96-1.37,.6-.66,1.28-1.25,1.92-1.88,.69-.69,1.4-1.37,2.06-2.08,.45-.48,.88-.53,1.52-.04-.27,2.84-.55,5.77-.85,8.82,.29-.13,.5-.15,.56-.25,.5-1,1.05-1.96,1.07-3.17,.02-1.17,.31-2.33,.49-3.49,.01-.08,.05-.17,.11-.21,.97-.7,1.3-1.84,1.93-2.77,.17-.24,.47-.4,.71-.59l.27,.15Zm-19.76,18.96c.29-.39,.51-.61,.64-.87,.65-1.3,1.15-2.69,2.29-3.7,.14-.13,.18-.56,.07-.72-.22-.32-.59-.28-.84,.01-.63,.74-1.38,1.44-1.8,2.29-.39,.82-.69,1.79-.37,2.99Zm13.44-2.89h.34c.53-1.58,1.25-3.12,1.26-4.9-.41,.22-.84,.46-.95,.81-.29,.92-.47,1.88-.65,2.83-.07,.41-.01,.84-.01,1.26Zm-16.89-12.12c.31-.15,.67-.24,.91-.46,.62-.55,1.25-.94,2.15-.87,.59,.05,.68-.27,.43-1.15-.58,.28-1.13,.64-1.73,.81-.89,.24-1.33,.9-1.77,1.67Zm16.8,6.32l.32,.08,.59-2.66-.31-.07-.59,2.65Z"/><path d="M155.76,130.49c-.56,1.74-1.07,3.49-1.71,5.2-.59,1.56-1.41,3.03-1.99,4.59-.72,1.95-1.23,3.97-1.95,5.92-.79,2.13-1.13,4.31-1.27,6.56-.04,.63-.26,1.26-.41,1.89-.43,1.82-.09,3.55,.61,5.23,.1,.24,.14,.52,.22,.84-.91-.05-.76-.93-1.21-1.27-.58,.95-.5,1.66,.26,2.29,.88,.73,1.7,1.54,2.64,2.17,1.32,.88,2.72,1.64,4.11,2.4,.3,.16,.72,.07,1.07,.14,.79,.16,1.59,.3,2.36,.55,.66,.22,.99,.79,1.24,1.43,.68,1.75,1.38,3.48,2.06,5.23,.13,.33,.19,.7,.22,1.06,.18,2.16,.64,4.22,1.41,6.28,1.21,3.21,3.49,5.27,6.25,7.08,2.88,1.89,5.91,3.45,8.99,4.92,.76,.36,1.61,.55,2.43,.78,1.93,.52,3.66,1.38,5.05,2.85,.78,.83,1.73,1.15,2.85,1.17,1.87,.04,3.75,.05,5.61,.22,2.13,.19,3.98,1.11,5.59,2.51,.08,.07,.08,.22,.13,.4-.59,.33-1.09,.05-1.58-.19-.8-.39-1.59-.82-2.39-1.21-1.44-.7-2.97-.74-4.54-.71-1.42,.03-2.85-.08-4.27-.16-.77-.05-1.37-.42-1.9-1-1.42-1.54-3.2-2.49-5.22-2.98-1.35-.33-2.65-.78-3.81-1.58-.46-.32-1.01-.51-1.54-.72-1.56-.61-2.99-1.45-4.34-2.46-.98-.73-2.05-1.32-3.07-1.99-.61-.4-1.21-.83-1.81-1.25-1.59-1.1-2.32-2.8-3.1-4.46-1.13-2.43-1.61-5.01-1.92-7.66-.13-1.14-.7-2.24-1.09-3.35-.19-.54-.42-1.06-.6-1.59-.56-1.62-1.39-2.19-3.13-2.05-.79,.06-1.42-.24-2.03-.68-.46-.33-.91-.73-1.43-.91-2.1-.73-3.31-2.6-5.01-3.85-.2-.15-.27-.57-.29-.87-.05-.56-.01-1.13-.01-1.67-1.18-.68-1.95,.64-2.95,.45-.09-.81,.19-1.27,1.02-1.39,.64-.1,1.32,0,2.08,.01,0-.29,.05-.73,0-1.15-.32-2.16-.25-4.3,.28-6.43,.06-.24,.18-.48,.16-.71-.18-2.07,.86-3.77,1.62-5.56,.19-.45,.42-.81,.05-1.35-.17-.25,.04-.85,.21-1.23,.18-.4,.49-.75,.78-1.09,1.02-1.21,1.28-2.78,1.96-4.15,.9-1.82,1.66-3.72,2.47-5.58,.18-.42,.34-.85,.88-.91h-.02Z"/><path d="M207.19,79.33c-.03-.12-.02-.27-.1-.35-1.71-1.93-2.95-4.34-5.55-5.36-.42-.16-.74-.57-1.11-.86l.11-.22c.2,.03,.43,0,.6,.09,.87,.44,1.8,.81,2.57,1.4,1.03,.78,2.04,.72,3.1,.27,2.74-1.14,5.46-2.33,8.2-3.47,1.31-.54,2.63-1.12,3.99-1.49,2.67-.73,5.02-2.11,7.44-3.36,2.78-1.43,5.08-3.51,7.59-5.32,.97-.7,1.95-1.39,2.89-2.16-.89,.23-1.67,.83-2.96,.54,4.35-2.7,8.21-5.62,11.85-8.83-1.91,.47-3.37,1.94-5.35,2.2-.08,.01-.18-.11-.41-.25,2.56-1.48,5.24-2.59,7.39-4.69l-.56-.46c.57-1.47,1.9-2.53,2.33-4.25-1.92,.5-2.77,2.28-4.17,3.27l-.26-.25c.08-.24,.1-.54,.25-.72,.64-.73,1.25-1.53,2.01-2.12,1.44-1.1,2.53-2.39,3.04-4.15,.03-.1,.17-.16,.29-.26,1.13,.56,.3,1.63,.63,2.37,.48,1.04-.93,1.38-.73,2.35l.79,.04c-.26,.47-.47,.88-.7,1.27-.93,1.62-1.84,3.25-2.8,4.85-.42,.69-.92,1.34-1.46,1.95-.92,1.02-2.02,1.83-2.63,3.15-.31,.68-1.13,1.14-1.76,1.66-1.21,1.02-2.44,2.02-3.68,3-.76,.6-1.57,1.16-2.36,1.71-2.4,1.68-4.75,3.44-7.23,4.98-2.21,1.37-4.57,2.5-6.87,3.72-.93,.49-1.91,.9-2.82,1.44-2.1,1.24-4.42,1.82-6.72,2.54-1.89,.59-3.72,1.37-5.83,2.16,1.61,1.36,2.93,2.64,3.96,4.56-1.21-.47-1.7-1.41-2.58-2-.12,.37,.44,1.05-.4,1.05l.02,.02Z"/><path d="M239.01,30.36l-2.51,.35c.12-.93,1.5-.78,1.14-1.88-.22,.02-.48,0-.67,.08-1.11,.5-2.24,.97-3.31,1.55-.51,.28-.89,.79-1.36,1.16-.51,.4-1.01,.83-1.57,1.14-2.4,1.32-4.48,3.08-6.63,4.75-1.87,1.44-3.84,2.73-5.74,4.12-1.08,.79-2.11,1.64-3.15,2.48-1.64,1.33-3.25,2.7-4.91,4.02-1.08,.86-2.21,1.65-3.33,2.45-.28,.2-.6,.34-1.05,.33,.13-.16,.22-.36,.38-.48,.87-.66,1.78-1.28,2.63-1.97,1.16-.95,2.27-1.95,3.4-2.93,.23-.14,.46-.29,.7-.43l-.15-.17-.54,.61c-.3,.11-.67,.14-.89,.33-1.71,1.51-3.92,2.34-5.45,4.08-.1,.12-.34,.11-.6,.19,.01-.7,.47-.92,.84-1.18,2.42-1.72,4.86-3.41,7.26-5.15,2.27-1.65,4.5-3.36,6.78-5,1.85-1.33,3.79-2.54,5.62-3.89,1.5-1.11,2.89-2.37,4.34-3.55,1.81-1.46,3.89-2.35,6.12-2.93,.28-.07,.55-.15,.82-.24,1.34-.49,1.37-.49,2.15,.81,.33-.07,.68-.16,1.03-.23,1.79-.39,3.57-.78,5.37-1.14,.32-.06,.65-.06,.98-.04,.97,.06,1.29,.62,.88,1.49-.2,.42-.41,.84-.72,1.46,1.06-.09,1.65-.59,2.29-.99,.43-.27,.77-.86,1.37-.61,.71,.29,.19,.94,.3,1.42,.19,.84,.02,1.82,.95,2.38,.11,.07,.17,.29,.17,.44,0,.7,.36,1.23,.74,1.77,.3,.43,.38,.88-.02,1.39-.35-.2-.71-.59-.98-.53-.49,.11-.96,.43-1.36,.75-.51,.4-.92,.92-1.4,1.36-1.1,1.02-2.21,2.03-3.33,3.03-.39,.35-.83,.64-1.58,.31,.59-.47,1.1-.84,1.58-1.25,1.68-1.42,3.34-2.85,5.02-4.28,.77-.65,.78-.7,.2-1.81l-2.4,1.39c.03-.95,1.49-1.06,.98-2.07,.41-.63,1.01-1.23,.42-2.18-2.52,1.24-4.35,3.39-6.61,5.23,.2-.91,.79-1.59,1.86-2.45,.79-.63,1.51-1.34,2.21-2.15l-2.17,.86c-.12-.86,.07-1.48,.52-2.03,.49-.6,.83-1.26,1.04-2.11-.98-.06-1.72,.24-2.45,.57-1.52,.69-3.03,1.41-4.56,2.07-.41,.18-.88,.2-1.32,.3l-.12-.28c.28-.25,.57-.5,.85-.75,.29-.08,.57-.15,.86-.23l-.07-.19-.77,.43Zm-9.29,2.12l.2,.29,1.44-.84-.15-.25-1.5,.8Z"/><path d="M108.11,19.41c2.29-.14,4.56-.62,6.87,0,.95,.26,2.02,.07,3.02,.17,2.69,.27,5.28,.98,7.8,1.95,2.77,1.07,5.54,2.13,8.28,3.24,1.32,.54,2.62,1.13,3.88,1.8,1.72,.92,3.38,1.95,5.08,2.9,1.81,1,3.65,1.96,5.48,2.94,3.08,1.65,6.4,2.82,9.41,4.65,1.33,.8,2.54,1.75,3.85,2.55,1.31,.8,2.76,1.36,4.14,2.05,1.53,.76,3.04,1.55,4.57,2.31,.5,.25,1.03,.43,1.55,.64,.15,.06,.31,.09,.45,.16,1.51,.87,3.01,1.76,4.54,2.61,1.77,.98,3.46,2.12,5.42,2.74,.11,.04,.22,.1,.47,.23-.94,.48-1.6,.82-2.38,.16-.36-.3-.85-.45-1.27-.68-1.53-.84-3.05-1.71-4.59-2.53-1.07-.57-2.17-1.09-3.26-1.64-2.29-1.15-4.58-2.3-6.87-3.45-.41-.2-.74-.64-1.31-.27-.13,.08-.49-.21-.75-.31-1.2-.5-2.4-1-3.6-1.49-.15-.06-.4-.16-.46-.1-.74,.74-1.32,.06-1.96-.19-1.21-.47-2.44-.91-3.64-1.4-.42-.17-.8-.47-1.11-.84,1.58,.6,3.16,1.2,4.75,1.79,.67,.25,1.39-.08,1.78-.8l1.03,.5c-.76-.87-1.8-1.29-2.78-1.77-2.02-.97-4.08-1.84-6.11-2.79-2.4-1.13-4.7-2.43-6.88-3.94-.8-.56-1.63-1.1-2.5-1.52-2.45-1.18-4.7-2.75-7.3-3.63-1.42-.48-2.87-.9-4.26-1.47-1.5-.62-2.91-1.48-4.42-2.06-1.55-.6-3.16-1.06-4.78-1.44-.58-.14-1.27,.23-1.89,.17-1.5-.14-2.98-.42-4.47-.59-.88-.1-1.78-.15-2.67-.12-1.07,.04-2.09-.1-3.09-.48Z"/><path d="M89.05,46.24l-3.19-.86c-.09,.07-.19,.11-.2,.17-.13,1.17-.73,1.64-1.87,1.34-.58-.15-1.13-.44-1.68-.7-.65-.31-1.3-.63-2.15-.51,.01,.32-.05,.62,.05,.84,.27,.55,.15,.98-.19,1.46-.58,.84-1.07,1.74-2.22,1.94-.21,.03-.37,.3-.57,.44-.98,.69-1.96,.75-3.09,.23-1.11-.52-1.81-1.36-2.4-2.34-.61-1.01-.32-3.25,.5-4.11,.48-.5,.89-1.07,1.42-1.5,1.66-1.32,4.34-.91,5.46,.91,.72,1.16,1.79,1.54,3.07,1.95l-.45-.73c1.25,.05,1.89,1.28,3.05,1.38,.22-.9-.51-1.28-.86-1.84,.91-.19,4.21,.96,5.31,1.93Zm-13.87-2.5c-.73,.42-1.34,1-1.27,1.86,.06,.77,.86,.82,1.52,1.02l.94-1.59-1.19-1.29Z"/><path d="M93.31,107.46c.67,.63,1.24,1.37,2.3,1.45,.3,.02,.66,.59,.79,.98,.34,.96,1.2,1.22,1.97,1.37,.39,.08,.76,.12,1.09,.33,1.67,1.08,3.28,2.26,5.02,3.22,2.8,1.54,5.55,3.25,8.74,4.13-.45-.67-.46-.64-1.02-.9-1.1-.51-2.2-1.03-3.28-1.58-.22-.11-.35-.37-.45-.67,3.36,1.2,6.52,2.78,9.53,4.67-.83,.06-1.57-.21-2.24-.6-.55-.32-1.05-.48-1.71-.38-1.06,.17-2.1-.06-3.11-.44-.94-.36-1.83-.78-2.88-.9-.78-.09-1.53-.69-2.24-1.14-.83-.51-1.63-1.01-2.6-1.26-.72-.19-1.43-.59-2.04-1.04-1.78-1.32-3.51-2.71-5.25-4.08l-.2,.23,1.32,1.28-.17,.19c-2.83-1.66-5.38-3.65-7.4-6.3,1.31,.28,1.83,1.71,3.17,2.15,.05-.71-.4-1.01-.75-1.37-.48-.5-.94-1.01-1.43-1.49-.87-.85-1.75-1.7-2.66-2.51-1.4-1.23-2.84-2.42-4.25-3.64-.51-.44-1.04-.9-1.07-1.77,1.23,1.04,2.41,1.98,3.52,2.99,1.71,1.55,3.4,3.13,5.07,4.73,.79,.76,1.51,1.59,2.26,2.38v-.02Z"/><path d="M170.47,115.07c.29-.33,.61-.64,.86-1,.15-.21,.21-.49,.34-.83,2.14-.77,4.34-1.68,6.31-3.08,.16-.11,.37-.16,.56-.24,.11,.39,.36,.42,.63,.19,.44-.37,.84-.77,1.26-1.15l-.14-.18c-.59,.39-1.18,.77-1.76,1.16l-.4-.49,3.53-2.16-.29-.52c.25-.15,.52-.26,.73-.44,.51-.44,1.3-.12,1.79-.83,.36-.51,1.19-.66,1.75-1.06,1.77-1.25,3.81-2.2,5.06-4.18v1.14c.44-.61,.69-.99,.98-1.34,.53-.66,1.08-1.32,1.64-1.97,.51-.59,1.02-1.17,1.08-2,0-.11,.09-.23,.17-.32,.91-1.09,1.8-2.22,2.76-3.27,.79-.87,1.68-1.65,2.54-2.46,.15-.14,.36-.22,.66-.4,0,.7-.4,1.01-.69,1.36-.98,1.2-2.02,2.35-2.94,3.59-.77,1.04-1.41,2.18-2.09,3.28-1.28,2.04-2.92,3.66-5.1,4.76-1.04,.52-1.93,1.34-2.87,2.05-1.27,.95-2.52,1.92-3.8,2.87-.39,.29-.73,.56-.99,1.02-.35,.62-.95,1.1-1.46,1.61-1.11,1.11-2.28,2.15-3.64,2.97,.2-.88,1.04-1.17,1.51-1.81-2.5,.84-4.92,1.81-6.75,3.79l-1.22-.07h.01Z"/><path d="M65.41,34.03c.93-1.16,1.85-2.33,2.8-3.47,.44-.53,.94-1.01,1.44-1.49,.49-.48,1.01-.82,1.74-1.02,.99-.27,1.9-.88,2.54-1.76,.16-.22,.33-.49,.56-.61,2.19-1.16,4.21-2.64,6.67-3.27,1.06-.27,2.05-.78,3.1-1.11,1.02-.33,2.03-.6,3.16-.32,.77,.19,1.56-.07,2.34-.43,1.09-.51,2.28-.92,3.47-1.09,2.54-.37,5.09-.63,7.65-.81,1.29-.09,2.59,.16,3.89,.16,.96,0,1.92-.17,2.95-.04-.1,.06-.2,.15-.31,.17-1.8,.3-3.6,.62-5.41,.88-1.73,.25-3.49,.35-5.2,.66-3.24,.59-6.49,1.06-9.78,1.23-.2,.01-.47,.07-.59-.03-.71-.57-1.28-.15-1.91,.16-.65,.32-1.41,.48-2,.89-1.39,.98-3.03,1.36-4.51,2.08-1.97,.96-3.78,2.24-5.64,3.41-.44,.28-.79,.68-1.4,.63-.19-.02-.44,.19-.59,.35-.81,.9-1.55,1.87-2.4,2.73-.78,.78-1.27,1.94-2.57,2.11h0Zm34.32-14.59v.06h1.12v-.06h-1.12Z"/><path d="M156.49,120.94c.31,.49,.1,.94-.08,1.39-.9,2.23-1.8,4.45-2.71,6.68-.61,1.51-1.18,3.03-1.88,4.5-1.09,2.31-2.22,4.62-3.45,6.87-.66,1.21-1.52,2.31-2.34,3.43-.92,1.27-1.47,2.71-1.99,4.16-.29,.8-.46,1.64-.78,2.43-.2,.48-.36,1.08-1.21,1.34l.66-3c-.92,.58-1.7,1.15-1.82,2.3-.09,.89-.77,1.53-1.43,2.06-1.54,1.26-3.18,2.39-4.49,3.9-.09,.1-.26,.12-.58,.26,.42-1.02,1.01-1.68,1.61-2.29,.89-.9,1.88-1.68,2.78-2.57,.57-.57,1.2-1.16,1.53-1.87,.7-1.51,1.67-2.88,2.82-3.95,1.09-1.02,1.47-2.38,2.36-3.46,.91-1.11,1.56-2.44,2.3-3.7,2.12-3.63,3.75-7.48,5.26-11.4,.86-2.24,1.93-4.39,2.93-6.57,.09-.2,.32-.34,.49-.51h0Z"/><path d="M196.18,67.83c-.4-.5-.95-.94-.7-1.63-1.28-1.27-2.9-1.76-4.4-2.46-.93-.43-1.56-1.1-2.16-1.89,1.2,.67,2.4,1.34,3.6,2l.14-.21c-.76-.74-1.48-1.53-2.3-2.19-.83-.67-1.75-1.21-2.57-1.91,1.09-.36,1.58,.74,2.4,.98l.21-.25c-.29-.21-.59-.4-.85-.63-2.13-1.82-4.31-3.57-6.2-5.66-.82-.91-2.02-1.47-3.05-2.19-.22-.15-.43-.3-.87-.61,.48-.05,.71-.15,.89-.08,1.43,.54,2.63,1.43,3.72,2.48,.4,.39,.82,.77,1.23,1.14,.12,.11,.27,.18,.39,.29,1.6,1.56,3.19,3.13,4.78,4.69,.35,.34,.7,.68,1.06,.99,.34,.29,.79,.48,.57,1.07-.04,.1,.09,.31,.2,.4,.86,.74,1.72,1.48,2.62,2.17,.56,.43,1.18,.13,1.77,.03v-.02l-.41,.75c.67,.53,1.32,1.06,1.98,1.57,.64,.5,1.33,.94,1.94,1.48,.6,.52,1.51,.71,1.87,1.66-.81,.17-1.26-.45-1.94-.44l4.61,3.56c-1.12,.18-1.82-.43-2.55-1.01-1.43-1.14-2.86-2.27-4.34-3.35-.48-.35-1.09-.52-1.65-.78h0Zm2.6,.3l-.18,.21,.58,.36,.11-.16-.5-.41Z"/><path d="M28.98,71.38c.24-.23,.45-.53,.74-.69,3.31-1.83,6.66-3.6,9.95-5.46,1.34-.76,2.53-1.76,3.85-2.55,1.32-.79,2.71-1.48,4.08-2.19,.2-.1,.51-.16,.7-.08,.23,.09,.44,.33,.54,.56,.04,.09-.24,.4-.43,.47-2.37,.93-4.47,2.3-6.53,3.77-1.48,1.05-3.18,1.79-4.8,2.66-2.19,1.18-4.37,2.36-6.57,3.5-.4,.21-.87,.26-1.31,.39l-.21-.39Z"/><path d="M147.79,126.24c-.94,.51-1.87,.76-2.92,.52-1.75-.4-3.5-.79-5.25-1.15-.85-.18-1.71-.31-2.6-.32,1.2,.58,2.38,1.17,3.87,1.05-.75,.52-.75,.48-1.97,.4-.67-.04-1.35,.07-2.22,.12l.45-.61c-2.8-1.53-5.93-2.27-8.75-3.74,.54-.29,1.02-.1,1.48,.08,1.44,.57,2.87,1.15,4.3,1.72,.22,.09,.54,.27,.68,.19,.79-.47,1.59-.13,2.38-.09,.62,.04,1.09-.07,1.34-.61,3.1,.83,6.12,1.63,9.21,2.45Z"/><path d="M100.47,47.1c-.89,.63-1.56,.33-2.01,.25-.54,.37-.92,.69-1.35,.9-.5,.25-.95-.01-1.36-.29-.84-.57-1.73-1.07-2.51-1.71-1.09-.9-2.33-1.28-3.7-1.38-.71-.05-1.41-.17-2.09-.37,2.65-.44,5.06-.13,7.01,1.98,.67,.73,1.57,1.27,2.78,1.37-.07-.3-.05-.56-.17-.7-.46-.51-.99-.96-1.46-1.47-.33-.36-.71-.72-.89-1.15-.39-.92-.9-1.67-2.03-1.83l.16-.28,5.13,1.68-.08,.31-2.75-.72-.11,.28c1.5,1.41,3.14,2.59,5.44,3.14Z"/><path d="M148.02,72.47c1.2,1.72,2.29,3.48,4.37,4.32-1.96,.06-3.75-.88-5.83-.78,.85,1.99,2.03,3.48,3.82,4.66-1.01,.39-1.65-.06-2.13-.62-.8-.92-1.68-1.84-2.17-2.92-.68-1.52-1.92-2.49-2.94-3.68-.45-.52-.86-1.07-1.25-1.64-.09-.13-.05-.36-.09-.81,.93,1.04,1.73,1.84,2.4,2.74,.7,.95,1.59,1.47,2.73,1.63,.8,.11,1.59,.25,2.51,.39-.36-1.23-1.75-1.9-1.42-3.29Z"/><path d="M223.34,56.14c-.29,.2-.55,.45-.87,.59-2.29,.99-4.28,2.49-6.37,3.81-2.41,1.52-4.87,2.96-7.32,4.41-1.47,.87-2.96,1.7-4.45,2.54-.27,.15-.57,.24-.85,.36l-.15-.21c.38-.31,.73-.68,1.15-.93,2.97-1.75,5.97-3.47,8.94-5.23,1.82-1.08,3.6-2.21,5.4-3.31,1.41-.86,2.89-1.55,4.39-2.23l.12,.21Z"/><path d="M26.96,99.75c-1.65-5.17-2.76-10.4-2.47-15.97,.68,.34,.67,.88,.74,1.32,.13,.92,.26,1.86,.26,2.79,.02,3.12,.78,6.11,1.41,9.13,.19,.9,.32,1.8,.06,2.73Z"/><path d="M203.58,51.84c-1.65,1.82-3.77,3.07-5.69,4.56-.51,.4-1.07,.77-1.67,1-1.7,.66-3.28,1.49-4.57,2.83l-.19-.21c.37-.39,.69-.85,1.12-1.15,.92-.65,1.92-1.2,2.86-1.84,1.54-1.06,3.07-2.14,4.58-3.25,1.41-1.03,2.79-2.11,4.19-3.16,.15-.11,.34-.16,.57-.26,.12,.67-.47,.79-.66,1.15-.18,.11-.36,.21-.53,.32Z"/><path d="M244.56,38.51c.14,.66-.27,.93-.6,1.19-3.39,2.74-6.79,5.47-10.17,8.21-.82,.67-1.6,1.38-2.41,2.07-.27,.23-.56,.45-.84,.67l-.2-.16c.19-.25,.35-.55,.59-.75,1.56-1.36,3.14-2.71,4.71-4.06,.95-.82,1.87-1.69,2.88-2.43,1.8-1.34,3.55-2.73,5.09-4.36,.14-.14,.32-.25,.5-.34,.1-.05,.23-.03,.45-.04Z"/><path d="M60.85,48.27l-.62-1.28c.34,0,.57-.05,.76,0,1.05,.35,1.95,.94,2.83,1.64,.77,.62,1.76,.97,2.68,1.39,.51,.23,1.08,.36,1.61,.54,.58-.74,1.36-.65,2.38-.66-1,1.38-2.19,1.37-3.49,1.08l.23,.68c-.56,.19-.92-.17-1.31-.41-.88-.55-1.53-1.45-2.67-1.65-.32-.06-.57-.55-.86-.83-.56-.55-.68-.59-1.55-.49Z"/><path d="M229.71,47.74c.12-.21,.19-.46,.35-.62,1.47-1.33,2.87-2.72,4.56-3.83,2.33-1.54,4.48-3.36,6.69-5.08,.49-.38,.97-.8,.58-1.56,1.02,.1,1.28,.45,.81,1.07-.44,.57-.98,1.09-1.56,1.52-2.74,2.05-5.51,4.04-8.25,6.09-.82,.61-1.56,1.31-2.36,1.94-.24,.19-.56,.3-.84,.45h.01Z"/><path d="M184.4,104.49l1.46-1.59c-1.46,.27-2.62,1.28-4.04,1.56l-.13-.25c.92-.54,1.86-1.06,2.77-1.63,.96-.6,1.88-1.26,2.84-1.86,1.2-.75,2.42-1.46,3.69-2.12-1.9,2.29-4.05,4.31-6.39,6.12l-.21-.23Z"/><path d="M209.11,51.12c.25-.26,.47-.56,.75-.77,1.72-1.28,3.44-2.57,5.2-3.81,1.26-.89,2.54-1.77,3.88-2.53,1.96-1.1,3.7-2.51,5.5-3.84,.2-.15,.45-.24,.67-.36l.18,.23c-.36,.33-.69,.72-1.1,.99-2.83,1.93-5.68,3.81-8.5,5.75-1.2,.83-2.33,1.76-3.51,2.62-.95,.68-1.93,1.31-2.9,1.96l-.17-.24Z"/><path d="M22.76,78.11c-.27-.14-.56-.2-.73-.38-.95-1.01-1.93-2-2.77-3.08-.64-.83-1.08-1.81-1.66-2.69-.47-.71-1.04-1.36-1.5-2.07-.37-.57-.94-1.12-.61-2.13,.98,.7,1.15,1.84,1.87,2.58,.75,.77,1.21,1.81,1.85,2.71,.61,.86,1.22,1.73,1.93,2.51,1.66,1.84,1.68,1.82,1.64,2.57Z"/><path d="M228.17,59.28c.85-.66,1.7-1.32,2.55-1.97,2.35-1.8,4.71-3.58,7.04-5.41,.41-.32,.68-.8,1.06-1.17,.39-.39,.82-.75,1.68-.51-3.74,3.71-7.81,6.67-12.11,9.31l-.21-.25Z"/><path d="M74.29,36.92c2.66-1.36,5.56-1.74,8.46-2.1,.79-.1,1.62-.03,2.5,.66-.43,.04-.63,.06-.84,.08-1.01,.11-2.02,.19-3.02,.34-1.37,.2-2.73,.42-4.09,.68-.64,.12-1.24,.38-1.87,.52-.36,.08-.74,.07-1.12,.1l-.02-.28Z"/><path d="M211.48,70.37c.37-.22,.73-.45,1.11-.66,1.04-.56,2.06-1.16,3.12-1.66,1.64-.78,2.9-2.09,4.39-3.08,1.11-.74,2.27-1.42,3.43-2.09,.32-.19,.74-.4,1.15,.09-.08,.11-.15,.3-.26,.33-1.93,.45-3.35,1.78-4.92,2.86-2.41,1.66-4.77,3.41-7.57,4.41-.1,.04-.22,.04-.32,.06l-.13-.25Z"/><path d="M24.91,38.66c.39,.9,.45,1.76,.2,2.64-.29,1.02-.56,2.05-.77,3.08-.31,1.46-.97,2.76-1.71,4.03-.08,.13-.23,.22-.37,.35-.47-.24-.41-.57-.23-.92,.24-.47,.47-.95,.73-1.41,.68-1.23,.75-2.63,1.16-3.94,.4-1.26,.67-2.56,1-3.84Z"/><path d="M200.31,65.26c2.24-1.2,4.54-2.29,6.7-3.63,2.11-1.31,4.06-2.86,6.14-4.23-2.31,2.43-10.09,8-12.84,7.86Z"/><path d="M81.25,59.91c-.72-.12-1.22-.21-1.71-.29-.47-.07-.95-.12-1.42-.2-.15-.02-.34-.05-.45-.15-1.57-1.29-3.13-2.6-4.68-3.91-.06-.05-.04-.21-.07-.42,1.1,.24,1.91,.81,2.57,1.59,.37,.44,.75,.73,1.33,.96,1.4,.54,2.71,1.29,4.06,1.96,.09,.04,.14,.16,.38,.46Z"/><path d="M176.6,79.32c-.59-.13-1.19-.24-1.76-.41-.18-.06-.31-.29-.68-.67l5.36,.81c-.68-1.3-2.01-1.89-2.29-3.26,1.54,.79,2.38,2.44,4,3.13-.24,.57-.57,.8-1.15,.73-1.17-.14-2.34-.24-3.51-.35h.03Z"/><path d="M170.13,46.63c-.93,.57-1.57,.52-2.3,0-1.02-.74-2.06-1.43-2.65-2.62-.15-.29-.56-.44-.83-.68-.21-.19-.38-.42-.47-.75,1.82,1.16,3.99,1.66,5.59,3.13l-.14,.27-2.9-1.51c.79,1.37,2.19,1.65,3.7,2.16Z"/><path d="M137.87,74.82l3.15,.35c-.22,.2-.3,.28-.39,.36-.09,.07-.19,.14-.44,.31,.51,.73,.96,1.5,1.53,2.16,.58,.66,1.29,1.2,2.03,1.88-.68,.25-1.17-.03-1.58-.35-1-.79-1.91-1.7-2.41-2.87-.34-.8-.8-1.27-1.65-1.38-.1-.01-.2-.13-.29-.2l.03-.26Z"/><path d="M170.95,117.6c-.67,.33-1.29,.75-1.97,.93-1.65,.46-2.93,1.55-4.35,2.4-.55,.33-1.1,.64-1.68,.97-.35-.45-.46-.8-.02-1.02,2.57-1.27,4.99-2.88,7.86-3.46,.02,0,.05,.05,.16,.17Z"/><path d="M125.68,116.31l4.56,1.58,.12-.28-2.83-1.16,.1-.26c.82,.04,1.52,.52,2.29,.75,.81,.23,1.62,.44,2.63,.7-1.14,.71-2.04,1.03-3.17,.47-.86-.43-1.85-.61-2.76-.94-.39-.14-.73-.41-1.1-.62l.17-.22Z"/><path d="M143.1,122.68c1.28,.39,2.69,.12,3.9,.99,.42,.3,1.1,.42,1.63,.36,1.51-.18,2.58,.72,3.76,1.45-.37-.09-.74-.18-1.11-.26-1.5-.34-3-.68-4.5-1.03-.91-.21-1.82-.4-2.71-.66-.39-.11-.73-.38-1.09-.58l.12-.26Z"/><path d="M207.16,79.31c.61,.65,1.22,1.3,1.82,1.96,.25,.27,.51,.53,.68,.85,.09,.17,.08,.52-.04,.66-.11,.13-.49,.2-.63,.11-.61-.4-1.44-.55-1.55-1.54-.05-.42-.54-.78-.79-1.19-.35-.57-.26-.7,.54-.83l-.02-.02Z"/><path d="M214.88,64.83c-1.07,1.28-6.51,4.55-7.68,4.62,2.36-1.87,5.04-3.2,7.68-4.62Z"/><path d="M66.23,68.66c1.44,1.47,2.89,2.93,4.33,4.4,.07,.07,.07,.22,.15,.48-.3-.1-.53-.13-.7-.25-.66-.46-1.3-.96-1.94-1.44-.15-.12-.36-.21-.45-.36-.53-.9-1.03-1.81-1.54-2.72l.15-.11Z"/><path d="M85.48,102.58l-1.27-1.26c.31-.53,.61-.21,.87,.04,.97,.93,1.95,1.85,2.89,2.8,.39,.4,.71,.87,1.1,1.34-.18-.04-.46-.01-.63-.14-.66-.47-1.31-.97-1.92-1.5-.18-.16-.24-.46-.4-.66-.19-.23-.42-.42-.64-.63Z"/><path d="M16.31,56.89c.44,.31,.41,.75,.07,1.02-1.01,.82-1.26,2.05-1.82,3.11-.21,.4-.48,.78-.76,1.25-.2-.23-.34-.33-.33-.4,.18-1.07,1.99-4.22,2.84-4.97Z"/><path d="M61.42,41.62c.58-.76,1.08-1.61,1.76-2.26,.36-.35,1.04-.36,1.69-.56-.65,1.64-1.7,2.63-3.27,3.04l-.17-.22Z"/><path d="M177.27,68.74c-1.53,.92-2.9,.54-4.64-1.2,.66-.1,3.12,.52,4.64,1.2Z"/><path d="M175.51,71.64c-1.82-.94-3.37-2.37-5.51-2.67,1.34-.7,4.45,.85,5.51,2.67Z"/><path d="M196.17,67.82c-.3,.06-.65,.25-.9,.16-1.46-.5-2.66-1.38-3.47-2.73-.08-.13-.08-.31-.09-.47,0-.06,.09-.11,.21-.26,1.21,1.38,2.68,2.41,4.25,3.31h0Z"/><path d="M170.45,115.06c-.35,.37-.09,.44,.34,.48-1.65,1.9-3.81,2.6-6.12,2.99,1.03-.42,2.07-.83,3.08-1.28,.44-.2,.85-.47,1.25-.75,.19-.13,.46-.36,.45-.52-.07-.79,.47-.83,1.01-.9h-.01Z"/><path d="M100.59,107.98c.71,.46,1.39,.96,2.13,1.35,.74,.39,1.54,.67,2.34,1.01,.12,.43-.11,.66-.49,.53-.99-.34-2.01-.66-2.9-1.19-.51-.31-.78-1.01-1.16-1.54l.08-.16Z"/><path d="M80.07,57.86c1.67,.66,3.04,1.71,4.53,2.59l-.1,.26c-.25-.02-.55,.03-.76-.08-1.11-.57-2.2-1.17-3.29-1.78-.33-.19-.54-.47-.38-.99Z"/><path d="M92.92,39.64c-.35,0-.56,0-.77,0-.44-.02-.89-.11-1.32-.06-.99,.11-1.8-.38-2.65-.73-.09-.04-.09-.27-.14-.42,1.4-.22,3.97,.39,4.88,1.22Z"/><path d="M104,107.31c1.81,.92,3.62,1.83,5.43,2.75-1.19,.27-2.04-.45-2.99-.86-.96-.4-1.92-.82-2.57-1.67l.14-.22Z"/><path d="M25.34,35.6c-.83-.54-1.37-2.03-1.58-4.3,.49-.04,.77,.23,.88,.64,.29,1.06,.54,2.13,.79,3.2,.03,.13-.05,.29-.08,.46Z"/><path d="M189.94,66.87c1.92,1.32,3.64,2.5,5.62,3.87-.55,0-.83,.08-1.03-.01-1.55-.76-4.28-3-4.58-3.85Z"/><path d="M92.53,40.4c1.93-.26,5.2,.64,6.14,1.76-1.39-.84-2.96-.87-4.5-1.06-.58-.07-1.14-.27-1.71-.41l.07-.29Z"/><path d="M72.68,37.13c-.69,.15-1.39,.47-2.07,.42-.88-.07-1.48,.29-2.08,.8-.38,.33-.77,.65-1.29,1.09,.38-1.91,3.38-2.93,5.39-2.58l.05,.27Z"/><path d="M156.86,77.18c-1.63-.37-3.71-2.49-3.82-3.82l3.82,3.82Z"/><path d="M156.35,73.44c.55,.65,1.02,1.09,1.34,1.62,.66,1.07,1.47,1.94,2.74,2.37-.76,.32-1.48,.28-1.96-.31-.79-.97-1.46-2.04-2.16-3.08-.05-.07,.01-.22,.05-.6Z"/><path d="M193.85,72c-.48,.52-.87,.36-1.24,.22-.82-.33-1.64-.69-2.46-1.02-.8-.32-1.32-.89-1.47-1.85,.47,.37,.92,.77,1.43,1.08,.58,.35,1.21,.65,1.84,.92,.58,.24,1.19,.41,1.9,.65Z"/><path d="M175.48,77.62c-.88-.21-1.59-.63-2.11-1.44-.47-.74-1.07-1.39-1.52-2.17,.92,.22,1.37,.98,1.96,1.58,.61,.62,1.24,1.22,1.86,1.83l-.19,.2Z"/><path d="M177.29,56.21c2.03,.61,3.72,1.86,5.74,3.07-1.03,0-4.35-1.79-5.74-3.07Z"/><path d="M79.51,89.95c-.79-.18-3.06-2.39-3.89-3.6-.24-.35-.56-.68-.37-1.24,1.46,1.65,2.86,3.24,4.26,4.83Z"/><path d="M201.5,75.94c1.46,.53,2.45,1.25,3.45,2.13-1.14,.46-2.74-.5-3.45-2.13Z"/><path d="M145.8,120.22c.77-.43,1.42-.94,2.16-1.16,.71-.21,1.5-.12,2.36-.16-.18,.48-.59,.51-.93,.63-.82,.3-1.65,.59-2.48,.87-.36,.13-.75,.38-1.11-.18Z"/><path d="M73.78,56.97c-1.85-.66-3.38-2.15-3.61-3.23,1.03,.07,1.28,1.04,1.89,1.54,.62,.51,1.15,1.12,1.72,1.69Z"/><path d="M127.52,73.1c1.29-.17,2.1,.45,3,.73,.91,.27,1.81,.57,2.76,.86-1.03,.34-3.89-.42-5.76-1.59Z"/><path d="M164.71,78.6c-.97-.16-1.52-.89-2.04-1.55-.59-.75-1.45-1.35-1.64-2.4,1.49,1.09,2.49,2.6,3.68,3.95Z"/><path d="M86.86,59.4c-1.55,.62-3.68-.3-4.23-1.86,.78,.44,1.35,.84,1.98,1.12,.65,.29,1.36,.46,2.25,.75Z"/><path d="M86.17,36.04c2.42,.26,4.92-.19,7.23,.94l-7.25-.68,.02-.27Z"/><path d="M106.19,106.42c1.4,.79,2.72,1.32,4.04,2.29-1.65,.05-3.52-.99-4.04-2.29Z"/><path d="M156.5,120.94c.24-1.06,.45-2.12,.76-3.16,.08-.28,.47-.47,.89-.87-.03,.5,.01,.78-.07,1.01-.3,.83-.62,1.66-.99,2.47-.1,.23-.39,.37-.6,.54h0Z"/><path d="M142.49,74.93c-1.18,.16-2.58-1.02-3.79-3.25l3.79,3.25Z"/><path d="M91.96,56.14l1-.69,2.68,1.72c-1.42,.29-2.29-1.13-3.68-1.03Z"/><path d="M71.53,79.8c-.96-1.14-1.93-2.27-2.87-3.42-.08-.1,.03-.35,.07-.65,.23,.13,.41,.17,.48,.28,.6,.86,1.21,1.72,1.77,2.61,.23,.36,.36,.8,.53,1.2l.02-.02Z"/><path d="M65.41,34.03c-.63,1.5-1.95,2.81-3.64,3.5,.3-.32,.44-.47,.59-.62,.71-.72,1.41-1.46,2.13-2.17,.28-.27,.62-.47,.93-.71h0Z"/><path d="M140.67,116.98l2.93-.66c.03,.85-.72,.98-1.32,1.21-.74,.29-1.21-.11-1.62-.55Z"/><path d="M137.26,118.67c1.42,.61,2.85,.08,4.42,0-1.62,1.12-3.17,1.11-4.42,0Z"/><path d="M155.78,130.5c-.04-.15-.14-.34-.09-.46,.44-1.03,.89-2.05,1.38-3.06,.13-.26,.44-.43,.66-.65h-.02c-.28,1.55-1.01,2.9-1.96,4.15h.02Z"/><path d="M236.34,35.52c-.42,.36-.81,.77-1.27,1.08-1.01,.69-2.06,1.33-3.18,1.87,1.44-1.04,2.62-2.45,4.39-3l.06,.05Z"/><path d="M177.51,67.04c-1.18-.37-2.52-.36-3.55-1.43,1-.11,3.06,.67,3.55,1.43Z"/><path d="M74.84,80.45c-.83-.08-2.04-1.35-2.46-2.58,.65,.1,2.08,1.6,2.46,2.58Z"/><path d="M173.79,55.07l-4.33-2.42,.12-.22c1.58,.57,3.07,1.29,4.34,2.4l-.13,.24Z"/><path d="M151.53,122.97c-1.31,.26-2.07,.02-3.04-.9,.9-.02,2.51,.42,3.04,.9Z"/><path d="M79.19,84.43l2.77,1.69c-1.06,.61-2.01,.06-2.77-1.69Z"/><path d="M158.25,44.21l3.9,1.85c-1.47,.08-3.3-.8-3.9-1.85Z"/><path d="M88.59,58.54c-1.51,.1-2.51-.66-3.79-1.23,.82-.16,2.82,.52,3.79,1.23Z"/><path d="M182.38,57.59c-1.7-.47-2.56-1.14-2.7-2.28l2.83,2.17s-.09,.08-.13,.12Z"/><path d="M160.95,43.23c-1.28,.4-2.27-.02-2.96-1.12l2.96,1.12Z"/><path d="M118.15,112.46l3.65,1.18c-1.36,.09-2.62-.18-3.73-.92l.08-.26Z"/><path d="M173.02,56.35c-.94-.13-2.83-1.19-3.84-2.07,.7,.07,2.32,.93,3.84,2.07Z"/><path d="M176.32,113.94l-3.03,1.87c.49-1.01,1.7-1.79,3.03-1.87Z"/><path d="M203.25,59.97c-1.09,1.22-2.52,1.95-3.92,2.72,1.28-.95,2.37-2.18,3.94-2.7l-.02-.02Z"/><path d="M183.53,55.73c-.87-.9-2.1-1.38-2.83-2.44l.18-.22,2.91,2.37-.27,.29Z"/><path d="M225.53,63.89c-.38,.34-.73,.72-1.14,1.02-.71,.53-1.44,1.02-2.36,1.67,.59-1.02,2.08-2.1,3.51-2.68v-.02Z"/><path d="M89.08,57.49l2.39,.61c-.93,.51-1.8,.34-2.39-.61Z"/><path d="M132.8,115.77c-.76,.43-1.98,.19-3.21-.75l3.21,.75Z"/><path d="M175.36,49.11c1.04,.22,1.85,.78,2.49,1.59-.92-.39-1.92-.64-2.49-1.59Z"/><path d="M74.87,76.94c.8,.41,1.53,.89,1.96,1.94-1.08-.39-1.59-1.1-1.96-1.94Z"/><path d="M242.43,44.79c-.82,.87-1.81,1.51-2.74,2.22l-.18-.16c.05-.12,.07-.28,.16-.36,.44-.41,.9-.8,1.34-1.21,.41-.38,.88-.55,1.44-.48v-.02Z"/><path d="M118.54,116.28c-1.19-.2-2.29-.65-3.35-1.24,1.18,.24,2.45,.21,3.34,1.25v-.02Z"/><path d="M159,114.65c-.14-1.15-.19-1.98,.65-2.7,.33,1.04-.2,1.71-.65,2.7Z"/><path d="M149.09,117.21l2.75-.5c-.86,.92-1.54,1.08-2.75,.5Z"/><path d="M80.54,88.03c-.99-.2-1.59-.95-2.1-1.84l2.22,1.59-.12,.25Z"/><path d="M71.52,79.82c1.15,.37,1.73,1.33,2.34,2.27-.8-.73-1.91-1.15-2.32-2.28l-.02,.02Z"/><path d="M156.84,45.23l2.83,1.76c-1.11-.34-2.24-.65-3.01-1.56l.17-.2Z"/><path d="M153.38,113.91c-.53,1.27-.84,1.43-2.25,1.18,.54-.21,.93-.32,1.28-.5,.35-.19,.65-.45,.98-.68Z"/><path d="M121.43,114.92c-.87,.44-1.65,.31-3.04-.52l3.04,.52Z"/><path d="M153.58,112.14c.54-.44,1.06-.91,1.99-.73-.61,.69-1.3,.71-1.99,.73Z"/><path d="M107.4,105.31l2.08,1.03c-.91,.14-1.63-.2-2.26-.74l.18-.29Z"/><path d="M75.21,79.07c-.93-.1-1.39-.51-1.67-1.59,.72,.44,1.3,.9,1.66,1.61l.02-.02Z"/><path d="M153.24,121.69l1.5-1.55c.07,1.08-.06,1.23-1.5,1.55Z"/><path d="M120.26,110.41l2.15,.4-.06,.27c-.74,0-1.53,.19-2.09-.67Z"/><path d="M236.29,35.47c.29-1,1.38-.99,2.07-1.82-.31,.91-.92,1.43-2.01,1.87l-.05-.05Z"/><path d="M157.73,126.34c.06-.94,.45-1.86,1.18-2.59-.27,1.07-.59,1.89-1.2,2.58h.02Z"/><path d="M222.82,46.5c-.43,.55-.89,1.08-1.67,1.24,.28-.76,.39-.85,1.67-1.24Z"/><path d="M108.02,137.83l-1.4-.71c.87-.58,1.12-.41,1.38,.72l.02-.02Z"/><path d="M282.02,207c-.34,.23-.54,.46-.76,.49-.14,.02-.32-.26-.48-.4,.18-.18,.34-.43,.56-.5,.13-.04,.35,.2,.68,.41Z"/><path d="M159.96,121.43c-.21,.58-.42,1.15-.71,1.93q-.25-.9,.71-1.93Z"/><path d="M236.28,49.33l1.76-1.47c-.39,1.03-.56,1.18-1.76,1.47Z"/><path d="M178.42,108.55c.48-.67,1.07-1.21,2.13-1.16l-2.13,1.16Z"/><path d="M134.3,112.39l1.9,.24c-.87,.35-.92,.34-1.9-.24Z"/><path d="M196.65,64.39c.51-.63,1.19-.98,1.95-1.23-.54,.59-1.14,1.08-1.96,1.22v.02Z"/><path d="M225.55,44.07c.61-.67,1.28-1.26,2.2-1.46h-.01c-.53,.78-1.23,1.32-2.21,1.44l.02,.02Z"/><path d="M131.42,113.94l1.68,.73-.12,.29-1.68-.73,.12-.29Z"/><path d="M228.45,46.05l-1.66,1.28-.2-.28,1.72-1.21,.15,.21Z"/><path d="M133.7,122.25c-.7,.19-1.36,.2-1.96-.29l1.96,.29Z"/><path d="M225.55,63.9c.34-.59,.81-.98,1.74-1.08-.49,.76-1.11,.92-1.75,1.06v.02Z"/><path d="M227.76,42.61c.07-.82,.86-.81,1.33-1.16-.18,.71-.81,.87-1.34,1.15h.01Z"/><path d="M99.93,110.41c-.53-.05-1.03-.14-1.41-.79,.76-.02,1.2,.17,1.4,.81v-.02Z"/><path d="M185.55,58.1l-1.13-.79,.2-.29,1.12,.82-.18,.26Z"/><path d="M101.89,111.39c-.65-.33-1.3-.65-1.96-.98v.02c.75,.1,1.55,.13,1.94,.98h.01Z"/><path d="M.38,162.36l-.08,1.32q-.4-.59,.08-1.32Z"/><path d="M121.91,107.94l1.14,.23-.06,.3-1.16-.18,.08-.35Z"/><path d="M242.44,44.81c.19-.57,.55-.94,1.4-1.18-.5,.63-.86,1.01-1.42,1.16v.02Z"/><path d="M71.04,71.49c.55,.09,.78,.47,1.08,1.15-.78-.25-1.1-.55-1.06-1.17l-.02,.02Z"/><path d="M221.74,50.69l1.31-.93q-.27,.65-1.31,.93Z"/><path d="M104.23,100.72l-1.26-.59c.77-.24,.93,.35,1.37,.35l-.11,.24Z"/><path d="M97.79,99.53l.76,.82c-.63,.07-.87-.21-.96-.63l.2-.19Z"/><path d="M203.58,51.84c.18-.11,.36-.21,.53-.32,.1,.04,.21,.08,.31,.12l-.53,.59-.31-.39Z"/><path d="M160.58,118.87l.22-1.02q.18,.57-.22,1.02Z"/><path d="M153.44,119.32c.02,.67-.37,.66-.95,.59l.95-.59Z"/><path d="M73.35,71.52l-.92-.59c.53-.23,.82,.03,1.09,.32l-.17,.27Z"/><path d="M65.58,67.94c-.09-.11-.21-.2-.25-.33-.04-.16-.01-.35,.2-.56l.27,.78-.22,.1Z"/><path d="M170.98,47.15l.91,.3-.08,.26-.91-.25,.08-.32Z"/><path d="M73.89,71.72l.99,.48c-.59,.32-.83,.02-1.09-.24l.1-.24Z"/><path d="M71.05,71.48c-.42,.02-.79-.03-.82-.65,.48-.01,.69,.26,.8,.66l.02-.02Z"/><path d="M101.88,111.4l1.34,.44-.11,.24c-.41-.23-.81-.46-1.22-.69h-.01Z"/><path d="M229.7,47.73c-.16,.49-.42,.88-.98,.98l.02,.02c.03-.62,.56-.74,.97-.99h-.01Z"/><path d="M234.84,50.91c-.19,.59-.6,.92-1.22,.98l.02,.02c.22-.56,.65-.85,1.22-.98v-.02Z"/><path d="M118.53,116.3l1.2,.29-.1,.29c-.42-.05-.75-.33-1.09-.6v.02Z"/><path d="M133.77,114.93l.58,.22-.05,.22-.63-.15,.1-.29Z"/><path d="M93.33,107.48c.42-.75,.62-.17,.83,.24-.28-.09-.56-.17-.84-.26v.02Z"/><path d="M230.94,53.66l.44-.33,.12,.17-.44,.32-.12-.16Z"/><path d="M234.85,50.93l.62-.82c.18,.65-.21,.74-.63,.8v.02Z"/><path d="M203.27,59.99c.05-.43,.29-.59,.8-.53-.17,.44-.47,.51-.82,.52l.02,.02Z"/><path d="M117.55,114.26l-.51-.37,.11-.18,.56,.28-.15,.27Z"/><path d="M225.53,44.05c0,.46-.18,.76-.78,.67l.79-.65-.02-.02Z"/><path d="M161.88,116.53l-.36,.42-.13-.06,.25-.77,.16,.02,.06,.42v-.02Z"/><path d="M75.19,79.09l.82,.2c-.57,.44-.7,.14-.8-.22l-.02,.02Z"/><path d="M99.23,101.1l.44,.18-.07,.16-.44-.18,.07-.16Z"/><path d="M233.62,51.89l-.61,.89c-.09-.76,.35-.74,.63-.87l-.02-.02Z"/><path d="M110.71,107.17l-.18-.26c.07-.03,.16-.1,.2-.08,.09,.05,.15,.15,.22,.23l-.24,.11Z"/><path d="M214.53,56.6l-.38,.28-.11-.14,.38-.29,.11,.15Z"/><path d="M182.51,57.47l.71,.51c-.57,.19-.71-.08-.84-.4,.04-.04,.09-.08,.13-.12Z"/><path d="M220.66,66.88l.5-.16,.06,.2-.5,.15-.06-.19Z"/><path d="M230.97,39.36l-.48,.2c-.02-.07-.07-.18-.06-.19,.14-.1,.29-.17,.44-.26l.09,.24Z"/><path d="M85.31,36.15h-.89v-.09c.11-.02,.23-.06,.34-.06,.11,0,.22,.05,.55,.14Z"/><path d="M161.87,116.55c.43-.12,.6,0,.37,.58-.15-.26-.25-.43-.35-.6v.02Z"/><path d="M164,30.47c-.09-.11-.21-.2-.21-.27,0-.08,.14-.2,.21-.2,.08,0,.21,.12,.21,.2,0,.07-.12,.16-.22,.27Z"/><path d="M228.72,48.71l-.51,.74c-.15-.53,.19-.63,.52-.73v-.02Z"/><path class="d" d="M79.22,161.85c-.14,3.26-.07,6.54-.7,9.82-.6,3.15-1.64,6.1-2.96,8.99-.81,1.77-1.48,3.62-2.33,5.37-1.27,2.62-2.83,5.08-5.11,6.92-1.13,.91-2.45,1.61-3.77,2.23-1.8,.84-3.68,1.53-5.54,2.25-.56,.22-1.17,.32-1.75,.5-1.47,.46-2.94,.94-4.41,1.39-.5,.15-1.05,.36-1.55,.3-2.3-.27-4.66,.07-6.92-.62-.27-.08-.53-.19-.77-.34-1.03-.64-2.02-1.37-3.09-1.93-1.1-.58-2.13-1.16-2.74-2.33-.25-.49-.75-.85-1.13-1.28-1.58-1.83-2.82-3.87-3.82-6.07-.55-1.22-1.3-2.35-1.88-3.56-.32-.65-.58-1.36-.69-2.07-.36-2.37-.73-4.75-.91-7.14-.17-2.27-.16-4.56-.11-6.83,.02-1,.27-2.02,.55-2.99,.91-3.17,1.54-6.43,2.9-9.45,2.03-4.5,4.12-8.99,7.78-12.46,1.5-1.42,3.15-2.7,4.81-3.92,.66-.49,1.56-.67,2.36-.96,.76-.28,1.58-.43,2.3-.78,1.57-.76,3.22-1.09,4.93-1.29,.59-.07,1.03-.05,1.26,.61,.06,.17,.39,.39,.54,.35,.17-.04,.4-.34,.4-.52,0-.86,.59-1.04,1.22-1.04,1.18,0,2.36,.02,3.53,.15,1.62,.19,3.21,.54,4.67,1.34,2.44,1.34,4.82,2.76,6.55,5.01,.54,.7,.96,1.51,1.36,2.31,.8,1.6,1.55,3.23,2.31,4.85,1.15,2.45,2.05,4.98,2.32,7.69,.18,1.82,.26,3.65,.38,5.51Zm-24.83,.1c-.56-1.19-.34-2.34-.4-3.46-.18-3.13-.39-6.25-.64-9.38-.06-.76-.31-1.51-.47-2.27-.12-.59-.27-1.18-.35-1.78-.14-1.06-.43-2.06-1.5-2.49-1.14-.46-2.32-.43-3.37,.35-1.16,.88-2.32,1.76-3.46,2.66-.54,.43-1.06,.89-1.51,1.4-1.26,1.44-2.51,2.88-3.69,4.38-1.09,1.37-2.04,2.83-2.52,4.56-.2,.75-.4,1.5-.67,2.22-.95,2.55-1.53,5.11-.97,7.86,.4,2.01,1.66,3.36,3.59,3.33,2.33-.05,4.64-.34,6.84-1.15,1.09-.4,2.22-.26,3.32-.47,.21-.04,.46,.1,.79,.19-.05,1.02,.3,2.01-.14,3.05-.37,.05-.73,.11-1.09,.16-1.61,.2-3.28,.21-4.83,.64-2.22,.62-4.48,.81-6.72,1.22-1.44,.26-2.3,1.18-2.21,2.64,.04,.68,.18,1.38,.4,2.02,.66,1.88,1.36,3.75,2.12,5.6,.29,.7,.69,1.4,1.18,1.97,1.23,1.42,2.53,2.76,4.19,3.71,1.02,.59,2,1.25,3.02,1.85,2.25,1.33,4.56,2.47,7.28,2.47,1.51,0,2.35-.62,2.58-2.12,.06-.4,.2-.78,.29-1.18,.16-.67,.42-1.34,.44-2.02,.12-3.13,.18-6.27,.27-9.4,.01-.47,.05-.94,.08-1.51h2.68c.02,.38,.07,.7,.06,1.02-.08,2.44-.2,4.88-.25,7.33-.04,1.87-.01,3.73,0,5.6,0,.95,.57,1.74,1.33,1.79,1.18,.07,2.36,0,3.46-.56,.26-.13,.54-.23,.82-.34-.61,.99-1.5,1.54-2.5,1.92-1.1,.42-2.22,.82-3.33,1.21-2.18,.78-4.28,1.71-6.62,2.05-2.58,.38-5.02,.45-7.29-1.1-.37-.25-.81-.54-1.56-.35,.32,.41,.51,.74,.78,.99,1.44,1.3,3.26,1.87,5.07,1.83,2.46-.06,4.97-.25,7.29-1.29,1-.45,2.03-.86,3.08-1.16,1.74-.5,3.35-1.28,4.88-2.21,.64-.39,1.1-1.07,1.69-1.56,1.36-1.12,2.6-2.32,3.37-3.94,.14-.29,.39-.52,.55-.8,.21-.35,.47-.69,.55-1.07,.42-1.92,1.15-3.73,1.91-5.53,.14-.33,.32-.74,.23-1.04-.09-.32-.48-.56-.8-.9,1.23-1.46,1.42-3.31,1.76-5.11,.26-1.38-.14-1.98-1.54-1.96-1.09,.01-2.2,.16-3.26,.41-1.7,.4-3.36,.95-5.04,1.42-.1,.03-.23-.03-.37-.05-.12-.65-.29-1.28-.35-1.92-.03-.28,.11-.63,.28-.87,.77-1.14,1.92-1.01,3.08-.9,.88,.09,1.79,.16,2.66,.06,1.17-.13,2.31-.44,3.47-.63,.71-.12,1.45-.11,2.16-.23,.28-.04,.53-.26,.79-.4-.18-.25-.31-.62-.55-.71-.48-.17-1.04-.28-1.54-.23-1.17,.12-2.36,.28-3.5,.57-1.21,.31-2.41,.32-3.64,.22-.63-.05-1.28,.08-1.92,.12-.42,.03-.84,.05-1.26,.07l-.34-2.19c1.12-.11,2.19-.41,3.18-.25,1.38,.23,2.67-.07,4-.19,1.54-.14,2.89-.81,4.24-1.48,.53-.27,.81-.7,.9-1.35,.27-2.09,.1-4.14-.21-6.2-.18-1.24-.61-2.35-1.2-3.43-.55-.99-1.16-1.98-1.54-3.04-.57-1.6-1.66-2.81-2.77-3.98-1.72-1.8-3.61-3.41-5.8-4.64-.57-.32-1.1-.81-1.7-.93-1.06-.21-2.17-.28-3.25-.23-.75,.03-1.5,.33-2.24,.54-1.82,.51-2.35,1.48-1.93,3.29,.34,1.49,1.01,2.9,1.06,4.48,.05,1.46,.38,2.91,.49,4.37,.17,2.35,.26,4.71,.37,7.07,.02,.42-.08,.85-.13,1.32h-1.61Zm-20.1-6.02l-.27-.13c-.24,.3-.6,.57-.71,.91-.31,.96-.52,1.96-.76,2.95-.14,.59-.15,1.24-.38,1.78-.8,1.88-.83,3.88-1,5.86-.15,1.87-.28,3.73-.48,5.59-.16,1.44-.15,2.86,.32,4.23,.76,2.19,1.37,4.42,2.19,6.59,1.11,2.93,3.17,5.09,5.13,7.36,.38,.44,1.01,.66,1.55,.94,.17,.09,.42,.01,.78,.01-.15-.28-.19-.44-.29-.54-.76-.8-1.59-1.53-2.27-2.38-1.07-1.33-2.2-2.65-3-4.13-1.44-2.65-2.4-5.52-3.07-8.46-.19-.82-.32-1.7-.27-2.54,.15-2.68,.39-5.36,.62-8.03,.09-1.1,.16-2.2,.39-3.27,.45-2.1,1.01-4.18,1.52-6.27,.04-.15,0-.31,0-.46Zm27.8-17.88c-1.38,.13-2.53,.25-3.69,.34-.77,.06-1.54,.09-2.31,.11-1.21,.03-2.43,.01-3.64,.08-.45,.02-.98,.1-1.11,.89,.55,.03,1.02,.1,1.49,.09,1.3-.03,2.59-.09,3.89-.15,.32-.01,.67,.01,.97-.08,1.18-.37,2.34,.16,3.51,.06,.11,0,.26,.03,.34,.1,.88,.77,2.02,.76,3.06,1.02,.58,.15,1.16,.29,1.48,.74,.81,1.15,1.9,2.13,2.35,3.53,.13,.41,.37,.82,.66,1.14,.12,.13,.53,.1,.74,0,.13-.07,.24-.47,.16-.61-.58-1.02-1.19-2.03-1.83-3.01-.87-1.34-1.91-2.52-3.39-3.25-.24-.12-.39-.41-.6-.61-.93-.88-1.92-1.61-3.27-1.73-.93-.09-1.84-.34-2.75-.54-.45-.1-.77-.02-1.02,.4,.65,.77,1.47,.9,2.34,.98,.83,.08,1.69,.05,2.63,.49Zm12.09,36.64c.41-.1,.61-.08,.7-.18,.96-1.1,1.4-2.45,1.69-3.84,.2-.95,.23-1.93,.35-2.9,.09-.69,.3-1.37,.28-2.05-.1-3.1-.42-6.17-1.16-9.19-.18-.74-.5-1.45-.73-2.18-.26-.81-.46-1.64-.76-2.43-.33-.86-1.47-2.26-2.03-2.61-.43,.41-.06,.74,.12,1.07,.97,1.71,1.81,3.51,2.17,5.42,.52,2.75,.82,5.55,1.11,8.35,.12,1.16,.04,2.35-.07,3.52-.19,1.98-.53,3.95-1.37,5.79-.14,.31-.17,.68-.29,1.23Zm-38.27-21.89c1.01-.64,1.39-1.41,1.69-2.18,.52-1.35,1.25-2.56,2.09-3.71,1.85-2.52,3.97-4.74,6.82-6.16,.44-.22,.83-.48,.81-1.06-.93-.13-1.15-.14-1.67,.2-1.05,.68-2.12,1.36-3.1,2.13-1.85,1.46-3.13,3.4-4.46,5.31-.97,1.4-1.46,2.99-2.11,4.53-.08,.2-.04,.45-.07,.95Z"/><path class="d" d="M41.91,199.27c-.27,.21-.61,.38-.78,.65-.18,.3-.26,.69-.29,1.05-.08,.91-.52,1.35-1.44,1.49-.92,.15-1.83,.64-2.67-.1-.38-.33-.7-.76-.97-1.19-.25-.41-.38-.9-.6-1.34-.53-1.07-1.39-1.64-2.57-1.83-1.24-.2-2.48-.49-3.7-.8-.37-.09-.81-.33-1-.63-.63-1.01-1.09-2.1-.91-3.34,.02-.12,.03-.24,.06-.36,.47-1.72,0-3.2-.86-4.74-.72-1.28-1.43-2.53-2.31-3.71-.43-.58-.51-1.54-.49-2.32,.04-1.76-.08-3.48-.38-5.22-.41-2.46-.31-4.94,.32-7.38,.49-1.89,.96-3.79,1.37-5.7,.14-.63,.23-1.33,.08-1.94-.55-2.18,.08-4.19,.73-6.22,.46-1.43,.9-2.87,1.23-4.33,.14-.61-.05-1.29-.1-1.94-.03-.49-.15-.98-.11-1.46,.1-1.29,.69-1.73,2-1.68,.64,.03,1.28-.04,1.91-.14,.93-.15,1.54-.72,2.11-1.49,1.63-2.18,3.81-3.77,6.05-5.26,1.6-.21,2.55-1.45,3.71-2.36,1.21-.94,2.52-1.63,4.07-1.83,.68-.09,1.33-.36,1.99-.59,1.31-.45,2.61-.38,4.16-.15-.59,.6-1.18,.73-1.71,.92-1.68,.6-3.38,1.19-5.1,1.68-1.11,.32-1.92,1.04-2.8,1.69-.95,.71-1.9,1.41-2.79,2.18-.75,.66-1.43,1.42-2.11,2.16-.33,.36-.55,.82-.9,1.15-1.49,1.46-2.38,3.29-3.27,5.12-.64,1.32-1.39,2.59-1.93,3.95-.8,2.04-1.49,4.13-2.15,6.23-.54,1.71-.96,3.45-1.45,5.17-.6,2.12-.49,4.29-.47,6.44,.01,1.95,.06,3.92,.28,5.86,.24,2.02,.63,4.03,1.11,6,.23,.97,.77,1.88,1.25,2.78,.89,1.65,1.77,3.3,2.77,4.87,.85,1.33,1.88,2.55,2.83,3.82,.14,.19,.31,.35,.41,.6-1.45-.73-2.85-1.5-3.86-2.82-1.02-1.33-2.01-2.67-3.02-4-.17-.22-.36-.43-.69-.83-.11,.41-.25,.66-.21,.86,.06,.27,.24,.52,.4,.75,1.15,1.58,2.22,3.23,3.51,4.68,.73,.83,1.81,1.35,2.76,1.97,.82,.54,1.67,1.02,2.51,1.52,.17,.1,.37,.23,.54,.22,1.54-.08,2.53,.83,3.44,1.88l.02-.02Zm-13.94-42.52c-.69,.44-.91,1.08-1.05,1.74-.78,3.62-1.56,7.24-2.32,10.86-.19,.91-.41,1.84-.42,2.76-.02,1.57,.53,3.02,1.22,4.43,.03-.48,.09-.99-.06-1.42-.66-1.86-.32-3.72,.05-5.54,.8-3.9,1.23-7.88,2.42-11.7,.11-.36,.11-.75,.16-1.13Z"/><path class="d" d="M50.62,220.6c-.63-.42-1.14-.74-1.61-1.1-.66-.51-1.37-.87-2.22-.9-.78-.03-1.41-.4-1.86-1.02-.71-.98-1.43-1.97-2.07-3-.85-1.38-1.98-2.47-3.34-3.32-.55-.34-.64-.69-.4-1.2,.24-.52,.57-1,.75-1.53,.52-1.54,1.02-3.08,1.45-4.65,.42-1.58,1.46-2.5,3.1-2.53,.94-.02,1.84,0,2.69-.56,.34-.22,.88-.24,1.3-.19,1.6,.19,3.18,.61,4.84,0-.06,2.31-.08,4.45-.18,6.59-.08,1.83-.23,3.65-.38,5.47-.03,.35-.22,.68-.32,1.02-.25,.94-.53,1.87-.73,2.82-.19,.91-.27,1.85-.46,2.77-.09,.41-.33,.79-.56,1.32Z"/><path class="d" d="M58.38,130.97c.39-.29,.81-.48,1.03-.81,.22-.34,.24-.81,.39-1.33,.99,.52,1.61,1.21,2.14,1.95,.62,.86,1.38,1.46,2.4,1.78,.41,.13,.8,.39,1.14,.68,.57,.48,1.18,.65,1.92,.56,.56-.06,1.14-.05,1.7,.01,1.13,.13,2.12,.45,2.58,1.69,.21,.54,.7,.99,1.1,1.45,.62,.7,1.01,1.46,.95,2.43-.02,.42,.08,.86,.15,1.5-.94-.91-1.68-1.7-2.5-2.41-3.1-2.67-6.65-4.36-10.76-4.76-.36-.03-.74-.1-1.05-.26-1.23-.63-1.37-.98-1.18-2.47Z"/><path class="d" d="M53.15,98.91c-.3-.83-.06-1.2,.63-1.4,2.22-.65,4.41-1.39,6.65-1.97,.66-.17,1.44,.02,2.15,.13,.55,.08,1.08,.3,1.7,.48-.15,.13-.28,.34-.46,.4-1.5,.49-2.9,1.25-4.5,1.47-1.48,.2-2.96,.49-4.44,.71-.56,.09-1.12,.12-1.73,.18Z"/><path class="d" d="M77.65,178.95c.32-1,.69-1.99,.95-3.01,.32-1.25,.55-2.53,.83-3.79,.1-.47,.21-.93,.52-1.41,.05,.24,.1,.49,.15,.73,.19,.95,.42,1.9,.55,2.86,.15,1.08,.33,2.17,.27,3.25-.07,1.44-1.53,2.1-2.82,1.4-.12-.07-.31-.03-.46-.04h.01Z"/><path class="d" d="M40.46,103.76c.28,.6,.03,.84-.31,1.05-.59,.37-1.16,.76-1.75,1.1-3.07,1.8-6.07,3.74-9.4,5.05-.58,.23-1.22,.33-1.97,.53,.07-.8,.48-1.06,.97-1.06,2.49-.04,4.06-1.86,5.97-3.02,2.11-1.28,4.06-2.83,6.5-3.65Z"/><path class="d" d="M63.62,196.68c1.55-.71,3.12-.89,4.26-1.92,1.07-.97,2.1-1.99,3.33-2.87-.59,1.08-1.06,2.25-1.8,3.21-1.33,1.73-3.36,2.25-5.79,1.57Z"/><path class="d" d="M16.63,24.33c1.16-.18,2.11-.1,3.04,.24,.68,.25,1.38,.46,2.05,.75,.21,.09,.44,.38,.45,.58,.01,.41-.35,.5-.7,.47-.2-.02-.38-.11-.57-.18-.27-.09-.54-.28-.8-.26-1.37,.1-2.35-.65-3.47-1.6Z"/><path class="d" d="M74.71,186.06c-.21,.57-.35,1.18-.65,1.7-.59,1-1.28,1.95-2.02,3.06,.15-.86,1.78-3.65,2.69-4.74h-.02Z"/><path class="d" d="M41.89,199.29c.67,.24,1.34,.47,2.01,.71v.15l-1.79,.25-.2-1.13-.02,.02Z"/><path class="d" d="M77.63,178.94c.4,.93-.27,1.49-.76,2.12,.06-.77,.34-1.47,.77-2.11h-.02Z"/><path class="d" d="M74.72,186.07l.68-2.08,.23,.09c-.11,.74-.46,1.38-.93,1.97h.02Z"/><path class="d" d="M70.16,84.72l-.46-.79,.2-.11,.44,.81-.17,.09Z"/><path class="d" d="M40.85,105.97c-.18,.12-.26,.23-.35,.23-.08,0-.16-.11-.24-.16,.06-.05,.11-.14,.17-.15,.1,0,.21,.04,.42,.08Z"/><path class="d" d="M71.29,86.17l-.61-.54,.19-.16c.14,.24,.27,.47,.41,.71h.01Z"/><path class="d" d="M153.22,85.86c-.41,.03-.71,0-.97,.09-2.18,.7-3.92-.19-5.67-1.39-1.43-.98-2.53-2.25-3.65-3.49,1.18,.24,2.37,.48,3.56,.72,.2,.04,.44,.05,.57,.17,1.76,1.56,3.96,2.39,5.92,3.61,.06,.04,.1,.12,.25,.3Z"/><path class="d" d="M193.89,88.11q-1.59,0-2.35-.7c-.23,.05-.5,.15-.77,.17-.28,.02-.56-.04-.9-.07l-.31,.7c-.54,.04-3.18-2.23-3.94-3.39,.35-.05,.63-.12,.92-.13,.97-.04,1.94-.07,2.91-.1,.4,0,.82-.03,1.21,.05,.25,.05,.56,.22,.68,.43,1.19,2.07,1.32,2.24,2.55,3.03Z"/><path class="d" d="M145.75,85.31c-1.13,.23-2.09-.03-3.08-.66-1.79-1.15-3.46-2.39-4.8-4.06-.07-.09-.11-.2-.2-.38,.5-.23,.99-.16,1.39,.08,.53,.32,1.03,.34,1.62,.29,.35-.03,.86,.12,1.06,.38,1.19,1.49,2.37,2.99,3.94,4.11,.05,.03,.04,.14,.06,.24Z"/><path class="d" d="M157.95,78.35c1.38,.33,2.77,.65,4.14,1.01,.3,.08,.67,.2,.85,.43,.75,.96,1.54,1.85,2.83,2.16l-.11,.25c-.57-.11-1.14-.24-1.71-.31-.48-.06-.99-.15-1.43-.04-.72,.19-1.29-.03-1.82-.43-1.12-.84-2.04-1.86-2.73-3.09l-.02,.02Z"/><path class="d" d="M180.36,84.61c1.17,0,2.33,0,3.5,0,.51,0,.81,.25,1.14,.71,.75,1.04,1.69,1.95,2.59,2.96-.65,.15-1.24-.33-1.89-.51-.7-.2-1.4-.42-2.12-.57-.72-.15-1.24-.57-1.75-1.04-.53-.48-1.09-.92-1.63-1.38l.16-.18Z"/><path class="d" d="M163.15,82.53c1.57,.29,3.15,.58,4.78,.88-.24,1.47,1.41,1.46,1.91,2.46-.55,.54-1.19,.67-1.86,.3-.95-.53-1.87-1.11-2.79-1.7-.57-.37-1.12-.79-1.67-1.2-.18-.13-.34-.29-.51-.43l.14-.32Z"/><path class="d" d="M167.1,86.71c-1.85-.12-3.46-.19-4.83-1.21-.29-.22-.56-.3-.99-.19-.78,.19-1.91-.49-2.74-1.48,.27-.11,.52-.33,.73-.29,1.43,.26,2.92,.41,4.26,.93,1.21,.48,2.25,1.39,3.57,2.25Z"/><path class="d" d="M120.48,73.67c.24,.13,.48,.38,.71,.38,1.06-.03,1.73,.58,2.37,1.28,.79,.87,1.59,1.72,2.38,2.58,.16,.17,.3,.36,.57,.68-.77,.02-1.41-.11-1.83-.43-1.36-1.08-2.65-2.26-3.94-3.43-.3-.27-.6-.6-.26-1.05h-.02Z"/><path class="d" d="M167.84,79.38c1.12-.04,2.2-.08,2.79,1.26,.2,.46,.69,.79,1.04,1.17,.26,.28,.52,.56,.93,.99-1.71,.1-2.94-.19-3.76-1.56-.34-.57-.8-1.07-1.21-1.6l.2-.25Z"/><path class="d" d="M151.72,83.48c.58,.08,1.16,.14,1.73,.24,.64,.11,1.28,.42,1.9,.38,1.44-.1,2.59,.44,3.68,1.41-2.77,.62-5.07-.47-7.36-1.64l.05-.38Z"/><path class="d" d="M122.64,80.5l.64,.31c-.11,.01-.22,.04-.32,.03-.05,0-.1-.1-.32-.34Z"/><path class="d" d="M119.61,79.51l-.41-.09c.07-.05,.14-.13,.22-.15,.06-.01,.13,.06,.2,.09v.14Z"/><path class="d" d="M126.64,125.58c-.54,.06-1.02-.09-1.57-.53,.78-.21,1.16,.21,1.56,.55v-.02Z"/><path class="d" d="M87.7,149.67c-.05-.19-.11-.37-.16-.56,0,0,.15-.06,.15-.05,.08,.18,.14,.36,.21,.54l-.21,.07Z"/><path class="d" d="M122.63,178.93c-.32-1.21-.02-2.17,.37-2.99,.41-.86,1.17-1.55,1.8-2.29,.25-.29,.62-.33,.84-.01,.11,.16,.07,.6-.07,.72-1.14,1.01-1.64,2.4-2.29,3.7-.13,.26-.35,.48-.64,.87Z"/><path class="d" d="M136.07,176.04c0-.42-.06-.85,.01-1.26,.17-.95,.35-1.91,.65-2.83,.11-.35,.54-.59,.95-.81-.01,1.78-.73,3.31-1.26,4.9h-.34Z"/><path class="d" d="M119.18,163.92c.43-.77,.88-1.43,1.77-1.67,.6-.16,1.15-.53,1.73-.81,.25,.88,.16,1.19-.43,1.15-.9-.07-1.53,.32-2.15,.87-.25,.22-.61,.31-.91,.46Z"/><path class="d" d="M135.98,170.24l.59-2.65,.31,.07-.59,2.66-.32-.08Z"/><path class="d" d="M229.72,32.48l1.5-.8,.15,.25-1.44,.84-.2-.29Z"/><path class="d" d="M212.33,45.54l.54-.61,.15,.17c-.23,.14-.46,.29-.7,.43h.01Z"/><path class="d" d="M239.01,30.36l.77-.43,.07,.19c-.29,.08-.57,.15-.86,.23h.01Z"/><path class="d" d="M75.18,43.74l1.19,1.29-.94,1.59c-.67-.2-1.47-.25-1.52-1.02-.07-.86,.55-1.44,1.27-1.86Z"/><path class="d" d="M178.52,109.94c.59-.39,1.18-.77,1.76-1.16l.14,.18c-.42,.39-.83,.78-1.26,1.15-.27,.23-.52,.2-.63-.19v.02Z"/><path class="d" d="M99.73,19.44h1.12v.06h-1.12v-.06Z"/><path class="d" d="M198.77,68.11l.5,.41-.11,.16-.58-.36,.18-.21Z"/><path class="d" d="M148.67,202.95c0-1.17,.18-1.43,1-1.42,1.07,0,1.9,.67,1.88,1.51-.02,.82-.78,1.41-1.83,1.4-.92,0-1.05-.21-1.06-1.48Z"/><path class="d" d="M192.49,202.55c.17,.85,.34,1.7,.54,2.71l-1.63,.08c0-1.13,.47-1.96,1.09-2.8Z"/><path class="d" d="M142.83,205.39l1.04-2.96c.58,1.02,.7,1.85,.67,2.86l-1.71,.1Z"/><path class="d" d="M156.66,202.72l.51,2.57-1.63,.09c0-1.08,.4-1.88,.82-2.68l.3,.03Z"/><path d="M54.39,161.96h1.61c.05-.47,.14-.89,.13-1.32-.1-2.36-.2-4.72-.37-7.07-.11-1.46-.44-2.91-.49-4.37-.06-1.58-.72-2.99-1.06-4.48-.42-1.82,.11-2.78,1.93-3.29,.74-.21,1.49-.51,2.24-.54,1.08-.04,2.19,.02,3.25,.23,.6,.12,1.13,.61,1.7,.93,2.18,1.23,4.08,2.84,5.8,4.64,1.11,1.17,2.2,2.38,2.77,3.98,.38,1.06,.99,2.04,1.54,3.04,.6,1.08,1.02,2.19,1.2,3.43,.31,2.07,.48,4.12,.21,6.2-.08,.65-.36,1.08-.9,1.35-1.35,.68-2.7,1.34-4.24,1.48-1.33,.12-2.62,.42-4,.19-.99-.17-2.06,.14-3.18,.25l.34,2.19c.42-.02,.84-.04,1.26-.07,.64-.04,1.29-.17,1.92-.12,1.23,.1,2.42,.09,3.64-.22,1.14-.29,2.32-.44,3.5-.57,.5-.05,1.06,.06,1.54,.23,.24,.08,.37,.46,.55,.71-.26,.14-.51,.35-.79,.4-.71,.11-1.45,.11-2.16,.23-1.16,.19-2.31,.51-3.47,.63-.88,.09-1.78,.02-2.66-.06-1.16-.11-2.31-.25-3.08,.9-.17,.25-.3,.59-.28,.87,.06,.64,.22,1.27,.35,1.92,.14,.02,.26,.08,.37,.05,1.68-.48,3.34-1.02,5.04-1.42,1.06-.25,2.17-.39,3.26-.41,1.4-.02,1.8,.57,1.54,1.96-.33,1.8-.53,3.64-1.76,5.11,.32,.34,.71,.58,.8,.9,.09,.3-.09,.71-.23,1.04-.75,1.8-1.49,3.61-1.91,5.53-.08,.38-.34,.73-.55,1.07-.17,.28-.42,.51-.55,.8-.77,1.62-2.01,2.82-3.37,3.94-.59,.49-1.05,1.16-1.69,1.56-1.53,.93-3.14,1.71-4.88,2.21-1.05,.3-2.08,.72-3.08,1.16-2.33,1.04-4.83,1.23-7.29,1.29-1.81,.04-3.64-.53-5.07-1.83-.27-.25-.46-.58-.78-.99,.76-.19,1.19,.1,1.56,.35,2.26,1.55,4.7,1.48,7.29,1.1,2.34-.34,4.44-1.28,6.62-2.05,1.11-.4,2.23-.79,3.33-1.21,1-.38,1.88-.93,2.5-1.92-.27,.11-.55,.2-.82,.34-1.09,.56-2.27,.63-3.46,.56-.75-.04-1.32-.84-1.33-1.79-.02-1.87-.05-3.74,0-5.6,.05-2.44,.17-4.88,.25-7.33,.01-.32-.03-.64-.06-1.02h-2.68c-.03,.57-.06,1.04-.08,1.51-.09,3.13-.14,6.27-.27,9.4-.03,.68-.29,1.34-.44,2.02-.09,.39-.23,.78-.29,1.18-.23,1.5-1.07,2.12-2.58,2.12-2.72,0-5.03-1.14-7.28-2.47-1.02-.6-1.99-1.27-3.02-1.85-1.66-.95-2.96-2.29-4.19-3.71-.5-.57-.89-1.27-1.18-1.97-.76-1.85-1.45-3.72-2.12-5.6-.23-.64-.36-1.34-.4-2.02-.09-1.47,.78-2.38,2.21-2.64,2.24-.4,4.51-.59,6.72-1.22,1.55-.43,3.22-.44,4.83-.64,.36-.04,.72-.1,1.09-.16,.44-1.04,.09-2.03,.14-3.05-.33-.09-.58-.23-.79-.19-1.1,.21-2.24,.07-3.32,.47-2.2,.81-4.52,1.1-6.84,1.15-1.93,.04-3.18-1.32-3.59-3.33-.55-2.75,.02-5.32,.97-7.86,.27-.72,.47-1.48,.67-2.22,.47-1.72,1.43-3.19,2.52-4.56,1.18-1.5,2.43-2.94,3.69-4.38,.45-.52,.98-.97,1.51-1.4,1.14-.91,2.3-1.79,3.46-2.66,1.05-.79,2.23-.81,3.37-.35,1.06,.43,1.35,1.43,1.5,2.49,.08,.6,.22,1.18,.35,1.78,.16,.76,.41,1.51,.47,2.27,.25,3.12,.46,6.25,.64,9.38,.07,1.13-.16,2.28,.4,3.46Zm-1.59-.02c.06-1.56,.21-3.05,.14-4.54-.13-2.8-.36-5.59-.6-8.39-.05-.59-.32-1.17-.49-1.75-.22-.74-.55-1.46-.66-2.21-.18-1.26-.95-1.6-2.22-1.32-.31,.07-.6,.26-.86,.44-.8,.55-1.59,1.12-2.38,1.68-1.19,.85-2.33,1.76-3.14,3.02-.32,.51-.8,.92-1.19,1.39-.75,.91-1.54,1.79-2.2,2.76-.54,.8-1,1.69-1.35,2.59-.47,1.21-.78,2.49-1.22,3.71-.51,1.44-.69,2.93-.72,4.43-.02,.73,.03,1.47,.18,2.18,.35,1.65,1.51,2.38,3.15,2.08,.32-.06,.64-.15,.96-.17,1.93-.1,3.79-.5,5.61-1.15,.77-.27,1.52-.55,2.37-.4,.36,.06,.76-.14,1.24-.24l-.44-2.7c-.92,.04-1.72,.06-2.51,.12-1.25,.1-2.5,.24-3.76,.35-.77,.07-1.54,.06-2.3,.18-1.58,.26-1.92-.05-1.71-1.66,0-.04,0-.08,.02-.12,.59-1.64,.58-3.39,1.3-5.05,1.18-2.72,2.85-5.02,4.91-7.07,.71-.71,1.63-1.21,2.68-1.37,.78-.12,1.12,.03,1.22,.76,.25,1.97,.47,3.95,.65,5.93,.15,1.66,.2,3.33,.34,4.99,.04,.5,.26,.99,.41,1.51h2.59Zm1.99,14.36c-.79,0-1.58,0-2.38,0-1,0-1.11,.11-1.03,1.14,.14,1.9,.3,3.81,.43,5.71,.07,1.09,.12,2.19,.12,3.29,0,.77-.11,1.54-.17,2.31-.05,.59-.46,.92-.95,.96-.54,.04-1.15-.01-1.63-.24-1.06-.5-2.07-1.12-3.09-1.7-.25-.14-.51-.26-.72-.45-1.19-1.1-2.41-2.18-3.54-3.33-1.08-1.1-2.26-2.13-2.89-3.59-.67-1.54-.25-3.13,1.61-3.45,1.12-.19,2.23-.57,3.35-.62,2.03-.1,3.85-.83,5.83-1.56,0-.36,.03-.76,0-1.16-.07-.74-.28-.84-1.03-.8-.56,.03-1.12-.04-1.68-.07-.24-.01-.49-.06-.72-.02-2.52,.43-5.05,.87-7.57,1.3-.72,.12-1.44,.24-2.17,.35-.65,.1-.86,.56-.89,1.13-.01,.24,.04,.49,.12,.72,.86,2.41,1.72,4.83,2.61,7.23,.14,.37,.4,.71,.67,1.01,1.72,1.99,3.67,3.69,6.12,4.76,.4,.18,.76,.47,1.13,.72,.51,.33,.98,.74,1.53,.97,.86,.37,1.75,.7,2.65,.92,.7,.17,1.45,.22,2.18,.23,.8,0,1.17-.26,1.31-1.01,.36-1.87,.68-3.75,.95-5.64,.11-.76,.02-1.54,.03-2.31,.01-1.02,.06-2.03,.04-3.05-.03-1.17-.11-2.34-.18-3.75Zm3.49-16.13q.74,1.74,1.69,1.46c-.35-1.63-.77-3.25-1.03-4.89-.29-1.81-.46-3.63-.62-5.46-.19-2.16-.17-4.31,.28-6.45,.19-.91,.4-1.13,1.14-1.16,1.37-.05,2.69,.13,3.78,1.06,.71,.61,1.5,1.18,2.05,1.91,1.36,1.81,3.12,3.32,3.96,5.52,.48,1.25,1.23,2.39,1.69,3.64,.55,1.51,.64,3.1,.36,4.7-.11,.63-.4,.95-1.04,.95-.32,0-.66-.03-.97,.03-2.28,.44-4.54,.92-6.82,1.33-.66,.12-.91,.44-.93,1.05-.02,.53-.03,1.07,.47,1.5,.25-.02,.53-.03,.81-.06,1.05-.11,2.1-.33,3.15-.32,2.06,.03,4.06-.18,6-.9,1.16-.43,1.48-.75,1.44-1.96-.07-1.79-.18-3.58-.41-5.35-.1-.78-.42-1.61-.89-2.23-.69-.94-1.15-1.95-1.59-3-.35-.82-.73-1.65-1.26-2.36-1.97-2.64-4.48-4.7-7.26-6.43-.54-.34-1.19-.65-1.8-.69-1.37-.08-2.76-.07-4.08,.49-.83,.35-1.05,.55-1.01,1.43,.02,.44,.11,.89,.23,1.32,.67,2.32,.87,4.72,1.14,7.09,.26,2.22,.27,4.47,.41,6.7,.06,.93,.08,.93,1.11,1.07Zm2.71,1.33c.46,0,.79,.04,1.1,0,2.33-.36,4.65-.74,6.98-1.12,.24-.04,.46-.15,.7-.22,.46-.13,.71-.46,.69-.9-.05-.97,.06-2.02-.29-2.88-.95-2.32-1.95-4.63-3.64-6.56-1.12-1.28-2-2.79-3.42-3.79-.59-.41-1.24-.79-1.93-.97-1.11-.3-1.54,.05-1.57,1.18-.04,1.78-.16,3.58,.02,5.34,.34,3.27,.88,6.51,1.35,9.92Zm10.17,18.54c-.13,.03-.24,.02-.27,.07-.81,1.01-1.71,1.97-2.39,3.07-1.14,1.82-2.9,2.79-4.73,3.67-.84,.4-1.2,.17-1.37-.76-.2-1.08-.35-2.17-.41-3.26-.09-1.86-.09-3.73-.14-5.59-.01-.43-.1-.86-.15-1.26-1.23-.07-1.35,.01-1.38,.9-.09,2.36-.21,4.71-.27,7.07-.03,1.34-.02,2.68,.06,4.01,.05,.79,.38,1.55-.03,2.36-.12,.24,.02,.62,.06,1.1,.53,0,1.02,.09,1.45-.02,.66-.17,1.31-.44,1.92-.75,1.17-.57,2.31-1.19,3.46-1.81,.31-.17,.66-.35,.87-.62,.68-.87,1.27-1.79,1.5-2.9,.13-.63,.36-1.25,.58-1.86,.4-1.13,.82-2.25,1.25-3.41Zm-20.68,8.71c.11-.33,.17-.44,.17-.55,0-1.9,.03-3.81-.06-5.71-.07-1.58-.29-3.15-.47-4.72-.14-1.2-.41-1.3-1.62-.97-1.21,.33-2.45,.56-3.68,.79-1.28,.24-2.57,.39-3.85,.63-.94,.17-1.24,.65-1,1.56,.09,.34,.26,.7,.48,.97,1.68,2.1,3.6,3.96,5.72,5.6,.85,.66,1.9,1.08,2.86,1.61,.45,.25,.89,.5,1.44,.8Zm-10.4-26.07c2.03-.13,3.97-.26,5.91-.38,.36-.02,.73-.08,1.07,0,1.32,.3,1.75-.07,1.59-1.37-.16-1.33-.32-2.66-.41-3.99-.13-1.86-.19-3.73-.31-5.6-.03-.46-.18-.92-.27-1.37-1.19,.23-1.99,.63-2.61,1.42-1.3,1.65-2.56,3.32-3.52,5.23-.94,1.86-1.5,3.74-1.45,6.05Zm32.06,10.51c-.56,0-.97-.08-1.35,.01-1.85,.46-3.7,.95-5.54,1.47-.46,.13-.88,.42-1.32,.62-.68,.3-.94,.79-.91,1.54,.1,2.44,.12,4.89,.21,7.33,.02,.45,.24,.89,.42,1.53,1.6-1.06,3.03-1.97,3.98-3.45,.35-.54,.7-1.09,1.08-1.6,.84-1.14,1.88-2.13,2.54-3.41,.63-1.23,.9-2.5,.89-4.03Zm-17.78-1.32c.31-1.21,.16-2.75-.33-4-1.76-.23-2.43-.18-3.27,.23,0,.94-.04,1.87,.03,2.8,.02,.24,.31,.63,.53,.66,.99,.16,2,.21,3.04,.31Zm-4.05-8.52c.08,.91,.16,1.59,.19,2.27,.02,.62,.33,.87,.92,.86,.73-.02,1.46,0,2.19-.06,.2-.01,.4-.18,.57-.27-.26-.59-.6-1.07-.69-1.6-.14-.78-.55-1.14-1.28-1.19-.58-.04-1.17,0-1.89,0Zm7.92,7.49c0-1.46-.03-2.63-.7-3.85l-1.96,.52,.39,3.54c.82-.08,1.51-.14,2.27-.21Zm-7,4.1c1.01,.04,2.02,.1,3.02,.1,.59,0,.8-.36,.77-1.13-.02-.67-.24-.9-.84-.92-.48-.01-.97,0-1.45-.07-1.83-.25-1.87-.22-1.66,1.6,0,.08,.06,.15,.16,.41Zm8.61-4.16c1.79-.37,1.9-.51,1.7-2.08-.01-.08-.02-.16-.03-.24-.19-1.46-.21-1.48-1.63-1.39-.19,.01-.39,.06-.71,.12,.1,1.24,.13,2.42,.67,3.6Zm-1.42,1.5c-.47,.02-.79,.04-1.11,.05-.99,.03-1.17,.2-1.22,1.2-.01,.28-.01,.57,0,.85,.04,.82,.53,1.31,1.27,1.29,.89-.03,1.38-.5,1.33-1.37-.03-.64-.17-1.27-.27-2.02Zm-2.85-6.47c1.58,.18,2.39-.28,1.94-2.32-.95-.09-1.93-.33-2.77,.25l.83,2.07Zm5.92,5.97c-1.47-.07-1.71,.18-1.54,1.52,.02,.2,.04,.4,.05,.6,0,.59,.28,.88,.89,.9,.61,.02,.88-.3,.99-.84,.16-.79-.03-1.51-.39-2.18Zm-.83-8.5c-1.74-.26-2.22,.51-1.64,2.08,.55,.16,1.11,.5,1.79,.18l-.14-2.26Z"/><path d="M34.29,155.94c0,.15,.03,.31,0,.46-.51,2.09-1.07,4.17-1.52,6.27-.23,1.07-.3,2.18-.39,3.27-.23,2.68-.47,5.35-.62,8.03-.05,.84,.09,1.71,.27,2.54,.67,2.95,1.63,5.82,3.07,8.46,.81,1.48,1.94,2.8,3,4.13,.68,.85,1.51,1.59,2.27,2.38,.1,.1,.14,.26,.29,.54-.36,0-.61,.07-.78-.01-.54-.27-1.18-.5-1.55-.94-1.96-2.27-4.02-4.42-5.13-7.36-.82-2.18-1.44-4.4-2.19-6.59-.47-1.36-.48-2.79-.32-4.23,.2-1.86,.33-3.73,.48-5.59,.16-1.98,.19-3.98,1-5.86,.23-.55,.24-1.19,.38-1.78,.23-.99,.45-1.98,.76-2.95,.11-.34,.47-.61,.71-.91l.27,.13Z"/><path d="M62.09,138.05c-.94-.43-1.8-.41-2.63-.49-.86-.08-1.69-.21-2.34-.98,.24-.42,.56-.5,1.02-.4,.91,.21,1.82,.46,2.75,.54,1.36,.13,2.34,.85,3.27,1.73,.21,.2,.36,.49,.6,.61,1.47,.73,2.51,1.91,3.39,3.25,.64,.98,1.25,1.99,1.83,3.01,.08,.14-.03,.54-.16,.61-.21,.1-.63,.13-.74,0-.29-.32-.53-.73-.66-1.14-.45-1.4-1.54-2.37-2.35-3.53-.32-.46-.9-.6-1.48-.74-1.04-.26-2.18-.26-3.06-1.02-.08-.07-.23-.11-.34-.1-1.17,.1-2.33-.44-3.51-.06-.3,.1-.65,.07-.97,.08-1.3,.05-2.59,.12-3.89,.15-.47,.01-.94-.05-1.49-.09,.14-.79,.67-.87,1.11-.89,1.21-.07,2.43-.05,3.64-.08,.77-.02,1.54-.05,2.31-.11,1.16-.09,2.32-.21,3.69-.34Z"/><path d="M74.18,174.69c.13-.56,.15-.92,.29-1.23,.85-1.84,1.18-3.8,1.37-5.79,.11-1.17,.19-2.36,.07-3.52-.29-2.79-.59-5.59-1.11-8.35-.36-1.91-1.2-3.71-2.17-5.42-.19-.33-.55-.66-.12-1.07,.56,.35,1.71,1.75,2.03,2.61,.3,.79,.5,1.63,.76,2.43,.24,.73,.55,1.44,.73,2.18,.74,3.02,1.06,6.09,1.16,9.19,.02,.68-.19,1.36-.28,2.05-.12,.97-.15,1.95-.35,2.9-.29,1.39-.73,2.74-1.69,3.84-.08,.1-.29,.08-.7,.18Z"/><path d="M35.91,152.81c.03-.49,0-.75,.07-.95,.65-1.53,1.14-3.13,2.11-4.53,1.32-1.91,2.61-3.86,4.46-5.31,.98-.77,2.05-1.45,3.1-2.13,.52-.34,.74-.33,1.67-.2,.02,.58-.37,.84-.81,1.06-2.84,1.42-4.97,3.64-6.82,6.16-.85,1.15-1.57,2.36-2.09,3.71-.29,.77-.68,1.54-1.69,2.18Z"/><path d="M27.97,156.75c-.05,.38-.05,.77-.16,1.13-1.19,3.82-1.63,7.8-2.42,11.7-.37,1.82-.71,3.68-.05,5.54,.15,.43,.09,.94,.06,1.42-.68-1.41-1.24-2.86-1.22-4.43,.01-.92,.23-1.85,.42-2.76,.76-3.62,1.54-7.24,2.32-10.86,.14-.66,.36-1.3,1.05-1.74Z"/><path class="d" d="M52.8,161.94h-2.59c-.15-.52-.37-1.01-.41-1.51-.15-1.66-.19-3.33-.34-4.99-.18-1.98-.39-3.96-.65-5.93-.09-.74-.43-.88-1.22-.76-1.05,.16-1.97,.66-2.68,1.37-2.06,2.05-3.73,4.35-4.91,7.07-.72,1.66-.71,3.41-1.3,5.05-.01,.04-.01,.08-.02,.12-.22,1.61,.12,1.92,1.71,1.66,.76-.12,1.53-.11,2.3-.18,1.25-.11,2.5-.25,3.76-.35,.79-.06,1.59-.08,2.51-.12l.44,2.7c-.48,.1-.89,.3-1.24,.24-.86-.14-1.61,.13-2.37,.4-1.82,.64-3.68,1.04-5.61,1.15-.32,.02-.64,.11-.96,.17-1.65,.3-2.81-.42-3.15-2.08-.15-.71-.19-1.45-.18-2.18,.04-1.51,.21-3,.72-4.43,.44-1.23,.75-2.5,1.22-3.71,.35-.9,.81-1.79,1.35-2.59,.66-.97,1.45-1.85,2.2-2.76,.39-.47,.86-.88,1.19-1.39,.81-1.27,1.95-2.17,3.14-3.02,.79-.57,1.58-1.13,2.38-1.68,.27-.18,.56-.37,.86-.44,1.27-.28,2.04,.05,2.22,1.32,.11,.75,.44,1.47,.66,2.21,.18,.58,.44,1.16,.49,1.75,.24,2.79,.47,5.59,.6,8.39,.07,1.49-.08,2.98-.14,4.54Z"/><path class="d" d="M54.79,176.29c.07,1.41,.15,2.58,.18,3.75,.02,1.02-.02,2.03-.04,3.05,0,.77,.08,1.56-.03,2.31-.27,1.89-.59,3.77-.95,5.64-.14,.75-.51,1.02-1.31,1.01-.73,0-1.47-.05-2.18-.23-.91-.23-1.79-.55-2.65-.92-.55-.24-1.02-.65-1.53-.97-.37-.24-.73-.54-1.13-.72-2.45-1.06-4.39-2.77-6.12-4.76-.26-.3-.53-.64-.67-1.01-.89-2.4-1.75-4.82-2.61-7.23-.08-.23-.13-.48-.12-.72,.03-.57,.24-1.03,.89-1.13,.72-.11,1.45-.23,2.17-.35,2.52-.43,5.04-.88,7.57-1.3,.23-.04,.48,.01,.72,.02,.56,.03,1.12,.11,1.68,.07,.76-.05,.96,.06,1.03,.8,.04,.4,0,.8,0,1.16-1.98,.73-3.81,1.45-5.83,1.56-1.12,.06-2.23,.43-3.35,.62-1.87,.32-2.28,1.92-1.61,3.45,.63,1.46,1.82,2.49,2.89,3.59,1.13,1.16,2.35,2.24,3.54,3.33,.2,.19,.47,.31,.72,.45,1.03,.58,2.03,1.2,3.09,1.7,.48,.22,1.1,.28,1.63,.24,.49-.04,.9-.37,.95-.96,.06-.77,.16-1.54,.17-2.31,0-1.1-.04-2.19-.12-3.29-.12-1.9-.29-3.81-.43-5.71-.08-1.03,.03-1.14,1.03-1.14,.8,0,1.59,0,2.38,0Z"/><path class="d" d="M58.28,160.17c-1.03-.14-1.05-.14-1.11-1.07-.14-2.23-.15-4.48-.41-6.7-.27-2.38-.47-4.77-1.14-7.09-.12-.43-.21-.88-.23-1.32-.04-.88,.18-1.08,1.01-1.43,1.32-.56,2.71-.57,4.08-.49,.61,.04,1.26,.36,1.8,.69,2.78,1.73,5.29,3.79,7.26,6.43,.53,.71,.91,1.54,1.26,2.36,.44,1.05,.9,2.07,1.59,3,.46,.63,.79,1.46,.89,2.23,.23,1.77,.34,3.56,.41,5.35,.04,1.2-.28,1.53-1.44,1.96-1.94,.72-3.94,.93-6,.9-1.05-.02-2.1,.21-3.15,.32-.28,.03-.56,.04-.81,.06-.5-.43-.49-.96-.47-1.5,.02-.61,.27-.93,.93-1.05,2.28-.41,4.55-.89,6.82-1.33,.32-.06,.65-.04,.97-.03,.65,0,.93-.32,1.04-.95,.27-1.6,.19-3.19-.36-4.7-.46-1.25-1.21-2.4-1.69-3.64-.84-2.2-2.6-3.71-3.96-5.52-.55-.73-1.34-1.3-2.05-1.91-1.09-.93-2.41-1.12-3.78-1.06-.74,.03-.95,.26-1.14,1.16-.45,2.13-.47,4.29-.28,6.45,.16,1.82,.33,3.65,.62,5.46,.26,1.64,.68,3.26,1.03,4.89q-.95,.28-1.69-1.46Z"/><path class="d" d="M60.99,161.5c-.48-3.4-1.01-6.65-1.35-9.92-.18-1.76-.06-3.56-.02-5.34,.03-1.13,.46-1.48,1.57-1.18,.68,.19,1.34,.56,1.93,.97,1.42,1,2.3,2.5,3.42,3.79,1.69,1.93,2.69,4.25,3.64,6.56,.35,.86,.25,1.91,.29,2.88,.02,.44-.23,.77-.69,.9-.24,.07-.46,.18-.7,.22-2.32,.38-4.65,.76-6.98,1.12-.31,.05-.64,0-1.1,0Zm5.78-2.34c.16,0,.33,0,.49,0,.2,0,.41,.03,.61,.03,.8,0,.98-.11,1.22-.89,.25-.83,.36-1.67,.04-2.51-.68-1.81-1.82-3.24-3.45-4.28-.89-.57-1.77-1.15-2.66-1.71-.27-.17-.55-.37-.84-.48-.75-.28-1.18,.06-1.11,.88,.02,.28,.14,.55,.17,.83,.03,.31,0,.63-.02,.94-.02,.43-.12,.88-.05,1.29,.3,1.87,.66,3.74,.98,5.61,.16,.91,.6,1.23,1.42,.85,1.03-.49,2.1-.61,3.2-.58Z"/><path class="d" d="M71.16,180.04c-.43,1.16-.85,2.28-1.25,3.41-.22,.61-.45,1.23-.58,1.86-.23,1.11-.82,2.04-1.5,2.9-.21,.27-.56,.45-.87,.62-1.14,.62-2.29,1.24-3.46,1.81-.62,.3-1.26,.58-1.92,.75-.44,.11-.93,.02-1.45,.02-.03-.48-.18-.86-.06-1.1,.41-.81,.08-1.57,.03-2.36-.08-1.33-.1-2.68-.06-4.01,.06-2.36,.18-4.71,.27-7.07,.04-.89,.15-.97,1.38-.9,.05,.41,.14,.83,.15,1.26,.06,1.86,.05,3.73,.14,5.59,.06,1.09,.21,2.18,.41,3.26,.17,.93,.53,1.16,1.37,.76,1.83-.88,3.58-1.85,4.73-3.67,.69-1.09,1.58-2.05,2.39-3.07,.04-.05,.14-.04,.27-.07Z"/><path class="d" d="M50.48,188.75c-.55-.3-.99-.55-1.44-.8-.96-.53-2-.94-2.86-1.61-2.12-1.64-4.04-3.5-5.72-5.6-.22-.28-.39-.63-.48-.97-.24-.91,.06-1.39,1-1.56,1.28-.23,2.57-.39,3.85-.63,1.23-.23,2.47-.46,3.68-.79,1.21-.33,1.49-.23,1.62,.97,.18,1.57,.39,3.14,.47,4.72,.09,1.9,.05,3.81,.06,5.71,0,.11-.07,.22-.17,.55Zm-3.77-10.27c-.86,0-1.58-.11-2.23,.03-.61,.13-1.21,.45-1.72,.82-.49,.35-.46,.78-.04,1.25,.99,1.12,1.96,2.27,3.01,3.32,.44,.44,1.07,.73,1.65,1.01,.55,.26,1.14-.01,1.38-.63,.16-.41,.28-.87,.26-1.3-.07-1.29-.2-2.59-.34-3.87-.06-.53-.36-.77-.93-.68-.4,.06-.81,.05-1.04,.06Z"/><path class="d" d="M40.08,162.68c-.05-2.31,.51-4.19,1.45-6.05,.96-1.91,2.22-3.58,3.52-5.23,.62-.79,1.42-1.2,2.61-1.42,.09,.45,.25,.91,.27,1.37,.12,1.86,.18,3.73,.31,5.6,.09,1.33,.25,2.66,.41,3.99,.16,1.3-.28,1.67-1.59,1.37-.34-.08-.71-.03-1.07,0-1.94,.12-3.88,.25-5.91,.38Zm7.2-2.01c-.17-.8-.33-1.38-.41-1.97-.2-1.61-.33-3.22-.54-4.83-.05-.35-.3-.67-.48-1.06-.33,.19-.51,.27-.66,.4-1,.85-1.88,1.79-2.36,3.04-.41,1.06-.92,2.08-1.25,3.16-.3,.98,.08,1.35,1.07,1.33,1.13-.02,2.27,.01,3.41,0,.35,0,.7-.06,1.23-.1Z"/><path class="d" d="M72.14,173.18c.02,1.53-.26,2.81-.89,4.03-.66,1.29-1.7,2.27-2.54,3.41-.38,.52-.73,1.06-1.08,1.6-.95,1.49-2.37,2.39-3.98,3.45-.18-.64-.4-1.08-.42-1.53-.09-2.44-.12-4.89-.21-7.33-.03-.76,.23-1.24,.91-1.54,.45-.2,.86-.49,1.32-.62,1.84-.52,3.69-1.01,5.54-1.47,.37-.09,.79-.01,1.35-.01Zm-6.64,9.69c.6-.56,1.07-1.12,1.65-1.52,.81-.55,1.3-1.3,1.7-2.16,.19-.4,.43-.78,.61-1.19,.14-.33,.29-.68,.33-1.04,.08-.69-.35-1.07-1.04-.92-.47,.1-.91,.35-1.38,.44-.62,.13-1.26,.26-1.88,.22-.8-.05-1.12,.13-1.14,.94-.01,.61-.02,1.22,.06,1.82,.14,.95,.33,1.9,.56,2.83,.05,.22,.35,.38,.53,.56Z"/><path class="d" d="M54.37,171.86c-1.04-.1-2.05-.15-3.04-.31-.21-.03-.51-.42-.53-.66-.06-.92-.03-1.85-.03-2.8,.84-.4,1.51-.45,3.27-.23,.48,1.25,.64,2.79,.33,4Z"/><path class="d" d="M50.32,163.34c.71,0,1.3-.03,1.89,0,.73,.05,1.15,.41,1.28,1.19,.09,.53,.43,1.02,.69,1.6-.17,.09-.36,.26-.57,.27-.73,.05-1.46,.04-2.19,.06-.59,.01-.9-.24-.92-.86-.03-.68-.11-1.36-.19-2.27Z"/><path class="d" d="M58.23,170.83c-.76,.07-1.45,.13-2.27,.21l-.39-3.54,1.96-.52c.67,1.22,.7,2.39,.7,3.85Z"/><path class="d" d="M51.23,174.93c-.1-.26-.15-.34-.16-.41-.21-1.83-.17-1.86,1.66-1.6,.48,.07,.97,.05,1.45,.07,.61,.02,.82,.24,.84,.92,.03,.77-.17,1.13-.77,1.13-1.01,0-2.01-.06-3.02-.1Z"/><path class="d" d="M59.85,170.77c-.54-1.18-.57-2.37-.67-3.6,.32-.05,.51-.1,.71-.12,1.42-.09,1.45-.07,1.63,1.39,.01,.08,.02,.16,.03,.24,.2,1.58,.1,1.72-1.7,2.08Z"/><path class="d" d="M58.43,172.27c.11,.75,.24,1.38,.27,2.02,.04,.88-.44,1.34-1.33,1.37-.73,.03-1.22-.46-1.27-1.29-.02-.28-.02-.57,0-.85,.05-1,.23-1.17,1.22-1.2,.32-.01,.64-.03,1.11-.05Z"/><path class="d" d="M55.58,165.8l-.83-2.07c.84-.59,1.82-.35,2.77-.25,.45,2.04-.35,2.5-1.94,2.32Z"/><path class="d" d="M61.5,171.77c.36,.67,.55,1.39,.39,2.18-.11,.54-.39,.86-.99,.84-.61-.02-.88-.31-.89-.9,0-.2-.02-.4-.05-.6-.17-1.34,.07-1.59,1.54-1.52Z"/><path class="d" d="M60.66,163.27l.14,2.26c-.68,.32-1.24-.02-1.79-.18-.58-1.57-.1-2.34,1.64-2.08Z"/><path d="M66.76,159.15c-1.11-.03-2.17,.09-3.2,.58-.82,.39-1.26,.06-1.42-.85-.33-1.87-.68-3.73-.98-5.61-.07-.42,.03-.86,.05-1.29,.01-.31,.04-.63,.02-.94-.02-.28-.15-.55-.17-.83-.06-.82,.36-1.16,1.11-.88,.3,.11,.57,.3,.84,.48,.89,.57,1.77,1.14,2.66,1.71,1.63,1.04,2.77,2.47,3.45,4.28,.32,.84,.21,1.68-.04,2.51-.24,.77-.42,.9-1.22,.89-.2,0-.41-.03-.61-.03-.16,0-.33,0-.49,0Zm-3.44-.84c.67-.16,1.18-.32,1.69-.39,.52-.07,1.05-.04,1.58-.05,1.43-.03,1.8-.54,1.38-1.91-.07-.23-.19-.45-.33-.65-1.07-1.63-2.58-2.77-4.24-3.72-.23-.13-.52-.17-.83-.28-.29,2.44,.13,4.7,.74,7Z"/><path d="M46.71,178.48c.23-.01,.64,0,1.04-.06,.57-.09,.87,.15,.93,.68,.14,1.29,.27,2.58,.34,3.87,.02,.43-.1,.9-.26,1.3-.24,.62-.83,.89-1.38,.63-.58-.28-1.2-.57-1.65-1.01-1.06-1.06-2.02-2.2-3.01-3.32-.42-.47-.44-.9,.04-1.25,.51-.37,1.11-.69,1.72-.82,.66-.14,1.37-.03,2.23-.03Zm.76,1.38c-1.23-.19-2.28-.51-3.38,.32,1.09,1.26,1.97,2.6,3.62,3.36,.33-1.36-.15-2.46-.24-3.68Z"/><path d="M47.29,160.66c-.52,.04-.87,.1-1.23,.1-1.14,0-2.27-.03-3.41,0-.99,.02-1.37-.36-1.07-1.33,.33-1.08,.84-2.11,1.25-3.16,.49-1.25,1.36-2.19,2.36-3.04,.15-.13,.34-.21,.66-.4,.18,.39,.43,.71,.48,1.06,.21,1.6,.35,3.22,.54,4.83,.07,.59,.24,1.17,.41,1.97Zm-2.05-5.62c-1.14,.8-2.17,2.91-2.18,4.41h2.72l-.54-4.41Z"/><path d="M65.51,182.87c-.18-.18-.48-.34-.53-.56-.23-.93-.42-1.88-.56-2.83-.09-.6-.08-1.22-.06-1.82,.02-.82,.34-.99,1.14-.94,.62,.04,1.26-.1,1.88-.22,.47-.1,.91-.34,1.38-.44,.69-.15,1.12,.23,1.04,.92-.04,.35-.18,.71-.33,1.04-.18,.41-.42,.79-.61,1.19-.4,.85-.88,1.6-1.7,2.16-.59,.4-1.06,.96-1.65,1.52Zm.45-2.22c1.31-.64,1.74-1.76,2.18-3.05l-2.69,.66c.15,.84-.19,1.62,.51,2.39Z"/><path class="d" d="M63.33,158.32c-.6-2.31-1.02-4.56-.74-7,.31,.1,.6,.14,.83,.28,1.66,.96,3.17,2.1,4.24,3.72,.13,.2,.26,.42,.33,.65,.41,1.37,.04,1.88-1.38,1.91-.53,.01-1.06-.01-1.58,.05-.51,.07-1.02,.23-1.69,.39Z"/><path class="d" d="M47.46,179.86c.09,1.22,.57,2.32,.24,3.68-1.65-.76-2.52-2.09-3.62-3.36,1.09-.83,2.15-.52,3.38-.32Z"/><path class="d" d="M45.24,155.04l.54,4.41h-2.72c.01-1.5,1.04-3.61,2.18-4.41Z"/><path class="d" d="M65.96,180.65c-.7-.77-.36-1.55-.51-2.39l2.69-.66c-.43,1.29-.86,2.41-2.18,3.05Z"/></g></g></g></svg>