<?xml version="1.0" encoding="utf-8"?>
<!-- Generator: Adobe Illustrator 26.1.0, SVG Export Plug-In . SVG Version: 6.00 Build 0)  -->
<svg version="1.1" id="Layer_1" xmlns="http://www.w3.org/2000/svg" xmlns:xlink="http://www.w3.org/1999/xlink" x="0px" y="0px"
	 viewBox="0 0 508 316.5" style="enable-background:new 0 0 508 316.5;" xml:space="preserve">
<style type="text/css">
	.st0{fill:#FFFFFF;}
	.st1{enable-background:new    ;}
</style>
<g id="a">
</g>
<g id="b">
	<g id="c">
		<g>
			<rect y="3.4" class="st0" width="508" height="302"/>
			<g class="st1">
				<path d="M89.6,144V65.9l-0.5,2.9L69.2,144h-5.4L43.8,68.8l-0.5-2.9V144H26.9V25.7h20.5l19.1,73l19.1-73H106V144H89.6z"/>
				<path d="M157.9,144v-6.1h-0.3c-1.2,4.2-6.8,6.4-10.8,6.4h-8.3c-9.5,0-16.4-6.6-16.4-16.1v-17.6c0-10.5,6.3-16.1,16.1-16.1h8.6
					c6.4,0,9.6,2.2,10.8,6.4h0.3l-0.3-7.4V78.9c0-0.5-0.3-0.8-0.8-0.8h-28.9V64.5h28.9c9.8,0,16.1,6.3,16.1,16.1V144H157.9z
					 M156.7,108.5h-18.6c-0.5,0-0.8,0.3-0.8,0.8v20.3c0,0.7,0.3,0.8,0.8,0.8h18.6c0.5,0,0.8-0.3,0.8-0.8v-20.3
					C157.6,108.8,157.2,108.5,156.7,108.5z"/>
			</g>
			<g class="st1">
				<path d="M205.8,78.1c-0.5,0-0.8,0.3-0.8,0.8V144h-15.2V64.5h14.9v7.8h0.3c1.9-5.2,5.9-8.1,12.2-8.1h8.1v13.9H205.8z"/>
			</g>
			<g class="st1">
				<path d="M267.3,144v-6.1H267c-1.2,4.2-6.8,6.4-10.8,6.4h-8.3c-9.5,0-16.4-6.6-16.4-16.1v-17.6c0-10.5,6.3-16.1,16.1-16.1h8.6
					c6.4,0,9.6,2.2,10.8,6.4h0.3l-0.3-7.4V78.9c0-0.5-0.3-0.8-0.8-0.8h-28.9V64.5h28.9c9.8,0,16.1,6.3,16.1,16.1V144H267.3z
					 M266.1,108.5h-18.6c-0.5,0-0.8,0.3-0.8,0.8v20.3c0,0.7,0.3,0.8,0.8,0.8h18.6c0.5,0,0.8-0.3,0.8-0.8v-20.3
					C267,108.8,266.6,108.5,266.1,108.5z"/>
			</g>
			<g class="st1">
				<path d="M112,280.9H91l-14.2-85l-0.3-2.9l-0.3,2.9l-14.2,85h-21L20.5,162.3h18.3L52,248.3l0.5,4.6l0.5-4.6l13-86.1h20.8
					l12.9,86.1l0.5,4.6l0.5-4.6l13.4-86.1h18.1L112,280.9z"/>
				<path d="M140.4,181.6c0-5.6,4.6-10.2,10.2-10.2s10.2,4.6,10.2,10.2c0,5.6-4.6,10.2-10.2,10.2S140.4,187.2,140.4,181.6z
					 M142.8,280.9v-79.6H158v79.6H142.8z"/>
				<path d="M175,280.9V162.3h15.2v118.6H175z"/>
				<path d="M207.2,280.9V162.3h15.2v118.6H207.2z"/>
				<path d="M237,181.6c0-5.6,4.6-10.2,10.2-10.2s10.2,4.6,10.2,10.2c0,5.6-4.6,10.2-10.2,10.2S237,187.2,237,181.6z M239.3,280.9
					v-79.6h15.2v79.6H239.3z"/>
				<path d="M306.6,280.9v-6.1h-0.3c-1.2,4.2-6.8,6.4-10.8,6.4h-8.3c-9.5,0-16.4-6.6-16.4-16.1v-17.6c0-10.5,6.3-16.1,16.1-16.1h8.6
					c6.4,0,9.7,2.2,10.8,6.4h0.3l-0.3-7.5v-14.7c0-0.5-0.3-0.8-0.8-0.8h-29v-13.6h29c9.8,0,16.1,6.3,16.1,16.1v63.5H306.6z
					 M305.4,245.3h-18.6c-0.5,0-0.8,0.3-0.8,0.8v20.3c0,0.7,0.3,0.8,0.8,0.8h18.6c0.5,0,0.8-0.3,0.8-0.8v-20.3
					C306.3,245.6,305.9,245.3,305.4,245.3z"/>
				<path d="M404.5,280.9v-65.2c0-0.5-0.3-0.8-0.8-0.8h-16.1c-0.5,0-0.8,0.3-0.8,0.8v65.2h-15.2v-65.2c0-0.5-0.3-0.8-0.8-0.8h-16.1
					c-0.5,0-0.8,0.3-0.8,0.8v65.2h-15.2v-79.6h14.9v7.5h0.3c1.9-5.3,5.6-7.8,13-7.8h5.3c7.5,0,11,2.5,12.9,7.8h0.3
					c1.9-5.3,5.4-7.8,12.9-7.8h5.6c9.8,0,16.1,6.3,16.1,16.1v63.9H404.5z"/>
				<path d="M471.4,281.2h-18.3c-9.8,0-16.4-6.3-16.4-16.1v-10.5h15.2v11.9c0,0.5,0.3,0.8,0.8,0.8h18.6c0.5,0,0.8-0.3,0.8-0.8v-12.7
					c0-0.8-0.2-1.2-0.8-1.5l-22.9-10.8c-8-3.7-11.9-8.8-11.9-15.2V217c0-9.8,6.6-16.1,16.4-16.1h18.3c9.8,0,16.1,6.3,16.1,16.1v8.8
					h-15.2v-10.2c0-0.5-0.3-0.8-0.8-0.8h-18.6c-0.5,0-0.8,0.3-0.8,0.8v10.8c0,0.8,0.2,1.2,0.8,1.5l22.9,10.8
					c8,3.7,11.9,8.8,11.9,15.2v11C487.5,274.9,481.2,281.2,471.4,281.2z"/>
			</g>
		</g>
	</g>
</g>
</svg>
