<?xml version="1.0" encoding="UTF-8"?><svg xmlns="http://www.w3.org/2000/svg" viewBox="0 0 508 333"><defs><style>.d{fill:#fff;}</style></defs><g id="a"/><g id="b"><g id="c"><g><rect width="508" height="333"/><g><path class="d" d="M89.63,158.19V80.09l-.51,2.87-19.95,75.23h-5.41l-19.95-75.23-.51-2.87v78.1H26.91V39.85h20.46l19.1,73.03,19.1-73.03h20.46v118.34h-16.4Z"/><path class="d" d="M157.92,158.19v-6.09h-.34c-1.18,4.23-6.76,6.42-10.82,6.42h-8.28c-9.47,0-16.4-6.59-16.4-16.06v-17.58c0-10.48,6.25-16.06,16.06-16.06h8.62c6.42,0,9.64,2.2,10.82,6.42h.34l-.34-7.44v-14.71c0-.51-.34-.85-.85-.85h-28.91v-13.52h28.91c9.8,0,16.06,6.25,16.06,16.06v63.39h-14.88Zm-1.18-35.5h-18.6c-.51,0-.85,.34-.85,.85v20.29c0,.68,.34,.84,.85,.84h18.6c.51,0,.85-.34,.85-.84v-20.29c0-.51-.34-.85-.85-.85Z"/><path class="d" d="M205.76,92.26c-.51,0-.85,.34-.85,.85v65.08h-15.21V78.74h14.88v7.78h.34c1.86-5.24,5.92-8.12,12.17-8.12h8.11v13.86h-19.44Z"/><path class="d" d="M267.3,158.19v-6.09h-.34c-1.18,4.23-6.76,6.42-10.82,6.42h-8.28c-9.47,0-16.4-6.59-16.4-16.06v-17.58c0-10.48,6.25-16.06,16.06-16.06h8.62c6.42,0,9.64,2.2,10.82,6.42h.34l-.34-7.44v-14.71c0-.51-.34-.85-.85-.85h-28.91v-13.52h28.91c9.8,0,16.06,6.25,16.06,16.06v63.39h-14.88Zm-1.18-35.5h-18.6c-.51,0-.85,.34-.85,.85v20.29c0,.68,.34,.84,.85,.84h18.6c.51,0,.85-.34,.85-.84v-20.29c0-.51-.34-.85-.85-.85Z"/><path class="d" d="M111.97,295.07h-21.01l-14.23-85.04-.34-2.88-.34,2.88-14.23,85.04h-21.01l-20.33-118.58h18.3l13.21,86.06,.51,4.57,.51-4.57,13.04-86.06h20.84l12.87,86.06,.51,4.57,.51-4.57,13.38-86.06h18.13l-20.33,118.58Z"/><path class="d" d="M140.42,195.8c0-5.59,4.57-10.16,10.16-10.16s10.16,4.57,10.16,10.16-4.57,10.16-10.16,10.16-10.16-4.57-10.16-10.16Zm2.37,99.27v-79.62h15.25v79.62h-15.25Z"/><path class="d" d="M174.98,295.07v-118.58h15.25v118.58h-15.25Z"/><path class="d" d="M207.16,295.07v-118.58h15.25v118.58h-15.25Z"/><path class="d" d="M236.98,195.8c0-5.59,4.57-10.16,10.16-10.16s10.16,4.57,10.16,10.16-4.57,10.16-10.16,10.16-10.16-4.57-10.16-10.16Zm2.37,99.27v-79.62h15.25v79.62h-15.25Z"/><path class="d" d="M306.6,295.07v-6.1h-.34c-1.19,4.24-6.78,6.44-10.84,6.44h-8.3c-9.49,0-16.43-6.61-16.43-16.09v-17.62c0-10.5,6.27-16.09,16.09-16.09h8.64c6.44,0,9.66,2.2,10.84,6.44h.34l-.34-7.45v-14.74c0-.51-.34-.85-.85-.85h-28.97v-13.55h28.97c9.83,0,16.09,6.27,16.09,16.09v63.53h-14.91Zm-1.19-35.57h-18.63c-.51,0-.85,.34-.85,.85v20.33c0,.68,.34,.85,.85,.85h18.63c.51,0,.85-.34,.85-.85v-20.33c0-.51-.34-.85-.85-.85Z"/><path class="d" d="M404.51,295.07v-65.22c0-.51-.34-.85-.85-.85h-16.09c-.51,0-.85,.34-.85,.85v65.22h-15.25v-65.22c0-.51-.34-.85-.85-.85h-16.09c-.51,0-.85,.34-.85,.85v65.22h-15.25v-79.62h14.91v7.45h.34c1.86-5.25,5.59-7.79,13.04-7.79h5.25c7.45,0,11.01,2.54,12.88,7.79h.34c1.86-5.25,5.42-7.79,12.87-7.79h5.59c9.83,0,16.09,6.27,16.09,16.09v63.87h-15.25Z"/><path class="d" d="M471.42,295.41h-18.3c-9.83,0-16.43-6.27-16.43-16.09v-10.5h15.25v11.86c0,.51,.34,.85,.85,.85h18.63c.51,0,.85-.34,.85-.85v-12.71c0-.85-.17-1.19-.85-1.52l-22.87-10.84c-7.96-3.73-11.86-8.81-11.86-15.25v-9.15c0-9.83,6.61-16.09,16.43-16.09h18.3c9.83,0,16.09,6.27,16.09,16.09v8.81h-15.25v-10.16c0-.51-.34-.85-.85-.85h-18.63c-.51,0-.85,.34-.85,.85v10.84c0,.85,.17,1.19,.85,1.52l22.87,10.84c7.96,3.73,11.86,8.81,11.86,15.25v11.01c0,9.83-6.27,16.09-16.09,16.09Z"/></g></g></g></g></svg>