<?xml version="1.0" encoding="UTF-8"?>
<svg id="Layer_2" data-name="Layer 2" xmlns="http://www.w3.org/2000/svg" viewBox="0 0 472.04 459.13">
  <g id="Layer_3" data-name="Layer 3">
    <g>
      <path d="M322.8,449.38c-5.73-.45-11.29-1.06-17.15,.57-3.67,1.02-8.75,.08-7.91-6.04-9.52-3.29-20.55-1.29-27.71-10.11,3.02-5.13,8.12-6.41,13.66-6.83,.04,5.66-5.79,2.22-7.65,4.94-1.14,.22-2.24,1.2-1.61,2,.93,1.16,1.95,3.31,4.22,1.82l-.07-.06c-.26,2.97,2.31,2.24,3.56,2.22,1.41-.02,.32-1.52,.37-2.37,4.46-1.18,7.79,2.67,11.99,2.67,2.32,4.54,6.12,1.5,9.27,1.81,3.07,6.99,3.9,7.44,8.44,4.59,1.15,.36,2.31,.72,3.24,1,2.21-1.23-.26-2.73,0-3.09,3.79-3.06,6.8,.89,9.93-.6l-.03,.02c2.21-.08,2.62,2.44,4.63,3.2,1.37-3.93-1.38-7.72-.22-11.24,2.67-2.9,7.83,2.04,9.48-3.4,10.53-.62,19.67,7.61,30.14,4.11,1.14,2.04-.87,2.17-.61,3.66,3.43-.87,6.99-1.52,8.7,3.64,2.84-3.07,5.67-2.02,9.19,.88-.58-5.98-1.82-9.96-2.28-13.99-.75-6.51,2.87-13.29,9.32-13.51,5.56-.19,6.81-5.39,7.81-8.69,2-6.56-1.18-12.82-3.78-18.79-3.99,.93-7.92,.62-8.79,5.36-.09,.5-2.31,1.29-2.65,.97-3.01-2.78-7.95-1.97-10.25-6.49-2.74-5.4-6.77-10.15-9.06-15.85-.9-2.25-3.64-.64-4.83-2.8,.61-3.42,1.27-7.12,1.94-10.82,.99-5.54,.99-9.8-4.37-14.43-3.24-2.8-7.32-8.75-5.62-15.21,1.95-7.42-.14-14.9-.02-22.35,.14-.88,.28-1.76,.42-2.64,6.28,.86,11.53,4.42,17.29,6.63,1.85,.71,4.05,2.18,3.85-1.72,.55-.11,1.09-.22,1.64-.34,4.96-.02,.93-5.43,3.88-6.7,1.71,2.02,.61,4.54,1.4,6.51,3.5,.95,4.08-2.03,5.25-4.03,2.11,1.29-.56,3.93,1.64,4.81,3.45,.97,7.38-.55,10.09,2.75-2.94,1.31-5.93-1.51-9.26,.35,4.51,2.87,9.91,1.74,13.85,4.76,3.92,3,8.54,3.31,14.23,3.94-2.34-2.94-1.33-6.05-3.34-8.14-2.89,.7-4.11,2.62-4.37,6.82-1.8-4.78-4.87-5.68-8.02-6.05-.1-2.54,2.74-1.06,2.91-3.04-.73-2.59-2.56-5.06-2.42-8.12,.5,0,1.01,0,1.51,0,.83,3.27,2.11,6.32,4.78,9.7,11.09-8.12,23.57-13.46,36.86-17.66-1.24-3.65-2.41-7.07-3.75-11.02,3.86,2.51,7.37,11.4,5.41,14.22-1.3,1.88-.64,3.17-.24,4.57,2.5,8.88,1.12,17.87,.69,26.77-.33,6.85-6.27,11.34-16.05,12.62,1.66,18.11-1.9,36.11-.88,54.6,.71,12.79,6.98,18.76,15.3,25.12,6.81,5.21,15.15,7.92,21.93,13.26,1.18,.93,3.43,.74,3.39,2.89-.04,2.27-1.94,3.12-3.8,3.58-4.43,1.08-8.9,2.02-13.35,3.03-6.98,1.58-14.08,2.87-20.97,4.62-8.73,2.22-16.94-1.47-25.38-.37-1.1-2.12-2.43-4.31-5.2-3.17-2.81,1.16-4.8-.32-7.02-1.32-2.86-1.29-5.77-1.4-9.14-.84,.48,2.15,.87,3.91,1.26,5.67-.86-.42-1.71-.85-2.57-1.27-.59-1.79-1.79-2.71-3.71-2.6-.23-.33-.22-1.22-.94-.4,.26,.19,.52,.37,.78,.56,.3,2.46,2.1,2.44,3.92,2.39,.09,1.16,.14,2.51,1.44,2.84,.96,.24,.9-.89,1.04-1.57,1.09-.03,2.07,.15,2.56,1.3-3.3,5.03-8.26,5.67-13.45,4.49-5.83-1.33-2.4-6.13-2.73-9.28-1.49-1.22-2.43,1.46-4.38-.19-1.42-1.19-5.08-1.51-7.1,1.15-.45-.44-.9-.87-1.35-1.31l.06,.07c-.6-1.24-1.16-.49-1.73,.04-1.47-.22-2.93-.28-4.26,.57-.54-1.37-1.65-2.04-2.98-2.44-1.91-4.38-4.39-4.4-8.82-.07-.82,.24-1.65,.48-2.47,.72-1.64-3.92-4.57-1.24-6.9-1.24-1.72,0-2.84,1.81-2.38,3.01,1.29,3.4-1.05,5.9-1.53,8.83-2.43-1.23-3.8-4.09-6.8-4.44,.13-1.01,2.2-1.76,.45-3.05-1.5,.52-1.75,1.71-1.79,3.03Zm13.92-11.26c.17,.1,.35,.2,.52,.29-.18-.09-.37-.18-.55-.27-.05-.15-.08-.33-.17-.45-.06-.08-.22-.07-.33-.11,.18,.18,.35,.35,.53,.53Zm88.44-112.41c-.17-.55-.49-1.11-1.07-.65-.22,.17,.03,.95,.07,1.45,1.09,1.97,2.07,4.07,5.06,4.99-.61-3.13-2.36-4.44-4.06-5.79Zm-4.68-18.6c-4.69,2-3.23,4.69-.05,8.83-.59-3.49-.09-5.56,1.12-7.4,.74-.75,1.83-1.3,1.76-2.57-1.49-.41-2.21,.27-2.83,1.14Zm-44.01,143.03c2.66,.32,4.2-.03,6.18-2.11-2.24,.68-3.91-.57-6.18,2.11Zm44.17-132.22c.19-.31,.54-.61,.54-.92,.02-.88-.38-1.64-1.24-.76-.49,.49-.2,1.37,.7,1.69Z"/>
      <path d="M312.77,136.77c1.98-.72,3.59,1.01,5.49,.82,4.17-9.36-4.81-28.13-16.73-34.97-1.65-2.11-3.76-1.24-5.79-.9-6.58,1.14-13.35,.84-19.83,2.93-3.23,1.04-6.87,.41-7.96-3.07-.94-3.01,.53-6.4,3.52-8.04,5.49-2.99,11.22-5.53,16.82-8.33,5.45-2.72,11.12-4.25,17.2-5.28,4.79-.81,9.53-3.64,13.06-7.59,.57-.77,1.14-1.54,1.7-2.31,4.28-3.2,8.26-6.98,13.95-7.6,3.18,3.21,5.59,2.77,8.76-1.61,2.19-1.27,4.23,.64,6.38,.32-.43,4.92,3.41,4.29,6.32,4.87,4.16,4.26,2.83,11.32,7.85,15.27,.5-3.59-.79-6.63-2.22-9.74-2.5-5.42-6.64-10.11-7.41-16.31,.57-.6,1.14-1.2,1.72-1.8,2.63,8.52,2.63,8.94,12.91,8.91,8.61-.03,17.05,1.93,22.07,8.22,4.46,5.6,8.17,12.31,11.63,18.92,6.79,13,10.37,26.84,12.65,41.16,.39,2.46,.92,4.89,1.46,7.75,6.27-1.37,7.94,1.35,7.29,7.08-.78,6.91,2.11,13.03,5.47,18.89-.54,.52-1.07,1.03-1.61,1.55-3.76,0-7-1.41-9.92-3.68,.89-.16,1.78-.33,2.67-.49,1.15,.05,2.18,1.35,3.82,.09-1.57-5.09-3.08-10.36-3.48-15.78-15.07,3-29.64,6.2-43.47,12.02l.31-.08c-6.42,.36-12.44-2.86-18.94-2.05-1.02,.13-2.63,.13-2.89-1.64,3.54-1.72,8.06,1.74,11.2-1.98-.05-3.47-2.35-6.71-.42-10.7,4.15,1.91,9,.72,12.53,2.05,9.56,3.61,9.31,4.25,12.83-5.03-1.86-1.63-3.86-3.37-6.14-5.36,3.16-2.32,5.82-5.89,3.11-8.21-5.48-4.71-6.49-13.91-16.11-14.79-3.83-.35-8.52-.9-9.01,3.27-.5,4.31-3.11,3.33-5.3,3.4-.88,10.42-7.25,18.44-10.43,27.66-.61,1.78-3.06,.64-4.63,1.01-1.58-.25-3.25-.93-4.7-.6-1.17,.26-4.66,.99-1.04,3.29,.44,6.67-1.9,13.4,.47,20.03,.02,.82,.04,1.65,.06,2.47-2.3-.02-4.35,.38-6.49,1.59-4.78,2.72-8.83,6.27-13.07,9.7-5.56,4.5-11.13,9.94-19.52,7.49l.03,.04c-.62-2.6,.97-2.67,2.85-2.57,5.67,.28,10.23-2.6,14.01-6.13,4.92-4.61,9.84-9.03,16.03-11.85,.9-.41,2.34-1.35,2.27-1.87-.79-5.84,2.79-11.82-.65-18.03-1.99,1.86-3.78,3.53-5.57,5.2-.82,0-1.64,0-2.46,0,.37-2.15-1.01-3.3-2.81-4.81-1.81,2.99-4.8,3.08-7.74,3.27-.42-.46-.85-.91-1.27-1.37,2.37-3.09,.55-7.9,5.49-10.48-2.83-.81-4.58-1.3-6.34-1.8,0-.79,.01-1.58,.02-2.37Zm-42.22-35.79c14.5-9.54,30.68-2.25,46.11-4.96-6.69-6.18-40.37-2.83-46.11,4.96Zm69.96-14.54c-.33-2.42-.58-4.27-.92-6.8-1.91,1.23-4.11,.77-4.33,3.4,.99,1.65,2.54,2.49,5.25,3.4Z"/>
      <path d="M223.12,49.27c-.29,4.78-.99,9.67-2.38,14.24-4.12,13.5-2,26.86-.56,40.45,2.1,19.81,6.27,39.18,10.51,58.32-2.28,2.48-4.13,1.05-5.82-.12-4.19-2.89-8.19-2.86-12.88-.73-5.1,2.32-10.72,3.57-15.56,6.5-2.42,1.46-4.17,.43-6.44,.17,.69-3.76,4.37-2.01,5.3-4.16-5.21-6.42,2.91-14.92-4.39-21.88-1.95-.98-6.24,1.74-9.52-1.82,3.19-3.19,6.85,.17,9.93-2.38v-24.35c-4.97-2.55-9.07,2.42-13.57,.55-.05-.55-.11-1.11-.16-1.66,3.97-3.03,9.1-2.12,13.11-3.64,3.61-11.24,1.43-22.61,2.81-33.74,.42-3.37,3.04-4.87,3.49-7.71l.23,.22,.3-.12c.75,1.36,2.59,2.31,1.29,4.36-2.51,3.94-2.49,8.44-2.2,12.81,.51,7.71-.92,15.3-1.51,22.93,5.19,1.77,9.99-.83,15.55,.63-4.66,5.37-10.91,2.26-15.94,4.2-.32,8.57-.55,17.08,1.06,25.88,9.08-.77,17.87-1.42,25.5,5.67-4.95,2.8-7.91-1.91-11.65-2.21-4.16-.34-8.34-.76-12.99,.35,1.84,6.67,1.64,13.46,1.87,20.22,9.46-.73,17.03-10.01,27.78-3.6-5.03-20.38-6.92-40.36-10.66-59.94-3.96-20.73,5.13-39.68,4.65-59.33-1.74-3.71-9,.75-8.2-6.16,.49-.08,.98-.15,1.47-.23,4.68,1.8,11.9,.22,11.04,9.15"/>
      <path d="M235.29,35c2.3,41.96,2.42,99.14,4.61,141.11,.15,2.89,1.89,6.32-2.89,8.95-2.64-47.07-4.48-149.5-4.48-149.5"/>
      <path d="M232.14,39.58c1.23-.02,2.46-.04,3.7-.06"/>
      <path d="M197.5,67.39l-.3,.12-.23-.22c-1.76-1.19-.09-3.05-.87-4.44,.43-.51,.52-1.04-.09-1.42-.13-.08-.57,.34-.86,.53-4.33,2.26-8.98,1.57-13.56,1.42-8.07-.27-8.31-.07-8.96,8.72,4.1,2.89,8.9,.66,13.16,1.5,.22,.91,.02,.96-.55,.96-3.97,.04-8.31-1.16-11.82,.7-4.26,2.26-1.91,7.24-2.62,10.91-2.06,10.61-8.77,17.7-16.87,25.04-4.78-4.5-10.05-8.14-17.45-8.13-.17,3.21-.34,6.47-.52,9.92,6.69,.61,12.98-.08,19.39,.59-3.26,.39-6.51,.85-9.78,1.16-5.34,.51-12.77-2.28-11.84,7.76-6.36,4.04-5.21,11.23-7.22,17.1-.72,2.1-.37,4.12-.6,6.25,4.94,2.59,9.56-.7,14.31-.26,3.61,.33,7.27-.96,11.13-.39,3.16,.47,5.68-1.26,5.2-5.23-.25-2.08-.4-4.16-.23-6.3,.47,3.28,.93,6.55,1.44,10.17,5.75-.43,11.48,.28,16.34-6.4,5.75,14.44,11,27.65,16.25,40.86-.47,.5-.93,.99-1.4,1.49-4.4-9.87-9.75-19.36-12.55-29.89-.7-2.61-1.39-4.91-3.59-6.63-2.77,2.77-.44,4.85,.2,6.74,2.41,7.07,5.58,13.9,7.79,21.03,2.44,7.92,7.59,14.37,10.8,21.84,.23,1.02,.66,1.88,1.78,2.18-.03,.63-.06,1.26-.09,1.89-2.6-.37-4.28,1.12-5.83,2.89-.3-.54-.93-1.12-.86-1.6,1.33-9.41-3.95-17.01-8.07-24.29-4.54-8.03-5.02-17.05-8.8-25.17-2.42-5.19-5.97-3.31-9.35-3.39-3.98-.09-3.57,3.26-4.13,5.84-1.12,5.17,2.02,10.18,.52,15.37-2.27-6.39-2.38-12.98-1.63-19.8-9.58-1.16-18.6,.25-27.42,1.88-2.36,5.42-1.5,11.09-3.5,16.8-1.71-5.78,1.74-10.73,.28-16.28-6.74,.67-13.34,1.33-20.06,1.99-1.44,4.12,.19,8.46-1.57,12.69-1.7-1.4-.8-2.89-.76-4.15,.27-8.06,.3-8.06-7.97-7.7-2.69,.12-4.7-.83-5.82-3.23,2.33-2.88,4.04,.9,6.39-.39,4.37-4.6,2.63-11.19,4.14-16.92,1.75-.04,1.65-1.55,2.11-2.63,1-.05,2-.11,2.97-.16-1.23,6.6,.47,13.18,.02,20.45,7.44-.66,13.98-1.24,21.22-1.88-1.61-8.77,2.67-16.19,3.44-24.63-4.59,.98-6.79,4.12-9.45,6.63-5.31,5.02-6.55,4.86-10.2-1.36-.72-1.23-1.89-2.3-1.65-3.94,.7,0,1.4,0,2.1,0,1.68,1.51,1.93,4.23,4.58,5.28,5.32-3.2,8.54-9.4,15.26-11.77-7.97-.78-15.56-2.01-23.28-.85-.34-.98-1.65-1.52-1.29-2.82,5.92,.13,11.86,.01,17.75,.46,4.93,.37,7.97-1.03,7.9-7.38,1.05,2.74-.08,4.87,2.22,7.41,.29-4.57,2.47-8.36-.2-11.52-1.7-2.02-.67-2.96,.13-4.24,1.2-1.91,3.16-1.34,4.36-.35,5.09,4.22,12.58,3.15,16.7,8.56,13.36-11.55,16.89-23.61,13.12-31.89-2.02,.54-3.11,1.95-3.36,3.03-8.8-5.23-17.86,.11-26.54-1.13-1.44,4.31-.87,8.08-1.17,11.77-2.76-3.36-.7-7.57-1.73-11.91-9.08-.16-17.92-.49-26.4,1.02-1.24,11.74-2.4,22.77-3.56,33.8-.59-.41-1.17-.83-1.76-1.24,2.19-10.55,2.36-21.22,2.62-32.5-6.67,.83-12.54-1.47-18.81-.26-.25,21.63,2.37,43.12-.13,65.52-2.71-3.37-3.76-89.89-1.51-97.66,2.44,9.61-.51,19.65,1.92,29.86h18.41v-27.27c3.16,7.09,2.13,14.47,2.11,21.73-.02,4.41-.73,7.49,5.89,5.25,4.03-1.36,9.07,.22,13.65,.51,7.67,.49,8.01-.05,9.01-7.41,1.08-7.93-1.34-15.95,.9-23.82,.28-.98,.17-2.08,2.02-2.95-2.2,11.28,.39,22.28-2.39,33.47,10.49,1.73,20.39-1.74,30.37-.76,1.65,.16,2.28-1.28,2.52-2.98,.3-2.05,1.21-3.99,1.65-6.03,.93-4.31,3.68-5.67,7.78-5.15,1.66,.21,3.34,.38,5.01,.46,10.47,.49,14.59-3.26,15.09-13.72,.06-1.2,0-2.41,.56-3.62v10.98c2.96,2.55,7.06,.26,9.68,3.38-3,2.44-6.48,1-9.66,1.66-1.88,2.6-.57,5.72-1.34,8.48Zm-96.11,75.03c-.69,2.09-3.17,4.02-.91,6.99,2.84-2.19,1.1-4.74,.91-6.99Z"/>
      <path d="M50.41,38.74c-.03-.88-.07-1.77-.1-2.65,2.12-1.5,3.14-3.49,1.09-5.5-1.43-1.4-1.01-2.58-.59-3.91,1.87-5.97,3.9-11.9,5.71-17.88,1.79-5.92,6.2-7.76,11.81-8.33,11.95-1.22,23.64-.04,35.15,3.29l-.1,1.62c-9.98,.21-19.62-5.15-30.01-1.71,2.1,7.52,5.09,15.39-5.18,21.09h34.14c-4.47-3.04-8.85-.52-12.91-4.32,16.97,3.23,32.95,1.12,48.86,2.3-3.97,.21-7.95,.13-11.92,.25-1.5,.04-3.79-.27-2.74,2.63-3.31,1-6.97-.8-10.15,1.24-14.37,1.21-28.76,1.77-43.4,1.56-4.35,36.39,6.45,72.29,.64,108.27,1.36-18.19-1.01-36.17-2.54-54.22-1.55-18.32-2.06-36.72-2.27-55.15-.77,25.17-1.77,50.27-2.07,75.39-.33,.19-.65,.16-.94-.09-2.02-.5-.38-3.29-2.38-3.81-.55,.05-1.1,.09-1.65,.14-1.02-7.08-1.48-14.11,.15-21.22,1.8-7.84,1.39-15.85,1.19-24.78-5.9,14.83-3.74,29.85-5.51,44.85-2.87-1.69-.75-3.57-2.12-5.86-5.77,30.95-8.4,61.6-16.11,91.34,5.89-51.89,16.64-103.03,23.84-154.82,.68,2.92-.23,6.15,1.25,9.8,2.97-6.04-2.09-12.16,1.83-17.26,3.6-4.13,2.64-8.59,.93-13.1l-.09,.13c8.2,2.43,3.29,8.21,2.81,13.12,5.48-1.85,6.25-5.41,5.56-10.04-.51-3.4-1.65-6.33-5.15-7.08-4.19-.9-6.62,1.66-8.19,5.96,4.39,2.09,5.68,5.51,3,9.98-1.44,.72-2.84,1.99-4.86,.06,1.36-2.1,6.4-3.66,.5-8.74-3.05,19.17-4.72,37.58-13.03,54.22,1.45-9.01,5.75-17.43,5.53-26.76Z"/>
      <path d="M427.47,165.89c.54-.52,1.07-1.03,1.61-1.55,5.67,10.24,6.96,21.66,8.85,32.91,.41,2.46,.13,5.09,.85,7.44,1.14,3.74-.06,5.45-4.23,5.44,3.81,11.7,5.49,23.56,9.24,34.73,3.88,11.55,.5,22.56-.6,33.91-3.93-1.76-8.49,1.5-13.19,.37l.1,.12c.39-5.26,.44-10.5,0-15.91,.62,1.87,1.24,3.75,1.86,5.64,2.05,.24,2.44-3.3,4.54-1.58,2.46,1.96,.06,6.1,4.93,8.98-.78-9.33,3.18-17.18,1.02-25.33-3.14-11.85-3.64-24.53-10.5-35.29-.4-.63-.72-1.74-.44-2.33,2.12-4.42-1.34-4.3-3.89-4.97-6.07-1.57-12.03,.11-18.03,.58-17.8,1.4-27.3,9.32-31.93,26.56-.3,.28-.59,.57-.89,.85-.76-.06-1.52-.12-2.28-.19,1.66-3.88-.2-5.4-3.75-6.65-3.12-1.1-4.05,1.44-4.52,2.71-1.29,3.52,.93,5.2,4.3,5.72,.56,.09,1.05,.66,1.57,1.01-.1,.46-.21,.92-.31,1.38-1.83-.23-3.66-.45-5.44-.68-4.03,6.95,3.36,6.18,5.77,8.75-.02,.51-.03,1.02-.05,1.53-1.98-.49-3.96-.98-5.95-1.47,.06,5.62,1.12,6.27,8.6,5.33,.69-.05,1.39-.09,2.08-.14,.71,1.56,1.42,3.11,2.75,6.03,.57-8.8-2.64-15.96-.94-23.26,1.34-.27,2.14-.25,2.48,1.6,1.52,8.25,2.15,16.75,6.14,24.38-.1,1.46-.2,2.92-.3,4.38-1.94-.5-2.01-2.82-3.64-3.93v4.88c-.4,.04-.79,.03-1.19-.02-.78-.06-1.56-.11-2.35-.17-1.1-2.2-2.59-4.3-3.23-6.63-1.35-4.88-4.63-4.58-8.83-4.07,1.98,6.08,6.7,8.73,11.11,11.69,.93,.51,1.87,1.02,2.8,1.54,1.9,.66,1.7,2.31,1.81,3.82-2.28,1.1-3.81-2.38-6.31-1.06,.55,4.05-.76,7.65-2.28,11.26-2.26-.77,.14-3.51-2.42-4.12-2.93,.92-6.32,1.43-9.48,3.87,6.39,4.98,14.59,6.07,18.94,12.88-8.6-5.41-19.22-7.17-26.4-15.04,.73-.07,1.46-.13,2.19-.2,3.83-3.1,1.26-8.72,5.09-13.19-.11,5.63-1.88,10.05-.2,15.05,.48-3.25,2.95-3.52,4.94-3.86,4.81-.84,8.29-2.77,8.5-8.3-17.64-11.69-16.55-33.92-8.92-46.46,10.17-16.71,24.98-28.16,44.7-31.52,7.28-1.24,15.08-3.52,22.92,1.4-2.12-10.05-3.64-19.68-7.21-28.83Zm-39.06,42.63c4.39,3.14,7.85,.85,11.16-1.43,.54-2.54-2.31-3.93-1.09-6.16,2.94,.49,2.43,4.24,5.33,5.42,5.9-.67,12.21-1.39,18.7-2.12q-4.06-9.16-12.93-5.41c-.19,.08-.51-.04-.72-.16-4.12-2.2-7.01,.85-10.25,2.39-4.13,1.5-9.85,.86-10.14,7.53-4.66-.46-7.21,1.64-7.65,6.3-5.83,1.76-7.74,7.24-12.12,11.79,3.3,.6,4.99,2.59,7.34,2.38,1.53-2.68,2.49-5.35,4.27-7.26,2.31-2.48,1.37-4.63,.4-7.02,3.63,2.06,6.3,.37,8.69-2.16,.66-1.65-2.83-2.18-.98-4.09Zm32.38-12.74c1.85,3.27,4.12,5.77,4.58,9.2,3.2,.21,6.08,1.93,9.25,.73q-5.37-11.95-13.83-9.93Zm12.1,82.04q3.28-2.78,.15-6.79c-.76,2.42-.77,4.5-.15,6.79Z"/>
      <path d="M29.51,333.32c1.43,2.48,.68,5.07,.37,7.64-3.76,3.98-2.7,8.31-.9,12.68-.77,5.4-2.34,10.85-2.06,16.2,.26,4.98-3.89,7.01-5.15,10.81-.51,1.54-11.9,1.52-13.1,.29-.82-.84-.55-1.64-.42-2.74,2.55-22.71,4.37-45.51,7.54-68.13,3.38-24.1,6.36-48.17,7.6-72.49,.54-10.7,6.25-20.4,7.74-31.03,.17-1.22,.43-2.43,.75-4.19-5.6-.6-10.32-3.82-15.48-4.63-5.13-.8-10.44,2.18-16.38,1.65,1.23-5.78,4.4-10.02,6.76-14.44,7.34-13.79,13.32-28.31,16.92-43.25,4.64-19.29,11.57-38.03,14.38-57.79,.67-4.74,1.41-9.79,5.52-13.36-10.15,42.44-17.94,85.51-39.22,124.26,2.55,1.93,4.63,1.02,6.51,.55,4.67-1.18,8.78-.9,13.17,1.74,6.73,4.04,9.23,2.45,10.1-5.2,.2-1.73-.31-3.66,1.16-5.41,3.9,7.73-1.53,14.51-1.64,21.68-.03,1.64-.43,3.37-1.05,4.9-8.32,20.53-7.2,42.48-9.43,63.88-1.76,16.92-5.91,33.46-6.98,50.48-.91,14.45-2.43,28.86-3.82,43.27-.28,2.85-.73,5.77-2.49,8.34,2.8,1.62,4.89-1.27,7.8-.02-.54-1.73-1.37-2.96-1.04-3.56,6.06-11.04,2.33-23.4,4.87-34.89,.72-3.23,1.56-6.44,2.34-9.66,2.28-.12,3.05,3.31,5.66,2.41Z"/>
      <path d="M188.98,179.78c.47-.5,.93-.99,1.4-1.49,1.79,3.05,3.58,6.1,5.56,9.49,5.83-1.63,11.74-.2,17.68,.65,3.67,.53,7.2,.79,7.98-5.78,2.25,4.63,4.44,3.01,6.81,2.22,6.99-2.33,11.13-.93,14.88,4.76,10.31-3.44,21.38-1.81,31.85-4.58,.91-.24,2.13,.71,3.21,1.11l.22,.24c-10.1,2.05-20.14,4.47-30.54,4.58-2.31,.03-4.53,.86-4.74,3.83-.66,.34-1.32,.69-1.98,1.03-1.6-9.75-5.43-11.75-14.19-7.23,2.1,13.15,2.03,26-6.44,37.44-2.14,2.89,.52,3.36,2.51,3.95-.03,.71-.06,1.41-.09,2.12-7.03-.09-11.38-2.72-10.39-10.68,.17-1.34-1.01-2.17-2.11-2.83,1.25-3.83-1.91-3.14-3.82-3.73,.18-2.29-.82-3.28-3.16-3.29-.1,2.7,1.43,3.11,3.18,3.28-.06,.66-.12,1.33-.17,1.99-.12,3.25-.88,5.91-5.5,5.38-1.83-3.54-3.78-7.32-5.73-11.1,.23-.25,.46-.51,.7-.76,.8,.09,2.03,.55,2.35,.2,3.08-3.44-.28-13.64-5.02-15.52-1.12-.3-1.55-1.16-1.78-2.18,2.86-.18,2.71-1.7,1.72-3.72-1.51-3.1-2.92-6.24-4.38-9.37Zm27.26,46.91q3.28-3.58-1.06-5.12c-.55,1.91,.15,3.52,1.06,5.12Z"/>
      <path d="M148.12,263.9c.17-1.13,.34-2.27,.51-3.4,.04-.91,.09-1.83,.13-2.74,9.13-3.06,18.25-1.48,27.27,.32,7.51,1.5,14.31-.32,21.34-3.03-.51-.55-.75-1.03-.95-1.01-8.91,.84-17.67,.73-26.34-2.12-5.16-1.69-9.92,2.58-15,2.45-.93-2.63,.87-3.12,2.06-3.53,7.44-2.55,14.93-4.09,22.48-.26,3,1.53,6.12,1.07,9.19,.2,4.22-1.2,8.22-1.31,11.9,1.64,3,2.41,6.21,1.43,9.52,.47,8.81-2.54,17.45-3.22,26.32,.72,2.45,1.09,2.7,2.88,4.76,4.17-.24-4.99-.43-9.98-.74-14.96-.14-2.23-.48-4.4,2.91-3.88l-.17-.08c1.77,7.61,2.34,15.13-2.67,22.94-8.78-.53-19.01,3.58-27.82-4.16-.57-.5-1.77-1.12-2.18-.86-5.9,3.6-12.87,.77-19.08,3.54-6.23,2.78-13.09,2.22-19.76,.47-3.68-.97-7.41-1.15-10.96,1.2,5.46,5.99,12.82,5.97,19.41,4.18,8.64-2.35,16.01-2.44,24.72,1.07,7.42,2.99,16.53,1.4,24.84,.07,3.27-.52,6.58-1.27,9.64-2.51,1.66-.67,2.69-1.09,3.53,.63,.93,1.89-.56,3.09-1.88,3.26-14.05,1.72-28.05,6.93-42.2-.18-4.34-2.18-9.59-1.78-14.17-.1-9.03,3.32-17.46,3.23-25.48-2.57-.79-.57-1.95-.62-2.94-.91-2.55-1.81-5.52-.33-8.22-1.04Zm86.39-5.91c-5.37-5.15-11.93-3.23-19.57-3.51,6.61,5.63,13.19,3.92,19.57,3.51Z"/>
      <path d="M278.56,186.39l-.22-.24c5.02-2.1,4.83-7.17,6.22-11.27,.23-.69,6.12-14.71,11.19-19.62-1.09-1.06-3.76-1.29-2.12-3.8,4.66-7.13,6.91-17.41,19.13-14.7,0,.79-.01,1.58-.02,2.37-8.88,.63-10.5,1.62-11.18,7.02,1.87-2.11,3.62-5.03,6.55-4.06,3.25,1.08,2.31,4.49,2.25,7.13-.15,6.08,1.24,11.93,1.96,17.66,3.2,.56,3.84-3.57,6.7-2.46-.95,6.61-7.54,5.03-11.37,7.9,1.34-4.05,1.95-7.87-.18-13.11-5.85,10.06-8.83,19.79-10.73,29.9-.09,.45,1.1,1.91,2.21,.47l-.03-.04c-2.2,3.35,3.21,1.88,2.43,4.82-.38,.81-1.05,2.22-1.75,3.69-3.6-3.98-8.87-6.81-7.94-12.46,9.08-8.31,4.72-22.96,16.76-29.49-10.06-.75-11.67,.22-16.04,9.27-5.61,11.63-9.7,23.98-16.6,35.02-.77,1.23-2.16,2.69-1.04,4.52l.11-.14c-5.1,9.28-8.14,19.31-10.2,29.61-.77,3.87-.14,7.9,.78,11.83,.83,3.55,2.5,4.62,5.74,2.68,1.28,.55,2.05,1.56,2.52,2.84-.57,2.02-1.13,4.05-1.7,6.07-.66,0-1.32-.01-1.97-.02-.75-1.73,1.45-3.37,.18-5.23-2.58-.28-4.8,.1-6.03,2.75-.63-.03-1.27-.06-1.9-.09h0c-.43-.74-.86-1.47-1.3-2.2,3.86-6.02,1.72-11.94-5-13.08-4.16-.71-8.43-.75-12.65-1.1,0,0,.17,.08,.17,.08-.26-1.28-1.46-1.73-2.3-1.53-7.08,1.68-12.17-3.21-18.1-5.3,.03-.71,.06-1.41,.09-2.12,4.68-.63,7.63,4.83,11.79,3.88,2.24-1.13-.67-4.01,2.45-4.05q2.56,4.41,23.22,7.23c3.78-15.48,8.49-30.6,16.22-44.65,.95-1.73,3.39-3.39,1.7-6.01Zm22.78-34.2c2.3,.91,4.04,1.04,6.1,.6,.25-2.49,1.1-4.99-.68-7.49-2.85,1.6-3.69,4.2-5.42,6.89Z"/>
      <path d="M213.51,32.96c-.49,.08-.98,.15-1.47,.23-13.66-.23-27.34-.22-40.99-.75-13.42-.52-26.94-.42-39.99-4.42,0-.42,.03-.84,.11-1.25,2.76-1.09,5.16,.71,7.73,.95,20.59,1.93,41.25,2.32,61.92,2.36,3.15,0,5.04-1.35,6.52-3.8,.32,.29,.63,.57,.95,.86-.58,2.84,1.43,2.32,3.04,2.38,6.2,.23,12.09-1.9,18.15-2.68,8.63-1.11,13.68-7.62,13.74-14.12,.03-3.57-.82-5.43-5.24-5.91-6.7-.72-13.06,1.22-19.7,1.01-12.56-.41-25.16,.86-37.75-.31-17.73-1.64-35.43-4.09-53.3-1.88-1.63,.2-3.33-.18-5-.29l-.06-1.87c11.69-.63,23.25-1.87,35.1-.66,17.49,1.78,35.09,4.11,52.73,2.31,10.13-1.03,20.2-1.91,30.38-1.11,1.91,.15,3.6-.03,4.61,2.28,2.21,5.07,0,14.46-4.26,17.94-2.17,1.77-6.66,1.45-5.77,6.18,.56,3-1.25,6.25,.9,9.1-1.23,.02-2.46,.04-3.7,.06-.21-3.04,.91-6.24-1.05-9.15-6.03-.19-11.94,.24-17.58,2.54Z"/>
      <path d="M302.86,412.14c1.55,1.95,3.02,3.97,4.66,5.84,1.33,1.51,1.86,4.48,5.36,2.18,.75-.49,5.3,1.86,6.34,5.05-.29,2.59,.37,5.41-1.79,7.56-2.08,2.21,.64,3.03,.24,6.15,1.94-3.15,1.03-4.35,.49-5.6,2.95,2.4,7.57,3.42,7.18,8.6l.03-.02c-2.59-2.24-5.57-3.08-8.95-2.54-.16-.96-.11-2.02-1.14-2.6l.07,.09c-.59-2.38,.94-6.1-3.64-6.19-.82,2.09,1.31,3.13,1.12,4.8-.38,.44-.77,.89-1.15,1.33-1.63-2.59-1.38-7.24-5.77-6.88-3.69,.3-6.99-1.45-10.56-1.07-.54-1.46-1.57-2.21-3.15-2.16,.34-3.26-1.23-5.83-2.99-8.34-6.77-9.67-12.5-19.77-15.27-31.45-1.22-5.14-3.55-10.02-5.41-15.11,1.77-.47,3.06-1.59,3.97,1.07,5.15,14.99,15.19,27.15,23.59,40.26,1.39,2.16,3.64,3.39,5.94,4.52,1.17-.89,.5-2.17,.54-3.33,.1-.72,.2-1.44,.29-2.16Z"/>
      <path d="M44.27,351.18c-.5,11.39,.22,22.75,1.25,34.08,.29,3.16-.03,6.8,4.63,7.19,1.12,.67,.39,3.59,3,2.47,7.09,.38,8.76-.61,7.88-7.37-2.96-22.82,.71-45.58,.29-68.38-.22-11.56,1.89-23.29,2.01-35l2.4,.03c1.17,12.6-1.45,25.05-1.54,37.6-.18,25.09-2.21,50.19,.83,74.95-4.7,2.59-9.37-1-13.46,1.92-1.09,.78-9.07-8.03-9.07-10.29-.02-11.69-2.45-23.33-.84-35.05,.11-.79,.5-1.55,.76-2.33,.63,.06,1.25,.12,1.88,.18Z"/>
      <path d="M330.94,453.84c.49-2.92,2.83-5.43,1.53-8.83-.46-1.2,.66-3,2.38-3.01,2.33,0,5.26-2.69,6.9,1.24,.8,2.78-1.42,6.06,1.39,8.51v.31s.06-.2,.06-.2c1.06-3.66,3.24,1.6,4.04,.22,1.81-4.7,.32-7.5-3.01-9.57,4.42-4.33,6.91-4.31,8.82,.07-.45,2.01,2.24,3.4,1.1,5.54l.05,.19,.03-.3c3.31,.64,2.99-.91,1.81-2.99,1.33-.85,2.78-.79,4.26-.57,.58-.01,1.15-.03,1.73-.04l-.06-.07c-.93,.7-.35,1.45,.15,1.9,.47,.43,1.01,.04,1.2-.6,2.02-2.65,5.68-2.34,7.1-1.15,1.95,1.64,2.88-1.04,4.38,.19,.33,3.15-3.1,7.96,2.73,9.28,5.19,1.18,10.15,.54,13.45-4.49l-.05-.03c.54,1.72,2.66,2.61,2.5,4.7-6.18,5.07-12.89,6.41-20.45,3.31-11.96-4.9-24.25-3.25-36.5-1.49-1.3,.19-2.47,.23-3.61-.45-.06-1.11,0-2.33-1.75-1.75l-.16,.05Zm9.21-1.12c1-1,.21-1.69-.34-2.47-.61,.95-.88,1.8,.34,2.47Zm18.91-5.27c.13,.14,.3,.41,.39,.39,.31-.08,.58-.26,.87-.4-.09-.17-.24-.49-.26-.49-.34,.14-.67,.32-.99,.5Z"/>
      <path d="M45.71,166.85c.24-1.79-.2-3.79,1.55-5.13,.64,.46,1.23,1.21,2.11,.58,.15-.11,.14-.81-.03-.95-.81-.63-1.52-.03-2.23,.32-.92-1.12-.34-2.31-.18-3.49,2.34-.14,3.46-3.09,6.05-2.63,.61,10.51,4.02,21.04-.3,31.5-.58,0-1.16,0-1.74,0-.53-5.43,2.98-10.76,.34-16.29-2.07,9.69-3.65,19.44-5.18,29.19-2.27,14.47-4.68,28.91-6.58,43.43-.4,3.04-3.21,7.41,2.19,9.41,.73-.04,1.47-.08,2.2-.12-.07,2.98-1.89,4.92-4.12,7.07-2.32-3.66-4.09-7.45-7.67-9.88-.87-.59-1.39-1.76-.75-3.62,3.42-9.92,4.94-20.3,5.74-30.72,.27-3.52,.33-7.03,1.12-10.48,1.25,2.44-.45,5.4,1.75,7.73-.39-3.51,5.37-7.41-1.11-10.51,.06-.83,.13-1.66,.19-2.48,1.25,.37,2.55,1.85,3.54-.48,3.88-9.1,2.37-19.17,5.12-28.48,.44-1.47,.27-3.47-2.02-3.95Z"/>
      <path d="M67.77,188.44c.47,21.93,5.59,43.19,9.58,64.87,4.54,1.59,10.03,.22,14.84,2.56-1.48,.3-2.97,.6-4.45,.9-5.03,.87-9.97-1.54-15.01-.36-3.48-.3-3.84,1.65-3.14,4.37-.81,.59-1.62,1.18-2.52,1.85,10.69,3.12,21.37-.33,31.92,1.22-13.38,2.04-26.77,3.31-40.84,2.25,1.68-6.48-.08-13.03,3.17-19.08,.08,5.2,1.7,10.32,.78,15.63,4.82-24.17,6.92-48.42,2.07-72.93,.77-1.61,2.27-1.21,3.59-1.28Zm2.01,38.57c-.47,.04-.95,.08-1.42,.12,.87,9.32-.64,18.54-1.63,28.53,4.31-1.19,7.63-2.17,7.07-6.2-1.03-7.52-2.65-14.97-4.02-22.45Z"/>
      <path d="M62.89,102.61c.29,.25,.61,.28,.94,.09,2.37,21.71,1.85,43.41-.15,65.11-.53,5.78-1.05,11.52,.34,17.25-2,1.15-3.22,2.61-2.01,5.04,.46,15.83-.69,31.68,.69,47.49-.7-.02-1.4-.03-2.1-.05-1.71-8.33-.97-16.8-1.37-25.2,2.63-4.59,1.11-9.48,.79-14.21-.12-1.76-1.82-.67-2.79,.01,1.58-32.24,1.75-64.5,1.11-96.76-.02-.81,.33-1.62,.51-2.43,.55-.05,1.1-.09,1.65-.14,.07,16.68,.15,33.36,.22,50.04-.42,3.46-1.14,6.96,.96,11.32,2.15-4.24,1.45-7.62,1.27-10.93-.02-15.54-.05-31.08-.07-46.63Z"/>
      <path d="M292.97,299.47c-2.1-1.57-2.95-4.01-4.12-6.17-2.3-4.27-5.32-7.4-10.4-7.76-.89-2.99-1.7-5.75-2.46-8.33-10.53,4.16-14.05,12.37-13.76,22.92,.18,6.46,.07,12.94,.09,19.41-.59,.04-1.18,.09-1.76,.13-1.34-9.1-.6-18.25-.49-27.38q-3.13-.93-4.27-7.4c-2.24-1.49-5.35,.78-7.43-1.52,.15-.53,.26-1.24,.36-1.24,6.28,.14,9.09-3,9.4-9.18,.11-2.18,1.42-4.31,2.18-6.46,.69,.04,1.38,.08,2.07,.12-.82,3.19-1.77,6.36-2.41,9.59-.33,1.7-1.16,3.89,1.19,4.89,1.79,.76,3.61,.41,5.22-.83,2.77-2.14,5.59-4.22,8.39-6.32,.82,1.58,2.29,1.45,3.72,1.41,.66,2.76,.34,6.53,3.17,7.69,7.59,3.11,9.54,10.4,13.31,16.37-.66,.02-1.32,.03-1.99,.05Z"/>
      <path d="M29.51,333.32c-2.61,.89-3.38-2.53-5.66-2.41,1.34-15.5,2.77-31,3.97-46.51,.35-4.54,.05-9.13,.05-13.69,4.46,1.09,3.67,6.53,7.05,8.51-.26,2.96-.52,5.92-.77,8.88-1.1,.32-2.55-.51-3.51,1.38,2.49,.7-.41,4.43,2.95,4.95,.52,1.67,.04,3.24-.49,4.8-2.63,2.85-1.51,5.91-.5,8.97-.21,2.05-.42,4.11-.64,6.16-5.5,2.63-6.1,6.94-1.97,14-.16,1.66-.32,3.31-.49,4.97Z"/>
      <path d="M53.14,394.92c-2.6,1.12-1.87-1.8-3-2.47,.61-38.59-.42-77.2,1.51-115.77,.7,.03,1.4,.06,2.11,.09-.21,39.38-.41,78.77-.62,118.15Z"/>
      <path d="M34.93,279.21c-3.38-1.98-2.59-7.42-7.05-8.51-.37-2.63,.75-5.19-1.11-8.38,7.95,2.91,10.76,9.71,16.58,12.83,1.06,.57,.96,1.76,.93,2.8-.61,20.22,2.13,40.4,.64,60.62-.72-.04-1.44-.07-2.16-.11-.25-18.14-.55-36.27-.72-54.41-.05-5.03-1.78-8.85-6.49-11.15-2.23,1.95-.42,4.23-.62,6.31Z"/>
      <path d="M295.73,101.72c2.03-.34,4.14-1.21,5.79,.9q-8.82,6.74-11.96,14.96c.94,1.59,2.5,1.41,3.91,1.23,4.5-.59,6.65,1.93,7.49,5.79,.92,4.25-1.19,7.44-4.72,9.38-2.68,1.47-5.95,3.09-8.69,.17-2.77-2.95-4.96-6.41-2.62-10.66,1.44-2.62,2.8-5.15,1.86-8.33-2.77-1.57,4.94-6.5,8.94-13.44Zm-4.73,30.64c4.84-.57,7.2-2.84,7.29-6.61,.07-2.67-1.77-5.19-4.59-4.87-3.41,.4-6.36,2.48-6.16,6.5,.13,2.5,1.2,4.9,3.45,4.97Z"/>
      <path d="M386.92,266.92c.1-1.46,.2-2.92,.3-4.38,1.98,.48,3.24,1.75,3.99,3.61-.11,1.09-.21,2.19-.32,3.28-2.45,4.83,2.5,7.5,3.25,11.29,1.4,7.07,5.9,8.23,11.91,7.41,0,.78,0,1.55-.01,2.33-1.44,1.91-4.01,2.93-4.39,5.66-.21,.69-.42,1.38-.63,2.07-.79-.43-1.52-1.56-2.48-.22l.09,.1c.44-4.19-1.79-7.06-4.71-9.6-1.45-1.25-2.57-1.06-3.38,.7l-.46,.13c-.99-5.64-.45-11.94-6.67-15.29-.11-1.51,.09-3.16-1.81-3.82,.17-.78,.34-1.57,.5-2.35,.39,.06,.79,.06,1.19,.02,1.39,1.59,1.39,4.81,4.99,3.99-.45-1.65-.9-3.29-1.35-4.93Z"/>
      <path d="M124.99,169.49c16.91,.69,33.26,5.96,50.29,5.63-7.98,5.34-35.51-.55-50.29-5.63Z"/>
      <path d="M148.12,263.9c2.69,.72,5.66-.77,8.22,1.04-1.5,.77-1.7,2.9-4.22,2.84-15.64-.4-31.29,.26-46.91-.98-1.58-.12-3.41,.13-5.23-2.29,6.1,0,11.64-.34,17.13,.07,10.38,.78,20.7,.36,31.03-.69Z"/>
      <path d="M65.72,284.19l-2.4-.03c-.53-2.01-.7-4.03-.22-6.07,14.63,3.11,29.23,1.18,43.78,.85,4.33-.1,8.67-.81,12.88,.78-.02,.6-.05,1.2-.07,1.79-17.27-.2-34.5,2.24-51.78,.57-1.9-.18-2.03,.82-2.2,2.1Z"/>
      <path d="M317.43,432.78c2.16-2.15,1.5-4.97,1.79-7.56,6.4,2.78,12.54,6.56,20.02,5.27-1.66,5.44-6.81,.5-9.48,3.4-1.17,3.52,1.58,7.31,.22,11.24-2.01-.77-2.42-3.28-4.63-3.2,.38-5.19-4.23-6.2-7.18-8.6-.26-.16-.5-.35-.73-.54Zm5.3-.76c-.29,.18-.73,.3-.82,.56-.1,.26,.14,.65,.23,.99,.41-.28,.81-.56,1.22-.84-.2-.23-.41-.46-.62-.71Z"/>
      <path d="M43.91,252.66c-.73,.04-1.47,.08-2.2,.12,.89-11.68,1.68-23.35,3.7-34.92,1.79-10.28,1.69-20.9,5.53-30.81,.58,0,1.16,0,1.74,0-3.66,21.77-7.15,43.56-8.77,65.6Z"/>
      <path d="M122,280.3c5.06-1.78,10.49-1.54,15.29-.35,9.34,2.31,18.53,.63,27.78,.76,2.08,.03,4.17,.24,6.25,.37,.06,.68,.13,1.35,.19,2.03-7.41,1.7-14.84,1.23-22.33,.53-9.36-.87-18.76-1.36-28.14-2.02,.32-.44,.63-.88,.95-1.32Z"/>
      <path d="M390.97,449.5c-.49-1.15-1.48-1.32-2.56-1.3l.04,.05c-.39-1.76-.79-3.52-1.26-5.67,3.37-.56,6.28-.45,9.14,.84,2.22,1,4.21,2.47,7.02,1.32,2.77-1.14,4.1,1.05,5.2,3.17-4.02,2.15-7.8,4.85-12.48,5.5-.11-3.4-2.36-4.02-5.14-3.94l.05,.03Z"/>
      <path d="M45.71,166.85c2.29,.48,2.46,2.48,2.02,3.95-2.76,9.31-1.24,19.38-5.12,28.48-.99,2.33-2.29,.84-3.54,.48-.59-11.53,4.05-22.01,6.64-32.9Z"/>
      <path d="M292.19,426.67c1.57-.04,2.61,.7,3.15,2.16-.36,1.32-.18,2.54,.71,3.62-.4,.28-.81,.56-1.21,.84-.85-.18-.89-1.86-2.29-1.16-.09,2.25,1.14,4.09,1.94,6.05-4.19,0-7.53-3.85-11.99-2.67-1.35-1.02-2.64-.23-3.93,.15l.07,.06c.33-2.1-1.98-2.38-2.62-3.81,1.86-2.72,7.69,.71,7.65-4.94,2.81-.95,5.66-.56,8.51-.29Zm.36,3.75c-.97-1.87-1.97-1.21-3.21-.17,1.18,.76,2.14,1.64,3.21,.17Z"/>
      <path d="M57.24,198.14c.97-.68,2.67-1.78,2.79-.01,.32,4.73,1.84,9.62-.79,14.21-3.1-.16-2.52,2.18-2.35,3.83,.71,6.89-.96,13.52-1.88,20.24-.71-.03-1.41-.06-2.12-.09,1.1-12.76,1.84-25.57,4.35-38.17Z"/>
      <path d="M263.5,326.11c.97,8.05,.63,13.27,.97,20.19-.76,.02,1.09,.24,.33,.26-2.73-1.57-1.71,.79-1.77,1.55-.26,3-.18-11.92-1.87-22.11,.78,.04,1.56,.07,2.34,.11Z"/>
      <path d="M342.97,60.82c-3.17,4.38-5.58,4.82-8.76,1.61,2.82-1.28,5.06-2.41,5.33-6.46,.41-6.19,6.23-5.47,10.51-6.57,3.65-.93,4.88,1.05,5.55,4.02-.57,.6-1.14,1.2-1.72,1.8-1.64-3.44-3.54-4.19-5.87-.58-3.67,.43-8.26,.11-5.04,6.17Z"/>
      <path d="M187.49,199.83c1.55-1.76,3.22-3.26,5.83-2.89,2.94,4.06,3.63,8.59,2.76,13.43-.23,.25-.46,.51-.7,.76-6.5-1.06-7.11-6.24-7.89-11.3Z"/>
      <path d="M119.23,254.14c11.58-.67,22.88-4.34,34.84-1.19-11.6,.7-23.11,2.2-34.56,4.21-.1-1.01-.19-2.02-.29-3.02Z"/>
      <path d="M53.76,276.77c-.7-.03-1.4-.06-2.11-.09-.94-9.31-.58-18.6,.65-27.86,.62,.03,1.24,.07,1.85,.1-.13,9.28-.27,18.56-.4,27.84Z"/>
      <path d="M102.15,110.21c.59,.41,1.17,.83,1.76,1.24,1.06,.53,.96,1.44,.78,2.37-.36,1.3,.96,1.84,1.29,2.82,.4,1.24,1.76,2.16,1.25,3.71-3.44,2.73-3.3-3.02-6.27-2.42v10.93c-.45,1.08-.36,2.59-2.11,2.63,.06-4.66,.11-9.31,.17-13.97,.17-.79,.34-1.58,.51-2.37,1.11-1.53-2.41-5.5,2.62-4.95Z"/>
      <path d="M262.36,266.63c-.69-.04-1.38-.08-2.07-.12-.06-2.54,.9-5.14-.48-7.6,.86-1.2,2.81-1.66,2.47-3.67,.63,.03,1.27,.06,1.9,.09,.62,2.31,3.26,4.73-1.12,6.6,5.94,3.16,5.45-1.9,6.97-4.12,.66,0,1.32,.01,1.97,.02-.25,1.57-.51,3.13-.76,4.7,.05,1.53,1.78,1.57,2.33,2.65-3.74,.48-7.48,.97-11.21,1.45Z"/>
      <path d="M69.6,260.78c-.71-2.71-.35-4.66,3.14-4.37,4.88,5.02,10,.54,15.01,.36,1.48-.3,2.97-.6,4.45-.9,0,0,0,.02,0,.02-.67,2.99,5.5,.34,3.59,4.36-.43,0-.86,0-1.29-.01-.39-.89-.8-.94-1.22-.02-7.89,.19-15.79,.38-23.68,.57Z"/>
      <path d="M302.86,412.14c-.1,.72-.2,1.44-.29,2.16-5.03-7.15-9.74-14.44-10.54-23.44,2.5,7.66,7.59,14.02,10.84,21.28Z"/>
      <path d="M328.4,297.34c-6.85,1.82-14.18,1.41-20.76,4.48-.57-.53-1.14-1.05-1.71-1.58,6.3-4.25,13.28-5.4,20.7-4.55,.59,.55,1.18,1.1,1.77,1.65Z"/>
      <path d="M148.76,257.75c-.04,.91-.09,1.83-.13,2.74-7.95-.1-15.91-.2-23.86-.3-.06-.73-.12-1.46-.17-2.19,8.04-1.71,16.12,.82,24.17-.25Z"/>
      <path d="M50.31,139.16c-.47-9.05,1.02-17.95,1.88-26.91,1.49,9.05,.63,18.05,.1,27.05-.66-.05-1.32-.09-1.97-.14Z"/>
      <path d="M50.31,139.16c.66,.05,1.32,.09,1.97,.14,.23,4.6,.46,9.19,.68,13.79-1.68-.02-3.36-.03-5.04-.05,.8-4.63,1.59-9.26,2.39-13.88Z"/>
      <path d="M95.79,260.26c1.92-4.01-4.26-1.37-3.59-4.36h23.43c.02,.69,.04,1.38,.06,2.07-6.81-.38-13.31,1.24-19.9,2.29Z"/>
      <path d="M406.04,290.46c0-.78,0-1.55,.01-2.33,2.39-.22,4.88-.19,6.8-2.65-2.1-1.69-4.08-3.27-7.18-5.76,3.88,.06,5.81,.92,7.24,2.74,1.15,1.46,2.33,2.4,4.24,1.46,.45,.4,.9,.8,1.35,1.2-3.74,2.75-7.16,6.23-12.46,5.34Z"/>
      <path d="M157.72,129.86c-.48-5.88,2.42-10.81,1.45-16.03,3.71-1.78,7.31-.84,11.28-.42-15.53-3.22-9.4,9.83-12.73,16.46Z"/>
      <path d="M29.99,328.35c-4.13-7.06-3.53-11.37,1.97-14-.34,4.71,.07,9.53-1.97,14Z"/>
      <path d="M78.02,206.21c1.6,5.88,1.88,11.88,1.5,17.94-1.23-5.94-2.73-11.87-1.41-18.04l-.09,.1Z"/>
      <path d="M66.86,156.87c.61-6.27,1.21-12.54,1.82-18.81,2.6,6.49,.6,12.66,.05,18.9-.62-.03-1.24-.06-1.87-.08Z"/>
      <path d="M305.94,300.24c.57,.53,1.14,1.05,1.71,1.58-1.55,.54-3.29,.79-4.61,1.68-5.45,3.66-8.16,.94-10.06-4.02,.66-.02,1.32-.03,1.99-.05,1.1,1.19,2.21,2.38,3.03,3.26,2.92-.9,5.43-1.67,7.95-2.45Z"/>
      <path d="M78.11,206.11c-4.15-4.89-2.64-11.43-4.94-16.86,3.95,4.99,3.87,11.13,4.85,16.96l.09-.1Z"/>
      <path d="M354.48,303.52c-.14,.88-.28,1.76-.42,2.64-4.08-1.3-8.17-2.58-11.26-5.8,.07-.74,.14-1.49,.21-2.23,4.19,1.02,7.17,4.61,11.47,5.39Z"/>
      <path d="M261.93,345.33c.57-.1,1.14-.19,1.72-.29,3.85,3.89,2.83,10.04,3.72,15.3-.54,.07-1.07,.15-1.61,.22-1.42-5.01-3.69-9.6-3.82-15.23Z"/>
      <path d="M131.17,26.78c-.08,.41-.12,.83-.11,1.25-5.94,.73-11.75-.41-17.58-1.18,3.18-2.04,6.84-.24,10.15-1.24,2.55,.15,5.32-1.09,7.54,1.17Z"/>
      <path d="M83.63,241.46c-2.07-4.19-3.42-8.43-3.05-13.11,1.02,4.37,2.03,8.74,3.05,13.11Z"/>
      <path d="M343.01,298.13c-.07,.74-.14,1.49-.21,2.23-5.06,.25-9.11-4.33-14.4-3.01-.59-.55-1.18-1.1-1.77-1.65,3.32-1.36,6.9-1.82,9.65,.57,2.17,1.88,4.49,1.28,6.72,1.87Z"/>
      <path d="M107.2,167.22c5.38-.26,10.72,0,17.15,1.44-6.31,3.74-11.89,.08-17.22,.78,.02-.74,.04-1.48,.07-2.22Z"/>
      <path d="M429.99,279.15c0,1.27-.02,2.96-1.64,2.73-3.91-.54-6.51,2.38-9.85,3.24-.45-.4-.9-.8-1.35-1.2,3.98-2.5,7.6-5.98,12.95-4.66l-.1-.12Z"/>
      <path d="M412.75,301.82c-.61-2.48-4.56-3.88-1.62-6.63,1.57-1.48,3.19,.16,4.23,1.41,2.43,2.92-.44,3.8-2.61,5.22Z"/>
      <path d="M28.98,353.65c-1.8-4.38-2.86-8.7,.9-12.68-.01,4.25,.92,8.56-.9,12.68Z"/>
      <path d="M66.86,156.87c.62,.03,1.24,.06,1.87,.08-.02,4.12-.05,8.24-.07,12.36-.59,.04-1.18,.07-1.77,.11-.01-4.18-.02-8.37-.03-12.55Z"/>
      <path d="M38.88,202.24c6.47,3.1,.72,7.01,1.11,10.51-2.2-2.33-.5-5.28-1.75-7.73-.26-1.04-.19-2,.64-2.78Z"/>
      <path d="M42.75,338.47c.72,.04,1.44,.07,2.16,.11-.22,4.2-.43,8.4-.65,12.61-.63-.06-1.25-.12-1.88-.18,.12-4.18,.24-8.35,.37-12.53Z"/>
      <path d="M99.53,115.16c-.17,.79-.34,1.58-.51,2.37-2.98-.29-6.08,.9-10.05-.64,3.89-2.58,7.52-.48,10.56-1.73Z"/>
      <path d="M124.59,258c.06,.73,.12,1.46,.17,2.19-4.09,.77-8.15,2.14-12.86,.7,4.02-3.26,8.72-1.53,12.69-2.89Z"/>
      <path d="M62.01,190.09c-1.2-2.43,.01-3.89,2.01-5.04,.79-.14,1.58-.28,2.37-.42,.5-.03,.99-.05,1.49-.08-.04,1.3-.08,2.59-.12,3.89-1.32,.08-2.81-.32-3.59,1.28-.72,.12-1.45,.24-2.17,.36Z"/>
      <path d="M67.89,184.55c-.5,.03-.99,.05-1.49,.08-.76-4.24,.48-8.39,.55-12.6,.5,.04,.99,.08,1.49,.12,.37,4.16,.07,8.29-.55,12.4Z"/>
      <path d="M47.93,153.04c1.68,.02,3.36,.03,5.04,.05,0,.82,0,1.65,0,2.47-2.6-.45-3.71,2.49-6.05,2.63-.45-1.87-.04-3.57,1-5.15Z"/>
      <path d="M164.42,50.39c-1.53-2.6-2.08-5.29,0-9.09v9.09Z"/>
      <path d="M171.52,283.11c-.06-.68-.13-1.35-.19-2.03,4.12-.74,8.17-.26,12.23,1.06-3.95,1.2-7.93,1.72-12.04,.97Z"/>
      <path d="M32.6,308.19c-1-3.05-2.13-6.11,.5-8.97,1.2,3.06-.13,5.99-.5,8.97Z"/>
      <path d="M107.2,167.22c-.02,.74-.04,1.48-.07,2.22-2.53,.38-5.01,.61-7.1-2.48,2.64-.84,4.91-.23,7.17,.26Z"/>
      <path d="M54.16,248.92c-.62-.03-1.24-.07-1.85-.1,.19-4.17,.38-8.34,.57-12.51,.71,.03,1.41,.06,2.12,.09-.28,4.17-.56,8.35-.84,12.52Z"/>
      <path d="M33.59,294.42c-3.36-.52-.46-4.26-2.95-4.95,.96-1.89,2.41-1.06,3.51-1.38-.19,2.11-.38,4.22-.56,6.33Z"/>
      <path d="M390.92,449.46c2.78-.08,5.03,.54,5.14,3.94-.88,.25-1.76,.51-2.64,.76,.16-2.1-1.96-2.98-2.5-4.7Z"/>
      <path d="M264.61,357.84c.71-.18,1.42-.37,2.13-.55,2.14,5.48,2.17,9.87,3.24,17.69-3.82-6.24-3.49-11.45-5.37-17.14Z"/>
      <path d="M60.61,237.53c.7,.02,1.4,.03,2.1,.05,.2,2.11,1.15,4.39-1.8,6.42-.87-2.37-.84-4.38-.3-6.46Z"/>
      <path d="M262.79,326.11c-.7-.04-1.4-.07-2.1-.11-.05-2.11-.09-4.21-.14-6.32,.59-.04,1.18-.09,1.76-.13,.16,2.19,.32,4.37,.47,6.56Z"/>
      <path d="M206.77,214.88c1.92,.58,5.07-.1,3.82,3.73-1.69,.24-2.78-.88-3.98-1.75,.06-.66,.12-1.33,.17-1.99l-.02,.02Z"/>
      <path d="M401.02,298.2c.21-.69,.42-1.38,.63-2.07,1.97,1.44,3,3.37,2.95,5.84-.5,0-1.01,0-1.51,0-.69-1.25-1.38-2.51-2.07-3.76Z"/>
      <path d="M122,280.3c-.32,.44-.63,.88-.95,1.32-.45-.03-.9-.07-1.35-.1,.02-.6,.05-1.2,.07-1.79,1-.82,1.58,.02,2.23,.58Z"/>
      <path d="M322.8,449.38c.04-1.32,.29-2.51,1.79-3.03,1.74,1.29-.32,2.04-.45,3.05-.45,0-.89-.01-1.34-.02Z"/>
      <path d="M47.1,161.68c.71-.35,1.42-.95,2.23-.32,.17,.13,.18,.84,.03,.95-.88,.63-1.47-.12-2.11-.58l-.15-.04Z"/>
      <path d="M68.44,172.15c-.5-.04-.99-.08-1.49-.12-.02-.87-.04-1.74-.06-2.61,.59-.04,1.18-.07,1.77-.11-.07,.94-.15,1.89-.22,2.83Z"/>
      <path d="M177.57,112.38c.05,.55,.11,1.11,.16,1.66-.78-.2-1.55-.4-2.49-.64,.84-.37,1.59-.69,2.33-1.02Z"/>
      <path d="M424.09,293.43c-.75,.56-1.49,1.12-2.24,1.68-.3-.34-.59-.68-.89-1.02,.72-.59,1.43-1.17,2.15-1.76,.33,.37,.65,.73,.98,1.1Z"/>
      <path d="M331.1,453.79c1.75-.58,1.69,.64,1.75,1.75-.91-.26-1.85-.48-1.75-1.75Z"/>
      <g>
        <path d="M235.19,320.76c1.9,22.26,.17,44.77,3.68,66.99,.57,3.64-.81,5.72-3.8,7.03-1.31-.59-3.24,.96-4.08-1.31l-3.54-62.15c0-.87-.02-1.74-.02-2.62,.69-16.95,.69-44.67-2.39-47.13,.99,17.26-.97,30.44-.02,47.19-.48,.88-.55,1.77,0,2.66,.98,20.38,1.96,40.77,2.94,61.15-3.03-.43-4.29-2.76-4.71-5.46-1.05-6.75-2.6-13.54-2.61-20.3-.07-28.93-2.57-55.5-4.64-84.31-.16-2.16-2.68-2.27-2.55-.41,1.19,17.14,2.79,32.05,3.68,49.21,.85,16.27-.7,32.51,1.94,48.89,1.16,7.17,.79,10.03,4.67,13.8,.89,.86,2.29,1.18,3.38,.58,1.78-.97,5.89,1.1,7.91,1.51,2.54,2.01,4.93,.27,6.95,.13-3.05-35.86-3.73-68.45-3.96-104.08-.3,10.54-3.76,17.89-2.84,28.63Z"/>
        <path d="M237.31,284.18c.32-.83-3.51-25.61-2.82-15.53,.06,.82,.37,14.45,.71,15.73,.04,1.53,.03,14.44,2.17,15.33,2.01-1.11-.16-14.01-.05-15.52Z"/>
      </g>
      <path d="M428.4,291.19c-.66,.36-1.21,1.22-1.98,.23-.07-.09-.07-.33,0-.43,.74-.98,1.32-.19,1.97,.2Z"/>
      <path d="M423.12,292.33c.6-.34,1.25-1.18,1.89-.34,.73,.96-.34,1.12-.92,1.44-.33-.37-.65-.74-.98-1.1Z"/>
      <path d="M420,295.65c-.25,.29-.66,.85-.73,.81-1.01-.59-.31-.88,.25-1.19,0,0,.48,.38,.48,.38Z"/>
      <path d="M421.86,295.11c-.62,.18-1.24,.36-1.85,.53,0,0-.48-.38-.48-.38l1.44-1.18c.3,.34,.59,.68,.89,1.02Z"/>
      <path d="M93.28,260.22c.43-.92,.83-.87,1.22,.02l-.61,.13-.61-.16Z"/>
      <path d="M373.35,306.79c-13.81-5.81-27.63-11.38-40.91-18.63-14.71-8.03-29.07-17.25-45.66-21.58-3.83-1-6.94-1.32-9.5,2.37-1.59-1.14-1.4-3.77-3.71-3.78-.55-1.08-2.29-1.13-2.33-2.65,6.15,.85,3.03-5.8,6.69-8,1.5,3.08-.84,5.6-.73,8.14,4.8,1.06,7.45-3.52,6.59-11.29l-.12,.12c12.94-.22,24.05,5.53,36.06,12.48-1.75-6.26-3-10.76-4.33-15.54-4.27,1.56-8.04,2.45-10.96,6.57-.85-4.09-1.08-6.81,1.1-10.46,1.14,5.56,3.95,4.7,7.03,2.95,1.23-.7,2.41-1.8,4.04-1.02l-.12-.11c.34,5.61,3.49,10.27,5.26,15.39,.93,2.68,4.44,.47,5.67,2.78-.33,.33-.66,.66-.99,.99-4.25,1.83-8.19,.92-12.08-1.82-2.05,2.85-2.69,5.81-3.12,9.32,2.88,1.5,5.78,3.01,8.65,4.51,2.8-1.35,.43-4.99,4.04-6.99-.24,3.61,.84,6.59-2.13,9.62,4.06,1.76,7.98,3.45,11.75,5.09,2.63-1.72,1-5.02,3.36-7.06,3.15,3.05-4.17,9.29,3.16,10.67,2.46-2.47,.56-6.65,3.69-9.34,1.81,4.24-2.21,8.3-.18,12.33,3.2-.46,.75-4.08,3.54-4.86,2.38,1.74-1.24,5.73,2.16,7.24,3.3,.09,1.27-4.11,3.94-4.94,1.9,1.8-.23,3.94,.55,6.05,2.01,.93,4.2,1.94,6.24,2.88,2.02-1.72-1.45-3.75,.97-5.27,3.41,1.82,1.56,7.64,6.57,8.45,1.67-.71-.19-3.74,2.56-4.33,1.92,1.9-1.18,9.7,6.09,5.74,1.54,1.57,.08,3.69,1.07,5.29-.55,.11-1.09,.22-1.64,.34h.05c-.09-1.49,.07-3.36-2.32-1.65Zm-87.45-52.95c0,.98-.07,1.54,.01,2.07,.39,2.62-3.46,6.18,.31,7.67,4.29,1.69,3.2-3.7,5.05-5.47,.21-.2,.73-.08,1.1-.11,1.74,2.52-1.59,4.59-.61,7.25,2.92,.51,5.57,3.64,9.2,.21,.23,5.19,3.89,5.38,7.54,6.25,1.11-2.97,2.11-5.65,3.26-8.74-7.9-5.44-16.44-7.93-25.85-9.12Z"/>
      <path d="M312.2,444.59c-2.06-2.47,1.31-5.31-.52-7.8,.38-.44,.77-.89,1.15-1.33,1.03,.12,.91,2.33,2.52,1.39l-.07-.09c-.68,1.33,.22,1.97,1.14,2.6,3.38-.54,6.36,.3,8.95,2.54-3.13,1.49-6.14-2.46-9.93,.6-.26,.36,2.21,1.86,0,3.09-.93-.29-2.08-.65-3.24-1Z"/>
      <path d="M376.46,450.13c2.28-2.68,3.95-1.43,6.18-2.11-1.98,2.08-3.53,2.43-6.18,2.11Z"/>
      <path d="M385.92,446.93c-1.83,.05-3.63,.07-3.92-2.39l.16-.16c1.92-.11,3.12,.81,3.71,2.6l.05-.05Z"/>
      <path d="M388.4,448.2c-.14,.68-.07,1.81-1.04,1.57-1.3-.33-1.35-1.68-1.44-2.84l-.05,.05c.86,.42,1.71,.85,2.57,1.27l-.04-.05Z"/>
      <path d="M336.71,438.11c-.18-.18-.35-.35-.53-.53,.11,.03,.27,.03,.33,.11,.09,.13,.12,.3,.17,.45l.03-.03Z"/>
      <path d="M336.69,438.14c.18,.09,.37,.18,.55,.27l-.52-.29s-.03,.03-.03,.03Z"/>
      <path d="M382,444.54c-.26-.19-.52-.37-.78-.56,.72-.83,.71,.06,.94,.4l-.16,.16Z"/>
      <path d="M377.08,158.04c4.2-.25,8.31,.41,12.39,1.28,4.76,1.02,9.33,1.02,14.17-.31,5.71-1.56,11.49-.88,16.58,2.7-.89,.16-1.78,.33-2.67,.49-6.13-.62-12.15-2.13-18.38,.6-2.36,1.03-5.95,.39-8.59-.56-8.62-3.12-16.51-.69-24.14,2.8-4,1.83-8.08,1.69-12.15,2.24-5.53,.75-10.59,3.64-16.3,3.49-.02-.82-.04-1.65-.06-2.47,4.82-.46,9.56-1.08,12.45-6.48,9.58,5.24,18.07-.81,27.01-3.87l-.31,.08Z"/>
      <path d="M355.7,154.38c-4.59,.85-8.68-.13-12.09-3.43-1.73-1.67-3.75-2.59-6.16-2.66-3.63-2.3-.13-3.02,1.04-3.29,1.45-.33,3.12,.35,4.7,.6,1.78,3.51,4.48,5.8,8.49,6.23,1.8,.19,3.79-.05,4.02,2.55Z"/>
      <path d="M349.34,61.14c0-1.32-.02-2.63-.03-3.95,4.76,1.04,4.36,5.79,6.35,8.81-2.91-.57-6.75,.05-6.32-4.87Z"/>
      <path d="M324.08,158.13c-1.85-2.09,.32-2.74,1.35-3.8,.82,0,1.64,0,2.46,0-1,1.54-1.73,3.35-3.81,3.8Z"/>
      <path d="M107.11,120.18c2.12,.44,1.74,2.42,2.32,3.8-.7,0-1.4,0-2.1,0,.17-1.28-2.01-2.43-.22-3.81Z"/>
      <path d="M122.23,5.34c-6.28,0-12.57,.02-18.85,.03l.1-1.62c6.23-.09,12.46-.19,18.69-.28l.06,1.87Z"/>
      <path d="M372.1,248.54c3.8-2.85,1.64-5.46-.33-8.08,.1-.46,.21-.92,.31-1.38,2.08,.16,1.68-1.8,2.41-2.8,.76,.06,1.52,.12,2.28,.19-.81,5.77-.45,11.55,.03,17.32-.69,.05-1.39,.09-2.08,.14-.02-1.88-.75-3.27-2.65-3.86,.02-.51,.03-1.02,.05-1.53Z"/>
      <path d="M349.39,275.37c2.67,2.2,6.63,2.68,8.27,6.24-.73,.07-1.46,.13-2.19,.2-2.47-1.72-4.93-3.44-7.4-5.15,.44-.43,.88-.86,1.32-1.29Z"/>
      <path d="M234.54,224.95c4.69-4.34,4.66-10.39,5.59-16,.71-4.32,.8-8.73,1.17-13.11,.66-.34,1.32-.69,1.98-1.03,1.3,2.98,.77,6.11,.67,9.28,2.7,1.48,5.68-1.91,8.75,.83-3.1,2.4-8.49,.5-9.74,5.03-.99,3.58-1.29,7.35-1.96,11.35,3.13,.77,5.37,.41,5.04-3.86,2.84,.41,3.55,2.8,4.84,4.57-.5,.24-1,.48-1.49,.72-4.27-.17-8.15,.99-11.43,3.73-2.59,2.16-3.1,.73-3.3-1.64l-.12,.14Z"/>
      <path d="M206.79,214.86c-1.75-.17-3.28-.58-3.18-3.28,2.34,.01,3.34,1.01,3.16,3.29l.02-.02Z"/>
      <path d="M271.19,248.91c-.4-.68-.8-1.35-1.79-3.03,4.01,1.62,7.32,2.31,8.41,6.12-1.82,1.85-2.82-.2-4.1-.25-.47-1.28-1.24-2.29-2.52-2.84Z"/>
      <path d="M318.15,433.32c.55,1.25,1.45,2.45-.49,5.6,.4-3.12-2.32-3.94-.24-6.15,.23,.2,.47,.38,.73,.54Z"/>
      <path d="M60.73,148.85c.69,.42,1.37,.92,2.23,.39,.19,3.32,.89,6.69-1.27,10.93-2.11-4.37-1.38-7.86-.96-11.32Z"/>
      <path d="M274.76,273.95c1.73-3.6,5.55-4.09,8.41-6.14-.1,3.69-4.24,4.37-4.69,7.55-1.43,.04-2.9,.17-3.72-1.41Z"/>
      <g>
        <path d="M183.93,282.31c-5,35.65-5.41,57.33-10.49,93.04,1.33-36.11,3.22-57.56,10.49-93.04Z"/>
        <path d="M197.99,286.44c-.06,.78-.12,1.55-.19,2.32,.21,3.02-.01-3.92-.76-.98,.22,1.43,.33,2.85,.33,4.26,0,2.93-.45,5.84-1.25,8.72-.33,3.45-.66,6.91-1,10.37-.81,12.48-1.62,24.95-2.44,37.43-1.51,8.05-3.07,16.11-2.86,24.76-3.56-.09-3.32,4.75-5.79,5.72-2.58,1.02-5.85,.23-9.06,.23,1.31-3.07,4.25-1.76,5.31-2.55,.51-9,5.56-16.81,3.89-25.5-.79-9.66,1.59-18.84,3.89-28.03-.71-9.62,1.13-19.05,1.93-28.55,.66-7.75,2.48-5.56-.61-14.44,4.17,1.78,8.9,.12,8.59,6.25Z"/>
      </g>
      <path d="M397.26,274.13c-3.06-.3-3.39-4.29-6.37-4.7,.11-1.09,.21-2.19,.32-3.28,2.29,2.49,6.2,3.79,5.97,8.13l.08-.15Z"/>
      <path d="M390.54,289.19c.38,2.49,.27,4.82-2.16,6.36l.11,.13c-.42-2.26,1-4.82-2.29-6.93,2.07,.3,2.97,.43,3.88,.56,0,0,.46-.13,.46-.13Z"/>
      <path d="M322.73,432.01c.22,.25,.42,.48,.62,.71-.41,.28-.81,.56-1.22,.84-.09-.33-.33-.72-.23-.99,.09-.25,.54-.38,.82-.56Z"/>
      <path d="M341.17,174.98c-11.7,4.19-19.98,13.92-31.12,17.9-1.13-.37-.78,0-.34-.32,9.14-6.78,17.79-14.33,28.72-18.26,.73-.26,1.81,.43,2.73,.68Z"/>
      <path d="M355.67,236.37c-2.81,9.69-6.87,19.13-4.66,31.11-4.51-6.92-1.33-23.2,4.78-31.01l-.12-.1Z"/>
      <path d="M387.19,196.02c-3.09,3.92-7.05,6.51-12.03,7.86,5.57-3.93,8.41-8.92,6.8-16.53,3.5,2.73,1.62,5.62,1.81,8.28,1.15,.16,2.33,.32,3.51,.49,0,0-.09-.1-.09-.1Z"/>
      <path d="M357.23,206.43c.65-7.82-2.28-15.64-.25-23.53,.34,7.83,2.02,15.6,.25,23.53Z"/>
      <path d="M283.79,251.38c-2.13,.35-2.57-1.05-2.41-2.63,.79-7.59,1.68-15.17,3.4-22.68-.37,8.48-.74,16.95-1.11,25.43l.12-.12Z"/>
      <path d="M370.53,190.42c-.81-4.96-1.31-9.96,.2-14.93,.43,4.96,2.01,9.9-.2,14.93Z"/>
      <path d="M336.73,250.68c-1.46-4.11-.99-8.67,1.86-12.9-.65,4.53-1.31,9.07-1.86,12.9Z"/>
      <path d="M328.78,247.97c-1.43-5.14-2.86-10.28-4.29-15.41,.36-.1,.72-.21,1.08-.31,1.45,5.13,2.89,10.26,4.34,15.38-.38,.11-.75,.23-1.13,.34Z"/>
      <path d="M329.43,266.27c3.8,1.41,7.32,3.59,11.29,4.74-4.85,1.73-8.64-.9-12.4-3.65,.37-.36,.74-.72,1.11-1.08Z"/>
      <path d="M300.21,242.54c-2.87-1.16-2-4.21-3.08-6.27-.98-1.86-1.22-4.43-4.53-1.66,.74-2.88,2.71-3.27,4.21-4.92,1.2,4.73,2.24,8.84,3.28,12.95l.12-.1Z"/>
      <path d="M357.4,227.41c-3.84,1.34-8.13,3.16-13.22,3.75,4.46-2.78,9.02-3.67,13.22-3.75Z"/>
      <path d="M274.75,204.93c1.64-.8,4.17,1.82,5.19-1.36l-.11-.11c.62,3.2-2.48,6.27-.36,9.53-.35,.29-.7,.57-1.06,.86-4.61-1.67-.69-6.69-3.55-9.05l-.11,.14Z"/>
      <path d="M355.54,211.57c2.59-2.37,5.97-2.72,9.19-3.47-2.55,2.46-6,2.63-9.19,3.47Z"/>
      <path d="M398.54,297.98c-3.45,4.74-4.59,4.87-8.97,.65,3.22-.19,6.14-.37,9.06-.54l-.09-.1Z"/>
      <path d="M401.86,184.83c2.94-3.39,6.82-4.08,10.56-5.14,.16,.47,.33,.95,.49,1.42-3.68,1.24-7.37,2.48-11.05,3.72Z"/>
      <path d="M333.1,208.74c-2.07,2.39-5.05,2.43-8.25,3.32,.07-2.77-.51-5.37,3.14-5.95l-.15-.09c-.36,1.11-.72,2.22-1.12,3.43,2.26,.87,3.65-1.28,5.55-1.55,.26,.29,.54,.58,.82,.85Z"/>
      <path d="M292.42,181.04c-1.88-3.75,.22-6.66,1.98-10.83,1.13,4.67-1.06,7.65-1.98,10.83Z"/>
      <path d="M336.64,223.77c1.78,.75,1.89,2.64,2.2,4.02,.55,2.48,1.96,.93,3.02,1.04l-.12-.09c-.24,1.72-1.19,3.01-3.13,4.84,0-3.81-2.55-6.41-1.86-9.91l-.11,.1Z"/>
      <path d="M393.93,177.33c4.29,.09,7.13-.36,9.99-.43-2.8,1.17-5.54,3.62-9.99,.43Z"/>
      <path d="M328.24,280.51c-2.53-3.28-1.44-5.87,1.42-9.01,.55,3.75-1.8,6.19-1.42,9.01Z"/>
      <path d="M283.14,220.67c1.62,.68,2.37-.01,2.28-1.6-.11-1.88-.25-3.71,1.77-5.18,.06,2.81-1.61,5.04-1.45,7.78,.14,2.35-.73,2.37-3.44-.35,.27-.22,.55-.44,.84-.65Z"/>
      <path d="M349.39,275.37c-.44,.43-.88,.86-1.32,1.29-1.64-.72-3.28-1.45-5.02-2.21,.21-2.07,2.26-2.41,2.92-3.78,1.15,1.58,2.29,3.14,3.43,4.7Z"/>
      <path d="M291.32,204.83c-.52,1.79-.81,3.51-.4,5.46,.61,2.91-1.36,.54-2.08,.82l.11,.11c-.37-2.57,.39-4.7,2.49-6.29l-.12-.1Z"/>
      <path d="M291.29,236.31c.19,1.95-1.71,2.92-2.39,6.13,.18-3.29,.23-5.01,1.5-6.4,.08-.09,.32-.1,.45-.05,.18,.07,.32,.23,.48,.35l-.05-.04Z"/>
      <path d="M287.36,197.8c-2.11-1.76-4.66-3.51-3.15-7.26,1.93,2.13,2.66,4.56,3.15,7.26Z"/>
      <path d="M272.42,222.47c.63-1.82,1.26-3.63,1.9-5.45,.23,2.2,.36,4.38-2.02,5.34,0,0,.12,.1,.12,.1Z"/>
      <path d="M321.05,195.47c-1.86,1.53-3.91,2.36-6.58,1.16,1.89-.71,3.79-1.41,5.68-2.12,.3,.32,.6,.64,.9,.96Z"/>
      <path d="M269.74,227.37c1.81-1.13-1.12-4.86,2.68-4.9l-.12-.1c0,1.74,.01,3.47,.02,5.21l.11-.14c-.88-.05-1.76-.1-2.65-.15l-.04,.08Z"/>
      <path d="M387.29,196.11c.19-2.08,1.26-3.41,3.52-4.04,.51,3.03-2.46,2.69-3.61,3.94l.09,.1Z"/>
      <path d="M280.94,218.88c-1.51-1.35-2.25-3.08-2.53-5.04,.35-.29,.7-.57,1.06-.86,.8,1.69,1.6,3.38,2.4,5.08-.32,.27-.63,.54-.93,.82Z"/>
      <path d="M336.59,262.88c2.46-.03,2.63,1.67,3.26,4.05-2.33-1.14-2.8-2.59-3.13-4.14l-.13,.09Z"/>
      <path d="M347.87,183.12c.81,2.21-1.7,1.09-2.04,1.98,.65-.57,1.39-1.21,2.14-1.85l-.09-.12Z"/>
      <path d="M394.5,189.4c.6-1.35,1.26-2.62,3.37-2.06-.17,1.59-1.33,2.23-2.53,2.85-.28-.26-.56-.52-.84-.79Z"/>
      <path d="M294.59,218.01c.45,1.27,1.66,2.35,1.08,3.99-2.24-.14-1.7-1.95-2.05-3.18,.32-.27,.65-.54,.97-.81Z"/>
      <path d="M319.27,218.86c-.24,1.45-1.06,2.46-2.46,3.15-1-1.97,.74-2.77,1.58-3.91,.29,.25,.59,.51,.88,.76Z"/>
      <path d="M278.12,234.44c.92,1.21,2.03,2.36,1.49,4.26-2.71-.06-2.07-2.08-2.51-3.35l1.02-.91Z"/>
      <path d="M395.34,190.19c-.74,1-1.62,1.77-3.3,1.97-.16-2.05,1.08-2.47,2.46-2.76,.28,.27,.56,.53,.84,.79Z"/>
      <path d="M320.14,215.99c.09-.78,.41-1.84,1.25-1.39,1.26,.67,.29,1.55-.31,2.24-.31-.28-.62-.57-.93-.85Z"/>
      <path d="M272.31,227.58c1.07-.8,1.35,.15,1.62,.83,.08,.19-.34,.83-.47,.81-1.04-.14-1.11-.94-1.05-1.78l-.11,.14Z"/>
      <path d="M336.72,262.79c-.99-.34-1.54-1-1.53-2.13,1.85-.1,1.89,.89,1.4,2.21l.13-.09Z"/>
      <path d="M355.61,178.26c.65-.71,1.3-1.42,2.17-2.37,.27,2.42-.93,2.45-2.29,2.26l.12,.11Z"/>
      <path d="M333.93,207.04c.62-1.2,1.53-.87,3.18-.69-1.14,.91-1.71,1.37-2.29,1.83-.3-.38-.59-.76-.89-1.14Z"/>
      <path d="M327.99,206.11c-.9-.82-.13-1.43,.28-2.07,.03-.05,.52,.07,.56,.18,.32,.93-.03,1.53-.98,1.79l.15,.09Z"/>
      <path d="M307.65,213.56c-.25,.88-.83,1.15-1.66,.84-.11-.04-.22-.47-.16-.51,.6-.47,1.24-.86,1.97-.21l-.14-.11Z"/>
      <path d="M324.82,190.23c.42-.51,.71-1.78,1.55-.88,.63,.67-.02,1.44-1,1.58-.19-.23-.37-.47-.55-.7Z"/>
      <path d="M300.09,242.64c1.4,.36,1.34,1.45,1.25,2.54l.14-.11c-1.79-.15-1.57-1.32-1.27-2.53,0,0-.12,.09-.12,.09Z"/>
      <path d="M269.77,227.29c-.18,.25-.37,.49-.53,.75,0,.01,.23,.18,.35,.27,.05-.31,.09-.62,.14-.94l.04-.08Z"/>
      <path d="M327.41,264.53c.67,.58,1.34,1.16,2.01,1.74-.37,.36-.74,.72-1.11,1.08-.63-.61-1.26-1.22-1.89-1.83,.33-.33,.66-.66,.99-.99Z"/>
      <path d="M341.85,228.83c-.41-1.25-.36-2.27,1.24-2.52l-.11-.09c.03,1.06,.16,2.18-1.25,2.52l.12,.09Z"/>
      <path d="M301.34,245.18c.78-.06,1.13,.28,.94,1.05-.03,.14-.42,.34-.46,.31-.45-.4-.93-.82-.34-1.47l-.14,.11Z"/>
      <path d="M320.14,194.51c.68-.52,1.35-1.04,2.03-1.56,.24,.16,.47,.33,.69,.51-.61,.67-1.21,1.34-1.81,2.02-.3-.32-.6-.64-.9-.96Z"/>
      <path d="M343.1,226.31c-.1-1.1-.37-2.28,1.24-2.55,0,0-.11-.09-.11-.09-.03,1.03,.05,2.13-1.24,2.55,0,0,.11,.09,.11,.09Z"/>
      <path d="M316.6,246.47c-.33-1.73,.63-1.39,1.64-1.07-.25,1.04-.97,1.06-1.76,.96l.12,.11Z"/>
      <path d="M355.79,236.47c.05-.6,.11-1.2,.16-1.81,1.26,.79,.42,1.24-.28,1.71l.12,.1Z"/>
      <path d="M345.52,221.18c-.04,1.03,.18,2.2-1.3,2.48,0,0,.11,.09,.11,.09-.03-1.07-.69-2.48,1.3-2.49l-.12-.08Z"/>
      <path d="M277.1,235.35c-.58-.73-1.15-1.46-1.73-2.19,.32-.27,.65-.55,.97-.82,.59,.7,1.19,1.4,1.78,2.1-.34,.3-.68,.61-1.02,.91Z"/>
      <path d="M336.75,223.66c-1.3-.15-1.46-.9-1.03-2.1,1.29,.39,.83,1.42,.92,2.21,0,0,.11-.1,.11-.1Z"/>
      <path d="M345.64,221.27c-.37-.78-.32-1.44,.55-1.89,.66,.96,.08,1.42-.67,1.81l.12,.08Z"/>
      <path d="M279.94,203.56c.19-.44,.39-.87,.58-1.3,.32,.72-.13,.99-.69,1.2l.11,.11Z"/>
      <path d="M293.62,218.82c-1.06-.57-1.14-1.47-1.16-2.52,1.75-.35,1.6,1.05,2.13,1.7-.32,.27-.65,.54-.97,.81Z"/>
      <path d="M282.31,221.31c-1.17-.41-1.25-1.43-1.37-2.43,.3-.28,.61-.56,.93-.82,.43,.87,.85,1.74,1.28,2.61-.28,.21-.56,.42-.84,.64Z"/>
      <path d="M321.08,216.84c-.6,.67-1.2,1.35-1.8,2.02-.29-.25-.58-.51-.88-.76,.58-.7,1.17-1.41,1.75-2.11,.31,.28,.62,.57,.93,.85Z"/>
      <path d="M308.83,212.23c.67-.61,1.35-1.23,2.02-1.84,.26,.31,.53,.61,.82,.89-.33,1.11-1.33,1.25-2.24,1.51-.2-.18-.41-.37-.61-.56Z"/>
      <path d="M288.84,211.11c-.21,.18-.43,.37-.42,.36,0,0,.26-.12,.52-.25,0,0-.11-.11-.11-.11Z"/>
      <path d="M332.28,207.89c.55-.28,1.1-.57,1.65-.85,.3,.38,.59,.76,.89,1.14-.57,.19-1.15,.37-1.72,.56-.28-.27-.56-.56-.82-.85Z"/>
      <path d="M293.87,201.03l.36-1.08c.18,.2,.35,.39,.53,.59-.33,.13-.66,.26-1,.39l.11,.11Z"/>
      <path d="M293.76,200.93c-.09,.38-.17,.75-.26,1.13-.21-.17-.41-.34-.62-.51,.33-.17,.66-.34,.99-.51,0,0-.11-.11-.11-.11Z"/>
      <path d="M354.37,179.58l-.71,.77c-.42-1.09,.39-.64,.83-.66l-.11-.11Z"/>
      <path d="M291.34,236.34c-.45-.51-.44-.99,.18-1.33,.13-.07,.38,.08,.57,.13-.27,.39-.54,.77-.8,1.16,0,0,.05,.04,.05,.04Z"/>
      <path d="M322.17,192.95c.44-.41,.88-.83,1.32-1.24,.22,.16,.43,.32,.63,.49-.06,.78-.48,1.2-1.26,1.26-.23-.18-.46-.34-.69-.51Z"/>
      <path d="M325.38,190.93c-.08,.76-.47,1.21-1.25,1.26-.2-.17-.41-.33-.63-.49,.44-.49,.89-.98,1.33-1.47,.18,.23,.37,.47,.55,.7Z"/>
      <path d="M309.44,212.79c-.41,.7-1.01,.94-1.79,.77l.14,.11c-.84-1.34,.35-1.21,1.04-1.44,.2,.19,.4,.38,.61,.56Z"/>
      <path d="M310.86,210.39c.6-.45,1.22-1.01,1.84-.11,.05,.07-.66,.66-1.02,1-.29-.28-.56-.58-.82-.89Z"/>
      <path d="M351.28,181.78c-.12-.06-.25-.12-.37-.19,.14-.16,.27-.32,.41-.48,.12,.12,.24,.24,.36,.35-.13,.1-.27,.21-.4,.31Z"/>
      <path d="M347.97,183.24c.26-.22,.52-.45,.78-.67,.04,.23,.07,.45,.11,.68-.33-.04-.65-.08-.98-.13l.09,.12Z"/>
      <path d="M388.38,295.55c-.14,.3-.28,.61-.43,.91-.12-.22-.24-.45-.36-.67,.3-.04,.59-.07,.89-.11,0,0-.11-.13-.11-.13Z"/>
      <path d="M275.36,233.16c-.35-.56-1.11-1.15-.08-1.69,.16-.08,.69,.56,1.05,.87-.32,.27-.65,.55-.97,.82Z"/>
      <path d="M292.35,214.14c-.07,.14-.14,.28-.21,.42-.19-.15-.39-.3-.58-.45l.41-.42c.13,.15,.25,.29,.38,.44Z"/>
      <path d="M291.43,204.93c.05-.34,.09-.69,.14-1.03,1.09,.63-.17,.62-.25,.93l.12,.1Z"/>
      <path d="M354.49,179.68c-.21-.94,.45-1.19,1.13-1.43l-.12-.11c.23,.95-.42,1.21-1.12,1.43l.11,.11Z"/>
      <path d="M373.35,306.79c2.39-1.71,2.23,.16,2.32,1.66-.77-.55-1.55-1.11-2.32-1.66Z"/>
      <path d="M307.83,443.42c-.33-2.88-2.02-4.51-1.38-6.73q4.73,2.42,1.38,6.73Z"/>
      <path d="M296.05,432.46c.47,1.24,1.83,2.12,1.46,3.73-1.98,.03-2.3-1.45-2.67-2.88,.4-.28,.81-.56,1.21-.84Z"/>
      <path d="M305.77,434.36c.13,.27,.3,.54,.35,.83,.02,.11-.24,.27-.38,.4-.13-.28-.31-.54-.36-.83-.02-.1,.25-.26,.39-.4Z"/>
      <path d="M308.31,173.42c-1.34,2.13-2.69,4.26-4.5,7.13q-.27-4.7,4.5-7.13Z"/>
      <path d="M319.05,164.39c.22-3.85,1.3-5.19,5.06-6.31-.57,3-2.23,5.12-5.06,6.31Z"/>
      <path d="M314.87,152.79c-.31,1.03-.87,1.98-1.94,.95-.88-.85-.4-1.78,.67-2.32,.42,.46,.85,.91,1.27,1.37Z"/>
      <path d="M349.32,57.2c-1.63-.22-2.34-.9-1.24-2.49,1.85,.11,2.87,.64,1.24,2.49Z"/>
      <path d="M134.19,93.8c.8,.69,.84,1.33,.16,1.98-.07,.07-.3,.07-.37,0-.91-.79-.04-1.31,.21-1.99Z"/>
      <path d="M124.29,11.33c-13.37,.35-26.83-.24-40.27,.82,13.31-3.69,26.76-1.92,40.27-.82Z"/>
      <path d="M205.15,16.6c6.88-3.32,13.81-6.28,21.66-5.66-7.22,1.89-14.44,3.78-21.66,5.66Z"/>
      <path d="M213.09,20.62c.35-.63,.69-1.27,1.04-1.9,.3,.18,.86,.39,.85,.55-.09,1.16-.79,1.59-1.91,1.33,0,0,.03,.02,.03,.02Z"/>
      <path d="M211.24,23.79c-.99,1.12-1.97,2.24-2.96,3.36-.32-.29-.63-.57-.95-.86,.8-1.31,1.48-2.72,3.03-3.35,.28,.29,.58,.58,.88,.85Z"/>
      <path d="M212.3,22.39c-.35,.47-.71,.93-1.06,1.4-.3-.27-.59-.56-.88-.85,.42-.42,.84-.84,1.26-1.26,.23,.23,.45,.47,.67,.71Z"/>
      <path d="M213.06,20.6c.93,1.1-.16,1.34-.76,1.79-.22-.24-.45-.47-.67-.71,.19-.77,.54-1.31,1.46-1.06l-.03-.02Z"/>
      <path d="M64.32,7.9c-.29,0-.59,0-.88-.01,.46-1.05,.57-.13,.79,.14l.09-.13Z"/>
      <path d="M396.13,244.02c1.6-4.6-.51-8.91-1.06-13.33-.27-2.2-.57-4.39-.38-6.66,2.84,6,3.31,12.45,3.52,18.93,.06,1.84-1.8-.17-2.16,.96l.08,.1Z"/>
      <path d="M391.01,232.53c-1.17-2.34-2.45-4.61-1.85-8.31,2.09,3.12,2.69,5.57,1.85,8.31Z"/>
      <path d="M399.04,263.15c-2.64-3.33-.67-6.25-2.07-8.6,1.24,2.42,2.83,4.73,2.07,8.6Z"/>
      <path d="M396.05,243.92c-.38,.64-.76,1.28-1.46,2.46-.73-2.15-1.33-3.9-1.98-5.84,3.2-.18,.78,3.8,3.53,3.47l-.08-.1Z"/>
      <path d="M403.51,277.98c-2.41-.76-4.73-1.66-6.26-3.85l-.08,.15c3.3-.71,5.19,.89,6.26,3.83l.08-.13Z"/>
      <path d="M417.05,210.44c2.05-.3,3.1-.08,3.3,1.56-1.83,1.32-2.25-.55-3.3-1.56Z"/>
      <path d="M423.12,216.42c-.26-.48-.5-.95-.75-1.41,.33-.15,.83-.52,.95-.42,.4,.34,.66,.83,.98,1.27-.34,.16-.68,.33-1.17,.56Z"/>
      <path d="M403.44,278.11c.91-.71,1.67-.56,2.38,.5-1.12,.85-1.68-.02-2.3-.62l-.08,.13Z"/>
      <path d="M421.83,212.36c.13,.28,.32,.54,.38,.84,.02,.1-.25,.27-.39,.41-.14-.28-.32-.55-.38-.84-.02-.1,.25-.27,.39-.41Z"/>
      <path d="M234.66,224.81c-1.74,.84-2.9,3.1-5.41,2.05-1.43-.6-1.72-1.62-1.56-2.98,.25-2.13,.55-4.57,3.18-4.65,3.91-.11,3.87,2.88,3.66,5.71l.12-.14Z"/>
      <path d="M253.47,226.18c.5,.63,.99,1.26,1.49,1.89-.46-.67-.92-1.35-1.38-2.02l-.12,.13Z"/>
      <path d="M253.59,226.04c-1.95,.69-2.16-1.09-2.94-2.07,.25-.48,.51-.97,.76-1.45,1.29,.88,2.28,1.92,2.06,3.65l.12-.13Z"/>
      <path d="M250.88,222c.19,.16,.37,.34,.53,.53-.25,.48-.51,.97-.76,1.45-.42-.42-.84-.84-1.26-1.26,.5-.24,1-.48,1.49-.72Z"/>
      <path d="M176.48,280.02c5.06-1.78,10.49-1.54,15.29-.35,9.34,2.31,18.53,.63,27.78,.76,2.08,.03,4.17,.24,6.25,.37,.06,.68,.13,1.35,.19,2.03-7.41,1.7-14.84,1.23-22.33,.53-9.36-.87-18.76-1.36-28.14-2.02,.32-.44,.63-.88,.95-1.32Z"/>
    </g>
  </g>
</svg>